%TF.GenerationSoftware,KiCad,Pcbnew,7.0.6*%
%TF.CreationDate,2023-09-15T14:04:58+02:00*%
%TF.ProjectId,V8,56382e6b-6963-4616-945f-706362585858,rev?*%
%TF.SameCoordinates,Original*%
%TF.FileFunction,Soldermask,Bot*%
%TF.FilePolarity,Negative*%
%FSLAX46Y46*%
G04 Gerber Fmt 4.6, Leading zero omitted, Abs format (unit mm)*
G04 Created by KiCad (PCBNEW 7.0.6) date 2023-09-15 14:04:58*
%MOMM*%
%LPD*%
G01*
G04 APERTURE LIST*
G04 Aperture macros list*
%AMRoundRect*
0 Rectangle with rounded corners*
0 $1 Rounding radius*
0 $2 $3 $4 $5 $6 $7 $8 $9 X,Y pos of 4 corners*
0 Add a 4 corners polygon primitive as box body*
4,1,4,$2,$3,$4,$5,$6,$7,$8,$9,$2,$3,0*
0 Add four circle primitives for the rounded corners*
1,1,$1+$1,$2,$3*
1,1,$1+$1,$4,$5*
1,1,$1+$1,$6,$7*
1,1,$1+$1,$8,$9*
0 Add four rect primitives between the rounded corners*
20,1,$1+$1,$2,$3,$4,$5,0*
20,1,$1+$1,$4,$5,$6,$7,0*
20,1,$1+$1,$6,$7,$8,$9,0*
20,1,$1+$1,$8,$9,$2,$3,0*%
G04 Aperture macros list end*
%ADD10R,1.000000X1.000000*%
%ADD11O,1.000000X1.000000*%
%ADD12C,2.500000*%
%ADD13RoundRect,0.100000X-0.100000X0.130000X-0.100000X-0.130000X0.100000X-0.130000X0.100000X0.130000X0*%
%ADD14RoundRect,0.100000X0.130000X0.100000X-0.130000X0.100000X-0.130000X-0.100000X0.130000X-0.100000X0*%
%ADD15RoundRect,0.100000X-0.130000X-0.100000X0.130000X-0.100000X0.130000X0.100000X-0.130000X0.100000X0*%
%ADD16RoundRect,0.100000X0.100000X-0.130000X0.100000X0.130000X-0.100000X0.130000X-0.100000X-0.130000X0*%
%ADD17R,1.200000X0.700000*%
%ADD18R,0.800000X1.000000*%
%ADD19R,2.800000X1.000000*%
%ADD20R,1.200000X1.000000*%
%ADD21R,1.900000X1.300000*%
%ADD22RoundRect,0.102000X0.100000X0.570000X-0.100000X0.570000X-0.100000X-0.570000X0.100000X-0.570000X0*%
G04 APERTURE END LIST*
D10*
%TO.C,J8*%
X169300000Y-102590000D03*
D11*
X169300000Y-103860000D03*
X169300000Y-105130000D03*
X169300000Y-106400000D03*
X169300000Y-107670000D03*
%TD*%
D12*
%TO.C,H4*%
X168000000Y-118000000D03*
%TD*%
%TO.C,H1*%
X132000000Y-82000000D03*
%TD*%
D10*
%TO.C,J2*%
X169300000Y-114000000D03*
D11*
X169300000Y-112730000D03*
X169300000Y-111460000D03*
X169300000Y-110190000D03*
%TD*%
D12*
%TO.C,H2*%
X168000000Y-82000000D03*
%TD*%
%TO.C,H3*%
X132000000Y-118000000D03*
%TD*%
D13*
%TO.C,R26*%
X153300000Y-81780000D03*
X153300000Y-82420000D03*
%TD*%
%TO.C,R18*%
X154200000Y-81780000D03*
X154200000Y-82420000D03*
%TD*%
D14*
%TO.C,R2*%
X138020000Y-90700000D03*
X137380000Y-90700000D03*
%TD*%
D13*
%TO.C,C26*%
X152300000Y-90560000D03*
X152300000Y-91200000D03*
%TD*%
D14*
%TO.C,R1*%
X140820000Y-90700000D03*
X140180000Y-90700000D03*
%TD*%
D15*
%TO.C,C5*%
X137380000Y-105000000D03*
X138020000Y-105000000D03*
%TD*%
D16*
%TO.C,C15*%
X146100000Y-102820000D03*
X146100000Y-102180000D03*
%TD*%
%TO.C,R11*%
X152300000Y-96000000D03*
X152300000Y-95360000D03*
%TD*%
D15*
%TO.C,R6*%
X137380000Y-103000000D03*
X138020000Y-103000000D03*
%TD*%
D13*
%TO.C,C8*%
X138600000Y-82080000D03*
X138600000Y-82720000D03*
%TD*%
D14*
%TO.C,R3*%
X138020000Y-93500000D03*
X137380000Y-93500000D03*
%TD*%
%TO.C,C3*%
X138020000Y-92700000D03*
X137380000Y-92700000D03*
%TD*%
%TO.C,C4*%
X140820000Y-92700000D03*
X140180000Y-92700000D03*
%TD*%
D16*
%TO.C,R12*%
X152300000Y-97600000D03*
X152300000Y-96960000D03*
%TD*%
D17*
%TO.C,J1*%
X154175000Y-96100000D03*
X154175000Y-95000000D03*
X154175000Y-93900000D03*
X154175000Y-92800000D03*
X154175000Y-91700000D03*
X154175000Y-90600000D03*
X154175000Y-89500000D03*
X154175000Y-88400000D03*
X154175000Y-87450000D03*
D18*
X164675000Y-86500000D03*
D19*
X168825000Y-86500000D03*
D20*
X158475000Y-86500000D03*
X154175000Y-97650000D03*
D21*
X169275000Y-100000000D03*
%TD*%
D14*
%TO.C,C2*%
X138020000Y-91500000D03*
X137380000Y-91500000D03*
%TD*%
D16*
%TO.C,C10*%
X139500000Y-84320000D03*
X139500000Y-83680000D03*
%TD*%
D13*
%TO.C,R7*%
X152300000Y-87330000D03*
X152300000Y-87970000D03*
%TD*%
D15*
%TO.C,C13*%
X139532500Y-100050000D03*
X140172500Y-100050000D03*
%TD*%
D16*
%TO.C,R9*%
X152300000Y-92800000D03*
X152300000Y-92160000D03*
%TD*%
D15*
%TO.C,R5*%
X137380000Y-105800000D03*
X138020000Y-105800000D03*
%TD*%
D16*
%TO.C,R10*%
X152300000Y-94400000D03*
X152300000Y-93760000D03*
%TD*%
%TO.C,R21*%
X164925000Y-106000000D03*
X164925000Y-105360000D03*
%TD*%
D13*
%TO.C,C9*%
X137700000Y-82080000D03*
X137700000Y-82720000D03*
%TD*%
D16*
%TO.C,C7*%
X139500000Y-82720000D03*
X139500000Y-82080000D03*
%TD*%
%TO.C,R25*%
X155100000Y-82420000D03*
X155100000Y-81780000D03*
%TD*%
D13*
%TO.C,R22*%
X164025000Y-105360000D03*
X164025000Y-106000000D03*
%TD*%
%TO.C,C14*%
X144400000Y-102160000D03*
X144400000Y-102800000D03*
%TD*%
D15*
%TO.C,C12*%
X139532500Y-97450000D03*
X140172500Y-97450000D03*
%TD*%
D16*
%TO.C,C29*%
X164925000Y-107500000D03*
X164925000Y-106860000D03*
%TD*%
D22*
%TO.C,P1*%
X154800000Y-115220000D03*
X154800000Y-112580000D03*
X154400000Y-115220000D03*
X154400000Y-112580000D03*
X154000000Y-115220000D03*
X154000000Y-112580000D03*
X153600000Y-115220000D03*
X153600000Y-112580000D03*
X153200000Y-115220000D03*
X153200000Y-112580000D03*
X152800000Y-115220000D03*
X152800000Y-112580000D03*
X152400000Y-115220000D03*
X152400000Y-112580000D03*
X152000000Y-115220000D03*
X152000000Y-112580000D03*
X151600000Y-115220000D03*
X151600000Y-112580000D03*
X151200000Y-115220000D03*
X151200000Y-112580000D03*
X150800000Y-115220000D03*
X150800000Y-112580000D03*
X150400000Y-115220000D03*
X150400000Y-112580000D03*
X150000000Y-115220000D03*
X150000000Y-112580000D03*
X149600000Y-115220000D03*
X149600000Y-112580000D03*
X149200000Y-115220000D03*
X149200000Y-112580000D03*
X148800000Y-115220000D03*
X148800000Y-112580000D03*
X148400000Y-115220000D03*
X148400000Y-112580000D03*
X148000000Y-115220000D03*
X148000000Y-112580000D03*
X147600000Y-115220000D03*
X147600000Y-112580000D03*
X147200000Y-115220000D03*
X147200000Y-112580000D03*
X146800000Y-115220000D03*
X146800000Y-112580000D03*
X146400000Y-115220000D03*
X146400000Y-112580000D03*
X146000000Y-115220000D03*
X146000000Y-112580000D03*
X145600000Y-115220000D03*
X145600000Y-112580000D03*
X145200000Y-115220000D03*
X145200000Y-112580000D03*
%TD*%
D16*
%TO.C,R24*%
X163125000Y-107500000D03*
X163125000Y-106860000D03*
%TD*%
D14*
%TO.C,R4*%
X140820000Y-93500000D03*
X140180000Y-93500000D03*
%TD*%
D15*
%TO.C,C6*%
X137380000Y-103800000D03*
X138020000Y-103800000D03*
%TD*%
D14*
%TO.C,C1*%
X140820000Y-91500000D03*
X140180000Y-91500000D03*
%TD*%
D13*
%TO.C,C11*%
X138600000Y-83680000D03*
X138600000Y-84320000D03*
%TD*%
%TO.C,R8*%
X152300000Y-89000000D03*
X152300000Y-89640000D03*
%TD*%
%TO.C,R23*%
X163125000Y-105360000D03*
X163125000Y-106000000D03*
%TD*%
M02*
