%TF.GenerationSoftware,KiCad,Pcbnew,7.0.6*%
%TF.CreationDate,2023-09-15T14:04:58+02:00*%
%TF.ProjectId,V8,56382e6b-6963-4616-945f-706362585858,rev?*%
%TF.SameCoordinates,Original*%
%TF.FileFunction,Legend,Bot*%
%TF.FilePolarity,Positive*%
%FSLAX46Y46*%
G04 Gerber Fmt 4.6, Leading zero omitted, Abs format (unit mm)*
G04 Created by KiCad (PCBNEW 7.0.6) date 2023-09-15 14:04:58*
%MOMM*%
%LPD*%
G01*
G04 APERTURE LIST*
%ADD10C,0.150000*%
%ADD11C,0.120000*%
%ADD12C,0.100000*%
G04 APERTURE END LIST*
D10*
X153312295Y-84014285D02*
X152931342Y-83814285D01*
X153312295Y-83671428D02*
X152512295Y-83671428D01*
X152512295Y-83671428D02*
X152512295Y-83899999D01*
X152512295Y-83899999D02*
X152550390Y-83957142D01*
X152550390Y-83957142D02*
X152588485Y-83985713D01*
X152588485Y-83985713D02*
X152664676Y-84014285D01*
X152664676Y-84014285D02*
X152778961Y-84014285D01*
X152778961Y-84014285D02*
X152855152Y-83985713D01*
X152855152Y-83985713D02*
X152893247Y-83957142D01*
X152893247Y-83957142D02*
X152931342Y-83899999D01*
X152931342Y-83899999D02*
X152931342Y-83671428D01*
X152588485Y-84242856D02*
X152550390Y-84271428D01*
X152550390Y-84271428D02*
X152512295Y-84328571D01*
X152512295Y-84328571D02*
X152512295Y-84471428D01*
X152512295Y-84471428D02*
X152550390Y-84528571D01*
X152550390Y-84528571D02*
X152588485Y-84557142D01*
X152588485Y-84557142D02*
X152664676Y-84585713D01*
X152664676Y-84585713D02*
X152740866Y-84585713D01*
X152740866Y-84585713D02*
X152855152Y-84557142D01*
X152855152Y-84557142D02*
X153312295Y-84214285D01*
X153312295Y-84214285D02*
X153312295Y-84585713D01*
X152512295Y-85100000D02*
X152512295Y-84985714D01*
X152512295Y-84985714D02*
X152550390Y-84928571D01*
X152550390Y-84928571D02*
X152588485Y-84900000D01*
X152588485Y-84900000D02*
X152702771Y-84842857D01*
X152702771Y-84842857D02*
X152855152Y-84814285D01*
X152855152Y-84814285D02*
X153159914Y-84814285D01*
X153159914Y-84814285D02*
X153236104Y-84842857D01*
X153236104Y-84842857D02*
X153274200Y-84871428D01*
X153274200Y-84871428D02*
X153312295Y-84928571D01*
X153312295Y-84928571D02*
X153312295Y-85042857D01*
X153312295Y-85042857D02*
X153274200Y-85100000D01*
X153274200Y-85100000D02*
X153236104Y-85128571D01*
X153236104Y-85128571D02*
X153159914Y-85157142D01*
X153159914Y-85157142D02*
X152969438Y-85157142D01*
X152969438Y-85157142D02*
X152893247Y-85128571D01*
X152893247Y-85128571D02*
X152855152Y-85100000D01*
X152855152Y-85100000D02*
X152817057Y-85042857D01*
X152817057Y-85042857D02*
X152817057Y-84928571D01*
X152817057Y-84928571D02*
X152855152Y-84871428D01*
X152855152Y-84871428D02*
X152893247Y-84842857D01*
X152893247Y-84842857D02*
X152969438Y-84814285D01*
X154562295Y-84014285D02*
X154181342Y-83814285D01*
X154562295Y-83671428D02*
X153762295Y-83671428D01*
X153762295Y-83671428D02*
X153762295Y-83899999D01*
X153762295Y-83899999D02*
X153800390Y-83957142D01*
X153800390Y-83957142D02*
X153838485Y-83985713D01*
X153838485Y-83985713D02*
X153914676Y-84014285D01*
X153914676Y-84014285D02*
X154028961Y-84014285D01*
X154028961Y-84014285D02*
X154105152Y-83985713D01*
X154105152Y-83985713D02*
X154143247Y-83957142D01*
X154143247Y-83957142D02*
X154181342Y-83899999D01*
X154181342Y-83899999D02*
X154181342Y-83671428D01*
X154562295Y-84585713D02*
X154562295Y-84242856D01*
X154562295Y-84414285D02*
X153762295Y-84414285D01*
X153762295Y-84414285D02*
X153876580Y-84357142D01*
X153876580Y-84357142D02*
X153952771Y-84299999D01*
X153952771Y-84299999D02*
X153990866Y-84242856D01*
X154105152Y-84928571D02*
X154067057Y-84871428D01*
X154067057Y-84871428D02*
X154028961Y-84842857D01*
X154028961Y-84842857D02*
X153952771Y-84814285D01*
X153952771Y-84814285D02*
X153914676Y-84814285D01*
X153914676Y-84814285D02*
X153838485Y-84842857D01*
X153838485Y-84842857D02*
X153800390Y-84871428D01*
X153800390Y-84871428D02*
X153762295Y-84928571D01*
X153762295Y-84928571D02*
X153762295Y-85042857D01*
X153762295Y-85042857D02*
X153800390Y-85100000D01*
X153800390Y-85100000D02*
X153838485Y-85128571D01*
X153838485Y-85128571D02*
X153914676Y-85157142D01*
X153914676Y-85157142D02*
X153952771Y-85157142D01*
X153952771Y-85157142D02*
X154028961Y-85128571D01*
X154028961Y-85128571D02*
X154067057Y-85100000D01*
X154067057Y-85100000D02*
X154105152Y-85042857D01*
X154105152Y-85042857D02*
X154105152Y-84928571D01*
X154105152Y-84928571D02*
X154143247Y-84871428D01*
X154143247Y-84871428D02*
X154181342Y-84842857D01*
X154181342Y-84842857D02*
X154257533Y-84814285D01*
X154257533Y-84814285D02*
X154409914Y-84814285D01*
X154409914Y-84814285D02*
X154486104Y-84842857D01*
X154486104Y-84842857D02*
X154524200Y-84871428D01*
X154524200Y-84871428D02*
X154562295Y-84928571D01*
X154562295Y-84928571D02*
X154562295Y-85042857D01*
X154562295Y-85042857D02*
X154524200Y-85100000D01*
X154524200Y-85100000D02*
X154486104Y-85128571D01*
X154486104Y-85128571D02*
X154409914Y-85157142D01*
X154409914Y-85157142D02*
X154257533Y-85157142D01*
X154257533Y-85157142D02*
X154181342Y-85128571D01*
X154181342Y-85128571D02*
X154143247Y-85100000D01*
X154143247Y-85100000D02*
X154105152Y-85042857D01*
X136399999Y-90962295D02*
X136599999Y-90581342D01*
X136742856Y-90962295D02*
X136742856Y-90162295D01*
X136742856Y-90162295D02*
X136514285Y-90162295D01*
X136514285Y-90162295D02*
X136457142Y-90200390D01*
X136457142Y-90200390D02*
X136428571Y-90238485D01*
X136428571Y-90238485D02*
X136399999Y-90314676D01*
X136399999Y-90314676D02*
X136399999Y-90428961D01*
X136399999Y-90428961D02*
X136428571Y-90505152D01*
X136428571Y-90505152D02*
X136457142Y-90543247D01*
X136457142Y-90543247D02*
X136514285Y-90581342D01*
X136514285Y-90581342D02*
X136742856Y-90581342D01*
X136171428Y-90238485D02*
X136142856Y-90200390D01*
X136142856Y-90200390D02*
X136085714Y-90162295D01*
X136085714Y-90162295D02*
X135942856Y-90162295D01*
X135942856Y-90162295D02*
X135885714Y-90200390D01*
X135885714Y-90200390D02*
X135857142Y-90238485D01*
X135857142Y-90238485D02*
X135828571Y-90314676D01*
X135828571Y-90314676D02*
X135828571Y-90390866D01*
X135828571Y-90390866D02*
X135857142Y-90505152D01*
X135857142Y-90505152D02*
X136199999Y-90962295D01*
X136199999Y-90962295D02*
X135828571Y-90962295D01*
X150135714Y-91186104D02*
X150164286Y-91224200D01*
X150164286Y-91224200D02*
X150250000Y-91262295D01*
X150250000Y-91262295D02*
X150307143Y-91262295D01*
X150307143Y-91262295D02*
X150392857Y-91224200D01*
X150392857Y-91224200D02*
X150450000Y-91148009D01*
X150450000Y-91148009D02*
X150478571Y-91071819D01*
X150478571Y-91071819D02*
X150507143Y-90919438D01*
X150507143Y-90919438D02*
X150507143Y-90805152D01*
X150507143Y-90805152D02*
X150478571Y-90652771D01*
X150478571Y-90652771D02*
X150450000Y-90576580D01*
X150450000Y-90576580D02*
X150392857Y-90500390D01*
X150392857Y-90500390D02*
X150307143Y-90462295D01*
X150307143Y-90462295D02*
X150250000Y-90462295D01*
X150250000Y-90462295D02*
X150164286Y-90500390D01*
X150164286Y-90500390D02*
X150135714Y-90538485D01*
X149907143Y-90538485D02*
X149878571Y-90500390D01*
X149878571Y-90500390D02*
X149821429Y-90462295D01*
X149821429Y-90462295D02*
X149678571Y-90462295D01*
X149678571Y-90462295D02*
X149621429Y-90500390D01*
X149621429Y-90500390D02*
X149592857Y-90538485D01*
X149592857Y-90538485D02*
X149564286Y-90614676D01*
X149564286Y-90614676D02*
X149564286Y-90690866D01*
X149564286Y-90690866D02*
X149592857Y-90805152D01*
X149592857Y-90805152D02*
X149935714Y-91262295D01*
X149935714Y-91262295D02*
X149564286Y-91262295D01*
X149050000Y-90462295D02*
X149164285Y-90462295D01*
X149164285Y-90462295D02*
X149221428Y-90500390D01*
X149221428Y-90500390D02*
X149250000Y-90538485D01*
X149250000Y-90538485D02*
X149307142Y-90652771D01*
X149307142Y-90652771D02*
X149335714Y-90805152D01*
X149335714Y-90805152D02*
X149335714Y-91109914D01*
X149335714Y-91109914D02*
X149307142Y-91186104D01*
X149307142Y-91186104D02*
X149278571Y-91224200D01*
X149278571Y-91224200D02*
X149221428Y-91262295D01*
X149221428Y-91262295D02*
X149107142Y-91262295D01*
X149107142Y-91262295D02*
X149050000Y-91224200D01*
X149050000Y-91224200D02*
X149021428Y-91186104D01*
X149021428Y-91186104D02*
X148992857Y-91109914D01*
X148992857Y-91109914D02*
X148992857Y-90919438D01*
X148992857Y-90919438D02*
X149021428Y-90843247D01*
X149021428Y-90843247D02*
X149050000Y-90805152D01*
X149050000Y-90805152D02*
X149107142Y-90767057D01*
X149107142Y-90767057D02*
X149221428Y-90767057D01*
X149221428Y-90767057D02*
X149278571Y-90805152D01*
X149278571Y-90805152D02*
X149307142Y-90843247D01*
X149307142Y-90843247D02*
X149335714Y-90919438D01*
X141999999Y-90962295D02*
X142199999Y-90581342D01*
X142342856Y-90962295D02*
X142342856Y-90162295D01*
X142342856Y-90162295D02*
X142114285Y-90162295D01*
X142114285Y-90162295D02*
X142057142Y-90200390D01*
X142057142Y-90200390D02*
X142028571Y-90238485D01*
X142028571Y-90238485D02*
X141999999Y-90314676D01*
X141999999Y-90314676D02*
X141999999Y-90428961D01*
X141999999Y-90428961D02*
X142028571Y-90505152D01*
X142028571Y-90505152D02*
X142057142Y-90543247D01*
X142057142Y-90543247D02*
X142114285Y-90581342D01*
X142114285Y-90581342D02*
X142342856Y-90581342D01*
X141428571Y-90962295D02*
X141771428Y-90962295D01*
X141599999Y-90962295D02*
X141599999Y-90162295D01*
X141599999Y-90162295D02*
X141657142Y-90276580D01*
X141657142Y-90276580D02*
X141714285Y-90352771D01*
X141714285Y-90352771D02*
X141771428Y-90390866D01*
X136049999Y-105286104D02*
X136078571Y-105324200D01*
X136078571Y-105324200D02*
X136164285Y-105362295D01*
X136164285Y-105362295D02*
X136221428Y-105362295D01*
X136221428Y-105362295D02*
X136307142Y-105324200D01*
X136307142Y-105324200D02*
X136364285Y-105248009D01*
X136364285Y-105248009D02*
X136392856Y-105171819D01*
X136392856Y-105171819D02*
X136421428Y-105019438D01*
X136421428Y-105019438D02*
X136421428Y-104905152D01*
X136421428Y-104905152D02*
X136392856Y-104752771D01*
X136392856Y-104752771D02*
X136364285Y-104676580D01*
X136364285Y-104676580D02*
X136307142Y-104600390D01*
X136307142Y-104600390D02*
X136221428Y-104562295D01*
X136221428Y-104562295D02*
X136164285Y-104562295D01*
X136164285Y-104562295D02*
X136078571Y-104600390D01*
X136078571Y-104600390D02*
X136049999Y-104638485D01*
X135507142Y-104562295D02*
X135792856Y-104562295D01*
X135792856Y-104562295D02*
X135821428Y-104943247D01*
X135821428Y-104943247D02*
X135792856Y-104905152D01*
X135792856Y-104905152D02*
X135735714Y-104867057D01*
X135735714Y-104867057D02*
X135592856Y-104867057D01*
X135592856Y-104867057D02*
X135535714Y-104905152D01*
X135535714Y-104905152D02*
X135507142Y-104943247D01*
X135507142Y-104943247D02*
X135478571Y-105019438D01*
X135478571Y-105019438D02*
X135478571Y-105209914D01*
X135478571Y-105209914D02*
X135507142Y-105286104D01*
X135507142Y-105286104D02*
X135535714Y-105324200D01*
X135535714Y-105324200D02*
X135592856Y-105362295D01*
X135592856Y-105362295D02*
X135735714Y-105362295D01*
X135735714Y-105362295D02*
X135792856Y-105324200D01*
X135792856Y-105324200D02*
X135821428Y-105286104D01*
X146436104Y-100414285D02*
X146474200Y-100385713D01*
X146474200Y-100385713D02*
X146512295Y-100299999D01*
X146512295Y-100299999D02*
X146512295Y-100242856D01*
X146512295Y-100242856D02*
X146474200Y-100157142D01*
X146474200Y-100157142D02*
X146398009Y-100099999D01*
X146398009Y-100099999D02*
X146321819Y-100071428D01*
X146321819Y-100071428D02*
X146169438Y-100042856D01*
X146169438Y-100042856D02*
X146055152Y-100042856D01*
X146055152Y-100042856D02*
X145902771Y-100071428D01*
X145902771Y-100071428D02*
X145826580Y-100099999D01*
X145826580Y-100099999D02*
X145750390Y-100157142D01*
X145750390Y-100157142D02*
X145712295Y-100242856D01*
X145712295Y-100242856D02*
X145712295Y-100299999D01*
X145712295Y-100299999D02*
X145750390Y-100385713D01*
X145750390Y-100385713D02*
X145788485Y-100414285D01*
X146512295Y-100985713D02*
X146512295Y-100642856D01*
X146512295Y-100814285D02*
X145712295Y-100814285D01*
X145712295Y-100814285D02*
X145826580Y-100757142D01*
X145826580Y-100757142D02*
X145902771Y-100699999D01*
X145902771Y-100699999D02*
X145940866Y-100642856D01*
X145712295Y-101528571D02*
X145712295Y-101242857D01*
X145712295Y-101242857D02*
X146093247Y-101214285D01*
X146093247Y-101214285D02*
X146055152Y-101242857D01*
X146055152Y-101242857D02*
X146017057Y-101300000D01*
X146017057Y-101300000D02*
X146017057Y-101442857D01*
X146017057Y-101442857D02*
X146055152Y-101500000D01*
X146055152Y-101500000D02*
X146093247Y-101528571D01*
X146093247Y-101528571D02*
X146169438Y-101557142D01*
X146169438Y-101557142D02*
X146359914Y-101557142D01*
X146359914Y-101557142D02*
X146436104Y-101528571D01*
X146436104Y-101528571D02*
X146474200Y-101500000D01*
X146474200Y-101500000D02*
X146512295Y-101442857D01*
X146512295Y-101442857D02*
X146512295Y-101300000D01*
X146512295Y-101300000D02*
X146474200Y-101242857D01*
X146474200Y-101242857D02*
X146436104Y-101214285D01*
X150285714Y-96062295D02*
X150485714Y-95681342D01*
X150628571Y-96062295D02*
X150628571Y-95262295D01*
X150628571Y-95262295D02*
X150400000Y-95262295D01*
X150400000Y-95262295D02*
X150342857Y-95300390D01*
X150342857Y-95300390D02*
X150314286Y-95338485D01*
X150314286Y-95338485D02*
X150285714Y-95414676D01*
X150285714Y-95414676D02*
X150285714Y-95528961D01*
X150285714Y-95528961D02*
X150314286Y-95605152D01*
X150314286Y-95605152D02*
X150342857Y-95643247D01*
X150342857Y-95643247D02*
X150400000Y-95681342D01*
X150400000Y-95681342D02*
X150628571Y-95681342D01*
X149714286Y-96062295D02*
X150057143Y-96062295D01*
X149885714Y-96062295D02*
X149885714Y-95262295D01*
X149885714Y-95262295D02*
X149942857Y-95376580D01*
X149942857Y-95376580D02*
X150000000Y-95452771D01*
X150000000Y-95452771D02*
X150057143Y-95490866D01*
X149142857Y-96062295D02*
X149485714Y-96062295D01*
X149314285Y-96062295D02*
X149314285Y-95262295D01*
X149314285Y-95262295D02*
X149371428Y-95376580D01*
X149371428Y-95376580D02*
X149428571Y-95452771D01*
X149428571Y-95452771D02*
X149485714Y-95490866D01*
X136049999Y-103162295D02*
X136249999Y-102781342D01*
X136392856Y-103162295D02*
X136392856Y-102362295D01*
X136392856Y-102362295D02*
X136164285Y-102362295D01*
X136164285Y-102362295D02*
X136107142Y-102400390D01*
X136107142Y-102400390D02*
X136078571Y-102438485D01*
X136078571Y-102438485D02*
X136049999Y-102514676D01*
X136049999Y-102514676D02*
X136049999Y-102628961D01*
X136049999Y-102628961D02*
X136078571Y-102705152D01*
X136078571Y-102705152D02*
X136107142Y-102743247D01*
X136107142Y-102743247D02*
X136164285Y-102781342D01*
X136164285Y-102781342D02*
X136392856Y-102781342D01*
X135535714Y-102362295D02*
X135649999Y-102362295D01*
X135649999Y-102362295D02*
X135707142Y-102400390D01*
X135707142Y-102400390D02*
X135735714Y-102438485D01*
X135735714Y-102438485D02*
X135792856Y-102552771D01*
X135792856Y-102552771D02*
X135821428Y-102705152D01*
X135821428Y-102705152D02*
X135821428Y-103009914D01*
X135821428Y-103009914D02*
X135792856Y-103086104D01*
X135792856Y-103086104D02*
X135764285Y-103124200D01*
X135764285Y-103124200D02*
X135707142Y-103162295D01*
X135707142Y-103162295D02*
X135592856Y-103162295D01*
X135592856Y-103162295D02*
X135535714Y-103124200D01*
X135535714Y-103124200D02*
X135507142Y-103086104D01*
X135507142Y-103086104D02*
X135478571Y-103009914D01*
X135478571Y-103009914D02*
X135478571Y-102819438D01*
X135478571Y-102819438D02*
X135507142Y-102743247D01*
X135507142Y-102743247D02*
X135535714Y-102705152D01*
X135535714Y-102705152D02*
X135592856Y-102667057D01*
X135592856Y-102667057D02*
X135707142Y-102667057D01*
X135707142Y-102667057D02*
X135764285Y-102705152D01*
X135764285Y-102705152D02*
X135792856Y-102743247D01*
X135792856Y-102743247D02*
X135821428Y-102819438D01*
X138749999Y-81486104D02*
X138778571Y-81524200D01*
X138778571Y-81524200D02*
X138864285Y-81562295D01*
X138864285Y-81562295D02*
X138921428Y-81562295D01*
X138921428Y-81562295D02*
X139007142Y-81524200D01*
X139007142Y-81524200D02*
X139064285Y-81448009D01*
X139064285Y-81448009D02*
X139092856Y-81371819D01*
X139092856Y-81371819D02*
X139121428Y-81219438D01*
X139121428Y-81219438D02*
X139121428Y-81105152D01*
X139121428Y-81105152D02*
X139092856Y-80952771D01*
X139092856Y-80952771D02*
X139064285Y-80876580D01*
X139064285Y-80876580D02*
X139007142Y-80800390D01*
X139007142Y-80800390D02*
X138921428Y-80762295D01*
X138921428Y-80762295D02*
X138864285Y-80762295D01*
X138864285Y-80762295D02*
X138778571Y-80800390D01*
X138778571Y-80800390D02*
X138749999Y-80838485D01*
X138407142Y-81105152D02*
X138464285Y-81067057D01*
X138464285Y-81067057D02*
X138492856Y-81028961D01*
X138492856Y-81028961D02*
X138521428Y-80952771D01*
X138521428Y-80952771D02*
X138521428Y-80914676D01*
X138521428Y-80914676D02*
X138492856Y-80838485D01*
X138492856Y-80838485D02*
X138464285Y-80800390D01*
X138464285Y-80800390D02*
X138407142Y-80762295D01*
X138407142Y-80762295D02*
X138292856Y-80762295D01*
X138292856Y-80762295D02*
X138235714Y-80800390D01*
X138235714Y-80800390D02*
X138207142Y-80838485D01*
X138207142Y-80838485D02*
X138178571Y-80914676D01*
X138178571Y-80914676D02*
X138178571Y-80952771D01*
X138178571Y-80952771D02*
X138207142Y-81028961D01*
X138207142Y-81028961D02*
X138235714Y-81067057D01*
X138235714Y-81067057D02*
X138292856Y-81105152D01*
X138292856Y-81105152D02*
X138407142Y-81105152D01*
X138407142Y-81105152D02*
X138464285Y-81143247D01*
X138464285Y-81143247D02*
X138492856Y-81181342D01*
X138492856Y-81181342D02*
X138521428Y-81257533D01*
X138521428Y-81257533D02*
X138521428Y-81409914D01*
X138521428Y-81409914D02*
X138492856Y-81486104D01*
X138492856Y-81486104D02*
X138464285Y-81524200D01*
X138464285Y-81524200D02*
X138407142Y-81562295D01*
X138407142Y-81562295D02*
X138292856Y-81562295D01*
X138292856Y-81562295D02*
X138235714Y-81524200D01*
X138235714Y-81524200D02*
X138207142Y-81486104D01*
X138207142Y-81486104D02*
X138178571Y-81409914D01*
X138178571Y-81409914D02*
X138178571Y-81257533D01*
X138178571Y-81257533D02*
X138207142Y-81181342D01*
X138207142Y-81181342D02*
X138235714Y-81143247D01*
X138235714Y-81143247D02*
X138292856Y-81105152D01*
X136399999Y-94062295D02*
X136599999Y-93681342D01*
X136742856Y-94062295D02*
X136742856Y-93262295D01*
X136742856Y-93262295D02*
X136514285Y-93262295D01*
X136514285Y-93262295D02*
X136457142Y-93300390D01*
X136457142Y-93300390D02*
X136428571Y-93338485D01*
X136428571Y-93338485D02*
X136399999Y-93414676D01*
X136399999Y-93414676D02*
X136399999Y-93528961D01*
X136399999Y-93528961D02*
X136428571Y-93605152D01*
X136428571Y-93605152D02*
X136457142Y-93643247D01*
X136457142Y-93643247D02*
X136514285Y-93681342D01*
X136514285Y-93681342D02*
X136742856Y-93681342D01*
X136199999Y-93262295D02*
X135828571Y-93262295D01*
X135828571Y-93262295D02*
X136028571Y-93567057D01*
X136028571Y-93567057D02*
X135942856Y-93567057D01*
X135942856Y-93567057D02*
X135885714Y-93605152D01*
X135885714Y-93605152D02*
X135857142Y-93643247D01*
X135857142Y-93643247D02*
X135828571Y-93719438D01*
X135828571Y-93719438D02*
X135828571Y-93909914D01*
X135828571Y-93909914D02*
X135857142Y-93986104D01*
X135857142Y-93986104D02*
X135885714Y-94024200D01*
X135885714Y-94024200D02*
X135942856Y-94062295D01*
X135942856Y-94062295D02*
X136114285Y-94062295D01*
X136114285Y-94062295D02*
X136171428Y-94024200D01*
X136171428Y-94024200D02*
X136199999Y-93986104D01*
X136399999Y-92986104D02*
X136428571Y-93024200D01*
X136428571Y-93024200D02*
X136514285Y-93062295D01*
X136514285Y-93062295D02*
X136571428Y-93062295D01*
X136571428Y-93062295D02*
X136657142Y-93024200D01*
X136657142Y-93024200D02*
X136714285Y-92948009D01*
X136714285Y-92948009D02*
X136742856Y-92871819D01*
X136742856Y-92871819D02*
X136771428Y-92719438D01*
X136771428Y-92719438D02*
X136771428Y-92605152D01*
X136771428Y-92605152D02*
X136742856Y-92452771D01*
X136742856Y-92452771D02*
X136714285Y-92376580D01*
X136714285Y-92376580D02*
X136657142Y-92300390D01*
X136657142Y-92300390D02*
X136571428Y-92262295D01*
X136571428Y-92262295D02*
X136514285Y-92262295D01*
X136514285Y-92262295D02*
X136428571Y-92300390D01*
X136428571Y-92300390D02*
X136399999Y-92338485D01*
X136199999Y-92262295D02*
X135828571Y-92262295D01*
X135828571Y-92262295D02*
X136028571Y-92567057D01*
X136028571Y-92567057D02*
X135942856Y-92567057D01*
X135942856Y-92567057D02*
X135885714Y-92605152D01*
X135885714Y-92605152D02*
X135857142Y-92643247D01*
X135857142Y-92643247D02*
X135828571Y-92719438D01*
X135828571Y-92719438D02*
X135828571Y-92909914D01*
X135828571Y-92909914D02*
X135857142Y-92986104D01*
X135857142Y-92986104D02*
X135885714Y-93024200D01*
X135885714Y-93024200D02*
X135942856Y-93062295D01*
X135942856Y-93062295D02*
X136114285Y-93062295D01*
X136114285Y-93062295D02*
X136171428Y-93024200D01*
X136171428Y-93024200D02*
X136199999Y-92986104D01*
X141999999Y-92986104D02*
X142028571Y-93024200D01*
X142028571Y-93024200D02*
X142114285Y-93062295D01*
X142114285Y-93062295D02*
X142171428Y-93062295D01*
X142171428Y-93062295D02*
X142257142Y-93024200D01*
X142257142Y-93024200D02*
X142314285Y-92948009D01*
X142314285Y-92948009D02*
X142342856Y-92871819D01*
X142342856Y-92871819D02*
X142371428Y-92719438D01*
X142371428Y-92719438D02*
X142371428Y-92605152D01*
X142371428Y-92605152D02*
X142342856Y-92452771D01*
X142342856Y-92452771D02*
X142314285Y-92376580D01*
X142314285Y-92376580D02*
X142257142Y-92300390D01*
X142257142Y-92300390D02*
X142171428Y-92262295D01*
X142171428Y-92262295D02*
X142114285Y-92262295D01*
X142114285Y-92262295D02*
X142028571Y-92300390D01*
X142028571Y-92300390D02*
X141999999Y-92338485D01*
X141485714Y-92528961D02*
X141485714Y-93062295D01*
X141628571Y-92224200D02*
X141771428Y-92795628D01*
X141771428Y-92795628D02*
X141399999Y-92795628D01*
X150285714Y-97662295D02*
X150485714Y-97281342D01*
X150628571Y-97662295D02*
X150628571Y-96862295D01*
X150628571Y-96862295D02*
X150400000Y-96862295D01*
X150400000Y-96862295D02*
X150342857Y-96900390D01*
X150342857Y-96900390D02*
X150314286Y-96938485D01*
X150314286Y-96938485D02*
X150285714Y-97014676D01*
X150285714Y-97014676D02*
X150285714Y-97128961D01*
X150285714Y-97128961D02*
X150314286Y-97205152D01*
X150314286Y-97205152D02*
X150342857Y-97243247D01*
X150342857Y-97243247D02*
X150400000Y-97281342D01*
X150400000Y-97281342D02*
X150628571Y-97281342D01*
X149714286Y-97662295D02*
X150057143Y-97662295D01*
X149885714Y-97662295D02*
X149885714Y-96862295D01*
X149885714Y-96862295D02*
X149942857Y-96976580D01*
X149942857Y-96976580D02*
X150000000Y-97052771D01*
X150000000Y-97052771D02*
X150057143Y-97090866D01*
X149485714Y-96938485D02*
X149457142Y-96900390D01*
X149457142Y-96900390D02*
X149400000Y-96862295D01*
X149400000Y-96862295D02*
X149257142Y-96862295D01*
X149257142Y-96862295D02*
X149200000Y-96900390D01*
X149200000Y-96900390D02*
X149171428Y-96938485D01*
X149171428Y-96938485D02*
X149142857Y-97014676D01*
X149142857Y-97014676D02*
X149142857Y-97090866D01*
X149142857Y-97090866D02*
X149171428Y-97205152D01*
X149171428Y-97205152D02*
X149514285Y-97662295D01*
X149514285Y-97662295D02*
X149142857Y-97662295D01*
X161462295Y-93099999D02*
X162033723Y-93099999D01*
X162033723Y-93099999D02*
X162148009Y-93071428D01*
X162148009Y-93071428D02*
X162224200Y-93014285D01*
X162224200Y-93014285D02*
X162262295Y-92928571D01*
X162262295Y-92928571D02*
X162262295Y-92871428D01*
X162262295Y-93699999D02*
X162262295Y-93357142D01*
X162262295Y-93528571D02*
X161462295Y-93528571D01*
X161462295Y-93528571D02*
X161576580Y-93471428D01*
X161576580Y-93471428D02*
X161652771Y-93414285D01*
X161652771Y-93414285D02*
X161690866Y-93357142D01*
X136399999Y-91936104D02*
X136428571Y-91974200D01*
X136428571Y-91974200D02*
X136514285Y-92012295D01*
X136514285Y-92012295D02*
X136571428Y-92012295D01*
X136571428Y-92012295D02*
X136657142Y-91974200D01*
X136657142Y-91974200D02*
X136714285Y-91898009D01*
X136714285Y-91898009D02*
X136742856Y-91821819D01*
X136742856Y-91821819D02*
X136771428Y-91669438D01*
X136771428Y-91669438D02*
X136771428Y-91555152D01*
X136771428Y-91555152D02*
X136742856Y-91402771D01*
X136742856Y-91402771D02*
X136714285Y-91326580D01*
X136714285Y-91326580D02*
X136657142Y-91250390D01*
X136657142Y-91250390D02*
X136571428Y-91212295D01*
X136571428Y-91212295D02*
X136514285Y-91212295D01*
X136514285Y-91212295D02*
X136428571Y-91250390D01*
X136428571Y-91250390D02*
X136399999Y-91288485D01*
X136171428Y-91288485D02*
X136142856Y-91250390D01*
X136142856Y-91250390D02*
X136085714Y-91212295D01*
X136085714Y-91212295D02*
X135942856Y-91212295D01*
X135942856Y-91212295D02*
X135885714Y-91250390D01*
X135885714Y-91250390D02*
X135857142Y-91288485D01*
X135857142Y-91288485D02*
X135828571Y-91364676D01*
X135828571Y-91364676D02*
X135828571Y-91440866D01*
X135828571Y-91440866D02*
X135857142Y-91555152D01*
X135857142Y-91555152D02*
X136199999Y-92012295D01*
X136199999Y-92012295D02*
X135828571Y-92012295D01*
X141335714Y-84286104D02*
X141364286Y-84324200D01*
X141364286Y-84324200D02*
X141450000Y-84362295D01*
X141450000Y-84362295D02*
X141507143Y-84362295D01*
X141507143Y-84362295D02*
X141592857Y-84324200D01*
X141592857Y-84324200D02*
X141650000Y-84248009D01*
X141650000Y-84248009D02*
X141678571Y-84171819D01*
X141678571Y-84171819D02*
X141707143Y-84019438D01*
X141707143Y-84019438D02*
X141707143Y-83905152D01*
X141707143Y-83905152D02*
X141678571Y-83752771D01*
X141678571Y-83752771D02*
X141650000Y-83676580D01*
X141650000Y-83676580D02*
X141592857Y-83600390D01*
X141592857Y-83600390D02*
X141507143Y-83562295D01*
X141507143Y-83562295D02*
X141450000Y-83562295D01*
X141450000Y-83562295D02*
X141364286Y-83600390D01*
X141364286Y-83600390D02*
X141335714Y-83638485D01*
X140764286Y-84362295D02*
X141107143Y-84362295D01*
X140935714Y-84362295D02*
X140935714Y-83562295D01*
X140935714Y-83562295D02*
X140992857Y-83676580D01*
X140992857Y-83676580D02*
X141050000Y-83752771D01*
X141050000Y-83752771D02*
X141107143Y-83790866D01*
X140392857Y-83562295D02*
X140335714Y-83562295D01*
X140335714Y-83562295D02*
X140278571Y-83600390D01*
X140278571Y-83600390D02*
X140250000Y-83638485D01*
X140250000Y-83638485D02*
X140221428Y-83714676D01*
X140221428Y-83714676D02*
X140192857Y-83867057D01*
X140192857Y-83867057D02*
X140192857Y-84057533D01*
X140192857Y-84057533D02*
X140221428Y-84209914D01*
X140221428Y-84209914D02*
X140250000Y-84286104D01*
X140250000Y-84286104D02*
X140278571Y-84324200D01*
X140278571Y-84324200D02*
X140335714Y-84362295D01*
X140335714Y-84362295D02*
X140392857Y-84362295D01*
X140392857Y-84362295D02*
X140450000Y-84324200D01*
X140450000Y-84324200D02*
X140478571Y-84286104D01*
X140478571Y-84286104D02*
X140507142Y-84209914D01*
X140507142Y-84209914D02*
X140535714Y-84057533D01*
X140535714Y-84057533D02*
X140535714Y-83867057D01*
X140535714Y-83867057D02*
X140507142Y-83714676D01*
X140507142Y-83714676D02*
X140478571Y-83638485D01*
X140478571Y-83638485D02*
X140450000Y-83600390D01*
X140450000Y-83600390D02*
X140392857Y-83562295D01*
X150099999Y-88012295D02*
X150299999Y-87631342D01*
X150442856Y-88012295D02*
X150442856Y-87212295D01*
X150442856Y-87212295D02*
X150214285Y-87212295D01*
X150214285Y-87212295D02*
X150157142Y-87250390D01*
X150157142Y-87250390D02*
X150128571Y-87288485D01*
X150128571Y-87288485D02*
X150099999Y-87364676D01*
X150099999Y-87364676D02*
X150099999Y-87478961D01*
X150099999Y-87478961D02*
X150128571Y-87555152D01*
X150128571Y-87555152D02*
X150157142Y-87593247D01*
X150157142Y-87593247D02*
X150214285Y-87631342D01*
X150214285Y-87631342D02*
X150442856Y-87631342D01*
X149899999Y-87212295D02*
X149499999Y-87212295D01*
X149499999Y-87212295D02*
X149757142Y-88012295D01*
X138535714Y-100336104D02*
X138564286Y-100374200D01*
X138564286Y-100374200D02*
X138650000Y-100412295D01*
X138650000Y-100412295D02*
X138707143Y-100412295D01*
X138707143Y-100412295D02*
X138792857Y-100374200D01*
X138792857Y-100374200D02*
X138850000Y-100298009D01*
X138850000Y-100298009D02*
X138878571Y-100221819D01*
X138878571Y-100221819D02*
X138907143Y-100069438D01*
X138907143Y-100069438D02*
X138907143Y-99955152D01*
X138907143Y-99955152D02*
X138878571Y-99802771D01*
X138878571Y-99802771D02*
X138850000Y-99726580D01*
X138850000Y-99726580D02*
X138792857Y-99650390D01*
X138792857Y-99650390D02*
X138707143Y-99612295D01*
X138707143Y-99612295D02*
X138650000Y-99612295D01*
X138650000Y-99612295D02*
X138564286Y-99650390D01*
X138564286Y-99650390D02*
X138535714Y-99688485D01*
X137964286Y-100412295D02*
X138307143Y-100412295D01*
X138135714Y-100412295D02*
X138135714Y-99612295D01*
X138135714Y-99612295D02*
X138192857Y-99726580D01*
X138192857Y-99726580D02*
X138250000Y-99802771D01*
X138250000Y-99802771D02*
X138307143Y-99840866D01*
X137764285Y-99612295D02*
X137392857Y-99612295D01*
X137392857Y-99612295D02*
X137592857Y-99917057D01*
X137592857Y-99917057D02*
X137507142Y-99917057D01*
X137507142Y-99917057D02*
X137450000Y-99955152D01*
X137450000Y-99955152D02*
X137421428Y-99993247D01*
X137421428Y-99993247D02*
X137392857Y-100069438D01*
X137392857Y-100069438D02*
X137392857Y-100259914D01*
X137392857Y-100259914D02*
X137421428Y-100336104D01*
X137421428Y-100336104D02*
X137450000Y-100374200D01*
X137450000Y-100374200D02*
X137507142Y-100412295D01*
X137507142Y-100412295D02*
X137678571Y-100412295D01*
X137678571Y-100412295D02*
X137735714Y-100374200D01*
X137735714Y-100374200D02*
X137764285Y-100336104D01*
X150049999Y-92862295D02*
X150249999Y-92481342D01*
X150392856Y-92862295D02*
X150392856Y-92062295D01*
X150392856Y-92062295D02*
X150164285Y-92062295D01*
X150164285Y-92062295D02*
X150107142Y-92100390D01*
X150107142Y-92100390D02*
X150078571Y-92138485D01*
X150078571Y-92138485D02*
X150049999Y-92214676D01*
X150049999Y-92214676D02*
X150049999Y-92328961D01*
X150049999Y-92328961D02*
X150078571Y-92405152D01*
X150078571Y-92405152D02*
X150107142Y-92443247D01*
X150107142Y-92443247D02*
X150164285Y-92481342D01*
X150164285Y-92481342D02*
X150392856Y-92481342D01*
X149764285Y-92862295D02*
X149649999Y-92862295D01*
X149649999Y-92862295D02*
X149592856Y-92824200D01*
X149592856Y-92824200D02*
X149564285Y-92786104D01*
X149564285Y-92786104D02*
X149507142Y-92671819D01*
X149507142Y-92671819D02*
X149478571Y-92519438D01*
X149478571Y-92519438D02*
X149478571Y-92214676D01*
X149478571Y-92214676D02*
X149507142Y-92138485D01*
X149507142Y-92138485D02*
X149535714Y-92100390D01*
X149535714Y-92100390D02*
X149592856Y-92062295D01*
X149592856Y-92062295D02*
X149707142Y-92062295D01*
X149707142Y-92062295D02*
X149764285Y-92100390D01*
X149764285Y-92100390D02*
X149792856Y-92138485D01*
X149792856Y-92138485D02*
X149821428Y-92214676D01*
X149821428Y-92214676D02*
X149821428Y-92405152D01*
X149821428Y-92405152D02*
X149792856Y-92481342D01*
X149792856Y-92481342D02*
X149764285Y-92519438D01*
X149764285Y-92519438D02*
X149707142Y-92557533D01*
X149707142Y-92557533D02*
X149592856Y-92557533D01*
X149592856Y-92557533D02*
X149535714Y-92519438D01*
X149535714Y-92519438D02*
X149507142Y-92481342D01*
X149507142Y-92481342D02*
X149478571Y-92405152D01*
X136049999Y-106412295D02*
X136249999Y-106031342D01*
X136392856Y-106412295D02*
X136392856Y-105612295D01*
X136392856Y-105612295D02*
X136164285Y-105612295D01*
X136164285Y-105612295D02*
X136107142Y-105650390D01*
X136107142Y-105650390D02*
X136078571Y-105688485D01*
X136078571Y-105688485D02*
X136049999Y-105764676D01*
X136049999Y-105764676D02*
X136049999Y-105878961D01*
X136049999Y-105878961D02*
X136078571Y-105955152D01*
X136078571Y-105955152D02*
X136107142Y-105993247D01*
X136107142Y-105993247D02*
X136164285Y-106031342D01*
X136164285Y-106031342D02*
X136392856Y-106031342D01*
X135507142Y-105612295D02*
X135792856Y-105612295D01*
X135792856Y-105612295D02*
X135821428Y-105993247D01*
X135821428Y-105993247D02*
X135792856Y-105955152D01*
X135792856Y-105955152D02*
X135735714Y-105917057D01*
X135735714Y-105917057D02*
X135592856Y-105917057D01*
X135592856Y-105917057D02*
X135535714Y-105955152D01*
X135535714Y-105955152D02*
X135507142Y-105993247D01*
X135507142Y-105993247D02*
X135478571Y-106069438D01*
X135478571Y-106069438D02*
X135478571Y-106259914D01*
X135478571Y-106259914D02*
X135507142Y-106336104D01*
X135507142Y-106336104D02*
X135535714Y-106374200D01*
X135535714Y-106374200D02*
X135592856Y-106412295D01*
X135592856Y-106412295D02*
X135735714Y-106412295D01*
X135735714Y-106412295D02*
X135792856Y-106374200D01*
X135792856Y-106374200D02*
X135821428Y-106336104D01*
X150285714Y-94462295D02*
X150485714Y-94081342D01*
X150628571Y-94462295D02*
X150628571Y-93662295D01*
X150628571Y-93662295D02*
X150400000Y-93662295D01*
X150400000Y-93662295D02*
X150342857Y-93700390D01*
X150342857Y-93700390D02*
X150314286Y-93738485D01*
X150314286Y-93738485D02*
X150285714Y-93814676D01*
X150285714Y-93814676D02*
X150285714Y-93928961D01*
X150285714Y-93928961D02*
X150314286Y-94005152D01*
X150314286Y-94005152D02*
X150342857Y-94043247D01*
X150342857Y-94043247D02*
X150400000Y-94081342D01*
X150400000Y-94081342D02*
X150628571Y-94081342D01*
X149714286Y-94462295D02*
X150057143Y-94462295D01*
X149885714Y-94462295D02*
X149885714Y-93662295D01*
X149885714Y-93662295D02*
X149942857Y-93776580D01*
X149942857Y-93776580D02*
X150000000Y-93852771D01*
X150000000Y-93852771D02*
X150057143Y-93890866D01*
X149342857Y-93662295D02*
X149285714Y-93662295D01*
X149285714Y-93662295D02*
X149228571Y-93700390D01*
X149228571Y-93700390D02*
X149200000Y-93738485D01*
X149200000Y-93738485D02*
X149171428Y-93814676D01*
X149171428Y-93814676D02*
X149142857Y-93967057D01*
X149142857Y-93967057D02*
X149142857Y-94157533D01*
X149142857Y-94157533D02*
X149171428Y-94309914D01*
X149171428Y-94309914D02*
X149200000Y-94386104D01*
X149200000Y-94386104D02*
X149228571Y-94424200D01*
X149228571Y-94424200D02*
X149285714Y-94462295D01*
X149285714Y-94462295D02*
X149342857Y-94462295D01*
X149342857Y-94462295D02*
X149400000Y-94424200D01*
X149400000Y-94424200D02*
X149428571Y-94386104D01*
X149428571Y-94386104D02*
X149457142Y-94309914D01*
X149457142Y-94309914D02*
X149485714Y-94157533D01*
X149485714Y-94157533D02*
X149485714Y-93967057D01*
X149485714Y-93967057D02*
X149457142Y-93814676D01*
X149457142Y-93814676D02*
X149428571Y-93738485D01*
X149428571Y-93738485D02*
X149400000Y-93700390D01*
X149400000Y-93700390D02*
X149342857Y-93662295D01*
X166362295Y-105064285D02*
X165981342Y-104864285D01*
X166362295Y-104721428D02*
X165562295Y-104721428D01*
X165562295Y-104721428D02*
X165562295Y-104949999D01*
X165562295Y-104949999D02*
X165600390Y-105007142D01*
X165600390Y-105007142D02*
X165638485Y-105035713D01*
X165638485Y-105035713D02*
X165714676Y-105064285D01*
X165714676Y-105064285D02*
X165828961Y-105064285D01*
X165828961Y-105064285D02*
X165905152Y-105035713D01*
X165905152Y-105035713D02*
X165943247Y-105007142D01*
X165943247Y-105007142D02*
X165981342Y-104949999D01*
X165981342Y-104949999D02*
X165981342Y-104721428D01*
X165638485Y-105292856D02*
X165600390Y-105321428D01*
X165600390Y-105321428D02*
X165562295Y-105378571D01*
X165562295Y-105378571D02*
X165562295Y-105521428D01*
X165562295Y-105521428D02*
X165600390Y-105578571D01*
X165600390Y-105578571D02*
X165638485Y-105607142D01*
X165638485Y-105607142D02*
X165714676Y-105635713D01*
X165714676Y-105635713D02*
X165790866Y-105635713D01*
X165790866Y-105635713D02*
X165905152Y-105607142D01*
X165905152Y-105607142D02*
X166362295Y-105264285D01*
X166362295Y-105264285D02*
X166362295Y-105635713D01*
X166362295Y-106207142D02*
X166362295Y-105864285D01*
X166362295Y-106035714D02*
X165562295Y-106035714D01*
X165562295Y-106035714D02*
X165676580Y-105978571D01*
X165676580Y-105978571D02*
X165752771Y-105921428D01*
X165752771Y-105921428D02*
X165790866Y-105864285D01*
X137449999Y-81486104D02*
X137478571Y-81524200D01*
X137478571Y-81524200D02*
X137564285Y-81562295D01*
X137564285Y-81562295D02*
X137621428Y-81562295D01*
X137621428Y-81562295D02*
X137707142Y-81524200D01*
X137707142Y-81524200D02*
X137764285Y-81448009D01*
X137764285Y-81448009D02*
X137792856Y-81371819D01*
X137792856Y-81371819D02*
X137821428Y-81219438D01*
X137821428Y-81219438D02*
X137821428Y-81105152D01*
X137821428Y-81105152D02*
X137792856Y-80952771D01*
X137792856Y-80952771D02*
X137764285Y-80876580D01*
X137764285Y-80876580D02*
X137707142Y-80800390D01*
X137707142Y-80800390D02*
X137621428Y-80762295D01*
X137621428Y-80762295D02*
X137564285Y-80762295D01*
X137564285Y-80762295D02*
X137478571Y-80800390D01*
X137478571Y-80800390D02*
X137449999Y-80838485D01*
X137164285Y-81562295D02*
X137049999Y-81562295D01*
X137049999Y-81562295D02*
X136992856Y-81524200D01*
X136992856Y-81524200D02*
X136964285Y-81486104D01*
X136964285Y-81486104D02*
X136907142Y-81371819D01*
X136907142Y-81371819D02*
X136878571Y-81219438D01*
X136878571Y-81219438D02*
X136878571Y-80914676D01*
X136878571Y-80914676D02*
X136907142Y-80838485D01*
X136907142Y-80838485D02*
X136935714Y-80800390D01*
X136935714Y-80800390D02*
X136992856Y-80762295D01*
X136992856Y-80762295D02*
X137107142Y-80762295D01*
X137107142Y-80762295D02*
X137164285Y-80800390D01*
X137164285Y-80800390D02*
X137192856Y-80838485D01*
X137192856Y-80838485D02*
X137221428Y-80914676D01*
X137221428Y-80914676D02*
X137221428Y-81105152D01*
X137221428Y-81105152D02*
X137192856Y-81181342D01*
X137192856Y-81181342D02*
X137164285Y-81219438D01*
X137164285Y-81219438D02*
X137107142Y-81257533D01*
X137107142Y-81257533D02*
X136992856Y-81257533D01*
X136992856Y-81257533D02*
X136935714Y-81219438D01*
X136935714Y-81219438D02*
X136907142Y-81181342D01*
X136907142Y-81181342D02*
X136878571Y-81105152D01*
X140049999Y-81486104D02*
X140078571Y-81524200D01*
X140078571Y-81524200D02*
X140164285Y-81562295D01*
X140164285Y-81562295D02*
X140221428Y-81562295D01*
X140221428Y-81562295D02*
X140307142Y-81524200D01*
X140307142Y-81524200D02*
X140364285Y-81448009D01*
X140364285Y-81448009D02*
X140392856Y-81371819D01*
X140392856Y-81371819D02*
X140421428Y-81219438D01*
X140421428Y-81219438D02*
X140421428Y-81105152D01*
X140421428Y-81105152D02*
X140392856Y-80952771D01*
X140392856Y-80952771D02*
X140364285Y-80876580D01*
X140364285Y-80876580D02*
X140307142Y-80800390D01*
X140307142Y-80800390D02*
X140221428Y-80762295D01*
X140221428Y-80762295D02*
X140164285Y-80762295D01*
X140164285Y-80762295D02*
X140078571Y-80800390D01*
X140078571Y-80800390D02*
X140049999Y-80838485D01*
X139849999Y-80762295D02*
X139449999Y-80762295D01*
X139449999Y-80762295D02*
X139707142Y-81562295D01*
X155812295Y-84064285D02*
X155431342Y-83864285D01*
X155812295Y-83721428D02*
X155012295Y-83721428D01*
X155012295Y-83721428D02*
X155012295Y-83949999D01*
X155012295Y-83949999D02*
X155050390Y-84007142D01*
X155050390Y-84007142D02*
X155088485Y-84035713D01*
X155088485Y-84035713D02*
X155164676Y-84064285D01*
X155164676Y-84064285D02*
X155278961Y-84064285D01*
X155278961Y-84064285D02*
X155355152Y-84035713D01*
X155355152Y-84035713D02*
X155393247Y-84007142D01*
X155393247Y-84007142D02*
X155431342Y-83949999D01*
X155431342Y-83949999D02*
X155431342Y-83721428D01*
X155088485Y-84292856D02*
X155050390Y-84321428D01*
X155050390Y-84321428D02*
X155012295Y-84378571D01*
X155012295Y-84378571D02*
X155012295Y-84521428D01*
X155012295Y-84521428D02*
X155050390Y-84578571D01*
X155050390Y-84578571D02*
X155088485Y-84607142D01*
X155088485Y-84607142D02*
X155164676Y-84635713D01*
X155164676Y-84635713D02*
X155240866Y-84635713D01*
X155240866Y-84635713D02*
X155355152Y-84607142D01*
X155355152Y-84607142D02*
X155812295Y-84264285D01*
X155812295Y-84264285D02*
X155812295Y-84635713D01*
X155012295Y-85178571D02*
X155012295Y-84892857D01*
X155012295Y-84892857D02*
X155393247Y-84864285D01*
X155393247Y-84864285D02*
X155355152Y-84892857D01*
X155355152Y-84892857D02*
X155317057Y-84950000D01*
X155317057Y-84950000D02*
X155317057Y-85092857D01*
X155317057Y-85092857D02*
X155355152Y-85150000D01*
X155355152Y-85150000D02*
X155393247Y-85178571D01*
X155393247Y-85178571D02*
X155469438Y-85207142D01*
X155469438Y-85207142D02*
X155659914Y-85207142D01*
X155659914Y-85207142D02*
X155736104Y-85178571D01*
X155736104Y-85178571D02*
X155774200Y-85150000D01*
X155774200Y-85150000D02*
X155812295Y-85092857D01*
X155812295Y-85092857D02*
X155812295Y-84950000D01*
X155812295Y-84950000D02*
X155774200Y-84892857D01*
X155774200Y-84892857D02*
X155736104Y-84864285D01*
X164435714Y-103212295D02*
X164635714Y-102831342D01*
X164778571Y-103212295D02*
X164778571Y-102412295D01*
X164778571Y-102412295D02*
X164550000Y-102412295D01*
X164550000Y-102412295D02*
X164492857Y-102450390D01*
X164492857Y-102450390D02*
X164464286Y-102488485D01*
X164464286Y-102488485D02*
X164435714Y-102564676D01*
X164435714Y-102564676D02*
X164435714Y-102678961D01*
X164435714Y-102678961D02*
X164464286Y-102755152D01*
X164464286Y-102755152D02*
X164492857Y-102793247D01*
X164492857Y-102793247D02*
X164550000Y-102831342D01*
X164550000Y-102831342D02*
X164778571Y-102831342D01*
X164207143Y-102488485D02*
X164178571Y-102450390D01*
X164178571Y-102450390D02*
X164121429Y-102412295D01*
X164121429Y-102412295D02*
X163978571Y-102412295D01*
X163978571Y-102412295D02*
X163921429Y-102450390D01*
X163921429Y-102450390D02*
X163892857Y-102488485D01*
X163892857Y-102488485D02*
X163864286Y-102564676D01*
X163864286Y-102564676D02*
X163864286Y-102640866D01*
X163864286Y-102640866D02*
X163892857Y-102755152D01*
X163892857Y-102755152D02*
X164235714Y-103212295D01*
X164235714Y-103212295D02*
X163864286Y-103212295D01*
X163635714Y-102488485D02*
X163607142Y-102450390D01*
X163607142Y-102450390D02*
X163550000Y-102412295D01*
X163550000Y-102412295D02*
X163407142Y-102412295D01*
X163407142Y-102412295D02*
X163350000Y-102450390D01*
X163350000Y-102450390D02*
X163321428Y-102488485D01*
X163321428Y-102488485D02*
X163292857Y-102564676D01*
X163292857Y-102564676D02*
X163292857Y-102640866D01*
X163292857Y-102640866D02*
X163321428Y-102755152D01*
X163321428Y-102755152D02*
X163664285Y-103212295D01*
X163664285Y-103212295D02*
X163292857Y-103212295D01*
X144686104Y-103764285D02*
X144724200Y-103735713D01*
X144724200Y-103735713D02*
X144762295Y-103649999D01*
X144762295Y-103649999D02*
X144762295Y-103592856D01*
X144762295Y-103592856D02*
X144724200Y-103507142D01*
X144724200Y-103507142D02*
X144648009Y-103449999D01*
X144648009Y-103449999D02*
X144571819Y-103421428D01*
X144571819Y-103421428D02*
X144419438Y-103392856D01*
X144419438Y-103392856D02*
X144305152Y-103392856D01*
X144305152Y-103392856D02*
X144152771Y-103421428D01*
X144152771Y-103421428D02*
X144076580Y-103449999D01*
X144076580Y-103449999D02*
X144000390Y-103507142D01*
X144000390Y-103507142D02*
X143962295Y-103592856D01*
X143962295Y-103592856D02*
X143962295Y-103649999D01*
X143962295Y-103649999D02*
X144000390Y-103735713D01*
X144000390Y-103735713D02*
X144038485Y-103764285D01*
X144762295Y-104335713D02*
X144762295Y-103992856D01*
X144762295Y-104164285D02*
X143962295Y-104164285D01*
X143962295Y-104164285D02*
X144076580Y-104107142D01*
X144076580Y-104107142D02*
X144152771Y-104049999D01*
X144152771Y-104049999D02*
X144190866Y-103992856D01*
X144228961Y-104850000D02*
X144762295Y-104850000D01*
X143924200Y-104707142D02*
X144495628Y-104564285D01*
X144495628Y-104564285D02*
X144495628Y-104935714D01*
X138535714Y-97686104D02*
X138564286Y-97724200D01*
X138564286Y-97724200D02*
X138650000Y-97762295D01*
X138650000Y-97762295D02*
X138707143Y-97762295D01*
X138707143Y-97762295D02*
X138792857Y-97724200D01*
X138792857Y-97724200D02*
X138850000Y-97648009D01*
X138850000Y-97648009D02*
X138878571Y-97571819D01*
X138878571Y-97571819D02*
X138907143Y-97419438D01*
X138907143Y-97419438D02*
X138907143Y-97305152D01*
X138907143Y-97305152D02*
X138878571Y-97152771D01*
X138878571Y-97152771D02*
X138850000Y-97076580D01*
X138850000Y-97076580D02*
X138792857Y-97000390D01*
X138792857Y-97000390D02*
X138707143Y-96962295D01*
X138707143Y-96962295D02*
X138650000Y-96962295D01*
X138650000Y-96962295D02*
X138564286Y-97000390D01*
X138564286Y-97000390D02*
X138535714Y-97038485D01*
X137964286Y-97762295D02*
X138307143Y-97762295D01*
X138135714Y-97762295D02*
X138135714Y-96962295D01*
X138135714Y-96962295D02*
X138192857Y-97076580D01*
X138192857Y-97076580D02*
X138250000Y-97152771D01*
X138250000Y-97152771D02*
X138307143Y-97190866D01*
X137735714Y-97038485D02*
X137707142Y-97000390D01*
X137707142Y-97000390D02*
X137650000Y-96962295D01*
X137650000Y-96962295D02*
X137507142Y-96962295D01*
X137507142Y-96962295D02*
X137450000Y-97000390D01*
X137450000Y-97000390D02*
X137421428Y-97038485D01*
X137421428Y-97038485D02*
X137392857Y-97114676D01*
X137392857Y-97114676D02*
X137392857Y-97190866D01*
X137392857Y-97190866D02*
X137421428Y-97305152D01*
X137421428Y-97305152D02*
X137764285Y-97762295D01*
X137764285Y-97762295D02*
X137392857Y-97762295D01*
X166286104Y-106864285D02*
X166324200Y-106835713D01*
X166324200Y-106835713D02*
X166362295Y-106749999D01*
X166362295Y-106749999D02*
X166362295Y-106692856D01*
X166362295Y-106692856D02*
X166324200Y-106607142D01*
X166324200Y-106607142D02*
X166248009Y-106549999D01*
X166248009Y-106549999D02*
X166171819Y-106521428D01*
X166171819Y-106521428D02*
X166019438Y-106492856D01*
X166019438Y-106492856D02*
X165905152Y-106492856D01*
X165905152Y-106492856D02*
X165752771Y-106521428D01*
X165752771Y-106521428D02*
X165676580Y-106549999D01*
X165676580Y-106549999D02*
X165600390Y-106607142D01*
X165600390Y-106607142D02*
X165562295Y-106692856D01*
X165562295Y-106692856D02*
X165562295Y-106749999D01*
X165562295Y-106749999D02*
X165600390Y-106835713D01*
X165600390Y-106835713D02*
X165638485Y-106864285D01*
X165638485Y-107092856D02*
X165600390Y-107121428D01*
X165600390Y-107121428D02*
X165562295Y-107178571D01*
X165562295Y-107178571D02*
X165562295Y-107321428D01*
X165562295Y-107321428D02*
X165600390Y-107378571D01*
X165600390Y-107378571D02*
X165638485Y-107407142D01*
X165638485Y-107407142D02*
X165714676Y-107435713D01*
X165714676Y-107435713D02*
X165790866Y-107435713D01*
X165790866Y-107435713D02*
X165905152Y-107407142D01*
X165905152Y-107407142D02*
X166362295Y-107064285D01*
X166362295Y-107064285D02*
X166362295Y-107435713D01*
X166362295Y-107721428D02*
X166362295Y-107835714D01*
X166362295Y-107835714D02*
X166324200Y-107892857D01*
X166324200Y-107892857D02*
X166286104Y-107921428D01*
X166286104Y-107921428D02*
X166171819Y-107978571D01*
X166171819Y-107978571D02*
X166019438Y-108007142D01*
X166019438Y-108007142D02*
X165714676Y-108007142D01*
X165714676Y-108007142D02*
X165638485Y-107978571D01*
X165638485Y-107978571D02*
X165600390Y-107950000D01*
X165600390Y-107950000D02*
X165562295Y-107892857D01*
X165562295Y-107892857D02*
X165562295Y-107778571D01*
X165562295Y-107778571D02*
X165600390Y-107721428D01*
X165600390Y-107721428D02*
X165638485Y-107692857D01*
X165638485Y-107692857D02*
X165714676Y-107664285D01*
X165714676Y-107664285D02*
X165905152Y-107664285D01*
X165905152Y-107664285D02*
X165981342Y-107692857D01*
X165981342Y-107692857D02*
X166019438Y-107721428D01*
X166019438Y-107721428D02*
X166057533Y-107778571D01*
X166057533Y-107778571D02*
X166057533Y-107892857D01*
X166057533Y-107892857D02*
X166019438Y-107950000D01*
X166019438Y-107950000D02*
X165981342Y-107978571D01*
X165981342Y-107978571D02*
X165905152Y-108007142D01*
X156542856Y-111912295D02*
X156542856Y-111112295D01*
X156542856Y-111112295D02*
X156314285Y-111112295D01*
X156314285Y-111112295D02*
X156257142Y-111150390D01*
X156257142Y-111150390D02*
X156228571Y-111188485D01*
X156228571Y-111188485D02*
X156199999Y-111264676D01*
X156199999Y-111264676D02*
X156199999Y-111378961D01*
X156199999Y-111378961D02*
X156228571Y-111455152D01*
X156228571Y-111455152D02*
X156257142Y-111493247D01*
X156257142Y-111493247D02*
X156314285Y-111531342D01*
X156314285Y-111531342D02*
X156542856Y-111531342D01*
X155628571Y-111912295D02*
X155971428Y-111912295D01*
X155799999Y-111912295D02*
X155799999Y-111112295D01*
X155799999Y-111112295D02*
X155857142Y-111226580D01*
X155857142Y-111226580D02*
X155914285Y-111302771D01*
X155914285Y-111302771D02*
X155971428Y-111340866D01*
X162462295Y-106914285D02*
X162081342Y-106714285D01*
X162462295Y-106571428D02*
X161662295Y-106571428D01*
X161662295Y-106571428D02*
X161662295Y-106799999D01*
X161662295Y-106799999D02*
X161700390Y-106857142D01*
X161700390Y-106857142D02*
X161738485Y-106885713D01*
X161738485Y-106885713D02*
X161814676Y-106914285D01*
X161814676Y-106914285D02*
X161928961Y-106914285D01*
X161928961Y-106914285D02*
X162005152Y-106885713D01*
X162005152Y-106885713D02*
X162043247Y-106857142D01*
X162043247Y-106857142D02*
X162081342Y-106799999D01*
X162081342Y-106799999D02*
X162081342Y-106571428D01*
X161738485Y-107142856D02*
X161700390Y-107171428D01*
X161700390Y-107171428D02*
X161662295Y-107228571D01*
X161662295Y-107228571D02*
X161662295Y-107371428D01*
X161662295Y-107371428D02*
X161700390Y-107428571D01*
X161700390Y-107428571D02*
X161738485Y-107457142D01*
X161738485Y-107457142D02*
X161814676Y-107485713D01*
X161814676Y-107485713D02*
X161890866Y-107485713D01*
X161890866Y-107485713D02*
X162005152Y-107457142D01*
X162005152Y-107457142D02*
X162462295Y-107114285D01*
X162462295Y-107114285D02*
X162462295Y-107485713D01*
X161928961Y-108000000D02*
X162462295Y-108000000D01*
X161624200Y-107857142D02*
X162195628Y-107714285D01*
X162195628Y-107714285D02*
X162195628Y-108085714D01*
X141999999Y-94062295D02*
X142199999Y-93681342D01*
X142342856Y-94062295D02*
X142342856Y-93262295D01*
X142342856Y-93262295D02*
X142114285Y-93262295D01*
X142114285Y-93262295D02*
X142057142Y-93300390D01*
X142057142Y-93300390D02*
X142028571Y-93338485D01*
X142028571Y-93338485D02*
X141999999Y-93414676D01*
X141999999Y-93414676D02*
X141999999Y-93528961D01*
X141999999Y-93528961D02*
X142028571Y-93605152D01*
X142028571Y-93605152D02*
X142057142Y-93643247D01*
X142057142Y-93643247D02*
X142114285Y-93681342D01*
X142114285Y-93681342D02*
X142342856Y-93681342D01*
X141485714Y-93528961D02*
X141485714Y-94062295D01*
X141628571Y-93224200D02*
X141771428Y-93795628D01*
X141771428Y-93795628D02*
X141399999Y-93795628D01*
X136099999Y-104086104D02*
X136128571Y-104124200D01*
X136128571Y-104124200D02*
X136214285Y-104162295D01*
X136214285Y-104162295D02*
X136271428Y-104162295D01*
X136271428Y-104162295D02*
X136357142Y-104124200D01*
X136357142Y-104124200D02*
X136414285Y-104048009D01*
X136414285Y-104048009D02*
X136442856Y-103971819D01*
X136442856Y-103971819D02*
X136471428Y-103819438D01*
X136471428Y-103819438D02*
X136471428Y-103705152D01*
X136471428Y-103705152D02*
X136442856Y-103552771D01*
X136442856Y-103552771D02*
X136414285Y-103476580D01*
X136414285Y-103476580D02*
X136357142Y-103400390D01*
X136357142Y-103400390D02*
X136271428Y-103362295D01*
X136271428Y-103362295D02*
X136214285Y-103362295D01*
X136214285Y-103362295D02*
X136128571Y-103400390D01*
X136128571Y-103400390D02*
X136099999Y-103438485D01*
X135585714Y-103362295D02*
X135699999Y-103362295D01*
X135699999Y-103362295D02*
X135757142Y-103400390D01*
X135757142Y-103400390D02*
X135785714Y-103438485D01*
X135785714Y-103438485D02*
X135842856Y-103552771D01*
X135842856Y-103552771D02*
X135871428Y-103705152D01*
X135871428Y-103705152D02*
X135871428Y-104009914D01*
X135871428Y-104009914D02*
X135842856Y-104086104D01*
X135842856Y-104086104D02*
X135814285Y-104124200D01*
X135814285Y-104124200D02*
X135757142Y-104162295D01*
X135757142Y-104162295D02*
X135642856Y-104162295D01*
X135642856Y-104162295D02*
X135585714Y-104124200D01*
X135585714Y-104124200D02*
X135557142Y-104086104D01*
X135557142Y-104086104D02*
X135528571Y-104009914D01*
X135528571Y-104009914D02*
X135528571Y-103819438D01*
X135528571Y-103819438D02*
X135557142Y-103743247D01*
X135557142Y-103743247D02*
X135585714Y-103705152D01*
X135585714Y-103705152D02*
X135642856Y-103667057D01*
X135642856Y-103667057D02*
X135757142Y-103667057D01*
X135757142Y-103667057D02*
X135814285Y-103705152D01*
X135814285Y-103705152D02*
X135842856Y-103743247D01*
X135842856Y-103743247D02*
X135871428Y-103819438D01*
X141999999Y-91936104D02*
X142028571Y-91974200D01*
X142028571Y-91974200D02*
X142114285Y-92012295D01*
X142114285Y-92012295D02*
X142171428Y-92012295D01*
X142171428Y-92012295D02*
X142257142Y-91974200D01*
X142257142Y-91974200D02*
X142314285Y-91898009D01*
X142314285Y-91898009D02*
X142342856Y-91821819D01*
X142342856Y-91821819D02*
X142371428Y-91669438D01*
X142371428Y-91669438D02*
X142371428Y-91555152D01*
X142371428Y-91555152D02*
X142342856Y-91402771D01*
X142342856Y-91402771D02*
X142314285Y-91326580D01*
X142314285Y-91326580D02*
X142257142Y-91250390D01*
X142257142Y-91250390D02*
X142171428Y-91212295D01*
X142171428Y-91212295D02*
X142114285Y-91212295D01*
X142114285Y-91212295D02*
X142028571Y-91250390D01*
X142028571Y-91250390D02*
X141999999Y-91288485D01*
X141428571Y-92012295D02*
X141771428Y-92012295D01*
X141599999Y-92012295D02*
X141599999Y-91212295D01*
X141599999Y-91212295D02*
X141657142Y-91326580D01*
X141657142Y-91326580D02*
X141714285Y-91402771D01*
X141714285Y-91402771D02*
X141771428Y-91440866D01*
X137335714Y-84286104D02*
X137364286Y-84324200D01*
X137364286Y-84324200D02*
X137450000Y-84362295D01*
X137450000Y-84362295D02*
X137507143Y-84362295D01*
X137507143Y-84362295D02*
X137592857Y-84324200D01*
X137592857Y-84324200D02*
X137650000Y-84248009D01*
X137650000Y-84248009D02*
X137678571Y-84171819D01*
X137678571Y-84171819D02*
X137707143Y-84019438D01*
X137707143Y-84019438D02*
X137707143Y-83905152D01*
X137707143Y-83905152D02*
X137678571Y-83752771D01*
X137678571Y-83752771D02*
X137650000Y-83676580D01*
X137650000Y-83676580D02*
X137592857Y-83600390D01*
X137592857Y-83600390D02*
X137507143Y-83562295D01*
X137507143Y-83562295D02*
X137450000Y-83562295D01*
X137450000Y-83562295D02*
X137364286Y-83600390D01*
X137364286Y-83600390D02*
X137335714Y-83638485D01*
X136764286Y-84362295D02*
X137107143Y-84362295D01*
X136935714Y-84362295D02*
X136935714Y-83562295D01*
X136935714Y-83562295D02*
X136992857Y-83676580D01*
X136992857Y-83676580D02*
X137050000Y-83752771D01*
X137050000Y-83752771D02*
X137107143Y-83790866D01*
X136192857Y-84362295D02*
X136535714Y-84362295D01*
X136364285Y-84362295D02*
X136364285Y-83562295D01*
X136364285Y-83562295D02*
X136421428Y-83676580D01*
X136421428Y-83676580D02*
X136478571Y-83752771D01*
X136478571Y-83752771D02*
X136535714Y-83790866D01*
X150049999Y-89662295D02*
X150249999Y-89281342D01*
X150392856Y-89662295D02*
X150392856Y-88862295D01*
X150392856Y-88862295D02*
X150164285Y-88862295D01*
X150164285Y-88862295D02*
X150107142Y-88900390D01*
X150107142Y-88900390D02*
X150078571Y-88938485D01*
X150078571Y-88938485D02*
X150049999Y-89014676D01*
X150049999Y-89014676D02*
X150049999Y-89128961D01*
X150049999Y-89128961D02*
X150078571Y-89205152D01*
X150078571Y-89205152D02*
X150107142Y-89243247D01*
X150107142Y-89243247D02*
X150164285Y-89281342D01*
X150164285Y-89281342D02*
X150392856Y-89281342D01*
X149707142Y-89205152D02*
X149764285Y-89167057D01*
X149764285Y-89167057D02*
X149792856Y-89128961D01*
X149792856Y-89128961D02*
X149821428Y-89052771D01*
X149821428Y-89052771D02*
X149821428Y-89014676D01*
X149821428Y-89014676D02*
X149792856Y-88938485D01*
X149792856Y-88938485D02*
X149764285Y-88900390D01*
X149764285Y-88900390D02*
X149707142Y-88862295D01*
X149707142Y-88862295D02*
X149592856Y-88862295D01*
X149592856Y-88862295D02*
X149535714Y-88900390D01*
X149535714Y-88900390D02*
X149507142Y-88938485D01*
X149507142Y-88938485D02*
X149478571Y-89014676D01*
X149478571Y-89014676D02*
X149478571Y-89052771D01*
X149478571Y-89052771D02*
X149507142Y-89128961D01*
X149507142Y-89128961D02*
X149535714Y-89167057D01*
X149535714Y-89167057D02*
X149592856Y-89205152D01*
X149592856Y-89205152D02*
X149707142Y-89205152D01*
X149707142Y-89205152D02*
X149764285Y-89243247D01*
X149764285Y-89243247D02*
X149792856Y-89281342D01*
X149792856Y-89281342D02*
X149821428Y-89357533D01*
X149821428Y-89357533D02*
X149821428Y-89509914D01*
X149821428Y-89509914D02*
X149792856Y-89586104D01*
X149792856Y-89586104D02*
X149764285Y-89624200D01*
X149764285Y-89624200D02*
X149707142Y-89662295D01*
X149707142Y-89662295D02*
X149592856Y-89662295D01*
X149592856Y-89662295D02*
X149535714Y-89624200D01*
X149535714Y-89624200D02*
X149507142Y-89586104D01*
X149507142Y-89586104D02*
X149478571Y-89509914D01*
X149478571Y-89509914D02*
X149478571Y-89357533D01*
X149478571Y-89357533D02*
X149507142Y-89281342D01*
X149507142Y-89281342D02*
X149535714Y-89243247D01*
X149535714Y-89243247D02*
X149592856Y-89205152D01*
X162512295Y-105064285D02*
X162131342Y-104864285D01*
X162512295Y-104721428D02*
X161712295Y-104721428D01*
X161712295Y-104721428D02*
X161712295Y-104949999D01*
X161712295Y-104949999D02*
X161750390Y-105007142D01*
X161750390Y-105007142D02*
X161788485Y-105035713D01*
X161788485Y-105035713D02*
X161864676Y-105064285D01*
X161864676Y-105064285D02*
X161978961Y-105064285D01*
X161978961Y-105064285D02*
X162055152Y-105035713D01*
X162055152Y-105035713D02*
X162093247Y-105007142D01*
X162093247Y-105007142D02*
X162131342Y-104949999D01*
X162131342Y-104949999D02*
X162131342Y-104721428D01*
X161788485Y-105292856D02*
X161750390Y-105321428D01*
X161750390Y-105321428D02*
X161712295Y-105378571D01*
X161712295Y-105378571D02*
X161712295Y-105521428D01*
X161712295Y-105521428D02*
X161750390Y-105578571D01*
X161750390Y-105578571D02*
X161788485Y-105607142D01*
X161788485Y-105607142D02*
X161864676Y-105635713D01*
X161864676Y-105635713D02*
X161940866Y-105635713D01*
X161940866Y-105635713D02*
X162055152Y-105607142D01*
X162055152Y-105607142D02*
X162512295Y-105264285D01*
X162512295Y-105264285D02*
X162512295Y-105635713D01*
X161712295Y-105835714D02*
X161712295Y-106207142D01*
X161712295Y-106207142D02*
X162017057Y-106007142D01*
X162017057Y-106007142D02*
X162017057Y-106092857D01*
X162017057Y-106092857D02*
X162055152Y-106150000D01*
X162055152Y-106150000D02*
X162093247Y-106178571D01*
X162093247Y-106178571D02*
X162169438Y-106207142D01*
X162169438Y-106207142D02*
X162359914Y-106207142D01*
X162359914Y-106207142D02*
X162436104Y-106178571D01*
X162436104Y-106178571D02*
X162474200Y-106150000D01*
X162474200Y-106150000D02*
X162512295Y-106092857D01*
X162512295Y-106092857D02*
X162512295Y-105921428D01*
X162512295Y-105921428D02*
X162474200Y-105864285D01*
X162474200Y-105864285D02*
X162436104Y-105835714D01*
D11*
%TO.C,J1*%
X165325000Y-86350000D02*
X167125000Y-86350000D01*
X159325000Y-86350000D02*
X164025000Y-86350000D01*
X154015000Y-86350000D02*
X157625000Y-86350000D01*
X154015000Y-86800000D02*
X154015000Y-86350000D01*
X170285000Y-87380000D02*
X170085000Y-87180000D01*
X170285000Y-87380000D02*
X170285000Y-89240000D01*
X170285000Y-89240000D02*
X170085000Y-89450000D01*
X169935000Y-89450000D02*
X170085000Y-89450000D01*
X169935000Y-89450000D02*
X169935000Y-95820000D01*
X170285000Y-96330000D02*
X169935000Y-95820000D01*
X154015000Y-98400000D02*
X154015000Y-100320000D01*
X170285000Y-98640000D02*
X170285000Y-96330000D01*
X170285000Y-98640000D02*
X170085000Y-98840000D01*
X170085000Y-98840000D02*
X170085000Y-99100000D01*
X154015000Y-100320000D02*
X168025000Y-100320000D01*
D12*
%TO.C,P1*%
X156300620Y-115339960D02*
X155499190Y-115339960D01*
X156300620Y-112461670D02*
X156300620Y-115339960D01*
X155499190Y-112461670D02*
X156300620Y-112461670D01*
X144499110Y-112459680D02*
X143699380Y-112459680D01*
X143699380Y-115339960D02*
X144500810Y-115339960D01*
X143699380Y-112459680D02*
X143699380Y-115339960D01*
%TD*%
M02*
