%TF.GenerationSoftware,KiCad,Pcbnew,7.0.6*%
%TF.CreationDate,2023-09-15T14:04:58+02:00*%
%TF.ProjectId,V8,56382e6b-6963-4616-945f-706362585858,rev?*%
%TF.SameCoordinates,Original*%
%TF.FileFunction,Other,User*%
%FSLAX46Y46*%
G04 Gerber Fmt 4.6, Leading zero omitted, Abs format (unit mm)*
G04 Created by KiCad (PCBNEW 7.0.6) date 2023-09-15 14:04:58*
%MOMM*%
%LPD*%
G01*
G04 APERTURE LIST*
%ADD10C,0.050000*%
G04 APERTURE END LIST*
D10*
%TO.C,R26*%
X153650000Y-81400000D02*
X152950000Y-81400000D01*
X152950000Y-81400000D02*
X152950000Y-82800000D01*
X153650000Y-82800000D02*
X153650000Y-81400000D01*
X152950000Y-82800000D02*
X153650000Y-82800000D01*
%TO.C,R18*%
X154550000Y-81400000D02*
X153850000Y-81400000D01*
X153850000Y-81400000D02*
X153850000Y-82800000D01*
X154550000Y-82800000D02*
X154550000Y-81400000D01*
X153850000Y-82800000D02*
X154550000Y-82800000D01*
%TO.C,R2*%
X138400000Y-91050000D02*
X138400000Y-90350000D01*
X138400000Y-90350000D02*
X137000000Y-90350000D01*
X137000000Y-91050000D02*
X138400000Y-91050000D01*
X137000000Y-90350000D02*
X137000000Y-91050000D01*
%TO.C,C26*%
X152650000Y-90180000D02*
X151950000Y-90180000D01*
X151950000Y-90180000D02*
X151950000Y-91580000D01*
X152650000Y-91580000D02*
X152650000Y-90180000D01*
X151950000Y-91580000D02*
X152650000Y-91580000D01*
%TO.C,R1*%
X141200000Y-91050000D02*
X141200000Y-90350000D01*
X141200000Y-90350000D02*
X139800000Y-90350000D01*
X139800000Y-91050000D02*
X141200000Y-91050000D01*
X139800000Y-90350000D02*
X139800000Y-91050000D01*
%TO.C,C5*%
X137000000Y-104650000D02*
X137000000Y-105350000D01*
X137000000Y-105350000D02*
X138400000Y-105350000D01*
X138400000Y-104650000D02*
X137000000Y-104650000D01*
X138400000Y-105350000D02*
X138400000Y-104650000D01*
%TO.C,C15*%
X145750000Y-103200000D02*
X146450000Y-103200000D01*
X146450000Y-103200000D02*
X146450000Y-101800000D01*
X145750000Y-101800000D02*
X145750000Y-103200000D01*
X146450000Y-101800000D02*
X145750000Y-101800000D01*
%TO.C,R11*%
X151950000Y-96380000D02*
X152650000Y-96380000D01*
X152650000Y-96380000D02*
X152650000Y-94980000D01*
X151950000Y-94980000D02*
X151950000Y-96380000D01*
X152650000Y-94980000D02*
X151950000Y-94980000D01*
%TO.C,R6*%
X137000000Y-102650000D02*
X137000000Y-103350000D01*
X137000000Y-103350000D02*
X138400000Y-103350000D01*
X138400000Y-102650000D02*
X137000000Y-102650000D01*
X138400000Y-103350000D02*
X138400000Y-102650000D01*
%TO.C,C8*%
X138950000Y-81700000D02*
X138250000Y-81700000D01*
X138250000Y-81700000D02*
X138250000Y-83100000D01*
X138950000Y-83100000D02*
X138950000Y-81700000D01*
X138250000Y-83100000D02*
X138950000Y-83100000D01*
%TO.C,R3*%
X138400000Y-93850000D02*
X138400000Y-93150000D01*
X138400000Y-93150000D02*
X137000000Y-93150000D01*
X137000000Y-93850000D02*
X138400000Y-93850000D01*
X137000000Y-93150000D02*
X137000000Y-93850000D01*
%TO.C,C3*%
X138400000Y-93050000D02*
X138400000Y-92350000D01*
X138400000Y-92350000D02*
X137000000Y-92350000D01*
X137000000Y-93050000D02*
X138400000Y-93050000D01*
X137000000Y-92350000D02*
X137000000Y-93050000D01*
%TO.C,C4*%
X141200000Y-93050000D02*
X141200000Y-92350000D01*
X141200000Y-92350000D02*
X139800000Y-92350000D01*
X139800000Y-93050000D02*
X141200000Y-93050000D01*
X139800000Y-92350000D02*
X139800000Y-93050000D01*
%TO.C,R12*%
X151950000Y-97980000D02*
X152650000Y-97980000D01*
X152650000Y-97980000D02*
X152650000Y-96580000D01*
X151950000Y-96580000D02*
X151950000Y-97980000D01*
X152650000Y-96580000D02*
X151950000Y-96580000D01*
%TO.C,J1*%
X170780000Y-85505000D02*
X153080000Y-85505000D01*
X153080000Y-85505000D02*
X153080000Y-101205000D01*
X170780000Y-101205000D02*
X170780000Y-85505000D01*
X153080000Y-101205000D02*
X170780000Y-101205000D01*
%TO.C,C2*%
X138400000Y-91850000D02*
X138400000Y-91150000D01*
X138400000Y-91150000D02*
X137000000Y-91150000D01*
X137000000Y-91850000D02*
X138400000Y-91850000D01*
X137000000Y-91150000D02*
X137000000Y-91850000D01*
%TO.C,C10*%
X139150000Y-84700000D02*
X139850000Y-84700000D01*
X139850000Y-84700000D02*
X139850000Y-83300000D01*
X139150000Y-83300000D02*
X139150000Y-84700000D01*
X139850000Y-83300000D02*
X139150000Y-83300000D01*
%TO.C,R7*%
X152650000Y-86950000D02*
X151950000Y-86950000D01*
X151950000Y-86950000D02*
X151950000Y-88350000D01*
X152650000Y-88350000D02*
X152650000Y-86950000D01*
X151950000Y-88350000D02*
X152650000Y-88350000D01*
%TO.C,C13*%
X139152500Y-99700000D02*
X139152500Y-100400000D01*
X139152500Y-100400000D02*
X140552500Y-100400000D01*
X140552500Y-99700000D02*
X139152500Y-99700000D01*
X140552500Y-100400000D02*
X140552500Y-99700000D01*
%TO.C,R9*%
X151950000Y-93180000D02*
X152650000Y-93180000D01*
X152650000Y-93180000D02*
X152650000Y-91780000D01*
X151950000Y-91780000D02*
X151950000Y-93180000D01*
X152650000Y-91780000D02*
X151950000Y-91780000D01*
%TO.C,R5*%
X137000000Y-105450000D02*
X137000000Y-106150000D01*
X137000000Y-106150000D02*
X138400000Y-106150000D01*
X138400000Y-105450000D02*
X137000000Y-105450000D01*
X138400000Y-106150000D02*
X138400000Y-105450000D01*
%TO.C,R10*%
X151950000Y-94780000D02*
X152650000Y-94780000D01*
X152650000Y-94780000D02*
X152650000Y-93380000D01*
X151950000Y-93380000D02*
X151950000Y-94780000D01*
X152650000Y-93380000D02*
X151950000Y-93380000D01*
%TO.C,R21*%
X164575000Y-106380000D02*
X165275000Y-106380000D01*
X165275000Y-106380000D02*
X165275000Y-104980000D01*
X164575000Y-104980000D02*
X164575000Y-106380000D01*
X165275000Y-104980000D02*
X164575000Y-104980000D01*
%TO.C,C9*%
X138050000Y-81700000D02*
X137350000Y-81700000D01*
X137350000Y-81700000D02*
X137350000Y-83100000D01*
X138050000Y-83100000D02*
X138050000Y-81700000D01*
X137350000Y-83100000D02*
X138050000Y-83100000D01*
%TO.C,C7*%
X139150000Y-83100000D02*
X139850000Y-83100000D01*
X139850000Y-83100000D02*
X139850000Y-81700000D01*
X139150000Y-81700000D02*
X139150000Y-83100000D01*
X139850000Y-81700000D02*
X139150000Y-81700000D01*
%TO.C,R25*%
X154750000Y-82800000D02*
X155450000Y-82800000D01*
X155450000Y-82800000D02*
X155450000Y-81400000D01*
X154750000Y-81400000D02*
X154750000Y-82800000D01*
X155450000Y-81400000D02*
X154750000Y-81400000D01*
%TO.C,R22*%
X164375000Y-104980000D02*
X163675000Y-104980000D01*
X163675000Y-104980000D02*
X163675000Y-106380000D01*
X164375000Y-106380000D02*
X164375000Y-104980000D01*
X163675000Y-106380000D02*
X164375000Y-106380000D01*
%TO.C,C14*%
X144750000Y-101780000D02*
X144050000Y-101780000D01*
X144050000Y-101780000D02*
X144050000Y-103180000D01*
X144750000Y-103180000D02*
X144750000Y-101780000D01*
X144050000Y-103180000D02*
X144750000Y-103180000D01*
%TO.C,C12*%
X139152500Y-97100000D02*
X139152500Y-97800000D01*
X139152500Y-97800000D02*
X140552500Y-97800000D01*
X140552500Y-97100000D02*
X139152500Y-97100000D01*
X140552500Y-97800000D02*
X140552500Y-97100000D01*
%TO.C,C29*%
X164575000Y-107880000D02*
X165275000Y-107880000D01*
X165275000Y-107880000D02*
X165275000Y-106480000D01*
X164575000Y-106480000D02*
X164575000Y-107880000D01*
X165275000Y-106480000D02*
X164575000Y-106480000D01*
%TO.C,R24*%
X162775000Y-107880000D02*
X163475000Y-107880000D01*
X163475000Y-107880000D02*
X163475000Y-106480000D01*
X162775000Y-106480000D02*
X162775000Y-107880000D01*
X163475000Y-106480000D02*
X162775000Y-106480000D01*
%TO.C,R4*%
X141200000Y-93850000D02*
X141200000Y-93150000D01*
X141200000Y-93150000D02*
X139800000Y-93150000D01*
X139800000Y-93850000D02*
X141200000Y-93850000D01*
X139800000Y-93150000D02*
X139800000Y-93850000D01*
%TO.C,C6*%
X137000000Y-103450000D02*
X137000000Y-104150000D01*
X137000000Y-104150000D02*
X138400000Y-104150000D01*
X138400000Y-103450000D02*
X137000000Y-103450000D01*
X138400000Y-104150000D02*
X138400000Y-103450000D01*
%TO.C,C1*%
X141200000Y-91850000D02*
X141200000Y-91150000D01*
X141200000Y-91150000D02*
X139800000Y-91150000D01*
X139800000Y-91850000D02*
X141200000Y-91850000D01*
X139800000Y-91150000D02*
X139800000Y-91850000D01*
%TO.C,C11*%
X138950000Y-83300000D02*
X138250000Y-83300000D01*
X138250000Y-83300000D02*
X138250000Y-84700000D01*
X138950000Y-84700000D02*
X138950000Y-83300000D01*
X138250000Y-84700000D02*
X138950000Y-84700000D01*
%TO.C,R8*%
X152650000Y-88620000D02*
X151950000Y-88620000D01*
X151950000Y-88620000D02*
X151950000Y-90020000D01*
X152650000Y-90020000D02*
X152650000Y-88620000D01*
X151950000Y-90020000D02*
X152650000Y-90020000D01*
%TO.C,R23*%
X163475000Y-104980000D02*
X162775000Y-104980000D01*
X162775000Y-104980000D02*
X162775000Y-106380000D01*
X163475000Y-106380000D02*
X163475000Y-104980000D01*
X162775000Y-106380000D02*
X163475000Y-106380000D01*
%TD*%
M02*
