%TF.GenerationSoftware,KiCad,Pcbnew,7.0.6*%
%TF.CreationDate,2023-09-15T14:04:59+02:00*%
%TF.ProjectId,V8,56382e6b-6963-4616-945f-706362585858,rev?*%
%TF.SameCoordinates,Original*%
%TF.FileFunction,AssemblyDrawing,Bot*%
%FSLAX46Y46*%
G04 Gerber Fmt 4.6, Leading zero omitted, Abs format (unit mm)*
G04 Created by KiCad (PCBNEW 7.0.6) date 2023-09-15 14:04:59*
%MOMM*%
%LPD*%
G01*
G04 APERTURE LIST*
%ADD10C,0.150000*%
%ADD11C,0.040000*%
%ADD12C,0.100000*%
G04 APERTURE END LIST*
D10*
X153804819Y-82052381D02*
X153804819Y-82147619D01*
X153804819Y-82147619D02*
X153852438Y-82242857D01*
X153852438Y-82242857D02*
X153900057Y-82290476D01*
X153900057Y-82290476D02*
X153995295Y-82338095D01*
X153995295Y-82338095D02*
X154185771Y-82385714D01*
X154185771Y-82385714D02*
X154423866Y-82385714D01*
X154423866Y-82385714D02*
X154614342Y-82338095D01*
X154614342Y-82338095D02*
X154709580Y-82290476D01*
X154709580Y-82290476D02*
X154757200Y-82242857D01*
X154757200Y-82242857D02*
X154804819Y-82147619D01*
X154804819Y-82147619D02*
X154804819Y-82052381D01*
X154804819Y-82052381D02*
X154757200Y-81957143D01*
X154757200Y-81957143D02*
X154709580Y-81909524D01*
X154709580Y-81909524D02*
X154614342Y-81861905D01*
X154614342Y-81861905D02*
X154423866Y-81814286D01*
X154423866Y-81814286D02*
X154185771Y-81814286D01*
X154185771Y-81814286D02*
X153995295Y-81861905D01*
X153995295Y-81861905D02*
X153900057Y-81909524D01*
X153900057Y-81909524D02*
X153852438Y-81957143D01*
X153852438Y-81957143D02*
X153804819Y-82052381D01*
D11*
X152733574Y-81939285D02*
X152614527Y-81855952D01*
X152733574Y-81796428D02*
X152483574Y-81796428D01*
X152483574Y-81796428D02*
X152483574Y-81891666D01*
X152483574Y-81891666D02*
X152495479Y-81915476D01*
X152495479Y-81915476D02*
X152507384Y-81927381D01*
X152507384Y-81927381D02*
X152531193Y-81939285D01*
X152531193Y-81939285D02*
X152566908Y-81939285D01*
X152566908Y-81939285D02*
X152590717Y-81927381D01*
X152590717Y-81927381D02*
X152602622Y-81915476D01*
X152602622Y-81915476D02*
X152614527Y-81891666D01*
X152614527Y-81891666D02*
X152614527Y-81796428D01*
X152507384Y-82034524D02*
X152495479Y-82046428D01*
X152495479Y-82046428D02*
X152483574Y-82070238D01*
X152483574Y-82070238D02*
X152483574Y-82129762D01*
X152483574Y-82129762D02*
X152495479Y-82153571D01*
X152495479Y-82153571D02*
X152507384Y-82165476D01*
X152507384Y-82165476D02*
X152531193Y-82177381D01*
X152531193Y-82177381D02*
X152555003Y-82177381D01*
X152555003Y-82177381D02*
X152590717Y-82165476D01*
X152590717Y-82165476D02*
X152733574Y-82022619D01*
X152733574Y-82022619D02*
X152733574Y-82177381D01*
X152483574Y-82391666D02*
X152483574Y-82344047D01*
X152483574Y-82344047D02*
X152495479Y-82320238D01*
X152495479Y-82320238D02*
X152507384Y-82308333D01*
X152507384Y-82308333D02*
X152543098Y-82284523D01*
X152543098Y-82284523D02*
X152590717Y-82272619D01*
X152590717Y-82272619D02*
X152685955Y-82272619D01*
X152685955Y-82272619D02*
X152709765Y-82284523D01*
X152709765Y-82284523D02*
X152721670Y-82296428D01*
X152721670Y-82296428D02*
X152733574Y-82320238D01*
X152733574Y-82320238D02*
X152733574Y-82367857D01*
X152733574Y-82367857D02*
X152721670Y-82391666D01*
X152721670Y-82391666D02*
X152709765Y-82403571D01*
X152709765Y-82403571D02*
X152685955Y-82415476D01*
X152685955Y-82415476D02*
X152626431Y-82415476D01*
X152626431Y-82415476D02*
X152602622Y-82403571D01*
X152602622Y-82403571D02*
X152590717Y-82391666D01*
X152590717Y-82391666D02*
X152578812Y-82367857D01*
X152578812Y-82367857D02*
X152578812Y-82320238D01*
X152578812Y-82320238D02*
X152590717Y-82296428D01*
X152590717Y-82296428D02*
X152602622Y-82284523D01*
X152602622Y-82284523D02*
X152626431Y-82272619D01*
D10*
X155038152Y-81409523D02*
X155704819Y-81409523D01*
X154657200Y-81171428D02*
X155371485Y-80933333D01*
X155371485Y-80933333D02*
X155371485Y-81552380D01*
X155704819Y-81933333D02*
X154704819Y-81933333D01*
X155323866Y-82028571D02*
X155704819Y-82314285D01*
X155038152Y-82314285D02*
X155419104Y-81933333D01*
X154704819Y-82647619D02*
X154704819Y-83314285D01*
X154704819Y-83314285D02*
X155704819Y-82885714D01*
D11*
X153633574Y-81939285D02*
X153514527Y-81855952D01*
X153633574Y-81796428D02*
X153383574Y-81796428D01*
X153383574Y-81796428D02*
X153383574Y-81891666D01*
X153383574Y-81891666D02*
X153395479Y-81915476D01*
X153395479Y-81915476D02*
X153407384Y-81927381D01*
X153407384Y-81927381D02*
X153431193Y-81939285D01*
X153431193Y-81939285D02*
X153466908Y-81939285D01*
X153466908Y-81939285D02*
X153490717Y-81927381D01*
X153490717Y-81927381D02*
X153502622Y-81915476D01*
X153502622Y-81915476D02*
X153514527Y-81891666D01*
X153514527Y-81891666D02*
X153514527Y-81796428D01*
X153633574Y-82177381D02*
X153633574Y-82034524D01*
X153633574Y-82105952D02*
X153383574Y-82105952D01*
X153383574Y-82105952D02*
X153419289Y-82082143D01*
X153419289Y-82082143D02*
X153443098Y-82058333D01*
X153443098Y-82058333D02*
X153455003Y-82034524D01*
X153490717Y-82320238D02*
X153478812Y-82296428D01*
X153478812Y-82296428D02*
X153466908Y-82284523D01*
X153466908Y-82284523D02*
X153443098Y-82272619D01*
X153443098Y-82272619D02*
X153431193Y-82272619D01*
X153431193Y-82272619D02*
X153407384Y-82284523D01*
X153407384Y-82284523D02*
X153395479Y-82296428D01*
X153395479Y-82296428D02*
X153383574Y-82320238D01*
X153383574Y-82320238D02*
X153383574Y-82367857D01*
X153383574Y-82367857D02*
X153395479Y-82391666D01*
X153395479Y-82391666D02*
X153407384Y-82403571D01*
X153407384Y-82403571D02*
X153431193Y-82415476D01*
X153431193Y-82415476D02*
X153443098Y-82415476D01*
X153443098Y-82415476D02*
X153466908Y-82403571D01*
X153466908Y-82403571D02*
X153478812Y-82391666D01*
X153478812Y-82391666D02*
X153490717Y-82367857D01*
X153490717Y-82367857D02*
X153490717Y-82320238D01*
X153490717Y-82320238D02*
X153502622Y-82296428D01*
X153502622Y-82296428D02*
X153514527Y-82284523D01*
X153514527Y-82284523D02*
X153538336Y-82272619D01*
X153538336Y-82272619D02*
X153585955Y-82272619D01*
X153585955Y-82272619D02*
X153609765Y-82284523D01*
X153609765Y-82284523D02*
X153621670Y-82296428D01*
X153621670Y-82296428D02*
X153633574Y-82320238D01*
X153633574Y-82320238D02*
X153633574Y-82367857D01*
X153633574Y-82367857D02*
X153621670Y-82391666D01*
X153621670Y-82391666D02*
X153609765Y-82403571D01*
X153609765Y-82403571D02*
X153585955Y-82415476D01*
X153585955Y-82415476D02*
X153538336Y-82415476D01*
X153538336Y-82415476D02*
X153514527Y-82403571D01*
X153514527Y-82403571D02*
X153502622Y-82391666D01*
X153502622Y-82391666D02*
X153490717Y-82367857D01*
D10*
X138414285Y-91204819D02*
X138890475Y-91204819D01*
X138890475Y-91204819D02*
X138938094Y-91681009D01*
X138938094Y-91681009D02*
X138890475Y-91633390D01*
X138890475Y-91633390D02*
X138795237Y-91585771D01*
X138795237Y-91585771D02*
X138557142Y-91585771D01*
X138557142Y-91585771D02*
X138461904Y-91633390D01*
X138461904Y-91633390D02*
X138414285Y-91681009D01*
X138414285Y-91681009D02*
X138366666Y-91776247D01*
X138366666Y-91776247D02*
X138366666Y-92014342D01*
X138366666Y-92014342D02*
X138414285Y-92109580D01*
X138414285Y-92109580D02*
X138461904Y-92157200D01*
X138461904Y-92157200D02*
X138557142Y-92204819D01*
X138557142Y-92204819D02*
X138795237Y-92204819D01*
X138795237Y-92204819D02*
X138890475Y-92157200D01*
X138890475Y-92157200D02*
X138938094Y-92109580D01*
X137509523Y-91204819D02*
X137699999Y-91204819D01*
X137699999Y-91204819D02*
X137795237Y-91252438D01*
X137795237Y-91252438D02*
X137842856Y-91300057D01*
X137842856Y-91300057D02*
X137938094Y-91442914D01*
X137938094Y-91442914D02*
X137985713Y-91633390D01*
X137985713Y-91633390D02*
X137985713Y-92014342D01*
X137985713Y-92014342D02*
X137938094Y-92109580D01*
X137938094Y-92109580D02*
X137890475Y-92157200D01*
X137890475Y-92157200D02*
X137795237Y-92204819D01*
X137795237Y-92204819D02*
X137604761Y-92204819D01*
X137604761Y-92204819D02*
X137509523Y-92157200D01*
X137509523Y-92157200D02*
X137461904Y-92109580D01*
X137461904Y-92109580D02*
X137414285Y-92014342D01*
X137414285Y-92014342D02*
X137414285Y-91776247D01*
X137414285Y-91776247D02*
X137461904Y-91681009D01*
X137461904Y-91681009D02*
X137509523Y-91633390D01*
X137509523Y-91633390D02*
X137604761Y-91585771D01*
X137604761Y-91585771D02*
X137795237Y-91585771D01*
X137795237Y-91585771D02*
X137890475Y-91633390D01*
X137890475Y-91633390D02*
X137938094Y-91681009D01*
X137938094Y-91681009D02*
X137985713Y-91776247D01*
X136795237Y-91204819D02*
X136699999Y-91204819D01*
X136699999Y-91204819D02*
X136604761Y-91252438D01*
X136604761Y-91252438D02*
X136557142Y-91300057D01*
X136557142Y-91300057D02*
X136509523Y-91395295D01*
X136509523Y-91395295D02*
X136461904Y-91585771D01*
X136461904Y-91585771D02*
X136461904Y-91823866D01*
X136461904Y-91823866D02*
X136509523Y-92014342D01*
X136509523Y-92014342D02*
X136557142Y-92109580D01*
X136557142Y-92109580D02*
X136604761Y-92157200D01*
X136604761Y-92157200D02*
X136699999Y-92204819D01*
X136699999Y-92204819D02*
X136795237Y-92204819D01*
X136795237Y-92204819D02*
X136890475Y-92157200D01*
X136890475Y-92157200D02*
X136938094Y-92109580D01*
X136938094Y-92109580D02*
X136985713Y-92014342D01*
X136985713Y-92014342D02*
X137033332Y-91823866D01*
X137033332Y-91823866D02*
X137033332Y-91585771D01*
X137033332Y-91585771D02*
X136985713Y-91395295D01*
X136985713Y-91395295D02*
X136938094Y-91300057D01*
X136938094Y-91300057D02*
X136890475Y-91252438D01*
X136890475Y-91252438D02*
X136795237Y-91204819D01*
D11*
X137741666Y-90133574D02*
X137824999Y-90014527D01*
X137884523Y-90133574D02*
X137884523Y-89883574D01*
X137884523Y-89883574D02*
X137789285Y-89883574D01*
X137789285Y-89883574D02*
X137765475Y-89895479D01*
X137765475Y-89895479D02*
X137753570Y-89907384D01*
X137753570Y-89907384D02*
X137741666Y-89931193D01*
X137741666Y-89931193D02*
X137741666Y-89966908D01*
X137741666Y-89966908D02*
X137753570Y-89990717D01*
X137753570Y-89990717D02*
X137765475Y-90002622D01*
X137765475Y-90002622D02*
X137789285Y-90014527D01*
X137789285Y-90014527D02*
X137884523Y-90014527D01*
X137646427Y-89907384D02*
X137634523Y-89895479D01*
X137634523Y-89895479D02*
X137610713Y-89883574D01*
X137610713Y-89883574D02*
X137551189Y-89883574D01*
X137551189Y-89883574D02*
X137527380Y-89895479D01*
X137527380Y-89895479D02*
X137515475Y-89907384D01*
X137515475Y-89907384D02*
X137503570Y-89931193D01*
X137503570Y-89931193D02*
X137503570Y-89955003D01*
X137503570Y-89955003D02*
X137515475Y-89990717D01*
X137515475Y-89990717D02*
X137658332Y-90133574D01*
X137658332Y-90133574D02*
X137503570Y-90133574D01*
D10*
X153804819Y-90237142D02*
X153804819Y-89665714D01*
X153804819Y-89951428D02*
X152804819Y-89951428D01*
X152804819Y-89951428D02*
X152947676Y-89856190D01*
X152947676Y-89856190D02*
X153042914Y-89760952D01*
X153042914Y-89760952D02*
X153090533Y-89665714D01*
X152804819Y-90856190D02*
X152804819Y-90951428D01*
X152804819Y-90951428D02*
X152852438Y-91046666D01*
X152852438Y-91046666D02*
X152900057Y-91094285D01*
X152900057Y-91094285D02*
X152995295Y-91141904D01*
X152995295Y-91141904D02*
X153185771Y-91189523D01*
X153185771Y-91189523D02*
X153423866Y-91189523D01*
X153423866Y-91189523D02*
X153614342Y-91141904D01*
X153614342Y-91141904D02*
X153709580Y-91094285D01*
X153709580Y-91094285D02*
X153757200Y-91046666D01*
X153757200Y-91046666D02*
X153804819Y-90951428D01*
X153804819Y-90951428D02*
X153804819Y-90856190D01*
X153804819Y-90856190D02*
X153757200Y-90760952D01*
X153757200Y-90760952D02*
X153709580Y-90713333D01*
X153709580Y-90713333D02*
X153614342Y-90665714D01*
X153614342Y-90665714D02*
X153423866Y-90618095D01*
X153423866Y-90618095D02*
X153185771Y-90618095D01*
X153185771Y-90618095D02*
X152995295Y-90665714D01*
X152995295Y-90665714D02*
X152900057Y-90713333D01*
X152900057Y-90713333D02*
X152852438Y-90760952D01*
X152852438Y-90760952D02*
X152804819Y-90856190D01*
X153138152Y-92046666D02*
X153804819Y-92046666D01*
X153138152Y-91618095D02*
X153661961Y-91618095D01*
X153661961Y-91618095D02*
X153757200Y-91665714D01*
X153757200Y-91665714D02*
X153804819Y-91760952D01*
X153804819Y-91760952D02*
X153804819Y-91903809D01*
X153804819Y-91903809D02*
X153757200Y-91999047D01*
X153757200Y-91999047D02*
X153709580Y-92046666D01*
D11*
X151709765Y-90719285D02*
X151721670Y-90707381D01*
X151721670Y-90707381D02*
X151733574Y-90671666D01*
X151733574Y-90671666D02*
X151733574Y-90647857D01*
X151733574Y-90647857D02*
X151721670Y-90612143D01*
X151721670Y-90612143D02*
X151697860Y-90588333D01*
X151697860Y-90588333D02*
X151674050Y-90576428D01*
X151674050Y-90576428D02*
X151626431Y-90564524D01*
X151626431Y-90564524D02*
X151590717Y-90564524D01*
X151590717Y-90564524D02*
X151543098Y-90576428D01*
X151543098Y-90576428D02*
X151519289Y-90588333D01*
X151519289Y-90588333D02*
X151495479Y-90612143D01*
X151495479Y-90612143D02*
X151483574Y-90647857D01*
X151483574Y-90647857D02*
X151483574Y-90671666D01*
X151483574Y-90671666D02*
X151495479Y-90707381D01*
X151495479Y-90707381D02*
X151507384Y-90719285D01*
X151507384Y-90814524D02*
X151495479Y-90826428D01*
X151495479Y-90826428D02*
X151483574Y-90850238D01*
X151483574Y-90850238D02*
X151483574Y-90909762D01*
X151483574Y-90909762D02*
X151495479Y-90933571D01*
X151495479Y-90933571D02*
X151507384Y-90945476D01*
X151507384Y-90945476D02*
X151531193Y-90957381D01*
X151531193Y-90957381D02*
X151555003Y-90957381D01*
X151555003Y-90957381D02*
X151590717Y-90945476D01*
X151590717Y-90945476D02*
X151733574Y-90802619D01*
X151733574Y-90802619D02*
X151733574Y-90957381D01*
X151483574Y-91171666D02*
X151483574Y-91124047D01*
X151483574Y-91124047D02*
X151495479Y-91100238D01*
X151495479Y-91100238D02*
X151507384Y-91088333D01*
X151507384Y-91088333D02*
X151543098Y-91064523D01*
X151543098Y-91064523D02*
X151590717Y-91052619D01*
X151590717Y-91052619D02*
X151685955Y-91052619D01*
X151685955Y-91052619D02*
X151709765Y-91064523D01*
X151709765Y-91064523D02*
X151721670Y-91076428D01*
X151721670Y-91076428D02*
X151733574Y-91100238D01*
X151733574Y-91100238D02*
X151733574Y-91147857D01*
X151733574Y-91147857D02*
X151721670Y-91171666D01*
X151721670Y-91171666D02*
X151709765Y-91183571D01*
X151709765Y-91183571D02*
X151685955Y-91195476D01*
X151685955Y-91195476D02*
X151626431Y-91195476D01*
X151626431Y-91195476D02*
X151602622Y-91183571D01*
X151602622Y-91183571D02*
X151590717Y-91171666D01*
X151590717Y-91171666D02*
X151578812Y-91147857D01*
X151578812Y-91147857D02*
X151578812Y-91100238D01*
X151578812Y-91100238D02*
X151590717Y-91076428D01*
X151590717Y-91076428D02*
X151602622Y-91064523D01*
X151602622Y-91064523D02*
X151626431Y-91052619D01*
D10*
X141214285Y-91204819D02*
X141690475Y-91204819D01*
X141690475Y-91204819D02*
X141738094Y-91681009D01*
X141738094Y-91681009D02*
X141690475Y-91633390D01*
X141690475Y-91633390D02*
X141595237Y-91585771D01*
X141595237Y-91585771D02*
X141357142Y-91585771D01*
X141357142Y-91585771D02*
X141261904Y-91633390D01*
X141261904Y-91633390D02*
X141214285Y-91681009D01*
X141214285Y-91681009D02*
X141166666Y-91776247D01*
X141166666Y-91776247D02*
X141166666Y-92014342D01*
X141166666Y-92014342D02*
X141214285Y-92109580D01*
X141214285Y-92109580D02*
X141261904Y-92157200D01*
X141261904Y-92157200D02*
X141357142Y-92204819D01*
X141357142Y-92204819D02*
X141595237Y-92204819D01*
X141595237Y-92204819D02*
X141690475Y-92157200D01*
X141690475Y-92157200D02*
X141738094Y-92109580D01*
X140309523Y-91204819D02*
X140499999Y-91204819D01*
X140499999Y-91204819D02*
X140595237Y-91252438D01*
X140595237Y-91252438D02*
X140642856Y-91300057D01*
X140642856Y-91300057D02*
X140738094Y-91442914D01*
X140738094Y-91442914D02*
X140785713Y-91633390D01*
X140785713Y-91633390D02*
X140785713Y-92014342D01*
X140785713Y-92014342D02*
X140738094Y-92109580D01*
X140738094Y-92109580D02*
X140690475Y-92157200D01*
X140690475Y-92157200D02*
X140595237Y-92204819D01*
X140595237Y-92204819D02*
X140404761Y-92204819D01*
X140404761Y-92204819D02*
X140309523Y-92157200D01*
X140309523Y-92157200D02*
X140261904Y-92109580D01*
X140261904Y-92109580D02*
X140214285Y-92014342D01*
X140214285Y-92014342D02*
X140214285Y-91776247D01*
X140214285Y-91776247D02*
X140261904Y-91681009D01*
X140261904Y-91681009D02*
X140309523Y-91633390D01*
X140309523Y-91633390D02*
X140404761Y-91585771D01*
X140404761Y-91585771D02*
X140595237Y-91585771D01*
X140595237Y-91585771D02*
X140690475Y-91633390D01*
X140690475Y-91633390D02*
X140738094Y-91681009D01*
X140738094Y-91681009D02*
X140785713Y-91776247D01*
X139595237Y-91204819D02*
X139499999Y-91204819D01*
X139499999Y-91204819D02*
X139404761Y-91252438D01*
X139404761Y-91252438D02*
X139357142Y-91300057D01*
X139357142Y-91300057D02*
X139309523Y-91395295D01*
X139309523Y-91395295D02*
X139261904Y-91585771D01*
X139261904Y-91585771D02*
X139261904Y-91823866D01*
X139261904Y-91823866D02*
X139309523Y-92014342D01*
X139309523Y-92014342D02*
X139357142Y-92109580D01*
X139357142Y-92109580D02*
X139404761Y-92157200D01*
X139404761Y-92157200D02*
X139499999Y-92204819D01*
X139499999Y-92204819D02*
X139595237Y-92204819D01*
X139595237Y-92204819D02*
X139690475Y-92157200D01*
X139690475Y-92157200D02*
X139738094Y-92109580D01*
X139738094Y-92109580D02*
X139785713Y-92014342D01*
X139785713Y-92014342D02*
X139833332Y-91823866D01*
X139833332Y-91823866D02*
X139833332Y-91585771D01*
X139833332Y-91585771D02*
X139785713Y-91395295D01*
X139785713Y-91395295D02*
X139738094Y-91300057D01*
X139738094Y-91300057D02*
X139690475Y-91252438D01*
X139690475Y-91252438D02*
X139595237Y-91204819D01*
D11*
X140541666Y-90133574D02*
X140624999Y-90014527D01*
X140684523Y-90133574D02*
X140684523Y-89883574D01*
X140684523Y-89883574D02*
X140589285Y-89883574D01*
X140589285Y-89883574D02*
X140565475Y-89895479D01*
X140565475Y-89895479D02*
X140553570Y-89907384D01*
X140553570Y-89907384D02*
X140541666Y-89931193D01*
X140541666Y-89931193D02*
X140541666Y-89966908D01*
X140541666Y-89966908D02*
X140553570Y-89990717D01*
X140553570Y-89990717D02*
X140565475Y-90002622D01*
X140565475Y-90002622D02*
X140589285Y-90014527D01*
X140589285Y-90014527D02*
X140684523Y-90014527D01*
X140303570Y-90133574D02*
X140446427Y-90133574D01*
X140374999Y-90133574D02*
X140374999Y-89883574D01*
X140374999Y-89883574D02*
X140398808Y-89919289D01*
X140398808Y-89919289D02*
X140422618Y-89943098D01*
X140422618Y-89943098D02*
X140446427Y-89955003D01*
D10*
X138819047Y-104404819D02*
X139390475Y-104404819D01*
X139104761Y-104404819D02*
X139104761Y-103404819D01*
X139104761Y-103404819D02*
X139199999Y-103547676D01*
X139199999Y-103547676D02*
X139295237Y-103642914D01*
X139295237Y-103642914D02*
X139390475Y-103690533D01*
X137914285Y-103404819D02*
X138390475Y-103404819D01*
X138390475Y-103404819D02*
X138438094Y-103881009D01*
X138438094Y-103881009D02*
X138390475Y-103833390D01*
X138390475Y-103833390D02*
X138295237Y-103785771D01*
X138295237Y-103785771D02*
X138057142Y-103785771D01*
X138057142Y-103785771D02*
X137961904Y-103833390D01*
X137961904Y-103833390D02*
X137914285Y-103881009D01*
X137914285Y-103881009D02*
X137866666Y-103976247D01*
X137866666Y-103976247D02*
X137866666Y-104214342D01*
X137866666Y-104214342D02*
X137914285Y-104309580D01*
X137914285Y-104309580D02*
X137961904Y-104357200D01*
X137961904Y-104357200D02*
X138057142Y-104404819D01*
X138057142Y-104404819D02*
X138295237Y-104404819D01*
X138295237Y-104404819D02*
X138390475Y-104357200D01*
X138390475Y-104357200D02*
X138438094Y-104309580D01*
X137247618Y-103404819D02*
X137152380Y-103404819D01*
X137152380Y-103404819D02*
X137057142Y-103452438D01*
X137057142Y-103452438D02*
X137009523Y-103500057D01*
X137009523Y-103500057D02*
X136961904Y-103595295D01*
X136961904Y-103595295D02*
X136914285Y-103785771D01*
X136914285Y-103785771D02*
X136914285Y-104023866D01*
X136914285Y-104023866D02*
X136961904Y-104214342D01*
X136961904Y-104214342D02*
X137009523Y-104309580D01*
X137009523Y-104309580D02*
X137057142Y-104357200D01*
X137057142Y-104357200D02*
X137152380Y-104404819D01*
X137152380Y-104404819D02*
X137247618Y-104404819D01*
X137247618Y-104404819D02*
X137342856Y-104357200D01*
X137342856Y-104357200D02*
X137390475Y-104309580D01*
X137390475Y-104309580D02*
X137438094Y-104214342D01*
X137438094Y-104214342D02*
X137485713Y-104023866D01*
X137485713Y-104023866D02*
X137485713Y-103785771D01*
X137485713Y-103785771D02*
X137438094Y-103595295D01*
X137438094Y-103595295D02*
X137390475Y-103500057D01*
X137390475Y-103500057D02*
X137342856Y-103452438D01*
X137342856Y-103452438D02*
X137247618Y-103404819D01*
X136485713Y-103738152D02*
X136485713Y-104738152D01*
X136485713Y-103785771D02*
X136390475Y-103738152D01*
X136390475Y-103738152D02*
X136199999Y-103738152D01*
X136199999Y-103738152D02*
X136104761Y-103785771D01*
X136104761Y-103785771D02*
X136057142Y-103833390D01*
X136057142Y-103833390D02*
X136009523Y-103928628D01*
X136009523Y-103928628D02*
X136009523Y-104214342D01*
X136009523Y-104214342D02*
X136057142Y-104309580D01*
X136057142Y-104309580D02*
X136104761Y-104357200D01*
X136104761Y-104357200D02*
X136199999Y-104404819D01*
X136199999Y-104404819D02*
X136390475Y-104404819D01*
X136390475Y-104404819D02*
X136485713Y-104357200D01*
D11*
X137741666Y-105769765D02*
X137753570Y-105781670D01*
X137753570Y-105781670D02*
X137789285Y-105793574D01*
X137789285Y-105793574D02*
X137813094Y-105793574D01*
X137813094Y-105793574D02*
X137848808Y-105781670D01*
X137848808Y-105781670D02*
X137872618Y-105757860D01*
X137872618Y-105757860D02*
X137884523Y-105734050D01*
X137884523Y-105734050D02*
X137896427Y-105686431D01*
X137896427Y-105686431D02*
X137896427Y-105650717D01*
X137896427Y-105650717D02*
X137884523Y-105603098D01*
X137884523Y-105603098D02*
X137872618Y-105579289D01*
X137872618Y-105579289D02*
X137848808Y-105555479D01*
X137848808Y-105555479D02*
X137813094Y-105543574D01*
X137813094Y-105543574D02*
X137789285Y-105543574D01*
X137789285Y-105543574D02*
X137753570Y-105555479D01*
X137753570Y-105555479D02*
X137741666Y-105567384D01*
X137515475Y-105543574D02*
X137634523Y-105543574D01*
X137634523Y-105543574D02*
X137646427Y-105662622D01*
X137646427Y-105662622D02*
X137634523Y-105650717D01*
X137634523Y-105650717D02*
X137610713Y-105638812D01*
X137610713Y-105638812D02*
X137551189Y-105638812D01*
X137551189Y-105638812D02*
X137527380Y-105650717D01*
X137527380Y-105650717D02*
X137515475Y-105662622D01*
X137515475Y-105662622D02*
X137503570Y-105686431D01*
X137503570Y-105686431D02*
X137503570Y-105745955D01*
X137503570Y-105745955D02*
X137515475Y-105769765D01*
X137515475Y-105769765D02*
X137527380Y-105781670D01*
X137527380Y-105781670D02*
X137551189Y-105793574D01*
X137551189Y-105793574D02*
X137610713Y-105793574D01*
X137610713Y-105793574D02*
X137634523Y-105781670D01*
X137634523Y-105781670D02*
X137646427Y-105769765D01*
D10*
X144600057Y-101285714D02*
X144552438Y-101333333D01*
X144552438Y-101333333D02*
X144504819Y-101428571D01*
X144504819Y-101428571D02*
X144504819Y-101666666D01*
X144504819Y-101666666D02*
X144552438Y-101761904D01*
X144552438Y-101761904D02*
X144600057Y-101809523D01*
X144600057Y-101809523D02*
X144695295Y-101857142D01*
X144695295Y-101857142D02*
X144790533Y-101857142D01*
X144790533Y-101857142D02*
X144933390Y-101809523D01*
X144933390Y-101809523D02*
X145504819Y-101238095D01*
X145504819Y-101238095D02*
X145504819Y-101857142D01*
X144504819Y-102190476D02*
X144504819Y-102857142D01*
X144504819Y-102857142D02*
X145504819Y-102428571D01*
X144838152Y-103238095D02*
X145838152Y-103238095D01*
X144885771Y-103238095D02*
X144838152Y-103333333D01*
X144838152Y-103333333D02*
X144838152Y-103523809D01*
X144838152Y-103523809D02*
X144885771Y-103619047D01*
X144885771Y-103619047D02*
X144933390Y-103666666D01*
X144933390Y-103666666D02*
X145028628Y-103714285D01*
X145028628Y-103714285D02*
X145314342Y-103714285D01*
X145314342Y-103714285D02*
X145409580Y-103666666D01*
X145409580Y-103666666D02*
X145457200Y-103619047D01*
X145457200Y-103619047D02*
X145504819Y-103523809D01*
X145504819Y-103523809D02*
X145504819Y-103333333D01*
X145504819Y-103333333D02*
X145457200Y-103238095D01*
D11*
X146869765Y-102339285D02*
X146881670Y-102327381D01*
X146881670Y-102327381D02*
X146893574Y-102291666D01*
X146893574Y-102291666D02*
X146893574Y-102267857D01*
X146893574Y-102267857D02*
X146881670Y-102232143D01*
X146881670Y-102232143D02*
X146857860Y-102208333D01*
X146857860Y-102208333D02*
X146834050Y-102196428D01*
X146834050Y-102196428D02*
X146786431Y-102184524D01*
X146786431Y-102184524D02*
X146750717Y-102184524D01*
X146750717Y-102184524D02*
X146703098Y-102196428D01*
X146703098Y-102196428D02*
X146679289Y-102208333D01*
X146679289Y-102208333D02*
X146655479Y-102232143D01*
X146655479Y-102232143D02*
X146643574Y-102267857D01*
X146643574Y-102267857D02*
X146643574Y-102291666D01*
X146643574Y-102291666D02*
X146655479Y-102327381D01*
X146655479Y-102327381D02*
X146667384Y-102339285D01*
X146893574Y-102577381D02*
X146893574Y-102434524D01*
X146893574Y-102505952D02*
X146643574Y-102505952D01*
X146643574Y-102505952D02*
X146679289Y-102482143D01*
X146679289Y-102482143D02*
X146703098Y-102458333D01*
X146703098Y-102458333D02*
X146715003Y-102434524D01*
X146643574Y-102803571D02*
X146643574Y-102684523D01*
X146643574Y-102684523D02*
X146762622Y-102672619D01*
X146762622Y-102672619D02*
X146750717Y-102684523D01*
X146750717Y-102684523D02*
X146738812Y-102708333D01*
X146738812Y-102708333D02*
X146738812Y-102767857D01*
X146738812Y-102767857D02*
X146750717Y-102791666D01*
X146750717Y-102791666D02*
X146762622Y-102803571D01*
X146762622Y-102803571D02*
X146786431Y-102815476D01*
X146786431Y-102815476D02*
X146845955Y-102815476D01*
X146845955Y-102815476D02*
X146869765Y-102803571D01*
X146869765Y-102803571D02*
X146881670Y-102791666D01*
X146881670Y-102791666D02*
X146893574Y-102767857D01*
X146893574Y-102767857D02*
X146893574Y-102708333D01*
X146893574Y-102708333D02*
X146881670Y-102684523D01*
X146881670Y-102684523D02*
X146869765Y-102672619D01*
D10*
X151038152Y-94989523D02*
X151704819Y-94989523D01*
X150657200Y-94751428D02*
X151371485Y-94513333D01*
X151371485Y-94513333D02*
X151371485Y-95132380D01*
X151704819Y-95513333D02*
X150704819Y-95513333D01*
X151323866Y-95608571D02*
X151704819Y-95894285D01*
X151038152Y-95894285D02*
X151419104Y-95513333D01*
X150704819Y-96227619D02*
X150704819Y-96894285D01*
X150704819Y-96894285D02*
X151704819Y-96465714D01*
D11*
X153093574Y-95519285D02*
X152974527Y-95435952D01*
X153093574Y-95376428D02*
X152843574Y-95376428D01*
X152843574Y-95376428D02*
X152843574Y-95471666D01*
X152843574Y-95471666D02*
X152855479Y-95495476D01*
X152855479Y-95495476D02*
X152867384Y-95507381D01*
X152867384Y-95507381D02*
X152891193Y-95519285D01*
X152891193Y-95519285D02*
X152926908Y-95519285D01*
X152926908Y-95519285D02*
X152950717Y-95507381D01*
X152950717Y-95507381D02*
X152962622Y-95495476D01*
X152962622Y-95495476D02*
X152974527Y-95471666D01*
X152974527Y-95471666D02*
X152974527Y-95376428D01*
X153093574Y-95757381D02*
X153093574Y-95614524D01*
X153093574Y-95685952D02*
X152843574Y-95685952D01*
X152843574Y-95685952D02*
X152879289Y-95662143D01*
X152879289Y-95662143D02*
X152903098Y-95638333D01*
X152903098Y-95638333D02*
X152915003Y-95614524D01*
X153093574Y-95995476D02*
X153093574Y-95852619D01*
X153093574Y-95924047D02*
X152843574Y-95924047D01*
X152843574Y-95924047D02*
X152879289Y-95900238D01*
X152879289Y-95900238D02*
X152903098Y-95876428D01*
X152903098Y-95876428D02*
X152915003Y-95852619D01*
D10*
X138414285Y-101404819D02*
X138890475Y-101404819D01*
X138890475Y-101404819D02*
X138938094Y-101881009D01*
X138938094Y-101881009D02*
X138890475Y-101833390D01*
X138890475Y-101833390D02*
X138795237Y-101785771D01*
X138795237Y-101785771D02*
X138557142Y-101785771D01*
X138557142Y-101785771D02*
X138461904Y-101833390D01*
X138461904Y-101833390D02*
X138414285Y-101881009D01*
X138414285Y-101881009D02*
X138366666Y-101976247D01*
X138366666Y-101976247D02*
X138366666Y-102214342D01*
X138366666Y-102214342D02*
X138414285Y-102309580D01*
X138414285Y-102309580D02*
X138461904Y-102357200D01*
X138461904Y-102357200D02*
X138557142Y-102404819D01*
X138557142Y-102404819D02*
X138795237Y-102404819D01*
X138795237Y-102404819D02*
X138890475Y-102357200D01*
X138890475Y-102357200D02*
X138938094Y-102309580D01*
X137509523Y-101404819D02*
X137699999Y-101404819D01*
X137699999Y-101404819D02*
X137795237Y-101452438D01*
X137795237Y-101452438D02*
X137842856Y-101500057D01*
X137842856Y-101500057D02*
X137938094Y-101642914D01*
X137938094Y-101642914D02*
X137985713Y-101833390D01*
X137985713Y-101833390D02*
X137985713Y-102214342D01*
X137985713Y-102214342D02*
X137938094Y-102309580D01*
X137938094Y-102309580D02*
X137890475Y-102357200D01*
X137890475Y-102357200D02*
X137795237Y-102404819D01*
X137795237Y-102404819D02*
X137604761Y-102404819D01*
X137604761Y-102404819D02*
X137509523Y-102357200D01*
X137509523Y-102357200D02*
X137461904Y-102309580D01*
X137461904Y-102309580D02*
X137414285Y-102214342D01*
X137414285Y-102214342D02*
X137414285Y-101976247D01*
X137414285Y-101976247D02*
X137461904Y-101881009D01*
X137461904Y-101881009D02*
X137509523Y-101833390D01*
X137509523Y-101833390D02*
X137604761Y-101785771D01*
X137604761Y-101785771D02*
X137795237Y-101785771D01*
X137795237Y-101785771D02*
X137890475Y-101833390D01*
X137890475Y-101833390D02*
X137938094Y-101881009D01*
X137938094Y-101881009D02*
X137985713Y-101976247D01*
X136795237Y-101404819D02*
X136699999Y-101404819D01*
X136699999Y-101404819D02*
X136604761Y-101452438D01*
X136604761Y-101452438D02*
X136557142Y-101500057D01*
X136557142Y-101500057D02*
X136509523Y-101595295D01*
X136509523Y-101595295D02*
X136461904Y-101785771D01*
X136461904Y-101785771D02*
X136461904Y-102023866D01*
X136461904Y-102023866D02*
X136509523Y-102214342D01*
X136509523Y-102214342D02*
X136557142Y-102309580D01*
X136557142Y-102309580D02*
X136604761Y-102357200D01*
X136604761Y-102357200D02*
X136699999Y-102404819D01*
X136699999Y-102404819D02*
X136795237Y-102404819D01*
X136795237Y-102404819D02*
X136890475Y-102357200D01*
X136890475Y-102357200D02*
X136938094Y-102309580D01*
X136938094Y-102309580D02*
X136985713Y-102214342D01*
X136985713Y-102214342D02*
X137033332Y-102023866D01*
X137033332Y-102023866D02*
X137033332Y-101785771D01*
X137033332Y-101785771D02*
X136985713Y-101595295D01*
X136985713Y-101595295D02*
X136938094Y-101500057D01*
X136938094Y-101500057D02*
X136890475Y-101452438D01*
X136890475Y-101452438D02*
X136795237Y-101404819D01*
D11*
X137741666Y-103793574D02*
X137824999Y-103674527D01*
X137884523Y-103793574D02*
X137884523Y-103543574D01*
X137884523Y-103543574D02*
X137789285Y-103543574D01*
X137789285Y-103543574D02*
X137765475Y-103555479D01*
X137765475Y-103555479D02*
X137753570Y-103567384D01*
X137753570Y-103567384D02*
X137741666Y-103591193D01*
X137741666Y-103591193D02*
X137741666Y-103626908D01*
X137741666Y-103626908D02*
X137753570Y-103650717D01*
X137753570Y-103650717D02*
X137765475Y-103662622D01*
X137765475Y-103662622D02*
X137789285Y-103674527D01*
X137789285Y-103674527D02*
X137884523Y-103674527D01*
X137527380Y-103543574D02*
X137574999Y-103543574D01*
X137574999Y-103543574D02*
X137598808Y-103555479D01*
X137598808Y-103555479D02*
X137610713Y-103567384D01*
X137610713Y-103567384D02*
X137634523Y-103603098D01*
X137634523Y-103603098D02*
X137646427Y-103650717D01*
X137646427Y-103650717D02*
X137646427Y-103745955D01*
X137646427Y-103745955D02*
X137634523Y-103769765D01*
X137634523Y-103769765D02*
X137622618Y-103781670D01*
X137622618Y-103781670D02*
X137598808Y-103793574D01*
X137598808Y-103793574D02*
X137551189Y-103793574D01*
X137551189Y-103793574D02*
X137527380Y-103781670D01*
X137527380Y-103781670D02*
X137515475Y-103769765D01*
X137515475Y-103769765D02*
X137503570Y-103745955D01*
X137503570Y-103745955D02*
X137503570Y-103686431D01*
X137503570Y-103686431D02*
X137515475Y-103662622D01*
X137515475Y-103662622D02*
X137527380Y-103650717D01*
X137527380Y-103650717D02*
X137551189Y-103638812D01*
X137551189Y-103638812D02*
X137598808Y-103638812D01*
X137598808Y-103638812D02*
X137622618Y-103650717D01*
X137622618Y-103650717D02*
X137634523Y-103662622D01*
X137634523Y-103662622D02*
X137646427Y-103686431D01*
D10*
X140104819Y-81757142D02*
X140104819Y-81185714D01*
X140104819Y-81471428D02*
X139104819Y-81471428D01*
X139104819Y-81471428D02*
X139247676Y-81376190D01*
X139247676Y-81376190D02*
X139342914Y-81280952D01*
X139342914Y-81280952D02*
X139390533Y-81185714D01*
X139104819Y-82376190D02*
X139104819Y-82471428D01*
X139104819Y-82471428D02*
X139152438Y-82566666D01*
X139152438Y-82566666D02*
X139200057Y-82614285D01*
X139200057Y-82614285D02*
X139295295Y-82661904D01*
X139295295Y-82661904D02*
X139485771Y-82709523D01*
X139485771Y-82709523D02*
X139723866Y-82709523D01*
X139723866Y-82709523D02*
X139914342Y-82661904D01*
X139914342Y-82661904D02*
X140009580Y-82614285D01*
X140009580Y-82614285D02*
X140057200Y-82566666D01*
X140057200Y-82566666D02*
X140104819Y-82471428D01*
X140104819Y-82471428D02*
X140104819Y-82376190D01*
X140104819Y-82376190D02*
X140057200Y-82280952D01*
X140057200Y-82280952D02*
X140009580Y-82233333D01*
X140009580Y-82233333D02*
X139914342Y-82185714D01*
X139914342Y-82185714D02*
X139723866Y-82138095D01*
X139723866Y-82138095D02*
X139485771Y-82138095D01*
X139485771Y-82138095D02*
X139295295Y-82185714D01*
X139295295Y-82185714D02*
X139200057Y-82233333D01*
X139200057Y-82233333D02*
X139152438Y-82280952D01*
X139152438Y-82280952D02*
X139104819Y-82376190D01*
X139438152Y-83566666D02*
X140104819Y-83566666D01*
X139438152Y-83138095D02*
X139961961Y-83138095D01*
X139961961Y-83138095D02*
X140057200Y-83185714D01*
X140057200Y-83185714D02*
X140104819Y-83280952D01*
X140104819Y-83280952D02*
X140104819Y-83423809D01*
X140104819Y-83423809D02*
X140057200Y-83519047D01*
X140057200Y-83519047D02*
X140009580Y-83566666D01*
D11*
X138009765Y-82358333D02*
X138021670Y-82346429D01*
X138021670Y-82346429D02*
X138033574Y-82310714D01*
X138033574Y-82310714D02*
X138033574Y-82286905D01*
X138033574Y-82286905D02*
X138021670Y-82251191D01*
X138021670Y-82251191D02*
X137997860Y-82227381D01*
X137997860Y-82227381D02*
X137974050Y-82215476D01*
X137974050Y-82215476D02*
X137926431Y-82203572D01*
X137926431Y-82203572D02*
X137890717Y-82203572D01*
X137890717Y-82203572D02*
X137843098Y-82215476D01*
X137843098Y-82215476D02*
X137819289Y-82227381D01*
X137819289Y-82227381D02*
X137795479Y-82251191D01*
X137795479Y-82251191D02*
X137783574Y-82286905D01*
X137783574Y-82286905D02*
X137783574Y-82310714D01*
X137783574Y-82310714D02*
X137795479Y-82346429D01*
X137795479Y-82346429D02*
X137807384Y-82358333D01*
X137890717Y-82501191D02*
X137878812Y-82477381D01*
X137878812Y-82477381D02*
X137866908Y-82465476D01*
X137866908Y-82465476D02*
X137843098Y-82453572D01*
X137843098Y-82453572D02*
X137831193Y-82453572D01*
X137831193Y-82453572D02*
X137807384Y-82465476D01*
X137807384Y-82465476D02*
X137795479Y-82477381D01*
X137795479Y-82477381D02*
X137783574Y-82501191D01*
X137783574Y-82501191D02*
X137783574Y-82548810D01*
X137783574Y-82548810D02*
X137795479Y-82572619D01*
X137795479Y-82572619D02*
X137807384Y-82584524D01*
X137807384Y-82584524D02*
X137831193Y-82596429D01*
X137831193Y-82596429D02*
X137843098Y-82596429D01*
X137843098Y-82596429D02*
X137866908Y-82584524D01*
X137866908Y-82584524D02*
X137878812Y-82572619D01*
X137878812Y-82572619D02*
X137890717Y-82548810D01*
X137890717Y-82548810D02*
X137890717Y-82501191D01*
X137890717Y-82501191D02*
X137902622Y-82477381D01*
X137902622Y-82477381D02*
X137914527Y-82465476D01*
X137914527Y-82465476D02*
X137938336Y-82453572D01*
X137938336Y-82453572D02*
X137985955Y-82453572D01*
X137985955Y-82453572D02*
X138009765Y-82465476D01*
X138009765Y-82465476D02*
X138021670Y-82477381D01*
X138021670Y-82477381D02*
X138033574Y-82501191D01*
X138033574Y-82501191D02*
X138033574Y-82548810D01*
X138033574Y-82548810D02*
X138021670Y-82572619D01*
X138021670Y-82572619D02*
X138009765Y-82584524D01*
X138009765Y-82584524D02*
X137985955Y-82596429D01*
X137985955Y-82596429D02*
X137938336Y-82596429D01*
X137938336Y-82596429D02*
X137914527Y-82584524D01*
X137914527Y-82584524D02*
X137902622Y-82572619D01*
X137902622Y-82572619D02*
X137890717Y-82548810D01*
D10*
X138414285Y-94004819D02*
X138890475Y-94004819D01*
X138890475Y-94004819D02*
X138938094Y-94481009D01*
X138938094Y-94481009D02*
X138890475Y-94433390D01*
X138890475Y-94433390D02*
X138795237Y-94385771D01*
X138795237Y-94385771D02*
X138557142Y-94385771D01*
X138557142Y-94385771D02*
X138461904Y-94433390D01*
X138461904Y-94433390D02*
X138414285Y-94481009D01*
X138414285Y-94481009D02*
X138366666Y-94576247D01*
X138366666Y-94576247D02*
X138366666Y-94814342D01*
X138366666Y-94814342D02*
X138414285Y-94909580D01*
X138414285Y-94909580D02*
X138461904Y-94957200D01*
X138461904Y-94957200D02*
X138557142Y-95004819D01*
X138557142Y-95004819D02*
X138795237Y-95004819D01*
X138795237Y-95004819D02*
X138890475Y-94957200D01*
X138890475Y-94957200D02*
X138938094Y-94909580D01*
X137509523Y-94004819D02*
X137699999Y-94004819D01*
X137699999Y-94004819D02*
X137795237Y-94052438D01*
X137795237Y-94052438D02*
X137842856Y-94100057D01*
X137842856Y-94100057D02*
X137938094Y-94242914D01*
X137938094Y-94242914D02*
X137985713Y-94433390D01*
X137985713Y-94433390D02*
X137985713Y-94814342D01*
X137985713Y-94814342D02*
X137938094Y-94909580D01*
X137938094Y-94909580D02*
X137890475Y-94957200D01*
X137890475Y-94957200D02*
X137795237Y-95004819D01*
X137795237Y-95004819D02*
X137604761Y-95004819D01*
X137604761Y-95004819D02*
X137509523Y-94957200D01*
X137509523Y-94957200D02*
X137461904Y-94909580D01*
X137461904Y-94909580D02*
X137414285Y-94814342D01*
X137414285Y-94814342D02*
X137414285Y-94576247D01*
X137414285Y-94576247D02*
X137461904Y-94481009D01*
X137461904Y-94481009D02*
X137509523Y-94433390D01*
X137509523Y-94433390D02*
X137604761Y-94385771D01*
X137604761Y-94385771D02*
X137795237Y-94385771D01*
X137795237Y-94385771D02*
X137890475Y-94433390D01*
X137890475Y-94433390D02*
X137938094Y-94481009D01*
X137938094Y-94481009D02*
X137985713Y-94576247D01*
X136795237Y-94004819D02*
X136699999Y-94004819D01*
X136699999Y-94004819D02*
X136604761Y-94052438D01*
X136604761Y-94052438D02*
X136557142Y-94100057D01*
X136557142Y-94100057D02*
X136509523Y-94195295D01*
X136509523Y-94195295D02*
X136461904Y-94385771D01*
X136461904Y-94385771D02*
X136461904Y-94623866D01*
X136461904Y-94623866D02*
X136509523Y-94814342D01*
X136509523Y-94814342D02*
X136557142Y-94909580D01*
X136557142Y-94909580D02*
X136604761Y-94957200D01*
X136604761Y-94957200D02*
X136699999Y-95004819D01*
X136699999Y-95004819D02*
X136795237Y-95004819D01*
X136795237Y-95004819D02*
X136890475Y-94957200D01*
X136890475Y-94957200D02*
X136938094Y-94909580D01*
X136938094Y-94909580D02*
X136985713Y-94814342D01*
X136985713Y-94814342D02*
X137033332Y-94623866D01*
X137033332Y-94623866D02*
X137033332Y-94385771D01*
X137033332Y-94385771D02*
X136985713Y-94195295D01*
X136985713Y-94195295D02*
X136938094Y-94100057D01*
X136938094Y-94100057D02*
X136890475Y-94052438D01*
X136890475Y-94052438D02*
X136795237Y-94004819D01*
D11*
X137741666Y-92933574D02*
X137824999Y-92814527D01*
X137884523Y-92933574D02*
X137884523Y-92683574D01*
X137884523Y-92683574D02*
X137789285Y-92683574D01*
X137789285Y-92683574D02*
X137765475Y-92695479D01*
X137765475Y-92695479D02*
X137753570Y-92707384D01*
X137753570Y-92707384D02*
X137741666Y-92731193D01*
X137741666Y-92731193D02*
X137741666Y-92766908D01*
X137741666Y-92766908D02*
X137753570Y-92790717D01*
X137753570Y-92790717D02*
X137765475Y-92802622D01*
X137765475Y-92802622D02*
X137789285Y-92814527D01*
X137789285Y-92814527D02*
X137884523Y-92814527D01*
X137658332Y-92683574D02*
X137503570Y-92683574D01*
X137503570Y-92683574D02*
X137586904Y-92778812D01*
X137586904Y-92778812D02*
X137551189Y-92778812D01*
X137551189Y-92778812D02*
X137527380Y-92790717D01*
X137527380Y-92790717D02*
X137515475Y-92802622D01*
X137515475Y-92802622D02*
X137503570Y-92826431D01*
X137503570Y-92826431D02*
X137503570Y-92885955D01*
X137503570Y-92885955D02*
X137515475Y-92909765D01*
X137515475Y-92909765D02*
X137527380Y-92921670D01*
X137527380Y-92921670D02*
X137551189Y-92933574D01*
X137551189Y-92933574D02*
X137622618Y-92933574D01*
X137622618Y-92933574D02*
X137646427Y-92921670D01*
X137646427Y-92921670D02*
X137658332Y-92909765D01*
D10*
X138819047Y-94204819D02*
X139390475Y-94204819D01*
X139104761Y-94204819D02*
X139104761Y-93204819D01*
X139104761Y-93204819D02*
X139199999Y-93347676D01*
X139199999Y-93347676D02*
X139295237Y-93442914D01*
X139295237Y-93442914D02*
X139390475Y-93490533D01*
X137914285Y-93204819D02*
X138390475Y-93204819D01*
X138390475Y-93204819D02*
X138438094Y-93681009D01*
X138438094Y-93681009D02*
X138390475Y-93633390D01*
X138390475Y-93633390D02*
X138295237Y-93585771D01*
X138295237Y-93585771D02*
X138057142Y-93585771D01*
X138057142Y-93585771D02*
X137961904Y-93633390D01*
X137961904Y-93633390D02*
X137914285Y-93681009D01*
X137914285Y-93681009D02*
X137866666Y-93776247D01*
X137866666Y-93776247D02*
X137866666Y-94014342D01*
X137866666Y-94014342D02*
X137914285Y-94109580D01*
X137914285Y-94109580D02*
X137961904Y-94157200D01*
X137961904Y-94157200D02*
X138057142Y-94204819D01*
X138057142Y-94204819D02*
X138295237Y-94204819D01*
X138295237Y-94204819D02*
X138390475Y-94157200D01*
X138390475Y-94157200D02*
X138438094Y-94109580D01*
X137247618Y-93204819D02*
X137152380Y-93204819D01*
X137152380Y-93204819D02*
X137057142Y-93252438D01*
X137057142Y-93252438D02*
X137009523Y-93300057D01*
X137009523Y-93300057D02*
X136961904Y-93395295D01*
X136961904Y-93395295D02*
X136914285Y-93585771D01*
X136914285Y-93585771D02*
X136914285Y-93823866D01*
X136914285Y-93823866D02*
X136961904Y-94014342D01*
X136961904Y-94014342D02*
X137009523Y-94109580D01*
X137009523Y-94109580D02*
X137057142Y-94157200D01*
X137057142Y-94157200D02*
X137152380Y-94204819D01*
X137152380Y-94204819D02*
X137247618Y-94204819D01*
X137247618Y-94204819D02*
X137342856Y-94157200D01*
X137342856Y-94157200D02*
X137390475Y-94109580D01*
X137390475Y-94109580D02*
X137438094Y-94014342D01*
X137438094Y-94014342D02*
X137485713Y-93823866D01*
X137485713Y-93823866D02*
X137485713Y-93585771D01*
X137485713Y-93585771D02*
X137438094Y-93395295D01*
X137438094Y-93395295D02*
X137390475Y-93300057D01*
X137390475Y-93300057D02*
X137342856Y-93252438D01*
X137342856Y-93252438D02*
X137247618Y-93204819D01*
X136485713Y-93538152D02*
X136485713Y-94538152D01*
X136485713Y-93585771D02*
X136390475Y-93538152D01*
X136390475Y-93538152D02*
X136199999Y-93538152D01*
X136199999Y-93538152D02*
X136104761Y-93585771D01*
X136104761Y-93585771D02*
X136057142Y-93633390D01*
X136057142Y-93633390D02*
X136009523Y-93728628D01*
X136009523Y-93728628D02*
X136009523Y-94014342D01*
X136009523Y-94014342D02*
X136057142Y-94109580D01*
X136057142Y-94109580D02*
X136104761Y-94157200D01*
X136104761Y-94157200D02*
X136199999Y-94204819D01*
X136199999Y-94204819D02*
X136390475Y-94204819D01*
X136390475Y-94204819D02*
X136485713Y-94157200D01*
D11*
X137741666Y-92109765D02*
X137753570Y-92121670D01*
X137753570Y-92121670D02*
X137789285Y-92133574D01*
X137789285Y-92133574D02*
X137813094Y-92133574D01*
X137813094Y-92133574D02*
X137848808Y-92121670D01*
X137848808Y-92121670D02*
X137872618Y-92097860D01*
X137872618Y-92097860D02*
X137884523Y-92074050D01*
X137884523Y-92074050D02*
X137896427Y-92026431D01*
X137896427Y-92026431D02*
X137896427Y-91990717D01*
X137896427Y-91990717D02*
X137884523Y-91943098D01*
X137884523Y-91943098D02*
X137872618Y-91919289D01*
X137872618Y-91919289D02*
X137848808Y-91895479D01*
X137848808Y-91895479D02*
X137813094Y-91883574D01*
X137813094Y-91883574D02*
X137789285Y-91883574D01*
X137789285Y-91883574D02*
X137753570Y-91895479D01*
X137753570Y-91895479D02*
X137741666Y-91907384D01*
X137658332Y-91883574D02*
X137503570Y-91883574D01*
X137503570Y-91883574D02*
X137586904Y-91978812D01*
X137586904Y-91978812D02*
X137551189Y-91978812D01*
X137551189Y-91978812D02*
X137527380Y-91990717D01*
X137527380Y-91990717D02*
X137515475Y-92002622D01*
X137515475Y-92002622D02*
X137503570Y-92026431D01*
X137503570Y-92026431D02*
X137503570Y-92085955D01*
X137503570Y-92085955D02*
X137515475Y-92109765D01*
X137515475Y-92109765D02*
X137527380Y-92121670D01*
X137527380Y-92121670D02*
X137551189Y-92133574D01*
X137551189Y-92133574D02*
X137622618Y-92133574D01*
X137622618Y-92133574D02*
X137646427Y-92121670D01*
X137646427Y-92121670D02*
X137658332Y-92109765D01*
D10*
X141619047Y-94204819D02*
X142190475Y-94204819D01*
X141904761Y-94204819D02*
X141904761Y-93204819D01*
X141904761Y-93204819D02*
X141999999Y-93347676D01*
X141999999Y-93347676D02*
X142095237Y-93442914D01*
X142095237Y-93442914D02*
X142190475Y-93490533D01*
X140714285Y-93204819D02*
X141190475Y-93204819D01*
X141190475Y-93204819D02*
X141238094Y-93681009D01*
X141238094Y-93681009D02*
X141190475Y-93633390D01*
X141190475Y-93633390D02*
X141095237Y-93585771D01*
X141095237Y-93585771D02*
X140857142Y-93585771D01*
X140857142Y-93585771D02*
X140761904Y-93633390D01*
X140761904Y-93633390D02*
X140714285Y-93681009D01*
X140714285Y-93681009D02*
X140666666Y-93776247D01*
X140666666Y-93776247D02*
X140666666Y-94014342D01*
X140666666Y-94014342D02*
X140714285Y-94109580D01*
X140714285Y-94109580D02*
X140761904Y-94157200D01*
X140761904Y-94157200D02*
X140857142Y-94204819D01*
X140857142Y-94204819D02*
X141095237Y-94204819D01*
X141095237Y-94204819D02*
X141190475Y-94157200D01*
X141190475Y-94157200D02*
X141238094Y-94109580D01*
X140047618Y-93204819D02*
X139952380Y-93204819D01*
X139952380Y-93204819D02*
X139857142Y-93252438D01*
X139857142Y-93252438D02*
X139809523Y-93300057D01*
X139809523Y-93300057D02*
X139761904Y-93395295D01*
X139761904Y-93395295D02*
X139714285Y-93585771D01*
X139714285Y-93585771D02*
X139714285Y-93823866D01*
X139714285Y-93823866D02*
X139761904Y-94014342D01*
X139761904Y-94014342D02*
X139809523Y-94109580D01*
X139809523Y-94109580D02*
X139857142Y-94157200D01*
X139857142Y-94157200D02*
X139952380Y-94204819D01*
X139952380Y-94204819D02*
X140047618Y-94204819D01*
X140047618Y-94204819D02*
X140142856Y-94157200D01*
X140142856Y-94157200D02*
X140190475Y-94109580D01*
X140190475Y-94109580D02*
X140238094Y-94014342D01*
X140238094Y-94014342D02*
X140285713Y-93823866D01*
X140285713Y-93823866D02*
X140285713Y-93585771D01*
X140285713Y-93585771D02*
X140238094Y-93395295D01*
X140238094Y-93395295D02*
X140190475Y-93300057D01*
X140190475Y-93300057D02*
X140142856Y-93252438D01*
X140142856Y-93252438D02*
X140047618Y-93204819D01*
X139285713Y-93538152D02*
X139285713Y-94538152D01*
X139285713Y-93585771D02*
X139190475Y-93538152D01*
X139190475Y-93538152D02*
X138999999Y-93538152D01*
X138999999Y-93538152D02*
X138904761Y-93585771D01*
X138904761Y-93585771D02*
X138857142Y-93633390D01*
X138857142Y-93633390D02*
X138809523Y-93728628D01*
X138809523Y-93728628D02*
X138809523Y-94014342D01*
X138809523Y-94014342D02*
X138857142Y-94109580D01*
X138857142Y-94109580D02*
X138904761Y-94157200D01*
X138904761Y-94157200D02*
X138999999Y-94204819D01*
X138999999Y-94204819D02*
X139190475Y-94204819D01*
X139190475Y-94204819D02*
X139285713Y-94157200D01*
D11*
X140541666Y-92109765D02*
X140553570Y-92121670D01*
X140553570Y-92121670D02*
X140589285Y-92133574D01*
X140589285Y-92133574D02*
X140613094Y-92133574D01*
X140613094Y-92133574D02*
X140648808Y-92121670D01*
X140648808Y-92121670D02*
X140672618Y-92097860D01*
X140672618Y-92097860D02*
X140684523Y-92074050D01*
X140684523Y-92074050D02*
X140696427Y-92026431D01*
X140696427Y-92026431D02*
X140696427Y-91990717D01*
X140696427Y-91990717D02*
X140684523Y-91943098D01*
X140684523Y-91943098D02*
X140672618Y-91919289D01*
X140672618Y-91919289D02*
X140648808Y-91895479D01*
X140648808Y-91895479D02*
X140613094Y-91883574D01*
X140613094Y-91883574D02*
X140589285Y-91883574D01*
X140589285Y-91883574D02*
X140553570Y-91895479D01*
X140553570Y-91895479D02*
X140541666Y-91907384D01*
X140327380Y-91966908D02*
X140327380Y-92133574D01*
X140386904Y-91871670D02*
X140446427Y-92050241D01*
X140446427Y-92050241D02*
X140291666Y-92050241D01*
D10*
X151038152Y-96589523D02*
X151704819Y-96589523D01*
X150657200Y-96351428D02*
X151371485Y-96113333D01*
X151371485Y-96113333D02*
X151371485Y-96732380D01*
X151704819Y-97113333D02*
X150704819Y-97113333D01*
X151323866Y-97208571D02*
X151704819Y-97494285D01*
X151038152Y-97494285D02*
X151419104Y-97113333D01*
X150704819Y-97827619D02*
X150704819Y-98494285D01*
X150704819Y-98494285D02*
X151704819Y-98065714D01*
D11*
X153093574Y-97119285D02*
X152974527Y-97035952D01*
X153093574Y-96976428D02*
X152843574Y-96976428D01*
X152843574Y-96976428D02*
X152843574Y-97071666D01*
X152843574Y-97071666D02*
X152855479Y-97095476D01*
X152855479Y-97095476D02*
X152867384Y-97107381D01*
X152867384Y-97107381D02*
X152891193Y-97119285D01*
X152891193Y-97119285D02*
X152926908Y-97119285D01*
X152926908Y-97119285D02*
X152950717Y-97107381D01*
X152950717Y-97107381D02*
X152962622Y-97095476D01*
X152962622Y-97095476D02*
X152974527Y-97071666D01*
X152974527Y-97071666D02*
X152974527Y-96976428D01*
X153093574Y-97357381D02*
X153093574Y-97214524D01*
X153093574Y-97285952D02*
X152843574Y-97285952D01*
X152843574Y-97285952D02*
X152879289Y-97262143D01*
X152879289Y-97262143D02*
X152903098Y-97238333D01*
X152903098Y-97238333D02*
X152915003Y-97214524D01*
X152867384Y-97452619D02*
X152855479Y-97464523D01*
X152855479Y-97464523D02*
X152843574Y-97488333D01*
X152843574Y-97488333D02*
X152843574Y-97547857D01*
X152843574Y-97547857D02*
X152855479Y-97571666D01*
X152855479Y-97571666D02*
X152867384Y-97583571D01*
X152867384Y-97583571D02*
X152891193Y-97595476D01*
X152891193Y-97595476D02*
X152915003Y-97595476D01*
X152915003Y-97595476D02*
X152950717Y-97583571D01*
X152950717Y-97583571D02*
X153093574Y-97440714D01*
X153093574Y-97440714D02*
X153093574Y-97595476D01*
D10*
X171929819Y-88035714D02*
X170929819Y-88035714D01*
X170929819Y-88035714D02*
X171644104Y-88369047D01*
X171644104Y-88369047D02*
X170929819Y-88702380D01*
X170929819Y-88702380D02*
X171929819Y-88702380D01*
X171929819Y-89178571D02*
X171263152Y-89178571D01*
X170929819Y-89178571D02*
X170977438Y-89130952D01*
X170977438Y-89130952D02*
X171025057Y-89178571D01*
X171025057Y-89178571D02*
X170977438Y-89226190D01*
X170977438Y-89226190D02*
X170929819Y-89178571D01*
X170929819Y-89178571D02*
X171025057Y-89178571D01*
X171882200Y-90083332D02*
X171929819Y-89988094D01*
X171929819Y-89988094D02*
X171929819Y-89797618D01*
X171929819Y-89797618D02*
X171882200Y-89702380D01*
X171882200Y-89702380D02*
X171834580Y-89654761D01*
X171834580Y-89654761D02*
X171739342Y-89607142D01*
X171739342Y-89607142D02*
X171453628Y-89607142D01*
X171453628Y-89607142D02*
X171358390Y-89654761D01*
X171358390Y-89654761D02*
X171310771Y-89702380D01*
X171310771Y-89702380D02*
X171263152Y-89797618D01*
X171263152Y-89797618D02*
X171263152Y-89988094D01*
X171263152Y-89988094D02*
X171310771Y-90083332D01*
X171929819Y-90511904D02*
X171263152Y-90511904D01*
X171453628Y-90511904D02*
X171358390Y-90559523D01*
X171358390Y-90559523D02*
X171310771Y-90607142D01*
X171310771Y-90607142D02*
X171263152Y-90702380D01*
X171263152Y-90702380D02*
X171263152Y-90797618D01*
X171929819Y-91273809D02*
X171882200Y-91178571D01*
X171882200Y-91178571D02*
X171834580Y-91130952D01*
X171834580Y-91130952D02*
X171739342Y-91083333D01*
X171739342Y-91083333D02*
X171453628Y-91083333D01*
X171453628Y-91083333D02*
X171358390Y-91130952D01*
X171358390Y-91130952D02*
X171310771Y-91178571D01*
X171310771Y-91178571D02*
X171263152Y-91273809D01*
X171263152Y-91273809D02*
X171263152Y-91416666D01*
X171263152Y-91416666D02*
X171310771Y-91511904D01*
X171310771Y-91511904D02*
X171358390Y-91559523D01*
X171358390Y-91559523D02*
X171453628Y-91607142D01*
X171453628Y-91607142D02*
X171739342Y-91607142D01*
X171739342Y-91607142D02*
X171834580Y-91559523D01*
X171834580Y-91559523D02*
X171882200Y-91511904D01*
X171882200Y-91511904D02*
X171929819Y-91416666D01*
X171929819Y-91416666D02*
X171929819Y-91273809D01*
X172025057Y-91797619D02*
X172025057Y-92559523D01*
X171882200Y-92750000D02*
X171929819Y-92892857D01*
X171929819Y-92892857D02*
X171929819Y-93130952D01*
X171929819Y-93130952D02*
X171882200Y-93226190D01*
X171882200Y-93226190D02*
X171834580Y-93273809D01*
X171834580Y-93273809D02*
X171739342Y-93321428D01*
X171739342Y-93321428D02*
X171644104Y-93321428D01*
X171644104Y-93321428D02*
X171548866Y-93273809D01*
X171548866Y-93273809D02*
X171501247Y-93226190D01*
X171501247Y-93226190D02*
X171453628Y-93130952D01*
X171453628Y-93130952D02*
X171406009Y-92940476D01*
X171406009Y-92940476D02*
X171358390Y-92845238D01*
X171358390Y-92845238D02*
X171310771Y-92797619D01*
X171310771Y-92797619D02*
X171215533Y-92750000D01*
X171215533Y-92750000D02*
X171120295Y-92750000D01*
X171120295Y-92750000D02*
X171025057Y-92797619D01*
X171025057Y-92797619D02*
X170977438Y-92845238D01*
X170977438Y-92845238D02*
X170929819Y-92940476D01*
X170929819Y-92940476D02*
X170929819Y-93178571D01*
X170929819Y-93178571D02*
X170977438Y-93321428D01*
X171929819Y-93750000D02*
X170929819Y-93750000D01*
X170929819Y-93750000D02*
X170929819Y-93988095D01*
X170929819Y-93988095D02*
X170977438Y-94130952D01*
X170977438Y-94130952D02*
X171072676Y-94226190D01*
X171072676Y-94226190D02*
X171167914Y-94273809D01*
X171167914Y-94273809D02*
X171358390Y-94321428D01*
X171358390Y-94321428D02*
X171501247Y-94321428D01*
X171501247Y-94321428D02*
X171691723Y-94273809D01*
X171691723Y-94273809D02*
X171786961Y-94226190D01*
X171786961Y-94226190D02*
X171882200Y-94130952D01*
X171882200Y-94130952D02*
X171929819Y-93988095D01*
X171929819Y-93988095D02*
X171929819Y-93750000D01*
X172025057Y-94511905D02*
X172025057Y-95273809D01*
X171834580Y-96083333D02*
X171882200Y-96035714D01*
X171882200Y-96035714D02*
X171929819Y-95892857D01*
X171929819Y-95892857D02*
X171929819Y-95797619D01*
X171929819Y-95797619D02*
X171882200Y-95654762D01*
X171882200Y-95654762D02*
X171786961Y-95559524D01*
X171786961Y-95559524D02*
X171691723Y-95511905D01*
X171691723Y-95511905D02*
X171501247Y-95464286D01*
X171501247Y-95464286D02*
X171358390Y-95464286D01*
X171358390Y-95464286D02*
X171167914Y-95511905D01*
X171167914Y-95511905D02*
X171072676Y-95559524D01*
X171072676Y-95559524D02*
X170977438Y-95654762D01*
X170977438Y-95654762D02*
X170929819Y-95797619D01*
X170929819Y-95797619D02*
X170929819Y-95892857D01*
X170929819Y-95892857D02*
X170977438Y-96035714D01*
X170977438Y-96035714D02*
X171025057Y-96083333D01*
X171929819Y-96940476D02*
X171406009Y-96940476D01*
X171406009Y-96940476D02*
X171310771Y-96892857D01*
X171310771Y-96892857D02*
X171263152Y-96797619D01*
X171263152Y-96797619D02*
X171263152Y-96607143D01*
X171263152Y-96607143D02*
X171310771Y-96511905D01*
X171882200Y-96940476D02*
X171929819Y-96845238D01*
X171929819Y-96845238D02*
X171929819Y-96607143D01*
X171929819Y-96607143D02*
X171882200Y-96511905D01*
X171882200Y-96511905D02*
X171786961Y-96464286D01*
X171786961Y-96464286D02*
X171691723Y-96464286D01*
X171691723Y-96464286D02*
X171596485Y-96511905D01*
X171596485Y-96511905D02*
X171548866Y-96607143D01*
X171548866Y-96607143D02*
X171548866Y-96845238D01*
X171548866Y-96845238D02*
X171501247Y-96940476D01*
X171929819Y-97416667D02*
X171263152Y-97416667D01*
X171453628Y-97416667D02*
X171358390Y-97464286D01*
X171358390Y-97464286D02*
X171310771Y-97511905D01*
X171310771Y-97511905D02*
X171263152Y-97607143D01*
X171263152Y-97607143D02*
X171263152Y-97702381D01*
X171929819Y-98464286D02*
X170929819Y-98464286D01*
X171882200Y-98464286D02*
X171929819Y-98369048D01*
X171929819Y-98369048D02*
X171929819Y-98178572D01*
X171929819Y-98178572D02*
X171882200Y-98083334D01*
X171882200Y-98083334D02*
X171834580Y-98035715D01*
X171834580Y-98035715D02*
X171739342Y-97988096D01*
X171739342Y-97988096D02*
X171453628Y-97988096D01*
X171453628Y-97988096D02*
X171358390Y-98035715D01*
X171358390Y-98035715D02*
X171310771Y-98083334D01*
X171310771Y-98083334D02*
X171263152Y-98178572D01*
X171263152Y-98178572D02*
X171263152Y-98369048D01*
X171263152Y-98369048D02*
X171310771Y-98464286D01*
D12*
X161732419Y-92916666D02*
X162446704Y-92916666D01*
X162446704Y-92916666D02*
X162589561Y-92869047D01*
X162589561Y-92869047D02*
X162684800Y-92773809D01*
X162684800Y-92773809D02*
X162732419Y-92630952D01*
X162732419Y-92630952D02*
X162732419Y-92535714D01*
X162732419Y-93916666D02*
X162732419Y-93345238D01*
X162732419Y-93630952D02*
X161732419Y-93630952D01*
X161732419Y-93630952D02*
X161875276Y-93535714D01*
X161875276Y-93535714D02*
X161970514Y-93440476D01*
X161970514Y-93440476D02*
X162018133Y-93345238D01*
D10*
X138819047Y-93004819D02*
X139390475Y-93004819D01*
X139104761Y-93004819D02*
X139104761Y-92004819D01*
X139104761Y-92004819D02*
X139199999Y-92147676D01*
X139199999Y-92147676D02*
X139295237Y-92242914D01*
X139295237Y-92242914D02*
X139390475Y-92290533D01*
X137914285Y-92004819D02*
X138390475Y-92004819D01*
X138390475Y-92004819D02*
X138438094Y-92481009D01*
X138438094Y-92481009D02*
X138390475Y-92433390D01*
X138390475Y-92433390D02*
X138295237Y-92385771D01*
X138295237Y-92385771D02*
X138057142Y-92385771D01*
X138057142Y-92385771D02*
X137961904Y-92433390D01*
X137961904Y-92433390D02*
X137914285Y-92481009D01*
X137914285Y-92481009D02*
X137866666Y-92576247D01*
X137866666Y-92576247D02*
X137866666Y-92814342D01*
X137866666Y-92814342D02*
X137914285Y-92909580D01*
X137914285Y-92909580D02*
X137961904Y-92957200D01*
X137961904Y-92957200D02*
X138057142Y-93004819D01*
X138057142Y-93004819D02*
X138295237Y-93004819D01*
X138295237Y-93004819D02*
X138390475Y-92957200D01*
X138390475Y-92957200D02*
X138438094Y-92909580D01*
X137247618Y-92004819D02*
X137152380Y-92004819D01*
X137152380Y-92004819D02*
X137057142Y-92052438D01*
X137057142Y-92052438D02*
X137009523Y-92100057D01*
X137009523Y-92100057D02*
X136961904Y-92195295D01*
X136961904Y-92195295D02*
X136914285Y-92385771D01*
X136914285Y-92385771D02*
X136914285Y-92623866D01*
X136914285Y-92623866D02*
X136961904Y-92814342D01*
X136961904Y-92814342D02*
X137009523Y-92909580D01*
X137009523Y-92909580D02*
X137057142Y-92957200D01*
X137057142Y-92957200D02*
X137152380Y-93004819D01*
X137152380Y-93004819D02*
X137247618Y-93004819D01*
X137247618Y-93004819D02*
X137342856Y-92957200D01*
X137342856Y-92957200D02*
X137390475Y-92909580D01*
X137390475Y-92909580D02*
X137438094Y-92814342D01*
X137438094Y-92814342D02*
X137485713Y-92623866D01*
X137485713Y-92623866D02*
X137485713Y-92385771D01*
X137485713Y-92385771D02*
X137438094Y-92195295D01*
X137438094Y-92195295D02*
X137390475Y-92100057D01*
X137390475Y-92100057D02*
X137342856Y-92052438D01*
X137342856Y-92052438D02*
X137247618Y-92004819D01*
X136485713Y-92338152D02*
X136485713Y-93338152D01*
X136485713Y-92385771D02*
X136390475Y-92338152D01*
X136390475Y-92338152D02*
X136199999Y-92338152D01*
X136199999Y-92338152D02*
X136104761Y-92385771D01*
X136104761Y-92385771D02*
X136057142Y-92433390D01*
X136057142Y-92433390D02*
X136009523Y-92528628D01*
X136009523Y-92528628D02*
X136009523Y-92814342D01*
X136009523Y-92814342D02*
X136057142Y-92909580D01*
X136057142Y-92909580D02*
X136104761Y-92957200D01*
X136104761Y-92957200D02*
X136199999Y-93004819D01*
X136199999Y-93004819D02*
X136390475Y-93004819D01*
X136390475Y-93004819D02*
X136485713Y-92957200D01*
D11*
X137741666Y-90909765D02*
X137753570Y-90921670D01*
X137753570Y-90921670D02*
X137789285Y-90933574D01*
X137789285Y-90933574D02*
X137813094Y-90933574D01*
X137813094Y-90933574D02*
X137848808Y-90921670D01*
X137848808Y-90921670D02*
X137872618Y-90897860D01*
X137872618Y-90897860D02*
X137884523Y-90874050D01*
X137884523Y-90874050D02*
X137896427Y-90826431D01*
X137896427Y-90826431D02*
X137896427Y-90790717D01*
X137896427Y-90790717D02*
X137884523Y-90743098D01*
X137884523Y-90743098D02*
X137872618Y-90719289D01*
X137872618Y-90719289D02*
X137848808Y-90695479D01*
X137848808Y-90695479D02*
X137813094Y-90683574D01*
X137813094Y-90683574D02*
X137789285Y-90683574D01*
X137789285Y-90683574D02*
X137753570Y-90695479D01*
X137753570Y-90695479D02*
X137741666Y-90707384D01*
X137646427Y-90707384D02*
X137634523Y-90695479D01*
X137634523Y-90695479D02*
X137610713Y-90683574D01*
X137610713Y-90683574D02*
X137551189Y-90683574D01*
X137551189Y-90683574D02*
X137527380Y-90695479D01*
X137527380Y-90695479D02*
X137515475Y-90707384D01*
X137515475Y-90707384D02*
X137503570Y-90731193D01*
X137503570Y-90731193D02*
X137503570Y-90755003D01*
X137503570Y-90755003D02*
X137515475Y-90790717D01*
X137515475Y-90790717D02*
X137658332Y-90933574D01*
X137658332Y-90933574D02*
X137503570Y-90933574D01*
D10*
X138904819Y-82880952D02*
X138904819Y-82309524D01*
X138904819Y-82595238D02*
X137904819Y-82595238D01*
X137904819Y-82595238D02*
X138047676Y-82500000D01*
X138047676Y-82500000D02*
X138142914Y-82404762D01*
X138142914Y-82404762D02*
X138190533Y-82309524D01*
X137904819Y-83500000D02*
X137904819Y-83595238D01*
X137904819Y-83595238D02*
X137952438Y-83690476D01*
X137952438Y-83690476D02*
X138000057Y-83738095D01*
X138000057Y-83738095D02*
X138095295Y-83785714D01*
X138095295Y-83785714D02*
X138285771Y-83833333D01*
X138285771Y-83833333D02*
X138523866Y-83833333D01*
X138523866Y-83833333D02*
X138714342Y-83785714D01*
X138714342Y-83785714D02*
X138809580Y-83738095D01*
X138809580Y-83738095D02*
X138857200Y-83690476D01*
X138857200Y-83690476D02*
X138904819Y-83595238D01*
X138904819Y-83595238D02*
X138904819Y-83500000D01*
X138904819Y-83500000D02*
X138857200Y-83404762D01*
X138857200Y-83404762D02*
X138809580Y-83357143D01*
X138809580Y-83357143D02*
X138714342Y-83309524D01*
X138714342Y-83309524D02*
X138523866Y-83261905D01*
X138523866Y-83261905D02*
X138285771Y-83261905D01*
X138285771Y-83261905D02*
X138095295Y-83309524D01*
X138095295Y-83309524D02*
X138000057Y-83357143D01*
X138000057Y-83357143D02*
X137952438Y-83404762D01*
X137952438Y-83404762D02*
X137904819Y-83500000D01*
X137904819Y-84452381D02*
X137904819Y-84547619D01*
X137904819Y-84547619D02*
X137952438Y-84642857D01*
X137952438Y-84642857D02*
X138000057Y-84690476D01*
X138000057Y-84690476D02*
X138095295Y-84738095D01*
X138095295Y-84738095D02*
X138285771Y-84785714D01*
X138285771Y-84785714D02*
X138523866Y-84785714D01*
X138523866Y-84785714D02*
X138714342Y-84738095D01*
X138714342Y-84738095D02*
X138809580Y-84690476D01*
X138809580Y-84690476D02*
X138857200Y-84642857D01*
X138857200Y-84642857D02*
X138904819Y-84547619D01*
X138904819Y-84547619D02*
X138904819Y-84452381D01*
X138904819Y-84452381D02*
X138857200Y-84357143D01*
X138857200Y-84357143D02*
X138809580Y-84309524D01*
X138809580Y-84309524D02*
X138714342Y-84261905D01*
X138714342Y-84261905D02*
X138523866Y-84214286D01*
X138523866Y-84214286D02*
X138285771Y-84214286D01*
X138285771Y-84214286D02*
X138095295Y-84261905D01*
X138095295Y-84261905D02*
X138000057Y-84309524D01*
X138000057Y-84309524D02*
X137952438Y-84357143D01*
X137952438Y-84357143D02*
X137904819Y-84452381D01*
X138238152Y-85214286D02*
X138904819Y-85214286D01*
X138333390Y-85214286D02*
X138285771Y-85261905D01*
X138285771Y-85261905D02*
X138238152Y-85357143D01*
X138238152Y-85357143D02*
X138238152Y-85500000D01*
X138238152Y-85500000D02*
X138285771Y-85595238D01*
X138285771Y-85595238D02*
X138381009Y-85642857D01*
X138381009Y-85642857D02*
X138904819Y-85642857D01*
D11*
X140269765Y-83839285D02*
X140281670Y-83827381D01*
X140281670Y-83827381D02*
X140293574Y-83791666D01*
X140293574Y-83791666D02*
X140293574Y-83767857D01*
X140293574Y-83767857D02*
X140281670Y-83732143D01*
X140281670Y-83732143D02*
X140257860Y-83708333D01*
X140257860Y-83708333D02*
X140234050Y-83696428D01*
X140234050Y-83696428D02*
X140186431Y-83684524D01*
X140186431Y-83684524D02*
X140150717Y-83684524D01*
X140150717Y-83684524D02*
X140103098Y-83696428D01*
X140103098Y-83696428D02*
X140079289Y-83708333D01*
X140079289Y-83708333D02*
X140055479Y-83732143D01*
X140055479Y-83732143D02*
X140043574Y-83767857D01*
X140043574Y-83767857D02*
X140043574Y-83791666D01*
X140043574Y-83791666D02*
X140055479Y-83827381D01*
X140055479Y-83827381D02*
X140067384Y-83839285D01*
X140293574Y-84077381D02*
X140293574Y-83934524D01*
X140293574Y-84005952D02*
X140043574Y-84005952D01*
X140043574Y-84005952D02*
X140079289Y-83982143D01*
X140079289Y-83982143D02*
X140103098Y-83958333D01*
X140103098Y-83958333D02*
X140115003Y-83934524D01*
X140043574Y-84232142D02*
X140043574Y-84255952D01*
X140043574Y-84255952D02*
X140055479Y-84279761D01*
X140055479Y-84279761D02*
X140067384Y-84291666D01*
X140067384Y-84291666D02*
X140091193Y-84303571D01*
X140091193Y-84303571D02*
X140138812Y-84315476D01*
X140138812Y-84315476D02*
X140198336Y-84315476D01*
X140198336Y-84315476D02*
X140245955Y-84303571D01*
X140245955Y-84303571D02*
X140269765Y-84291666D01*
X140269765Y-84291666D02*
X140281670Y-84279761D01*
X140281670Y-84279761D02*
X140293574Y-84255952D01*
X140293574Y-84255952D02*
X140293574Y-84232142D01*
X140293574Y-84232142D02*
X140281670Y-84208333D01*
X140281670Y-84208333D02*
X140269765Y-84196428D01*
X140269765Y-84196428D02*
X140245955Y-84184523D01*
X140245955Y-84184523D02*
X140198336Y-84172619D01*
X140198336Y-84172619D02*
X140138812Y-84172619D01*
X140138812Y-84172619D02*
X140091193Y-84184523D01*
X140091193Y-84184523D02*
X140067384Y-84196428D01*
X140067384Y-84196428D02*
X140055479Y-84208333D01*
X140055479Y-84208333D02*
X140043574Y-84232142D01*
D10*
X153138152Y-86959523D02*
X153804819Y-86959523D01*
X152757200Y-86721428D02*
X153471485Y-86483333D01*
X153471485Y-86483333D02*
X153471485Y-87102380D01*
X153804819Y-87483333D02*
X152804819Y-87483333D01*
X153423866Y-87578571D02*
X153804819Y-87864285D01*
X153138152Y-87864285D02*
X153519104Y-87483333D01*
X152804819Y-88197619D02*
X152804819Y-88864285D01*
X152804819Y-88864285D02*
X153804819Y-88435714D01*
D11*
X151733574Y-87608333D02*
X151614527Y-87525000D01*
X151733574Y-87465476D02*
X151483574Y-87465476D01*
X151483574Y-87465476D02*
X151483574Y-87560714D01*
X151483574Y-87560714D02*
X151495479Y-87584524D01*
X151495479Y-87584524D02*
X151507384Y-87596429D01*
X151507384Y-87596429D02*
X151531193Y-87608333D01*
X151531193Y-87608333D02*
X151566908Y-87608333D01*
X151566908Y-87608333D02*
X151590717Y-87596429D01*
X151590717Y-87596429D02*
X151602622Y-87584524D01*
X151602622Y-87584524D02*
X151614527Y-87560714D01*
X151614527Y-87560714D02*
X151614527Y-87465476D01*
X151483574Y-87691667D02*
X151483574Y-87858333D01*
X151483574Y-87858333D02*
X151733574Y-87751191D01*
D10*
X140590594Y-98550057D02*
X140542975Y-98502438D01*
X140542975Y-98502438D02*
X140447737Y-98454819D01*
X140447737Y-98454819D02*
X140209642Y-98454819D01*
X140209642Y-98454819D02*
X140114404Y-98502438D01*
X140114404Y-98502438D02*
X140066785Y-98550057D01*
X140066785Y-98550057D02*
X140019166Y-98645295D01*
X140019166Y-98645295D02*
X140019166Y-98740533D01*
X140019166Y-98740533D02*
X140066785Y-98883390D01*
X140066785Y-98883390D02*
X140638213Y-99454819D01*
X140638213Y-99454819D02*
X140019166Y-99454819D01*
X139590594Y-98788152D02*
X139590594Y-99788152D01*
X139590594Y-98835771D02*
X139495356Y-98788152D01*
X139495356Y-98788152D02*
X139304880Y-98788152D01*
X139304880Y-98788152D02*
X139209642Y-98835771D01*
X139209642Y-98835771D02*
X139162023Y-98883390D01*
X139162023Y-98883390D02*
X139114404Y-98978628D01*
X139114404Y-98978628D02*
X139114404Y-99264342D01*
X139114404Y-99264342D02*
X139162023Y-99359580D01*
X139162023Y-99359580D02*
X139209642Y-99407200D01*
X139209642Y-99407200D02*
X139304880Y-99454819D01*
X139304880Y-99454819D02*
X139495356Y-99454819D01*
X139495356Y-99454819D02*
X139590594Y-99407200D01*
D11*
X140013214Y-100819765D02*
X140025118Y-100831670D01*
X140025118Y-100831670D02*
X140060833Y-100843574D01*
X140060833Y-100843574D02*
X140084642Y-100843574D01*
X140084642Y-100843574D02*
X140120356Y-100831670D01*
X140120356Y-100831670D02*
X140144166Y-100807860D01*
X140144166Y-100807860D02*
X140156071Y-100784050D01*
X140156071Y-100784050D02*
X140167975Y-100736431D01*
X140167975Y-100736431D02*
X140167975Y-100700717D01*
X140167975Y-100700717D02*
X140156071Y-100653098D01*
X140156071Y-100653098D02*
X140144166Y-100629289D01*
X140144166Y-100629289D02*
X140120356Y-100605479D01*
X140120356Y-100605479D02*
X140084642Y-100593574D01*
X140084642Y-100593574D02*
X140060833Y-100593574D01*
X140060833Y-100593574D02*
X140025118Y-100605479D01*
X140025118Y-100605479D02*
X140013214Y-100617384D01*
X139775118Y-100843574D02*
X139917975Y-100843574D01*
X139846547Y-100843574D02*
X139846547Y-100593574D01*
X139846547Y-100593574D02*
X139870356Y-100629289D01*
X139870356Y-100629289D02*
X139894166Y-100653098D01*
X139894166Y-100653098D02*
X139917975Y-100665003D01*
X139691785Y-100593574D02*
X139537023Y-100593574D01*
X139537023Y-100593574D02*
X139620357Y-100688812D01*
X139620357Y-100688812D02*
X139584642Y-100688812D01*
X139584642Y-100688812D02*
X139560833Y-100700717D01*
X139560833Y-100700717D02*
X139548928Y-100712622D01*
X139548928Y-100712622D02*
X139537023Y-100736431D01*
X139537023Y-100736431D02*
X139537023Y-100795955D01*
X139537023Y-100795955D02*
X139548928Y-100819765D01*
X139548928Y-100819765D02*
X139560833Y-100831670D01*
X139560833Y-100831670D02*
X139584642Y-100843574D01*
X139584642Y-100843574D02*
X139656071Y-100843574D01*
X139656071Y-100843574D02*
X139679880Y-100831670D01*
X139679880Y-100831670D02*
X139691785Y-100819765D01*
D10*
X151038152Y-91789523D02*
X151704819Y-91789523D01*
X150657200Y-91551428D02*
X151371485Y-91313333D01*
X151371485Y-91313333D02*
X151371485Y-91932380D01*
X151704819Y-92313333D02*
X150704819Y-92313333D01*
X151323866Y-92408571D02*
X151704819Y-92694285D01*
X151038152Y-92694285D02*
X151419104Y-92313333D01*
X150704819Y-93027619D02*
X150704819Y-93694285D01*
X150704819Y-93694285D02*
X151704819Y-93265714D01*
D11*
X153093574Y-92438333D02*
X152974527Y-92355000D01*
X153093574Y-92295476D02*
X152843574Y-92295476D01*
X152843574Y-92295476D02*
X152843574Y-92390714D01*
X152843574Y-92390714D02*
X152855479Y-92414524D01*
X152855479Y-92414524D02*
X152867384Y-92426429D01*
X152867384Y-92426429D02*
X152891193Y-92438333D01*
X152891193Y-92438333D02*
X152926908Y-92438333D01*
X152926908Y-92438333D02*
X152950717Y-92426429D01*
X152950717Y-92426429D02*
X152962622Y-92414524D01*
X152962622Y-92414524D02*
X152974527Y-92390714D01*
X152974527Y-92390714D02*
X152974527Y-92295476D01*
X153093574Y-92557381D02*
X153093574Y-92605000D01*
X153093574Y-92605000D02*
X153081670Y-92628810D01*
X153081670Y-92628810D02*
X153069765Y-92640714D01*
X153069765Y-92640714D02*
X153034050Y-92664524D01*
X153034050Y-92664524D02*
X152986431Y-92676429D01*
X152986431Y-92676429D02*
X152891193Y-92676429D01*
X152891193Y-92676429D02*
X152867384Y-92664524D01*
X152867384Y-92664524D02*
X152855479Y-92652619D01*
X152855479Y-92652619D02*
X152843574Y-92628810D01*
X152843574Y-92628810D02*
X152843574Y-92581191D01*
X152843574Y-92581191D02*
X152855479Y-92557381D01*
X152855479Y-92557381D02*
X152867384Y-92545476D01*
X152867384Y-92545476D02*
X152891193Y-92533572D01*
X152891193Y-92533572D02*
X152950717Y-92533572D01*
X152950717Y-92533572D02*
X152974527Y-92545476D01*
X152974527Y-92545476D02*
X152986431Y-92557381D01*
X152986431Y-92557381D02*
X152998336Y-92581191D01*
X152998336Y-92581191D02*
X152998336Y-92628810D01*
X152998336Y-92628810D02*
X152986431Y-92652619D01*
X152986431Y-92652619D02*
X152974527Y-92664524D01*
X152974527Y-92664524D02*
X152950717Y-92676429D01*
D10*
X138414285Y-104204819D02*
X138890475Y-104204819D01*
X138890475Y-104204819D02*
X138938094Y-104681009D01*
X138938094Y-104681009D02*
X138890475Y-104633390D01*
X138890475Y-104633390D02*
X138795237Y-104585771D01*
X138795237Y-104585771D02*
X138557142Y-104585771D01*
X138557142Y-104585771D02*
X138461904Y-104633390D01*
X138461904Y-104633390D02*
X138414285Y-104681009D01*
X138414285Y-104681009D02*
X138366666Y-104776247D01*
X138366666Y-104776247D02*
X138366666Y-105014342D01*
X138366666Y-105014342D02*
X138414285Y-105109580D01*
X138414285Y-105109580D02*
X138461904Y-105157200D01*
X138461904Y-105157200D02*
X138557142Y-105204819D01*
X138557142Y-105204819D02*
X138795237Y-105204819D01*
X138795237Y-105204819D02*
X138890475Y-105157200D01*
X138890475Y-105157200D02*
X138938094Y-105109580D01*
X137509523Y-104204819D02*
X137699999Y-104204819D01*
X137699999Y-104204819D02*
X137795237Y-104252438D01*
X137795237Y-104252438D02*
X137842856Y-104300057D01*
X137842856Y-104300057D02*
X137938094Y-104442914D01*
X137938094Y-104442914D02*
X137985713Y-104633390D01*
X137985713Y-104633390D02*
X137985713Y-105014342D01*
X137985713Y-105014342D02*
X137938094Y-105109580D01*
X137938094Y-105109580D02*
X137890475Y-105157200D01*
X137890475Y-105157200D02*
X137795237Y-105204819D01*
X137795237Y-105204819D02*
X137604761Y-105204819D01*
X137604761Y-105204819D02*
X137509523Y-105157200D01*
X137509523Y-105157200D02*
X137461904Y-105109580D01*
X137461904Y-105109580D02*
X137414285Y-105014342D01*
X137414285Y-105014342D02*
X137414285Y-104776247D01*
X137414285Y-104776247D02*
X137461904Y-104681009D01*
X137461904Y-104681009D02*
X137509523Y-104633390D01*
X137509523Y-104633390D02*
X137604761Y-104585771D01*
X137604761Y-104585771D02*
X137795237Y-104585771D01*
X137795237Y-104585771D02*
X137890475Y-104633390D01*
X137890475Y-104633390D02*
X137938094Y-104681009D01*
X137938094Y-104681009D02*
X137985713Y-104776247D01*
X136795237Y-104204819D02*
X136699999Y-104204819D01*
X136699999Y-104204819D02*
X136604761Y-104252438D01*
X136604761Y-104252438D02*
X136557142Y-104300057D01*
X136557142Y-104300057D02*
X136509523Y-104395295D01*
X136509523Y-104395295D02*
X136461904Y-104585771D01*
X136461904Y-104585771D02*
X136461904Y-104823866D01*
X136461904Y-104823866D02*
X136509523Y-105014342D01*
X136509523Y-105014342D02*
X136557142Y-105109580D01*
X136557142Y-105109580D02*
X136604761Y-105157200D01*
X136604761Y-105157200D02*
X136699999Y-105204819D01*
X136699999Y-105204819D02*
X136795237Y-105204819D01*
X136795237Y-105204819D02*
X136890475Y-105157200D01*
X136890475Y-105157200D02*
X136938094Y-105109580D01*
X136938094Y-105109580D02*
X136985713Y-105014342D01*
X136985713Y-105014342D02*
X137033332Y-104823866D01*
X137033332Y-104823866D02*
X137033332Y-104585771D01*
X137033332Y-104585771D02*
X136985713Y-104395295D01*
X136985713Y-104395295D02*
X136938094Y-104300057D01*
X136938094Y-104300057D02*
X136890475Y-104252438D01*
X136890475Y-104252438D02*
X136795237Y-104204819D01*
D11*
X137741666Y-106593574D02*
X137824999Y-106474527D01*
X137884523Y-106593574D02*
X137884523Y-106343574D01*
X137884523Y-106343574D02*
X137789285Y-106343574D01*
X137789285Y-106343574D02*
X137765475Y-106355479D01*
X137765475Y-106355479D02*
X137753570Y-106367384D01*
X137753570Y-106367384D02*
X137741666Y-106391193D01*
X137741666Y-106391193D02*
X137741666Y-106426908D01*
X137741666Y-106426908D02*
X137753570Y-106450717D01*
X137753570Y-106450717D02*
X137765475Y-106462622D01*
X137765475Y-106462622D02*
X137789285Y-106474527D01*
X137789285Y-106474527D02*
X137884523Y-106474527D01*
X137515475Y-106343574D02*
X137634523Y-106343574D01*
X137634523Y-106343574D02*
X137646427Y-106462622D01*
X137646427Y-106462622D02*
X137634523Y-106450717D01*
X137634523Y-106450717D02*
X137610713Y-106438812D01*
X137610713Y-106438812D02*
X137551189Y-106438812D01*
X137551189Y-106438812D02*
X137527380Y-106450717D01*
X137527380Y-106450717D02*
X137515475Y-106462622D01*
X137515475Y-106462622D02*
X137503570Y-106486431D01*
X137503570Y-106486431D02*
X137503570Y-106545955D01*
X137503570Y-106545955D02*
X137515475Y-106569765D01*
X137515475Y-106569765D02*
X137527380Y-106581670D01*
X137527380Y-106581670D02*
X137551189Y-106593574D01*
X137551189Y-106593574D02*
X137610713Y-106593574D01*
X137610713Y-106593574D02*
X137634523Y-106581670D01*
X137634523Y-106581670D02*
X137646427Y-106569765D01*
D10*
X151038152Y-93389523D02*
X151704819Y-93389523D01*
X150657200Y-93151428D02*
X151371485Y-92913333D01*
X151371485Y-92913333D02*
X151371485Y-93532380D01*
X151704819Y-93913333D02*
X150704819Y-93913333D01*
X151323866Y-94008571D02*
X151704819Y-94294285D01*
X151038152Y-94294285D02*
X151419104Y-93913333D01*
X150704819Y-94627619D02*
X150704819Y-95294285D01*
X150704819Y-95294285D02*
X151704819Y-94865714D01*
D11*
X153093574Y-93919285D02*
X152974527Y-93835952D01*
X153093574Y-93776428D02*
X152843574Y-93776428D01*
X152843574Y-93776428D02*
X152843574Y-93871666D01*
X152843574Y-93871666D02*
X152855479Y-93895476D01*
X152855479Y-93895476D02*
X152867384Y-93907381D01*
X152867384Y-93907381D02*
X152891193Y-93919285D01*
X152891193Y-93919285D02*
X152926908Y-93919285D01*
X152926908Y-93919285D02*
X152950717Y-93907381D01*
X152950717Y-93907381D02*
X152962622Y-93895476D01*
X152962622Y-93895476D02*
X152974527Y-93871666D01*
X152974527Y-93871666D02*
X152974527Y-93776428D01*
X153093574Y-94157381D02*
X153093574Y-94014524D01*
X153093574Y-94085952D02*
X152843574Y-94085952D01*
X152843574Y-94085952D02*
X152879289Y-94062143D01*
X152879289Y-94062143D02*
X152903098Y-94038333D01*
X152903098Y-94038333D02*
X152915003Y-94014524D01*
X152843574Y-94312142D02*
X152843574Y-94335952D01*
X152843574Y-94335952D02*
X152855479Y-94359761D01*
X152855479Y-94359761D02*
X152867384Y-94371666D01*
X152867384Y-94371666D02*
X152891193Y-94383571D01*
X152891193Y-94383571D02*
X152938812Y-94395476D01*
X152938812Y-94395476D02*
X152998336Y-94395476D01*
X152998336Y-94395476D02*
X153045955Y-94383571D01*
X153045955Y-94383571D02*
X153069765Y-94371666D01*
X153069765Y-94371666D02*
X153081670Y-94359761D01*
X153081670Y-94359761D02*
X153093574Y-94335952D01*
X153093574Y-94335952D02*
X153093574Y-94312142D01*
X153093574Y-94312142D02*
X153081670Y-94288333D01*
X153081670Y-94288333D02*
X153069765Y-94276428D01*
X153069765Y-94276428D02*
X153045955Y-94264523D01*
X153045955Y-94264523D02*
X152998336Y-94252619D01*
X152998336Y-94252619D02*
X152938812Y-94252619D01*
X152938812Y-94252619D02*
X152891193Y-94264523D01*
X152891193Y-94264523D02*
X152867384Y-94276428D01*
X152867384Y-94276428D02*
X152855479Y-94288333D01*
X152855479Y-94288333D02*
X152843574Y-94312142D01*
D10*
X163663152Y-104989523D02*
X164329819Y-104989523D01*
X163282200Y-104751428D02*
X163996485Y-104513333D01*
X163996485Y-104513333D02*
X163996485Y-105132380D01*
X164329819Y-105513333D02*
X163329819Y-105513333D01*
X163948866Y-105608571D02*
X164329819Y-105894285D01*
X163663152Y-105894285D02*
X164044104Y-105513333D01*
X163329819Y-106227619D02*
X163329819Y-106894285D01*
X163329819Y-106894285D02*
X164329819Y-106465714D01*
D11*
X165718574Y-105519285D02*
X165599527Y-105435952D01*
X165718574Y-105376428D02*
X165468574Y-105376428D01*
X165468574Y-105376428D02*
X165468574Y-105471666D01*
X165468574Y-105471666D02*
X165480479Y-105495476D01*
X165480479Y-105495476D02*
X165492384Y-105507381D01*
X165492384Y-105507381D02*
X165516193Y-105519285D01*
X165516193Y-105519285D02*
X165551908Y-105519285D01*
X165551908Y-105519285D02*
X165575717Y-105507381D01*
X165575717Y-105507381D02*
X165587622Y-105495476D01*
X165587622Y-105495476D02*
X165599527Y-105471666D01*
X165599527Y-105471666D02*
X165599527Y-105376428D01*
X165492384Y-105614524D02*
X165480479Y-105626428D01*
X165480479Y-105626428D02*
X165468574Y-105650238D01*
X165468574Y-105650238D02*
X165468574Y-105709762D01*
X165468574Y-105709762D02*
X165480479Y-105733571D01*
X165480479Y-105733571D02*
X165492384Y-105745476D01*
X165492384Y-105745476D02*
X165516193Y-105757381D01*
X165516193Y-105757381D02*
X165540003Y-105757381D01*
X165540003Y-105757381D02*
X165575717Y-105745476D01*
X165575717Y-105745476D02*
X165718574Y-105602619D01*
X165718574Y-105602619D02*
X165718574Y-105757381D01*
X165718574Y-105995476D02*
X165718574Y-105852619D01*
X165718574Y-105924047D02*
X165468574Y-105924047D01*
X165468574Y-105924047D02*
X165504289Y-105900238D01*
X165504289Y-105900238D02*
X165528098Y-105876428D01*
X165528098Y-105876428D02*
X165540003Y-105852619D01*
D10*
X139204819Y-81280952D02*
X139204819Y-80709524D01*
X139204819Y-80995238D02*
X138204819Y-80995238D01*
X138204819Y-80995238D02*
X138347676Y-80900000D01*
X138347676Y-80900000D02*
X138442914Y-80804762D01*
X138442914Y-80804762D02*
X138490533Y-80709524D01*
X138204819Y-81900000D02*
X138204819Y-81995238D01*
X138204819Y-81995238D02*
X138252438Y-82090476D01*
X138252438Y-82090476D02*
X138300057Y-82138095D01*
X138300057Y-82138095D02*
X138395295Y-82185714D01*
X138395295Y-82185714D02*
X138585771Y-82233333D01*
X138585771Y-82233333D02*
X138823866Y-82233333D01*
X138823866Y-82233333D02*
X139014342Y-82185714D01*
X139014342Y-82185714D02*
X139109580Y-82138095D01*
X139109580Y-82138095D02*
X139157200Y-82090476D01*
X139157200Y-82090476D02*
X139204819Y-81995238D01*
X139204819Y-81995238D02*
X139204819Y-81900000D01*
X139204819Y-81900000D02*
X139157200Y-81804762D01*
X139157200Y-81804762D02*
X139109580Y-81757143D01*
X139109580Y-81757143D02*
X139014342Y-81709524D01*
X139014342Y-81709524D02*
X138823866Y-81661905D01*
X138823866Y-81661905D02*
X138585771Y-81661905D01*
X138585771Y-81661905D02*
X138395295Y-81709524D01*
X138395295Y-81709524D02*
X138300057Y-81757143D01*
X138300057Y-81757143D02*
X138252438Y-81804762D01*
X138252438Y-81804762D02*
X138204819Y-81900000D01*
X138204819Y-82852381D02*
X138204819Y-82947619D01*
X138204819Y-82947619D02*
X138252438Y-83042857D01*
X138252438Y-83042857D02*
X138300057Y-83090476D01*
X138300057Y-83090476D02*
X138395295Y-83138095D01*
X138395295Y-83138095D02*
X138585771Y-83185714D01*
X138585771Y-83185714D02*
X138823866Y-83185714D01*
X138823866Y-83185714D02*
X139014342Y-83138095D01*
X139014342Y-83138095D02*
X139109580Y-83090476D01*
X139109580Y-83090476D02*
X139157200Y-83042857D01*
X139157200Y-83042857D02*
X139204819Y-82947619D01*
X139204819Y-82947619D02*
X139204819Y-82852381D01*
X139204819Y-82852381D02*
X139157200Y-82757143D01*
X139157200Y-82757143D02*
X139109580Y-82709524D01*
X139109580Y-82709524D02*
X139014342Y-82661905D01*
X139014342Y-82661905D02*
X138823866Y-82614286D01*
X138823866Y-82614286D02*
X138585771Y-82614286D01*
X138585771Y-82614286D02*
X138395295Y-82661905D01*
X138395295Y-82661905D02*
X138300057Y-82709524D01*
X138300057Y-82709524D02*
X138252438Y-82757143D01*
X138252438Y-82757143D02*
X138204819Y-82852381D01*
X138538152Y-83614286D02*
X139204819Y-83614286D01*
X138633390Y-83614286D02*
X138585771Y-83661905D01*
X138585771Y-83661905D02*
X138538152Y-83757143D01*
X138538152Y-83757143D02*
X138538152Y-83900000D01*
X138538152Y-83900000D02*
X138585771Y-83995238D01*
X138585771Y-83995238D02*
X138681009Y-84042857D01*
X138681009Y-84042857D02*
X139204819Y-84042857D01*
D11*
X137109765Y-82358333D02*
X137121670Y-82346429D01*
X137121670Y-82346429D02*
X137133574Y-82310714D01*
X137133574Y-82310714D02*
X137133574Y-82286905D01*
X137133574Y-82286905D02*
X137121670Y-82251191D01*
X137121670Y-82251191D02*
X137097860Y-82227381D01*
X137097860Y-82227381D02*
X137074050Y-82215476D01*
X137074050Y-82215476D02*
X137026431Y-82203572D01*
X137026431Y-82203572D02*
X136990717Y-82203572D01*
X136990717Y-82203572D02*
X136943098Y-82215476D01*
X136943098Y-82215476D02*
X136919289Y-82227381D01*
X136919289Y-82227381D02*
X136895479Y-82251191D01*
X136895479Y-82251191D02*
X136883574Y-82286905D01*
X136883574Y-82286905D02*
X136883574Y-82310714D01*
X136883574Y-82310714D02*
X136895479Y-82346429D01*
X136895479Y-82346429D02*
X136907384Y-82358333D01*
X137133574Y-82477381D02*
X137133574Y-82525000D01*
X137133574Y-82525000D02*
X137121670Y-82548810D01*
X137121670Y-82548810D02*
X137109765Y-82560714D01*
X137109765Y-82560714D02*
X137074050Y-82584524D01*
X137074050Y-82584524D02*
X137026431Y-82596429D01*
X137026431Y-82596429D02*
X136931193Y-82596429D01*
X136931193Y-82596429D02*
X136907384Y-82584524D01*
X136907384Y-82584524D02*
X136895479Y-82572619D01*
X136895479Y-82572619D02*
X136883574Y-82548810D01*
X136883574Y-82548810D02*
X136883574Y-82501191D01*
X136883574Y-82501191D02*
X136895479Y-82477381D01*
X136895479Y-82477381D02*
X136907384Y-82465476D01*
X136907384Y-82465476D02*
X136931193Y-82453572D01*
X136931193Y-82453572D02*
X136990717Y-82453572D01*
X136990717Y-82453572D02*
X137014527Y-82465476D01*
X137014527Y-82465476D02*
X137026431Y-82477381D01*
X137026431Y-82477381D02*
X137038336Y-82501191D01*
X137038336Y-82501191D02*
X137038336Y-82548810D01*
X137038336Y-82548810D02*
X137026431Y-82572619D01*
X137026431Y-82572619D02*
X137014527Y-82584524D01*
X137014527Y-82584524D02*
X136990717Y-82596429D01*
D10*
X138904819Y-81280952D02*
X138904819Y-80709524D01*
X138904819Y-80995238D02*
X137904819Y-80995238D01*
X137904819Y-80995238D02*
X138047676Y-80900000D01*
X138047676Y-80900000D02*
X138142914Y-80804762D01*
X138142914Y-80804762D02*
X138190533Y-80709524D01*
X137904819Y-81900000D02*
X137904819Y-81995238D01*
X137904819Y-81995238D02*
X137952438Y-82090476D01*
X137952438Y-82090476D02*
X138000057Y-82138095D01*
X138000057Y-82138095D02*
X138095295Y-82185714D01*
X138095295Y-82185714D02*
X138285771Y-82233333D01*
X138285771Y-82233333D02*
X138523866Y-82233333D01*
X138523866Y-82233333D02*
X138714342Y-82185714D01*
X138714342Y-82185714D02*
X138809580Y-82138095D01*
X138809580Y-82138095D02*
X138857200Y-82090476D01*
X138857200Y-82090476D02*
X138904819Y-81995238D01*
X138904819Y-81995238D02*
X138904819Y-81900000D01*
X138904819Y-81900000D02*
X138857200Y-81804762D01*
X138857200Y-81804762D02*
X138809580Y-81757143D01*
X138809580Y-81757143D02*
X138714342Y-81709524D01*
X138714342Y-81709524D02*
X138523866Y-81661905D01*
X138523866Y-81661905D02*
X138285771Y-81661905D01*
X138285771Y-81661905D02*
X138095295Y-81709524D01*
X138095295Y-81709524D02*
X138000057Y-81757143D01*
X138000057Y-81757143D02*
X137952438Y-81804762D01*
X137952438Y-81804762D02*
X137904819Y-81900000D01*
X137904819Y-82852381D02*
X137904819Y-82947619D01*
X137904819Y-82947619D02*
X137952438Y-83042857D01*
X137952438Y-83042857D02*
X138000057Y-83090476D01*
X138000057Y-83090476D02*
X138095295Y-83138095D01*
X138095295Y-83138095D02*
X138285771Y-83185714D01*
X138285771Y-83185714D02*
X138523866Y-83185714D01*
X138523866Y-83185714D02*
X138714342Y-83138095D01*
X138714342Y-83138095D02*
X138809580Y-83090476D01*
X138809580Y-83090476D02*
X138857200Y-83042857D01*
X138857200Y-83042857D02*
X138904819Y-82947619D01*
X138904819Y-82947619D02*
X138904819Y-82852381D01*
X138904819Y-82852381D02*
X138857200Y-82757143D01*
X138857200Y-82757143D02*
X138809580Y-82709524D01*
X138809580Y-82709524D02*
X138714342Y-82661905D01*
X138714342Y-82661905D02*
X138523866Y-82614286D01*
X138523866Y-82614286D02*
X138285771Y-82614286D01*
X138285771Y-82614286D02*
X138095295Y-82661905D01*
X138095295Y-82661905D02*
X138000057Y-82709524D01*
X138000057Y-82709524D02*
X137952438Y-82757143D01*
X137952438Y-82757143D02*
X137904819Y-82852381D01*
X138238152Y-83614286D02*
X138904819Y-83614286D01*
X138333390Y-83614286D02*
X138285771Y-83661905D01*
X138285771Y-83661905D02*
X138238152Y-83757143D01*
X138238152Y-83757143D02*
X138238152Y-83900000D01*
X138238152Y-83900000D02*
X138285771Y-83995238D01*
X138285771Y-83995238D02*
X138381009Y-84042857D01*
X138381009Y-84042857D02*
X138904819Y-84042857D01*
D11*
X140269765Y-82358333D02*
X140281670Y-82346429D01*
X140281670Y-82346429D02*
X140293574Y-82310714D01*
X140293574Y-82310714D02*
X140293574Y-82286905D01*
X140293574Y-82286905D02*
X140281670Y-82251191D01*
X140281670Y-82251191D02*
X140257860Y-82227381D01*
X140257860Y-82227381D02*
X140234050Y-82215476D01*
X140234050Y-82215476D02*
X140186431Y-82203572D01*
X140186431Y-82203572D02*
X140150717Y-82203572D01*
X140150717Y-82203572D02*
X140103098Y-82215476D01*
X140103098Y-82215476D02*
X140079289Y-82227381D01*
X140079289Y-82227381D02*
X140055479Y-82251191D01*
X140055479Y-82251191D02*
X140043574Y-82286905D01*
X140043574Y-82286905D02*
X140043574Y-82310714D01*
X140043574Y-82310714D02*
X140055479Y-82346429D01*
X140055479Y-82346429D02*
X140067384Y-82358333D01*
X140043574Y-82441667D02*
X140043574Y-82608333D01*
X140043574Y-82608333D02*
X140293574Y-82501191D01*
D10*
X153504819Y-82052381D02*
X153504819Y-82147619D01*
X153504819Y-82147619D02*
X153552438Y-82242857D01*
X153552438Y-82242857D02*
X153600057Y-82290476D01*
X153600057Y-82290476D02*
X153695295Y-82338095D01*
X153695295Y-82338095D02*
X153885771Y-82385714D01*
X153885771Y-82385714D02*
X154123866Y-82385714D01*
X154123866Y-82385714D02*
X154314342Y-82338095D01*
X154314342Y-82338095D02*
X154409580Y-82290476D01*
X154409580Y-82290476D02*
X154457200Y-82242857D01*
X154457200Y-82242857D02*
X154504819Y-82147619D01*
X154504819Y-82147619D02*
X154504819Y-82052381D01*
X154504819Y-82052381D02*
X154457200Y-81957143D01*
X154457200Y-81957143D02*
X154409580Y-81909524D01*
X154409580Y-81909524D02*
X154314342Y-81861905D01*
X154314342Y-81861905D02*
X154123866Y-81814286D01*
X154123866Y-81814286D02*
X153885771Y-81814286D01*
X153885771Y-81814286D02*
X153695295Y-81861905D01*
X153695295Y-81861905D02*
X153600057Y-81909524D01*
X153600057Y-81909524D02*
X153552438Y-81957143D01*
X153552438Y-81957143D02*
X153504819Y-82052381D01*
D11*
X155893574Y-81939285D02*
X155774527Y-81855952D01*
X155893574Y-81796428D02*
X155643574Y-81796428D01*
X155643574Y-81796428D02*
X155643574Y-81891666D01*
X155643574Y-81891666D02*
X155655479Y-81915476D01*
X155655479Y-81915476D02*
X155667384Y-81927381D01*
X155667384Y-81927381D02*
X155691193Y-81939285D01*
X155691193Y-81939285D02*
X155726908Y-81939285D01*
X155726908Y-81939285D02*
X155750717Y-81927381D01*
X155750717Y-81927381D02*
X155762622Y-81915476D01*
X155762622Y-81915476D02*
X155774527Y-81891666D01*
X155774527Y-81891666D02*
X155774527Y-81796428D01*
X155667384Y-82034524D02*
X155655479Y-82046428D01*
X155655479Y-82046428D02*
X155643574Y-82070238D01*
X155643574Y-82070238D02*
X155643574Y-82129762D01*
X155643574Y-82129762D02*
X155655479Y-82153571D01*
X155655479Y-82153571D02*
X155667384Y-82165476D01*
X155667384Y-82165476D02*
X155691193Y-82177381D01*
X155691193Y-82177381D02*
X155715003Y-82177381D01*
X155715003Y-82177381D02*
X155750717Y-82165476D01*
X155750717Y-82165476D02*
X155893574Y-82022619D01*
X155893574Y-82022619D02*
X155893574Y-82177381D01*
X155643574Y-82403571D02*
X155643574Y-82284523D01*
X155643574Y-82284523D02*
X155762622Y-82272619D01*
X155762622Y-82272619D02*
X155750717Y-82284523D01*
X155750717Y-82284523D02*
X155738812Y-82308333D01*
X155738812Y-82308333D02*
X155738812Y-82367857D01*
X155738812Y-82367857D02*
X155750717Y-82391666D01*
X155750717Y-82391666D02*
X155762622Y-82403571D01*
X155762622Y-82403571D02*
X155786431Y-82415476D01*
X155786431Y-82415476D02*
X155845955Y-82415476D01*
X155845955Y-82415476D02*
X155869765Y-82403571D01*
X155869765Y-82403571D02*
X155881670Y-82391666D01*
X155881670Y-82391666D02*
X155893574Y-82367857D01*
X155893574Y-82367857D02*
X155893574Y-82308333D01*
X155893574Y-82308333D02*
X155881670Y-82284523D01*
X155881670Y-82284523D02*
X155869765Y-82272619D01*
D10*
X164863152Y-104989523D02*
X165529819Y-104989523D01*
X164482200Y-104751428D02*
X165196485Y-104513333D01*
X165196485Y-104513333D02*
X165196485Y-105132380D01*
X165529819Y-105513333D02*
X164529819Y-105513333D01*
X165148866Y-105608571D02*
X165529819Y-105894285D01*
X164863152Y-105894285D02*
X165244104Y-105513333D01*
X164529819Y-106227619D02*
X164529819Y-106894285D01*
X164529819Y-106894285D02*
X165529819Y-106465714D01*
D11*
X163458574Y-105519285D02*
X163339527Y-105435952D01*
X163458574Y-105376428D02*
X163208574Y-105376428D01*
X163208574Y-105376428D02*
X163208574Y-105471666D01*
X163208574Y-105471666D02*
X163220479Y-105495476D01*
X163220479Y-105495476D02*
X163232384Y-105507381D01*
X163232384Y-105507381D02*
X163256193Y-105519285D01*
X163256193Y-105519285D02*
X163291908Y-105519285D01*
X163291908Y-105519285D02*
X163315717Y-105507381D01*
X163315717Y-105507381D02*
X163327622Y-105495476D01*
X163327622Y-105495476D02*
X163339527Y-105471666D01*
X163339527Y-105471666D02*
X163339527Y-105376428D01*
X163232384Y-105614524D02*
X163220479Y-105626428D01*
X163220479Y-105626428D02*
X163208574Y-105650238D01*
X163208574Y-105650238D02*
X163208574Y-105709762D01*
X163208574Y-105709762D02*
X163220479Y-105733571D01*
X163220479Y-105733571D02*
X163232384Y-105745476D01*
X163232384Y-105745476D02*
X163256193Y-105757381D01*
X163256193Y-105757381D02*
X163280003Y-105757381D01*
X163280003Y-105757381D02*
X163315717Y-105745476D01*
X163315717Y-105745476D02*
X163458574Y-105602619D01*
X163458574Y-105602619D02*
X163458574Y-105757381D01*
X163232384Y-105852619D02*
X163220479Y-105864523D01*
X163220479Y-105864523D02*
X163208574Y-105888333D01*
X163208574Y-105888333D02*
X163208574Y-105947857D01*
X163208574Y-105947857D02*
X163220479Y-105971666D01*
X163220479Y-105971666D02*
X163232384Y-105983571D01*
X163232384Y-105983571D02*
X163256193Y-105995476D01*
X163256193Y-105995476D02*
X163280003Y-105995476D01*
X163280003Y-105995476D02*
X163315717Y-105983571D01*
X163315717Y-105983571D02*
X163458574Y-105840714D01*
X163458574Y-105840714D02*
X163458574Y-105995476D01*
D10*
X145000057Y-101265714D02*
X144952438Y-101313333D01*
X144952438Y-101313333D02*
X144904819Y-101408571D01*
X144904819Y-101408571D02*
X144904819Y-101646666D01*
X144904819Y-101646666D02*
X144952438Y-101741904D01*
X144952438Y-101741904D02*
X145000057Y-101789523D01*
X145000057Y-101789523D02*
X145095295Y-101837142D01*
X145095295Y-101837142D02*
X145190533Y-101837142D01*
X145190533Y-101837142D02*
X145333390Y-101789523D01*
X145333390Y-101789523D02*
X145904819Y-101218095D01*
X145904819Y-101218095D02*
X145904819Y-101837142D01*
X144904819Y-102170476D02*
X144904819Y-102837142D01*
X144904819Y-102837142D02*
X145904819Y-102408571D01*
X145238152Y-103218095D02*
X146238152Y-103218095D01*
X145285771Y-103218095D02*
X145238152Y-103313333D01*
X145238152Y-103313333D02*
X145238152Y-103503809D01*
X145238152Y-103503809D02*
X145285771Y-103599047D01*
X145285771Y-103599047D02*
X145333390Y-103646666D01*
X145333390Y-103646666D02*
X145428628Y-103694285D01*
X145428628Y-103694285D02*
X145714342Y-103694285D01*
X145714342Y-103694285D02*
X145809580Y-103646666D01*
X145809580Y-103646666D02*
X145857200Y-103599047D01*
X145857200Y-103599047D02*
X145904819Y-103503809D01*
X145904819Y-103503809D02*
X145904819Y-103313333D01*
X145904819Y-103313333D02*
X145857200Y-103218095D01*
D11*
X143809765Y-102319285D02*
X143821670Y-102307381D01*
X143821670Y-102307381D02*
X143833574Y-102271666D01*
X143833574Y-102271666D02*
X143833574Y-102247857D01*
X143833574Y-102247857D02*
X143821670Y-102212143D01*
X143821670Y-102212143D02*
X143797860Y-102188333D01*
X143797860Y-102188333D02*
X143774050Y-102176428D01*
X143774050Y-102176428D02*
X143726431Y-102164524D01*
X143726431Y-102164524D02*
X143690717Y-102164524D01*
X143690717Y-102164524D02*
X143643098Y-102176428D01*
X143643098Y-102176428D02*
X143619289Y-102188333D01*
X143619289Y-102188333D02*
X143595479Y-102212143D01*
X143595479Y-102212143D02*
X143583574Y-102247857D01*
X143583574Y-102247857D02*
X143583574Y-102271666D01*
X143583574Y-102271666D02*
X143595479Y-102307381D01*
X143595479Y-102307381D02*
X143607384Y-102319285D01*
X143833574Y-102557381D02*
X143833574Y-102414524D01*
X143833574Y-102485952D02*
X143583574Y-102485952D01*
X143583574Y-102485952D02*
X143619289Y-102462143D01*
X143619289Y-102462143D02*
X143643098Y-102438333D01*
X143643098Y-102438333D02*
X143655003Y-102414524D01*
X143666908Y-102771666D02*
X143833574Y-102771666D01*
X143571670Y-102712142D02*
X143750241Y-102652619D01*
X143750241Y-102652619D02*
X143750241Y-102807380D01*
D10*
X140590594Y-95950057D02*
X140542975Y-95902438D01*
X140542975Y-95902438D02*
X140447737Y-95854819D01*
X140447737Y-95854819D02*
X140209642Y-95854819D01*
X140209642Y-95854819D02*
X140114404Y-95902438D01*
X140114404Y-95902438D02*
X140066785Y-95950057D01*
X140066785Y-95950057D02*
X140019166Y-96045295D01*
X140019166Y-96045295D02*
X140019166Y-96140533D01*
X140019166Y-96140533D02*
X140066785Y-96283390D01*
X140066785Y-96283390D02*
X140638213Y-96854819D01*
X140638213Y-96854819D02*
X140019166Y-96854819D01*
X139590594Y-96188152D02*
X139590594Y-97188152D01*
X139590594Y-96235771D02*
X139495356Y-96188152D01*
X139495356Y-96188152D02*
X139304880Y-96188152D01*
X139304880Y-96188152D02*
X139209642Y-96235771D01*
X139209642Y-96235771D02*
X139162023Y-96283390D01*
X139162023Y-96283390D02*
X139114404Y-96378628D01*
X139114404Y-96378628D02*
X139114404Y-96664342D01*
X139114404Y-96664342D02*
X139162023Y-96759580D01*
X139162023Y-96759580D02*
X139209642Y-96807200D01*
X139209642Y-96807200D02*
X139304880Y-96854819D01*
X139304880Y-96854819D02*
X139495356Y-96854819D01*
X139495356Y-96854819D02*
X139590594Y-96807200D01*
D11*
X140013214Y-98219765D02*
X140025118Y-98231670D01*
X140025118Y-98231670D02*
X140060833Y-98243574D01*
X140060833Y-98243574D02*
X140084642Y-98243574D01*
X140084642Y-98243574D02*
X140120356Y-98231670D01*
X140120356Y-98231670D02*
X140144166Y-98207860D01*
X140144166Y-98207860D02*
X140156071Y-98184050D01*
X140156071Y-98184050D02*
X140167975Y-98136431D01*
X140167975Y-98136431D02*
X140167975Y-98100717D01*
X140167975Y-98100717D02*
X140156071Y-98053098D01*
X140156071Y-98053098D02*
X140144166Y-98029289D01*
X140144166Y-98029289D02*
X140120356Y-98005479D01*
X140120356Y-98005479D02*
X140084642Y-97993574D01*
X140084642Y-97993574D02*
X140060833Y-97993574D01*
X140060833Y-97993574D02*
X140025118Y-98005479D01*
X140025118Y-98005479D02*
X140013214Y-98017384D01*
X139775118Y-98243574D02*
X139917975Y-98243574D01*
X139846547Y-98243574D02*
X139846547Y-97993574D01*
X139846547Y-97993574D02*
X139870356Y-98029289D01*
X139870356Y-98029289D02*
X139894166Y-98053098D01*
X139894166Y-98053098D02*
X139917975Y-98065003D01*
X139679880Y-98017384D02*
X139667976Y-98005479D01*
X139667976Y-98005479D02*
X139644166Y-97993574D01*
X139644166Y-97993574D02*
X139584642Y-97993574D01*
X139584642Y-97993574D02*
X139560833Y-98005479D01*
X139560833Y-98005479D02*
X139548928Y-98017384D01*
X139548928Y-98017384D02*
X139537023Y-98041193D01*
X139537023Y-98041193D02*
X139537023Y-98065003D01*
X139537023Y-98065003D02*
X139548928Y-98100717D01*
X139548928Y-98100717D02*
X139691785Y-98243574D01*
X139691785Y-98243574D02*
X139537023Y-98243574D01*
D10*
X164329819Y-106060952D02*
X164329819Y-105489524D01*
X164329819Y-105775238D02*
X163329819Y-105775238D01*
X163329819Y-105775238D02*
X163472676Y-105680000D01*
X163472676Y-105680000D02*
X163567914Y-105584762D01*
X163567914Y-105584762D02*
X163615533Y-105489524D01*
X163329819Y-106680000D02*
X163329819Y-106775238D01*
X163329819Y-106775238D02*
X163377438Y-106870476D01*
X163377438Y-106870476D02*
X163425057Y-106918095D01*
X163425057Y-106918095D02*
X163520295Y-106965714D01*
X163520295Y-106965714D02*
X163710771Y-107013333D01*
X163710771Y-107013333D02*
X163948866Y-107013333D01*
X163948866Y-107013333D02*
X164139342Y-106965714D01*
X164139342Y-106965714D02*
X164234580Y-106918095D01*
X164234580Y-106918095D02*
X164282200Y-106870476D01*
X164282200Y-106870476D02*
X164329819Y-106775238D01*
X164329819Y-106775238D02*
X164329819Y-106680000D01*
X164329819Y-106680000D02*
X164282200Y-106584762D01*
X164282200Y-106584762D02*
X164234580Y-106537143D01*
X164234580Y-106537143D02*
X164139342Y-106489524D01*
X164139342Y-106489524D02*
X163948866Y-106441905D01*
X163948866Y-106441905D02*
X163710771Y-106441905D01*
X163710771Y-106441905D02*
X163520295Y-106489524D01*
X163520295Y-106489524D02*
X163425057Y-106537143D01*
X163425057Y-106537143D02*
X163377438Y-106584762D01*
X163377438Y-106584762D02*
X163329819Y-106680000D01*
X163329819Y-107632381D02*
X163329819Y-107727619D01*
X163329819Y-107727619D02*
X163377438Y-107822857D01*
X163377438Y-107822857D02*
X163425057Y-107870476D01*
X163425057Y-107870476D02*
X163520295Y-107918095D01*
X163520295Y-107918095D02*
X163710771Y-107965714D01*
X163710771Y-107965714D02*
X163948866Y-107965714D01*
X163948866Y-107965714D02*
X164139342Y-107918095D01*
X164139342Y-107918095D02*
X164234580Y-107870476D01*
X164234580Y-107870476D02*
X164282200Y-107822857D01*
X164282200Y-107822857D02*
X164329819Y-107727619D01*
X164329819Y-107727619D02*
X164329819Y-107632381D01*
X164329819Y-107632381D02*
X164282200Y-107537143D01*
X164282200Y-107537143D02*
X164234580Y-107489524D01*
X164234580Y-107489524D02*
X164139342Y-107441905D01*
X164139342Y-107441905D02*
X163948866Y-107394286D01*
X163948866Y-107394286D02*
X163710771Y-107394286D01*
X163710771Y-107394286D02*
X163520295Y-107441905D01*
X163520295Y-107441905D02*
X163425057Y-107489524D01*
X163425057Y-107489524D02*
X163377438Y-107537143D01*
X163377438Y-107537143D02*
X163329819Y-107632381D01*
X163663152Y-108394286D02*
X164329819Y-108394286D01*
X163758390Y-108394286D02*
X163710771Y-108441905D01*
X163710771Y-108441905D02*
X163663152Y-108537143D01*
X163663152Y-108537143D02*
X163663152Y-108680000D01*
X163663152Y-108680000D02*
X163710771Y-108775238D01*
X163710771Y-108775238D02*
X163806009Y-108822857D01*
X163806009Y-108822857D02*
X164329819Y-108822857D01*
D11*
X165694765Y-107019285D02*
X165706670Y-107007381D01*
X165706670Y-107007381D02*
X165718574Y-106971666D01*
X165718574Y-106971666D02*
X165718574Y-106947857D01*
X165718574Y-106947857D02*
X165706670Y-106912143D01*
X165706670Y-106912143D02*
X165682860Y-106888333D01*
X165682860Y-106888333D02*
X165659050Y-106876428D01*
X165659050Y-106876428D02*
X165611431Y-106864524D01*
X165611431Y-106864524D02*
X165575717Y-106864524D01*
X165575717Y-106864524D02*
X165528098Y-106876428D01*
X165528098Y-106876428D02*
X165504289Y-106888333D01*
X165504289Y-106888333D02*
X165480479Y-106912143D01*
X165480479Y-106912143D02*
X165468574Y-106947857D01*
X165468574Y-106947857D02*
X165468574Y-106971666D01*
X165468574Y-106971666D02*
X165480479Y-107007381D01*
X165480479Y-107007381D02*
X165492384Y-107019285D01*
X165492384Y-107114524D02*
X165480479Y-107126428D01*
X165480479Y-107126428D02*
X165468574Y-107150238D01*
X165468574Y-107150238D02*
X165468574Y-107209762D01*
X165468574Y-107209762D02*
X165480479Y-107233571D01*
X165480479Y-107233571D02*
X165492384Y-107245476D01*
X165492384Y-107245476D02*
X165516193Y-107257381D01*
X165516193Y-107257381D02*
X165540003Y-107257381D01*
X165540003Y-107257381D02*
X165575717Y-107245476D01*
X165575717Y-107245476D02*
X165718574Y-107102619D01*
X165718574Y-107102619D02*
X165718574Y-107257381D01*
X165718574Y-107376428D02*
X165718574Y-107424047D01*
X165718574Y-107424047D02*
X165706670Y-107447857D01*
X165706670Y-107447857D02*
X165694765Y-107459761D01*
X165694765Y-107459761D02*
X165659050Y-107483571D01*
X165659050Y-107483571D02*
X165611431Y-107495476D01*
X165611431Y-107495476D02*
X165516193Y-107495476D01*
X165516193Y-107495476D02*
X165492384Y-107483571D01*
X165492384Y-107483571D02*
X165480479Y-107471666D01*
X165480479Y-107471666D02*
X165468574Y-107447857D01*
X165468574Y-107447857D02*
X165468574Y-107400238D01*
X165468574Y-107400238D02*
X165480479Y-107376428D01*
X165480479Y-107376428D02*
X165492384Y-107364523D01*
X165492384Y-107364523D02*
X165516193Y-107352619D01*
X165516193Y-107352619D02*
X165575717Y-107352619D01*
X165575717Y-107352619D02*
X165599527Y-107364523D01*
X165599527Y-107364523D02*
X165611431Y-107376428D01*
X165611431Y-107376428D02*
X165623336Y-107400238D01*
X165623336Y-107400238D02*
X165623336Y-107447857D01*
X165623336Y-107447857D02*
X165611431Y-107471666D01*
X165611431Y-107471666D02*
X165599527Y-107483571D01*
X165599527Y-107483571D02*
X165575717Y-107495476D01*
D10*
X151531001Y-117357814D02*
X151531001Y-116570105D01*
X151531001Y-116570105D02*
X151343451Y-116570105D01*
X151343451Y-116570105D02*
X151230921Y-116607615D01*
X151230921Y-116607615D02*
X151155901Y-116682635D01*
X151155901Y-116682635D02*
X151118391Y-116757655D01*
X151118391Y-116757655D02*
X151080881Y-116907695D01*
X151080881Y-116907695D02*
X151080881Y-117020225D01*
X151080881Y-117020225D02*
X151118391Y-117170265D01*
X151118391Y-117170265D02*
X151155901Y-117245285D01*
X151155901Y-117245285D02*
X151230921Y-117320305D01*
X151230921Y-117320305D02*
X151343451Y-117357814D01*
X151343451Y-117357814D02*
X151531001Y-117357814D01*
X150480722Y-116945205D02*
X150743292Y-116945205D01*
X150743292Y-117357814D02*
X150743292Y-116570105D01*
X150743292Y-116570105D02*
X150368192Y-116570105D01*
X149730523Y-116832675D02*
X149730523Y-117357814D01*
X149918073Y-116532596D02*
X150105623Y-117095245D01*
X150105623Y-117095245D02*
X149617993Y-117095245D01*
X149167874Y-116570105D02*
X149092854Y-116570105D01*
X149092854Y-116570105D02*
X149017834Y-116607615D01*
X149017834Y-116607615D02*
X148980324Y-116645125D01*
X148980324Y-116645125D02*
X148942814Y-116720145D01*
X148942814Y-116720145D02*
X148905304Y-116870185D01*
X148905304Y-116870185D02*
X148905304Y-117057735D01*
X148905304Y-117057735D02*
X148942814Y-117207775D01*
X148942814Y-117207775D02*
X148980324Y-117282795D01*
X148980324Y-117282795D02*
X149017834Y-117320305D01*
X149017834Y-117320305D02*
X149092854Y-117357814D01*
X149092854Y-117357814D02*
X149167874Y-117357814D01*
X149167874Y-117357814D02*
X149242894Y-117320305D01*
X149242894Y-117320305D02*
X149280404Y-117282795D01*
X149280404Y-117282795D02*
X149317914Y-117207775D01*
X149317914Y-117207775D02*
X149355424Y-117057735D01*
X149355424Y-117057735D02*
X149355424Y-116870185D01*
X149355424Y-116870185D02*
X149317914Y-116720145D01*
X149317914Y-116720145D02*
X149280404Y-116645125D01*
X149280404Y-116645125D02*
X149242894Y-116607615D01*
X149242894Y-116607615D02*
X149167874Y-116570105D01*
X148117595Y-117282795D02*
X148155105Y-117320305D01*
X148155105Y-117320305D02*
X148267635Y-117357814D01*
X148267635Y-117357814D02*
X148342655Y-117357814D01*
X148342655Y-117357814D02*
X148455185Y-117320305D01*
X148455185Y-117320305D02*
X148530205Y-117245285D01*
X148530205Y-117245285D02*
X148567715Y-117170265D01*
X148567715Y-117170265D02*
X148605225Y-117020225D01*
X148605225Y-117020225D02*
X148605225Y-116907695D01*
X148605225Y-116907695D02*
X148567715Y-116757655D01*
X148567715Y-116757655D02*
X148530205Y-116682635D01*
X148530205Y-116682635D02*
X148455185Y-116607615D01*
X148455185Y-116607615D02*
X148342655Y-116570105D01*
X148342655Y-116570105D02*
X148267635Y-116570105D01*
X148267635Y-116570105D02*
X148155105Y-116607615D01*
X148155105Y-116607615D02*
X148117595Y-116645125D01*
X147780006Y-117057735D02*
X147179847Y-117057735D01*
X146429647Y-116570105D02*
X146804747Y-116570105D01*
X146804747Y-116570105D02*
X146842257Y-116945205D01*
X146842257Y-116945205D02*
X146804747Y-116907695D01*
X146804747Y-116907695D02*
X146729727Y-116870185D01*
X146729727Y-116870185D02*
X146542177Y-116870185D01*
X146542177Y-116870185D02*
X146467157Y-116907695D01*
X146467157Y-116907695D02*
X146429647Y-116945205D01*
X146429647Y-116945205D02*
X146392137Y-117020225D01*
X146392137Y-117020225D02*
X146392137Y-117207775D01*
X146392137Y-117207775D02*
X146429647Y-117282795D01*
X146429647Y-117282795D02*
X146467157Y-117320305D01*
X146467157Y-117320305D02*
X146542177Y-117357814D01*
X146542177Y-117357814D02*
X146729727Y-117357814D01*
X146729727Y-117357814D02*
X146804747Y-117320305D01*
X146804747Y-117320305D02*
X146842257Y-117282795D01*
X145904508Y-116570105D02*
X145829488Y-116570105D01*
X145829488Y-116570105D02*
X145754468Y-116607615D01*
X145754468Y-116607615D02*
X145716958Y-116645125D01*
X145716958Y-116645125D02*
X145679448Y-116720145D01*
X145679448Y-116720145D02*
X145641938Y-116870185D01*
X145641938Y-116870185D02*
X145641938Y-117057735D01*
X145641938Y-117057735D02*
X145679448Y-117207775D01*
X145679448Y-117207775D02*
X145716958Y-117282795D01*
X145716958Y-117282795D02*
X145754468Y-117320305D01*
X145754468Y-117320305D02*
X145829488Y-117357814D01*
X145829488Y-117357814D02*
X145904508Y-117357814D01*
X145904508Y-117357814D02*
X145979528Y-117320305D01*
X145979528Y-117320305D02*
X146017038Y-117282795D01*
X146017038Y-117282795D02*
X146054548Y-117207775D01*
X146054548Y-117207775D02*
X146092058Y-117057735D01*
X146092058Y-117057735D02*
X146092058Y-116870185D01*
X146092058Y-116870185D02*
X146054548Y-116720145D01*
X146054548Y-116720145D02*
X146017038Y-116645125D01*
X146017038Y-116645125D02*
X145979528Y-116607615D01*
X145979528Y-116607615D02*
X145904508Y-116570105D01*
X145304349Y-117357814D02*
X145304349Y-116570105D01*
X145304349Y-116570105D02*
X145116799Y-116570105D01*
X145116799Y-116570105D02*
X145004269Y-116607615D01*
X145004269Y-116607615D02*
X144929249Y-116682635D01*
X144929249Y-116682635D02*
X144891739Y-116757655D01*
X144891739Y-116757655D02*
X144854229Y-116907695D01*
X144854229Y-116907695D02*
X144854229Y-117020225D01*
X144854229Y-117020225D02*
X144891739Y-117170265D01*
X144891739Y-117170265D02*
X144929249Y-117245285D01*
X144929249Y-117245285D02*
X145004269Y-117320305D01*
X145004269Y-117320305D02*
X145116799Y-117357814D01*
X145116799Y-117357814D02*
X145304349Y-117357814D01*
X144554150Y-117320305D02*
X144441620Y-117357814D01*
X144441620Y-117357814D02*
X144254070Y-117357814D01*
X144254070Y-117357814D02*
X144179050Y-117320305D01*
X144179050Y-117320305D02*
X144141540Y-117282795D01*
X144141540Y-117282795D02*
X144104030Y-117207775D01*
X144104030Y-117207775D02*
X144104030Y-117132755D01*
X144104030Y-117132755D02*
X144141540Y-117057735D01*
X144141540Y-117057735D02*
X144179050Y-117020225D01*
X144179050Y-117020225D02*
X144254070Y-116982715D01*
X144254070Y-116982715D02*
X144404110Y-116945205D01*
X144404110Y-116945205D02*
X144479130Y-116907695D01*
X144479130Y-116907695D02*
X144516640Y-116870185D01*
X144516640Y-116870185D02*
X144554150Y-116795165D01*
X144554150Y-116795165D02*
X144554150Y-116720145D01*
X144554150Y-116720145D02*
X144516640Y-116645125D01*
X144516640Y-116645125D02*
X144479130Y-116607615D01*
X144479130Y-116607615D02*
X144404110Y-116570105D01*
X144404110Y-116570105D02*
X144216560Y-116570105D01*
X144216560Y-116570105D02*
X144104030Y-116607615D01*
X143766441Y-117057735D02*
X143166282Y-117057735D01*
X142641142Y-116570105D02*
X142566122Y-116570105D01*
X142566122Y-116570105D02*
X142491102Y-116607615D01*
X142491102Y-116607615D02*
X142453592Y-116645125D01*
X142453592Y-116645125D02*
X142416082Y-116720145D01*
X142416082Y-116720145D02*
X142378572Y-116870185D01*
X142378572Y-116870185D02*
X142378572Y-117057735D01*
X142378572Y-117057735D02*
X142416082Y-117207775D01*
X142416082Y-117207775D02*
X142453592Y-117282795D01*
X142453592Y-117282795D02*
X142491102Y-117320305D01*
X142491102Y-117320305D02*
X142566122Y-117357814D01*
X142566122Y-117357814D02*
X142641142Y-117357814D01*
X142641142Y-117357814D02*
X142716162Y-117320305D01*
X142716162Y-117320305D02*
X142753672Y-117282795D01*
X142753672Y-117282795D02*
X142791182Y-117207775D01*
X142791182Y-117207775D02*
X142828692Y-117057735D01*
X142828692Y-117057735D02*
X142828692Y-116870185D01*
X142828692Y-116870185D02*
X142791182Y-116720145D01*
X142791182Y-116720145D02*
X142753672Y-116645125D01*
X142753672Y-116645125D02*
X142716162Y-116607615D01*
X142716162Y-116607615D02*
X142641142Y-116570105D01*
X142040983Y-117282795D02*
X142003473Y-117320305D01*
X142003473Y-117320305D02*
X142040983Y-117357814D01*
X142040983Y-117357814D02*
X142078493Y-117320305D01*
X142078493Y-117320305D02*
X142040983Y-117282795D01*
X142040983Y-117282795D02*
X142040983Y-117357814D01*
X141328293Y-116832675D02*
X141328293Y-117357814D01*
X141515843Y-116532596D02*
X141703393Y-117095245D01*
X141703393Y-117095245D02*
X141215763Y-117095245D01*
X141028214Y-116570105D02*
X140765644Y-117357814D01*
X140765644Y-117357814D02*
X140503074Y-116570105D01*
X140015445Y-117657894D02*
X140052955Y-117620384D01*
X140052955Y-117620384D02*
X140127975Y-117507854D01*
X140127975Y-117507854D02*
X140165485Y-117432834D01*
X140165485Y-117432834D02*
X140202995Y-117320305D01*
X140202995Y-117320305D02*
X140240505Y-117132755D01*
X140240505Y-117132755D02*
X140240505Y-116982715D01*
X140240505Y-116982715D02*
X140202995Y-116795165D01*
X140202995Y-116795165D02*
X140165485Y-116682635D01*
X140165485Y-116682635D02*
X140127975Y-116607615D01*
X140127975Y-116607615D02*
X140052955Y-116495086D01*
X140052955Y-116495086D02*
X140015445Y-116457576D01*
X139340266Y-116570105D02*
X139715366Y-116570105D01*
X139715366Y-116570105D02*
X139752876Y-116945205D01*
X139752876Y-116945205D02*
X139715366Y-116907695D01*
X139715366Y-116907695D02*
X139640346Y-116870185D01*
X139640346Y-116870185D02*
X139452796Y-116870185D01*
X139452796Y-116870185D02*
X139377776Y-116907695D01*
X139377776Y-116907695D02*
X139340266Y-116945205D01*
X139340266Y-116945205D02*
X139302756Y-117020225D01*
X139302756Y-117020225D02*
X139302756Y-117207775D01*
X139302756Y-117207775D02*
X139340266Y-117282795D01*
X139340266Y-117282795D02*
X139377776Y-117320305D01*
X139377776Y-117320305D02*
X139452796Y-117357814D01*
X139452796Y-117357814D02*
X139640346Y-117357814D01*
X139640346Y-117357814D02*
X139715366Y-117320305D01*
X139715366Y-117320305D02*
X139752876Y-117282795D01*
X138552557Y-117357814D02*
X139002677Y-117357814D01*
X138777617Y-117357814D02*
X138777617Y-116570105D01*
X138777617Y-116570105D02*
X138852637Y-116682635D01*
X138852637Y-116682635D02*
X138927657Y-116757655D01*
X138927657Y-116757655D02*
X139002677Y-116795165D01*
X138289988Y-117657894D02*
X138252478Y-117620384D01*
X138252478Y-117620384D02*
X138177458Y-117507854D01*
X138177458Y-117507854D02*
X138139948Y-117432834D01*
X138139948Y-117432834D02*
X138102438Y-117320305D01*
X138102438Y-117320305D02*
X138064928Y-117132755D01*
X138064928Y-117132755D02*
X138064928Y-116982715D01*
X138064928Y-116982715D02*
X138102438Y-116795165D01*
X138102438Y-116795165D02*
X138139948Y-116682635D01*
X138139948Y-116682635D02*
X138177458Y-116607615D01*
X138177458Y-116607615D02*
X138252478Y-116495086D01*
X138252478Y-116495086D02*
X138289988Y-116457576D01*
X161529819Y-106941904D02*
X161529819Y-106465714D01*
X161529819Y-106465714D02*
X162006009Y-106418095D01*
X162006009Y-106418095D02*
X161958390Y-106465714D01*
X161958390Y-106465714D02*
X161910771Y-106560952D01*
X161910771Y-106560952D02*
X161910771Y-106799047D01*
X161910771Y-106799047D02*
X161958390Y-106894285D01*
X161958390Y-106894285D02*
X162006009Y-106941904D01*
X162006009Y-106941904D02*
X162101247Y-106989523D01*
X162101247Y-106989523D02*
X162339342Y-106989523D01*
X162339342Y-106989523D02*
X162434580Y-106941904D01*
X162434580Y-106941904D02*
X162482200Y-106894285D01*
X162482200Y-106894285D02*
X162529819Y-106799047D01*
X162529819Y-106799047D02*
X162529819Y-106560952D01*
X162529819Y-106560952D02*
X162482200Y-106465714D01*
X162482200Y-106465714D02*
X162434580Y-106418095D01*
X161529819Y-107846666D02*
X161529819Y-107656190D01*
X161529819Y-107656190D02*
X161577438Y-107560952D01*
X161577438Y-107560952D02*
X161625057Y-107513333D01*
X161625057Y-107513333D02*
X161767914Y-107418095D01*
X161767914Y-107418095D02*
X161958390Y-107370476D01*
X161958390Y-107370476D02*
X162339342Y-107370476D01*
X162339342Y-107370476D02*
X162434580Y-107418095D01*
X162434580Y-107418095D02*
X162482200Y-107465714D01*
X162482200Y-107465714D02*
X162529819Y-107560952D01*
X162529819Y-107560952D02*
X162529819Y-107751428D01*
X162529819Y-107751428D02*
X162482200Y-107846666D01*
X162482200Y-107846666D02*
X162434580Y-107894285D01*
X162434580Y-107894285D02*
X162339342Y-107941904D01*
X162339342Y-107941904D02*
X162101247Y-107941904D01*
X162101247Y-107941904D02*
X162006009Y-107894285D01*
X162006009Y-107894285D02*
X161958390Y-107846666D01*
X161958390Y-107846666D02*
X161910771Y-107751428D01*
X161910771Y-107751428D02*
X161910771Y-107560952D01*
X161910771Y-107560952D02*
X161958390Y-107465714D01*
X161958390Y-107465714D02*
X162006009Y-107418095D01*
X162006009Y-107418095D02*
X162101247Y-107370476D01*
D11*
X163918574Y-107019285D02*
X163799527Y-106935952D01*
X163918574Y-106876428D02*
X163668574Y-106876428D01*
X163668574Y-106876428D02*
X163668574Y-106971666D01*
X163668574Y-106971666D02*
X163680479Y-106995476D01*
X163680479Y-106995476D02*
X163692384Y-107007381D01*
X163692384Y-107007381D02*
X163716193Y-107019285D01*
X163716193Y-107019285D02*
X163751908Y-107019285D01*
X163751908Y-107019285D02*
X163775717Y-107007381D01*
X163775717Y-107007381D02*
X163787622Y-106995476D01*
X163787622Y-106995476D02*
X163799527Y-106971666D01*
X163799527Y-106971666D02*
X163799527Y-106876428D01*
X163692384Y-107114524D02*
X163680479Y-107126428D01*
X163680479Y-107126428D02*
X163668574Y-107150238D01*
X163668574Y-107150238D02*
X163668574Y-107209762D01*
X163668574Y-107209762D02*
X163680479Y-107233571D01*
X163680479Y-107233571D02*
X163692384Y-107245476D01*
X163692384Y-107245476D02*
X163716193Y-107257381D01*
X163716193Y-107257381D02*
X163740003Y-107257381D01*
X163740003Y-107257381D02*
X163775717Y-107245476D01*
X163775717Y-107245476D02*
X163918574Y-107102619D01*
X163918574Y-107102619D02*
X163918574Y-107257381D01*
X163751908Y-107471666D02*
X163918574Y-107471666D01*
X163656670Y-107412142D02*
X163835241Y-107352619D01*
X163835241Y-107352619D02*
X163835241Y-107507380D01*
D10*
X141214285Y-94004819D02*
X141690475Y-94004819D01*
X141690475Y-94004819D02*
X141738094Y-94481009D01*
X141738094Y-94481009D02*
X141690475Y-94433390D01*
X141690475Y-94433390D02*
X141595237Y-94385771D01*
X141595237Y-94385771D02*
X141357142Y-94385771D01*
X141357142Y-94385771D02*
X141261904Y-94433390D01*
X141261904Y-94433390D02*
X141214285Y-94481009D01*
X141214285Y-94481009D02*
X141166666Y-94576247D01*
X141166666Y-94576247D02*
X141166666Y-94814342D01*
X141166666Y-94814342D02*
X141214285Y-94909580D01*
X141214285Y-94909580D02*
X141261904Y-94957200D01*
X141261904Y-94957200D02*
X141357142Y-95004819D01*
X141357142Y-95004819D02*
X141595237Y-95004819D01*
X141595237Y-95004819D02*
X141690475Y-94957200D01*
X141690475Y-94957200D02*
X141738094Y-94909580D01*
X140309523Y-94004819D02*
X140499999Y-94004819D01*
X140499999Y-94004819D02*
X140595237Y-94052438D01*
X140595237Y-94052438D02*
X140642856Y-94100057D01*
X140642856Y-94100057D02*
X140738094Y-94242914D01*
X140738094Y-94242914D02*
X140785713Y-94433390D01*
X140785713Y-94433390D02*
X140785713Y-94814342D01*
X140785713Y-94814342D02*
X140738094Y-94909580D01*
X140738094Y-94909580D02*
X140690475Y-94957200D01*
X140690475Y-94957200D02*
X140595237Y-95004819D01*
X140595237Y-95004819D02*
X140404761Y-95004819D01*
X140404761Y-95004819D02*
X140309523Y-94957200D01*
X140309523Y-94957200D02*
X140261904Y-94909580D01*
X140261904Y-94909580D02*
X140214285Y-94814342D01*
X140214285Y-94814342D02*
X140214285Y-94576247D01*
X140214285Y-94576247D02*
X140261904Y-94481009D01*
X140261904Y-94481009D02*
X140309523Y-94433390D01*
X140309523Y-94433390D02*
X140404761Y-94385771D01*
X140404761Y-94385771D02*
X140595237Y-94385771D01*
X140595237Y-94385771D02*
X140690475Y-94433390D01*
X140690475Y-94433390D02*
X140738094Y-94481009D01*
X140738094Y-94481009D02*
X140785713Y-94576247D01*
X139595237Y-94004819D02*
X139499999Y-94004819D01*
X139499999Y-94004819D02*
X139404761Y-94052438D01*
X139404761Y-94052438D02*
X139357142Y-94100057D01*
X139357142Y-94100057D02*
X139309523Y-94195295D01*
X139309523Y-94195295D02*
X139261904Y-94385771D01*
X139261904Y-94385771D02*
X139261904Y-94623866D01*
X139261904Y-94623866D02*
X139309523Y-94814342D01*
X139309523Y-94814342D02*
X139357142Y-94909580D01*
X139357142Y-94909580D02*
X139404761Y-94957200D01*
X139404761Y-94957200D02*
X139499999Y-95004819D01*
X139499999Y-95004819D02*
X139595237Y-95004819D01*
X139595237Y-95004819D02*
X139690475Y-94957200D01*
X139690475Y-94957200D02*
X139738094Y-94909580D01*
X139738094Y-94909580D02*
X139785713Y-94814342D01*
X139785713Y-94814342D02*
X139833332Y-94623866D01*
X139833332Y-94623866D02*
X139833332Y-94385771D01*
X139833332Y-94385771D02*
X139785713Y-94195295D01*
X139785713Y-94195295D02*
X139738094Y-94100057D01*
X139738094Y-94100057D02*
X139690475Y-94052438D01*
X139690475Y-94052438D02*
X139595237Y-94004819D01*
D11*
X140541666Y-92933574D02*
X140624999Y-92814527D01*
X140684523Y-92933574D02*
X140684523Y-92683574D01*
X140684523Y-92683574D02*
X140589285Y-92683574D01*
X140589285Y-92683574D02*
X140565475Y-92695479D01*
X140565475Y-92695479D02*
X140553570Y-92707384D01*
X140553570Y-92707384D02*
X140541666Y-92731193D01*
X140541666Y-92731193D02*
X140541666Y-92766908D01*
X140541666Y-92766908D02*
X140553570Y-92790717D01*
X140553570Y-92790717D02*
X140565475Y-92802622D01*
X140565475Y-92802622D02*
X140589285Y-92814527D01*
X140589285Y-92814527D02*
X140684523Y-92814527D01*
X140327380Y-92766908D02*
X140327380Y-92933574D01*
X140386904Y-92671670D02*
X140446427Y-92850241D01*
X140446427Y-92850241D02*
X140291666Y-92850241D01*
D10*
X138819047Y-103204819D02*
X139390475Y-103204819D01*
X139104761Y-103204819D02*
X139104761Y-102204819D01*
X139104761Y-102204819D02*
X139199999Y-102347676D01*
X139199999Y-102347676D02*
X139295237Y-102442914D01*
X139295237Y-102442914D02*
X139390475Y-102490533D01*
X137914285Y-102204819D02*
X138390475Y-102204819D01*
X138390475Y-102204819D02*
X138438094Y-102681009D01*
X138438094Y-102681009D02*
X138390475Y-102633390D01*
X138390475Y-102633390D02*
X138295237Y-102585771D01*
X138295237Y-102585771D02*
X138057142Y-102585771D01*
X138057142Y-102585771D02*
X137961904Y-102633390D01*
X137961904Y-102633390D02*
X137914285Y-102681009D01*
X137914285Y-102681009D02*
X137866666Y-102776247D01*
X137866666Y-102776247D02*
X137866666Y-103014342D01*
X137866666Y-103014342D02*
X137914285Y-103109580D01*
X137914285Y-103109580D02*
X137961904Y-103157200D01*
X137961904Y-103157200D02*
X138057142Y-103204819D01*
X138057142Y-103204819D02*
X138295237Y-103204819D01*
X138295237Y-103204819D02*
X138390475Y-103157200D01*
X138390475Y-103157200D02*
X138438094Y-103109580D01*
X137247618Y-102204819D02*
X137152380Y-102204819D01*
X137152380Y-102204819D02*
X137057142Y-102252438D01*
X137057142Y-102252438D02*
X137009523Y-102300057D01*
X137009523Y-102300057D02*
X136961904Y-102395295D01*
X136961904Y-102395295D02*
X136914285Y-102585771D01*
X136914285Y-102585771D02*
X136914285Y-102823866D01*
X136914285Y-102823866D02*
X136961904Y-103014342D01*
X136961904Y-103014342D02*
X137009523Y-103109580D01*
X137009523Y-103109580D02*
X137057142Y-103157200D01*
X137057142Y-103157200D02*
X137152380Y-103204819D01*
X137152380Y-103204819D02*
X137247618Y-103204819D01*
X137247618Y-103204819D02*
X137342856Y-103157200D01*
X137342856Y-103157200D02*
X137390475Y-103109580D01*
X137390475Y-103109580D02*
X137438094Y-103014342D01*
X137438094Y-103014342D02*
X137485713Y-102823866D01*
X137485713Y-102823866D02*
X137485713Y-102585771D01*
X137485713Y-102585771D02*
X137438094Y-102395295D01*
X137438094Y-102395295D02*
X137390475Y-102300057D01*
X137390475Y-102300057D02*
X137342856Y-102252438D01*
X137342856Y-102252438D02*
X137247618Y-102204819D01*
X136485713Y-102538152D02*
X136485713Y-103538152D01*
X136485713Y-102585771D02*
X136390475Y-102538152D01*
X136390475Y-102538152D02*
X136199999Y-102538152D01*
X136199999Y-102538152D02*
X136104761Y-102585771D01*
X136104761Y-102585771D02*
X136057142Y-102633390D01*
X136057142Y-102633390D02*
X136009523Y-102728628D01*
X136009523Y-102728628D02*
X136009523Y-103014342D01*
X136009523Y-103014342D02*
X136057142Y-103109580D01*
X136057142Y-103109580D02*
X136104761Y-103157200D01*
X136104761Y-103157200D02*
X136199999Y-103204819D01*
X136199999Y-103204819D02*
X136390475Y-103204819D01*
X136390475Y-103204819D02*
X136485713Y-103157200D01*
D11*
X137741666Y-104569765D02*
X137753570Y-104581670D01*
X137753570Y-104581670D02*
X137789285Y-104593574D01*
X137789285Y-104593574D02*
X137813094Y-104593574D01*
X137813094Y-104593574D02*
X137848808Y-104581670D01*
X137848808Y-104581670D02*
X137872618Y-104557860D01*
X137872618Y-104557860D02*
X137884523Y-104534050D01*
X137884523Y-104534050D02*
X137896427Y-104486431D01*
X137896427Y-104486431D02*
X137896427Y-104450717D01*
X137896427Y-104450717D02*
X137884523Y-104403098D01*
X137884523Y-104403098D02*
X137872618Y-104379289D01*
X137872618Y-104379289D02*
X137848808Y-104355479D01*
X137848808Y-104355479D02*
X137813094Y-104343574D01*
X137813094Y-104343574D02*
X137789285Y-104343574D01*
X137789285Y-104343574D02*
X137753570Y-104355479D01*
X137753570Y-104355479D02*
X137741666Y-104367384D01*
X137527380Y-104343574D02*
X137574999Y-104343574D01*
X137574999Y-104343574D02*
X137598808Y-104355479D01*
X137598808Y-104355479D02*
X137610713Y-104367384D01*
X137610713Y-104367384D02*
X137634523Y-104403098D01*
X137634523Y-104403098D02*
X137646427Y-104450717D01*
X137646427Y-104450717D02*
X137646427Y-104545955D01*
X137646427Y-104545955D02*
X137634523Y-104569765D01*
X137634523Y-104569765D02*
X137622618Y-104581670D01*
X137622618Y-104581670D02*
X137598808Y-104593574D01*
X137598808Y-104593574D02*
X137551189Y-104593574D01*
X137551189Y-104593574D02*
X137527380Y-104581670D01*
X137527380Y-104581670D02*
X137515475Y-104569765D01*
X137515475Y-104569765D02*
X137503570Y-104545955D01*
X137503570Y-104545955D02*
X137503570Y-104486431D01*
X137503570Y-104486431D02*
X137515475Y-104462622D01*
X137515475Y-104462622D02*
X137527380Y-104450717D01*
X137527380Y-104450717D02*
X137551189Y-104438812D01*
X137551189Y-104438812D02*
X137598808Y-104438812D01*
X137598808Y-104438812D02*
X137622618Y-104450717D01*
X137622618Y-104450717D02*
X137634523Y-104462622D01*
X137634523Y-104462622D02*
X137646427Y-104486431D01*
D10*
X141619047Y-93004819D02*
X142190475Y-93004819D01*
X141904761Y-93004819D02*
X141904761Y-92004819D01*
X141904761Y-92004819D02*
X141999999Y-92147676D01*
X141999999Y-92147676D02*
X142095237Y-92242914D01*
X142095237Y-92242914D02*
X142190475Y-92290533D01*
X140714285Y-92004819D02*
X141190475Y-92004819D01*
X141190475Y-92004819D02*
X141238094Y-92481009D01*
X141238094Y-92481009D02*
X141190475Y-92433390D01*
X141190475Y-92433390D02*
X141095237Y-92385771D01*
X141095237Y-92385771D02*
X140857142Y-92385771D01*
X140857142Y-92385771D02*
X140761904Y-92433390D01*
X140761904Y-92433390D02*
X140714285Y-92481009D01*
X140714285Y-92481009D02*
X140666666Y-92576247D01*
X140666666Y-92576247D02*
X140666666Y-92814342D01*
X140666666Y-92814342D02*
X140714285Y-92909580D01*
X140714285Y-92909580D02*
X140761904Y-92957200D01*
X140761904Y-92957200D02*
X140857142Y-93004819D01*
X140857142Y-93004819D02*
X141095237Y-93004819D01*
X141095237Y-93004819D02*
X141190475Y-92957200D01*
X141190475Y-92957200D02*
X141238094Y-92909580D01*
X140047618Y-92004819D02*
X139952380Y-92004819D01*
X139952380Y-92004819D02*
X139857142Y-92052438D01*
X139857142Y-92052438D02*
X139809523Y-92100057D01*
X139809523Y-92100057D02*
X139761904Y-92195295D01*
X139761904Y-92195295D02*
X139714285Y-92385771D01*
X139714285Y-92385771D02*
X139714285Y-92623866D01*
X139714285Y-92623866D02*
X139761904Y-92814342D01*
X139761904Y-92814342D02*
X139809523Y-92909580D01*
X139809523Y-92909580D02*
X139857142Y-92957200D01*
X139857142Y-92957200D02*
X139952380Y-93004819D01*
X139952380Y-93004819D02*
X140047618Y-93004819D01*
X140047618Y-93004819D02*
X140142856Y-92957200D01*
X140142856Y-92957200D02*
X140190475Y-92909580D01*
X140190475Y-92909580D02*
X140238094Y-92814342D01*
X140238094Y-92814342D02*
X140285713Y-92623866D01*
X140285713Y-92623866D02*
X140285713Y-92385771D01*
X140285713Y-92385771D02*
X140238094Y-92195295D01*
X140238094Y-92195295D02*
X140190475Y-92100057D01*
X140190475Y-92100057D02*
X140142856Y-92052438D01*
X140142856Y-92052438D02*
X140047618Y-92004819D01*
X139285713Y-92338152D02*
X139285713Y-93338152D01*
X139285713Y-92385771D02*
X139190475Y-92338152D01*
X139190475Y-92338152D02*
X138999999Y-92338152D01*
X138999999Y-92338152D02*
X138904761Y-92385771D01*
X138904761Y-92385771D02*
X138857142Y-92433390D01*
X138857142Y-92433390D02*
X138809523Y-92528628D01*
X138809523Y-92528628D02*
X138809523Y-92814342D01*
X138809523Y-92814342D02*
X138857142Y-92909580D01*
X138857142Y-92909580D02*
X138904761Y-92957200D01*
X138904761Y-92957200D02*
X138999999Y-93004819D01*
X138999999Y-93004819D02*
X139190475Y-93004819D01*
X139190475Y-93004819D02*
X139285713Y-92957200D01*
D11*
X140541666Y-90909765D02*
X140553570Y-90921670D01*
X140553570Y-90921670D02*
X140589285Y-90933574D01*
X140589285Y-90933574D02*
X140613094Y-90933574D01*
X140613094Y-90933574D02*
X140648808Y-90921670D01*
X140648808Y-90921670D02*
X140672618Y-90897860D01*
X140672618Y-90897860D02*
X140684523Y-90874050D01*
X140684523Y-90874050D02*
X140696427Y-90826431D01*
X140696427Y-90826431D02*
X140696427Y-90790717D01*
X140696427Y-90790717D02*
X140684523Y-90743098D01*
X140684523Y-90743098D02*
X140672618Y-90719289D01*
X140672618Y-90719289D02*
X140648808Y-90695479D01*
X140648808Y-90695479D02*
X140613094Y-90683574D01*
X140613094Y-90683574D02*
X140589285Y-90683574D01*
X140589285Y-90683574D02*
X140553570Y-90695479D01*
X140553570Y-90695479D02*
X140541666Y-90707384D01*
X140303570Y-90933574D02*
X140446427Y-90933574D01*
X140374999Y-90933574D02*
X140374999Y-90683574D01*
X140374999Y-90683574D02*
X140398808Y-90719289D01*
X140398808Y-90719289D02*
X140422618Y-90743098D01*
X140422618Y-90743098D02*
X140446427Y-90755003D01*
D10*
X140104819Y-83357142D02*
X140104819Y-82785714D01*
X140104819Y-83071428D02*
X139104819Y-83071428D01*
X139104819Y-83071428D02*
X139247676Y-82976190D01*
X139247676Y-82976190D02*
X139342914Y-82880952D01*
X139342914Y-82880952D02*
X139390533Y-82785714D01*
X139104819Y-83976190D02*
X139104819Y-84071428D01*
X139104819Y-84071428D02*
X139152438Y-84166666D01*
X139152438Y-84166666D02*
X139200057Y-84214285D01*
X139200057Y-84214285D02*
X139295295Y-84261904D01*
X139295295Y-84261904D02*
X139485771Y-84309523D01*
X139485771Y-84309523D02*
X139723866Y-84309523D01*
X139723866Y-84309523D02*
X139914342Y-84261904D01*
X139914342Y-84261904D02*
X140009580Y-84214285D01*
X140009580Y-84214285D02*
X140057200Y-84166666D01*
X140057200Y-84166666D02*
X140104819Y-84071428D01*
X140104819Y-84071428D02*
X140104819Y-83976190D01*
X140104819Y-83976190D02*
X140057200Y-83880952D01*
X140057200Y-83880952D02*
X140009580Y-83833333D01*
X140009580Y-83833333D02*
X139914342Y-83785714D01*
X139914342Y-83785714D02*
X139723866Y-83738095D01*
X139723866Y-83738095D02*
X139485771Y-83738095D01*
X139485771Y-83738095D02*
X139295295Y-83785714D01*
X139295295Y-83785714D02*
X139200057Y-83833333D01*
X139200057Y-83833333D02*
X139152438Y-83880952D01*
X139152438Y-83880952D02*
X139104819Y-83976190D01*
X139438152Y-84738095D02*
X140104819Y-84738095D01*
X139533390Y-84738095D02*
X139485771Y-84785714D01*
X139485771Y-84785714D02*
X139438152Y-84880952D01*
X139438152Y-84880952D02*
X139438152Y-85023809D01*
X139438152Y-85023809D02*
X139485771Y-85119047D01*
X139485771Y-85119047D02*
X139581009Y-85166666D01*
X139581009Y-85166666D02*
X140104819Y-85166666D01*
D11*
X138009765Y-83839285D02*
X138021670Y-83827381D01*
X138021670Y-83827381D02*
X138033574Y-83791666D01*
X138033574Y-83791666D02*
X138033574Y-83767857D01*
X138033574Y-83767857D02*
X138021670Y-83732143D01*
X138021670Y-83732143D02*
X137997860Y-83708333D01*
X137997860Y-83708333D02*
X137974050Y-83696428D01*
X137974050Y-83696428D02*
X137926431Y-83684524D01*
X137926431Y-83684524D02*
X137890717Y-83684524D01*
X137890717Y-83684524D02*
X137843098Y-83696428D01*
X137843098Y-83696428D02*
X137819289Y-83708333D01*
X137819289Y-83708333D02*
X137795479Y-83732143D01*
X137795479Y-83732143D02*
X137783574Y-83767857D01*
X137783574Y-83767857D02*
X137783574Y-83791666D01*
X137783574Y-83791666D02*
X137795479Y-83827381D01*
X137795479Y-83827381D02*
X137807384Y-83839285D01*
X138033574Y-84077381D02*
X138033574Y-83934524D01*
X138033574Y-84005952D02*
X137783574Y-84005952D01*
X137783574Y-84005952D02*
X137819289Y-83982143D01*
X137819289Y-83982143D02*
X137843098Y-83958333D01*
X137843098Y-83958333D02*
X137855003Y-83934524D01*
X138033574Y-84315476D02*
X138033574Y-84172619D01*
X138033574Y-84244047D02*
X137783574Y-84244047D01*
X137783574Y-84244047D02*
X137819289Y-84220238D01*
X137819289Y-84220238D02*
X137843098Y-84196428D01*
X137843098Y-84196428D02*
X137855003Y-84172619D01*
D10*
X153138152Y-88629523D02*
X153804819Y-88629523D01*
X152757200Y-88391428D02*
X153471485Y-88153333D01*
X153471485Y-88153333D02*
X153471485Y-88772380D01*
X153804819Y-89153333D02*
X152804819Y-89153333D01*
X153423866Y-89248571D02*
X153804819Y-89534285D01*
X153138152Y-89534285D02*
X153519104Y-89153333D01*
X152804819Y-89867619D02*
X152804819Y-90534285D01*
X152804819Y-90534285D02*
X153804819Y-90105714D01*
D11*
X151733574Y-89278333D02*
X151614527Y-89195000D01*
X151733574Y-89135476D02*
X151483574Y-89135476D01*
X151483574Y-89135476D02*
X151483574Y-89230714D01*
X151483574Y-89230714D02*
X151495479Y-89254524D01*
X151495479Y-89254524D02*
X151507384Y-89266429D01*
X151507384Y-89266429D02*
X151531193Y-89278333D01*
X151531193Y-89278333D02*
X151566908Y-89278333D01*
X151566908Y-89278333D02*
X151590717Y-89266429D01*
X151590717Y-89266429D02*
X151602622Y-89254524D01*
X151602622Y-89254524D02*
X151614527Y-89230714D01*
X151614527Y-89230714D02*
X151614527Y-89135476D01*
X151590717Y-89421191D02*
X151578812Y-89397381D01*
X151578812Y-89397381D02*
X151566908Y-89385476D01*
X151566908Y-89385476D02*
X151543098Y-89373572D01*
X151543098Y-89373572D02*
X151531193Y-89373572D01*
X151531193Y-89373572D02*
X151507384Y-89385476D01*
X151507384Y-89385476D02*
X151495479Y-89397381D01*
X151495479Y-89397381D02*
X151483574Y-89421191D01*
X151483574Y-89421191D02*
X151483574Y-89468810D01*
X151483574Y-89468810D02*
X151495479Y-89492619D01*
X151495479Y-89492619D02*
X151507384Y-89504524D01*
X151507384Y-89504524D02*
X151531193Y-89516429D01*
X151531193Y-89516429D02*
X151543098Y-89516429D01*
X151543098Y-89516429D02*
X151566908Y-89504524D01*
X151566908Y-89504524D02*
X151578812Y-89492619D01*
X151578812Y-89492619D02*
X151590717Y-89468810D01*
X151590717Y-89468810D02*
X151590717Y-89421191D01*
X151590717Y-89421191D02*
X151602622Y-89397381D01*
X151602622Y-89397381D02*
X151614527Y-89385476D01*
X151614527Y-89385476D02*
X151638336Y-89373572D01*
X151638336Y-89373572D02*
X151685955Y-89373572D01*
X151685955Y-89373572D02*
X151709765Y-89385476D01*
X151709765Y-89385476D02*
X151721670Y-89397381D01*
X151721670Y-89397381D02*
X151733574Y-89421191D01*
X151733574Y-89421191D02*
X151733574Y-89468810D01*
X151733574Y-89468810D02*
X151721670Y-89492619D01*
X151721670Y-89492619D02*
X151709765Y-89504524D01*
X151709765Y-89504524D02*
X151685955Y-89516429D01*
X151685955Y-89516429D02*
X151638336Y-89516429D01*
X151638336Y-89516429D02*
X151614527Y-89504524D01*
X151614527Y-89504524D02*
X151602622Y-89492619D01*
X151602622Y-89492619D02*
X151590717Y-89468810D01*
D10*
X163963152Y-104989523D02*
X164629819Y-104989523D01*
X163582200Y-104751428D02*
X164296485Y-104513333D01*
X164296485Y-104513333D02*
X164296485Y-105132380D01*
X164629819Y-105513333D02*
X163629819Y-105513333D01*
X164248866Y-105608571D02*
X164629819Y-105894285D01*
X163963152Y-105894285D02*
X164344104Y-105513333D01*
X163629819Y-106227619D02*
X163629819Y-106894285D01*
X163629819Y-106894285D02*
X164629819Y-106465714D01*
D11*
X162558574Y-105519285D02*
X162439527Y-105435952D01*
X162558574Y-105376428D02*
X162308574Y-105376428D01*
X162308574Y-105376428D02*
X162308574Y-105471666D01*
X162308574Y-105471666D02*
X162320479Y-105495476D01*
X162320479Y-105495476D02*
X162332384Y-105507381D01*
X162332384Y-105507381D02*
X162356193Y-105519285D01*
X162356193Y-105519285D02*
X162391908Y-105519285D01*
X162391908Y-105519285D02*
X162415717Y-105507381D01*
X162415717Y-105507381D02*
X162427622Y-105495476D01*
X162427622Y-105495476D02*
X162439527Y-105471666D01*
X162439527Y-105471666D02*
X162439527Y-105376428D01*
X162332384Y-105614524D02*
X162320479Y-105626428D01*
X162320479Y-105626428D02*
X162308574Y-105650238D01*
X162308574Y-105650238D02*
X162308574Y-105709762D01*
X162308574Y-105709762D02*
X162320479Y-105733571D01*
X162320479Y-105733571D02*
X162332384Y-105745476D01*
X162332384Y-105745476D02*
X162356193Y-105757381D01*
X162356193Y-105757381D02*
X162380003Y-105757381D01*
X162380003Y-105757381D02*
X162415717Y-105745476D01*
X162415717Y-105745476D02*
X162558574Y-105602619D01*
X162558574Y-105602619D02*
X162558574Y-105757381D01*
X162308574Y-105840714D02*
X162308574Y-105995476D01*
X162308574Y-105995476D02*
X162403812Y-105912142D01*
X162403812Y-105912142D02*
X162403812Y-105947857D01*
X162403812Y-105947857D02*
X162415717Y-105971666D01*
X162415717Y-105971666D02*
X162427622Y-105983571D01*
X162427622Y-105983571D02*
X162451431Y-105995476D01*
X162451431Y-105995476D02*
X162510955Y-105995476D01*
X162510955Y-105995476D02*
X162534765Y-105983571D01*
X162534765Y-105983571D02*
X162546670Y-105971666D01*
X162546670Y-105971666D02*
X162558574Y-105947857D01*
X162558574Y-105947857D02*
X162558574Y-105876428D01*
X162558574Y-105876428D02*
X162546670Y-105852619D01*
X162546670Y-105852619D02*
X162534765Y-105840714D01*
D12*
%TO.C,R26*%
X153450000Y-81800000D02*
X153150000Y-81800000D01*
X153150000Y-81800000D02*
X153150000Y-82400000D01*
X153450000Y-82400000D02*
X153450000Y-81800000D01*
X153150000Y-82400000D02*
X153450000Y-82400000D01*
%TO.C,R18*%
X154350000Y-81800000D02*
X154050000Y-81800000D01*
X154050000Y-81800000D02*
X154050000Y-82400000D01*
X154350000Y-82400000D02*
X154350000Y-81800000D01*
X154050000Y-82400000D02*
X154350000Y-82400000D01*
%TO.C,R2*%
X138000000Y-90850000D02*
X138000000Y-90550000D01*
X138000000Y-90550000D02*
X137400000Y-90550000D01*
X137400000Y-90850000D02*
X138000000Y-90850000D01*
X137400000Y-90550000D02*
X137400000Y-90850000D01*
%TO.C,C26*%
X152450000Y-90580000D02*
X152150000Y-90580000D01*
X152150000Y-90580000D02*
X152150000Y-91180000D01*
X152450000Y-91180000D02*
X152450000Y-90580000D01*
X152150000Y-91180000D02*
X152450000Y-91180000D01*
%TO.C,R1*%
X140800000Y-90850000D02*
X140800000Y-90550000D01*
X140800000Y-90550000D02*
X140200000Y-90550000D01*
X140200000Y-90850000D02*
X140800000Y-90850000D01*
X140200000Y-90550000D02*
X140200000Y-90850000D01*
%TO.C,C5*%
X137400000Y-104850000D02*
X137400000Y-105150000D01*
X137400000Y-105150000D02*
X138000000Y-105150000D01*
X138000000Y-104850000D02*
X137400000Y-104850000D01*
X138000000Y-105150000D02*
X138000000Y-104850000D01*
%TO.C,C15*%
X145950000Y-102800000D02*
X146250000Y-102800000D01*
X146250000Y-102800000D02*
X146250000Y-102200000D01*
X145950000Y-102200000D02*
X145950000Y-102800000D01*
X146250000Y-102200000D02*
X145950000Y-102200000D01*
%TO.C,R11*%
X152150000Y-95980000D02*
X152450000Y-95980000D01*
X152450000Y-95980000D02*
X152450000Y-95380000D01*
X152150000Y-95380000D02*
X152150000Y-95980000D01*
X152450000Y-95380000D02*
X152150000Y-95380000D01*
%TO.C,R6*%
X137400000Y-102850000D02*
X137400000Y-103150000D01*
X137400000Y-103150000D02*
X138000000Y-103150000D01*
X138000000Y-102850000D02*
X137400000Y-102850000D01*
X138000000Y-103150000D02*
X138000000Y-102850000D01*
%TO.C,C8*%
X138750000Y-82100000D02*
X138450000Y-82100000D01*
X138450000Y-82100000D02*
X138450000Y-82700000D01*
X138750000Y-82700000D02*
X138750000Y-82100000D01*
X138450000Y-82700000D02*
X138750000Y-82700000D01*
%TO.C,R3*%
X138000000Y-93650000D02*
X138000000Y-93350000D01*
X138000000Y-93350000D02*
X137400000Y-93350000D01*
X137400000Y-93650000D02*
X138000000Y-93650000D01*
X137400000Y-93350000D02*
X137400000Y-93650000D01*
%TO.C,C3*%
X138000000Y-92850000D02*
X138000000Y-92550000D01*
X138000000Y-92550000D02*
X137400000Y-92550000D01*
X137400000Y-92850000D02*
X138000000Y-92850000D01*
X137400000Y-92550000D02*
X137400000Y-92850000D01*
%TO.C,C4*%
X140800000Y-92850000D02*
X140800000Y-92550000D01*
X140800000Y-92550000D02*
X140200000Y-92550000D01*
X140200000Y-92850000D02*
X140800000Y-92850000D01*
X140200000Y-92550000D02*
X140200000Y-92850000D01*
%TO.C,R12*%
X152150000Y-97580000D02*
X152450000Y-97580000D01*
X152450000Y-97580000D02*
X152450000Y-96980000D01*
X152150000Y-96980000D02*
X152150000Y-97580000D01*
X152450000Y-96980000D02*
X152150000Y-96980000D01*
%TO.C,J1*%
X170025000Y-86400000D02*
X154075000Y-86400000D01*
X170025000Y-87210000D02*
X170025000Y-86400000D01*
X170225000Y-87400000D02*
X175125000Y-87400000D01*
X170225000Y-87410000D02*
X170025000Y-87210000D01*
X175625000Y-87900000D02*
X175625000Y-97900000D01*
X171625000Y-87900000D02*
X171625000Y-97900000D01*
X170225000Y-89210000D02*
X170225000Y-87410000D01*
X170025000Y-89410000D02*
X170225000Y-89210000D01*
X170025000Y-89410000D02*
X169875000Y-89410000D01*
X169875000Y-95835000D02*
X169875000Y-89410000D01*
X170225000Y-96360000D02*
X169875000Y-95835000D01*
X175125000Y-98400000D02*
X170225000Y-98400000D01*
X170225000Y-98610000D02*
X170225000Y-96360000D01*
X170225000Y-98610000D02*
X170025000Y-98810000D01*
X170025000Y-98810000D02*
X170025000Y-100250000D01*
X170025000Y-100250000D02*
X154075000Y-100250000D01*
X154075000Y-100250000D02*
X154075000Y-86400000D01*
X175625000Y-87900000D02*
G75*
G03*
X175125000Y-87400000I-500001J-1D01*
G01*
X171625000Y-87900000D02*
G75*
G03*
X171125000Y-87400000I-500001J-1D01*
G01*
X175125000Y-98400000D02*
G75*
G03*
X175625000Y-97900000I0J500000D01*
G01*
X171125000Y-98400000D02*
G75*
G03*
X171625000Y-97900000I0J500000D01*
G01*
%TO.C,C2*%
X138000000Y-91650000D02*
X138000000Y-91350000D01*
X138000000Y-91350000D02*
X137400000Y-91350000D01*
X137400000Y-91650000D02*
X138000000Y-91650000D01*
X137400000Y-91350000D02*
X137400000Y-91650000D01*
%TO.C,C10*%
X139350000Y-84300000D02*
X139650000Y-84300000D01*
X139650000Y-84300000D02*
X139650000Y-83700000D01*
X139350000Y-83700000D02*
X139350000Y-84300000D01*
X139650000Y-83700000D02*
X139350000Y-83700000D01*
%TO.C,R7*%
X152450000Y-87350000D02*
X152150000Y-87350000D01*
X152150000Y-87350000D02*
X152150000Y-87950000D01*
X152450000Y-87950000D02*
X152450000Y-87350000D01*
X152150000Y-87950000D02*
X152450000Y-87950000D01*
%TO.C,C13*%
X139552500Y-99900000D02*
X139552500Y-100200000D01*
X139552500Y-100200000D02*
X140152500Y-100200000D01*
X140152500Y-99900000D02*
X139552500Y-99900000D01*
X140152500Y-100200000D02*
X140152500Y-99900000D01*
%TO.C,R9*%
X152150000Y-92780000D02*
X152450000Y-92780000D01*
X152450000Y-92780000D02*
X152450000Y-92180000D01*
X152150000Y-92180000D02*
X152150000Y-92780000D01*
X152450000Y-92180000D02*
X152150000Y-92180000D01*
%TO.C,R5*%
X137400000Y-105650000D02*
X137400000Y-105950000D01*
X137400000Y-105950000D02*
X138000000Y-105950000D01*
X138000000Y-105650000D02*
X137400000Y-105650000D01*
X138000000Y-105950000D02*
X138000000Y-105650000D01*
%TO.C,R10*%
X152150000Y-94380000D02*
X152450000Y-94380000D01*
X152450000Y-94380000D02*
X152450000Y-93780000D01*
X152150000Y-93780000D02*
X152150000Y-94380000D01*
X152450000Y-93780000D02*
X152150000Y-93780000D01*
%TO.C,R21*%
X164775000Y-105980000D02*
X165075000Y-105980000D01*
X165075000Y-105980000D02*
X165075000Y-105380000D01*
X164775000Y-105380000D02*
X164775000Y-105980000D01*
X165075000Y-105380000D02*
X164775000Y-105380000D01*
%TO.C,C9*%
X137850000Y-82100000D02*
X137550000Y-82100000D01*
X137550000Y-82100000D02*
X137550000Y-82700000D01*
X137850000Y-82700000D02*
X137850000Y-82100000D01*
X137550000Y-82700000D02*
X137850000Y-82700000D01*
%TO.C,C7*%
X139350000Y-82700000D02*
X139650000Y-82700000D01*
X139650000Y-82700000D02*
X139650000Y-82100000D01*
X139350000Y-82100000D02*
X139350000Y-82700000D01*
X139650000Y-82100000D02*
X139350000Y-82100000D01*
%TO.C,R25*%
X154950000Y-82400000D02*
X155250000Y-82400000D01*
X155250000Y-82400000D02*
X155250000Y-81800000D01*
X154950000Y-81800000D02*
X154950000Y-82400000D01*
X155250000Y-81800000D02*
X154950000Y-81800000D01*
%TO.C,R22*%
X164175000Y-105380000D02*
X163875000Y-105380000D01*
X163875000Y-105380000D02*
X163875000Y-105980000D01*
X164175000Y-105980000D02*
X164175000Y-105380000D01*
X163875000Y-105980000D02*
X164175000Y-105980000D01*
%TO.C,C14*%
X144550000Y-102180000D02*
X144250000Y-102180000D01*
X144250000Y-102180000D02*
X144250000Y-102780000D01*
X144550000Y-102780000D02*
X144550000Y-102180000D01*
X144250000Y-102780000D02*
X144550000Y-102780000D01*
%TO.C,C12*%
X139552500Y-97300000D02*
X139552500Y-97600000D01*
X139552500Y-97600000D02*
X140152500Y-97600000D01*
X140152500Y-97300000D02*
X139552500Y-97300000D01*
X140152500Y-97600000D02*
X140152500Y-97300000D01*
%TO.C,C29*%
X164775000Y-107480000D02*
X165075000Y-107480000D01*
X165075000Y-107480000D02*
X165075000Y-106880000D01*
X164775000Y-106880000D02*
X164775000Y-107480000D01*
X165075000Y-106880000D02*
X164775000Y-106880000D01*
%TO.C,P1*%
X155500890Y-112459680D02*
X144499430Y-112459680D01*
X155499190Y-115339960D02*
X144500810Y-115339960D01*
X144499430Y-112459680D02*
X144499430Y-112459370D01*
%TO.C,R24*%
X162975000Y-107480000D02*
X163275000Y-107480000D01*
X163275000Y-107480000D02*
X163275000Y-106880000D01*
X162975000Y-106880000D02*
X162975000Y-107480000D01*
X163275000Y-106880000D02*
X162975000Y-106880000D01*
%TO.C,R4*%
X140800000Y-93650000D02*
X140800000Y-93350000D01*
X140800000Y-93350000D02*
X140200000Y-93350000D01*
X140200000Y-93650000D02*
X140800000Y-93650000D01*
X140200000Y-93350000D02*
X140200000Y-93650000D01*
%TO.C,C6*%
X137400000Y-103650000D02*
X137400000Y-103950000D01*
X137400000Y-103950000D02*
X138000000Y-103950000D01*
X138000000Y-103650000D02*
X137400000Y-103650000D01*
X138000000Y-103950000D02*
X138000000Y-103650000D01*
%TO.C,C1*%
X140800000Y-91650000D02*
X140800000Y-91350000D01*
X140800000Y-91350000D02*
X140200000Y-91350000D01*
X140200000Y-91650000D02*
X140800000Y-91650000D01*
X140200000Y-91350000D02*
X140200000Y-91650000D01*
%TO.C,C11*%
X138750000Y-83700000D02*
X138450000Y-83700000D01*
X138450000Y-83700000D02*
X138450000Y-84300000D01*
X138750000Y-84300000D02*
X138750000Y-83700000D01*
X138450000Y-84300000D02*
X138750000Y-84300000D01*
%TO.C,R8*%
X152450000Y-89020000D02*
X152150000Y-89020000D01*
X152150000Y-89020000D02*
X152150000Y-89620000D01*
X152450000Y-89620000D02*
X152450000Y-89020000D01*
X152150000Y-89620000D02*
X152450000Y-89620000D01*
%TO.C,R23*%
X163275000Y-105380000D02*
X162975000Y-105380000D01*
X162975000Y-105380000D02*
X162975000Y-105980000D01*
X163275000Y-105980000D02*
X163275000Y-105380000D01*
X162975000Y-105980000D02*
X163275000Y-105980000D01*
%TD*%
M02*
