%TF.GenerationSoftware,KiCad,Pcbnew,7.0.6*%
%TF.CreationDate,2023-09-15T14:04:58+02:00*%
%TF.ProjectId,V8,56382e6b-6963-4616-945f-706362585858,rev?*%
%TF.SameCoordinates,Original*%
%TF.FileFunction,Copper,L1,Top*%
%TF.FilePolarity,Positive*%
%FSLAX46Y46*%
G04 Gerber Fmt 4.6, Leading zero omitted, Abs format (unit mm)*
G04 Created by KiCad (PCBNEW 7.0.6) date 2023-09-15 14:04:58*
%MOMM*%
%LPD*%
G01*
G04 APERTURE LIST*
G04 Aperture macros list*
%AMRoundRect*
0 Rectangle with rounded corners*
0 $1 Rounding radius*
0 $2 $3 $4 $5 $6 $7 $8 $9 X,Y pos of 4 corners*
0 Add a 4 corners polygon primitive as box body*
4,1,4,$2,$3,$4,$5,$6,$7,$8,$9,$2,$3,0*
0 Add four circle primitives for the rounded corners*
1,1,$1+$1,$2,$3*
1,1,$1+$1,$4,$5*
1,1,$1+$1,$6,$7*
1,1,$1+$1,$8,$9*
0 Add four rect primitives between the rounded corners*
20,1,$1+$1,$2,$3,$4,$5,0*
20,1,$1+$1,$4,$5,$6,$7,0*
20,1,$1+$1,$6,$7,$8,$9,0*
20,1,$1+$1,$8,$9,$2,$3,0*%
G04 Aperture macros list end*
%TA.AperFunction,ComponentPad*%
%ADD10R,1.000000X1.000000*%
%TD*%
%TA.AperFunction,ComponentPad*%
%ADD11O,1.000000X1.000000*%
%TD*%
%TA.AperFunction,SMDPad,CuDef*%
%ADD12RoundRect,0.100000X0.130000X0.100000X-0.130000X0.100000X-0.130000X-0.100000X0.130000X-0.100000X0*%
%TD*%
%TA.AperFunction,SMDPad,CuDef*%
%ADD13RoundRect,0.100000X0.100000X-0.130000X0.100000X0.130000X-0.100000X0.130000X-0.100000X-0.130000X0*%
%TD*%
%TA.AperFunction,SMDPad,CuDef*%
%ADD14RoundRect,0.100000X-0.100000X0.130000X-0.100000X-0.130000X0.100000X-0.130000X0.100000X0.130000X0*%
%TD*%
%TA.AperFunction,SMDPad,CuDef*%
%ADD15R,0.850000X0.280000*%
%TD*%
%TA.AperFunction,SMDPad,CuDef*%
%ADD16R,0.280000X0.850000*%
%TD*%
%TA.AperFunction,SMDPad,CuDef*%
%ADD17R,2.050000X2.050000*%
%TD*%
%TA.AperFunction,SMDPad,CuDef*%
%ADD18RoundRect,0.100000X-0.130000X-0.100000X0.130000X-0.100000X0.130000X0.100000X-0.130000X0.100000X0*%
%TD*%
%TA.AperFunction,SMDPad,CuDef*%
%ADD19RoundRect,0.075000X-0.725000X-0.075000X0.725000X-0.075000X0.725000X0.075000X-0.725000X0.075000X0*%
%TD*%
%TA.AperFunction,SMDPad,CuDef*%
%ADD20RoundRect,0.075000X-0.075000X-0.725000X0.075000X-0.725000X0.075000X0.725000X-0.075000X0.725000X0*%
%TD*%
%TA.AperFunction,SMDPad,CuDef*%
%ADD21RoundRect,0.150000X-0.700000X0.150000X-0.700000X-0.150000X0.700000X-0.150000X0.700000X0.150000X0*%
%TD*%
%TA.AperFunction,SMDPad,CuDef*%
%ADD22RoundRect,0.250000X-1.100000X0.250000X-1.100000X-0.250000X1.100000X-0.250000X1.100000X0.250000X0*%
%TD*%
%TA.AperFunction,SMDPad,CuDef*%
%ADD23R,1.420010X2.340000*%
%TD*%
%TA.AperFunction,SMDPad,CuDef*%
%ADD24R,1.420010X2.240000*%
%TD*%
%TA.AperFunction,SMDPad,CuDef*%
%ADD25R,1.200000X1.000000*%
%TD*%
%TA.AperFunction,SMDPad,CuDef*%
%ADD26RoundRect,0.062500X-0.062500X0.362500X-0.062500X-0.362500X0.062500X-0.362500X0.062500X0.362500X0*%
%TD*%
%TA.AperFunction,SMDPad,CuDef*%
%ADD27R,2.380000X1.650000*%
%TD*%
%TA.AperFunction,SMDPad,CuDef*%
%ADD28R,1.800000X1.000000*%
%TD*%
%TA.AperFunction,SMDPad,CuDef*%
%ADD29R,0.230000X0.350000*%
%TD*%
%TA.AperFunction,SMDPad,CuDef*%
%ADD30R,0.350000X0.230000*%
%TD*%
%TA.AperFunction,ViaPad*%
%ADD31C,0.500000*%
%TD*%
%TA.AperFunction,Conductor*%
%ADD32C,0.200000*%
%TD*%
G04 APERTURE END LIST*
D10*
%TO.P,J8,1,Pin_1*%
%TO.N,DCap*%
X169300000Y-102590000D03*
D11*
%TO.P,J8,2,Pin_2*%
%TO.N,SWCLK*%
X169300000Y-103860000D03*
%TO.P,J8,3,Pin_3*%
%TO.N,OB GND*%
X169300000Y-105130000D03*
%TO.P,J8,4,Pin_4*%
%TO.N,SWDIO*%
X169300000Y-106400000D03*
%TO.P,J8,5,Pin_5*%
%TO.N,NRST*%
X169300000Y-107670000D03*
%TD*%
D12*
%TO.P,C23,1*%
%TO.N,DCap*%
X147920000Y-96300000D03*
%TO.P,C23,2*%
%TO.N,OB GND*%
X147280000Y-96300000D03*
%TD*%
D13*
%TO.P,C16,1*%
%TO.N,DCap*%
X151200000Y-83020000D03*
%TO.P,C16,2*%
%TO.N,OB GND*%
X151200000Y-82380000D03*
%TD*%
D12*
%TO.P,R15,1*%
%TO.N,OB S2_3v3*%
X133520000Y-112100000D03*
%TO.P,R15,2*%
%TO.N,DCap*%
X132880000Y-112100000D03*
%TD*%
%TO.P,C25,1*%
%TO.N,NRST*%
X147920000Y-92900000D03*
%TO.P,C25,2*%
%TO.N,OB GND*%
X147280000Y-92900000D03*
%TD*%
D14*
%TO.P,R17,1*%
%TO.N,DCap*%
X166400000Y-93080000D03*
%TO.P,R17,2*%
%TO.N,OB SDL*%
X166400000Y-93720000D03*
%TD*%
D15*
%TO.P,U4,1,OA*%
%TO.N,unconnected-(U4-OA-Pad1)*%
X140825000Y-103650000D03*
D16*
%TO.P,U4,2,-INA*%
%TO.N,unconnected-(U4--INA-Pad2)*%
X140100000Y-102675000D03*
%TO.P,U4,3,+INA*%
%TO.N,unconnected-(U4-+INA-Pad3)*%
X139600000Y-102675000D03*
%TO.P,U4,4,V+*%
%TO.N,DCap*%
X139100000Y-102675000D03*
%TO.P,U4,5,+INB*%
%TO.N,6+*%
X138600000Y-102675000D03*
%TO.P,U4,6,-INB*%
%TO.N,6-*%
X138100000Y-102675000D03*
D15*
%TO.P,U4,7,OB*%
%TO.N,OPA6*%
X137375000Y-103650000D03*
%TO.P,U4,8,OC*%
%TO.N,OPA5*%
X137375000Y-105150000D03*
D16*
%TO.P,U4,9,-INC*%
%TO.N,5-*%
X138100000Y-106125000D03*
%TO.P,U4,10,+INC*%
%TO.N,5+*%
X138600000Y-106125000D03*
%TO.P,U4,11,V-*%
%TO.N,OB GND*%
X139100000Y-106125000D03*
%TO.P,U4,12,+IND*%
%TO.N,unconnected-(U4-+IND-Pad12)*%
X139600000Y-106125000D03*
%TO.P,U4,13,-IND*%
%TO.N,unconnected-(U4--IND-Pad13)*%
X140100000Y-106125000D03*
D15*
%TO.P,U4,14,OD*%
%TO.N,unconnected-(U4-OD-Pad14)*%
X140825000Y-105150000D03*
D17*
%TO.P,U4,15,PAD*%
%TO.N,OB GND*%
X139100000Y-104400000D03*
%TD*%
D18*
%TO.P,C28,1*%
%TO.N,Net-(C28-Pad1)*%
X166380000Y-87400000D03*
%TO.P,C28,2*%
%TO.N,OB GND*%
X167020000Y-87400000D03*
%TD*%
D19*
%TO.P,U1,1,PE2*%
%TO.N,SPI SCK*%
X149525000Y-86400000D03*
%TO.P,U1,2,PE3*%
%TO.N,unconnected-(U1-PE3-Pad2)*%
X149525000Y-86900000D03*
%TO.P,U1,3,PE4*%
%TO.N,SPI NSS*%
X149525000Y-87400000D03*
%TO.P,U1,4,PE5*%
%TO.N,SPI MISO*%
X149525000Y-87900000D03*
%TO.P,U1,5,PE6*%
%TO.N,SPI MOSI*%
X149525000Y-88400000D03*
%TO.P,U1,6,VBAT*%
%TO.N,DCap*%
X149525000Y-88900000D03*
%TO.P,U1,7,PC13*%
%TO.N,unconnected-(U1-PC13-Pad7)*%
X149525000Y-89400000D03*
%TO.P,U1,8,PC14*%
%TO.N,OSC32_IN*%
X149525000Y-89900000D03*
%TO.P,U1,9,PC15*%
%TO.N,OSC32_OUT*%
X149525000Y-90400000D03*
%TO.P,U1,10,VSS*%
%TO.N,OB GND*%
X149525000Y-90900000D03*
%TO.P,U1,11,VDD*%
%TO.N,DCap*%
X149525000Y-91400000D03*
%TO.P,U1,12,PH0*%
%TO.N,OSC_IN*%
X149525000Y-91900000D03*
%TO.P,U1,13,PH1*%
%TO.N,OSC_OUT*%
X149525000Y-92400000D03*
%TO.P,U1,14,NRST*%
%TO.N,NRST*%
X149525000Y-92900000D03*
%TO.P,U1,15,PC0*%
%TO.N,unconnected-(U1-PC0-Pad15)*%
X149525000Y-93400000D03*
%TO.P,U1,16,PC1*%
%TO.N,unconnected-(U1-PC1-Pad16)*%
X149525000Y-93900000D03*
%TO.P,U1,17,PC2_C*%
%TO.N,unconnected-(U1-PC2_C-Pad17)*%
X149525000Y-94400000D03*
%TO.P,U1,18,PC3_C*%
%TO.N,unconnected-(U1-PC3_C-Pad18)*%
X149525000Y-94900000D03*
%TO.P,U1,19,VSSA*%
%TO.N,OB GND*%
X149525000Y-95400000D03*
%TO.P,U1,20,VREF+*%
%TO.N,DCap*%
X149525000Y-95900000D03*
%TO.P,U1,21,VDDA*%
X149525000Y-96400000D03*
%TO.P,U1,22,PA0*%
%TO.N,OPA1*%
X149525000Y-96900000D03*
%TO.P,U1,23,PA1*%
%TO.N,OPA2*%
X149525000Y-97400000D03*
%TO.P,U1,24,PA2*%
%TO.N,OPA3*%
X149525000Y-97900000D03*
%TO.P,U1,25,PA3*%
%TO.N,OPA4*%
X149525000Y-98400000D03*
D20*
%TO.P,U1,26,VSS*%
%TO.N,OB GND*%
X151200000Y-100075000D03*
%TO.P,U1,27,VDD*%
%TO.N,DCap*%
X151700000Y-100075000D03*
%TO.P,U1,28,PA4*%
%TO.N,OPA6*%
X152200000Y-100075000D03*
%TO.P,U1,29,PA5*%
%TO.N,OPA5*%
X152700000Y-100075000D03*
%TO.P,U1,30,PA6*%
%TO.N,C01*%
X153200000Y-100075000D03*
%TO.P,U1,31,PA7*%
%TO.N,C03*%
X153700000Y-100075000D03*
%TO.P,U1,32,PC4*%
%TO.N,C05*%
X154200000Y-100075000D03*
%TO.P,U1,33,PC5*%
%TO.N,C07*%
X154700000Y-100075000D03*
%TO.P,U1,34,PB0*%
%TO.N,C09*%
X155200000Y-100075000D03*
%TO.P,U1,35,PB1*%
%TO.N,D09*%
X155700000Y-100075000D03*
%TO.P,U1,36,PB2*%
%TO.N,D07*%
X156200000Y-100075000D03*
%TO.P,U1,37,PE7*%
%TO.N,D05*%
X156700000Y-100075000D03*
%TO.P,U1,38,PE8*%
%TO.N,D03*%
X157200000Y-100075000D03*
%TO.P,U1,39,PE9*%
%TO.N,D01*%
X157700000Y-100075000D03*
%TO.P,U1,40,PE10*%
%TO.N,B08*%
X158200000Y-100075000D03*
%TO.P,U1,41,PE11*%
%TO.N,B06*%
X158700000Y-100075000D03*
%TO.P,U1,42,PE12*%
%TO.N,B04*%
X159200000Y-100075000D03*
%TO.P,U1,43,PE13*%
%TO.N,B02*%
X159700000Y-100075000D03*
%TO.P,U1,44,PE14*%
%TO.N,A02*%
X160200000Y-100075000D03*
%TO.P,U1,45,PE15*%
%TO.N,A04*%
X160700000Y-100075000D03*
%TO.P,U1,46,PB10*%
%TO.N,A06*%
X161200000Y-100075000D03*
%TO.P,U1,47,PB11*%
%TO.N,A08*%
X161700000Y-100075000D03*
%TO.P,U1,48,VCAP*%
%TO.N,Net-(C27-Pad1)*%
X162200000Y-100075000D03*
%TO.P,U1,49,VSS*%
%TO.N,OB GND*%
X162700000Y-100075000D03*
%TO.P,U1,50,VDD*%
%TO.N,DCap*%
X163200000Y-100075000D03*
D19*
%TO.P,U1,51,PB12*%
%TO.N,RS 485 RE*%
X164875000Y-98400000D03*
%TO.P,U1,52,PB13*%
%TO.N,RS 485 DE*%
X164875000Y-97900000D03*
%TO.P,U1,53,PB14*%
%TO.N,USART TX*%
X164875000Y-97400000D03*
%TO.P,U1,54,PB15*%
%TO.N,USART RX*%
X164875000Y-96900000D03*
%TO.P,U1,55,PD8*%
%TO.N,unconnected-(U1-PD8-Pad55)*%
X164875000Y-96400000D03*
%TO.P,U1,56,PD9*%
%TO.N,unconnected-(U1-PD9-Pad56)*%
X164875000Y-95900000D03*
%TO.P,U1,57,PD10*%
%TO.N,unconnected-(U1-PD10-Pad57)*%
X164875000Y-95400000D03*
%TO.P,U1,58,PD11*%
%TO.N,unconnected-(U1-PD11-Pad58)*%
X164875000Y-94900000D03*
%TO.P,U1,59,PD12*%
%TO.N,OB SCK*%
X164875000Y-94400000D03*
%TO.P,U1,60,PD13*%
%TO.N,OB SDL*%
X164875000Y-93900000D03*
%TO.P,U1,61,PD14*%
%TO.N,unconnected-(U1-PD14-Pad61)*%
X164875000Y-93400000D03*
%TO.P,U1,62,PD15*%
%TO.N,unconnected-(U1-PD15-Pad62)*%
X164875000Y-92900000D03*
%TO.P,U1,63,PC6*%
%TO.N,unconnected-(U1-PC6-Pad63)*%
X164875000Y-92400000D03*
%TO.P,U1,64,PC7*%
%TO.N,unconnected-(U1-PC7-Pad64)*%
X164875000Y-91900000D03*
%TO.P,U1,65,PC8*%
%TO.N,unconnected-(U1-PC8-Pad65)*%
X164875000Y-91400000D03*
%TO.P,U1,66,PC9*%
%TO.N,unconnected-(U1-PC9-Pad66)*%
X164875000Y-90900000D03*
%TO.P,U1,67,PA8*%
%TO.N,OBS PPS*%
X164875000Y-90400000D03*
%TO.P,U1,68,PA9*%
%TO.N,unconnected-(U1-PA9-Pad68)*%
X164875000Y-89900000D03*
%TO.P,U1,69,PA10*%
%TO.N,unconnected-(U1-PA10-Pad69)*%
X164875000Y-89400000D03*
%TO.P,U1,70,PA11*%
%TO.N,unconnected-(U1-PA11-Pad70)*%
X164875000Y-88900000D03*
%TO.P,U1,71,PA12*%
%TO.N,unconnected-(U1-PA12-Pad71)*%
X164875000Y-88400000D03*
%TO.P,U1,72,PA13(JTMS*%
%TO.N,SWDIO*%
X164875000Y-87900000D03*
%TO.P,U1,73,VCAP*%
%TO.N,Net-(C28-Pad1)*%
X164875000Y-87400000D03*
%TO.P,U1,74,VSS*%
%TO.N,OB GND*%
X164875000Y-86900000D03*
%TO.P,U1,75,VDD*%
%TO.N,DCap*%
X164875000Y-86400000D03*
D20*
%TO.P,U1,76,PA14(JTCK*%
%TO.N,SWCLK*%
X163200000Y-84725000D03*
%TO.P,U1,77,PA15(JTDI)*%
%TO.N,unconnected-(U1-PA15(JTDI)-Pad77)*%
X162700000Y-84725000D03*
%TO.P,U1,78,PC10*%
%TO.N,unconnected-(U1-PC10-Pad78)*%
X162200000Y-84725000D03*
%TO.P,U1,79,PC11*%
%TO.N,unconnected-(U1-PC11-Pad79)*%
X161700000Y-84725000D03*
%TO.P,U1,80,PC12*%
%TO.N,unconnected-(U1-PC12-Pad80)*%
X161200000Y-84725000D03*
%TO.P,U1,81,PD0*%
%TO.N,unconnected-(U1-PD0-Pad81)*%
X160700000Y-84725000D03*
%TO.P,U1,82,PD1*%
%TO.N,unconnected-(U1-PD1-Pad82)*%
X160200000Y-84725000D03*
%TO.P,U1,83,PD2*%
%TO.N,unconnected-(U1-PD2-Pad83)*%
X159700000Y-84725000D03*
%TO.P,U1,84,PD3*%
%TO.N,unconnected-(U1-PD3-Pad84)*%
X159200000Y-84725000D03*
%TO.P,U1,85,PD4*%
%TO.N,CSM*%
X158700000Y-84725000D03*
%TO.P,U1,86,PD5*%
%TO.N,CSAG*%
X158200000Y-84725000D03*
%TO.P,U1,87,PD6*%
%TO.N,SAOM*%
X157700000Y-84725000D03*
%TO.P,U1,88,PD7*%
%TO.N,SAOG*%
X157200000Y-84725000D03*
%TO.P,U1,89,PB3(JTDO*%
%TO.N,unconnected-(U1-PB3(JTDO-Pad89)*%
X156700000Y-84725000D03*
%TO.P,U1,90,PB4(NJTRST)*%
%TO.N,unconnected-(U1-PB4(NJTRST)-Pad90)*%
X156200000Y-84725000D03*
%TO.P,U1,91,PB5*%
%TO.N,unconnected-(U1-PB5-Pad91)*%
X155700000Y-84725000D03*
%TO.P,U1,92,PB6*%
%TO.N,unconnected-(U1-PB6-Pad92)*%
X155200000Y-84725000D03*
%TO.P,U1,93,PB7*%
%TO.N,SDA*%
X154700000Y-84725000D03*
%TO.P,U1,94,BOOT0*%
%TO.N,BOOT*%
X154200000Y-84725000D03*
%TO.P,U1,95,PB8*%
%TO.N,SCL*%
X153700000Y-84725000D03*
%TO.P,U1,96,PB9*%
%TO.N,unconnected-(U1-PB9-Pad96)*%
X153200000Y-84725000D03*
%TO.P,U1,97,PE0*%
%TO.N,unconnected-(U1-PE0-Pad97)*%
X152700000Y-84725000D03*
%TO.P,U1,98,PE1*%
%TO.N,unconnected-(U1-PE1-Pad98)*%
X152200000Y-84725000D03*
%TO.P,U1,99,VSS*%
%TO.N,OB GND*%
X151700000Y-84725000D03*
%TO.P,U1,100,VDD*%
%TO.N,DCap*%
X151200000Y-84725000D03*
%TD*%
D18*
%TO.P,R14,1*%
%TO.N,DCap*%
X132880000Y-113700000D03*
%TO.P,R14,2*%
%TO.N,OB S1_3v3*%
X133520000Y-113700000D03*
%TD*%
%TO.P,C21,1*%
%TO.N,DCap*%
X166380000Y-86400000D03*
%TO.P,C21,2*%
%TO.N,OB GND*%
X167020000Y-86400000D03*
%TD*%
D21*
%TO.P,J4,1,Pin_1*%
%TO.N,6+*%
X134200000Y-102525000D03*
%TO.P,J4,2,Pin_2*%
%TO.N,6-*%
X134200000Y-103775000D03*
%TO.P,J4,3,Pin_3*%
%TO.N,5-*%
X134200000Y-105025000D03*
%TO.P,J4,4,Pin_4*%
%TO.N,5+*%
X134200000Y-106275000D03*
D22*
%TO.P,J4,MP,MountPin*%
%TO.N,unconnected-(J4-MountPin-PadMP)*%
X131000000Y-100675000D03*
X131000000Y-108125000D03*
%TD*%
D12*
%TO.P,C17,1*%
%TO.N,DCap*%
X147920000Y-88900000D03*
%TO.P,C17,2*%
%TO.N,OB GND*%
X147280000Y-88900000D03*
%TD*%
D10*
%TO.P,J2,1,Pin_1*%
%TO.N,DCap*%
X169300000Y-114000000D03*
D11*
%TO.P,J2,2,Pin_2*%
%TO.N,OB GND*%
X169300000Y-112730000D03*
%TO.P,J2,3,Pin_3*%
%TO.N,USART TX*%
X169300000Y-111460000D03*
%TO.P,J2,4,Pin_4*%
%TO.N,USART RX*%
X169300000Y-110190000D03*
%TD*%
D13*
%TO.P,C19,1*%
%TO.N,DCap*%
X151100000Y-102220000D03*
%TO.P,C19,2*%
%TO.N,OB GND*%
X151100000Y-101580000D03*
%TD*%
D23*
%TO.P,J5,1,Pin_1*%
%TO.N,OB SDA*%
X161420000Y-111970000D03*
%TO.P,J5,2,Pin_2*%
%TO.N,OB GND*%
X158880000Y-111970000D03*
%TO.P,J5,3,Pin_3*%
%TO.N,OB SDB*%
X156340000Y-111970000D03*
%TO.P,J5,4,Pin_4*%
%TO.N,unconnected-(J5-Pin_4-Pad4)*%
X153800000Y-111970000D03*
%TO.P,J5,5,Pin_5*%
%TO.N,OB VBat*%
X151260000Y-111970000D03*
%TO.P,J5,6,Pin_6*%
%TO.N,OB 5v*%
X148720000Y-111970000D03*
%TO.P,J5,7,Pin_7*%
%TO.N,OB 3v3*%
X146180000Y-111970000D03*
%TO.P,J5,8,Pin_8*%
%TO.N,OB GND*%
X143640000Y-111970000D03*
%TO.P,J5,9,Pin_9*%
%TO.N,unconnected-(J5-Pin_9-Pad9)*%
X141100000Y-111970000D03*
%TO.P,J5,10,Pin_10*%
%TO.N,unconnected-(J5-Pin_10-Pad10)*%
X138560000Y-111970000D03*
D24*
%TO.P,J5,11,Pin_11*%
%TO.N,OB SDL*%
X161420000Y-115831000D03*
%TO.P,J5,12,Pin_12*%
%TO.N,OB GND*%
X158880000Y-115831000D03*
%TO.P,J5,13,Pin_13*%
%TO.N,OB SCK*%
X156340000Y-115831000D03*
%TO.P,J5,14,Pin_14*%
%TO.N,OB S1_5v*%
X153800000Y-115831000D03*
%TO.P,J5,15,Pin_15*%
%TO.N,OB S2_5v*%
X151260000Y-115831000D03*
%TO.P,J5,16,Pin_16*%
%TO.N,OB S1_3v3*%
X148720000Y-115831000D03*
%TO.P,J5,17,Pin_17*%
%TO.N,OB S2_3v3*%
X146180000Y-115831000D03*
%TO.P,J5,18,Pin_18*%
%TO.N,OB GND*%
X143640000Y-115831000D03*
%TO.P,J5,19,Pin_19*%
%TO.N,OB PPS*%
X141100000Y-115831000D03*
%TO.P,J5,20,Pin_20*%
%TO.N,unconnected-(J5-Pin_20-Pad20)*%
X138560000Y-115831000D03*
%TD*%
D12*
%TO.P,C24,1*%
%TO.N,DCap*%
X147920000Y-95500000D03*
%TO.P,C24,2*%
%TO.N,OB GND*%
X147280000Y-95500000D03*
%TD*%
D13*
%TO.P,R19,1*%
%TO.N,DCap*%
X141300000Y-82965000D03*
%TO.P,R19,2*%
%TO.N,SDA*%
X141300000Y-82325000D03*
%TD*%
D12*
%TO.P,C18,1*%
%TO.N,DCap*%
X147920000Y-91400000D03*
%TO.P,C18,2*%
%TO.N,OB GND*%
X147280000Y-91400000D03*
%TD*%
D25*
%TO.P,Y1,1,1*%
%TO.N,OSC_IN*%
X144400000Y-103100000D03*
%TO.P,Y1,2,2*%
%TO.N,OB GND*%
X146000000Y-103100000D03*
%TO.P,Y1,3,3*%
%TO.N,OSC_OUT*%
X146000000Y-101900000D03*
%TO.P,Y1,4,4*%
%TO.N,OB GND*%
X144400000Y-101900000D03*
%TD*%
D14*
%TO.P,C20,1*%
%TO.N,DCap*%
X163250000Y-101635000D03*
%TO.P,C20,2*%
%TO.N,OB GND*%
X163250000Y-102275000D03*
%TD*%
D26*
%TO.P,U5,1,RO*%
%TO.N,USART RX*%
X164825000Y-105080000D03*
%TO.P,U5,2,~{RE}*%
%TO.N,RS 485 RE*%
X164325000Y-105080000D03*
%TO.P,U5,3,DE*%
%TO.N,RS 485 DE*%
X163825000Y-105080000D03*
%TO.P,U5,4,DI*%
%TO.N,USART TX*%
X163325000Y-105080000D03*
%TO.P,U5,5,GND*%
%TO.N,OB GND*%
X163325000Y-107980000D03*
%TO.P,U5,6,A*%
%TO.N,OB SDA*%
X163825000Y-107980000D03*
%TO.P,U5,7,B*%
%TO.N,OB SDB*%
X164325000Y-107980000D03*
%TO.P,U5,8,VCC*%
%TO.N,DCap*%
X164825000Y-107980000D03*
D27*
%TO.P,U5,9,GND*%
%TO.N,OB GND*%
X164075000Y-106530000D03*
%TD*%
D15*
%TO.P,U3,1,OA*%
%TO.N,OPA1*%
X140825000Y-91350000D03*
D16*
%TO.P,U3,2,-INA*%
%TO.N,1-*%
X140100000Y-90375000D03*
%TO.P,U3,3,+INA*%
%TO.N,1+*%
X139600000Y-90375000D03*
%TO.P,U3,4,V+*%
%TO.N,DCap*%
X139100000Y-90375000D03*
%TO.P,U3,5,+INB*%
%TO.N,2+*%
X138600000Y-90375000D03*
%TO.P,U3,6,-INB*%
%TO.N,2-*%
X138100000Y-90375000D03*
D15*
%TO.P,U3,7,OB*%
%TO.N,OPA2*%
X137375000Y-91350000D03*
%TO.P,U3,8,OC*%
%TO.N,OPA3*%
X137375000Y-92850000D03*
D16*
%TO.P,U3,9,-INC*%
%TO.N,3-*%
X138100000Y-93825000D03*
%TO.P,U3,10,+INC*%
%TO.N,3+*%
X138600000Y-93825000D03*
%TO.P,U3,11,V-*%
%TO.N,OB GND*%
X139100000Y-93825000D03*
%TO.P,U3,12,+IND*%
%TO.N,4+*%
X139600000Y-93825000D03*
%TO.P,U3,13,-IND*%
%TO.N,4-*%
X140100000Y-93825000D03*
D15*
%TO.P,U3,14,OD*%
%TO.N,OPA4*%
X140825000Y-92850000D03*
D17*
%TO.P,U3,15,PAD*%
%TO.N,OB GND*%
X139100000Y-92100000D03*
%TD*%
D13*
%TO.P,C22,1*%
%TO.N,DCap*%
X150300000Y-83020000D03*
%TO.P,C22,2*%
%TO.N,OB GND*%
X150300000Y-82380000D03*
%TD*%
D21*
%TO.P,J3,1,Pin_1*%
%TO.N,1-*%
X134200000Y-87725000D03*
%TO.P,J3,2,Pin_2*%
%TO.N,1+*%
X134200000Y-88975000D03*
%TO.P,J3,3,Pin_3*%
%TO.N,2+*%
X134200000Y-90225000D03*
%TO.P,J3,4,Pin_4*%
%TO.N,2-*%
X134200000Y-91475000D03*
%TO.P,J3,5,Pin_5*%
%TO.N,3-*%
X134200000Y-92725000D03*
%TO.P,J3,6,Pin_6*%
%TO.N,3+*%
X134200000Y-93975000D03*
%TO.P,J3,7,Pin_7*%
%TO.N,4+*%
X134200000Y-95225000D03*
%TO.P,J3,8,Pin_8*%
%TO.N,4-*%
X134200000Y-96475000D03*
D22*
%TO.P,J3,MP,MountPin*%
%TO.N,unconnected-(J3-MountPin-PadMP)*%
X131000000Y-85875000D03*
X131000000Y-98325000D03*
%TD*%
D28*
%TO.P,Y2,1,1*%
%TO.N,OSC32_IN*%
X139797500Y-97500000D03*
%TO.P,Y2,2,2*%
%TO.N,OSC32_OUT*%
X139797500Y-100000000D03*
%TD*%
D13*
%TO.P,R20,1*%
%TO.N,DCap*%
X141300000Y-84590000D03*
%TO.P,R20,2*%
%TO.N,SCL*%
X141300000Y-83950000D03*
%TD*%
D29*
%TO.P,U2,1,VDDIO*%
%TO.N,DCap*%
X140105000Y-84415000D03*
D30*
%TO.P,U2,2,SCL/SPC*%
%TO.N,SCL*%
X140075000Y-83835000D03*
%TO.P,U2,3,VDDIO*%
%TO.N,DCap*%
X140075000Y-83405000D03*
%TO.P,U2,4,SDA/SDI/SDO*%
%TO.N,SDA*%
X140075000Y-82975000D03*
%TO.P,U2,5,SDO_A/G*%
%TO.N,SAOG*%
X140075000Y-82545000D03*
D29*
%TO.P,U2,6,SDO_M*%
%TO.N,SAOM*%
X140105000Y-81965000D03*
%TO.P,U2,7,CS_A/G*%
%TO.N,CSAG*%
X139675000Y-81965000D03*
%TO.P,U2,8,CS_M*%
%TO.N,CSM*%
X139245000Y-81965000D03*
%TO.P,U2,9,DRDY_M*%
%TO.N,unconnected-(U2-DRDY_M-Pad9)*%
X138815000Y-81965000D03*
%TO.P,U2,10,INT_M*%
%TO.N,unconnected-(U2-INT_M-Pad10)*%
X138385000Y-81965000D03*
%TO.P,U2,11,INT1_A/G*%
%TO.N,unconnected-(U2-INT1_A{slash}G-Pad11)*%
X137955000Y-81965000D03*
%TO.P,U2,12,INT2_A/G*%
%TO.N,unconnected-(U2-INT2_A{slash}G-Pad12)*%
X137525000Y-81965000D03*
%TO.P,U2,13,DEN_A/G*%
%TO.N,unconnected-(U2-DEN_A{slash}G-Pad13)*%
X137095000Y-81965000D03*
D30*
%TO.P,U2,14,RES*%
%TO.N,OB GND*%
X137125000Y-82545000D03*
%TO.P,U2,15,RES*%
X137125000Y-82975000D03*
%TO.P,U2,16,RES*%
X137125000Y-83405000D03*
%TO.P,U2,17,RES*%
X137125000Y-83835000D03*
D29*
%TO.P,U2,18,RES*%
X137095000Y-84415000D03*
%TO.P,U2,19,GND*%
X137525000Y-84415000D03*
%TO.P,U2,20,GND*%
X137955000Y-84415000D03*
%TO.P,U2,21,CAP*%
%TO.N,Net-(U2-CAP)*%
X138385000Y-84415000D03*
%TO.P,U2,22,VDD*%
%TO.N,DCap*%
X138815000Y-84415000D03*
%TO.P,U2,23,VDD*%
X139245000Y-84415000D03*
%TO.P,U2,24,C1*%
%TO.N,Net-(U2-C1)*%
X139675000Y-84415000D03*
%TD*%
D12*
%TO.P,R13,1*%
%TO.N,OB 3v3*%
X133520000Y-110600000D03*
%TO.P,R13,2*%
%TO.N,DCap*%
X132880000Y-110600000D03*
%TD*%
D14*
%TO.P,C27,1*%
%TO.N,Net-(C27-Pad1)*%
X162000000Y-101635000D03*
%TO.P,C27,2*%
%TO.N,OB GND*%
X162000000Y-102275000D03*
%TD*%
D13*
%TO.P,R16,1*%
%TO.N,DCap*%
X166400000Y-95200000D03*
%TO.P,R16,2*%
%TO.N,OB SCK*%
X166400000Y-94560000D03*
%TD*%
D31*
%TO.N,OB VBat*%
X151300000Y-109700000D03*
%TO.N,OPA1*%
X140800000Y-89300000D03*
X146100000Y-96900000D03*
%TO.N,1-*%
X140100000Y-89300000D03*
%TO.N,2-*%
X138100000Y-89300000D03*
%TO.N,OPA2*%
X145500000Y-97414069D03*
X137400000Y-89300000D03*
%TO.N,3-*%
X138100000Y-94900000D03*
%TO.N,OPA3*%
X146100000Y-97900000D03*
X137400000Y-94900000D03*
%TO.N,OPA4*%
X145500000Y-98400000D03*
X140800000Y-94900000D03*
%TO.N,4-*%
X140100000Y-94900000D03*
%TO.N,OPA5*%
X137400000Y-107200000D03*
X152700000Y-98700000D03*
%TO.N,5-*%
X138100000Y-107200000D03*
%TO.N,OPA6*%
X137400000Y-101600000D03*
X151650000Y-98150000D03*
%TO.N,6-*%
X138100000Y-101600000D03*
%TO.N,OB GND*%
X161900000Y-103700000D03*
X139100000Y-107200000D03*
X137400000Y-85400000D03*
X158880000Y-118000000D03*
X149400000Y-82400000D03*
X153050000Y-83200000D03*
X139100000Y-94900000D03*
X158900000Y-108900000D03*
X162550000Y-109180000D03*
X167020000Y-85700000D03*
X150100000Y-102200000D03*
X144500000Y-95500000D03*
X145200000Y-110005566D03*
X146000000Y-104400000D03*
X144000000Y-100700500D03*
X144750000Y-88900000D03*
X151150000Y-90600000D03*
X151150000Y-86425000D03*
X144800000Y-93300000D03*
X138052500Y-98750000D03*
X143300000Y-90650000D03*
%TO.N,Net-(U2-C1)*%
X139700000Y-85400000D03*
%TO.N,OSC_IN*%
X145500000Y-91900000D03*
X143000000Y-103100000D03*
%TO.N,OSC_OUT*%
X147400000Y-101900000D03*
X146100000Y-92349500D03*
%TO.N,OSC32_IN*%
X141452500Y-97450000D03*
X145500000Y-89900000D03*
%TO.N,Net-(U2-CAP)*%
X138437209Y-85408567D03*
%TO.N,OSC32_OUT*%
X146150500Y-90400000D03*
X141452500Y-100050000D03*
%TO.N,NRST*%
X147900000Y-93900000D03*
%TO.N,SPI NSS*%
X151150000Y-95300000D03*
X146100000Y-87400000D03*
%TO.N,SPI MOSI*%
X146100000Y-88400000D03*
%TO.N,SPI SCK*%
X146100000Y-86400000D03*
X151150000Y-91491144D03*
%TO.N,SPI MISO*%
X145500000Y-87900000D03*
%TO.N,OB SDA*%
X163725000Y-109180000D03*
%TO.N,OB SDB*%
X164425000Y-109180000D03*
%TO.N,OB SCK*%
X163700000Y-94400000D03*
X168200000Y-94400000D03*
%TO.N,OB PPS*%
X153600000Y-113600000D03*
X153750000Y-109800000D03*
%TO.N,USART RX*%
X165125000Y-103680000D03*
X167000000Y-96900000D03*
%TO.N,RS 485 RE*%
X164425000Y-103680000D03*
X166500000Y-98400000D03*
%TO.N,RS 485 DE*%
X163700000Y-97900000D03*
X163725000Y-103680000D03*
%TO.N,USART TX*%
X163700000Y-96950000D03*
X163025000Y-103680000D03*
%TO.N,DCap*%
X139100000Y-89300000D03*
X165500000Y-109180000D03*
X131400000Y-110600000D03*
X151150000Y-94350000D03*
X155250000Y-83200000D03*
X150150000Y-84250000D03*
X139100000Y-101600000D03*
X164400000Y-101600000D03*
X139050000Y-86350000D03*
X151150000Y-89000000D03*
X136000000Y-82100000D03*
X131400000Y-113700000D03*
X166400000Y-85000000D03*
X140299383Y-86350000D03*
X151142845Y-93157155D03*
X152200000Y-102250000D03*
X151150000Y-96400000D03*
X166400000Y-96150000D03*
X131400000Y-112100000D03*
X167450000Y-93100000D03*
%TO.N,OB 3v3*%
X154375354Y-109574647D03*
X144900000Y-117900000D03*
%TO.N,A02*%
X153200000Y-114200000D03*
X160200000Y-98200000D03*
%TO.N,A04*%
X160700000Y-98700000D03*
X152400000Y-114200000D03*
%TO.N,A06*%
X151600000Y-114200000D03*
X161200000Y-98200000D03*
%TO.N,A08*%
X150800000Y-114200000D03*
X161700000Y-98700000D03*
%TO.N,B02*%
X152800000Y-113600000D03*
X159700000Y-98700000D03*
%TO.N,B04*%
X152000000Y-113600000D03*
X159200000Y-98200000D03*
%TO.N,B06*%
X151200000Y-113600000D03*
X158700000Y-98700000D03*
%TO.N,B08*%
X150400000Y-113600000D03*
X158200000Y-98200000D03*
%TO.N,C01*%
X150000000Y-114200000D03*
X153200000Y-98200000D03*
%TO.N,C03*%
X153700000Y-98700000D03*
X149200000Y-114200000D03*
%TO.N,C05*%
X148400000Y-114200000D03*
X154200000Y-96800000D03*
%TO.N,C07*%
X147600000Y-114200000D03*
X154700000Y-98700000D03*
%TO.N,C09*%
X155200000Y-98200000D03*
X146800000Y-114200000D03*
%TO.N,D01*%
X157700000Y-98700000D03*
X149600000Y-113600000D03*
%TO.N,D03*%
X157200000Y-98200000D03*
X148800000Y-113600000D03*
%TO.N,D05*%
X148000000Y-113600000D03*
X156700000Y-98700000D03*
%TO.N,D07*%
X147200000Y-113600000D03*
X156200000Y-98200000D03*
%TO.N,D09*%
X155700000Y-98700000D03*
X146400000Y-113600000D03*
%TO.N,SWCLK*%
X163200000Y-86300000D03*
%TO.N,SWDIO*%
X168650000Y-87850000D03*
%TO.N,BOOT*%
X154182155Y-83217845D03*
%TO.N,OB 5v*%
X154400000Y-117800000D03*
X146000000Y-110005566D03*
%TD*%
D32*
%TO.N,OB VBat*%
X151260000Y-109740000D02*
X151300000Y-109700000D01*
X151260000Y-111970000D02*
X151260000Y-109740000D01*
%TO.N,OPA1*%
X140825000Y-89325000D02*
X140800000Y-89300000D01*
X146100000Y-96900000D02*
X149525000Y-96900000D01*
X140825000Y-91350000D02*
X140825000Y-89325000D01*
%TO.N,1-*%
X140100000Y-88850000D02*
X138975000Y-87725000D01*
X140100000Y-89300000D02*
X140100000Y-88850000D01*
X138975000Y-87725000D02*
X134200000Y-87725000D01*
X140100000Y-90375000D02*
X140100000Y-89300000D01*
%TO.N,2-*%
X138100000Y-89300000D02*
X137650000Y-88850000D01*
X134525000Y-91475000D02*
X134200000Y-91475000D01*
X137650000Y-88850000D02*
X137150000Y-88850000D01*
X138100000Y-90375000D02*
X138100000Y-89300000D01*
X137150000Y-88850000D02*
X134525000Y-91475000D01*
%TO.N,OPA2*%
X137375000Y-89325000D02*
X137400000Y-89300000D01*
X145500000Y-97414069D02*
X145514069Y-97400000D01*
X145514069Y-97400000D02*
X149525000Y-97400000D01*
X137375000Y-91350000D02*
X137375000Y-89325000D01*
%TO.N,3-*%
X137150000Y-95350000D02*
X134525000Y-92725000D01*
X138100000Y-93825000D02*
X138100000Y-94900000D01*
X137650000Y-95350000D02*
X137150000Y-95350000D01*
X134525000Y-92725000D02*
X134200000Y-92725000D01*
X138100000Y-94900000D02*
X137650000Y-95350000D01*
%TO.N,OPA3*%
X137375000Y-94875000D02*
X137400000Y-94900000D01*
X137375000Y-92850000D02*
X137375000Y-94875000D01*
X146100000Y-97900000D02*
X149525000Y-97900000D01*
%TO.N,OPA4*%
X145500000Y-98400000D02*
X149525000Y-98400000D01*
X140825000Y-94875000D02*
X140800000Y-94900000D01*
X140825000Y-92850000D02*
X140825000Y-94875000D01*
%TO.N,4-*%
X140100000Y-95400000D02*
X139025000Y-96475000D01*
X139025000Y-96475000D02*
X134200000Y-96475000D01*
X140100000Y-94900000D02*
X140100000Y-95400000D01*
X140100000Y-93825000D02*
X140100000Y-94900000D01*
%TO.N,OPA5*%
X152700000Y-98700000D02*
X152700000Y-100075000D01*
X137375000Y-105150000D02*
X137375000Y-107175000D01*
X137375000Y-107175000D02*
X137400000Y-107200000D01*
%TO.N,5-*%
X137650000Y-107650000D02*
X137150000Y-107650000D01*
X134525000Y-105025000D02*
X134200000Y-105025000D01*
X137150000Y-107650000D02*
X134525000Y-105025000D01*
X138100000Y-107200000D02*
X137650000Y-107650000D01*
X138100000Y-106125000D02*
X138100000Y-107200000D01*
%TO.N,OPA6*%
X137375000Y-103650000D02*
X137375000Y-101625000D01*
X137375000Y-101625000D02*
X137400000Y-101600000D01*
X152200000Y-98700000D02*
X152200000Y-100075000D01*
X151650000Y-98150000D02*
X152200000Y-98700000D01*
%TO.N,6-*%
X134525000Y-103775000D02*
X134200000Y-103775000D01*
X137650000Y-101150000D02*
X137150000Y-101150000D01*
X138100000Y-102675000D02*
X138100000Y-101600000D01*
X137150000Y-101150000D02*
X134525000Y-103775000D01*
X138100000Y-101600000D02*
X137650000Y-101150000D01*
%TO.N,OB GND*%
X145200000Y-92900000D02*
X147280000Y-92900000D01*
X162700000Y-100075000D02*
X162700000Y-101659264D01*
X143640000Y-111970000D02*
X143640000Y-111565566D01*
X137955000Y-84415000D02*
X137525000Y-84415000D01*
X139100000Y-93825000D02*
X139100000Y-94900000D01*
X139100000Y-106125000D02*
X139100000Y-107200000D01*
X144050000Y-91400000D02*
X143300000Y-90650000D01*
X137095000Y-83865000D02*
X137125000Y-83835000D01*
X147280000Y-96300000D02*
X147280000Y-95500000D01*
X163325000Y-107280000D02*
X164075000Y-106530000D01*
X137400000Y-85400000D02*
X137955000Y-84845000D01*
X137955000Y-84845000D02*
X137955000Y-84415000D01*
X167020000Y-85700000D02*
X167020000Y-86400000D01*
X163325000Y-107980000D02*
X163325000Y-107280000D01*
X147280000Y-88900000D02*
X144750000Y-88900000D01*
X149400000Y-82400000D02*
X150265736Y-82400000D01*
X143640000Y-111565566D02*
X145200000Y-110005566D01*
X162550000Y-109180000D02*
X163325000Y-108405000D01*
X162700000Y-101739264D02*
X163235736Y-102275000D01*
X147280000Y-95485736D02*
X147665736Y-95100000D01*
X151100000Y-101580000D02*
X150720000Y-101580000D01*
X162000000Y-103600000D02*
X161900000Y-103700000D01*
X167020000Y-86414264D02*
X167020000Y-86400000D01*
X144800000Y-93300000D02*
X145200000Y-92900000D01*
X139100000Y-92100000D02*
X139100000Y-93825000D01*
X148500000Y-95400000D02*
X149525000Y-95400000D01*
X150265736Y-82400000D02*
X150285736Y-82380000D01*
X147765736Y-90900000D02*
X147280000Y-91385736D01*
X151700000Y-82865736D02*
X151214264Y-82380000D01*
X164875000Y-86900000D02*
X166534264Y-86900000D01*
X151700000Y-84725000D02*
X151700000Y-82865736D01*
X162700000Y-101659264D02*
X162700000Y-101739264D01*
X151100000Y-100175000D02*
X151200000Y-100075000D01*
X147665736Y-95100000D02*
X148200000Y-95100000D01*
X148200000Y-95100000D02*
X148500000Y-95400000D01*
X137525000Y-84415000D02*
X137095000Y-84415000D01*
X150720000Y-101580000D02*
X150100000Y-102200000D01*
X146000000Y-103100000D02*
X146000000Y-104400000D01*
X150285736Y-82380000D02*
X150300000Y-82380000D01*
X149525000Y-90900000D02*
X147765736Y-90900000D01*
X158900000Y-108900000D02*
X158900000Y-111950000D01*
X158900000Y-111950000D02*
X158880000Y-111970000D01*
X167020000Y-87385736D02*
X167020000Y-87400000D01*
X144400000Y-101900000D02*
X144400000Y-101100500D01*
X158880000Y-118000000D02*
X158880000Y-115831000D01*
X144400000Y-101100500D02*
X144000000Y-100700500D01*
X166534264Y-86900000D02*
X167020000Y-86414264D01*
X147280000Y-91400000D02*
X144050000Y-91400000D01*
X147280000Y-95500000D02*
X144500000Y-95500000D01*
X151100000Y-101580000D02*
X151100000Y-100175000D01*
X163235736Y-102275000D02*
X163250000Y-102275000D01*
X147280000Y-91385736D02*
X147280000Y-91400000D01*
X151214264Y-82380000D02*
X151200000Y-82380000D01*
X151200000Y-82380000D02*
X150300000Y-82380000D01*
X162084264Y-102275000D02*
X162000000Y-102275000D01*
X162000000Y-102275000D02*
X162000000Y-103600000D01*
X162700000Y-101659264D02*
X162084264Y-102275000D01*
X137125000Y-83835000D02*
X137125000Y-83405000D01*
X137125000Y-82545000D02*
X137125000Y-82975000D01*
X137095000Y-84415000D02*
X137095000Y-83865000D01*
X143640000Y-111970000D02*
X143640000Y-115831000D01*
X166534264Y-86900000D02*
X167020000Y-87385736D01*
X147280000Y-95500000D02*
X147280000Y-95485736D01*
X137125000Y-82975000D02*
X137125000Y-83405000D01*
X163325000Y-108405000D02*
X163325000Y-107980000D01*
X139100000Y-104400000D02*
X139100000Y-106125000D01*
%TO.N,Net-(U2-C1)*%
X139700000Y-85400000D02*
X139675000Y-85375000D01*
X139675000Y-85375000D02*
X139675000Y-84415000D01*
%TO.N,OSC_IN*%
X145500000Y-91900000D02*
X149525000Y-91900000D01*
X144400000Y-103100000D02*
X143000000Y-103100000D01*
%TO.N,OSC_OUT*%
X146150500Y-92400000D02*
X149525000Y-92400000D01*
X146100000Y-92349500D02*
X146150500Y-92400000D01*
X146000000Y-101900000D02*
X147400000Y-101900000D01*
%TO.N,OSC32_IN*%
X141402500Y-97500000D02*
X141452500Y-97450000D01*
X145500000Y-89900000D02*
X149525000Y-89900000D01*
X139797500Y-97500000D02*
X141402500Y-97500000D01*
%TO.N,Net-(U2-CAP)*%
X138385000Y-85356358D02*
X138385000Y-84415000D01*
X138437209Y-85408567D02*
X138385000Y-85356358D01*
%TO.N,OSC32_OUT*%
X139797500Y-100000000D02*
X141402500Y-100000000D01*
X141402500Y-100000000D02*
X141452500Y-100050000D01*
X146150500Y-90400000D02*
X149525000Y-90400000D01*
%TO.N,NRST*%
X149525000Y-92900000D02*
X147920000Y-92900000D01*
X147900000Y-93900000D02*
X147900000Y-92920000D01*
X147900000Y-92920000D02*
X147920000Y-92900000D01*
%TO.N,SPI NSS*%
X146100000Y-87400000D02*
X149525000Y-87400000D01*
%TO.N,SPI MOSI*%
X146100000Y-88400000D02*
X149525000Y-88400000D01*
%TO.N,SPI SCK*%
X146100000Y-86400000D02*
X149525000Y-86400000D01*
%TO.N,SPI MISO*%
X145500000Y-87900000D02*
X149525000Y-87900000D01*
%TO.N,OB SDA*%
X163725000Y-109180000D02*
X163725000Y-109665000D01*
X163825000Y-107980000D02*
X163825000Y-109080000D01*
X163825000Y-109080000D02*
X163725000Y-109180000D01*
X163725000Y-109665000D02*
X161420000Y-111970000D01*
%TO.N,OB SDB*%
X162500000Y-114000000D02*
X156900000Y-114000000D01*
X164425000Y-112075000D02*
X162500000Y-114000000D01*
X164325000Y-109080000D02*
X164425000Y-109180000D01*
X164325000Y-107980000D02*
X164325000Y-109080000D01*
X164425000Y-109180000D02*
X164425000Y-112075000D01*
X156900000Y-114000000D02*
X156340000Y-113440000D01*
X156340000Y-113440000D02*
X156340000Y-111970000D01*
%TO.N,OB SDL*%
X166220000Y-93900000D02*
X166400000Y-93720000D01*
X164875000Y-93900000D02*
X166220000Y-93900000D01*
X167100000Y-111956741D02*
X167100000Y-97436397D01*
X167100000Y-97436397D02*
X167450000Y-97086397D01*
X161420000Y-115831000D02*
X163225741Y-115831000D01*
X167450000Y-97086397D02*
X167450000Y-94770000D01*
X163225741Y-115831000D02*
X167100000Y-111956741D01*
X167450000Y-94770000D02*
X166400000Y-93720000D01*
%TO.N,OB SCK*%
X156340000Y-115831000D02*
X156340000Y-116240995D01*
X167400000Y-97560661D02*
X168200000Y-96760661D01*
X160881005Y-118600000D02*
X167400000Y-112081005D01*
X166240000Y-94400000D02*
X164875000Y-94400000D01*
X156340000Y-116240995D02*
X158699005Y-118600000D01*
X168200000Y-96760661D02*
X168200000Y-94400000D01*
X166400000Y-94560000D02*
X166240000Y-94400000D01*
X167400000Y-112081005D02*
X167400000Y-97560661D01*
X163700000Y-94400000D02*
X164875000Y-94400000D01*
X158699005Y-118600000D02*
X160881005Y-118600000D01*
%TO.N,OB S1_3v3*%
X148720000Y-115831000D02*
X148720000Y-116240995D01*
X136000000Y-115400000D02*
X134300000Y-113700000D01*
X134300000Y-113700000D02*
X133520000Y-113700000D01*
X148720000Y-116240995D02*
X146260995Y-118700000D01*
X146260995Y-118700000D02*
X136551472Y-118700000D01*
X136551472Y-118700000D02*
X136000000Y-118148528D01*
X136000000Y-118148528D02*
X136000000Y-115400000D01*
%TO.N,OB S2_3v3*%
X145950000Y-116061000D02*
X145950000Y-117650000D01*
X136675736Y-118400000D02*
X136300000Y-118024264D01*
X136300000Y-118024264D02*
X136300000Y-114880000D01*
X145200000Y-118400000D02*
X136675736Y-118400000D01*
X136300000Y-114880000D02*
X133520000Y-112100000D01*
X145950000Y-117650000D02*
X145200000Y-118400000D01*
X146180000Y-115831000D02*
X145950000Y-116061000D01*
%TO.N,OB PPS*%
X144500000Y-108700000D02*
X142400000Y-110800000D01*
X142400000Y-110800000D02*
X142400000Y-114121005D01*
X142400000Y-114121005D02*
X141100000Y-115421005D01*
X141100000Y-115421005D02*
X141100000Y-115831000D01*
X153750000Y-109800000D02*
X152650000Y-108700000D01*
X152650000Y-108700000D02*
X144500000Y-108700000D01*
%TO.N,1+*%
X136125000Y-88975000D02*
X134200000Y-88975000D01*
X137000000Y-88100000D02*
X136125000Y-88975000D01*
X139600000Y-88975736D02*
X138724264Y-88100000D01*
X138724264Y-88100000D02*
X137000000Y-88100000D01*
X139600000Y-90375000D02*
X139600000Y-88975736D01*
%TO.N,2+*%
X135325000Y-90225000D02*
X134200000Y-90225000D01*
X138150000Y-88550000D02*
X137000000Y-88550000D01*
X138600000Y-90375000D02*
X138600000Y-89000000D01*
X137000000Y-88550000D02*
X135325000Y-90225000D01*
X138600000Y-89000000D02*
X138150000Y-88550000D01*
%TO.N,3+*%
X138600000Y-93825000D02*
X138600000Y-95200000D01*
X135325000Y-93975000D02*
X134200000Y-93975000D01*
X138150000Y-95650000D02*
X137000000Y-95650000D01*
X137000000Y-95650000D02*
X135325000Y-93975000D01*
X138600000Y-95200000D02*
X138150000Y-95650000D01*
%TO.N,4+*%
X139600000Y-93825000D02*
X139600000Y-95400000D01*
X137000000Y-96100000D02*
X136100000Y-95200000D01*
X134225000Y-95200000D02*
X134200000Y-95225000D01*
X138900000Y-96100000D02*
X137000000Y-96100000D01*
X139600000Y-95400000D02*
X138900000Y-96100000D01*
X136100000Y-95200000D02*
X134225000Y-95200000D01*
%TO.N,5+*%
X138050000Y-107950000D02*
X135875000Y-107950000D01*
X138600000Y-106125000D02*
X138600000Y-107400000D01*
X135875000Y-107950000D02*
X134200000Y-106275000D01*
X138600000Y-107400000D02*
X138050000Y-107950000D01*
%TO.N,6+*%
X138600000Y-102675000D02*
X138600000Y-101400000D01*
X135925000Y-100800000D02*
X134200000Y-102525000D01*
X138600000Y-101400000D02*
X138000000Y-100800000D01*
X138000000Y-100800000D02*
X135925000Y-100800000D01*
%TO.N,SCL*%
X141185000Y-83835000D02*
X141300000Y-83950000D01*
X153700000Y-84725000D02*
X153700000Y-82700000D01*
X153700000Y-82700000D02*
X152950000Y-81950000D01*
X143300000Y-81950000D02*
X141300000Y-83950000D01*
X152950000Y-81950000D02*
X143300000Y-81950000D01*
X140075000Y-83835000D02*
X141185000Y-83835000D01*
%TO.N,SDA*%
X140075000Y-82975000D02*
X140635736Y-82975000D01*
X141285736Y-82325000D02*
X141300000Y-82325000D01*
X141975000Y-81650000D02*
X141300000Y-82325000D01*
X140635736Y-82975000D02*
X141285736Y-82325000D01*
X153750000Y-81650000D02*
X141975000Y-81650000D01*
X154700000Y-82600000D02*
X153750000Y-81650000D01*
X154700000Y-84725000D02*
X154700000Y-82600000D01*
%TO.N,USART RX*%
X167000000Y-96900000D02*
X164875000Y-96900000D01*
X164825000Y-103980000D02*
X165125000Y-103680000D01*
X164825000Y-105080000D02*
X164825000Y-103980000D01*
%TO.N,RS 485 RE*%
X164325000Y-103780000D02*
X164425000Y-103680000D01*
X164325000Y-105080000D02*
X164325000Y-103780000D01*
X166500000Y-98400000D02*
X164875000Y-98400000D01*
%TO.N,RS 485 DE*%
X163825000Y-105080000D02*
X163825000Y-103780000D01*
X163825000Y-103780000D02*
X163725000Y-103680000D01*
X163700000Y-97900000D02*
X164875000Y-97900000D01*
%TO.N,USART TX*%
X163325000Y-105080000D02*
X163325000Y-103980000D01*
X164150000Y-97400000D02*
X164875000Y-97400000D01*
X163700000Y-96950000D02*
X164150000Y-97400000D01*
X163325000Y-103980000D02*
X163025000Y-103680000D01*
%TO.N,DCap*%
X163200000Y-101585000D02*
X163250000Y-101635000D01*
X164825000Y-108505000D02*
X164825000Y-107980000D01*
X140299383Y-86350000D02*
X140299383Y-84609383D01*
X132880000Y-112100000D02*
X131400000Y-112100000D01*
X132880000Y-110600000D02*
X131400000Y-110600000D01*
X149525000Y-95900000D02*
X149525000Y-96400000D01*
X166400000Y-95200000D02*
X166400000Y-96150000D01*
X165500000Y-109180000D02*
X164825000Y-108505000D01*
X139815000Y-83405000D02*
X139245000Y-83975000D01*
X140860000Y-83405000D02*
X141300000Y-82965000D01*
X163200000Y-100075000D02*
X163200000Y-101585000D01*
X150300000Y-84100000D02*
X150150000Y-84250000D01*
X151050000Y-88900000D02*
X149525000Y-88900000D01*
X151150000Y-89000000D02*
X151050000Y-88900000D01*
X167430000Y-93080000D02*
X167450000Y-93100000D01*
X140105000Y-84415000D02*
X141125000Y-84415000D01*
X141125000Y-84415000D02*
X141300000Y-84590000D01*
X151150000Y-96400000D02*
X149525000Y-96400000D01*
X163250000Y-101635000D02*
X164365000Y-101635000D01*
X149525000Y-96400000D02*
X148020000Y-96400000D01*
X148320000Y-95900000D02*
X147920000Y-95500000D01*
X164365000Y-101635000D02*
X164400000Y-101600000D01*
X166400000Y-93080000D02*
X167430000Y-93080000D01*
X149525000Y-91400000D02*
X147920000Y-91400000D01*
X140075000Y-83405000D02*
X139815000Y-83405000D01*
X151200000Y-84725000D02*
X151200000Y-83020000D01*
X166380000Y-85020000D02*
X166380000Y-86400000D01*
X148020000Y-96400000D02*
X147920000Y-96300000D01*
X151114264Y-102220000D02*
X151700000Y-101634264D01*
X152170000Y-102220000D02*
X152200000Y-102250000D01*
X150213909Y-91400000D02*
X151142845Y-92328936D01*
X150300000Y-83020000D02*
X150300000Y-84100000D01*
X139050000Y-84610000D02*
X139245000Y-84415000D01*
X139100000Y-90375000D02*
X139100000Y-89300000D01*
X149525000Y-91400000D02*
X150213909Y-91400000D01*
X151100000Y-102220000D02*
X152170000Y-102220000D01*
X139245000Y-83975000D02*
X139245000Y-84415000D01*
X149525000Y-95900000D02*
X148320000Y-95900000D01*
X151200000Y-83020000D02*
X150300000Y-83020000D01*
X140299383Y-84609383D02*
X140105000Y-84415000D01*
X132880000Y-113700000D02*
X131400000Y-113700000D01*
X151100000Y-102220000D02*
X151114264Y-102220000D01*
X139050000Y-84650000D02*
X138815000Y-84415000D01*
X164875000Y-86400000D02*
X166380000Y-86400000D01*
X151700000Y-101634264D02*
X151700000Y-100075000D01*
X166400000Y-85000000D02*
X166380000Y-85020000D01*
X151142845Y-92328936D02*
X151142845Y-93157155D01*
X139050000Y-86350000D02*
X139050000Y-84650000D01*
X147920000Y-88900000D02*
X149525000Y-88900000D01*
X139100000Y-102675000D02*
X139100000Y-101600000D01*
X140075000Y-83405000D02*
X140860000Y-83405000D01*
%TO.N,Net-(C27-Pad1)*%
X162200000Y-100075000D02*
X162200000Y-101435000D01*
X162200000Y-101435000D02*
X162000000Y-101635000D01*
%TO.N,Net-(C28-Pad1)*%
X166380000Y-87400000D02*
X164875000Y-87400000D01*
%TO.N,OB 3v3*%
X136400000Y-109900000D02*
X134610000Y-111690000D01*
X153200707Y-108400000D02*
X144375736Y-108400000D01*
X142875736Y-109900000D02*
X136400000Y-109900000D01*
X136600000Y-117900000D02*
X136600000Y-113680000D01*
X134610000Y-111690000D02*
X133520000Y-110600000D01*
X144375736Y-108400000D02*
X142875736Y-109900000D01*
X144900000Y-113250000D02*
X146180000Y-111970000D01*
X136600000Y-113680000D02*
X134610000Y-111690000D01*
X144900000Y-117900000D02*
X144700000Y-118100000D01*
X144900000Y-117900000D02*
X144900000Y-113250000D01*
X144700000Y-118100000D02*
X136800000Y-118100000D01*
X154375354Y-109574647D02*
X153200707Y-108400000D01*
X136800000Y-118100000D02*
X136600000Y-117900000D01*
%TO.N,A02*%
X160200000Y-98200000D02*
X160200000Y-100075000D01*
%TO.N,A04*%
X160700000Y-98700000D02*
X160700000Y-100075000D01*
%TO.N,A06*%
X161200000Y-98200000D02*
X161200000Y-100075000D01*
%TO.N,A08*%
X161700000Y-98700000D02*
X161700000Y-100075000D01*
%TO.N,B02*%
X159700000Y-98700000D02*
X159700000Y-100075000D01*
%TO.N,B04*%
X159200000Y-98200000D02*
X159200000Y-100075000D01*
%TO.N,B06*%
X158700000Y-98700000D02*
X158700000Y-100075000D01*
%TO.N,B08*%
X158200000Y-98200000D02*
X158200000Y-100075000D01*
%TO.N,C01*%
X153200000Y-98200000D02*
X153200000Y-100075000D01*
%TO.N,C03*%
X153700000Y-98700000D02*
X153700000Y-100075000D01*
%TO.N,C05*%
X154200000Y-96800000D02*
X154200000Y-100075000D01*
%TO.N,C07*%
X154700000Y-98700000D02*
X154700000Y-100075000D01*
%TO.N,C09*%
X155200000Y-98200000D02*
X155200000Y-100075000D01*
%TO.N,D01*%
X157700000Y-98700000D02*
X157700000Y-100075000D01*
%TO.N,D03*%
X157200000Y-98200000D02*
X157200000Y-100075000D01*
%TO.N,D05*%
X156700000Y-98700000D02*
X156700000Y-100075000D01*
%TO.N,D07*%
X156200000Y-98200000D02*
X156200000Y-100075000D01*
%TO.N,D09*%
X155700000Y-98700000D02*
X155700000Y-100075000D01*
%TO.N,SWCLK*%
X163200000Y-86300000D02*
X163200000Y-84725000D01*
%TO.N,SWDIO*%
X168650000Y-87850000D02*
X168600000Y-87900000D01*
X168600000Y-87900000D02*
X164875000Y-87900000D01*
%TO.N,BOOT*%
X154200000Y-83235690D02*
X154182155Y-83217845D01*
X154200000Y-84725000D02*
X154200000Y-83235690D01*
%TO.N,OB 5v*%
X146005566Y-110000000D02*
X146000000Y-110005566D01*
X155300000Y-111189995D02*
X155300000Y-116900000D01*
X148800000Y-110000000D02*
X149800000Y-109000000D01*
X148720000Y-110080000D02*
X148720000Y-111970000D01*
X154360005Y-110250000D02*
X155300000Y-111189995D01*
X148800000Y-110000000D02*
X146005566Y-110000000D01*
X149800000Y-109000000D02*
X152313603Y-109000000D01*
X152313603Y-109000000D02*
X153563603Y-110250000D01*
X155300000Y-116900000D02*
X154400000Y-117800000D01*
X148800000Y-110000000D02*
X148720000Y-110080000D01*
X153563603Y-110250000D02*
X154360005Y-110250000D01*
%TO.N,SAOG*%
X157200000Y-83150000D02*
X157200000Y-84725000D01*
X141330000Y-81350000D02*
X140135000Y-82545000D01*
X140135000Y-82545000D02*
X140075000Y-82545000D01*
X155400000Y-81350000D02*
X141330000Y-81350000D01*
X157200000Y-83150000D02*
X155400000Y-81350000D01*
%TO.N,SAOM*%
X157700000Y-82650000D02*
X157700000Y-84725000D01*
X157700000Y-82650000D02*
X156100000Y-81050000D01*
X156100000Y-81050000D02*
X141020000Y-81050000D01*
X141020000Y-81050000D02*
X140105000Y-81965000D01*
%TO.N,CSAG*%
X139675000Y-81590000D02*
X140515000Y-80750000D01*
X140515000Y-80750000D02*
X156550000Y-80750000D01*
X156550000Y-80750000D02*
X158200000Y-82400000D01*
X139675000Y-81965000D02*
X139675000Y-81590000D01*
X158200000Y-82400000D02*
X158200000Y-83200000D01*
X158200000Y-83200000D02*
X158200000Y-84725000D01*
%TO.N,CSM*%
X158700000Y-82400000D02*
X156750000Y-80450000D01*
X156750000Y-80450000D02*
X140385000Y-80450000D01*
X140385000Y-80450000D02*
X139245000Y-81590000D01*
X139245000Y-81590000D02*
X139245000Y-81965000D01*
X158700000Y-82700000D02*
X158700000Y-82400000D01*
X158700000Y-82700000D02*
X158700000Y-84725000D01*
%TD*%
M02*
