%TF.GenerationSoftware,KiCad,Pcbnew,7.0.6*%
%TF.CreationDate,2023-09-15T14:04:58+02:00*%
%TF.ProjectId,V8,56382e6b-6963-4616-945f-706362585858,rev?*%
%TF.SameCoordinates,Original*%
%TF.FileFunction,AssemblyDrawing,Top*%
%FSLAX46Y46*%
G04 Gerber Fmt 4.6, Leading zero omitted, Abs format (unit mm)*
G04 Created by KiCad (PCBNEW 7.0.6) date 2023-09-15 14:04:58*
%MOMM*%
%LPD*%
G01*
G04 APERTURE LIST*
%ADD10C,0.150000*%
%ADD11C,0.040000*%
%ADD12C,0.080000*%
%ADD13C,0.090000*%
%ADD14C,0.110000*%
%ADD15C,0.105000*%
%ADD16C,0.100000*%
G04 APERTURE END LIST*
D10*
X165561904Y-109724580D02*
X165514285Y-109772200D01*
X165514285Y-109772200D02*
X165371428Y-109819819D01*
X165371428Y-109819819D02*
X165276190Y-109819819D01*
X165276190Y-109819819D02*
X165133333Y-109772200D01*
X165133333Y-109772200D02*
X165038095Y-109676961D01*
X165038095Y-109676961D02*
X164990476Y-109581723D01*
X164990476Y-109581723D02*
X164942857Y-109391247D01*
X164942857Y-109391247D02*
X164942857Y-109248390D01*
X164942857Y-109248390D02*
X164990476Y-109057914D01*
X164990476Y-109057914D02*
X165038095Y-108962676D01*
X165038095Y-108962676D02*
X165133333Y-108867438D01*
X165133333Y-108867438D02*
X165276190Y-108819819D01*
X165276190Y-108819819D02*
X165371428Y-108819819D01*
X165371428Y-108819819D02*
X165514285Y-108867438D01*
X165514285Y-108867438D02*
X165561904Y-108915057D01*
X166133333Y-109819819D02*
X166038095Y-109772200D01*
X166038095Y-109772200D02*
X165990476Y-109724580D01*
X165990476Y-109724580D02*
X165942857Y-109629342D01*
X165942857Y-109629342D02*
X165942857Y-109343628D01*
X165942857Y-109343628D02*
X165990476Y-109248390D01*
X165990476Y-109248390D02*
X166038095Y-109200771D01*
X166038095Y-109200771D02*
X166133333Y-109153152D01*
X166133333Y-109153152D02*
X166276190Y-109153152D01*
X166276190Y-109153152D02*
X166371428Y-109200771D01*
X166371428Y-109200771D02*
X166419047Y-109248390D01*
X166419047Y-109248390D02*
X166466666Y-109343628D01*
X166466666Y-109343628D02*
X166466666Y-109629342D01*
X166466666Y-109629342D02*
X166419047Y-109724580D01*
X166419047Y-109724580D02*
X166371428Y-109772200D01*
X166371428Y-109772200D02*
X166276190Y-109819819D01*
X166276190Y-109819819D02*
X166133333Y-109819819D01*
X166895238Y-109153152D02*
X166895238Y-109819819D01*
X166895238Y-109248390D02*
X166942857Y-109200771D01*
X166942857Y-109200771D02*
X167038095Y-109153152D01*
X167038095Y-109153152D02*
X167180952Y-109153152D01*
X167180952Y-109153152D02*
X167276190Y-109200771D01*
X167276190Y-109200771D02*
X167323809Y-109296009D01*
X167323809Y-109296009D02*
X167323809Y-109819819D01*
X167800000Y-109153152D02*
X167800000Y-109819819D01*
X167800000Y-109248390D02*
X167847619Y-109200771D01*
X167847619Y-109200771D02*
X167942857Y-109153152D01*
X167942857Y-109153152D02*
X168085714Y-109153152D01*
X168085714Y-109153152D02*
X168180952Y-109200771D01*
X168180952Y-109200771D02*
X168228571Y-109296009D01*
X168228571Y-109296009D02*
X168228571Y-109819819D01*
X168466667Y-109915057D02*
X169228571Y-109915057D01*
X169657143Y-108819819D02*
X169752381Y-108819819D01*
X169752381Y-108819819D02*
X169847619Y-108867438D01*
X169847619Y-108867438D02*
X169895238Y-108915057D01*
X169895238Y-108915057D02*
X169942857Y-109010295D01*
X169942857Y-109010295D02*
X169990476Y-109200771D01*
X169990476Y-109200771D02*
X169990476Y-109438866D01*
X169990476Y-109438866D02*
X169942857Y-109629342D01*
X169942857Y-109629342D02*
X169895238Y-109724580D01*
X169895238Y-109724580D02*
X169847619Y-109772200D01*
X169847619Y-109772200D02*
X169752381Y-109819819D01*
X169752381Y-109819819D02*
X169657143Y-109819819D01*
X169657143Y-109819819D02*
X169561905Y-109772200D01*
X169561905Y-109772200D02*
X169514286Y-109724580D01*
X169514286Y-109724580D02*
X169466667Y-109629342D01*
X169466667Y-109629342D02*
X169419048Y-109438866D01*
X169419048Y-109438866D02*
X169419048Y-109200771D01*
X169419048Y-109200771D02*
X169466667Y-109010295D01*
X169466667Y-109010295D02*
X169514286Y-108915057D01*
X169514286Y-108915057D02*
X169561905Y-108867438D01*
X169561905Y-108867438D02*
X169657143Y-108819819D01*
X170942857Y-109819819D02*
X170371429Y-109819819D01*
X170657143Y-109819819D02*
X170657143Y-108819819D01*
X170657143Y-108819819D02*
X170561905Y-108962676D01*
X170561905Y-108962676D02*
X170466667Y-109057914D01*
X170466667Y-109057914D02*
X170371429Y-109105533D01*
X171276191Y-109819819D02*
X171800000Y-109153152D01*
X171276191Y-109153152D02*
X171800000Y-109819819D01*
X172371429Y-108819819D02*
X172466667Y-108819819D01*
X172466667Y-108819819D02*
X172561905Y-108867438D01*
X172561905Y-108867438D02*
X172609524Y-108915057D01*
X172609524Y-108915057D02*
X172657143Y-109010295D01*
X172657143Y-109010295D02*
X172704762Y-109200771D01*
X172704762Y-109200771D02*
X172704762Y-109438866D01*
X172704762Y-109438866D02*
X172657143Y-109629342D01*
X172657143Y-109629342D02*
X172609524Y-109724580D01*
X172609524Y-109724580D02*
X172561905Y-109772200D01*
X172561905Y-109772200D02*
X172466667Y-109819819D01*
X172466667Y-109819819D02*
X172371429Y-109819819D01*
X172371429Y-109819819D02*
X172276191Y-109772200D01*
X172276191Y-109772200D02*
X172228572Y-109724580D01*
X172228572Y-109724580D02*
X172180953Y-109629342D01*
X172180953Y-109629342D02*
X172133334Y-109438866D01*
X172133334Y-109438866D02*
X172133334Y-109200771D01*
X172133334Y-109200771D02*
X172180953Y-109010295D01*
X172180953Y-109010295D02*
X172228572Y-108915057D01*
X172228572Y-108915057D02*
X172276191Y-108867438D01*
X172276191Y-108867438D02*
X172371429Y-108819819D01*
X173609524Y-108819819D02*
X173133334Y-108819819D01*
X173133334Y-108819819D02*
X173085715Y-109296009D01*
X173085715Y-109296009D02*
X173133334Y-109248390D01*
X173133334Y-109248390D02*
X173228572Y-109200771D01*
X173228572Y-109200771D02*
X173466667Y-109200771D01*
X173466667Y-109200771D02*
X173561905Y-109248390D01*
X173561905Y-109248390D02*
X173609524Y-109296009D01*
X173609524Y-109296009D02*
X173657143Y-109391247D01*
X173657143Y-109391247D02*
X173657143Y-109629342D01*
X173657143Y-109629342D02*
X173609524Y-109724580D01*
X173609524Y-109724580D02*
X173561905Y-109772200D01*
X173561905Y-109772200D02*
X173466667Y-109819819D01*
X173466667Y-109819819D02*
X173228572Y-109819819D01*
X173228572Y-109819819D02*
X173133334Y-109772200D01*
X173133334Y-109772200D02*
X173085715Y-109724580D01*
X168754819Y-105463333D02*
X169469104Y-105463333D01*
X169469104Y-105463333D02*
X169611961Y-105510952D01*
X169611961Y-105510952D02*
X169707200Y-105606190D01*
X169707200Y-105606190D02*
X169754819Y-105749047D01*
X169754819Y-105749047D02*
X169754819Y-105844285D01*
X169183390Y-104844285D02*
X169135771Y-104939523D01*
X169135771Y-104939523D02*
X169088152Y-104987142D01*
X169088152Y-104987142D02*
X168992914Y-105034761D01*
X168992914Y-105034761D02*
X168945295Y-105034761D01*
X168945295Y-105034761D02*
X168850057Y-104987142D01*
X168850057Y-104987142D02*
X168802438Y-104939523D01*
X168802438Y-104939523D02*
X168754819Y-104844285D01*
X168754819Y-104844285D02*
X168754819Y-104653809D01*
X168754819Y-104653809D02*
X168802438Y-104558571D01*
X168802438Y-104558571D02*
X168850057Y-104510952D01*
X168850057Y-104510952D02*
X168945295Y-104463333D01*
X168945295Y-104463333D02*
X168992914Y-104463333D01*
X168992914Y-104463333D02*
X169088152Y-104510952D01*
X169088152Y-104510952D02*
X169135771Y-104558571D01*
X169135771Y-104558571D02*
X169183390Y-104653809D01*
X169183390Y-104653809D02*
X169183390Y-104844285D01*
X169183390Y-104844285D02*
X169231009Y-104939523D01*
X169231009Y-104939523D02*
X169278628Y-104987142D01*
X169278628Y-104987142D02*
X169373866Y-105034761D01*
X169373866Y-105034761D02*
X169564342Y-105034761D01*
X169564342Y-105034761D02*
X169659580Y-104987142D01*
X169659580Y-104987142D02*
X169707200Y-104939523D01*
X169707200Y-104939523D02*
X169754819Y-104844285D01*
X169754819Y-104844285D02*
X169754819Y-104653809D01*
X169754819Y-104653809D02*
X169707200Y-104558571D01*
X169707200Y-104558571D02*
X169659580Y-104510952D01*
X169659580Y-104510952D02*
X169564342Y-104463333D01*
X169564342Y-104463333D02*
X169373866Y-104463333D01*
X169373866Y-104463333D02*
X169278628Y-104510952D01*
X169278628Y-104510952D02*
X169231009Y-104558571D01*
X169231009Y-104558571D02*
X169183390Y-104653809D01*
X146480952Y-95704819D02*
X145909524Y-95704819D01*
X146195238Y-95704819D02*
X146195238Y-94704819D01*
X146195238Y-94704819D02*
X146100000Y-94847676D01*
X146100000Y-94847676D02*
X146004762Y-94942914D01*
X146004762Y-94942914D02*
X145909524Y-94990533D01*
X147100000Y-94704819D02*
X147195238Y-94704819D01*
X147195238Y-94704819D02*
X147290476Y-94752438D01*
X147290476Y-94752438D02*
X147338095Y-94800057D01*
X147338095Y-94800057D02*
X147385714Y-94895295D01*
X147385714Y-94895295D02*
X147433333Y-95085771D01*
X147433333Y-95085771D02*
X147433333Y-95323866D01*
X147433333Y-95323866D02*
X147385714Y-95514342D01*
X147385714Y-95514342D02*
X147338095Y-95609580D01*
X147338095Y-95609580D02*
X147290476Y-95657200D01*
X147290476Y-95657200D02*
X147195238Y-95704819D01*
X147195238Y-95704819D02*
X147100000Y-95704819D01*
X147100000Y-95704819D02*
X147004762Y-95657200D01*
X147004762Y-95657200D02*
X146957143Y-95609580D01*
X146957143Y-95609580D02*
X146909524Y-95514342D01*
X146909524Y-95514342D02*
X146861905Y-95323866D01*
X146861905Y-95323866D02*
X146861905Y-95085771D01*
X146861905Y-95085771D02*
X146909524Y-94895295D01*
X146909524Y-94895295D02*
X146957143Y-94800057D01*
X146957143Y-94800057D02*
X147004762Y-94752438D01*
X147004762Y-94752438D02*
X147100000Y-94704819D01*
X148052381Y-94704819D02*
X148147619Y-94704819D01*
X148147619Y-94704819D02*
X148242857Y-94752438D01*
X148242857Y-94752438D02*
X148290476Y-94800057D01*
X148290476Y-94800057D02*
X148338095Y-94895295D01*
X148338095Y-94895295D02*
X148385714Y-95085771D01*
X148385714Y-95085771D02*
X148385714Y-95323866D01*
X148385714Y-95323866D02*
X148338095Y-95514342D01*
X148338095Y-95514342D02*
X148290476Y-95609580D01*
X148290476Y-95609580D02*
X148242857Y-95657200D01*
X148242857Y-95657200D02*
X148147619Y-95704819D01*
X148147619Y-95704819D02*
X148052381Y-95704819D01*
X148052381Y-95704819D02*
X147957143Y-95657200D01*
X147957143Y-95657200D02*
X147909524Y-95609580D01*
X147909524Y-95609580D02*
X147861905Y-95514342D01*
X147861905Y-95514342D02*
X147814286Y-95323866D01*
X147814286Y-95323866D02*
X147814286Y-95085771D01*
X147814286Y-95085771D02*
X147861905Y-94895295D01*
X147861905Y-94895295D02*
X147909524Y-94800057D01*
X147909524Y-94800057D02*
X147957143Y-94752438D01*
X147957143Y-94752438D02*
X148052381Y-94704819D01*
X148814286Y-95038152D02*
X148814286Y-95704819D01*
X148814286Y-95133390D02*
X148861905Y-95085771D01*
X148861905Y-95085771D02*
X148957143Y-95038152D01*
X148957143Y-95038152D02*
X149100000Y-95038152D01*
X149100000Y-95038152D02*
X149195238Y-95085771D01*
X149195238Y-95085771D02*
X149242857Y-95181009D01*
X149242857Y-95181009D02*
X149242857Y-95704819D01*
D11*
X147439285Y-97069765D02*
X147427381Y-97081670D01*
X147427381Y-97081670D02*
X147391666Y-97093574D01*
X147391666Y-97093574D02*
X147367857Y-97093574D01*
X147367857Y-97093574D02*
X147332143Y-97081670D01*
X147332143Y-97081670D02*
X147308333Y-97057860D01*
X147308333Y-97057860D02*
X147296428Y-97034050D01*
X147296428Y-97034050D02*
X147284524Y-96986431D01*
X147284524Y-96986431D02*
X147284524Y-96950717D01*
X147284524Y-96950717D02*
X147296428Y-96903098D01*
X147296428Y-96903098D02*
X147308333Y-96879289D01*
X147308333Y-96879289D02*
X147332143Y-96855479D01*
X147332143Y-96855479D02*
X147367857Y-96843574D01*
X147367857Y-96843574D02*
X147391666Y-96843574D01*
X147391666Y-96843574D02*
X147427381Y-96855479D01*
X147427381Y-96855479D02*
X147439285Y-96867384D01*
X147534524Y-96867384D02*
X147546428Y-96855479D01*
X147546428Y-96855479D02*
X147570238Y-96843574D01*
X147570238Y-96843574D02*
X147629762Y-96843574D01*
X147629762Y-96843574D02*
X147653571Y-96855479D01*
X147653571Y-96855479D02*
X147665476Y-96867384D01*
X147665476Y-96867384D02*
X147677381Y-96891193D01*
X147677381Y-96891193D02*
X147677381Y-96915003D01*
X147677381Y-96915003D02*
X147665476Y-96950717D01*
X147665476Y-96950717D02*
X147522619Y-97093574D01*
X147522619Y-97093574D02*
X147677381Y-97093574D01*
X147760714Y-96843574D02*
X147915476Y-96843574D01*
X147915476Y-96843574D02*
X147832142Y-96938812D01*
X147832142Y-96938812D02*
X147867857Y-96938812D01*
X147867857Y-96938812D02*
X147891666Y-96950717D01*
X147891666Y-96950717D02*
X147903571Y-96962622D01*
X147903571Y-96962622D02*
X147915476Y-96986431D01*
X147915476Y-96986431D02*
X147915476Y-97045955D01*
X147915476Y-97045955D02*
X147903571Y-97069765D01*
X147903571Y-97069765D02*
X147891666Y-97081670D01*
X147891666Y-97081670D02*
X147867857Y-97093574D01*
X147867857Y-97093574D02*
X147796428Y-97093574D01*
X147796428Y-97093574D02*
X147772619Y-97081670D01*
X147772619Y-97081670D02*
X147760714Y-97069765D01*
D10*
X152704819Y-83342857D02*
X152704819Y-83914285D01*
X152704819Y-83628571D02*
X151704819Y-83628571D01*
X151704819Y-83628571D02*
X151847676Y-83723809D01*
X151847676Y-83723809D02*
X151942914Y-83819047D01*
X151942914Y-83819047D02*
X151990533Y-83914285D01*
X151704819Y-82723809D02*
X151704819Y-82628571D01*
X151704819Y-82628571D02*
X151752438Y-82533333D01*
X151752438Y-82533333D02*
X151800057Y-82485714D01*
X151800057Y-82485714D02*
X151895295Y-82438095D01*
X151895295Y-82438095D02*
X152085771Y-82390476D01*
X152085771Y-82390476D02*
X152323866Y-82390476D01*
X152323866Y-82390476D02*
X152514342Y-82438095D01*
X152514342Y-82438095D02*
X152609580Y-82485714D01*
X152609580Y-82485714D02*
X152657200Y-82533333D01*
X152657200Y-82533333D02*
X152704819Y-82628571D01*
X152704819Y-82628571D02*
X152704819Y-82723809D01*
X152704819Y-82723809D02*
X152657200Y-82819047D01*
X152657200Y-82819047D02*
X152609580Y-82866666D01*
X152609580Y-82866666D02*
X152514342Y-82914285D01*
X152514342Y-82914285D02*
X152323866Y-82961904D01*
X152323866Y-82961904D02*
X152085771Y-82961904D01*
X152085771Y-82961904D02*
X151895295Y-82914285D01*
X151895295Y-82914285D02*
X151800057Y-82866666D01*
X151800057Y-82866666D02*
X151752438Y-82819047D01*
X151752438Y-82819047D02*
X151704819Y-82723809D01*
X152038152Y-81533333D02*
X152704819Y-81533333D01*
X152038152Y-81961904D02*
X152561961Y-81961904D01*
X152561961Y-81961904D02*
X152657200Y-81914285D01*
X152657200Y-81914285D02*
X152704819Y-81819047D01*
X152704819Y-81819047D02*
X152704819Y-81676190D01*
X152704819Y-81676190D02*
X152657200Y-81580952D01*
X152657200Y-81580952D02*
X152609580Y-81533333D01*
D11*
X150609765Y-82860714D02*
X150621670Y-82872618D01*
X150621670Y-82872618D02*
X150633574Y-82908333D01*
X150633574Y-82908333D02*
X150633574Y-82932142D01*
X150633574Y-82932142D02*
X150621670Y-82967856D01*
X150621670Y-82967856D02*
X150597860Y-82991666D01*
X150597860Y-82991666D02*
X150574050Y-83003571D01*
X150574050Y-83003571D02*
X150526431Y-83015475D01*
X150526431Y-83015475D02*
X150490717Y-83015475D01*
X150490717Y-83015475D02*
X150443098Y-83003571D01*
X150443098Y-83003571D02*
X150419289Y-82991666D01*
X150419289Y-82991666D02*
X150395479Y-82967856D01*
X150395479Y-82967856D02*
X150383574Y-82932142D01*
X150383574Y-82932142D02*
X150383574Y-82908333D01*
X150383574Y-82908333D02*
X150395479Y-82872618D01*
X150395479Y-82872618D02*
X150407384Y-82860714D01*
X150633574Y-82622618D02*
X150633574Y-82765475D01*
X150633574Y-82694047D02*
X150383574Y-82694047D01*
X150383574Y-82694047D02*
X150419289Y-82717856D01*
X150419289Y-82717856D02*
X150443098Y-82741666D01*
X150443098Y-82741666D02*
X150455003Y-82765475D01*
X150383574Y-82408333D02*
X150383574Y-82455952D01*
X150383574Y-82455952D02*
X150395479Y-82479761D01*
X150395479Y-82479761D02*
X150407384Y-82491666D01*
X150407384Y-82491666D02*
X150443098Y-82515476D01*
X150443098Y-82515476D02*
X150490717Y-82527380D01*
X150490717Y-82527380D02*
X150585955Y-82527380D01*
X150585955Y-82527380D02*
X150609765Y-82515476D01*
X150609765Y-82515476D02*
X150621670Y-82503571D01*
X150621670Y-82503571D02*
X150633574Y-82479761D01*
X150633574Y-82479761D02*
X150633574Y-82432142D01*
X150633574Y-82432142D02*
X150621670Y-82408333D01*
X150621670Y-82408333D02*
X150609765Y-82396428D01*
X150609765Y-82396428D02*
X150585955Y-82384523D01*
X150585955Y-82384523D02*
X150526431Y-82384523D01*
X150526431Y-82384523D02*
X150502622Y-82396428D01*
X150502622Y-82396428D02*
X150490717Y-82408333D01*
X150490717Y-82408333D02*
X150478812Y-82432142D01*
X150478812Y-82432142D02*
X150478812Y-82479761D01*
X150478812Y-82479761D02*
X150490717Y-82503571D01*
X150490717Y-82503571D02*
X150502622Y-82515476D01*
X150502622Y-82515476D02*
X150526431Y-82527380D01*
D10*
X163214285Y-121954819D02*
X163214285Y-120954819D01*
X163214285Y-120954819D02*
X163547618Y-121669104D01*
X163547618Y-121669104D02*
X163880951Y-120954819D01*
X163880951Y-120954819D02*
X163880951Y-121954819D01*
X164499999Y-121954819D02*
X164404761Y-121907200D01*
X164404761Y-121907200D02*
X164357142Y-121859580D01*
X164357142Y-121859580D02*
X164309523Y-121764342D01*
X164309523Y-121764342D02*
X164309523Y-121478628D01*
X164309523Y-121478628D02*
X164357142Y-121383390D01*
X164357142Y-121383390D02*
X164404761Y-121335771D01*
X164404761Y-121335771D02*
X164499999Y-121288152D01*
X164499999Y-121288152D02*
X164642856Y-121288152D01*
X164642856Y-121288152D02*
X164738094Y-121335771D01*
X164738094Y-121335771D02*
X164785713Y-121383390D01*
X164785713Y-121383390D02*
X164833332Y-121478628D01*
X164833332Y-121478628D02*
X164833332Y-121764342D01*
X164833332Y-121764342D02*
X164785713Y-121859580D01*
X164785713Y-121859580D02*
X164738094Y-121907200D01*
X164738094Y-121907200D02*
X164642856Y-121954819D01*
X164642856Y-121954819D02*
X164499999Y-121954819D01*
X165690475Y-121288152D02*
X165690475Y-121954819D01*
X165261904Y-121288152D02*
X165261904Y-121811961D01*
X165261904Y-121811961D02*
X165309523Y-121907200D01*
X165309523Y-121907200D02*
X165404761Y-121954819D01*
X165404761Y-121954819D02*
X165547618Y-121954819D01*
X165547618Y-121954819D02*
X165642856Y-121907200D01*
X165642856Y-121907200D02*
X165690475Y-121859580D01*
X166166666Y-121288152D02*
X166166666Y-121954819D01*
X166166666Y-121383390D02*
X166214285Y-121335771D01*
X166214285Y-121335771D02*
X166309523Y-121288152D01*
X166309523Y-121288152D02*
X166452380Y-121288152D01*
X166452380Y-121288152D02*
X166547618Y-121335771D01*
X166547618Y-121335771D02*
X166595237Y-121431009D01*
X166595237Y-121431009D02*
X166595237Y-121954819D01*
X166928571Y-121288152D02*
X167309523Y-121288152D01*
X167071428Y-120954819D02*
X167071428Y-121811961D01*
X167071428Y-121811961D02*
X167119047Y-121907200D01*
X167119047Y-121907200D02*
X167214285Y-121954819D01*
X167214285Y-121954819D02*
X167309523Y-121954819D01*
X167642857Y-121954819D02*
X167642857Y-121288152D01*
X167642857Y-120954819D02*
X167595238Y-121002438D01*
X167595238Y-121002438D02*
X167642857Y-121050057D01*
X167642857Y-121050057D02*
X167690476Y-121002438D01*
X167690476Y-121002438D02*
X167642857Y-120954819D01*
X167642857Y-120954819D02*
X167642857Y-121050057D01*
X168119047Y-121288152D02*
X168119047Y-121954819D01*
X168119047Y-121383390D02*
X168166666Y-121335771D01*
X168166666Y-121335771D02*
X168261904Y-121288152D01*
X168261904Y-121288152D02*
X168404761Y-121288152D01*
X168404761Y-121288152D02*
X168499999Y-121335771D01*
X168499999Y-121335771D02*
X168547618Y-121431009D01*
X168547618Y-121431009D02*
X168547618Y-121954819D01*
X169452380Y-121288152D02*
X169452380Y-122097676D01*
X169452380Y-122097676D02*
X169404761Y-122192914D01*
X169404761Y-122192914D02*
X169357142Y-122240533D01*
X169357142Y-122240533D02*
X169261904Y-122288152D01*
X169261904Y-122288152D02*
X169119047Y-122288152D01*
X169119047Y-122288152D02*
X169023809Y-122240533D01*
X169452380Y-121907200D02*
X169357142Y-121954819D01*
X169357142Y-121954819D02*
X169166666Y-121954819D01*
X169166666Y-121954819D02*
X169071428Y-121907200D01*
X169071428Y-121907200D02*
X169023809Y-121859580D01*
X169023809Y-121859580D02*
X168976190Y-121764342D01*
X168976190Y-121764342D02*
X168976190Y-121478628D01*
X168976190Y-121478628D02*
X169023809Y-121383390D01*
X169023809Y-121383390D02*
X169071428Y-121335771D01*
X169071428Y-121335771D02*
X169166666Y-121288152D01*
X169166666Y-121288152D02*
X169357142Y-121288152D01*
X169357142Y-121288152D02*
X169452380Y-121335771D01*
X169928571Y-121954819D02*
X169928571Y-120954819D01*
X169928571Y-121431009D02*
X170499999Y-121431009D01*
X170499999Y-121954819D02*
X170499999Y-120954819D01*
X171119047Y-121954819D02*
X171023809Y-121907200D01*
X171023809Y-121907200D02*
X170976190Y-121859580D01*
X170976190Y-121859580D02*
X170928571Y-121764342D01*
X170928571Y-121764342D02*
X170928571Y-121478628D01*
X170928571Y-121478628D02*
X170976190Y-121383390D01*
X170976190Y-121383390D02*
X171023809Y-121335771D01*
X171023809Y-121335771D02*
X171119047Y-121288152D01*
X171119047Y-121288152D02*
X171261904Y-121288152D01*
X171261904Y-121288152D02*
X171357142Y-121335771D01*
X171357142Y-121335771D02*
X171404761Y-121383390D01*
X171404761Y-121383390D02*
X171452380Y-121478628D01*
X171452380Y-121478628D02*
X171452380Y-121764342D01*
X171452380Y-121764342D02*
X171404761Y-121859580D01*
X171404761Y-121859580D02*
X171357142Y-121907200D01*
X171357142Y-121907200D02*
X171261904Y-121954819D01*
X171261904Y-121954819D02*
X171119047Y-121954819D01*
X172023809Y-121954819D02*
X171928571Y-121907200D01*
X171928571Y-121907200D02*
X171880952Y-121811961D01*
X171880952Y-121811961D02*
X171880952Y-120954819D01*
X172785714Y-121907200D02*
X172690476Y-121954819D01*
X172690476Y-121954819D02*
X172500000Y-121954819D01*
X172500000Y-121954819D02*
X172404762Y-121907200D01*
X172404762Y-121907200D02*
X172357143Y-121811961D01*
X172357143Y-121811961D02*
X172357143Y-121431009D01*
X172357143Y-121431009D02*
X172404762Y-121335771D01*
X172404762Y-121335771D02*
X172500000Y-121288152D01*
X172500000Y-121288152D02*
X172690476Y-121288152D01*
X172690476Y-121288152D02*
X172785714Y-121335771D01*
X172785714Y-121335771D02*
X172833333Y-121431009D01*
X172833333Y-121431009D02*
X172833333Y-121526247D01*
X172833333Y-121526247D02*
X172357143Y-121621485D01*
X167238095Y-118454819D02*
X167238095Y-117454819D01*
X167238095Y-117931009D02*
X167809523Y-117931009D01*
X167809523Y-118454819D02*
X167809523Y-117454819D01*
X168714285Y-117788152D02*
X168714285Y-118454819D01*
X168476190Y-117407200D02*
X168238095Y-118121485D01*
X168238095Y-118121485D02*
X168857142Y-118121485D01*
X133152381Y-110504819D02*
X133247619Y-110504819D01*
X133247619Y-110504819D02*
X133342857Y-110552438D01*
X133342857Y-110552438D02*
X133390476Y-110600057D01*
X133390476Y-110600057D02*
X133438095Y-110695295D01*
X133438095Y-110695295D02*
X133485714Y-110885771D01*
X133485714Y-110885771D02*
X133485714Y-111123866D01*
X133485714Y-111123866D02*
X133438095Y-111314342D01*
X133438095Y-111314342D02*
X133390476Y-111409580D01*
X133390476Y-111409580D02*
X133342857Y-111457200D01*
X133342857Y-111457200D02*
X133247619Y-111504819D01*
X133247619Y-111504819D02*
X133152381Y-111504819D01*
X133152381Y-111504819D02*
X133057143Y-111457200D01*
X133057143Y-111457200D02*
X133009524Y-111409580D01*
X133009524Y-111409580D02*
X132961905Y-111314342D01*
X132961905Y-111314342D02*
X132914286Y-111123866D01*
X132914286Y-111123866D02*
X132914286Y-110885771D01*
X132914286Y-110885771D02*
X132961905Y-110695295D01*
X132961905Y-110695295D02*
X133009524Y-110600057D01*
X133009524Y-110600057D02*
X133057143Y-110552438D01*
X133057143Y-110552438D02*
X133152381Y-110504819D01*
D11*
X133039285Y-112893574D02*
X132955952Y-112774527D01*
X132896428Y-112893574D02*
X132896428Y-112643574D01*
X132896428Y-112643574D02*
X132991666Y-112643574D01*
X132991666Y-112643574D02*
X133015476Y-112655479D01*
X133015476Y-112655479D02*
X133027381Y-112667384D01*
X133027381Y-112667384D02*
X133039285Y-112691193D01*
X133039285Y-112691193D02*
X133039285Y-112726908D01*
X133039285Y-112726908D02*
X133027381Y-112750717D01*
X133027381Y-112750717D02*
X133015476Y-112762622D01*
X133015476Y-112762622D02*
X132991666Y-112774527D01*
X132991666Y-112774527D02*
X132896428Y-112774527D01*
X133277381Y-112893574D02*
X133134524Y-112893574D01*
X133205952Y-112893574D02*
X133205952Y-112643574D01*
X133205952Y-112643574D02*
X133182143Y-112679289D01*
X133182143Y-112679289D02*
X133158333Y-112703098D01*
X133158333Y-112703098D02*
X133134524Y-112715003D01*
X133503571Y-112643574D02*
X133384523Y-112643574D01*
X133384523Y-112643574D02*
X133372619Y-112762622D01*
X133372619Y-112762622D02*
X133384523Y-112750717D01*
X133384523Y-112750717D02*
X133408333Y-112738812D01*
X133408333Y-112738812D02*
X133467857Y-112738812D01*
X133467857Y-112738812D02*
X133491666Y-112750717D01*
X133491666Y-112750717D02*
X133503571Y-112762622D01*
X133503571Y-112762622D02*
X133515476Y-112786431D01*
X133515476Y-112786431D02*
X133515476Y-112845955D01*
X133515476Y-112845955D02*
X133503571Y-112869765D01*
X133503571Y-112869765D02*
X133491666Y-112881670D01*
X133491666Y-112881670D02*
X133467857Y-112893574D01*
X133467857Y-112893574D02*
X133408333Y-112893574D01*
X133408333Y-112893574D02*
X133384523Y-112881670D01*
X133384523Y-112881670D02*
X133372619Y-112869765D01*
D10*
X146480952Y-92304819D02*
X145909524Y-92304819D01*
X146195238Y-92304819D02*
X146195238Y-91304819D01*
X146195238Y-91304819D02*
X146100000Y-91447676D01*
X146100000Y-91447676D02*
X146004762Y-91542914D01*
X146004762Y-91542914D02*
X145909524Y-91590533D01*
X147100000Y-91304819D02*
X147195238Y-91304819D01*
X147195238Y-91304819D02*
X147290476Y-91352438D01*
X147290476Y-91352438D02*
X147338095Y-91400057D01*
X147338095Y-91400057D02*
X147385714Y-91495295D01*
X147385714Y-91495295D02*
X147433333Y-91685771D01*
X147433333Y-91685771D02*
X147433333Y-91923866D01*
X147433333Y-91923866D02*
X147385714Y-92114342D01*
X147385714Y-92114342D02*
X147338095Y-92209580D01*
X147338095Y-92209580D02*
X147290476Y-92257200D01*
X147290476Y-92257200D02*
X147195238Y-92304819D01*
X147195238Y-92304819D02*
X147100000Y-92304819D01*
X147100000Y-92304819D02*
X147004762Y-92257200D01*
X147004762Y-92257200D02*
X146957143Y-92209580D01*
X146957143Y-92209580D02*
X146909524Y-92114342D01*
X146909524Y-92114342D02*
X146861905Y-91923866D01*
X146861905Y-91923866D02*
X146861905Y-91685771D01*
X146861905Y-91685771D02*
X146909524Y-91495295D01*
X146909524Y-91495295D02*
X146957143Y-91400057D01*
X146957143Y-91400057D02*
X147004762Y-91352438D01*
X147004762Y-91352438D02*
X147100000Y-91304819D01*
X148052381Y-91304819D02*
X148147619Y-91304819D01*
X148147619Y-91304819D02*
X148242857Y-91352438D01*
X148242857Y-91352438D02*
X148290476Y-91400057D01*
X148290476Y-91400057D02*
X148338095Y-91495295D01*
X148338095Y-91495295D02*
X148385714Y-91685771D01*
X148385714Y-91685771D02*
X148385714Y-91923866D01*
X148385714Y-91923866D02*
X148338095Y-92114342D01*
X148338095Y-92114342D02*
X148290476Y-92209580D01*
X148290476Y-92209580D02*
X148242857Y-92257200D01*
X148242857Y-92257200D02*
X148147619Y-92304819D01*
X148147619Y-92304819D02*
X148052381Y-92304819D01*
X148052381Y-92304819D02*
X147957143Y-92257200D01*
X147957143Y-92257200D02*
X147909524Y-92209580D01*
X147909524Y-92209580D02*
X147861905Y-92114342D01*
X147861905Y-92114342D02*
X147814286Y-91923866D01*
X147814286Y-91923866D02*
X147814286Y-91685771D01*
X147814286Y-91685771D02*
X147861905Y-91495295D01*
X147861905Y-91495295D02*
X147909524Y-91400057D01*
X147909524Y-91400057D02*
X147957143Y-91352438D01*
X147957143Y-91352438D02*
X148052381Y-91304819D01*
X148814286Y-91638152D02*
X148814286Y-92304819D01*
X148814286Y-91733390D02*
X148861905Y-91685771D01*
X148861905Y-91685771D02*
X148957143Y-91638152D01*
X148957143Y-91638152D02*
X149100000Y-91638152D01*
X149100000Y-91638152D02*
X149195238Y-91685771D01*
X149195238Y-91685771D02*
X149242857Y-91781009D01*
X149242857Y-91781009D02*
X149242857Y-92304819D01*
D11*
X147439285Y-93669765D02*
X147427381Y-93681670D01*
X147427381Y-93681670D02*
X147391666Y-93693574D01*
X147391666Y-93693574D02*
X147367857Y-93693574D01*
X147367857Y-93693574D02*
X147332143Y-93681670D01*
X147332143Y-93681670D02*
X147308333Y-93657860D01*
X147308333Y-93657860D02*
X147296428Y-93634050D01*
X147296428Y-93634050D02*
X147284524Y-93586431D01*
X147284524Y-93586431D02*
X147284524Y-93550717D01*
X147284524Y-93550717D02*
X147296428Y-93503098D01*
X147296428Y-93503098D02*
X147308333Y-93479289D01*
X147308333Y-93479289D02*
X147332143Y-93455479D01*
X147332143Y-93455479D02*
X147367857Y-93443574D01*
X147367857Y-93443574D02*
X147391666Y-93443574D01*
X147391666Y-93443574D02*
X147427381Y-93455479D01*
X147427381Y-93455479D02*
X147439285Y-93467384D01*
X147534524Y-93467384D02*
X147546428Y-93455479D01*
X147546428Y-93455479D02*
X147570238Y-93443574D01*
X147570238Y-93443574D02*
X147629762Y-93443574D01*
X147629762Y-93443574D02*
X147653571Y-93455479D01*
X147653571Y-93455479D02*
X147665476Y-93467384D01*
X147665476Y-93467384D02*
X147677381Y-93491193D01*
X147677381Y-93491193D02*
X147677381Y-93515003D01*
X147677381Y-93515003D02*
X147665476Y-93550717D01*
X147665476Y-93550717D02*
X147522619Y-93693574D01*
X147522619Y-93693574D02*
X147677381Y-93693574D01*
X147903571Y-93443574D02*
X147784523Y-93443574D01*
X147784523Y-93443574D02*
X147772619Y-93562622D01*
X147772619Y-93562622D02*
X147784523Y-93550717D01*
X147784523Y-93550717D02*
X147808333Y-93538812D01*
X147808333Y-93538812D02*
X147867857Y-93538812D01*
X147867857Y-93538812D02*
X147891666Y-93550717D01*
X147891666Y-93550717D02*
X147903571Y-93562622D01*
X147903571Y-93562622D02*
X147915476Y-93586431D01*
X147915476Y-93586431D02*
X147915476Y-93645955D01*
X147915476Y-93645955D02*
X147903571Y-93669765D01*
X147903571Y-93669765D02*
X147891666Y-93681670D01*
X147891666Y-93681670D02*
X147867857Y-93693574D01*
X147867857Y-93693574D02*
X147808333Y-93693574D01*
X147808333Y-93693574D02*
X147784523Y-93681670D01*
X147784523Y-93681670D02*
X147772619Y-93669765D01*
D10*
X165138152Y-94090476D02*
X165804819Y-94090476D01*
X164757200Y-94328571D02*
X165471485Y-94566666D01*
X165471485Y-94566666D02*
X165471485Y-93947619D01*
X165804819Y-93566666D02*
X164804819Y-93566666D01*
X165423866Y-93471428D02*
X165804819Y-93185714D01*
X165138152Y-93185714D02*
X165519104Y-93566666D01*
X164804819Y-92852380D02*
X164804819Y-92185714D01*
X164804819Y-92185714D02*
X165804819Y-92614285D01*
D11*
X167193574Y-93560714D02*
X167074527Y-93644047D01*
X167193574Y-93703571D02*
X166943574Y-93703571D01*
X166943574Y-93703571D02*
X166943574Y-93608333D01*
X166943574Y-93608333D02*
X166955479Y-93584523D01*
X166955479Y-93584523D02*
X166967384Y-93572618D01*
X166967384Y-93572618D02*
X166991193Y-93560714D01*
X166991193Y-93560714D02*
X167026908Y-93560714D01*
X167026908Y-93560714D02*
X167050717Y-93572618D01*
X167050717Y-93572618D02*
X167062622Y-93584523D01*
X167062622Y-93584523D02*
X167074527Y-93608333D01*
X167074527Y-93608333D02*
X167074527Y-93703571D01*
X167193574Y-93322618D02*
X167193574Y-93465475D01*
X167193574Y-93394047D02*
X166943574Y-93394047D01*
X166943574Y-93394047D02*
X166979289Y-93417856D01*
X166979289Y-93417856D02*
X167003098Y-93441666D01*
X167003098Y-93441666D02*
X167015003Y-93465475D01*
X166943574Y-93239285D02*
X166943574Y-93072619D01*
X166943574Y-93072619D02*
X167193574Y-93179761D01*
D10*
X135304819Y-107328571D02*
X135304819Y-107138095D01*
X135304819Y-107138095D02*
X135352438Y-107042857D01*
X135352438Y-107042857D02*
X135447676Y-106947619D01*
X135447676Y-106947619D02*
X135638152Y-106900000D01*
X135638152Y-106900000D02*
X135971485Y-106900000D01*
X135971485Y-106900000D02*
X136161961Y-106947619D01*
X136161961Y-106947619D02*
X136257200Y-107042857D01*
X136257200Y-107042857D02*
X136304819Y-107138095D01*
X136304819Y-107138095D02*
X136304819Y-107328571D01*
X136304819Y-107328571D02*
X136257200Y-107423809D01*
X136257200Y-107423809D02*
X136161961Y-107519047D01*
X136161961Y-107519047D02*
X135971485Y-107566666D01*
X135971485Y-107566666D02*
X135638152Y-107566666D01*
X135638152Y-107566666D02*
X135447676Y-107519047D01*
X135447676Y-107519047D02*
X135352438Y-107423809D01*
X135352438Y-107423809D02*
X135304819Y-107328571D01*
X136304819Y-106471428D02*
X135304819Y-106471428D01*
X135304819Y-106471428D02*
X135304819Y-106090476D01*
X135304819Y-106090476D02*
X135352438Y-105995238D01*
X135352438Y-105995238D02*
X135400057Y-105947619D01*
X135400057Y-105947619D02*
X135495295Y-105900000D01*
X135495295Y-105900000D02*
X135638152Y-105900000D01*
X135638152Y-105900000D02*
X135733390Y-105947619D01*
X135733390Y-105947619D02*
X135781009Y-105995238D01*
X135781009Y-105995238D02*
X135828628Y-106090476D01*
X135828628Y-106090476D02*
X135828628Y-106471428D01*
X136019104Y-105519047D02*
X136019104Y-105042857D01*
X136304819Y-105614285D02*
X135304819Y-105280952D01*
X135304819Y-105280952D02*
X136304819Y-104947619D01*
X135638152Y-104185714D02*
X136304819Y-104185714D01*
X135257200Y-104423809D02*
X135971485Y-104661904D01*
X135971485Y-104661904D02*
X135971485Y-104042857D01*
X135304819Y-103757142D02*
X135304819Y-103138095D01*
X135304819Y-103138095D02*
X135685771Y-103471428D01*
X135685771Y-103471428D02*
X135685771Y-103328571D01*
X135685771Y-103328571D02*
X135733390Y-103233333D01*
X135733390Y-103233333D02*
X135781009Y-103185714D01*
X135781009Y-103185714D02*
X135876247Y-103138095D01*
X135876247Y-103138095D02*
X136114342Y-103138095D01*
X136114342Y-103138095D02*
X136209580Y-103185714D01*
X136209580Y-103185714D02*
X136257200Y-103233333D01*
X136257200Y-103233333D02*
X136304819Y-103328571D01*
X136304819Y-103328571D02*
X136304819Y-103614285D01*
X136304819Y-103614285D02*
X136257200Y-103709523D01*
X136257200Y-103709523D02*
X136209580Y-103757142D01*
X135304819Y-102804761D02*
X135304819Y-102185714D01*
X135304819Y-102185714D02*
X135685771Y-102519047D01*
X135685771Y-102519047D02*
X135685771Y-102376190D01*
X135685771Y-102376190D02*
X135733390Y-102280952D01*
X135733390Y-102280952D02*
X135781009Y-102233333D01*
X135781009Y-102233333D02*
X135876247Y-102185714D01*
X135876247Y-102185714D02*
X136114342Y-102185714D01*
X136114342Y-102185714D02*
X136209580Y-102233333D01*
X136209580Y-102233333D02*
X136257200Y-102280952D01*
X136257200Y-102280952D02*
X136304819Y-102376190D01*
X136304819Y-102376190D02*
X136304819Y-102661904D01*
X136304819Y-102661904D02*
X136257200Y-102757142D01*
X136257200Y-102757142D02*
X136209580Y-102804761D01*
X135304819Y-101566666D02*
X135304819Y-101471428D01*
X135304819Y-101471428D02*
X135352438Y-101376190D01*
X135352438Y-101376190D02*
X135400057Y-101328571D01*
X135400057Y-101328571D02*
X135495295Y-101280952D01*
X135495295Y-101280952D02*
X135685771Y-101233333D01*
X135685771Y-101233333D02*
X135923866Y-101233333D01*
X135923866Y-101233333D02*
X136114342Y-101280952D01*
X136114342Y-101280952D02*
X136209580Y-101328571D01*
X136209580Y-101328571D02*
X136257200Y-101376190D01*
X136257200Y-101376190D02*
X136304819Y-101471428D01*
X136304819Y-101471428D02*
X136304819Y-101566666D01*
X136304819Y-101566666D02*
X136257200Y-101661904D01*
X136257200Y-101661904D02*
X136209580Y-101709523D01*
X136209580Y-101709523D02*
X136114342Y-101757142D01*
X136114342Y-101757142D02*
X135923866Y-101804761D01*
X135923866Y-101804761D02*
X135685771Y-101804761D01*
X135685771Y-101804761D02*
X135495295Y-101757142D01*
X135495295Y-101757142D02*
X135400057Y-101709523D01*
X135400057Y-101709523D02*
X135352438Y-101661904D01*
X135352438Y-101661904D02*
X135304819Y-101566666D01*
D12*
X138665935Y-105009523D02*
X139313554Y-105009523D01*
X139313554Y-105009523D02*
X139389744Y-104971428D01*
X139389744Y-104971428D02*
X139427840Y-104933333D01*
X139427840Y-104933333D02*
X139465935Y-104857142D01*
X139465935Y-104857142D02*
X139465935Y-104704761D01*
X139465935Y-104704761D02*
X139427840Y-104628571D01*
X139427840Y-104628571D02*
X139389744Y-104590476D01*
X139389744Y-104590476D02*
X139313554Y-104552380D01*
X139313554Y-104552380D02*
X138665935Y-104552380D01*
X138932601Y-103828571D02*
X139465935Y-103828571D01*
X138627840Y-104019047D02*
X139199268Y-104209524D01*
X139199268Y-104209524D02*
X139199268Y-103714285D01*
D10*
X165247619Y-88000057D02*
X165295238Y-87952438D01*
X165295238Y-87952438D02*
X165390476Y-87904819D01*
X165390476Y-87904819D02*
X165628571Y-87904819D01*
X165628571Y-87904819D02*
X165723809Y-87952438D01*
X165723809Y-87952438D02*
X165771428Y-88000057D01*
X165771428Y-88000057D02*
X165819047Y-88095295D01*
X165819047Y-88095295D02*
X165819047Y-88190533D01*
X165819047Y-88190533D02*
X165771428Y-88333390D01*
X165771428Y-88333390D02*
X165200000Y-88904819D01*
X165200000Y-88904819D02*
X165819047Y-88904819D01*
X166247619Y-88809580D02*
X166295238Y-88857200D01*
X166295238Y-88857200D02*
X166247619Y-88904819D01*
X166247619Y-88904819D02*
X166200000Y-88857200D01*
X166200000Y-88857200D02*
X166247619Y-88809580D01*
X166247619Y-88809580D02*
X166247619Y-88904819D01*
X166676190Y-88000057D02*
X166723809Y-87952438D01*
X166723809Y-87952438D02*
X166819047Y-87904819D01*
X166819047Y-87904819D02*
X167057142Y-87904819D01*
X167057142Y-87904819D02*
X167152380Y-87952438D01*
X167152380Y-87952438D02*
X167199999Y-88000057D01*
X167199999Y-88000057D02*
X167247618Y-88095295D01*
X167247618Y-88095295D02*
X167247618Y-88190533D01*
X167247618Y-88190533D02*
X167199999Y-88333390D01*
X167199999Y-88333390D02*
X166628571Y-88904819D01*
X166628571Y-88904819D02*
X167247618Y-88904819D01*
X168104761Y-88238152D02*
X168104761Y-88904819D01*
X167676190Y-88238152D02*
X167676190Y-88761961D01*
X167676190Y-88761961D02*
X167723809Y-88857200D01*
X167723809Y-88857200D02*
X167819047Y-88904819D01*
X167819047Y-88904819D02*
X167961904Y-88904819D01*
X167961904Y-88904819D02*
X168057142Y-88857200D01*
X168057142Y-88857200D02*
X168104761Y-88809580D01*
D11*
X166539285Y-86809765D02*
X166527381Y-86821670D01*
X166527381Y-86821670D02*
X166491666Y-86833574D01*
X166491666Y-86833574D02*
X166467857Y-86833574D01*
X166467857Y-86833574D02*
X166432143Y-86821670D01*
X166432143Y-86821670D02*
X166408333Y-86797860D01*
X166408333Y-86797860D02*
X166396428Y-86774050D01*
X166396428Y-86774050D02*
X166384524Y-86726431D01*
X166384524Y-86726431D02*
X166384524Y-86690717D01*
X166384524Y-86690717D02*
X166396428Y-86643098D01*
X166396428Y-86643098D02*
X166408333Y-86619289D01*
X166408333Y-86619289D02*
X166432143Y-86595479D01*
X166432143Y-86595479D02*
X166467857Y-86583574D01*
X166467857Y-86583574D02*
X166491666Y-86583574D01*
X166491666Y-86583574D02*
X166527381Y-86595479D01*
X166527381Y-86595479D02*
X166539285Y-86607384D01*
X166634524Y-86607384D02*
X166646428Y-86595479D01*
X166646428Y-86595479D02*
X166670238Y-86583574D01*
X166670238Y-86583574D02*
X166729762Y-86583574D01*
X166729762Y-86583574D02*
X166753571Y-86595479D01*
X166753571Y-86595479D02*
X166765476Y-86607384D01*
X166765476Y-86607384D02*
X166777381Y-86631193D01*
X166777381Y-86631193D02*
X166777381Y-86655003D01*
X166777381Y-86655003D02*
X166765476Y-86690717D01*
X166765476Y-86690717D02*
X166622619Y-86833574D01*
X166622619Y-86833574D02*
X166777381Y-86833574D01*
X166920238Y-86690717D02*
X166896428Y-86678812D01*
X166896428Y-86678812D02*
X166884523Y-86666908D01*
X166884523Y-86666908D02*
X166872619Y-86643098D01*
X166872619Y-86643098D02*
X166872619Y-86631193D01*
X166872619Y-86631193D02*
X166884523Y-86607384D01*
X166884523Y-86607384D02*
X166896428Y-86595479D01*
X166896428Y-86595479D02*
X166920238Y-86583574D01*
X166920238Y-86583574D02*
X166967857Y-86583574D01*
X166967857Y-86583574D02*
X166991666Y-86595479D01*
X166991666Y-86595479D02*
X167003571Y-86607384D01*
X167003571Y-86607384D02*
X167015476Y-86631193D01*
X167015476Y-86631193D02*
X167015476Y-86643098D01*
X167015476Y-86643098D02*
X167003571Y-86666908D01*
X167003571Y-86666908D02*
X166991666Y-86678812D01*
X166991666Y-86678812D02*
X166967857Y-86690717D01*
X166967857Y-86690717D02*
X166920238Y-86690717D01*
X166920238Y-86690717D02*
X166896428Y-86702622D01*
X166896428Y-86702622D02*
X166884523Y-86714527D01*
X166884523Y-86714527D02*
X166872619Y-86738336D01*
X166872619Y-86738336D02*
X166872619Y-86785955D01*
X166872619Y-86785955D02*
X166884523Y-86809765D01*
X166884523Y-86809765D02*
X166896428Y-86821670D01*
X166896428Y-86821670D02*
X166920238Y-86833574D01*
X166920238Y-86833574D02*
X166967857Y-86833574D01*
X166967857Y-86833574D02*
X166991666Y-86821670D01*
X166991666Y-86821670D02*
X167003571Y-86809765D01*
X167003571Y-86809765D02*
X167015476Y-86785955D01*
X167015476Y-86785955D02*
X167015476Y-86738336D01*
X167015476Y-86738336D02*
X167003571Y-86714527D01*
X167003571Y-86714527D02*
X166991666Y-86702622D01*
X166991666Y-86702622D02*
X166967857Y-86690717D01*
D10*
X127214285Y-85954819D02*
X127214285Y-84954819D01*
X127214285Y-84954819D02*
X127547618Y-85669104D01*
X127547618Y-85669104D02*
X127880951Y-84954819D01*
X127880951Y-84954819D02*
X127880951Y-85954819D01*
X128499999Y-85954819D02*
X128404761Y-85907200D01*
X128404761Y-85907200D02*
X128357142Y-85859580D01*
X128357142Y-85859580D02*
X128309523Y-85764342D01*
X128309523Y-85764342D02*
X128309523Y-85478628D01*
X128309523Y-85478628D02*
X128357142Y-85383390D01*
X128357142Y-85383390D02*
X128404761Y-85335771D01*
X128404761Y-85335771D02*
X128499999Y-85288152D01*
X128499999Y-85288152D02*
X128642856Y-85288152D01*
X128642856Y-85288152D02*
X128738094Y-85335771D01*
X128738094Y-85335771D02*
X128785713Y-85383390D01*
X128785713Y-85383390D02*
X128833332Y-85478628D01*
X128833332Y-85478628D02*
X128833332Y-85764342D01*
X128833332Y-85764342D02*
X128785713Y-85859580D01*
X128785713Y-85859580D02*
X128738094Y-85907200D01*
X128738094Y-85907200D02*
X128642856Y-85954819D01*
X128642856Y-85954819D02*
X128499999Y-85954819D01*
X129690475Y-85288152D02*
X129690475Y-85954819D01*
X129261904Y-85288152D02*
X129261904Y-85811961D01*
X129261904Y-85811961D02*
X129309523Y-85907200D01*
X129309523Y-85907200D02*
X129404761Y-85954819D01*
X129404761Y-85954819D02*
X129547618Y-85954819D01*
X129547618Y-85954819D02*
X129642856Y-85907200D01*
X129642856Y-85907200D02*
X129690475Y-85859580D01*
X130166666Y-85288152D02*
X130166666Y-85954819D01*
X130166666Y-85383390D02*
X130214285Y-85335771D01*
X130214285Y-85335771D02*
X130309523Y-85288152D01*
X130309523Y-85288152D02*
X130452380Y-85288152D01*
X130452380Y-85288152D02*
X130547618Y-85335771D01*
X130547618Y-85335771D02*
X130595237Y-85431009D01*
X130595237Y-85431009D02*
X130595237Y-85954819D01*
X130928571Y-85288152D02*
X131309523Y-85288152D01*
X131071428Y-84954819D02*
X131071428Y-85811961D01*
X131071428Y-85811961D02*
X131119047Y-85907200D01*
X131119047Y-85907200D02*
X131214285Y-85954819D01*
X131214285Y-85954819D02*
X131309523Y-85954819D01*
X131642857Y-85954819D02*
X131642857Y-85288152D01*
X131642857Y-84954819D02*
X131595238Y-85002438D01*
X131595238Y-85002438D02*
X131642857Y-85050057D01*
X131642857Y-85050057D02*
X131690476Y-85002438D01*
X131690476Y-85002438D02*
X131642857Y-84954819D01*
X131642857Y-84954819D02*
X131642857Y-85050057D01*
X132119047Y-85288152D02*
X132119047Y-85954819D01*
X132119047Y-85383390D02*
X132166666Y-85335771D01*
X132166666Y-85335771D02*
X132261904Y-85288152D01*
X132261904Y-85288152D02*
X132404761Y-85288152D01*
X132404761Y-85288152D02*
X132499999Y-85335771D01*
X132499999Y-85335771D02*
X132547618Y-85431009D01*
X132547618Y-85431009D02*
X132547618Y-85954819D01*
X133452380Y-85288152D02*
X133452380Y-86097676D01*
X133452380Y-86097676D02*
X133404761Y-86192914D01*
X133404761Y-86192914D02*
X133357142Y-86240533D01*
X133357142Y-86240533D02*
X133261904Y-86288152D01*
X133261904Y-86288152D02*
X133119047Y-86288152D01*
X133119047Y-86288152D02*
X133023809Y-86240533D01*
X133452380Y-85907200D02*
X133357142Y-85954819D01*
X133357142Y-85954819D02*
X133166666Y-85954819D01*
X133166666Y-85954819D02*
X133071428Y-85907200D01*
X133071428Y-85907200D02*
X133023809Y-85859580D01*
X133023809Y-85859580D02*
X132976190Y-85764342D01*
X132976190Y-85764342D02*
X132976190Y-85478628D01*
X132976190Y-85478628D02*
X133023809Y-85383390D01*
X133023809Y-85383390D02*
X133071428Y-85335771D01*
X133071428Y-85335771D02*
X133166666Y-85288152D01*
X133166666Y-85288152D02*
X133357142Y-85288152D01*
X133357142Y-85288152D02*
X133452380Y-85335771D01*
X133928571Y-85954819D02*
X133928571Y-84954819D01*
X133928571Y-85431009D02*
X134499999Y-85431009D01*
X134499999Y-85954819D02*
X134499999Y-84954819D01*
X135119047Y-85954819D02*
X135023809Y-85907200D01*
X135023809Y-85907200D02*
X134976190Y-85859580D01*
X134976190Y-85859580D02*
X134928571Y-85764342D01*
X134928571Y-85764342D02*
X134928571Y-85478628D01*
X134928571Y-85478628D02*
X134976190Y-85383390D01*
X134976190Y-85383390D02*
X135023809Y-85335771D01*
X135023809Y-85335771D02*
X135119047Y-85288152D01*
X135119047Y-85288152D02*
X135261904Y-85288152D01*
X135261904Y-85288152D02*
X135357142Y-85335771D01*
X135357142Y-85335771D02*
X135404761Y-85383390D01*
X135404761Y-85383390D02*
X135452380Y-85478628D01*
X135452380Y-85478628D02*
X135452380Y-85764342D01*
X135452380Y-85764342D02*
X135404761Y-85859580D01*
X135404761Y-85859580D02*
X135357142Y-85907200D01*
X135357142Y-85907200D02*
X135261904Y-85954819D01*
X135261904Y-85954819D02*
X135119047Y-85954819D01*
X136023809Y-85954819D02*
X135928571Y-85907200D01*
X135928571Y-85907200D02*
X135880952Y-85811961D01*
X135880952Y-85811961D02*
X135880952Y-84954819D01*
X136785714Y-85907200D02*
X136690476Y-85954819D01*
X136690476Y-85954819D02*
X136500000Y-85954819D01*
X136500000Y-85954819D02*
X136404762Y-85907200D01*
X136404762Y-85907200D02*
X136357143Y-85811961D01*
X136357143Y-85811961D02*
X136357143Y-85431009D01*
X136357143Y-85431009D02*
X136404762Y-85335771D01*
X136404762Y-85335771D02*
X136500000Y-85288152D01*
X136500000Y-85288152D02*
X136690476Y-85288152D01*
X136690476Y-85288152D02*
X136785714Y-85335771D01*
X136785714Y-85335771D02*
X136833333Y-85431009D01*
X136833333Y-85431009D02*
X136833333Y-85526247D01*
X136833333Y-85526247D02*
X136357143Y-85621485D01*
X131238095Y-82454819D02*
X131238095Y-81454819D01*
X131238095Y-81931009D02*
X131809523Y-81931009D01*
X131809523Y-82454819D02*
X131809523Y-81454819D01*
X132809523Y-82454819D02*
X132238095Y-82454819D01*
X132523809Y-82454819D02*
X132523809Y-81454819D01*
X132523809Y-81454819D02*
X132428571Y-81597676D01*
X132428571Y-81597676D02*
X132333333Y-81692914D01*
X132333333Y-81692914D02*
X132238095Y-81740533D01*
X151271428Y-102227200D02*
X151414285Y-102274819D01*
X151414285Y-102274819D02*
X151652380Y-102274819D01*
X151652380Y-102274819D02*
X151747618Y-102227200D01*
X151747618Y-102227200D02*
X151795237Y-102179580D01*
X151795237Y-102179580D02*
X151842856Y-102084342D01*
X151842856Y-102084342D02*
X151842856Y-101989104D01*
X151842856Y-101989104D02*
X151795237Y-101893866D01*
X151795237Y-101893866D02*
X151747618Y-101846247D01*
X151747618Y-101846247D02*
X151652380Y-101798628D01*
X151652380Y-101798628D02*
X151461904Y-101751009D01*
X151461904Y-101751009D02*
X151366666Y-101703390D01*
X151366666Y-101703390D02*
X151319047Y-101655771D01*
X151319047Y-101655771D02*
X151271428Y-101560533D01*
X151271428Y-101560533D02*
X151271428Y-101465295D01*
X151271428Y-101465295D02*
X151319047Y-101370057D01*
X151319047Y-101370057D02*
X151366666Y-101322438D01*
X151366666Y-101322438D02*
X151461904Y-101274819D01*
X151461904Y-101274819D02*
X151699999Y-101274819D01*
X151699999Y-101274819D02*
X151842856Y-101322438D01*
X152128571Y-101274819D02*
X152699999Y-101274819D01*
X152414285Y-102274819D02*
X152414285Y-101274819D01*
X153033333Y-102274819D02*
X153033333Y-101274819D01*
X153033333Y-101274819D02*
X153366666Y-101989104D01*
X153366666Y-101989104D02*
X153699999Y-101274819D01*
X153699999Y-101274819D02*
X153699999Y-102274819D01*
X154080952Y-101274819D02*
X154699999Y-101274819D01*
X154699999Y-101274819D02*
X154366666Y-101655771D01*
X154366666Y-101655771D02*
X154509523Y-101655771D01*
X154509523Y-101655771D02*
X154604761Y-101703390D01*
X154604761Y-101703390D02*
X154652380Y-101751009D01*
X154652380Y-101751009D02*
X154699999Y-101846247D01*
X154699999Y-101846247D02*
X154699999Y-102084342D01*
X154699999Y-102084342D02*
X154652380Y-102179580D01*
X154652380Y-102179580D02*
X154604761Y-102227200D01*
X154604761Y-102227200D02*
X154509523Y-102274819D01*
X154509523Y-102274819D02*
X154223809Y-102274819D01*
X154223809Y-102274819D02*
X154128571Y-102227200D01*
X154128571Y-102227200D02*
X154080952Y-102179580D01*
X155080952Y-101370057D02*
X155128571Y-101322438D01*
X155128571Y-101322438D02*
X155223809Y-101274819D01*
X155223809Y-101274819D02*
X155461904Y-101274819D01*
X155461904Y-101274819D02*
X155557142Y-101322438D01*
X155557142Y-101322438D02*
X155604761Y-101370057D01*
X155604761Y-101370057D02*
X155652380Y-101465295D01*
X155652380Y-101465295D02*
X155652380Y-101560533D01*
X155652380Y-101560533D02*
X155604761Y-101703390D01*
X155604761Y-101703390D02*
X155033333Y-102274819D01*
X155033333Y-102274819D02*
X155652380Y-102274819D01*
X156080952Y-102274819D02*
X156080952Y-101274819D01*
X156080952Y-101751009D02*
X156652380Y-101751009D01*
X156652380Y-102274819D02*
X156652380Y-101274819D01*
X157033333Y-101274819D02*
X157699999Y-101274819D01*
X157699999Y-101274819D02*
X157271428Y-102274819D01*
X158033333Y-101370057D02*
X158080952Y-101322438D01*
X158080952Y-101322438D02*
X158176190Y-101274819D01*
X158176190Y-101274819D02*
X158414285Y-101274819D01*
X158414285Y-101274819D02*
X158509523Y-101322438D01*
X158509523Y-101322438D02*
X158557142Y-101370057D01*
X158557142Y-101370057D02*
X158604761Y-101465295D01*
X158604761Y-101465295D02*
X158604761Y-101560533D01*
X158604761Y-101560533D02*
X158557142Y-101703390D01*
X158557142Y-101703390D02*
X157985714Y-102274819D01*
X157985714Y-102274819D02*
X158604761Y-102274819D01*
X158938095Y-101274819D02*
X159557142Y-101274819D01*
X159557142Y-101274819D02*
X159223809Y-101655771D01*
X159223809Y-101655771D02*
X159366666Y-101655771D01*
X159366666Y-101655771D02*
X159461904Y-101703390D01*
X159461904Y-101703390D02*
X159509523Y-101751009D01*
X159509523Y-101751009D02*
X159557142Y-101846247D01*
X159557142Y-101846247D02*
X159557142Y-102084342D01*
X159557142Y-102084342D02*
X159509523Y-102179580D01*
X159509523Y-102179580D02*
X159461904Y-102227200D01*
X159461904Y-102227200D02*
X159366666Y-102274819D01*
X159366666Y-102274819D02*
X159080952Y-102274819D01*
X159080952Y-102274819D02*
X158985714Y-102227200D01*
X158985714Y-102227200D02*
X158938095Y-102179580D01*
X159842857Y-101274819D02*
X160176190Y-102274819D01*
X160176190Y-102274819D02*
X160509523Y-101274819D01*
X161366666Y-101322438D02*
X161271428Y-101274819D01*
X161271428Y-101274819D02*
X161128571Y-101274819D01*
X161128571Y-101274819D02*
X160985714Y-101322438D01*
X160985714Y-101322438D02*
X160890476Y-101417676D01*
X160890476Y-101417676D02*
X160842857Y-101512914D01*
X160842857Y-101512914D02*
X160795238Y-101703390D01*
X160795238Y-101703390D02*
X160795238Y-101846247D01*
X160795238Y-101846247D02*
X160842857Y-102036723D01*
X160842857Y-102036723D02*
X160890476Y-102131961D01*
X160890476Y-102131961D02*
X160985714Y-102227200D01*
X160985714Y-102227200D02*
X161128571Y-102274819D01*
X161128571Y-102274819D02*
X161223809Y-102274819D01*
X161223809Y-102274819D02*
X161366666Y-102227200D01*
X161366666Y-102227200D02*
X161414285Y-102179580D01*
X161414285Y-102179580D02*
X161414285Y-101846247D01*
X161414285Y-101846247D02*
X161223809Y-101846247D01*
X161700000Y-101274819D02*
X162271428Y-101274819D01*
X161985714Y-102274819D02*
X161985714Y-101274819D01*
X163033333Y-101274819D02*
X162842857Y-101274819D01*
X162842857Y-101274819D02*
X162747619Y-101322438D01*
X162747619Y-101322438D02*
X162700000Y-101370057D01*
X162700000Y-101370057D02*
X162604762Y-101512914D01*
X162604762Y-101512914D02*
X162557143Y-101703390D01*
X162557143Y-101703390D02*
X162557143Y-102084342D01*
X162557143Y-102084342D02*
X162604762Y-102179580D01*
X162604762Y-102179580D02*
X162652381Y-102227200D01*
X162652381Y-102227200D02*
X162747619Y-102274819D01*
X162747619Y-102274819D02*
X162938095Y-102274819D01*
X162938095Y-102274819D02*
X163033333Y-102227200D01*
X163033333Y-102227200D02*
X163080952Y-102179580D01*
X163080952Y-102179580D02*
X163128571Y-102084342D01*
X163128571Y-102084342D02*
X163128571Y-101846247D01*
X163128571Y-101846247D02*
X163080952Y-101751009D01*
X163080952Y-101751009D02*
X163033333Y-101703390D01*
X163033333Y-101703390D02*
X162938095Y-101655771D01*
X162938095Y-101655771D02*
X162747619Y-101655771D01*
X162747619Y-101655771D02*
X162652381Y-101703390D01*
X162652381Y-101703390D02*
X162604762Y-101751009D01*
X162604762Y-101751009D02*
X162557143Y-101846247D01*
X156438095Y-91854819D02*
X156438095Y-92664342D01*
X156438095Y-92664342D02*
X156485714Y-92759580D01*
X156485714Y-92759580D02*
X156533333Y-92807200D01*
X156533333Y-92807200D02*
X156628571Y-92854819D01*
X156628571Y-92854819D02*
X156819047Y-92854819D01*
X156819047Y-92854819D02*
X156914285Y-92807200D01*
X156914285Y-92807200D02*
X156961904Y-92759580D01*
X156961904Y-92759580D02*
X157009523Y-92664342D01*
X157009523Y-92664342D02*
X157009523Y-91854819D01*
X158009523Y-92854819D02*
X157438095Y-92854819D01*
X157723809Y-92854819D02*
X157723809Y-91854819D01*
X157723809Y-91854819D02*
X157628571Y-91997676D01*
X157628571Y-91997676D02*
X157533333Y-92092914D01*
X157533333Y-92092914D02*
X157438095Y-92140533D01*
X133152381Y-114204819D02*
X133247619Y-114204819D01*
X133247619Y-114204819D02*
X133342857Y-114252438D01*
X133342857Y-114252438D02*
X133390476Y-114300057D01*
X133390476Y-114300057D02*
X133438095Y-114395295D01*
X133438095Y-114395295D02*
X133485714Y-114585771D01*
X133485714Y-114585771D02*
X133485714Y-114823866D01*
X133485714Y-114823866D02*
X133438095Y-115014342D01*
X133438095Y-115014342D02*
X133390476Y-115109580D01*
X133390476Y-115109580D02*
X133342857Y-115157200D01*
X133342857Y-115157200D02*
X133247619Y-115204819D01*
X133247619Y-115204819D02*
X133152381Y-115204819D01*
X133152381Y-115204819D02*
X133057143Y-115157200D01*
X133057143Y-115157200D02*
X133009524Y-115109580D01*
X133009524Y-115109580D02*
X132961905Y-115014342D01*
X132961905Y-115014342D02*
X132914286Y-114823866D01*
X132914286Y-114823866D02*
X132914286Y-114585771D01*
X132914286Y-114585771D02*
X132961905Y-114395295D01*
X132961905Y-114395295D02*
X133009524Y-114300057D01*
X133009524Y-114300057D02*
X133057143Y-114252438D01*
X133057143Y-114252438D02*
X133152381Y-114204819D01*
D11*
X133039285Y-113133574D02*
X132955952Y-113014527D01*
X132896428Y-113133574D02*
X132896428Y-112883574D01*
X132896428Y-112883574D02*
X132991666Y-112883574D01*
X132991666Y-112883574D02*
X133015476Y-112895479D01*
X133015476Y-112895479D02*
X133027381Y-112907384D01*
X133027381Y-112907384D02*
X133039285Y-112931193D01*
X133039285Y-112931193D02*
X133039285Y-112966908D01*
X133039285Y-112966908D02*
X133027381Y-112990717D01*
X133027381Y-112990717D02*
X133015476Y-113002622D01*
X133015476Y-113002622D02*
X132991666Y-113014527D01*
X132991666Y-113014527D02*
X132896428Y-113014527D01*
X133277381Y-113133574D02*
X133134524Y-113133574D01*
X133205952Y-113133574D02*
X133205952Y-112883574D01*
X133205952Y-112883574D02*
X133182143Y-112919289D01*
X133182143Y-112919289D02*
X133158333Y-112943098D01*
X133158333Y-112943098D02*
X133134524Y-112955003D01*
X133491666Y-112966908D02*
X133491666Y-113133574D01*
X133432142Y-112871670D02*
X133372619Y-113050241D01*
X133372619Y-113050241D02*
X133527380Y-113050241D01*
D10*
X165580952Y-87904819D02*
X165009524Y-87904819D01*
X165295238Y-87904819D02*
X165295238Y-86904819D01*
X165295238Y-86904819D02*
X165200000Y-87047676D01*
X165200000Y-87047676D02*
X165104762Y-87142914D01*
X165104762Y-87142914D02*
X165009524Y-87190533D01*
X166200000Y-86904819D02*
X166295238Y-86904819D01*
X166295238Y-86904819D02*
X166390476Y-86952438D01*
X166390476Y-86952438D02*
X166438095Y-87000057D01*
X166438095Y-87000057D02*
X166485714Y-87095295D01*
X166485714Y-87095295D02*
X166533333Y-87285771D01*
X166533333Y-87285771D02*
X166533333Y-87523866D01*
X166533333Y-87523866D02*
X166485714Y-87714342D01*
X166485714Y-87714342D02*
X166438095Y-87809580D01*
X166438095Y-87809580D02*
X166390476Y-87857200D01*
X166390476Y-87857200D02*
X166295238Y-87904819D01*
X166295238Y-87904819D02*
X166200000Y-87904819D01*
X166200000Y-87904819D02*
X166104762Y-87857200D01*
X166104762Y-87857200D02*
X166057143Y-87809580D01*
X166057143Y-87809580D02*
X166009524Y-87714342D01*
X166009524Y-87714342D02*
X165961905Y-87523866D01*
X165961905Y-87523866D02*
X165961905Y-87285771D01*
X165961905Y-87285771D02*
X166009524Y-87095295D01*
X166009524Y-87095295D02*
X166057143Y-87000057D01*
X166057143Y-87000057D02*
X166104762Y-86952438D01*
X166104762Y-86952438D02*
X166200000Y-86904819D01*
X167152381Y-86904819D02*
X167247619Y-86904819D01*
X167247619Y-86904819D02*
X167342857Y-86952438D01*
X167342857Y-86952438D02*
X167390476Y-87000057D01*
X167390476Y-87000057D02*
X167438095Y-87095295D01*
X167438095Y-87095295D02*
X167485714Y-87285771D01*
X167485714Y-87285771D02*
X167485714Y-87523866D01*
X167485714Y-87523866D02*
X167438095Y-87714342D01*
X167438095Y-87714342D02*
X167390476Y-87809580D01*
X167390476Y-87809580D02*
X167342857Y-87857200D01*
X167342857Y-87857200D02*
X167247619Y-87904819D01*
X167247619Y-87904819D02*
X167152381Y-87904819D01*
X167152381Y-87904819D02*
X167057143Y-87857200D01*
X167057143Y-87857200D02*
X167009524Y-87809580D01*
X167009524Y-87809580D02*
X166961905Y-87714342D01*
X166961905Y-87714342D02*
X166914286Y-87523866D01*
X166914286Y-87523866D02*
X166914286Y-87285771D01*
X166914286Y-87285771D02*
X166961905Y-87095295D01*
X166961905Y-87095295D02*
X167009524Y-87000057D01*
X167009524Y-87000057D02*
X167057143Y-86952438D01*
X167057143Y-86952438D02*
X167152381Y-86904819D01*
X167914286Y-87238152D02*
X167914286Y-87904819D01*
X167914286Y-87333390D02*
X167961905Y-87285771D01*
X167961905Y-87285771D02*
X168057143Y-87238152D01*
X168057143Y-87238152D02*
X168200000Y-87238152D01*
X168200000Y-87238152D02*
X168295238Y-87285771D01*
X168295238Y-87285771D02*
X168342857Y-87381009D01*
X168342857Y-87381009D02*
X168342857Y-87904819D01*
D11*
X166539285Y-85809765D02*
X166527381Y-85821670D01*
X166527381Y-85821670D02*
X166491666Y-85833574D01*
X166491666Y-85833574D02*
X166467857Y-85833574D01*
X166467857Y-85833574D02*
X166432143Y-85821670D01*
X166432143Y-85821670D02*
X166408333Y-85797860D01*
X166408333Y-85797860D02*
X166396428Y-85774050D01*
X166396428Y-85774050D02*
X166384524Y-85726431D01*
X166384524Y-85726431D02*
X166384524Y-85690717D01*
X166384524Y-85690717D02*
X166396428Y-85643098D01*
X166396428Y-85643098D02*
X166408333Y-85619289D01*
X166408333Y-85619289D02*
X166432143Y-85595479D01*
X166432143Y-85595479D02*
X166467857Y-85583574D01*
X166467857Y-85583574D02*
X166491666Y-85583574D01*
X166491666Y-85583574D02*
X166527381Y-85595479D01*
X166527381Y-85595479D02*
X166539285Y-85607384D01*
X166634524Y-85607384D02*
X166646428Y-85595479D01*
X166646428Y-85595479D02*
X166670238Y-85583574D01*
X166670238Y-85583574D02*
X166729762Y-85583574D01*
X166729762Y-85583574D02*
X166753571Y-85595479D01*
X166753571Y-85595479D02*
X166765476Y-85607384D01*
X166765476Y-85607384D02*
X166777381Y-85631193D01*
X166777381Y-85631193D02*
X166777381Y-85655003D01*
X166777381Y-85655003D02*
X166765476Y-85690717D01*
X166765476Y-85690717D02*
X166622619Y-85833574D01*
X166622619Y-85833574D02*
X166777381Y-85833574D01*
X167015476Y-85833574D02*
X166872619Y-85833574D01*
X166944047Y-85833574D02*
X166944047Y-85583574D01*
X166944047Y-85583574D02*
X166920238Y-85619289D01*
X166920238Y-85619289D02*
X166896428Y-85643098D01*
X166896428Y-85643098D02*
X166872619Y-85655003D01*
D10*
X128809580Y-113066667D02*
X128857200Y-113114286D01*
X128857200Y-113114286D02*
X128904819Y-113257143D01*
X128904819Y-113257143D02*
X128904819Y-113352381D01*
X128904819Y-113352381D02*
X128857200Y-113495238D01*
X128857200Y-113495238D02*
X128761961Y-113590476D01*
X128761961Y-113590476D02*
X128666723Y-113638095D01*
X128666723Y-113638095D02*
X128476247Y-113685714D01*
X128476247Y-113685714D02*
X128333390Y-113685714D01*
X128333390Y-113685714D02*
X128142914Y-113638095D01*
X128142914Y-113638095D02*
X128047676Y-113590476D01*
X128047676Y-113590476D02*
X127952438Y-113495238D01*
X127952438Y-113495238D02*
X127904819Y-113352381D01*
X127904819Y-113352381D02*
X127904819Y-113257143D01*
X127904819Y-113257143D02*
X127952438Y-113114286D01*
X127952438Y-113114286D02*
X128000057Y-113066667D01*
X128904819Y-112495238D02*
X128857200Y-112590476D01*
X128857200Y-112590476D02*
X128809580Y-112638095D01*
X128809580Y-112638095D02*
X128714342Y-112685714D01*
X128714342Y-112685714D02*
X128428628Y-112685714D01*
X128428628Y-112685714D02*
X128333390Y-112638095D01*
X128333390Y-112638095D02*
X128285771Y-112590476D01*
X128285771Y-112590476D02*
X128238152Y-112495238D01*
X128238152Y-112495238D02*
X128238152Y-112352381D01*
X128238152Y-112352381D02*
X128285771Y-112257143D01*
X128285771Y-112257143D02*
X128333390Y-112209524D01*
X128333390Y-112209524D02*
X128428628Y-112161905D01*
X128428628Y-112161905D02*
X128714342Y-112161905D01*
X128714342Y-112161905D02*
X128809580Y-112209524D01*
X128809580Y-112209524D02*
X128857200Y-112257143D01*
X128857200Y-112257143D02*
X128904819Y-112352381D01*
X128904819Y-112352381D02*
X128904819Y-112495238D01*
X128238152Y-111733333D02*
X128904819Y-111733333D01*
X128333390Y-111733333D02*
X128285771Y-111685714D01*
X128285771Y-111685714D02*
X128238152Y-111590476D01*
X128238152Y-111590476D02*
X128238152Y-111447619D01*
X128238152Y-111447619D02*
X128285771Y-111352381D01*
X128285771Y-111352381D02*
X128381009Y-111304762D01*
X128381009Y-111304762D02*
X128904819Y-111304762D01*
X128238152Y-110828571D02*
X128904819Y-110828571D01*
X128333390Y-110828571D02*
X128285771Y-110780952D01*
X128285771Y-110780952D02*
X128238152Y-110685714D01*
X128238152Y-110685714D02*
X128238152Y-110542857D01*
X128238152Y-110542857D02*
X128285771Y-110447619D01*
X128285771Y-110447619D02*
X128381009Y-110400000D01*
X128381009Y-110400000D02*
X128904819Y-110400000D01*
X129000057Y-110161905D02*
X129000057Y-109400000D01*
X127904819Y-108971428D02*
X127904819Y-108876190D01*
X127904819Y-108876190D02*
X127952438Y-108780952D01*
X127952438Y-108780952D02*
X128000057Y-108733333D01*
X128000057Y-108733333D02*
X128095295Y-108685714D01*
X128095295Y-108685714D02*
X128285771Y-108638095D01*
X128285771Y-108638095D02*
X128523866Y-108638095D01*
X128523866Y-108638095D02*
X128714342Y-108685714D01*
X128714342Y-108685714D02*
X128809580Y-108733333D01*
X128809580Y-108733333D02*
X128857200Y-108780952D01*
X128857200Y-108780952D02*
X128904819Y-108876190D01*
X128904819Y-108876190D02*
X128904819Y-108971428D01*
X128904819Y-108971428D02*
X128857200Y-109066666D01*
X128857200Y-109066666D02*
X128809580Y-109114285D01*
X128809580Y-109114285D02*
X128714342Y-109161904D01*
X128714342Y-109161904D02*
X128523866Y-109209523D01*
X128523866Y-109209523D02*
X128285771Y-109209523D01*
X128285771Y-109209523D02*
X128095295Y-109161904D01*
X128095295Y-109161904D02*
X128000057Y-109114285D01*
X128000057Y-109114285D02*
X127952438Y-109066666D01*
X127952438Y-109066666D02*
X127904819Y-108971428D01*
X128904819Y-107685714D02*
X128904819Y-108257142D01*
X128904819Y-107971428D02*
X127904819Y-107971428D01*
X127904819Y-107971428D02*
X128047676Y-108066666D01*
X128047676Y-108066666D02*
X128142914Y-108161904D01*
X128142914Y-108161904D02*
X128190533Y-108257142D01*
X128904819Y-107352380D02*
X128238152Y-106828571D01*
X128238152Y-107352380D02*
X128904819Y-106828571D01*
X127904819Y-106257142D02*
X127904819Y-106161904D01*
X127904819Y-106161904D02*
X127952438Y-106066666D01*
X127952438Y-106066666D02*
X128000057Y-106019047D01*
X128000057Y-106019047D02*
X128095295Y-105971428D01*
X128095295Y-105971428D02*
X128285771Y-105923809D01*
X128285771Y-105923809D02*
X128523866Y-105923809D01*
X128523866Y-105923809D02*
X128714342Y-105971428D01*
X128714342Y-105971428D02*
X128809580Y-106019047D01*
X128809580Y-106019047D02*
X128857200Y-106066666D01*
X128857200Y-106066666D02*
X128904819Y-106161904D01*
X128904819Y-106161904D02*
X128904819Y-106257142D01*
X128904819Y-106257142D02*
X128857200Y-106352380D01*
X128857200Y-106352380D02*
X128809580Y-106399999D01*
X128809580Y-106399999D02*
X128714342Y-106447618D01*
X128714342Y-106447618D02*
X128523866Y-106495237D01*
X128523866Y-106495237D02*
X128285771Y-106495237D01*
X128285771Y-106495237D02*
X128095295Y-106447618D01*
X128095295Y-106447618D02*
X128000057Y-106399999D01*
X128000057Y-106399999D02*
X127952438Y-106352380D01*
X127952438Y-106352380D02*
X127904819Y-106257142D01*
X128238152Y-105066666D02*
X128904819Y-105066666D01*
X127857200Y-105304761D02*
X128571485Y-105542856D01*
X128571485Y-105542856D02*
X128571485Y-104923809D01*
X129000057Y-104780952D02*
X129000057Y-104019047D01*
X128904819Y-103780951D02*
X127904819Y-103780951D01*
X127904819Y-103780951D02*
X128619104Y-103447618D01*
X128619104Y-103447618D02*
X127904819Y-103114285D01*
X127904819Y-103114285D02*
X128904819Y-103114285D01*
X128904819Y-102495237D02*
X128857200Y-102590475D01*
X128857200Y-102590475D02*
X128809580Y-102638094D01*
X128809580Y-102638094D02*
X128714342Y-102685713D01*
X128714342Y-102685713D02*
X128428628Y-102685713D01*
X128428628Y-102685713D02*
X128333390Y-102638094D01*
X128333390Y-102638094D02*
X128285771Y-102590475D01*
X128285771Y-102590475D02*
X128238152Y-102495237D01*
X128238152Y-102495237D02*
X128238152Y-102352380D01*
X128238152Y-102352380D02*
X128285771Y-102257142D01*
X128285771Y-102257142D02*
X128333390Y-102209523D01*
X128333390Y-102209523D02*
X128428628Y-102161904D01*
X128428628Y-102161904D02*
X128714342Y-102161904D01*
X128714342Y-102161904D02*
X128809580Y-102209523D01*
X128809580Y-102209523D02*
X128857200Y-102257142D01*
X128857200Y-102257142D02*
X128904819Y-102352380D01*
X128904819Y-102352380D02*
X128904819Y-102495237D01*
X128238152Y-101304761D02*
X128904819Y-101304761D01*
X128238152Y-101733332D02*
X128761961Y-101733332D01*
X128761961Y-101733332D02*
X128857200Y-101685713D01*
X128857200Y-101685713D02*
X128904819Y-101590475D01*
X128904819Y-101590475D02*
X128904819Y-101447618D01*
X128904819Y-101447618D02*
X128857200Y-101352380D01*
X128857200Y-101352380D02*
X128809580Y-101304761D01*
X128238152Y-100828570D02*
X128904819Y-100828570D01*
X128333390Y-100828570D02*
X128285771Y-100780951D01*
X128285771Y-100780951D02*
X128238152Y-100685713D01*
X128238152Y-100685713D02*
X128238152Y-100542856D01*
X128238152Y-100542856D02*
X128285771Y-100447618D01*
X128285771Y-100447618D02*
X128381009Y-100399999D01*
X128381009Y-100399999D02*
X128904819Y-100399999D01*
X128238152Y-100066665D02*
X128238152Y-99685713D01*
X127904819Y-99923808D02*
X128761961Y-99923808D01*
X128761961Y-99923808D02*
X128857200Y-99876189D01*
X128857200Y-99876189D02*
X128904819Y-99780951D01*
X128904819Y-99780951D02*
X128904819Y-99685713D01*
X128904819Y-99352379D02*
X128238152Y-99352379D01*
X127904819Y-99352379D02*
X127952438Y-99399998D01*
X127952438Y-99399998D02*
X128000057Y-99352379D01*
X128000057Y-99352379D02*
X127952438Y-99304760D01*
X127952438Y-99304760D02*
X127904819Y-99352379D01*
X127904819Y-99352379D02*
X128000057Y-99352379D01*
X128238152Y-98876189D02*
X128904819Y-98876189D01*
X128333390Y-98876189D02*
X128285771Y-98828570D01*
X128285771Y-98828570D02*
X128238152Y-98733332D01*
X128238152Y-98733332D02*
X128238152Y-98590475D01*
X128238152Y-98590475D02*
X128285771Y-98495237D01*
X128285771Y-98495237D02*
X128381009Y-98447618D01*
X128381009Y-98447618D02*
X128904819Y-98447618D01*
X128238152Y-97542856D02*
X129047676Y-97542856D01*
X129047676Y-97542856D02*
X129142914Y-97590475D01*
X129142914Y-97590475D02*
X129190533Y-97638094D01*
X129190533Y-97638094D02*
X129238152Y-97733332D01*
X129238152Y-97733332D02*
X129238152Y-97876189D01*
X129238152Y-97876189D02*
X129190533Y-97971427D01*
X128857200Y-97542856D02*
X128904819Y-97638094D01*
X128904819Y-97638094D02*
X128904819Y-97828570D01*
X128904819Y-97828570D02*
X128857200Y-97923808D01*
X128857200Y-97923808D02*
X128809580Y-97971427D01*
X128809580Y-97971427D02*
X128714342Y-98019046D01*
X128714342Y-98019046D02*
X128428628Y-98019046D01*
X128428628Y-98019046D02*
X128333390Y-97971427D01*
X128333390Y-97971427D02*
X128285771Y-97923808D01*
X128285771Y-97923808D02*
X128238152Y-97828570D01*
X128238152Y-97828570D02*
X128238152Y-97638094D01*
X128238152Y-97638094D02*
X128285771Y-97542856D01*
X128904819Y-97066665D02*
X127904819Y-97066665D01*
X127904819Y-97066665D02*
X127904819Y-96685713D01*
X127904819Y-96685713D02*
X127952438Y-96590475D01*
X127952438Y-96590475D02*
X128000057Y-96542856D01*
X128000057Y-96542856D02*
X128095295Y-96495237D01*
X128095295Y-96495237D02*
X128238152Y-96495237D01*
X128238152Y-96495237D02*
X128333390Y-96542856D01*
X128333390Y-96542856D02*
X128381009Y-96590475D01*
X128381009Y-96590475D02*
X128428628Y-96685713D01*
X128428628Y-96685713D02*
X128428628Y-97066665D01*
X128904819Y-96066665D02*
X128238152Y-96066665D01*
X127904819Y-96066665D02*
X127952438Y-96114284D01*
X127952438Y-96114284D02*
X128000057Y-96066665D01*
X128000057Y-96066665D02*
X127952438Y-96019046D01*
X127952438Y-96019046D02*
X127904819Y-96066665D01*
X127904819Y-96066665D02*
X128000057Y-96066665D01*
X128238152Y-95590475D02*
X128904819Y-95590475D01*
X128333390Y-95590475D02*
X128285771Y-95542856D01*
X128285771Y-95542856D02*
X128238152Y-95447618D01*
X128238152Y-95447618D02*
X128238152Y-95304761D01*
X128238152Y-95304761D02*
X128285771Y-95209523D01*
X128285771Y-95209523D02*
X128381009Y-95161904D01*
X128381009Y-95161904D02*
X128904819Y-95161904D01*
X131804819Y-104733333D02*
X132519104Y-104733333D01*
X132519104Y-104733333D02*
X132661961Y-104780952D01*
X132661961Y-104780952D02*
X132757200Y-104876190D01*
X132757200Y-104876190D02*
X132804819Y-105019047D01*
X132804819Y-105019047D02*
X132804819Y-105114285D01*
X132138152Y-103828571D02*
X132804819Y-103828571D01*
X131757200Y-104066666D02*
X132471485Y-104304761D01*
X132471485Y-104304761D02*
X132471485Y-103685714D01*
X146480952Y-88304819D02*
X145909524Y-88304819D01*
X146195238Y-88304819D02*
X146195238Y-87304819D01*
X146195238Y-87304819D02*
X146100000Y-87447676D01*
X146100000Y-87447676D02*
X146004762Y-87542914D01*
X146004762Y-87542914D02*
X145909524Y-87590533D01*
X147100000Y-87304819D02*
X147195238Y-87304819D01*
X147195238Y-87304819D02*
X147290476Y-87352438D01*
X147290476Y-87352438D02*
X147338095Y-87400057D01*
X147338095Y-87400057D02*
X147385714Y-87495295D01*
X147385714Y-87495295D02*
X147433333Y-87685771D01*
X147433333Y-87685771D02*
X147433333Y-87923866D01*
X147433333Y-87923866D02*
X147385714Y-88114342D01*
X147385714Y-88114342D02*
X147338095Y-88209580D01*
X147338095Y-88209580D02*
X147290476Y-88257200D01*
X147290476Y-88257200D02*
X147195238Y-88304819D01*
X147195238Y-88304819D02*
X147100000Y-88304819D01*
X147100000Y-88304819D02*
X147004762Y-88257200D01*
X147004762Y-88257200D02*
X146957143Y-88209580D01*
X146957143Y-88209580D02*
X146909524Y-88114342D01*
X146909524Y-88114342D02*
X146861905Y-87923866D01*
X146861905Y-87923866D02*
X146861905Y-87685771D01*
X146861905Y-87685771D02*
X146909524Y-87495295D01*
X146909524Y-87495295D02*
X146957143Y-87400057D01*
X146957143Y-87400057D02*
X147004762Y-87352438D01*
X147004762Y-87352438D02*
X147100000Y-87304819D01*
X148052381Y-87304819D02*
X148147619Y-87304819D01*
X148147619Y-87304819D02*
X148242857Y-87352438D01*
X148242857Y-87352438D02*
X148290476Y-87400057D01*
X148290476Y-87400057D02*
X148338095Y-87495295D01*
X148338095Y-87495295D02*
X148385714Y-87685771D01*
X148385714Y-87685771D02*
X148385714Y-87923866D01*
X148385714Y-87923866D02*
X148338095Y-88114342D01*
X148338095Y-88114342D02*
X148290476Y-88209580D01*
X148290476Y-88209580D02*
X148242857Y-88257200D01*
X148242857Y-88257200D02*
X148147619Y-88304819D01*
X148147619Y-88304819D02*
X148052381Y-88304819D01*
X148052381Y-88304819D02*
X147957143Y-88257200D01*
X147957143Y-88257200D02*
X147909524Y-88209580D01*
X147909524Y-88209580D02*
X147861905Y-88114342D01*
X147861905Y-88114342D02*
X147814286Y-87923866D01*
X147814286Y-87923866D02*
X147814286Y-87685771D01*
X147814286Y-87685771D02*
X147861905Y-87495295D01*
X147861905Y-87495295D02*
X147909524Y-87400057D01*
X147909524Y-87400057D02*
X147957143Y-87352438D01*
X147957143Y-87352438D02*
X148052381Y-87304819D01*
X148814286Y-87638152D02*
X148814286Y-88304819D01*
X148814286Y-87733390D02*
X148861905Y-87685771D01*
X148861905Y-87685771D02*
X148957143Y-87638152D01*
X148957143Y-87638152D02*
X149100000Y-87638152D01*
X149100000Y-87638152D02*
X149195238Y-87685771D01*
X149195238Y-87685771D02*
X149242857Y-87781009D01*
X149242857Y-87781009D02*
X149242857Y-88304819D01*
D11*
X147439285Y-89669765D02*
X147427381Y-89681670D01*
X147427381Y-89681670D02*
X147391666Y-89693574D01*
X147391666Y-89693574D02*
X147367857Y-89693574D01*
X147367857Y-89693574D02*
X147332143Y-89681670D01*
X147332143Y-89681670D02*
X147308333Y-89657860D01*
X147308333Y-89657860D02*
X147296428Y-89634050D01*
X147296428Y-89634050D02*
X147284524Y-89586431D01*
X147284524Y-89586431D02*
X147284524Y-89550717D01*
X147284524Y-89550717D02*
X147296428Y-89503098D01*
X147296428Y-89503098D02*
X147308333Y-89479289D01*
X147308333Y-89479289D02*
X147332143Y-89455479D01*
X147332143Y-89455479D02*
X147367857Y-89443574D01*
X147367857Y-89443574D02*
X147391666Y-89443574D01*
X147391666Y-89443574D02*
X147427381Y-89455479D01*
X147427381Y-89455479D02*
X147439285Y-89467384D01*
X147677381Y-89693574D02*
X147534524Y-89693574D01*
X147605952Y-89693574D02*
X147605952Y-89443574D01*
X147605952Y-89443574D02*
X147582143Y-89479289D01*
X147582143Y-89479289D02*
X147558333Y-89503098D01*
X147558333Y-89503098D02*
X147534524Y-89515003D01*
X147760714Y-89443574D02*
X147927380Y-89443574D01*
X147927380Y-89443574D02*
X147820238Y-89693574D01*
D10*
X165561904Y-108854580D02*
X165514285Y-108902200D01*
X165514285Y-108902200D02*
X165371428Y-108949819D01*
X165371428Y-108949819D02*
X165276190Y-108949819D01*
X165276190Y-108949819D02*
X165133333Y-108902200D01*
X165133333Y-108902200D02*
X165038095Y-108806961D01*
X165038095Y-108806961D02*
X164990476Y-108711723D01*
X164990476Y-108711723D02*
X164942857Y-108521247D01*
X164942857Y-108521247D02*
X164942857Y-108378390D01*
X164942857Y-108378390D02*
X164990476Y-108187914D01*
X164990476Y-108187914D02*
X165038095Y-108092676D01*
X165038095Y-108092676D02*
X165133333Y-107997438D01*
X165133333Y-107997438D02*
X165276190Y-107949819D01*
X165276190Y-107949819D02*
X165371428Y-107949819D01*
X165371428Y-107949819D02*
X165514285Y-107997438D01*
X165514285Y-107997438D02*
X165561904Y-108045057D01*
X166133333Y-108949819D02*
X166038095Y-108902200D01*
X166038095Y-108902200D02*
X165990476Y-108854580D01*
X165990476Y-108854580D02*
X165942857Y-108759342D01*
X165942857Y-108759342D02*
X165942857Y-108473628D01*
X165942857Y-108473628D02*
X165990476Y-108378390D01*
X165990476Y-108378390D02*
X166038095Y-108330771D01*
X166038095Y-108330771D02*
X166133333Y-108283152D01*
X166133333Y-108283152D02*
X166276190Y-108283152D01*
X166276190Y-108283152D02*
X166371428Y-108330771D01*
X166371428Y-108330771D02*
X166419047Y-108378390D01*
X166419047Y-108378390D02*
X166466666Y-108473628D01*
X166466666Y-108473628D02*
X166466666Y-108759342D01*
X166466666Y-108759342D02*
X166419047Y-108854580D01*
X166419047Y-108854580D02*
X166371428Y-108902200D01*
X166371428Y-108902200D02*
X166276190Y-108949819D01*
X166276190Y-108949819D02*
X166133333Y-108949819D01*
X166895238Y-108283152D02*
X166895238Y-108949819D01*
X166895238Y-108378390D02*
X166942857Y-108330771D01*
X166942857Y-108330771D02*
X167038095Y-108283152D01*
X167038095Y-108283152D02*
X167180952Y-108283152D01*
X167180952Y-108283152D02*
X167276190Y-108330771D01*
X167276190Y-108330771D02*
X167323809Y-108426009D01*
X167323809Y-108426009D02*
X167323809Y-108949819D01*
X167800000Y-108283152D02*
X167800000Y-108949819D01*
X167800000Y-108378390D02*
X167847619Y-108330771D01*
X167847619Y-108330771D02*
X167942857Y-108283152D01*
X167942857Y-108283152D02*
X168085714Y-108283152D01*
X168085714Y-108283152D02*
X168180952Y-108330771D01*
X168180952Y-108330771D02*
X168228571Y-108426009D01*
X168228571Y-108426009D02*
X168228571Y-108949819D01*
X168466667Y-109045057D02*
X169228571Y-109045057D01*
X169657143Y-107949819D02*
X169752381Y-107949819D01*
X169752381Y-107949819D02*
X169847619Y-107997438D01*
X169847619Y-107997438D02*
X169895238Y-108045057D01*
X169895238Y-108045057D02*
X169942857Y-108140295D01*
X169942857Y-108140295D02*
X169990476Y-108330771D01*
X169990476Y-108330771D02*
X169990476Y-108568866D01*
X169990476Y-108568866D02*
X169942857Y-108759342D01*
X169942857Y-108759342D02*
X169895238Y-108854580D01*
X169895238Y-108854580D02*
X169847619Y-108902200D01*
X169847619Y-108902200D02*
X169752381Y-108949819D01*
X169752381Y-108949819D02*
X169657143Y-108949819D01*
X169657143Y-108949819D02*
X169561905Y-108902200D01*
X169561905Y-108902200D02*
X169514286Y-108854580D01*
X169514286Y-108854580D02*
X169466667Y-108759342D01*
X169466667Y-108759342D02*
X169419048Y-108568866D01*
X169419048Y-108568866D02*
X169419048Y-108330771D01*
X169419048Y-108330771D02*
X169466667Y-108140295D01*
X169466667Y-108140295D02*
X169514286Y-108045057D01*
X169514286Y-108045057D02*
X169561905Y-107997438D01*
X169561905Y-107997438D02*
X169657143Y-107949819D01*
X170942857Y-108949819D02*
X170371429Y-108949819D01*
X170657143Y-108949819D02*
X170657143Y-107949819D01*
X170657143Y-107949819D02*
X170561905Y-108092676D01*
X170561905Y-108092676D02*
X170466667Y-108187914D01*
X170466667Y-108187914D02*
X170371429Y-108235533D01*
X171276191Y-108949819D02*
X171800000Y-108283152D01*
X171276191Y-108283152D02*
X171800000Y-108949819D01*
X172371429Y-107949819D02*
X172466667Y-107949819D01*
X172466667Y-107949819D02*
X172561905Y-107997438D01*
X172561905Y-107997438D02*
X172609524Y-108045057D01*
X172609524Y-108045057D02*
X172657143Y-108140295D01*
X172657143Y-108140295D02*
X172704762Y-108330771D01*
X172704762Y-108330771D02*
X172704762Y-108568866D01*
X172704762Y-108568866D02*
X172657143Y-108759342D01*
X172657143Y-108759342D02*
X172609524Y-108854580D01*
X172609524Y-108854580D02*
X172561905Y-108902200D01*
X172561905Y-108902200D02*
X172466667Y-108949819D01*
X172466667Y-108949819D02*
X172371429Y-108949819D01*
X172371429Y-108949819D02*
X172276191Y-108902200D01*
X172276191Y-108902200D02*
X172228572Y-108854580D01*
X172228572Y-108854580D02*
X172180953Y-108759342D01*
X172180953Y-108759342D02*
X172133334Y-108568866D01*
X172133334Y-108568866D02*
X172133334Y-108330771D01*
X172133334Y-108330771D02*
X172180953Y-108140295D01*
X172180953Y-108140295D02*
X172228572Y-108045057D01*
X172228572Y-108045057D02*
X172276191Y-107997438D01*
X172276191Y-107997438D02*
X172371429Y-107949819D01*
X173561905Y-108283152D02*
X173561905Y-108949819D01*
X173323810Y-107902200D02*
X173085715Y-108616485D01*
X173085715Y-108616485D02*
X173704762Y-108616485D01*
X168754819Y-112428333D02*
X169469104Y-112428333D01*
X169469104Y-112428333D02*
X169611961Y-112475952D01*
X169611961Y-112475952D02*
X169707200Y-112571190D01*
X169707200Y-112571190D02*
X169754819Y-112714047D01*
X169754819Y-112714047D02*
X169754819Y-112809285D01*
X168850057Y-111999761D02*
X168802438Y-111952142D01*
X168802438Y-111952142D02*
X168754819Y-111856904D01*
X168754819Y-111856904D02*
X168754819Y-111618809D01*
X168754819Y-111618809D02*
X168802438Y-111523571D01*
X168802438Y-111523571D02*
X168850057Y-111475952D01*
X168850057Y-111475952D02*
X168945295Y-111428333D01*
X168945295Y-111428333D02*
X169040533Y-111428333D01*
X169040533Y-111428333D02*
X169183390Y-111475952D01*
X169183390Y-111475952D02*
X169754819Y-112047380D01*
X169754819Y-112047380D02*
X169754819Y-111428333D01*
X152604819Y-103019047D02*
X152604819Y-103590475D01*
X152604819Y-103304761D02*
X151604819Y-103304761D01*
X151604819Y-103304761D02*
X151747676Y-103399999D01*
X151747676Y-103399999D02*
X151842914Y-103495237D01*
X151842914Y-103495237D02*
X151890533Y-103590475D01*
X151604819Y-102399999D02*
X151604819Y-102304761D01*
X151604819Y-102304761D02*
X151652438Y-102209523D01*
X151652438Y-102209523D02*
X151700057Y-102161904D01*
X151700057Y-102161904D02*
X151795295Y-102114285D01*
X151795295Y-102114285D02*
X151985771Y-102066666D01*
X151985771Y-102066666D02*
X152223866Y-102066666D01*
X152223866Y-102066666D02*
X152414342Y-102114285D01*
X152414342Y-102114285D02*
X152509580Y-102161904D01*
X152509580Y-102161904D02*
X152557200Y-102209523D01*
X152557200Y-102209523D02*
X152604819Y-102304761D01*
X152604819Y-102304761D02*
X152604819Y-102399999D01*
X152604819Y-102399999D02*
X152557200Y-102495237D01*
X152557200Y-102495237D02*
X152509580Y-102542856D01*
X152509580Y-102542856D02*
X152414342Y-102590475D01*
X152414342Y-102590475D02*
X152223866Y-102638094D01*
X152223866Y-102638094D02*
X151985771Y-102638094D01*
X151985771Y-102638094D02*
X151795295Y-102590475D01*
X151795295Y-102590475D02*
X151700057Y-102542856D01*
X151700057Y-102542856D02*
X151652438Y-102495237D01*
X151652438Y-102495237D02*
X151604819Y-102399999D01*
X151604819Y-101447618D02*
X151604819Y-101352380D01*
X151604819Y-101352380D02*
X151652438Y-101257142D01*
X151652438Y-101257142D02*
X151700057Y-101209523D01*
X151700057Y-101209523D02*
X151795295Y-101161904D01*
X151795295Y-101161904D02*
X151985771Y-101114285D01*
X151985771Y-101114285D02*
X152223866Y-101114285D01*
X152223866Y-101114285D02*
X152414342Y-101161904D01*
X152414342Y-101161904D02*
X152509580Y-101209523D01*
X152509580Y-101209523D02*
X152557200Y-101257142D01*
X152557200Y-101257142D02*
X152604819Y-101352380D01*
X152604819Y-101352380D02*
X152604819Y-101447618D01*
X152604819Y-101447618D02*
X152557200Y-101542856D01*
X152557200Y-101542856D02*
X152509580Y-101590475D01*
X152509580Y-101590475D02*
X152414342Y-101638094D01*
X152414342Y-101638094D02*
X152223866Y-101685713D01*
X152223866Y-101685713D02*
X151985771Y-101685713D01*
X151985771Y-101685713D02*
X151795295Y-101638094D01*
X151795295Y-101638094D02*
X151700057Y-101590475D01*
X151700057Y-101590475D02*
X151652438Y-101542856D01*
X151652438Y-101542856D02*
X151604819Y-101447618D01*
X151938152Y-100685713D02*
X152604819Y-100685713D01*
X152033390Y-100685713D02*
X151985771Y-100638094D01*
X151985771Y-100638094D02*
X151938152Y-100542856D01*
X151938152Y-100542856D02*
X151938152Y-100399999D01*
X151938152Y-100399999D02*
X151985771Y-100304761D01*
X151985771Y-100304761D02*
X152081009Y-100257142D01*
X152081009Y-100257142D02*
X152604819Y-100257142D01*
D11*
X150509765Y-102060714D02*
X150521670Y-102072618D01*
X150521670Y-102072618D02*
X150533574Y-102108333D01*
X150533574Y-102108333D02*
X150533574Y-102132142D01*
X150533574Y-102132142D02*
X150521670Y-102167856D01*
X150521670Y-102167856D02*
X150497860Y-102191666D01*
X150497860Y-102191666D02*
X150474050Y-102203571D01*
X150474050Y-102203571D02*
X150426431Y-102215475D01*
X150426431Y-102215475D02*
X150390717Y-102215475D01*
X150390717Y-102215475D02*
X150343098Y-102203571D01*
X150343098Y-102203571D02*
X150319289Y-102191666D01*
X150319289Y-102191666D02*
X150295479Y-102167856D01*
X150295479Y-102167856D02*
X150283574Y-102132142D01*
X150283574Y-102132142D02*
X150283574Y-102108333D01*
X150283574Y-102108333D02*
X150295479Y-102072618D01*
X150295479Y-102072618D02*
X150307384Y-102060714D01*
X150533574Y-101822618D02*
X150533574Y-101965475D01*
X150533574Y-101894047D02*
X150283574Y-101894047D01*
X150283574Y-101894047D02*
X150319289Y-101917856D01*
X150319289Y-101917856D02*
X150343098Y-101941666D01*
X150343098Y-101941666D02*
X150355003Y-101965475D01*
X150533574Y-101703571D02*
X150533574Y-101655952D01*
X150533574Y-101655952D02*
X150521670Y-101632142D01*
X150521670Y-101632142D02*
X150509765Y-101620238D01*
X150509765Y-101620238D02*
X150474050Y-101596428D01*
X150474050Y-101596428D02*
X150426431Y-101584523D01*
X150426431Y-101584523D02*
X150331193Y-101584523D01*
X150331193Y-101584523D02*
X150307384Y-101596428D01*
X150307384Y-101596428D02*
X150295479Y-101608333D01*
X150295479Y-101608333D02*
X150283574Y-101632142D01*
X150283574Y-101632142D02*
X150283574Y-101679761D01*
X150283574Y-101679761D02*
X150295479Y-101703571D01*
X150295479Y-101703571D02*
X150307384Y-101715476D01*
X150307384Y-101715476D02*
X150331193Y-101727380D01*
X150331193Y-101727380D02*
X150390717Y-101727380D01*
X150390717Y-101727380D02*
X150414527Y-101715476D01*
X150414527Y-101715476D02*
X150426431Y-101703571D01*
X150426431Y-101703571D02*
X150438336Y-101679761D01*
X150438336Y-101679761D02*
X150438336Y-101632142D01*
X150438336Y-101632142D02*
X150426431Y-101608333D01*
X150426431Y-101608333D02*
X150414527Y-101596428D01*
X150414527Y-101596428D02*
X150390717Y-101584523D01*
D10*
X163214285Y-85954819D02*
X163214285Y-84954819D01*
X163214285Y-84954819D02*
X163547618Y-85669104D01*
X163547618Y-85669104D02*
X163880951Y-84954819D01*
X163880951Y-84954819D02*
X163880951Y-85954819D01*
X164499999Y-85954819D02*
X164404761Y-85907200D01*
X164404761Y-85907200D02*
X164357142Y-85859580D01*
X164357142Y-85859580D02*
X164309523Y-85764342D01*
X164309523Y-85764342D02*
X164309523Y-85478628D01*
X164309523Y-85478628D02*
X164357142Y-85383390D01*
X164357142Y-85383390D02*
X164404761Y-85335771D01*
X164404761Y-85335771D02*
X164499999Y-85288152D01*
X164499999Y-85288152D02*
X164642856Y-85288152D01*
X164642856Y-85288152D02*
X164738094Y-85335771D01*
X164738094Y-85335771D02*
X164785713Y-85383390D01*
X164785713Y-85383390D02*
X164833332Y-85478628D01*
X164833332Y-85478628D02*
X164833332Y-85764342D01*
X164833332Y-85764342D02*
X164785713Y-85859580D01*
X164785713Y-85859580D02*
X164738094Y-85907200D01*
X164738094Y-85907200D02*
X164642856Y-85954819D01*
X164642856Y-85954819D02*
X164499999Y-85954819D01*
X165690475Y-85288152D02*
X165690475Y-85954819D01*
X165261904Y-85288152D02*
X165261904Y-85811961D01*
X165261904Y-85811961D02*
X165309523Y-85907200D01*
X165309523Y-85907200D02*
X165404761Y-85954819D01*
X165404761Y-85954819D02*
X165547618Y-85954819D01*
X165547618Y-85954819D02*
X165642856Y-85907200D01*
X165642856Y-85907200D02*
X165690475Y-85859580D01*
X166166666Y-85288152D02*
X166166666Y-85954819D01*
X166166666Y-85383390D02*
X166214285Y-85335771D01*
X166214285Y-85335771D02*
X166309523Y-85288152D01*
X166309523Y-85288152D02*
X166452380Y-85288152D01*
X166452380Y-85288152D02*
X166547618Y-85335771D01*
X166547618Y-85335771D02*
X166595237Y-85431009D01*
X166595237Y-85431009D02*
X166595237Y-85954819D01*
X166928571Y-85288152D02*
X167309523Y-85288152D01*
X167071428Y-84954819D02*
X167071428Y-85811961D01*
X167071428Y-85811961D02*
X167119047Y-85907200D01*
X167119047Y-85907200D02*
X167214285Y-85954819D01*
X167214285Y-85954819D02*
X167309523Y-85954819D01*
X167642857Y-85954819D02*
X167642857Y-85288152D01*
X167642857Y-84954819D02*
X167595238Y-85002438D01*
X167595238Y-85002438D02*
X167642857Y-85050057D01*
X167642857Y-85050057D02*
X167690476Y-85002438D01*
X167690476Y-85002438D02*
X167642857Y-84954819D01*
X167642857Y-84954819D02*
X167642857Y-85050057D01*
X168119047Y-85288152D02*
X168119047Y-85954819D01*
X168119047Y-85383390D02*
X168166666Y-85335771D01*
X168166666Y-85335771D02*
X168261904Y-85288152D01*
X168261904Y-85288152D02*
X168404761Y-85288152D01*
X168404761Y-85288152D02*
X168499999Y-85335771D01*
X168499999Y-85335771D02*
X168547618Y-85431009D01*
X168547618Y-85431009D02*
X168547618Y-85954819D01*
X169452380Y-85288152D02*
X169452380Y-86097676D01*
X169452380Y-86097676D02*
X169404761Y-86192914D01*
X169404761Y-86192914D02*
X169357142Y-86240533D01*
X169357142Y-86240533D02*
X169261904Y-86288152D01*
X169261904Y-86288152D02*
X169119047Y-86288152D01*
X169119047Y-86288152D02*
X169023809Y-86240533D01*
X169452380Y-85907200D02*
X169357142Y-85954819D01*
X169357142Y-85954819D02*
X169166666Y-85954819D01*
X169166666Y-85954819D02*
X169071428Y-85907200D01*
X169071428Y-85907200D02*
X169023809Y-85859580D01*
X169023809Y-85859580D02*
X168976190Y-85764342D01*
X168976190Y-85764342D02*
X168976190Y-85478628D01*
X168976190Y-85478628D02*
X169023809Y-85383390D01*
X169023809Y-85383390D02*
X169071428Y-85335771D01*
X169071428Y-85335771D02*
X169166666Y-85288152D01*
X169166666Y-85288152D02*
X169357142Y-85288152D01*
X169357142Y-85288152D02*
X169452380Y-85335771D01*
X169928571Y-85954819D02*
X169928571Y-84954819D01*
X169928571Y-85431009D02*
X170499999Y-85431009D01*
X170499999Y-85954819D02*
X170499999Y-84954819D01*
X171119047Y-85954819D02*
X171023809Y-85907200D01*
X171023809Y-85907200D02*
X170976190Y-85859580D01*
X170976190Y-85859580D02*
X170928571Y-85764342D01*
X170928571Y-85764342D02*
X170928571Y-85478628D01*
X170928571Y-85478628D02*
X170976190Y-85383390D01*
X170976190Y-85383390D02*
X171023809Y-85335771D01*
X171023809Y-85335771D02*
X171119047Y-85288152D01*
X171119047Y-85288152D02*
X171261904Y-85288152D01*
X171261904Y-85288152D02*
X171357142Y-85335771D01*
X171357142Y-85335771D02*
X171404761Y-85383390D01*
X171404761Y-85383390D02*
X171452380Y-85478628D01*
X171452380Y-85478628D02*
X171452380Y-85764342D01*
X171452380Y-85764342D02*
X171404761Y-85859580D01*
X171404761Y-85859580D02*
X171357142Y-85907200D01*
X171357142Y-85907200D02*
X171261904Y-85954819D01*
X171261904Y-85954819D02*
X171119047Y-85954819D01*
X172023809Y-85954819D02*
X171928571Y-85907200D01*
X171928571Y-85907200D02*
X171880952Y-85811961D01*
X171880952Y-85811961D02*
X171880952Y-84954819D01*
X172785714Y-85907200D02*
X172690476Y-85954819D01*
X172690476Y-85954819D02*
X172500000Y-85954819D01*
X172500000Y-85954819D02*
X172404762Y-85907200D01*
X172404762Y-85907200D02*
X172357143Y-85811961D01*
X172357143Y-85811961D02*
X172357143Y-85431009D01*
X172357143Y-85431009D02*
X172404762Y-85335771D01*
X172404762Y-85335771D02*
X172500000Y-85288152D01*
X172500000Y-85288152D02*
X172690476Y-85288152D01*
X172690476Y-85288152D02*
X172785714Y-85335771D01*
X172785714Y-85335771D02*
X172833333Y-85431009D01*
X172833333Y-85431009D02*
X172833333Y-85526247D01*
X172833333Y-85526247D02*
X172357143Y-85621485D01*
X167238095Y-82454819D02*
X167238095Y-81454819D01*
X167238095Y-81931009D02*
X167809523Y-81931009D01*
X167809523Y-82454819D02*
X167809523Y-81454819D01*
X168238095Y-81550057D02*
X168285714Y-81502438D01*
X168285714Y-81502438D02*
X168380952Y-81454819D01*
X168380952Y-81454819D02*
X168619047Y-81454819D01*
X168619047Y-81454819D02*
X168714285Y-81502438D01*
X168714285Y-81502438D02*
X168761904Y-81550057D01*
X168761904Y-81550057D02*
X168809523Y-81645295D01*
X168809523Y-81645295D02*
X168809523Y-81740533D01*
X168809523Y-81740533D02*
X168761904Y-81883390D01*
X168761904Y-81883390D02*
X168190476Y-82454819D01*
X168190476Y-82454819D02*
X168809523Y-82454819D01*
X146480952Y-94904819D02*
X145909524Y-94904819D01*
X146195238Y-94904819D02*
X146195238Y-93904819D01*
X146195238Y-93904819D02*
X146100000Y-94047676D01*
X146100000Y-94047676D02*
X146004762Y-94142914D01*
X146004762Y-94142914D02*
X145909524Y-94190533D01*
X147100000Y-93904819D02*
X147195238Y-93904819D01*
X147195238Y-93904819D02*
X147290476Y-93952438D01*
X147290476Y-93952438D02*
X147338095Y-94000057D01*
X147338095Y-94000057D02*
X147385714Y-94095295D01*
X147385714Y-94095295D02*
X147433333Y-94285771D01*
X147433333Y-94285771D02*
X147433333Y-94523866D01*
X147433333Y-94523866D02*
X147385714Y-94714342D01*
X147385714Y-94714342D02*
X147338095Y-94809580D01*
X147338095Y-94809580D02*
X147290476Y-94857200D01*
X147290476Y-94857200D02*
X147195238Y-94904819D01*
X147195238Y-94904819D02*
X147100000Y-94904819D01*
X147100000Y-94904819D02*
X147004762Y-94857200D01*
X147004762Y-94857200D02*
X146957143Y-94809580D01*
X146957143Y-94809580D02*
X146909524Y-94714342D01*
X146909524Y-94714342D02*
X146861905Y-94523866D01*
X146861905Y-94523866D02*
X146861905Y-94285771D01*
X146861905Y-94285771D02*
X146909524Y-94095295D01*
X146909524Y-94095295D02*
X146957143Y-94000057D01*
X146957143Y-94000057D02*
X147004762Y-93952438D01*
X147004762Y-93952438D02*
X147100000Y-93904819D01*
X148052381Y-93904819D02*
X148147619Y-93904819D01*
X148147619Y-93904819D02*
X148242857Y-93952438D01*
X148242857Y-93952438D02*
X148290476Y-94000057D01*
X148290476Y-94000057D02*
X148338095Y-94095295D01*
X148338095Y-94095295D02*
X148385714Y-94285771D01*
X148385714Y-94285771D02*
X148385714Y-94523866D01*
X148385714Y-94523866D02*
X148338095Y-94714342D01*
X148338095Y-94714342D02*
X148290476Y-94809580D01*
X148290476Y-94809580D02*
X148242857Y-94857200D01*
X148242857Y-94857200D02*
X148147619Y-94904819D01*
X148147619Y-94904819D02*
X148052381Y-94904819D01*
X148052381Y-94904819D02*
X147957143Y-94857200D01*
X147957143Y-94857200D02*
X147909524Y-94809580D01*
X147909524Y-94809580D02*
X147861905Y-94714342D01*
X147861905Y-94714342D02*
X147814286Y-94523866D01*
X147814286Y-94523866D02*
X147814286Y-94285771D01*
X147814286Y-94285771D02*
X147861905Y-94095295D01*
X147861905Y-94095295D02*
X147909524Y-94000057D01*
X147909524Y-94000057D02*
X147957143Y-93952438D01*
X147957143Y-93952438D02*
X148052381Y-93904819D01*
X148814286Y-94238152D02*
X148814286Y-94904819D01*
X148814286Y-94333390D02*
X148861905Y-94285771D01*
X148861905Y-94285771D02*
X148957143Y-94238152D01*
X148957143Y-94238152D02*
X149100000Y-94238152D01*
X149100000Y-94238152D02*
X149195238Y-94285771D01*
X149195238Y-94285771D02*
X149242857Y-94381009D01*
X149242857Y-94381009D02*
X149242857Y-94904819D01*
D11*
X147439285Y-96269765D02*
X147427381Y-96281670D01*
X147427381Y-96281670D02*
X147391666Y-96293574D01*
X147391666Y-96293574D02*
X147367857Y-96293574D01*
X147367857Y-96293574D02*
X147332143Y-96281670D01*
X147332143Y-96281670D02*
X147308333Y-96257860D01*
X147308333Y-96257860D02*
X147296428Y-96234050D01*
X147296428Y-96234050D02*
X147284524Y-96186431D01*
X147284524Y-96186431D02*
X147284524Y-96150717D01*
X147284524Y-96150717D02*
X147296428Y-96103098D01*
X147296428Y-96103098D02*
X147308333Y-96079289D01*
X147308333Y-96079289D02*
X147332143Y-96055479D01*
X147332143Y-96055479D02*
X147367857Y-96043574D01*
X147367857Y-96043574D02*
X147391666Y-96043574D01*
X147391666Y-96043574D02*
X147427381Y-96055479D01*
X147427381Y-96055479D02*
X147439285Y-96067384D01*
X147534524Y-96067384D02*
X147546428Y-96055479D01*
X147546428Y-96055479D02*
X147570238Y-96043574D01*
X147570238Y-96043574D02*
X147629762Y-96043574D01*
X147629762Y-96043574D02*
X147653571Y-96055479D01*
X147653571Y-96055479D02*
X147665476Y-96067384D01*
X147665476Y-96067384D02*
X147677381Y-96091193D01*
X147677381Y-96091193D02*
X147677381Y-96115003D01*
X147677381Y-96115003D02*
X147665476Y-96150717D01*
X147665476Y-96150717D02*
X147522619Y-96293574D01*
X147522619Y-96293574D02*
X147677381Y-96293574D01*
X147891666Y-96126908D02*
X147891666Y-96293574D01*
X147832142Y-96031670D02*
X147772619Y-96210241D01*
X147772619Y-96210241D02*
X147927380Y-96210241D01*
D10*
X142138152Y-83335476D02*
X142804819Y-83335476D01*
X141757200Y-83573571D02*
X142471485Y-83811666D01*
X142471485Y-83811666D02*
X142471485Y-83192619D01*
X142804819Y-82811666D02*
X141804819Y-82811666D01*
X142423866Y-82716428D02*
X142804819Y-82430714D01*
X142138152Y-82430714D02*
X142519104Y-82811666D01*
X141804819Y-82097380D02*
X141804819Y-81430714D01*
X141804819Y-81430714D02*
X142804819Y-81859285D01*
D11*
X140733574Y-82805714D02*
X140614527Y-82889047D01*
X140733574Y-82948571D02*
X140483574Y-82948571D01*
X140483574Y-82948571D02*
X140483574Y-82853333D01*
X140483574Y-82853333D02*
X140495479Y-82829523D01*
X140495479Y-82829523D02*
X140507384Y-82817618D01*
X140507384Y-82817618D02*
X140531193Y-82805714D01*
X140531193Y-82805714D02*
X140566908Y-82805714D01*
X140566908Y-82805714D02*
X140590717Y-82817618D01*
X140590717Y-82817618D02*
X140602622Y-82829523D01*
X140602622Y-82829523D02*
X140614527Y-82853333D01*
X140614527Y-82853333D02*
X140614527Y-82948571D01*
X140733574Y-82567618D02*
X140733574Y-82710475D01*
X140733574Y-82639047D02*
X140483574Y-82639047D01*
X140483574Y-82639047D02*
X140519289Y-82662856D01*
X140519289Y-82662856D02*
X140543098Y-82686666D01*
X140543098Y-82686666D02*
X140555003Y-82710475D01*
X140733574Y-82448571D02*
X140733574Y-82400952D01*
X140733574Y-82400952D02*
X140721670Y-82377142D01*
X140721670Y-82377142D02*
X140709765Y-82365238D01*
X140709765Y-82365238D02*
X140674050Y-82341428D01*
X140674050Y-82341428D02*
X140626431Y-82329523D01*
X140626431Y-82329523D02*
X140531193Y-82329523D01*
X140531193Y-82329523D02*
X140507384Y-82341428D01*
X140507384Y-82341428D02*
X140495479Y-82353333D01*
X140495479Y-82353333D02*
X140483574Y-82377142D01*
X140483574Y-82377142D02*
X140483574Y-82424761D01*
X140483574Y-82424761D02*
X140495479Y-82448571D01*
X140495479Y-82448571D02*
X140507384Y-82460476D01*
X140507384Y-82460476D02*
X140531193Y-82472380D01*
X140531193Y-82472380D02*
X140590717Y-82472380D01*
X140590717Y-82472380D02*
X140614527Y-82460476D01*
X140614527Y-82460476D02*
X140626431Y-82448571D01*
X140626431Y-82448571D02*
X140638336Y-82424761D01*
X140638336Y-82424761D02*
X140638336Y-82377142D01*
X140638336Y-82377142D02*
X140626431Y-82353333D01*
X140626431Y-82353333D02*
X140614527Y-82341428D01*
X140614527Y-82341428D02*
X140590717Y-82329523D01*
D10*
X146480952Y-90804819D02*
X145909524Y-90804819D01*
X146195238Y-90804819D02*
X146195238Y-89804819D01*
X146195238Y-89804819D02*
X146100000Y-89947676D01*
X146100000Y-89947676D02*
X146004762Y-90042914D01*
X146004762Y-90042914D02*
X145909524Y-90090533D01*
X147100000Y-89804819D02*
X147195238Y-89804819D01*
X147195238Y-89804819D02*
X147290476Y-89852438D01*
X147290476Y-89852438D02*
X147338095Y-89900057D01*
X147338095Y-89900057D02*
X147385714Y-89995295D01*
X147385714Y-89995295D02*
X147433333Y-90185771D01*
X147433333Y-90185771D02*
X147433333Y-90423866D01*
X147433333Y-90423866D02*
X147385714Y-90614342D01*
X147385714Y-90614342D02*
X147338095Y-90709580D01*
X147338095Y-90709580D02*
X147290476Y-90757200D01*
X147290476Y-90757200D02*
X147195238Y-90804819D01*
X147195238Y-90804819D02*
X147100000Y-90804819D01*
X147100000Y-90804819D02*
X147004762Y-90757200D01*
X147004762Y-90757200D02*
X146957143Y-90709580D01*
X146957143Y-90709580D02*
X146909524Y-90614342D01*
X146909524Y-90614342D02*
X146861905Y-90423866D01*
X146861905Y-90423866D02*
X146861905Y-90185771D01*
X146861905Y-90185771D02*
X146909524Y-89995295D01*
X146909524Y-89995295D02*
X146957143Y-89900057D01*
X146957143Y-89900057D02*
X147004762Y-89852438D01*
X147004762Y-89852438D02*
X147100000Y-89804819D01*
X148052381Y-89804819D02*
X148147619Y-89804819D01*
X148147619Y-89804819D02*
X148242857Y-89852438D01*
X148242857Y-89852438D02*
X148290476Y-89900057D01*
X148290476Y-89900057D02*
X148338095Y-89995295D01*
X148338095Y-89995295D02*
X148385714Y-90185771D01*
X148385714Y-90185771D02*
X148385714Y-90423866D01*
X148385714Y-90423866D02*
X148338095Y-90614342D01*
X148338095Y-90614342D02*
X148290476Y-90709580D01*
X148290476Y-90709580D02*
X148242857Y-90757200D01*
X148242857Y-90757200D02*
X148147619Y-90804819D01*
X148147619Y-90804819D02*
X148052381Y-90804819D01*
X148052381Y-90804819D02*
X147957143Y-90757200D01*
X147957143Y-90757200D02*
X147909524Y-90709580D01*
X147909524Y-90709580D02*
X147861905Y-90614342D01*
X147861905Y-90614342D02*
X147814286Y-90423866D01*
X147814286Y-90423866D02*
X147814286Y-90185771D01*
X147814286Y-90185771D02*
X147861905Y-89995295D01*
X147861905Y-89995295D02*
X147909524Y-89900057D01*
X147909524Y-89900057D02*
X147957143Y-89852438D01*
X147957143Y-89852438D02*
X148052381Y-89804819D01*
X148814286Y-90138152D02*
X148814286Y-90804819D01*
X148814286Y-90233390D02*
X148861905Y-90185771D01*
X148861905Y-90185771D02*
X148957143Y-90138152D01*
X148957143Y-90138152D02*
X149100000Y-90138152D01*
X149100000Y-90138152D02*
X149195238Y-90185771D01*
X149195238Y-90185771D02*
X149242857Y-90281009D01*
X149242857Y-90281009D02*
X149242857Y-90804819D01*
D11*
X147439285Y-92169765D02*
X147427381Y-92181670D01*
X147427381Y-92181670D02*
X147391666Y-92193574D01*
X147391666Y-92193574D02*
X147367857Y-92193574D01*
X147367857Y-92193574D02*
X147332143Y-92181670D01*
X147332143Y-92181670D02*
X147308333Y-92157860D01*
X147308333Y-92157860D02*
X147296428Y-92134050D01*
X147296428Y-92134050D02*
X147284524Y-92086431D01*
X147284524Y-92086431D02*
X147284524Y-92050717D01*
X147284524Y-92050717D02*
X147296428Y-92003098D01*
X147296428Y-92003098D02*
X147308333Y-91979289D01*
X147308333Y-91979289D02*
X147332143Y-91955479D01*
X147332143Y-91955479D02*
X147367857Y-91943574D01*
X147367857Y-91943574D02*
X147391666Y-91943574D01*
X147391666Y-91943574D02*
X147427381Y-91955479D01*
X147427381Y-91955479D02*
X147439285Y-91967384D01*
X147677381Y-92193574D02*
X147534524Y-92193574D01*
X147605952Y-92193574D02*
X147605952Y-91943574D01*
X147605952Y-91943574D02*
X147582143Y-91979289D01*
X147582143Y-91979289D02*
X147558333Y-92003098D01*
X147558333Y-92003098D02*
X147534524Y-92015003D01*
X147820238Y-92050717D02*
X147796428Y-92038812D01*
X147796428Y-92038812D02*
X147784523Y-92026908D01*
X147784523Y-92026908D02*
X147772619Y-92003098D01*
X147772619Y-92003098D02*
X147772619Y-91991193D01*
X147772619Y-91991193D02*
X147784523Y-91967384D01*
X147784523Y-91967384D02*
X147796428Y-91955479D01*
X147796428Y-91955479D02*
X147820238Y-91943574D01*
X147820238Y-91943574D02*
X147867857Y-91943574D01*
X147867857Y-91943574D02*
X147891666Y-91955479D01*
X147891666Y-91955479D02*
X147903571Y-91967384D01*
X147903571Y-91967384D02*
X147915476Y-91991193D01*
X147915476Y-91991193D02*
X147915476Y-92003098D01*
X147915476Y-92003098D02*
X147903571Y-92026908D01*
X147903571Y-92026908D02*
X147891666Y-92038812D01*
X147891666Y-92038812D02*
X147867857Y-92050717D01*
X147867857Y-92050717D02*
X147820238Y-92050717D01*
X147820238Y-92050717D02*
X147796428Y-92062622D01*
X147796428Y-92062622D02*
X147784523Y-92074527D01*
X147784523Y-92074527D02*
X147772619Y-92098336D01*
X147772619Y-92098336D02*
X147772619Y-92145955D01*
X147772619Y-92145955D02*
X147784523Y-92169765D01*
X147784523Y-92169765D02*
X147796428Y-92181670D01*
X147796428Y-92181670D02*
X147820238Y-92193574D01*
X147820238Y-92193574D02*
X147867857Y-92193574D01*
X147867857Y-92193574D02*
X147891666Y-92181670D01*
X147891666Y-92181670D02*
X147903571Y-92169765D01*
X147903571Y-92169765D02*
X147915476Y-92145955D01*
X147915476Y-92145955D02*
X147915476Y-92098336D01*
X147915476Y-92098336D02*
X147903571Y-92074527D01*
X147903571Y-92074527D02*
X147891666Y-92062622D01*
X147891666Y-92062622D02*
X147867857Y-92050717D01*
D10*
X142557143Y-104250057D02*
X142604762Y-104202438D01*
X142604762Y-104202438D02*
X142700000Y-104154819D01*
X142700000Y-104154819D02*
X142938095Y-104154819D01*
X142938095Y-104154819D02*
X143033333Y-104202438D01*
X143033333Y-104202438D02*
X143080952Y-104250057D01*
X143080952Y-104250057D02*
X143128571Y-104345295D01*
X143128571Y-104345295D02*
X143128571Y-104440533D01*
X143128571Y-104440533D02*
X143080952Y-104583390D01*
X143080952Y-104583390D02*
X142509524Y-105154819D01*
X142509524Y-105154819D02*
X143128571Y-105154819D01*
X144033333Y-104154819D02*
X143557143Y-104154819D01*
X143557143Y-104154819D02*
X143509524Y-104631009D01*
X143509524Y-104631009D02*
X143557143Y-104583390D01*
X143557143Y-104583390D02*
X143652381Y-104535771D01*
X143652381Y-104535771D02*
X143890476Y-104535771D01*
X143890476Y-104535771D02*
X143985714Y-104583390D01*
X143985714Y-104583390D02*
X144033333Y-104631009D01*
X144033333Y-104631009D02*
X144080952Y-104726247D01*
X144080952Y-104726247D02*
X144080952Y-104964342D01*
X144080952Y-104964342D02*
X144033333Y-105059580D01*
X144033333Y-105059580D02*
X143985714Y-105107200D01*
X143985714Y-105107200D02*
X143890476Y-105154819D01*
X143890476Y-105154819D02*
X143652381Y-105154819D01*
X143652381Y-105154819D02*
X143557143Y-105107200D01*
X143557143Y-105107200D02*
X143509524Y-105059580D01*
X145271429Y-105154819D02*
X145271429Y-104154819D01*
X145271429Y-104154819D02*
X145604762Y-104869104D01*
X145604762Y-104869104D02*
X145938095Y-104154819D01*
X145938095Y-104154819D02*
X145938095Y-105154819D01*
X146414286Y-105154819D02*
X146414286Y-104154819D01*
X146414286Y-104631009D02*
X146985714Y-104631009D01*
X146985714Y-105154819D02*
X146985714Y-104154819D01*
X147366667Y-104488152D02*
X147890476Y-104488152D01*
X147890476Y-104488152D02*
X147366667Y-105154819D01*
X147366667Y-105154819D02*
X147890476Y-105154819D01*
D13*
X144914285Y-102487177D02*
X144914285Y-102772891D01*
X144714285Y-102172891D02*
X144914285Y-102487177D01*
X144914285Y-102487177D02*
X145114285Y-102172891D01*
X145628571Y-102772891D02*
X145285714Y-102772891D01*
X145457143Y-102772891D02*
X145457143Y-102172891D01*
X145457143Y-102172891D02*
X145400000Y-102258605D01*
X145400000Y-102258605D02*
X145342857Y-102315748D01*
X145342857Y-102315748D02*
X145285714Y-102344320D01*
D10*
X162654819Y-103074047D02*
X162654819Y-103645475D01*
X162654819Y-103359761D02*
X161654819Y-103359761D01*
X161654819Y-103359761D02*
X161797676Y-103454999D01*
X161797676Y-103454999D02*
X161892914Y-103550237D01*
X161892914Y-103550237D02*
X161940533Y-103645475D01*
X161654819Y-102454999D02*
X161654819Y-102359761D01*
X161654819Y-102359761D02*
X161702438Y-102264523D01*
X161702438Y-102264523D02*
X161750057Y-102216904D01*
X161750057Y-102216904D02*
X161845295Y-102169285D01*
X161845295Y-102169285D02*
X162035771Y-102121666D01*
X162035771Y-102121666D02*
X162273866Y-102121666D01*
X162273866Y-102121666D02*
X162464342Y-102169285D01*
X162464342Y-102169285D02*
X162559580Y-102216904D01*
X162559580Y-102216904D02*
X162607200Y-102264523D01*
X162607200Y-102264523D02*
X162654819Y-102359761D01*
X162654819Y-102359761D02*
X162654819Y-102454999D01*
X162654819Y-102454999D02*
X162607200Y-102550237D01*
X162607200Y-102550237D02*
X162559580Y-102597856D01*
X162559580Y-102597856D02*
X162464342Y-102645475D01*
X162464342Y-102645475D02*
X162273866Y-102693094D01*
X162273866Y-102693094D02*
X162035771Y-102693094D01*
X162035771Y-102693094D02*
X161845295Y-102645475D01*
X161845295Y-102645475D02*
X161750057Y-102597856D01*
X161750057Y-102597856D02*
X161702438Y-102550237D01*
X161702438Y-102550237D02*
X161654819Y-102454999D01*
X161654819Y-101502618D02*
X161654819Y-101407380D01*
X161654819Y-101407380D02*
X161702438Y-101312142D01*
X161702438Y-101312142D02*
X161750057Y-101264523D01*
X161750057Y-101264523D02*
X161845295Y-101216904D01*
X161845295Y-101216904D02*
X162035771Y-101169285D01*
X162035771Y-101169285D02*
X162273866Y-101169285D01*
X162273866Y-101169285D02*
X162464342Y-101216904D01*
X162464342Y-101216904D02*
X162559580Y-101264523D01*
X162559580Y-101264523D02*
X162607200Y-101312142D01*
X162607200Y-101312142D02*
X162654819Y-101407380D01*
X162654819Y-101407380D02*
X162654819Y-101502618D01*
X162654819Y-101502618D02*
X162607200Y-101597856D01*
X162607200Y-101597856D02*
X162559580Y-101645475D01*
X162559580Y-101645475D02*
X162464342Y-101693094D01*
X162464342Y-101693094D02*
X162273866Y-101740713D01*
X162273866Y-101740713D02*
X162035771Y-101740713D01*
X162035771Y-101740713D02*
X161845295Y-101693094D01*
X161845295Y-101693094D02*
X161750057Y-101645475D01*
X161750057Y-101645475D02*
X161702438Y-101597856D01*
X161702438Y-101597856D02*
X161654819Y-101502618D01*
X161988152Y-100740713D02*
X162654819Y-100740713D01*
X162083390Y-100740713D02*
X162035771Y-100693094D01*
X162035771Y-100693094D02*
X161988152Y-100597856D01*
X161988152Y-100597856D02*
X161988152Y-100454999D01*
X161988152Y-100454999D02*
X162035771Y-100359761D01*
X162035771Y-100359761D02*
X162131009Y-100312142D01*
X162131009Y-100312142D02*
X162654819Y-100312142D01*
D11*
X164019765Y-102115714D02*
X164031670Y-102127618D01*
X164031670Y-102127618D02*
X164043574Y-102163333D01*
X164043574Y-102163333D02*
X164043574Y-102187142D01*
X164043574Y-102187142D02*
X164031670Y-102222856D01*
X164031670Y-102222856D02*
X164007860Y-102246666D01*
X164007860Y-102246666D02*
X163984050Y-102258571D01*
X163984050Y-102258571D02*
X163936431Y-102270475D01*
X163936431Y-102270475D02*
X163900717Y-102270475D01*
X163900717Y-102270475D02*
X163853098Y-102258571D01*
X163853098Y-102258571D02*
X163829289Y-102246666D01*
X163829289Y-102246666D02*
X163805479Y-102222856D01*
X163805479Y-102222856D02*
X163793574Y-102187142D01*
X163793574Y-102187142D02*
X163793574Y-102163333D01*
X163793574Y-102163333D02*
X163805479Y-102127618D01*
X163805479Y-102127618D02*
X163817384Y-102115714D01*
X163817384Y-102020475D02*
X163805479Y-102008571D01*
X163805479Y-102008571D02*
X163793574Y-101984761D01*
X163793574Y-101984761D02*
X163793574Y-101925237D01*
X163793574Y-101925237D02*
X163805479Y-101901428D01*
X163805479Y-101901428D02*
X163817384Y-101889523D01*
X163817384Y-101889523D02*
X163841193Y-101877618D01*
X163841193Y-101877618D02*
X163865003Y-101877618D01*
X163865003Y-101877618D02*
X163900717Y-101889523D01*
X163900717Y-101889523D02*
X164043574Y-102032380D01*
X164043574Y-102032380D02*
X164043574Y-101877618D01*
X163793574Y-101722857D02*
X163793574Y-101699047D01*
X163793574Y-101699047D02*
X163805479Y-101675238D01*
X163805479Y-101675238D02*
X163817384Y-101663333D01*
X163817384Y-101663333D02*
X163841193Y-101651428D01*
X163841193Y-101651428D02*
X163888812Y-101639523D01*
X163888812Y-101639523D02*
X163948336Y-101639523D01*
X163948336Y-101639523D02*
X163995955Y-101651428D01*
X163995955Y-101651428D02*
X164019765Y-101663333D01*
X164019765Y-101663333D02*
X164031670Y-101675238D01*
X164031670Y-101675238D02*
X164043574Y-101699047D01*
X164043574Y-101699047D02*
X164043574Y-101722857D01*
X164043574Y-101722857D02*
X164031670Y-101746666D01*
X164031670Y-101746666D02*
X164019765Y-101758571D01*
X164019765Y-101758571D02*
X163995955Y-101770476D01*
X163995955Y-101770476D02*
X163948336Y-101782380D01*
X163948336Y-101782380D02*
X163888812Y-101782380D01*
X163888812Y-101782380D02*
X163841193Y-101770476D01*
X163841193Y-101770476D02*
X163817384Y-101758571D01*
X163817384Y-101758571D02*
X163805479Y-101746666D01*
X163805479Y-101746666D02*
X163793574Y-101722857D01*
D10*
X162079819Y-110530000D02*
X162079819Y-111006190D01*
X162079819Y-111006190D02*
X161079819Y-111006190D01*
X161079819Y-110339523D02*
X161079819Y-109768095D01*
X162079819Y-110053809D02*
X161079819Y-110053809D01*
X161984580Y-108863333D02*
X162032200Y-108910952D01*
X162032200Y-108910952D02*
X162079819Y-109053809D01*
X162079819Y-109053809D02*
X162079819Y-109149047D01*
X162079819Y-109149047D02*
X162032200Y-109291904D01*
X162032200Y-109291904D02*
X161936961Y-109387142D01*
X161936961Y-109387142D02*
X161841723Y-109434761D01*
X161841723Y-109434761D02*
X161651247Y-109482380D01*
X161651247Y-109482380D02*
X161508390Y-109482380D01*
X161508390Y-109482380D02*
X161317914Y-109434761D01*
X161317914Y-109434761D02*
X161222676Y-109387142D01*
X161222676Y-109387142D02*
X161127438Y-109291904D01*
X161127438Y-109291904D02*
X161079819Y-109149047D01*
X161079819Y-109149047D02*
X161079819Y-109053809D01*
X161079819Y-109053809D02*
X161127438Y-108910952D01*
X161127438Y-108910952D02*
X161175057Y-108863333D01*
X161175057Y-108482380D02*
X161127438Y-108434761D01*
X161127438Y-108434761D02*
X161079819Y-108339523D01*
X161079819Y-108339523D02*
X161079819Y-108101428D01*
X161079819Y-108101428D02*
X161127438Y-108006190D01*
X161127438Y-108006190D02*
X161175057Y-107958571D01*
X161175057Y-107958571D02*
X161270295Y-107910952D01*
X161270295Y-107910952D02*
X161365533Y-107910952D01*
X161365533Y-107910952D02*
X161508390Y-107958571D01*
X161508390Y-107958571D02*
X162079819Y-108529999D01*
X162079819Y-108529999D02*
X162079819Y-107910952D01*
X161079819Y-107006190D02*
X161079819Y-107482380D01*
X161079819Y-107482380D02*
X161556009Y-107529999D01*
X161556009Y-107529999D02*
X161508390Y-107482380D01*
X161508390Y-107482380D02*
X161460771Y-107387142D01*
X161460771Y-107387142D02*
X161460771Y-107149047D01*
X161460771Y-107149047D02*
X161508390Y-107053809D01*
X161508390Y-107053809D02*
X161556009Y-107006190D01*
X161556009Y-107006190D02*
X161651247Y-106958571D01*
X161651247Y-106958571D02*
X161889342Y-106958571D01*
X161889342Y-106958571D02*
X161984580Y-107006190D01*
X161984580Y-107006190D02*
X162032200Y-107053809D01*
X162032200Y-107053809D02*
X162079819Y-107149047D01*
X162079819Y-107149047D02*
X162079819Y-107387142D01*
X162079819Y-107387142D02*
X162032200Y-107482380D01*
X162032200Y-107482380D02*
X161984580Y-107529999D01*
X161508390Y-106387142D02*
X161460771Y-106482380D01*
X161460771Y-106482380D02*
X161413152Y-106529999D01*
X161413152Y-106529999D02*
X161317914Y-106577618D01*
X161317914Y-106577618D02*
X161270295Y-106577618D01*
X161270295Y-106577618D02*
X161175057Y-106529999D01*
X161175057Y-106529999D02*
X161127438Y-106482380D01*
X161127438Y-106482380D02*
X161079819Y-106387142D01*
X161079819Y-106387142D02*
X161079819Y-106196666D01*
X161079819Y-106196666D02*
X161127438Y-106101428D01*
X161127438Y-106101428D02*
X161175057Y-106053809D01*
X161175057Y-106053809D02*
X161270295Y-106006190D01*
X161270295Y-106006190D02*
X161317914Y-106006190D01*
X161317914Y-106006190D02*
X161413152Y-106053809D01*
X161413152Y-106053809D02*
X161460771Y-106101428D01*
X161460771Y-106101428D02*
X161508390Y-106196666D01*
X161508390Y-106196666D02*
X161508390Y-106387142D01*
X161508390Y-106387142D02*
X161556009Y-106482380D01*
X161556009Y-106482380D02*
X161603628Y-106529999D01*
X161603628Y-106529999D02*
X161698866Y-106577618D01*
X161698866Y-106577618D02*
X161889342Y-106577618D01*
X161889342Y-106577618D02*
X161984580Y-106529999D01*
X161984580Y-106529999D02*
X162032200Y-106482380D01*
X162032200Y-106482380D02*
X162079819Y-106387142D01*
X162079819Y-106387142D02*
X162079819Y-106196666D01*
X162079819Y-106196666D02*
X162032200Y-106101428D01*
X162032200Y-106101428D02*
X161984580Y-106053809D01*
X161984580Y-106053809D02*
X161889342Y-106006190D01*
X161889342Y-106006190D02*
X161698866Y-106006190D01*
X161698866Y-106006190D02*
X161603628Y-106053809D01*
X161603628Y-106053809D02*
X161556009Y-106101428D01*
X161556009Y-106101428D02*
X161508390Y-106196666D01*
X161079819Y-105387142D02*
X161079819Y-105291904D01*
X161079819Y-105291904D02*
X161127438Y-105196666D01*
X161127438Y-105196666D02*
X161175057Y-105149047D01*
X161175057Y-105149047D02*
X161270295Y-105101428D01*
X161270295Y-105101428D02*
X161460771Y-105053809D01*
X161460771Y-105053809D02*
X161698866Y-105053809D01*
X161698866Y-105053809D02*
X161889342Y-105101428D01*
X161889342Y-105101428D02*
X161984580Y-105149047D01*
X161984580Y-105149047D02*
X162032200Y-105196666D01*
X162032200Y-105196666D02*
X162079819Y-105291904D01*
X162079819Y-105291904D02*
X162079819Y-105387142D01*
X162079819Y-105387142D02*
X162032200Y-105482380D01*
X162032200Y-105482380D02*
X161984580Y-105529999D01*
X161984580Y-105529999D02*
X161889342Y-105577618D01*
X161889342Y-105577618D02*
X161698866Y-105625237D01*
X161698866Y-105625237D02*
X161460771Y-105625237D01*
X161460771Y-105625237D02*
X161270295Y-105577618D01*
X161270295Y-105577618D02*
X161175057Y-105529999D01*
X161175057Y-105529999D02*
X161127438Y-105482380D01*
X161127438Y-105482380D02*
X161079819Y-105387142D01*
X162079819Y-104625237D02*
X161079819Y-104625237D01*
X161556009Y-104625237D02*
X161556009Y-104053809D01*
X162079819Y-104053809D02*
X161079819Y-104053809D01*
X162079819Y-103577618D02*
X161079819Y-103577618D01*
X161079819Y-103577618D02*
X161079819Y-103339523D01*
X161079819Y-103339523D02*
X161127438Y-103196666D01*
X161127438Y-103196666D02*
X161222676Y-103101428D01*
X161222676Y-103101428D02*
X161317914Y-103053809D01*
X161317914Y-103053809D02*
X161508390Y-103006190D01*
X161508390Y-103006190D02*
X161651247Y-103006190D01*
X161651247Y-103006190D02*
X161841723Y-103053809D01*
X161841723Y-103053809D02*
X161936961Y-103101428D01*
X161936961Y-103101428D02*
X162032200Y-103196666D01*
X162032200Y-103196666D02*
X162079819Y-103339523D01*
X162079819Y-103339523D02*
X162079819Y-103577618D01*
X162079819Y-102577618D02*
X161079819Y-102577618D01*
X161079819Y-102577618D02*
X161079819Y-102339523D01*
X161079819Y-102339523D02*
X161127438Y-102196666D01*
X161127438Y-102196666D02*
X161222676Y-102101428D01*
X161222676Y-102101428D02*
X161317914Y-102053809D01*
X161317914Y-102053809D02*
X161508390Y-102006190D01*
X161508390Y-102006190D02*
X161651247Y-102006190D01*
X161651247Y-102006190D02*
X161841723Y-102053809D01*
X161841723Y-102053809D02*
X161936961Y-102101428D01*
X161936961Y-102101428D02*
X162032200Y-102196666D01*
X162032200Y-102196666D02*
X162079819Y-102339523D01*
X162079819Y-102339523D02*
X162079819Y-102577618D01*
D14*
X163666244Y-107101428D02*
X164273387Y-107101428D01*
X164273387Y-107101428D02*
X164344815Y-107065714D01*
X164344815Y-107065714D02*
X164380530Y-107030000D01*
X164380530Y-107030000D02*
X164416244Y-106958571D01*
X164416244Y-106958571D02*
X164416244Y-106815714D01*
X164416244Y-106815714D02*
X164380530Y-106744285D01*
X164380530Y-106744285D02*
X164344815Y-106708571D01*
X164344815Y-106708571D02*
X164273387Y-106672857D01*
X164273387Y-106672857D02*
X163666244Y-106672857D01*
X163666244Y-105958571D02*
X163666244Y-106315714D01*
X163666244Y-106315714D02*
X164023387Y-106351428D01*
X164023387Y-106351428D02*
X163987672Y-106315714D01*
X163987672Y-106315714D02*
X163951958Y-106244286D01*
X163951958Y-106244286D02*
X163951958Y-106065714D01*
X163951958Y-106065714D02*
X163987672Y-105994286D01*
X163987672Y-105994286D02*
X164023387Y-105958571D01*
X164023387Y-105958571D02*
X164094815Y-105922857D01*
X164094815Y-105922857D02*
X164273387Y-105922857D01*
X164273387Y-105922857D02*
X164344815Y-105958571D01*
X164344815Y-105958571D02*
X164380530Y-105994286D01*
X164380530Y-105994286D02*
X164416244Y-106065714D01*
X164416244Y-106065714D02*
X164416244Y-106244286D01*
X164416244Y-106244286D02*
X164380530Y-106315714D01*
X164380530Y-106315714D02*
X164344815Y-106351428D01*
D10*
X127214285Y-121954819D02*
X127214285Y-120954819D01*
X127214285Y-120954819D02*
X127547618Y-121669104D01*
X127547618Y-121669104D02*
X127880951Y-120954819D01*
X127880951Y-120954819D02*
X127880951Y-121954819D01*
X128499999Y-121954819D02*
X128404761Y-121907200D01*
X128404761Y-121907200D02*
X128357142Y-121859580D01*
X128357142Y-121859580D02*
X128309523Y-121764342D01*
X128309523Y-121764342D02*
X128309523Y-121478628D01*
X128309523Y-121478628D02*
X128357142Y-121383390D01*
X128357142Y-121383390D02*
X128404761Y-121335771D01*
X128404761Y-121335771D02*
X128499999Y-121288152D01*
X128499999Y-121288152D02*
X128642856Y-121288152D01*
X128642856Y-121288152D02*
X128738094Y-121335771D01*
X128738094Y-121335771D02*
X128785713Y-121383390D01*
X128785713Y-121383390D02*
X128833332Y-121478628D01*
X128833332Y-121478628D02*
X128833332Y-121764342D01*
X128833332Y-121764342D02*
X128785713Y-121859580D01*
X128785713Y-121859580D02*
X128738094Y-121907200D01*
X128738094Y-121907200D02*
X128642856Y-121954819D01*
X128642856Y-121954819D02*
X128499999Y-121954819D01*
X129690475Y-121288152D02*
X129690475Y-121954819D01*
X129261904Y-121288152D02*
X129261904Y-121811961D01*
X129261904Y-121811961D02*
X129309523Y-121907200D01*
X129309523Y-121907200D02*
X129404761Y-121954819D01*
X129404761Y-121954819D02*
X129547618Y-121954819D01*
X129547618Y-121954819D02*
X129642856Y-121907200D01*
X129642856Y-121907200D02*
X129690475Y-121859580D01*
X130166666Y-121288152D02*
X130166666Y-121954819D01*
X130166666Y-121383390D02*
X130214285Y-121335771D01*
X130214285Y-121335771D02*
X130309523Y-121288152D01*
X130309523Y-121288152D02*
X130452380Y-121288152D01*
X130452380Y-121288152D02*
X130547618Y-121335771D01*
X130547618Y-121335771D02*
X130595237Y-121431009D01*
X130595237Y-121431009D02*
X130595237Y-121954819D01*
X130928571Y-121288152D02*
X131309523Y-121288152D01*
X131071428Y-120954819D02*
X131071428Y-121811961D01*
X131071428Y-121811961D02*
X131119047Y-121907200D01*
X131119047Y-121907200D02*
X131214285Y-121954819D01*
X131214285Y-121954819D02*
X131309523Y-121954819D01*
X131642857Y-121954819D02*
X131642857Y-121288152D01*
X131642857Y-120954819D02*
X131595238Y-121002438D01*
X131595238Y-121002438D02*
X131642857Y-121050057D01*
X131642857Y-121050057D02*
X131690476Y-121002438D01*
X131690476Y-121002438D02*
X131642857Y-120954819D01*
X131642857Y-120954819D02*
X131642857Y-121050057D01*
X132119047Y-121288152D02*
X132119047Y-121954819D01*
X132119047Y-121383390D02*
X132166666Y-121335771D01*
X132166666Y-121335771D02*
X132261904Y-121288152D01*
X132261904Y-121288152D02*
X132404761Y-121288152D01*
X132404761Y-121288152D02*
X132499999Y-121335771D01*
X132499999Y-121335771D02*
X132547618Y-121431009D01*
X132547618Y-121431009D02*
X132547618Y-121954819D01*
X133452380Y-121288152D02*
X133452380Y-122097676D01*
X133452380Y-122097676D02*
X133404761Y-122192914D01*
X133404761Y-122192914D02*
X133357142Y-122240533D01*
X133357142Y-122240533D02*
X133261904Y-122288152D01*
X133261904Y-122288152D02*
X133119047Y-122288152D01*
X133119047Y-122288152D02*
X133023809Y-122240533D01*
X133452380Y-121907200D02*
X133357142Y-121954819D01*
X133357142Y-121954819D02*
X133166666Y-121954819D01*
X133166666Y-121954819D02*
X133071428Y-121907200D01*
X133071428Y-121907200D02*
X133023809Y-121859580D01*
X133023809Y-121859580D02*
X132976190Y-121764342D01*
X132976190Y-121764342D02*
X132976190Y-121478628D01*
X132976190Y-121478628D02*
X133023809Y-121383390D01*
X133023809Y-121383390D02*
X133071428Y-121335771D01*
X133071428Y-121335771D02*
X133166666Y-121288152D01*
X133166666Y-121288152D02*
X133357142Y-121288152D01*
X133357142Y-121288152D02*
X133452380Y-121335771D01*
X133928571Y-121954819D02*
X133928571Y-120954819D01*
X133928571Y-121431009D02*
X134499999Y-121431009D01*
X134499999Y-121954819D02*
X134499999Y-120954819D01*
X135119047Y-121954819D02*
X135023809Y-121907200D01*
X135023809Y-121907200D02*
X134976190Y-121859580D01*
X134976190Y-121859580D02*
X134928571Y-121764342D01*
X134928571Y-121764342D02*
X134928571Y-121478628D01*
X134928571Y-121478628D02*
X134976190Y-121383390D01*
X134976190Y-121383390D02*
X135023809Y-121335771D01*
X135023809Y-121335771D02*
X135119047Y-121288152D01*
X135119047Y-121288152D02*
X135261904Y-121288152D01*
X135261904Y-121288152D02*
X135357142Y-121335771D01*
X135357142Y-121335771D02*
X135404761Y-121383390D01*
X135404761Y-121383390D02*
X135452380Y-121478628D01*
X135452380Y-121478628D02*
X135452380Y-121764342D01*
X135452380Y-121764342D02*
X135404761Y-121859580D01*
X135404761Y-121859580D02*
X135357142Y-121907200D01*
X135357142Y-121907200D02*
X135261904Y-121954819D01*
X135261904Y-121954819D02*
X135119047Y-121954819D01*
X136023809Y-121954819D02*
X135928571Y-121907200D01*
X135928571Y-121907200D02*
X135880952Y-121811961D01*
X135880952Y-121811961D02*
X135880952Y-120954819D01*
X136785714Y-121907200D02*
X136690476Y-121954819D01*
X136690476Y-121954819D02*
X136500000Y-121954819D01*
X136500000Y-121954819D02*
X136404762Y-121907200D01*
X136404762Y-121907200D02*
X136357143Y-121811961D01*
X136357143Y-121811961D02*
X136357143Y-121431009D01*
X136357143Y-121431009D02*
X136404762Y-121335771D01*
X136404762Y-121335771D02*
X136500000Y-121288152D01*
X136500000Y-121288152D02*
X136690476Y-121288152D01*
X136690476Y-121288152D02*
X136785714Y-121335771D01*
X136785714Y-121335771D02*
X136833333Y-121431009D01*
X136833333Y-121431009D02*
X136833333Y-121526247D01*
X136833333Y-121526247D02*
X136357143Y-121621485D01*
X131238095Y-118454819D02*
X131238095Y-117454819D01*
X131238095Y-117931009D02*
X131809523Y-117931009D01*
X131809523Y-118454819D02*
X131809523Y-117454819D01*
X132190476Y-117454819D02*
X132809523Y-117454819D01*
X132809523Y-117454819D02*
X132476190Y-117835771D01*
X132476190Y-117835771D02*
X132619047Y-117835771D01*
X132619047Y-117835771D02*
X132714285Y-117883390D01*
X132714285Y-117883390D02*
X132761904Y-117931009D01*
X132761904Y-117931009D02*
X132809523Y-118026247D01*
X132809523Y-118026247D02*
X132809523Y-118264342D01*
X132809523Y-118264342D02*
X132761904Y-118359580D01*
X132761904Y-118359580D02*
X132714285Y-118407200D01*
X132714285Y-118407200D02*
X132619047Y-118454819D01*
X132619047Y-118454819D02*
X132333333Y-118454819D01*
X132333333Y-118454819D02*
X132238095Y-118407200D01*
X132238095Y-118407200D02*
X132190476Y-118359580D01*
X135304819Y-95028571D02*
X135304819Y-94838095D01*
X135304819Y-94838095D02*
X135352438Y-94742857D01*
X135352438Y-94742857D02*
X135447676Y-94647619D01*
X135447676Y-94647619D02*
X135638152Y-94600000D01*
X135638152Y-94600000D02*
X135971485Y-94600000D01*
X135971485Y-94600000D02*
X136161961Y-94647619D01*
X136161961Y-94647619D02*
X136257200Y-94742857D01*
X136257200Y-94742857D02*
X136304819Y-94838095D01*
X136304819Y-94838095D02*
X136304819Y-95028571D01*
X136304819Y-95028571D02*
X136257200Y-95123809D01*
X136257200Y-95123809D02*
X136161961Y-95219047D01*
X136161961Y-95219047D02*
X135971485Y-95266666D01*
X135971485Y-95266666D02*
X135638152Y-95266666D01*
X135638152Y-95266666D02*
X135447676Y-95219047D01*
X135447676Y-95219047D02*
X135352438Y-95123809D01*
X135352438Y-95123809D02*
X135304819Y-95028571D01*
X136304819Y-94171428D02*
X135304819Y-94171428D01*
X135304819Y-94171428D02*
X135304819Y-93790476D01*
X135304819Y-93790476D02*
X135352438Y-93695238D01*
X135352438Y-93695238D02*
X135400057Y-93647619D01*
X135400057Y-93647619D02*
X135495295Y-93600000D01*
X135495295Y-93600000D02*
X135638152Y-93600000D01*
X135638152Y-93600000D02*
X135733390Y-93647619D01*
X135733390Y-93647619D02*
X135781009Y-93695238D01*
X135781009Y-93695238D02*
X135828628Y-93790476D01*
X135828628Y-93790476D02*
X135828628Y-94171428D01*
X136019104Y-93219047D02*
X136019104Y-92742857D01*
X136304819Y-93314285D02*
X135304819Y-92980952D01*
X135304819Y-92980952D02*
X136304819Y-92647619D01*
X135638152Y-91885714D02*
X136304819Y-91885714D01*
X135257200Y-92123809D02*
X135971485Y-92361904D01*
X135971485Y-92361904D02*
X135971485Y-91742857D01*
X135304819Y-91457142D02*
X135304819Y-90838095D01*
X135304819Y-90838095D02*
X135685771Y-91171428D01*
X135685771Y-91171428D02*
X135685771Y-91028571D01*
X135685771Y-91028571D02*
X135733390Y-90933333D01*
X135733390Y-90933333D02*
X135781009Y-90885714D01*
X135781009Y-90885714D02*
X135876247Y-90838095D01*
X135876247Y-90838095D02*
X136114342Y-90838095D01*
X136114342Y-90838095D02*
X136209580Y-90885714D01*
X136209580Y-90885714D02*
X136257200Y-90933333D01*
X136257200Y-90933333D02*
X136304819Y-91028571D01*
X136304819Y-91028571D02*
X136304819Y-91314285D01*
X136304819Y-91314285D02*
X136257200Y-91409523D01*
X136257200Y-91409523D02*
X136209580Y-91457142D01*
X135304819Y-90504761D02*
X135304819Y-89885714D01*
X135304819Y-89885714D02*
X135685771Y-90219047D01*
X135685771Y-90219047D02*
X135685771Y-90076190D01*
X135685771Y-90076190D02*
X135733390Y-89980952D01*
X135733390Y-89980952D02*
X135781009Y-89933333D01*
X135781009Y-89933333D02*
X135876247Y-89885714D01*
X135876247Y-89885714D02*
X136114342Y-89885714D01*
X136114342Y-89885714D02*
X136209580Y-89933333D01*
X136209580Y-89933333D02*
X136257200Y-89980952D01*
X136257200Y-89980952D02*
X136304819Y-90076190D01*
X136304819Y-90076190D02*
X136304819Y-90361904D01*
X136304819Y-90361904D02*
X136257200Y-90457142D01*
X136257200Y-90457142D02*
X136209580Y-90504761D01*
X135304819Y-89266666D02*
X135304819Y-89171428D01*
X135304819Y-89171428D02*
X135352438Y-89076190D01*
X135352438Y-89076190D02*
X135400057Y-89028571D01*
X135400057Y-89028571D02*
X135495295Y-88980952D01*
X135495295Y-88980952D02*
X135685771Y-88933333D01*
X135685771Y-88933333D02*
X135923866Y-88933333D01*
X135923866Y-88933333D02*
X136114342Y-88980952D01*
X136114342Y-88980952D02*
X136209580Y-89028571D01*
X136209580Y-89028571D02*
X136257200Y-89076190D01*
X136257200Y-89076190D02*
X136304819Y-89171428D01*
X136304819Y-89171428D02*
X136304819Y-89266666D01*
X136304819Y-89266666D02*
X136257200Y-89361904D01*
X136257200Y-89361904D02*
X136209580Y-89409523D01*
X136209580Y-89409523D02*
X136114342Y-89457142D01*
X136114342Y-89457142D02*
X135923866Y-89504761D01*
X135923866Y-89504761D02*
X135685771Y-89504761D01*
X135685771Y-89504761D02*
X135495295Y-89457142D01*
X135495295Y-89457142D02*
X135400057Y-89409523D01*
X135400057Y-89409523D02*
X135352438Y-89361904D01*
X135352438Y-89361904D02*
X135304819Y-89266666D01*
D12*
X138665935Y-92709523D02*
X139313554Y-92709523D01*
X139313554Y-92709523D02*
X139389744Y-92671428D01*
X139389744Y-92671428D02*
X139427840Y-92633333D01*
X139427840Y-92633333D02*
X139465935Y-92557142D01*
X139465935Y-92557142D02*
X139465935Y-92404761D01*
X139465935Y-92404761D02*
X139427840Y-92328571D01*
X139427840Y-92328571D02*
X139389744Y-92290476D01*
X139389744Y-92290476D02*
X139313554Y-92252380D01*
X139313554Y-92252380D02*
X138665935Y-92252380D01*
X138665935Y-91947619D02*
X138665935Y-91452381D01*
X138665935Y-91452381D02*
X138970697Y-91719047D01*
X138970697Y-91719047D02*
X138970697Y-91604762D01*
X138970697Y-91604762D02*
X139008792Y-91528571D01*
X139008792Y-91528571D02*
X139046887Y-91490476D01*
X139046887Y-91490476D02*
X139123078Y-91452381D01*
X139123078Y-91452381D02*
X139313554Y-91452381D01*
X139313554Y-91452381D02*
X139389744Y-91490476D01*
X139389744Y-91490476D02*
X139427840Y-91528571D01*
X139427840Y-91528571D02*
X139465935Y-91604762D01*
X139465935Y-91604762D02*
X139465935Y-91833333D01*
X139465935Y-91833333D02*
X139427840Y-91909524D01*
X139427840Y-91909524D02*
X139389744Y-91947619D01*
D10*
X151804819Y-83819047D02*
X151804819Y-84390475D01*
X151804819Y-84104761D02*
X150804819Y-84104761D01*
X150804819Y-84104761D02*
X150947676Y-84199999D01*
X150947676Y-84199999D02*
X151042914Y-84295237D01*
X151042914Y-84295237D02*
X151090533Y-84390475D01*
X150804819Y-83199999D02*
X150804819Y-83104761D01*
X150804819Y-83104761D02*
X150852438Y-83009523D01*
X150852438Y-83009523D02*
X150900057Y-82961904D01*
X150900057Y-82961904D02*
X150995295Y-82914285D01*
X150995295Y-82914285D02*
X151185771Y-82866666D01*
X151185771Y-82866666D02*
X151423866Y-82866666D01*
X151423866Y-82866666D02*
X151614342Y-82914285D01*
X151614342Y-82914285D02*
X151709580Y-82961904D01*
X151709580Y-82961904D02*
X151757200Y-83009523D01*
X151757200Y-83009523D02*
X151804819Y-83104761D01*
X151804819Y-83104761D02*
X151804819Y-83199999D01*
X151804819Y-83199999D02*
X151757200Y-83295237D01*
X151757200Y-83295237D02*
X151709580Y-83342856D01*
X151709580Y-83342856D02*
X151614342Y-83390475D01*
X151614342Y-83390475D02*
X151423866Y-83438094D01*
X151423866Y-83438094D02*
X151185771Y-83438094D01*
X151185771Y-83438094D02*
X150995295Y-83390475D01*
X150995295Y-83390475D02*
X150900057Y-83342856D01*
X150900057Y-83342856D02*
X150852438Y-83295237D01*
X150852438Y-83295237D02*
X150804819Y-83199999D01*
X150804819Y-82247618D02*
X150804819Y-82152380D01*
X150804819Y-82152380D02*
X150852438Y-82057142D01*
X150852438Y-82057142D02*
X150900057Y-82009523D01*
X150900057Y-82009523D02*
X150995295Y-81961904D01*
X150995295Y-81961904D02*
X151185771Y-81914285D01*
X151185771Y-81914285D02*
X151423866Y-81914285D01*
X151423866Y-81914285D02*
X151614342Y-81961904D01*
X151614342Y-81961904D02*
X151709580Y-82009523D01*
X151709580Y-82009523D02*
X151757200Y-82057142D01*
X151757200Y-82057142D02*
X151804819Y-82152380D01*
X151804819Y-82152380D02*
X151804819Y-82247618D01*
X151804819Y-82247618D02*
X151757200Y-82342856D01*
X151757200Y-82342856D02*
X151709580Y-82390475D01*
X151709580Y-82390475D02*
X151614342Y-82438094D01*
X151614342Y-82438094D02*
X151423866Y-82485713D01*
X151423866Y-82485713D02*
X151185771Y-82485713D01*
X151185771Y-82485713D02*
X150995295Y-82438094D01*
X150995295Y-82438094D02*
X150900057Y-82390475D01*
X150900057Y-82390475D02*
X150852438Y-82342856D01*
X150852438Y-82342856D02*
X150804819Y-82247618D01*
X151138152Y-81485713D02*
X151804819Y-81485713D01*
X151233390Y-81485713D02*
X151185771Y-81438094D01*
X151185771Y-81438094D02*
X151138152Y-81342856D01*
X151138152Y-81342856D02*
X151138152Y-81199999D01*
X151138152Y-81199999D02*
X151185771Y-81104761D01*
X151185771Y-81104761D02*
X151281009Y-81057142D01*
X151281009Y-81057142D02*
X151804819Y-81057142D01*
D11*
X149709765Y-82860714D02*
X149721670Y-82872618D01*
X149721670Y-82872618D02*
X149733574Y-82908333D01*
X149733574Y-82908333D02*
X149733574Y-82932142D01*
X149733574Y-82932142D02*
X149721670Y-82967856D01*
X149721670Y-82967856D02*
X149697860Y-82991666D01*
X149697860Y-82991666D02*
X149674050Y-83003571D01*
X149674050Y-83003571D02*
X149626431Y-83015475D01*
X149626431Y-83015475D02*
X149590717Y-83015475D01*
X149590717Y-83015475D02*
X149543098Y-83003571D01*
X149543098Y-83003571D02*
X149519289Y-82991666D01*
X149519289Y-82991666D02*
X149495479Y-82967856D01*
X149495479Y-82967856D02*
X149483574Y-82932142D01*
X149483574Y-82932142D02*
X149483574Y-82908333D01*
X149483574Y-82908333D02*
X149495479Y-82872618D01*
X149495479Y-82872618D02*
X149507384Y-82860714D01*
X149507384Y-82765475D02*
X149495479Y-82753571D01*
X149495479Y-82753571D02*
X149483574Y-82729761D01*
X149483574Y-82729761D02*
X149483574Y-82670237D01*
X149483574Y-82670237D02*
X149495479Y-82646428D01*
X149495479Y-82646428D02*
X149507384Y-82634523D01*
X149507384Y-82634523D02*
X149531193Y-82622618D01*
X149531193Y-82622618D02*
X149555003Y-82622618D01*
X149555003Y-82622618D02*
X149590717Y-82634523D01*
X149590717Y-82634523D02*
X149733574Y-82777380D01*
X149733574Y-82777380D02*
X149733574Y-82622618D01*
X149507384Y-82527380D02*
X149495479Y-82515476D01*
X149495479Y-82515476D02*
X149483574Y-82491666D01*
X149483574Y-82491666D02*
X149483574Y-82432142D01*
X149483574Y-82432142D02*
X149495479Y-82408333D01*
X149495479Y-82408333D02*
X149507384Y-82396428D01*
X149507384Y-82396428D02*
X149531193Y-82384523D01*
X149531193Y-82384523D02*
X149555003Y-82384523D01*
X149555003Y-82384523D02*
X149590717Y-82396428D01*
X149590717Y-82396428D02*
X149733574Y-82539285D01*
X149733574Y-82539285D02*
X149733574Y-82384523D01*
D10*
X128809580Y-100766667D02*
X128857200Y-100814286D01*
X128857200Y-100814286D02*
X128904819Y-100957143D01*
X128904819Y-100957143D02*
X128904819Y-101052381D01*
X128904819Y-101052381D02*
X128857200Y-101195238D01*
X128857200Y-101195238D02*
X128761961Y-101290476D01*
X128761961Y-101290476D02*
X128666723Y-101338095D01*
X128666723Y-101338095D02*
X128476247Y-101385714D01*
X128476247Y-101385714D02*
X128333390Y-101385714D01*
X128333390Y-101385714D02*
X128142914Y-101338095D01*
X128142914Y-101338095D02*
X128047676Y-101290476D01*
X128047676Y-101290476D02*
X127952438Y-101195238D01*
X127952438Y-101195238D02*
X127904819Y-101052381D01*
X127904819Y-101052381D02*
X127904819Y-100957143D01*
X127904819Y-100957143D02*
X127952438Y-100814286D01*
X127952438Y-100814286D02*
X128000057Y-100766667D01*
X128904819Y-100195238D02*
X128857200Y-100290476D01*
X128857200Y-100290476D02*
X128809580Y-100338095D01*
X128809580Y-100338095D02*
X128714342Y-100385714D01*
X128714342Y-100385714D02*
X128428628Y-100385714D01*
X128428628Y-100385714D02*
X128333390Y-100338095D01*
X128333390Y-100338095D02*
X128285771Y-100290476D01*
X128285771Y-100290476D02*
X128238152Y-100195238D01*
X128238152Y-100195238D02*
X128238152Y-100052381D01*
X128238152Y-100052381D02*
X128285771Y-99957143D01*
X128285771Y-99957143D02*
X128333390Y-99909524D01*
X128333390Y-99909524D02*
X128428628Y-99861905D01*
X128428628Y-99861905D02*
X128714342Y-99861905D01*
X128714342Y-99861905D02*
X128809580Y-99909524D01*
X128809580Y-99909524D02*
X128857200Y-99957143D01*
X128857200Y-99957143D02*
X128904819Y-100052381D01*
X128904819Y-100052381D02*
X128904819Y-100195238D01*
X128238152Y-99433333D02*
X128904819Y-99433333D01*
X128333390Y-99433333D02*
X128285771Y-99385714D01*
X128285771Y-99385714D02*
X128238152Y-99290476D01*
X128238152Y-99290476D02*
X128238152Y-99147619D01*
X128238152Y-99147619D02*
X128285771Y-99052381D01*
X128285771Y-99052381D02*
X128381009Y-99004762D01*
X128381009Y-99004762D02*
X128904819Y-99004762D01*
X128238152Y-98528571D02*
X128904819Y-98528571D01*
X128333390Y-98528571D02*
X128285771Y-98480952D01*
X128285771Y-98480952D02*
X128238152Y-98385714D01*
X128238152Y-98385714D02*
X128238152Y-98242857D01*
X128238152Y-98242857D02*
X128285771Y-98147619D01*
X128285771Y-98147619D02*
X128381009Y-98100000D01*
X128381009Y-98100000D02*
X128904819Y-98100000D01*
X129000057Y-97861905D02*
X129000057Y-97100000D01*
X127904819Y-96671428D02*
X127904819Y-96576190D01*
X127904819Y-96576190D02*
X127952438Y-96480952D01*
X127952438Y-96480952D02*
X128000057Y-96433333D01*
X128000057Y-96433333D02*
X128095295Y-96385714D01*
X128095295Y-96385714D02*
X128285771Y-96338095D01*
X128285771Y-96338095D02*
X128523866Y-96338095D01*
X128523866Y-96338095D02*
X128714342Y-96385714D01*
X128714342Y-96385714D02*
X128809580Y-96433333D01*
X128809580Y-96433333D02*
X128857200Y-96480952D01*
X128857200Y-96480952D02*
X128904819Y-96576190D01*
X128904819Y-96576190D02*
X128904819Y-96671428D01*
X128904819Y-96671428D02*
X128857200Y-96766666D01*
X128857200Y-96766666D02*
X128809580Y-96814285D01*
X128809580Y-96814285D02*
X128714342Y-96861904D01*
X128714342Y-96861904D02*
X128523866Y-96909523D01*
X128523866Y-96909523D02*
X128285771Y-96909523D01*
X128285771Y-96909523D02*
X128095295Y-96861904D01*
X128095295Y-96861904D02*
X128000057Y-96814285D01*
X128000057Y-96814285D02*
X127952438Y-96766666D01*
X127952438Y-96766666D02*
X127904819Y-96671428D01*
X128904819Y-95385714D02*
X128904819Y-95957142D01*
X128904819Y-95671428D02*
X127904819Y-95671428D01*
X127904819Y-95671428D02*
X128047676Y-95766666D01*
X128047676Y-95766666D02*
X128142914Y-95861904D01*
X128142914Y-95861904D02*
X128190533Y-95957142D01*
X128904819Y-95052380D02*
X128238152Y-94528571D01*
X128238152Y-95052380D02*
X128904819Y-94528571D01*
X127904819Y-93957142D02*
X127904819Y-93861904D01*
X127904819Y-93861904D02*
X127952438Y-93766666D01*
X127952438Y-93766666D02*
X128000057Y-93719047D01*
X128000057Y-93719047D02*
X128095295Y-93671428D01*
X128095295Y-93671428D02*
X128285771Y-93623809D01*
X128285771Y-93623809D02*
X128523866Y-93623809D01*
X128523866Y-93623809D02*
X128714342Y-93671428D01*
X128714342Y-93671428D02*
X128809580Y-93719047D01*
X128809580Y-93719047D02*
X128857200Y-93766666D01*
X128857200Y-93766666D02*
X128904819Y-93861904D01*
X128904819Y-93861904D02*
X128904819Y-93957142D01*
X128904819Y-93957142D02*
X128857200Y-94052380D01*
X128857200Y-94052380D02*
X128809580Y-94099999D01*
X128809580Y-94099999D02*
X128714342Y-94147618D01*
X128714342Y-94147618D02*
X128523866Y-94195237D01*
X128523866Y-94195237D02*
X128285771Y-94195237D01*
X128285771Y-94195237D02*
X128095295Y-94147618D01*
X128095295Y-94147618D02*
X128000057Y-94099999D01*
X128000057Y-94099999D02*
X127952438Y-94052380D01*
X127952438Y-94052380D02*
X127904819Y-93957142D01*
X128333390Y-93052380D02*
X128285771Y-93147618D01*
X128285771Y-93147618D02*
X128238152Y-93195237D01*
X128238152Y-93195237D02*
X128142914Y-93242856D01*
X128142914Y-93242856D02*
X128095295Y-93242856D01*
X128095295Y-93242856D02*
X128000057Y-93195237D01*
X128000057Y-93195237D02*
X127952438Y-93147618D01*
X127952438Y-93147618D02*
X127904819Y-93052380D01*
X127904819Y-93052380D02*
X127904819Y-92861904D01*
X127904819Y-92861904D02*
X127952438Y-92766666D01*
X127952438Y-92766666D02*
X128000057Y-92719047D01*
X128000057Y-92719047D02*
X128095295Y-92671428D01*
X128095295Y-92671428D02*
X128142914Y-92671428D01*
X128142914Y-92671428D02*
X128238152Y-92719047D01*
X128238152Y-92719047D02*
X128285771Y-92766666D01*
X128285771Y-92766666D02*
X128333390Y-92861904D01*
X128333390Y-92861904D02*
X128333390Y-93052380D01*
X128333390Y-93052380D02*
X128381009Y-93147618D01*
X128381009Y-93147618D02*
X128428628Y-93195237D01*
X128428628Y-93195237D02*
X128523866Y-93242856D01*
X128523866Y-93242856D02*
X128714342Y-93242856D01*
X128714342Y-93242856D02*
X128809580Y-93195237D01*
X128809580Y-93195237D02*
X128857200Y-93147618D01*
X128857200Y-93147618D02*
X128904819Y-93052380D01*
X128904819Y-93052380D02*
X128904819Y-92861904D01*
X128904819Y-92861904D02*
X128857200Y-92766666D01*
X128857200Y-92766666D02*
X128809580Y-92719047D01*
X128809580Y-92719047D02*
X128714342Y-92671428D01*
X128714342Y-92671428D02*
X128523866Y-92671428D01*
X128523866Y-92671428D02*
X128428628Y-92719047D01*
X128428628Y-92719047D02*
X128381009Y-92766666D01*
X128381009Y-92766666D02*
X128333390Y-92861904D01*
X129000057Y-92480952D02*
X129000057Y-91719047D01*
X128904819Y-91480951D02*
X127904819Y-91480951D01*
X127904819Y-91480951D02*
X128619104Y-91147618D01*
X128619104Y-91147618D02*
X127904819Y-90814285D01*
X127904819Y-90814285D02*
X128904819Y-90814285D01*
X128904819Y-90195237D02*
X128857200Y-90290475D01*
X128857200Y-90290475D02*
X128809580Y-90338094D01*
X128809580Y-90338094D02*
X128714342Y-90385713D01*
X128714342Y-90385713D02*
X128428628Y-90385713D01*
X128428628Y-90385713D02*
X128333390Y-90338094D01*
X128333390Y-90338094D02*
X128285771Y-90290475D01*
X128285771Y-90290475D02*
X128238152Y-90195237D01*
X128238152Y-90195237D02*
X128238152Y-90052380D01*
X128238152Y-90052380D02*
X128285771Y-89957142D01*
X128285771Y-89957142D02*
X128333390Y-89909523D01*
X128333390Y-89909523D02*
X128428628Y-89861904D01*
X128428628Y-89861904D02*
X128714342Y-89861904D01*
X128714342Y-89861904D02*
X128809580Y-89909523D01*
X128809580Y-89909523D02*
X128857200Y-89957142D01*
X128857200Y-89957142D02*
X128904819Y-90052380D01*
X128904819Y-90052380D02*
X128904819Y-90195237D01*
X128238152Y-89004761D02*
X128904819Y-89004761D01*
X128238152Y-89433332D02*
X128761961Y-89433332D01*
X128761961Y-89433332D02*
X128857200Y-89385713D01*
X128857200Y-89385713D02*
X128904819Y-89290475D01*
X128904819Y-89290475D02*
X128904819Y-89147618D01*
X128904819Y-89147618D02*
X128857200Y-89052380D01*
X128857200Y-89052380D02*
X128809580Y-89004761D01*
X128238152Y-88528570D02*
X128904819Y-88528570D01*
X128333390Y-88528570D02*
X128285771Y-88480951D01*
X128285771Y-88480951D02*
X128238152Y-88385713D01*
X128238152Y-88385713D02*
X128238152Y-88242856D01*
X128238152Y-88242856D02*
X128285771Y-88147618D01*
X128285771Y-88147618D02*
X128381009Y-88099999D01*
X128381009Y-88099999D02*
X128904819Y-88099999D01*
X128238152Y-87766665D02*
X128238152Y-87385713D01*
X127904819Y-87623808D02*
X128761961Y-87623808D01*
X128761961Y-87623808D02*
X128857200Y-87576189D01*
X128857200Y-87576189D02*
X128904819Y-87480951D01*
X128904819Y-87480951D02*
X128904819Y-87385713D01*
X128904819Y-87052379D02*
X128238152Y-87052379D01*
X127904819Y-87052379D02*
X127952438Y-87099998D01*
X127952438Y-87099998D02*
X128000057Y-87052379D01*
X128000057Y-87052379D02*
X127952438Y-87004760D01*
X127952438Y-87004760D02*
X127904819Y-87052379D01*
X127904819Y-87052379D02*
X128000057Y-87052379D01*
X128238152Y-86576189D02*
X128904819Y-86576189D01*
X128333390Y-86576189D02*
X128285771Y-86528570D01*
X128285771Y-86528570D02*
X128238152Y-86433332D01*
X128238152Y-86433332D02*
X128238152Y-86290475D01*
X128238152Y-86290475D02*
X128285771Y-86195237D01*
X128285771Y-86195237D02*
X128381009Y-86147618D01*
X128381009Y-86147618D02*
X128904819Y-86147618D01*
X128238152Y-85242856D02*
X129047676Y-85242856D01*
X129047676Y-85242856D02*
X129142914Y-85290475D01*
X129142914Y-85290475D02*
X129190533Y-85338094D01*
X129190533Y-85338094D02*
X129238152Y-85433332D01*
X129238152Y-85433332D02*
X129238152Y-85576189D01*
X129238152Y-85576189D02*
X129190533Y-85671427D01*
X128857200Y-85242856D02*
X128904819Y-85338094D01*
X128904819Y-85338094D02*
X128904819Y-85528570D01*
X128904819Y-85528570D02*
X128857200Y-85623808D01*
X128857200Y-85623808D02*
X128809580Y-85671427D01*
X128809580Y-85671427D02*
X128714342Y-85719046D01*
X128714342Y-85719046D02*
X128428628Y-85719046D01*
X128428628Y-85719046D02*
X128333390Y-85671427D01*
X128333390Y-85671427D02*
X128285771Y-85623808D01*
X128285771Y-85623808D02*
X128238152Y-85528570D01*
X128238152Y-85528570D02*
X128238152Y-85338094D01*
X128238152Y-85338094D02*
X128285771Y-85242856D01*
X128904819Y-84766665D02*
X127904819Y-84766665D01*
X127904819Y-84766665D02*
X127904819Y-84385713D01*
X127904819Y-84385713D02*
X127952438Y-84290475D01*
X127952438Y-84290475D02*
X128000057Y-84242856D01*
X128000057Y-84242856D02*
X128095295Y-84195237D01*
X128095295Y-84195237D02*
X128238152Y-84195237D01*
X128238152Y-84195237D02*
X128333390Y-84242856D01*
X128333390Y-84242856D02*
X128381009Y-84290475D01*
X128381009Y-84290475D02*
X128428628Y-84385713D01*
X128428628Y-84385713D02*
X128428628Y-84766665D01*
X128904819Y-83766665D02*
X128238152Y-83766665D01*
X127904819Y-83766665D02*
X127952438Y-83814284D01*
X127952438Y-83814284D02*
X128000057Y-83766665D01*
X128000057Y-83766665D02*
X127952438Y-83719046D01*
X127952438Y-83719046D02*
X127904819Y-83766665D01*
X127904819Y-83766665D02*
X128000057Y-83766665D01*
X128238152Y-83290475D02*
X128904819Y-83290475D01*
X128333390Y-83290475D02*
X128285771Y-83242856D01*
X128285771Y-83242856D02*
X128238152Y-83147618D01*
X128238152Y-83147618D02*
X128238152Y-83004761D01*
X128238152Y-83004761D02*
X128285771Y-82909523D01*
X128285771Y-82909523D02*
X128381009Y-82861904D01*
X128381009Y-82861904D02*
X128904819Y-82861904D01*
X131804819Y-92433333D02*
X132519104Y-92433333D01*
X132519104Y-92433333D02*
X132661961Y-92480952D01*
X132661961Y-92480952D02*
X132757200Y-92576190D01*
X132757200Y-92576190D02*
X132804819Y-92719047D01*
X132804819Y-92719047D02*
X132804819Y-92814285D01*
X131804819Y-92052380D02*
X131804819Y-91433333D01*
X131804819Y-91433333D02*
X132185771Y-91766666D01*
X132185771Y-91766666D02*
X132185771Y-91623809D01*
X132185771Y-91623809D02*
X132233390Y-91528571D01*
X132233390Y-91528571D02*
X132281009Y-91480952D01*
X132281009Y-91480952D02*
X132376247Y-91433333D01*
X132376247Y-91433333D02*
X132614342Y-91433333D01*
X132614342Y-91433333D02*
X132709580Y-91480952D01*
X132709580Y-91480952D02*
X132757200Y-91528571D01*
X132757200Y-91528571D02*
X132804819Y-91623809D01*
X132804819Y-91623809D02*
X132804819Y-91909523D01*
X132804819Y-91909523D02*
X132757200Y-92004761D01*
X132757200Y-92004761D02*
X132709580Y-92052380D01*
X137302319Y-102940475D02*
X137302319Y-102321428D01*
X137302319Y-102321428D02*
X137683271Y-102654761D01*
X137683271Y-102654761D02*
X137683271Y-102511904D01*
X137683271Y-102511904D02*
X137730890Y-102416666D01*
X137730890Y-102416666D02*
X137778509Y-102369047D01*
X137778509Y-102369047D02*
X137873747Y-102321428D01*
X137873747Y-102321428D02*
X138111842Y-102321428D01*
X138111842Y-102321428D02*
X138207080Y-102369047D01*
X138207080Y-102369047D02*
X138254700Y-102416666D01*
X138254700Y-102416666D02*
X138302319Y-102511904D01*
X138302319Y-102511904D02*
X138302319Y-102797618D01*
X138302319Y-102797618D02*
X138254700Y-102892856D01*
X138254700Y-102892856D02*
X138207080Y-102940475D01*
X137397557Y-101940475D02*
X137349938Y-101892856D01*
X137349938Y-101892856D02*
X137302319Y-101797618D01*
X137302319Y-101797618D02*
X137302319Y-101559523D01*
X137302319Y-101559523D02*
X137349938Y-101464285D01*
X137349938Y-101464285D02*
X137397557Y-101416666D01*
X137397557Y-101416666D02*
X137492795Y-101369047D01*
X137492795Y-101369047D02*
X137588033Y-101369047D01*
X137588033Y-101369047D02*
X137730890Y-101416666D01*
X137730890Y-101416666D02*
X138302319Y-101988094D01*
X138302319Y-101988094D02*
X138302319Y-101369047D01*
X138207080Y-100940475D02*
X138254700Y-100892856D01*
X138254700Y-100892856D02*
X138302319Y-100940475D01*
X138302319Y-100940475D02*
X138254700Y-100988094D01*
X138254700Y-100988094D02*
X138207080Y-100940475D01*
X138207080Y-100940475D02*
X138302319Y-100940475D01*
X137302319Y-100559523D02*
X137302319Y-99892857D01*
X137302319Y-99892857D02*
X138302319Y-100321428D01*
X137302319Y-99083333D02*
X137302319Y-99273809D01*
X137302319Y-99273809D02*
X137349938Y-99369047D01*
X137349938Y-99369047D02*
X137397557Y-99416666D01*
X137397557Y-99416666D02*
X137540414Y-99511904D01*
X137540414Y-99511904D02*
X137730890Y-99559523D01*
X137730890Y-99559523D02*
X138111842Y-99559523D01*
X138111842Y-99559523D02*
X138207080Y-99511904D01*
X138207080Y-99511904D02*
X138254700Y-99464285D01*
X138254700Y-99464285D02*
X138302319Y-99369047D01*
X138302319Y-99369047D02*
X138302319Y-99178571D01*
X138302319Y-99178571D02*
X138254700Y-99083333D01*
X138254700Y-99083333D02*
X138207080Y-99035714D01*
X138207080Y-99035714D02*
X138111842Y-98988095D01*
X138111842Y-98988095D02*
X137873747Y-98988095D01*
X137873747Y-98988095D02*
X137778509Y-99035714D01*
X137778509Y-99035714D02*
X137730890Y-99083333D01*
X137730890Y-99083333D02*
X137683271Y-99178571D01*
X137683271Y-99178571D02*
X137683271Y-99369047D01*
X137683271Y-99369047D02*
X137730890Y-99464285D01*
X137730890Y-99464285D02*
X137778509Y-99511904D01*
X137778509Y-99511904D02*
X137873747Y-99559523D01*
X137730890Y-98416666D02*
X137683271Y-98511904D01*
X137683271Y-98511904D02*
X137635652Y-98559523D01*
X137635652Y-98559523D02*
X137540414Y-98607142D01*
X137540414Y-98607142D02*
X137492795Y-98607142D01*
X137492795Y-98607142D02*
X137397557Y-98559523D01*
X137397557Y-98559523D02*
X137349938Y-98511904D01*
X137349938Y-98511904D02*
X137302319Y-98416666D01*
X137302319Y-98416666D02*
X137302319Y-98226190D01*
X137302319Y-98226190D02*
X137349938Y-98130952D01*
X137349938Y-98130952D02*
X137397557Y-98083333D01*
X137397557Y-98083333D02*
X137492795Y-98035714D01*
X137492795Y-98035714D02*
X137540414Y-98035714D01*
X137540414Y-98035714D02*
X137635652Y-98083333D01*
X137635652Y-98083333D02*
X137683271Y-98130952D01*
X137683271Y-98130952D02*
X137730890Y-98226190D01*
X137730890Y-98226190D02*
X137730890Y-98416666D01*
X137730890Y-98416666D02*
X137778509Y-98511904D01*
X137778509Y-98511904D02*
X137826128Y-98559523D01*
X137826128Y-98559523D02*
X137921366Y-98607142D01*
X137921366Y-98607142D02*
X138111842Y-98607142D01*
X138111842Y-98607142D02*
X138207080Y-98559523D01*
X138207080Y-98559523D02*
X138254700Y-98511904D01*
X138254700Y-98511904D02*
X138302319Y-98416666D01*
X138302319Y-98416666D02*
X138302319Y-98226190D01*
X138302319Y-98226190D02*
X138254700Y-98130952D01*
X138254700Y-98130952D02*
X138207080Y-98083333D01*
X138207080Y-98083333D02*
X138111842Y-98035714D01*
X138111842Y-98035714D02*
X137921366Y-98035714D01*
X137921366Y-98035714D02*
X137826128Y-98083333D01*
X137826128Y-98083333D02*
X137778509Y-98130952D01*
X137778509Y-98130952D02*
X137730890Y-98226190D01*
X138302319Y-96845237D02*
X137302319Y-96845237D01*
X137921366Y-96749999D02*
X138302319Y-96464285D01*
X137635652Y-96464285D02*
X138016604Y-96845237D01*
X138302319Y-96035713D02*
X137302319Y-96035713D01*
X137778509Y-96035713D02*
X137778509Y-95464285D01*
X138302319Y-95464285D02*
X137302319Y-95464285D01*
X137635652Y-95083332D02*
X137635652Y-94559523D01*
X137635652Y-94559523D02*
X138302319Y-95083332D01*
X138302319Y-95083332D02*
X138302319Y-94559523D01*
D15*
X139782540Y-99083333D02*
X140115873Y-99083333D01*
X139415873Y-99316666D02*
X139782540Y-99083333D01*
X139782540Y-99083333D02*
X139415873Y-98849999D01*
X139482540Y-98649999D02*
X139449206Y-98616666D01*
X139449206Y-98616666D02*
X139415873Y-98549999D01*
X139415873Y-98549999D02*
X139415873Y-98383333D01*
X139415873Y-98383333D02*
X139449206Y-98316666D01*
X139449206Y-98316666D02*
X139482540Y-98283333D01*
X139482540Y-98283333D02*
X139549206Y-98249999D01*
X139549206Y-98249999D02*
X139615873Y-98249999D01*
X139615873Y-98249999D02*
X139715873Y-98283333D01*
X139715873Y-98283333D02*
X140115873Y-98683333D01*
X140115873Y-98683333D02*
X140115873Y-98249999D01*
D10*
X142138152Y-84960476D02*
X142804819Y-84960476D01*
X141757200Y-85198571D02*
X142471485Y-85436666D01*
X142471485Y-85436666D02*
X142471485Y-84817619D01*
X142804819Y-84436666D02*
X141804819Y-84436666D01*
X142423866Y-84341428D02*
X142804819Y-84055714D01*
X142138152Y-84055714D02*
X142519104Y-84436666D01*
X141804819Y-83722380D02*
X141804819Y-83055714D01*
X141804819Y-83055714D02*
X142804819Y-83484285D01*
D11*
X140733574Y-84430714D02*
X140614527Y-84514047D01*
X140733574Y-84573571D02*
X140483574Y-84573571D01*
X140483574Y-84573571D02*
X140483574Y-84478333D01*
X140483574Y-84478333D02*
X140495479Y-84454523D01*
X140495479Y-84454523D02*
X140507384Y-84442618D01*
X140507384Y-84442618D02*
X140531193Y-84430714D01*
X140531193Y-84430714D02*
X140566908Y-84430714D01*
X140566908Y-84430714D02*
X140590717Y-84442618D01*
X140590717Y-84442618D02*
X140602622Y-84454523D01*
X140602622Y-84454523D02*
X140614527Y-84478333D01*
X140614527Y-84478333D02*
X140614527Y-84573571D01*
X140507384Y-84335475D02*
X140495479Y-84323571D01*
X140495479Y-84323571D02*
X140483574Y-84299761D01*
X140483574Y-84299761D02*
X140483574Y-84240237D01*
X140483574Y-84240237D02*
X140495479Y-84216428D01*
X140495479Y-84216428D02*
X140507384Y-84204523D01*
X140507384Y-84204523D02*
X140531193Y-84192618D01*
X140531193Y-84192618D02*
X140555003Y-84192618D01*
X140555003Y-84192618D02*
X140590717Y-84204523D01*
X140590717Y-84204523D02*
X140733574Y-84347380D01*
X140733574Y-84347380D02*
X140733574Y-84192618D01*
X140483574Y-84037857D02*
X140483574Y-84014047D01*
X140483574Y-84014047D02*
X140495479Y-83990238D01*
X140495479Y-83990238D02*
X140507384Y-83978333D01*
X140507384Y-83978333D02*
X140531193Y-83966428D01*
X140531193Y-83966428D02*
X140578812Y-83954523D01*
X140578812Y-83954523D02*
X140638336Y-83954523D01*
X140638336Y-83954523D02*
X140685955Y-83966428D01*
X140685955Y-83966428D02*
X140709765Y-83978333D01*
X140709765Y-83978333D02*
X140721670Y-83990238D01*
X140721670Y-83990238D02*
X140733574Y-84014047D01*
X140733574Y-84014047D02*
X140733574Y-84037857D01*
X140733574Y-84037857D02*
X140721670Y-84061666D01*
X140721670Y-84061666D02*
X140709765Y-84073571D01*
X140709765Y-84073571D02*
X140685955Y-84085476D01*
X140685955Y-84085476D02*
X140638336Y-84097380D01*
X140638336Y-84097380D02*
X140578812Y-84097380D01*
X140578812Y-84097380D02*
X140531193Y-84085476D01*
X140531193Y-84085476D02*
X140507384Y-84073571D01*
X140507384Y-84073571D02*
X140495479Y-84061666D01*
X140495479Y-84061666D02*
X140483574Y-84037857D01*
D10*
X135052380Y-80844819D02*
X134576190Y-80844819D01*
X134576190Y-80844819D02*
X134576190Y-79844819D01*
X135338095Y-80797200D02*
X135480952Y-80844819D01*
X135480952Y-80844819D02*
X135719047Y-80844819D01*
X135719047Y-80844819D02*
X135814285Y-80797200D01*
X135814285Y-80797200D02*
X135861904Y-80749580D01*
X135861904Y-80749580D02*
X135909523Y-80654342D01*
X135909523Y-80654342D02*
X135909523Y-80559104D01*
X135909523Y-80559104D02*
X135861904Y-80463866D01*
X135861904Y-80463866D02*
X135814285Y-80416247D01*
X135814285Y-80416247D02*
X135719047Y-80368628D01*
X135719047Y-80368628D02*
X135528571Y-80321009D01*
X135528571Y-80321009D02*
X135433333Y-80273390D01*
X135433333Y-80273390D02*
X135385714Y-80225771D01*
X135385714Y-80225771D02*
X135338095Y-80130533D01*
X135338095Y-80130533D02*
X135338095Y-80035295D01*
X135338095Y-80035295D02*
X135385714Y-79940057D01*
X135385714Y-79940057D02*
X135433333Y-79892438D01*
X135433333Y-79892438D02*
X135528571Y-79844819D01*
X135528571Y-79844819D02*
X135766666Y-79844819D01*
X135766666Y-79844819D02*
X135909523Y-79892438D01*
X136338095Y-80844819D02*
X136338095Y-79844819D01*
X136338095Y-79844819D02*
X136671428Y-80559104D01*
X136671428Y-80559104D02*
X137004761Y-79844819D01*
X137004761Y-79844819D02*
X137004761Y-80844819D01*
X137528571Y-80844819D02*
X137719047Y-80844819D01*
X137719047Y-80844819D02*
X137814285Y-80797200D01*
X137814285Y-80797200D02*
X137861904Y-80749580D01*
X137861904Y-80749580D02*
X137957142Y-80606723D01*
X137957142Y-80606723D02*
X138004761Y-80416247D01*
X138004761Y-80416247D02*
X138004761Y-80035295D01*
X138004761Y-80035295D02*
X137957142Y-79940057D01*
X137957142Y-79940057D02*
X137909523Y-79892438D01*
X137909523Y-79892438D02*
X137814285Y-79844819D01*
X137814285Y-79844819D02*
X137623809Y-79844819D01*
X137623809Y-79844819D02*
X137528571Y-79892438D01*
X137528571Y-79892438D02*
X137480952Y-79940057D01*
X137480952Y-79940057D02*
X137433333Y-80035295D01*
X137433333Y-80035295D02*
X137433333Y-80273390D01*
X137433333Y-80273390D02*
X137480952Y-80368628D01*
X137480952Y-80368628D02*
X137528571Y-80416247D01*
X137528571Y-80416247D02*
X137623809Y-80463866D01*
X137623809Y-80463866D02*
X137814285Y-80463866D01*
X137814285Y-80463866D02*
X137909523Y-80416247D01*
X137909523Y-80416247D02*
X137957142Y-80368628D01*
X137957142Y-80368628D02*
X138004761Y-80273390D01*
X138433333Y-80844819D02*
X138433333Y-79844819D01*
X138433333Y-79844819D02*
X138671428Y-79844819D01*
X138671428Y-79844819D02*
X138814285Y-79892438D01*
X138814285Y-79892438D02*
X138909523Y-79987676D01*
X138909523Y-79987676D02*
X138957142Y-80082914D01*
X138957142Y-80082914D02*
X139004761Y-80273390D01*
X139004761Y-80273390D02*
X139004761Y-80416247D01*
X139004761Y-80416247D02*
X138957142Y-80606723D01*
X138957142Y-80606723D02*
X138909523Y-80701961D01*
X138909523Y-80701961D02*
X138814285Y-80797200D01*
X138814285Y-80797200D02*
X138671428Y-80844819D01*
X138671428Y-80844819D02*
X138433333Y-80844819D01*
X139385714Y-80797200D02*
X139528571Y-80844819D01*
X139528571Y-80844819D02*
X139766666Y-80844819D01*
X139766666Y-80844819D02*
X139861904Y-80797200D01*
X139861904Y-80797200D02*
X139909523Y-80749580D01*
X139909523Y-80749580D02*
X139957142Y-80654342D01*
X139957142Y-80654342D02*
X139957142Y-80559104D01*
X139957142Y-80559104D02*
X139909523Y-80463866D01*
X139909523Y-80463866D02*
X139861904Y-80416247D01*
X139861904Y-80416247D02*
X139766666Y-80368628D01*
X139766666Y-80368628D02*
X139576190Y-80321009D01*
X139576190Y-80321009D02*
X139480952Y-80273390D01*
X139480952Y-80273390D02*
X139433333Y-80225771D01*
X139433333Y-80225771D02*
X139385714Y-80130533D01*
X139385714Y-80130533D02*
X139385714Y-80035295D01*
X139385714Y-80035295D02*
X139433333Y-79940057D01*
X139433333Y-79940057D02*
X139480952Y-79892438D01*
X139480952Y-79892438D02*
X139576190Y-79844819D01*
X139576190Y-79844819D02*
X139814285Y-79844819D01*
X139814285Y-79844819D02*
X139957142Y-79892438D01*
X140909523Y-80844819D02*
X140338095Y-80844819D01*
X140623809Y-80844819D02*
X140623809Y-79844819D01*
X140623809Y-79844819D02*
X140528571Y-79987676D01*
X140528571Y-79987676D02*
X140433333Y-80082914D01*
X140433333Y-80082914D02*
X140338095Y-80130533D01*
X141195238Y-79844819D02*
X141766666Y-79844819D01*
X141480952Y-80844819D02*
X141480952Y-79844819D01*
X142671428Y-80844819D02*
X142338095Y-80368628D01*
X142100000Y-80844819D02*
X142100000Y-79844819D01*
X142100000Y-79844819D02*
X142480952Y-79844819D01*
X142480952Y-79844819D02*
X142576190Y-79892438D01*
X142576190Y-79892438D02*
X142623809Y-79940057D01*
X142623809Y-79940057D02*
X142671428Y-80035295D01*
X142671428Y-80035295D02*
X142671428Y-80178152D01*
X142671428Y-80178152D02*
X142623809Y-80273390D01*
X142623809Y-80273390D02*
X142576190Y-80321009D01*
X142576190Y-80321009D02*
X142480952Y-80368628D01*
X142480952Y-80368628D02*
X142100000Y-80368628D01*
X137838095Y-85344819D02*
X137838095Y-86154342D01*
X137838095Y-86154342D02*
X137885714Y-86249580D01*
X137885714Y-86249580D02*
X137933333Y-86297200D01*
X137933333Y-86297200D02*
X138028571Y-86344819D01*
X138028571Y-86344819D02*
X138219047Y-86344819D01*
X138219047Y-86344819D02*
X138314285Y-86297200D01*
X138314285Y-86297200D02*
X138361904Y-86249580D01*
X138361904Y-86249580D02*
X138409523Y-86154342D01*
X138409523Y-86154342D02*
X138409523Y-85344819D01*
X138838095Y-85440057D02*
X138885714Y-85392438D01*
X138885714Y-85392438D02*
X138980952Y-85344819D01*
X138980952Y-85344819D02*
X139219047Y-85344819D01*
X139219047Y-85344819D02*
X139314285Y-85392438D01*
X139314285Y-85392438D02*
X139361904Y-85440057D01*
X139361904Y-85440057D02*
X139409523Y-85535295D01*
X139409523Y-85535295D02*
X139409523Y-85630533D01*
X139409523Y-85630533D02*
X139361904Y-85773390D01*
X139361904Y-85773390D02*
X138790476Y-86344819D01*
X138790476Y-86344819D02*
X139409523Y-86344819D01*
X133152381Y-109004819D02*
X133247619Y-109004819D01*
X133247619Y-109004819D02*
X133342857Y-109052438D01*
X133342857Y-109052438D02*
X133390476Y-109100057D01*
X133390476Y-109100057D02*
X133438095Y-109195295D01*
X133438095Y-109195295D02*
X133485714Y-109385771D01*
X133485714Y-109385771D02*
X133485714Y-109623866D01*
X133485714Y-109623866D02*
X133438095Y-109814342D01*
X133438095Y-109814342D02*
X133390476Y-109909580D01*
X133390476Y-109909580D02*
X133342857Y-109957200D01*
X133342857Y-109957200D02*
X133247619Y-110004819D01*
X133247619Y-110004819D02*
X133152381Y-110004819D01*
X133152381Y-110004819D02*
X133057143Y-109957200D01*
X133057143Y-109957200D02*
X133009524Y-109909580D01*
X133009524Y-109909580D02*
X132961905Y-109814342D01*
X132961905Y-109814342D02*
X132914286Y-109623866D01*
X132914286Y-109623866D02*
X132914286Y-109385771D01*
X132914286Y-109385771D02*
X132961905Y-109195295D01*
X132961905Y-109195295D02*
X133009524Y-109100057D01*
X133009524Y-109100057D02*
X133057143Y-109052438D01*
X133057143Y-109052438D02*
X133152381Y-109004819D01*
D11*
X133039285Y-111393574D02*
X132955952Y-111274527D01*
X132896428Y-111393574D02*
X132896428Y-111143574D01*
X132896428Y-111143574D02*
X132991666Y-111143574D01*
X132991666Y-111143574D02*
X133015476Y-111155479D01*
X133015476Y-111155479D02*
X133027381Y-111167384D01*
X133027381Y-111167384D02*
X133039285Y-111191193D01*
X133039285Y-111191193D02*
X133039285Y-111226908D01*
X133039285Y-111226908D02*
X133027381Y-111250717D01*
X133027381Y-111250717D02*
X133015476Y-111262622D01*
X133015476Y-111262622D02*
X132991666Y-111274527D01*
X132991666Y-111274527D02*
X132896428Y-111274527D01*
X133277381Y-111393574D02*
X133134524Y-111393574D01*
X133205952Y-111393574D02*
X133205952Y-111143574D01*
X133205952Y-111143574D02*
X133182143Y-111179289D01*
X133182143Y-111179289D02*
X133158333Y-111203098D01*
X133158333Y-111203098D02*
X133134524Y-111215003D01*
X133360714Y-111143574D02*
X133515476Y-111143574D01*
X133515476Y-111143574D02*
X133432142Y-111238812D01*
X133432142Y-111238812D02*
X133467857Y-111238812D01*
X133467857Y-111238812D02*
X133491666Y-111250717D01*
X133491666Y-111250717D02*
X133503571Y-111262622D01*
X133503571Y-111262622D02*
X133515476Y-111286431D01*
X133515476Y-111286431D02*
X133515476Y-111345955D01*
X133515476Y-111345955D02*
X133503571Y-111369765D01*
X133503571Y-111369765D02*
X133491666Y-111381670D01*
X133491666Y-111381670D02*
X133467857Y-111393574D01*
X133467857Y-111393574D02*
X133396428Y-111393574D01*
X133396428Y-111393574D02*
X133372619Y-111381670D01*
X133372619Y-111381670D02*
X133360714Y-111369765D01*
D10*
X160500057Y-103407380D02*
X160452438Y-103359761D01*
X160452438Y-103359761D02*
X160404819Y-103264523D01*
X160404819Y-103264523D02*
X160404819Y-103026428D01*
X160404819Y-103026428D02*
X160452438Y-102931190D01*
X160452438Y-102931190D02*
X160500057Y-102883571D01*
X160500057Y-102883571D02*
X160595295Y-102835952D01*
X160595295Y-102835952D02*
X160690533Y-102835952D01*
X160690533Y-102835952D02*
X160833390Y-102883571D01*
X160833390Y-102883571D02*
X161404819Y-103454999D01*
X161404819Y-103454999D02*
X161404819Y-102835952D01*
X161309580Y-102407380D02*
X161357200Y-102359761D01*
X161357200Y-102359761D02*
X161404819Y-102407380D01*
X161404819Y-102407380D02*
X161357200Y-102454999D01*
X161357200Y-102454999D02*
X161309580Y-102407380D01*
X161309580Y-102407380D02*
X161404819Y-102407380D01*
X160500057Y-101978809D02*
X160452438Y-101931190D01*
X160452438Y-101931190D02*
X160404819Y-101835952D01*
X160404819Y-101835952D02*
X160404819Y-101597857D01*
X160404819Y-101597857D02*
X160452438Y-101502619D01*
X160452438Y-101502619D02*
X160500057Y-101455000D01*
X160500057Y-101455000D02*
X160595295Y-101407381D01*
X160595295Y-101407381D02*
X160690533Y-101407381D01*
X160690533Y-101407381D02*
X160833390Y-101455000D01*
X160833390Y-101455000D02*
X161404819Y-102026428D01*
X161404819Y-102026428D02*
X161404819Y-101407381D01*
X160738152Y-100550238D02*
X161404819Y-100550238D01*
X160738152Y-100978809D02*
X161261961Y-100978809D01*
X161261961Y-100978809D02*
X161357200Y-100931190D01*
X161357200Y-100931190D02*
X161404819Y-100835952D01*
X161404819Y-100835952D02*
X161404819Y-100693095D01*
X161404819Y-100693095D02*
X161357200Y-100597857D01*
X161357200Y-100597857D02*
X161309580Y-100550238D01*
D11*
X162769765Y-102115714D02*
X162781670Y-102127618D01*
X162781670Y-102127618D02*
X162793574Y-102163333D01*
X162793574Y-102163333D02*
X162793574Y-102187142D01*
X162793574Y-102187142D02*
X162781670Y-102222856D01*
X162781670Y-102222856D02*
X162757860Y-102246666D01*
X162757860Y-102246666D02*
X162734050Y-102258571D01*
X162734050Y-102258571D02*
X162686431Y-102270475D01*
X162686431Y-102270475D02*
X162650717Y-102270475D01*
X162650717Y-102270475D02*
X162603098Y-102258571D01*
X162603098Y-102258571D02*
X162579289Y-102246666D01*
X162579289Y-102246666D02*
X162555479Y-102222856D01*
X162555479Y-102222856D02*
X162543574Y-102187142D01*
X162543574Y-102187142D02*
X162543574Y-102163333D01*
X162543574Y-102163333D02*
X162555479Y-102127618D01*
X162555479Y-102127618D02*
X162567384Y-102115714D01*
X162567384Y-102020475D02*
X162555479Y-102008571D01*
X162555479Y-102008571D02*
X162543574Y-101984761D01*
X162543574Y-101984761D02*
X162543574Y-101925237D01*
X162543574Y-101925237D02*
X162555479Y-101901428D01*
X162555479Y-101901428D02*
X162567384Y-101889523D01*
X162567384Y-101889523D02*
X162591193Y-101877618D01*
X162591193Y-101877618D02*
X162615003Y-101877618D01*
X162615003Y-101877618D02*
X162650717Y-101889523D01*
X162650717Y-101889523D02*
X162793574Y-102032380D01*
X162793574Y-102032380D02*
X162793574Y-101877618D01*
X162543574Y-101794285D02*
X162543574Y-101627619D01*
X162543574Y-101627619D02*
X162793574Y-101734761D01*
D10*
X167238152Y-95570476D02*
X167904819Y-95570476D01*
X166857200Y-95808571D02*
X167571485Y-96046666D01*
X167571485Y-96046666D02*
X167571485Y-95427619D01*
X167904819Y-95046666D02*
X166904819Y-95046666D01*
X167523866Y-94951428D02*
X167904819Y-94665714D01*
X167238152Y-94665714D02*
X167619104Y-95046666D01*
X166904819Y-94332380D02*
X166904819Y-93665714D01*
X166904819Y-93665714D02*
X167904819Y-94094285D01*
D11*
X165833574Y-95040714D02*
X165714527Y-95124047D01*
X165833574Y-95183571D02*
X165583574Y-95183571D01*
X165583574Y-95183571D02*
X165583574Y-95088333D01*
X165583574Y-95088333D02*
X165595479Y-95064523D01*
X165595479Y-95064523D02*
X165607384Y-95052618D01*
X165607384Y-95052618D02*
X165631193Y-95040714D01*
X165631193Y-95040714D02*
X165666908Y-95040714D01*
X165666908Y-95040714D02*
X165690717Y-95052618D01*
X165690717Y-95052618D02*
X165702622Y-95064523D01*
X165702622Y-95064523D02*
X165714527Y-95088333D01*
X165714527Y-95088333D02*
X165714527Y-95183571D01*
X165833574Y-94802618D02*
X165833574Y-94945475D01*
X165833574Y-94874047D02*
X165583574Y-94874047D01*
X165583574Y-94874047D02*
X165619289Y-94897856D01*
X165619289Y-94897856D02*
X165643098Y-94921666D01*
X165643098Y-94921666D02*
X165655003Y-94945475D01*
X165583574Y-94588333D02*
X165583574Y-94635952D01*
X165583574Y-94635952D02*
X165595479Y-94659761D01*
X165595479Y-94659761D02*
X165607384Y-94671666D01*
X165607384Y-94671666D02*
X165643098Y-94695476D01*
X165643098Y-94695476D02*
X165690717Y-94707380D01*
X165690717Y-94707380D02*
X165785955Y-94707380D01*
X165785955Y-94707380D02*
X165809765Y-94695476D01*
X165809765Y-94695476D02*
X165821670Y-94683571D01*
X165821670Y-94683571D02*
X165833574Y-94659761D01*
X165833574Y-94659761D02*
X165833574Y-94612142D01*
X165833574Y-94612142D02*
X165821670Y-94588333D01*
X165821670Y-94588333D02*
X165809765Y-94576428D01*
X165809765Y-94576428D02*
X165785955Y-94564523D01*
X165785955Y-94564523D02*
X165726431Y-94564523D01*
X165726431Y-94564523D02*
X165702622Y-94576428D01*
X165702622Y-94576428D02*
X165690717Y-94588333D01*
X165690717Y-94588333D02*
X165678812Y-94612142D01*
X165678812Y-94612142D02*
X165678812Y-94659761D01*
X165678812Y-94659761D02*
X165690717Y-94683571D01*
X165690717Y-94683571D02*
X165702622Y-94695476D01*
X165702622Y-94695476D02*
X165726431Y-94707380D01*
D16*
%TO.C,J8*%
X168250000Y-102480000D02*
X168775000Y-101955000D01*
X168250000Y-108305000D02*
X168250000Y-102480000D01*
X168775000Y-101955000D02*
X170350000Y-101955000D01*
X170350000Y-101955000D02*
X170350000Y-108305000D01*
X170350000Y-108305000D02*
X168250000Y-108305000D01*
%TO.C,C23*%
X147900000Y-96450000D02*
X147300000Y-96450000D01*
X147900000Y-96150000D02*
X147900000Y-96450000D01*
X147300000Y-96450000D02*
X147300000Y-96150000D01*
X147300000Y-96150000D02*
X147900000Y-96150000D01*
%TO.C,C16*%
X151050000Y-83000000D02*
X151050000Y-82400000D01*
X151350000Y-83000000D02*
X151050000Y-83000000D01*
X151050000Y-82400000D02*
X151350000Y-82400000D01*
X151350000Y-82400000D02*
X151350000Y-83000000D01*
%TO.C,R15*%
X133500000Y-112250000D02*
X132900000Y-112250000D01*
X133500000Y-111950000D02*
X133500000Y-112250000D01*
X132900000Y-112250000D02*
X132900000Y-111950000D01*
X132900000Y-111950000D02*
X133500000Y-111950000D01*
%TO.C,C25*%
X147900000Y-93050000D02*
X147300000Y-93050000D01*
X147900000Y-92750000D02*
X147900000Y-93050000D01*
X147300000Y-93050000D02*
X147300000Y-92750000D01*
X147300000Y-92750000D02*
X147900000Y-92750000D01*
%TO.C,R17*%
X166550000Y-93100000D02*
X166550000Y-93700000D01*
X166250000Y-93100000D02*
X166550000Y-93100000D01*
X166550000Y-93700000D02*
X166250000Y-93700000D01*
X166250000Y-93700000D02*
X166250000Y-93100000D01*
%TO.C,U4*%
X137350000Y-102650000D02*
X140350000Y-102650000D01*
X140850000Y-103150000D02*
X140350000Y-102650000D01*
X140850000Y-103150000D02*
X140850000Y-106150000D01*
X140850000Y-106150000D02*
X137350000Y-106150000D01*
X137350000Y-106150000D02*
X137350000Y-102650000D01*
%TO.C,C28*%
X166400000Y-87250000D02*
X167000000Y-87250000D01*
X166400000Y-87550000D02*
X166400000Y-87250000D01*
X167000000Y-87250000D02*
X167000000Y-87550000D01*
X167000000Y-87550000D02*
X166400000Y-87550000D01*
%TO.C,U1*%
X150200000Y-86400000D02*
X151200000Y-85400000D01*
X150200000Y-99400000D02*
X150200000Y-86400000D01*
X151200000Y-85400000D02*
X164200000Y-85400000D01*
X164200000Y-85400000D02*
X164200000Y-99400000D01*
X164200000Y-99400000D02*
X150200000Y-99400000D01*
%TO.C,R14*%
X132900000Y-113550000D02*
X133500000Y-113550000D01*
X132900000Y-113850000D02*
X132900000Y-113550000D01*
X133500000Y-113550000D02*
X133500000Y-113850000D01*
X133500000Y-113850000D02*
X132900000Y-113850000D01*
%TO.C,C21*%
X166400000Y-86250000D02*
X167000000Y-86250000D01*
X166400000Y-86550000D02*
X166400000Y-86250000D01*
X167000000Y-86250000D02*
X167000000Y-86550000D01*
X167000000Y-86550000D02*
X166400000Y-86550000D01*
%TO.C,J4*%
X133950000Y-100275000D02*
X129900000Y-100275000D01*
X133950000Y-100275000D02*
X133950000Y-108525000D01*
X129900000Y-100275000D02*
X129900000Y-108525000D01*
X133950000Y-102025000D02*
X133242893Y-102525000D01*
X133242893Y-102525000D02*
X133950000Y-103025000D01*
X133950000Y-108525000D02*
X129900000Y-108525000D01*
%TO.C,C17*%
X147900000Y-89050000D02*
X147300000Y-89050000D01*
X147900000Y-88750000D02*
X147900000Y-89050000D01*
X147300000Y-89050000D02*
X147300000Y-88750000D01*
X147300000Y-88750000D02*
X147900000Y-88750000D01*
%TO.C,J2*%
X170350000Y-114110000D02*
X169825000Y-114635000D01*
X170350000Y-109555000D02*
X170350000Y-114110000D01*
X169825000Y-114635000D02*
X168250000Y-114635000D01*
X168250000Y-114635000D02*
X168250000Y-109555000D01*
X168250000Y-109555000D02*
X170350000Y-109555000D01*
%TO.C,C19*%
X150950000Y-102200000D02*
X150950000Y-101600000D01*
X151250000Y-102200000D02*
X150950000Y-102200000D01*
X150950000Y-101600000D02*
X151250000Y-101600000D01*
X151250000Y-101600000D02*
X151250000Y-102200000D01*
%TO.C,C24*%
X147900000Y-95650000D02*
X147300000Y-95650000D01*
X147900000Y-95350000D02*
X147900000Y-95650000D01*
X147300000Y-95650000D02*
X147300000Y-95350000D01*
X147300000Y-95350000D02*
X147900000Y-95350000D01*
%TO.C,R19*%
X141150000Y-82945000D02*
X141150000Y-82345000D01*
X141450000Y-82945000D02*
X141150000Y-82945000D01*
X141150000Y-82345000D02*
X141450000Y-82345000D01*
X141450000Y-82345000D02*
X141450000Y-82945000D01*
%TO.C,C18*%
X147900000Y-91550000D02*
X147300000Y-91550000D01*
X147900000Y-91250000D02*
X147900000Y-91550000D01*
X147300000Y-91550000D02*
X147300000Y-91250000D01*
X147300000Y-91250000D02*
X147900000Y-91250000D01*
%TO.C,Y1*%
X143950000Y-101600000D02*
X144050000Y-101500000D01*
X143950000Y-102500000D02*
X144950000Y-103500000D01*
X143950000Y-103400000D02*
X143950000Y-101600000D01*
X144050000Y-101500000D02*
X146350000Y-101500000D01*
X144050000Y-103500000D02*
X143950000Y-103400000D01*
X146350000Y-101500000D02*
X146450000Y-101600000D01*
X146350000Y-103500000D02*
X144050000Y-103500000D01*
X146450000Y-101600000D02*
X146450000Y-103400000D01*
X146450000Y-103400000D02*
X146350000Y-103500000D01*
%TO.C,C20*%
X163400000Y-101655000D02*
X163400000Y-102255000D01*
X163100000Y-101655000D02*
X163400000Y-101655000D01*
X163400000Y-102255000D02*
X163100000Y-102255000D01*
X163100000Y-102255000D02*
X163100000Y-101655000D01*
%TO.C,U5*%
X164825000Y-105030000D02*
X165575000Y-105780000D01*
X162575000Y-105030000D02*
X164825000Y-105030000D01*
X165575000Y-105780000D02*
X165575000Y-108030000D01*
X165575000Y-108030000D02*
X162575000Y-108030000D01*
X162575000Y-108030000D02*
X162575000Y-105030000D01*
%TO.C,U3*%
X137350000Y-90350000D02*
X140350000Y-90350000D01*
X140850000Y-90850000D02*
X140350000Y-90350000D01*
X140850000Y-90850000D02*
X140850000Y-93850000D01*
X140850000Y-93850000D02*
X137350000Y-93850000D01*
X137350000Y-93850000D02*
X137350000Y-90350000D01*
%TO.C,C22*%
X150150000Y-83000000D02*
X150150000Y-82400000D01*
X150450000Y-83000000D02*
X150150000Y-83000000D01*
X150150000Y-82400000D02*
X150450000Y-82400000D01*
X150450000Y-82400000D02*
X150450000Y-83000000D01*
%TO.C,J3*%
X133950000Y-85475000D02*
X129900000Y-85475000D01*
X133950000Y-85475000D02*
X133950000Y-98725000D01*
X129900000Y-85475000D02*
X129900000Y-98725000D01*
X133950000Y-87225000D02*
X133242893Y-87725000D01*
X133242893Y-87725000D02*
X133950000Y-88225000D01*
X133950000Y-98725000D02*
X129900000Y-98725000D01*
%TO.C,Y2*%
X140447500Y-97150000D02*
X140547500Y-97250000D01*
X139547500Y-97150000D02*
X139047500Y-97650000D01*
X139147500Y-97150000D02*
X140447500Y-97150000D01*
X140547500Y-97250000D02*
X140547500Y-100250000D01*
X139047500Y-97250000D02*
X139147500Y-97150000D01*
X140547500Y-100250000D02*
X140447500Y-100350000D01*
X139047500Y-100250000D02*
X139047500Y-97250000D01*
X140447500Y-100350000D02*
X139147500Y-100350000D01*
X139147500Y-100350000D02*
X139047500Y-100250000D01*
%TO.C,R20*%
X141150000Y-84570000D02*
X141150000Y-83970000D01*
X141450000Y-84570000D02*
X141150000Y-84570000D01*
X141150000Y-83970000D02*
X141450000Y-83970000D01*
X141450000Y-83970000D02*
X141450000Y-84570000D01*
%TO.C,U2*%
X140350000Y-84690000D02*
X136850000Y-84690000D01*
X140350000Y-81690000D02*
X140350000Y-84690000D01*
X136850000Y-84690000D02*
X136850000Y-81690000D01*
X136850000Y-81690000D02*
X140350000Y-81690000D01*
X139950000Y-84190000D02*
G75*
G03*
X139950000Y-84190000I-50000J0D01*
G01*
X140050000Y-84190000D02*
G75*
G03*
X140050000Y-84190000I-150000J0D01*
G01*
%TO.C,R13*%
X133500000Y-110750000D02*
X132900000Y-110750000D01*
X133500000Y-110450000D02*
X133500000Y-110750000D01*
X132900000Y-110750000D02*
X132900000Y-110450000D01*
X132900000Y-110450000D02*
X133500000Y-110450000D01*
%TO.C,C27*%
X162150000Y-101655000D02*
X162150000Y-102255000D01*
X161850000Y-101655000D02*
X162150000Y-101655000D01*
X162150000Y-102255000D02*
X161850000Y-102255000D01*
X161850000Y-102255000D02*
X161850000Y-101655000D01*
%TO.C,R16*%
X166250000Y-95180000D02*
X166250000Y-94580000D01*
X166550000Y-95180000D02*
X166250000Y-95180000D01*
X166250000Y-94580000D02*
X166550000Y-94580000D01*
X166550000Y-94580000D02*
X166550000Y-95180000D01*
%TD*%
M02*
