%TF.GenerationSoftware,KiCad,Pcbnew,7.0.6*%
%TF.CreationDate,2023-09-15T14:04:58+02:00*%
%TF.ProjectId,V8,56382e6b-6963-4616-945f-706362585858,rev?*%
%TF.SameCoordinates,Original*%
%TF.FileFunction,Soldermask,Top*%
%TF.FilePolarity,Negative*%
%FSLAX46Y46*%
G04 Gerber Fmt 4.6, Leading zero omitted, Abs format (unit mm)*
G04 Created by KiCad (PCBNEW 7.0.6) date 2023-09-15 14:04:58*
%MOMM*%
%LPD*%
G01*
G04 APERTURE LIST*
G04 Aperture macros list*
%AMRoundRect*
0 Rectangle with rounded corners*
0 $1 Rounding radius*
0 $2 $3 $4 $5 $6 $7 $8 $9 X,Y pos of 4 corners*
0 Add a 4 corners polygon primitive as box body*
4,1,4,$2,$3,$4,$5,$6,$7,$8,$9,$2,$3,0*
0 Add four circle primitives for the rounded corners*
1,1,$1+$1,$2,$3*
1,1,$1+$1,$4,$5*
1,1,$1+$1,$6,$7*
1,1,$1+$1,$8,$9*
0 Add four rect primitives between the rounded corners*
20,1,$1+$1,$2,$3,$4,$5,0*
20,1,$1+$1,$4,$5,$6,$7,0*
20,1,$1+$1,$6,$7,$8,$9,0*
20,1,$1+$1,$8,$9,$2,$3,0*%
G04 Aperture macros list end*
%ADD10C,0.010000*%
%ADD11R,1.000000X1.000000*%
%ADD12O,1.000000X1.000000*%
%ADD13RoundRect,0.100000X0.130000X0.100000X-0.130000X0.100000X-0.130000X-0.100000X0.130000X-0.100000X0*%
%ADD14RoundRect,0.100000X0.100000X-0.130000X0.100000X0.130000X-0.100000X0.130000X-0.100000X-0.130000X0*%
%ADD15C,2.500000*%
%ADD16RoundRect,0.100000X-0.100000X0.130000X-0.100000X-0.130000X0.100000X-0.130000X0.100000X0.130000X0*%
%ADD17R,0.850000X0.280000*%
%ADD18R,0.280000X0.850000*%
%ADD19R,2.050000X2.050000*%
%ADD20RoundRect,0.100000X-0.130000X-0.100000X0.130000X-0.100000X0.130000X0.100000X-0.130000X0.100000X0*%
%ADD21RoundRect,0.075000X-0.725000X-0.075000X0.725000X-0.075000X0.725000X0.075000X-0.725000X0.075000X0*%
%ADD22RoundRect,0.075000X-0.075000X-0.725000X0.075000X-0.725000X0.075000X0.725000X-0.075000X0.725000X0*%
%ADD23RoundRect,0.150000X-0.700000X0.150000X-0.700000X-0.150000X0.700000X-0.150000X0.700000X0.150000X0*%
%ADD24RoundRect,0.250000X-1.100000X0.250000X-1.100000X-0.250000X1.100000X-0.250000X1.100000X0.250000X0*%
%ADD25R,1.200000X1.000000*%
%ADD26RoundRect,0.062500X-0.062500X0.362500X-0.062500X-0.362500X0.062500X-0.362500X0.062500X0.362500X0*%
%ADD27R,2.380000X1.650000*%
%ADD28R,1.800000X1.000000*%
%ADD29R,0.230000X0.350000*%
%ADD30R,0.350000X0.230000*%
G04 APERTURE END LIST*
%TO.C,J5*%
D10*
X139321000Y-113191000D02*
X137799000Y-113191000D01*
X137799000Y-110748990D01*
X139321000Y-110748990D01*
X139321000Y-113191000D01*
G36*
X139321000Y-113191000D02*
G01*
X137799000Y-113191000D01*
X137799000Y-110748990D01*
X139321000Y-110748990D01*
X139321000Y-113191000D01*
G37*
X139321000Y-117002000D02*
X137799000Y-117002000D01*
X137799000Y-114660010D01*
X139321000Y-114660010D01*
X139321000Y-117002000D01*
G36*
X139321000Y-117002000D02*
G01*
X137799000Y-117002000D01*
X137799000Y-114660010D01*
X139321000Y-114660010D01*
X139321000Y-117002000D01*
G37*
X141860980Y-113191000D02*
X140338990Y-113191000D01*
X140338990Y-110748990D01*
X141860980Y-110748990D01*
X141860980Y-113191000D01*
G36*
X141860980Y-113191000D02*
G01*
X140338990Y-113191000D01*
X140338990Y-110748990D01*
X141860980Y-110748990D01*
X141860980Y-113191000D01*
G37*
X141860980Y-117002000D02*
X140338990Y-117002000D01*
X140338990Y-114660010D01*
X141860980Y-114660010D01*
X141860980Y-117002000D01*
G36*
X141860980Y-117002000D02*
G01*
X140338990Y-117002000D01*
X140338990Y-114660010D01*
X141860980Y-114660010D01*
X141860980Y-117002000D01*
G37*
X144400980Y-113191000D02*
X142878990Y-113191000D01*
X142878990Y-110748990D01*
X144400980Y-110748990D01*
X144400980Y-113191000D01*
G36*
X144400980Y-113191000D02*
G01*
X142878990Y-113191000D01*
X142878990Y-110748990D01*
X144400980Y-110748990D01*
X144400980Y-113191000D01*
G37*
X144400980Y-117002000D02*
X142878990Y-117002000D01*
X142878990Y-114660010D01*
X144400980Y-114660010D01*
X144400980Y-117002000D01*
G36*
X144400980Y-117002000D02*
G01*
X142878990Y-117002000D01*
X142878990Y-114660010D01*
X144400980Y-114660010D01*
X144400980Y-117002000D01*
G37*
X146940980Y-113191000D02*
X145418990Y-113191000D01*
X145418990Y-110748990D01*
X146940980Y-110748990D01*
X146940980Y-113191000D01*
G36*
X146940980Y-113191000D02*
G01*
X145418990Y-113191000D01*
X145418990Y-110748990D01*
X146940980Y-110748990D01*
X146940980Y-113191000D01*
G37*
X146940980Y-117002000D02*
X145418990Y-117002000D01*
X145418990Y-114660010D01*
X146940980Y-114660010D01*
X146940980Y-117002000D01*
G36*
X146940980Y-117002000D02*
G01*
X145418990Y-117002000D01*
X145418990Y-114660010D01*
X146940980Y-114660010D01*
X146940980Y-117002000D01*
G37*
X149480984Y-113191000D02*
X147958990Y-113191000D01*
X147958990Y-110748990D01*
X149480984Y-110748990D01*
X149480984Y-113191000D01*
G36*
X149480984Y-113191000D02*
G01*
X147958990Y-113191000D01*
X147958990Y-110748990D01*
X149480984Y-110748990D01*
X149480984Y-113191000D01*
G37*
X149480984Y-117002000D02*
X147958990Y-117002000D01*
X147958990Y-114660010D01*
X149480984Y-114660010D01*
X149480984Y-117002000D01*
G36*
X149480984Y-117002000D02*
G01*
X147958990Y-117002000D01*
X147958990Y-114660010D01*
X149480984Y-114660010D01*
X149480984Y-117002000D01*
G37*
X152020980Y-113191000D02*
X150498991Y-113191000D01*
X150498991Y-110748990D01*
X152020980Y-110748990D01*
X152020980Y-113191000D01*
G36*
X152020980Y-113191000D02*
G01*
X150498991Y-113191000D01*
X150498991Y-110748990D01*
X152020980Y-110748990D01*
X152020980Y-113191000D01*
G37*
X152020980Y-117002000D02*
X150498991Y-117002000D01*
X150498991Y-114660010D01*
X152020980Y-114660010D01*
X152020980Y-117002000D01*
G36*
X152020980Y-117002000D02*
G01*
X150498991Y-117002000D01*
X150498991Y-114660010D01*
X152020980Y-114660010D01*
X152020980Y-117002000D01*
G37*
X154560980Y-113191000D02*
X153038990Y-113191000D01*
X153038990Y-110748990D01*
X154560980Y-110748990D01*
X154560980Y-113191000D01*
G36*
X154560980Y-113191000D02*
G01*
X153038990Y-113191000D01*
X153038990Y-110748990D01*
X154560980Y-110748990D01*
X154560980Y-113191000D01*
G37*
X154560980Y-117002000D02*
X153038990Y-117002000D01*
X153038990Y-114660010D01*
X154560980Y-114660010D01*
X154560980Y-117002000D01*
G36*
X154560980Y-117002000D02*
G01*
X153038990Y-117002000D01*
X153038990Y-114660010D01*
X154560980Y-114660010D01*
X154560980Y-117002000D01*
G37*
X157100980Y-113191000D02*
X155578990Y-113191000D01*
X155578990Y-110748990D01*
X157100980Y-110748990D01*
X157100980Y-113191000D01*
G36*
X157100980Y-113191000D02*
G01*
X155578990Y-113191000D01*
X155578990Y-110748990D01*
X157100980Y-110748990D01*
X157100980Y-113191000D01*
G37*
X157100980Y-117002000D02*
X155578990Y-117002000D01*
X155578990Y-114660010D01*
X157100980Y-114660010D01*
X157100980Y-117002000D01*
G36*
X157100980Y-117002000D02*
G01*
X155578990Y-117002000D01*
X155578990Y-114660010D01*
X157100980Y-114660010D01*
X157100980Y-117002000D01*
G37*
X159640980Y-113191000D02*
X158118990Y-113191000D01*
X158118990Y-110748990D01*
X159640980Y-110748990D01*
X159640980Y-113191000D01*
G36*
X159640980Y-113191000D02*
G01*
X158118990Y-113191000D01*
X158118990Y-110748990D01*
X159640980Y-110748990D01*
X159640980Y-113191000D01*
G37*
X159640980Y-117002000D02*
X158118990Y-117002000D01*
X158118990Y-114660010D01*
X159640980Y-114660010D01*
X159640980Y-117002000D01*
G36*
X159640980Y-117002000D02*
G01*
X158118990Y-117002000D01*
X158118990Y-114660010D01*
X159640980Y-114660010D01*
X159640980Y-117002000D01*
G37*
X162181000Y-113191000D02*
X160659000Y-113191000D01*
X160659000Y-110748990D01*
X162181000Y-110748990D01*
X162181000Y-113191000D01*
G36*
X162181000Y-113191000D02*
G01*
X160659000Y-113191000D01*
X160659000Y-110748990D01*
X162181000Y-110748990D01*
X162181000Y-113191000D01*
G37*
X162181000Y-117002000D02*
X160659000Y-117002000D01*
X160659000Y-114660010D01*
X162181000Y-114660010D01*
X162181000Y-117002000D01*
G36*
X162181000Y-117002000D02*
G01*
X160659000Y-117002000D01*
X160659000Y-114660010D01*
X162181000Y-114660010D01*
X162181000Y-117002000D01*
G37*
%TD*%
D11*
%TO.C,J8*%
X169300000Y-102590000D03*
D12*
X169300000Y-103860000D03*
X169300000Y-105130000D03*
X169300000Y-106400000D03*
X169300000Y-107670000D03*
%TD*%
D13*
%TO.C,C23*%
X147920000Y-96300000D03*
X147280000Y-96300000D03*
%TD*%
D14*
%TO.C,C16*%
X151200000Y-83020000D03*
X151200000Y-82380000D03*
%TD*%
D15*
%TO.C,H4*%
X168000000Y-118000000D03*
%TD*%
D13*
%TO.C,R15*%
X133520000Y-112100000D03*
X132880000Y-112100000D03*
%TD*%
%TO.C,C25*%
X147920000Y-92900000D03*
X147280000Y-92900000D03*
%TD*%
D16*
%TO.C,R17*%
X166400000Y-93080000D03*
X166400000Y-93720000D03*
%TD*%
D17*
%TO.C,U4*%
X140825000Y-103650000D03*
D18*
X140100000Y-102675000D03*
X139600000Y-102675000D03*
X139100000Y-102675000D03*
X138600000Y-102675000D03*
X138100000Y-102675000D03*
D17*
X137375000Y-103650000D03*
X137375000Y-105150000D03*
D18*
X138100000Y-106125000D03*
X138600000Y-106125000D03*
X139100000Y-106125000D03*
X139600000Y-106125000D03*
X140100000Y-106125000D03*
D17*
X140825000Y-105150000D03*
D19*
X139100000Y-104400000D03*
%TD*%
D20*
%TO.C,C28*%
X166380000Y-87400000D03*
X167020000Y-87400000D03*
%TD*%
D15*
%TO.C,H1*%
X132000000Y-82000000D03*
%TD*%
D21*
%TO.C,U1*%
X149525000Y-86400000D03*
X149525000Y-86900000D03*
X149525000Y-87400000D03*
X149525000Y-87900000D03*
X149525000Y-88400000D03*
X149525000Y-88900000D03*
X149525000Y-89400000D03*
X149525000Y-89900000D03*
X149525000Y-90400000D03*
X149525000Y-90900000D03*
X149525000Y-91400000D03*
X149525000Y-91900000D03*
X149525000Y-92400000D03*
X149525000Y-92900000D03*
X149525000Y-93400000D03*
X149525000Y-93900000D03*
X149525000Y-94400000D03*
X149525000Y-94900000D03*
X149525000Y-95400000D03*
X149525000Y-95900000D03*
X149525000Y-96400000D03*
X149525000Y-96900000D03*
X149525000Y-97400000D03*
X149525000Y-97900000D03*
X149525000Y-98400000D03*
D22*
X151200000Y-100075000D03*
X151700000Y-100075000D03*
X152200000Y-100075000D03*
X152700000Y-100075000D03*
X153200000Y-100075000D03*
X153700000Y-100075000D03*
X154200000Y-100075000D03*
X154700000Y-100075000D03*
X155200000Y-100075000D03*
X155700000Y-100075000D03*
X156200000Y-100075000D03*
X156700000Y-100075000D03*
X157200000Y-100075000D03*
X157700000Y-100075000D03*
X158200000Y-100075000D03*
X158700000Y-100075000D03*
X159200000Y-100075000D03*
X159700000Y-100075000D03*
X160200000Y-100075000D03*
X160700000Y-100075000D03*
X161200000Y-100075000D03*
X161700000Y-100075000D03*
X162200000Y-100075000D03*
X162700000Y-100075000D03*
X163200000Y-100075000D03*
D21*
X164875000Y-98400000D03*
X164875000Y-97900000D03*
X164875000Y-97400000D03*
X164875000Y-96900000D03*
X164875000Y-96400000D03*
X164875000Y-95900000D03*
X164875000Y-95400000D03*
X164875000Y-94900000D03*
X164875000Y-94400000D03*
X164875000Y-93900000D03*
X164875000Y-93400000D03*
X164875000Y-92900000D03*
X164875000Y-92400000D03*
X164875000Y-91900000D03*
X164875000Y-91400000D03*
X164875000Y-90900000D03*
X164875000Y-90400000D03*
X164875000Y-89900000D03*
X164875000Y-89400000D03*
X164875000Y-88900000D03*
X164875000Y-88400000D03*
X164875000Y-87900000D03*
X164875000Y-87400000D03*
X164875000Y-86900000D03*
X164875000Y-86400000D03*
D22*
X163200000Y-84725000D03*
X162700000Y-84725000D03*
X162200000Y-84725000D03*
X161700000Y-84725000D03*
X161200000Y-84725000D03*
X160700000Y-84725000D03*
X160200000Y-84725000D03*
X159700000Y-84725000D03*
X159200000Y-84725000D03*
X158700000Y-84725000D03*
X158200000Y-84725000D03*
X157700000Y-84725000D03*
X157200000Y-84725000D03*
X156700000Y-84725000D03*
X156200000Y-84725000D03*
X155700000Y-84725000D03*
X155200000Y-84725000D03*
X154700000Y-84725000D03*
X154200000Y-84725000D03*
X153700000Y-84725000D03*
X153200000Y-84725000D03*
X152700000Y-84725000D03*
X152200000Y-84725000D03*
X151700000Y-84725000D03*
X151200000Y-84725000D03*
%TD*%
D20*
%TO.C,R14*%
X132880000Y-113700000D03*
X133520000Y-113700000D03*
%TD*%
%TO.C,C21*%
X166380000Y-86400000D03*
X167020000Y-86400000D03*
%TD*%
D23*
%TO.C,J4*%
X134200000Y-102525000D03*
X134200000Y-103775000D03*
X134200000Y-105025000D03*
X134200000Y-106275000D03*
D24*
X131000000Y-100675000D03*
X131000000Y-108125000D03*
%TD*%
D13*
%TO.C,C17*%
X147920000Y-88900000D03*
X147280000Y-88900000D03*
%TD*%
D11*
%TO.C,J2*%
X169300000Y-114000000D03*
D12*
X169300000Y-112730000D03*
X169300000Y-111460000D03*
X169300000Y-110190000D03*
%TD*%
D14*
%TO.C,C19*%
X151100000Y-102220000D03*
X151100000Y-101580000D03*
%TD*%
D15*
%TO.C,H2*%
X168000000Y-82000000D03*
%TD*%
D13*
%TO.C,C24*%
X147920000Y-95500000D03*
X147280000Y-95500000D03*
%TD*%
D14*
%TO.C,R19*%
X141300000Y-82965000D03*
X141300000Y-82325000D03*
%TD*%
D13*
%TO.C,C18*%
X147920000Y-91400000D03*
X147280000Y-91400000D03*
%TD*%
D25*
%TO.C,Y1*%
X144400000Y-103100000D03*
X146000000Y-103100000D03*
X146000000Y-101900000D03*
X144400000Y-101900000D03*
%TD*%
D16*
%TO.C,C20*%
X163250000Y-101635000D03*
X163250000Y-102275000D03*
%TD*%
D26*
%TO.C,U5*%
X164825000Y-105080000D03*
X164325000Y-105080000D03*
X163825000Y-105080000D03*
X163325000Y-105080000D03*
X163325000Y-107980000D03*
X163825000Y-107980000D03*
X164325000Y-107980000D03*
X164825000Y-107980000D03*
D27*
X164075000Y-106530000D03*
%TD*%
D15*
%TO.C,H3*%
X132000000Y-118000000D03*
%TD*%
D17*
%TO.C,U3*%
X140825000Y-91350000D03*
D18*
X140100000Y-90375000D03*
X139600000Y-90375000D03*
X139100000Y-90375000D03*
X138600000Y-90375000D03*
X138100000Y-90375000D03*
D17*
X137375000Y-91350000D03*
X137375000Y-92850000D03*
D18*
X138100000Y-93825000D03*
X138600000Y-93825000D03*
X139100000Y-93825000D03*
X139600000Y-93825000D03*
X140100000Y-93825000D03*
D17*
X140825000Y-92850000D03*
D19*
X139100000Y-92100000D03*
%TD*%
D14*
%TO.C,C22*%
X150300000Y-83020000D03*
X150300000Y-82380000D03*
%TD*%
D23*
%TO.C,J3*%
X134200000Y-87725000D03*
X134200000Y-88975000D03*
X134200000Y-90225000D03*
X134200000Y-91475000D03*
X134200000Y-92725000D03*
X134200000Y-93975000D03*
X134200000Y-95225000D03*
X134200000Y-96475000D03*
D24*
X131000000Y-85875000D03*
X131000000Y-98325000D03*
%TD*%
D28*
%TO.C,Y2*%
X139797500Y-97500000D03*
X139797500Y-100000000D03*
%TD*%
D14*
%TO.C,R20*%
X141300000Y-84590000D03*
X141300000Y-83950000D03*
%TD*%
D29*
%TO.C,U2*%
X140105000Y-84415000D03*
D30*
X140075000Y-83835000D03*
X140075000Y-83405000D03*
X140075000Y-82975000D03*
X140075000Y-82545000D03*
D29*
X140105000Y-81965000D03*
X139675000Y-81965000D03*
X139245000Y-81965000D03*
X138815000Y-81965000D03*
X138385000Y-81965000D03*
X137955000Y-81965000D03*
X137525000Y-81965000D03*
X137095000Y-81965000D03*
D30*
X137125000Y-82545000D03*
X137125000Y-82975000D03*
X137125000Y-83405000D03*
X137125000Y-83835000D03*
D29*
X137095000Y-84415000D03*
X137525000Y-84415000D03*
X137955000Y-84415000D03*
X138385000Y-84415000D03*
X138815000Y-84415000D03*
X139245000Y-84415000D03*
X139675000Y-84415000D03*
%TD*%
D13*
%TO.C,R13*%
X133520000Y-110600000D03*
X132880000Y-110600000D03*
%TD*%
D16*
%TO.C,C27*%
X162000000Y-101635000D03*
X162000000Y-102275000D03*
%TD*%
D14*
%TO.C,R16*%
X166400000Y-95200000D03*
X166400000Y-94560000D03*
%TD*%
M02*
