%TF.GenerationSoftware,KiCad,Pcbnew,7.0.6*%
%TF.CreationDate,2023-09-15T14:04:58+02:00*%
%TF.ProjectId,V8,56382e6b-6963-4616-945f-706362585858,rev?*%
%TF.SameCoordinates,Original*%
%TF.FileFunction,Other,User*%
%FSLAX46Y46*%
G04 Gerber Fmt 4.6, Leading zero omitted, Abs format (unit mm)*
G04 Created by KiCad (PCBNEW 7.0.6) date 2023-09-15 14:04:58*
%MOMM*%
%LPD*%
G01*
G04 APERTURE LIST*
%ADD10C,0.050000*%
%ADD11C,0.100000*%
G04 APERTURE END LIST*
D10*
%TO.C,J8*%
X167750000Y-101440000D02*
X167750000Y-108840000D01*
X167750000Y-108840000D02*
X170850000Y-108840000D01*
X170850000Y-101440000D02*
X167750000Y-101440000D01*
X170850000Y-108840000D02*
X170850000Y-101440000D01*
%TO.C,C23*%
X148300000Y-96650000D02*
X146900000Y-96650000D01*
X148300000Y-95950000D02*
X148300000Y-96650000D01*
X146900000Y-96650000D02*
X146900000Y-95950000D01*
X146900000Y-95950000D02*
X148300000Y-95950000D01*
%TO.C,C16*%
X150850000Y-83400000D02*
X150850000Y-82000000D01*
X151550000Y-83400000D02*
X150850000Y-83400000D01*
X150850000Y-82000000D02*
X151550000Y-82000000D01*
X151550000Y-82000000D02*
X151550000Y-83400000D01*
%TO.C,H4*%
X170750000Y-118000000D02*
G75*
G03*
X170750000Y-118000000I-2750000J0D01*
G01*
%TO.C,R15*%
X133900000Y-112450000D02*
X132500000Y-112450000D01*
X133900000Y-111750000D02*
X133900000Y-112450000D01*
X132500000Y-112450000D02*
X132500000Y-111750000D01*
X132500000Y-111750000D02*
X133900000Y-111750000D01*
%TO.C,C25*%
X148300000Y-93250000D02*
X146900000Y-93250000D01*
X148300000Y-92550000D02*
X148300000Y-93250000D01*
X146900000Y-93250000D02*
X146900000Y-92550000D01*
X146900000Y-92550000D02*
X148300000Y-92550000D01*
%TO.C,R17*%
X166750000Y-92700000D02*
X166750000Y-94100000D01*
X166050000Y-92700000D02*
X166750000Y-92700000D01*
X166750000Y-94100000D02*
X166050000Y-94100000D01*
X166050000Y-94100000D02*
X166050000Y-92700000D01*
%TO.C,U4*%
X141500000Y-102000000D02*
X141500000Y-106800000D01*
X136700000Y-102000000D02*
X141500000Y-102000000D01*
X141500000Y-106800000D02*
X136700000Y-106800000D01*
X136700000Y-106800000D02*
X136700000Y-102000000D01*
%TO.C,C28*%
X166000000Y-87050000D02*
X167400000Y-87050000D01*
X166000000Y-87750000D02*
X166000000Y-87050000D01*
X167400000Y-87050000D02*
X167400000Y-87750000D01*
X167400000Y-87750000D02*
X166000000Y-87750000D01*
%TO.C,H1*%
X134750000Y-82000000D02*
G75*
G03*
X134750000Y-82000000I-2750000J0D01*
G01*
%TO.C,U1*%
X148480000Y-86000000D02*
X148480000Y-92400000D01*
X148480000Y-98800000D02*
X148480000Y-92400000D01*
X149950000Y-85150000D02*
X149950000Y-86000000D01*
X149950000Y-86000000D02*
X148480000Y-86000000D01*
X149950000Y-98800000D02*
X148480000Y-98800000D01*
X149950000Y-99650000D02*
X149950000Y-98800000D01*
X150800000Y-83680000D02*
X150800000Y-85150000D01*
X150800000Y-85150000D02*
X149950000Y-85150000D01*
X150800000Y-99650000D02*
X149950000Y-99650000D01*
X150800000Y-101120000D02*
X150800000Y-99650000D01*
X157200000Y-83680000D02*
X150800000Y-83680000D01*
X157200000Y-83680000D02*
X163600000Y-83680000D01*
X157200000Y-101120000D02*
X150800000Y-101120000D01*
X157200000Y-101120000D02*
X163600000Y-101120000D01*
X163600000Y-83680000D02*
X163600000Y-85150000D01*
X163600000Y-85150000D02*
X164450000Y-85150000D01*
X163600000Y-99650000D02*
X164450000Y-99650000D01*
X163600000Y-101120000D02*
X163600000Y-99650000D01*
X164450000Y-85150000D02*
X164450000Y-86000000D01*
X164450000Y-86000000D02*
X165920000Y-86000000D01*
X164450000Y-98800000D02*
X165920000Y-98800000D01*
X164450000Y-99650000D02*
X164450000Y-98800000D01*
X165920000Y-86000000D02*
X165920000Y-92400000D01*
X165920000Y-98800000D02*
X165920000Y-92400000D01*
%TO.C,R14*%
X132500000Y-113350000D02*
X133900000Y-113350000D01*
X132500000Y-114050000D02*
X132500000Y-113350000D01*
X133900000Y-113350000D02*
X133900000Y-114050000D01*
X133900000Y-114050000D02*
X132500000Y-114050000D01*
%TO.C,C21*%
X166000000Y-86050000D02*
X167400000Y-86050000D01*
X166000000Y-86750000D02*
X166000000Y-86050000D01*
X167400000Y-86050000D02*
X167400000Y-86750000D01*
X167400000Y-86750000D02*
X166000000Y-86750000D01*
%TO.C,J4*%
X135550000Y-99680000D02*
X129150000Y-99680000D01*
X129150000Y-99680000D02*
X129150000Y-109120000D01*
X135550000Y-109120000D02*
X135550000Y-99680000D01*
X129150000Y-109120000D02*
X135550000Y-109120000D01*
%TO.C,C17*%
X148300000Y-89250000D02*
X146900000Y-89250000D01*
X148300000Y-88550000D02*
X148300000Y-89250000D01*
X146900000Y-89250000D02*
X146900000Y-88550000D01*
X146900000Y-88550000D02*
X148300000Y-88550000D01*
%TO.C,J2*%
X170850000Y-115150000D02*
X170850000Y-109050000D01*
X170850000Y-109050000D02*
X167750000Y-109050000D01*
X167750000Y-115150000D02*
X170850000Y-115150000D01*
X167750000Y-109050000D02*
X167750000Y-115150000D01*
%TO.C,C19*%
X150750000Y-102600000D02*
X150750000Y-101200000D01*
X151450000Y-102600000D02*
X150750000Y-102600000D01*
X150750000Y-101200000D02*
X151450000Y-101200000D01*
X151450000Y-101200000D02*
X151450000Y-102600000D01*
D11*
%TO.C,J5*%
X137000000Y-110400000D02*
X163000000Y-110400000D01*
X163000000Y-110400000D02*
X163000000Y-117400000D01*
X163000000Y-117400000D02*
X137000000Y-117400000D01*
X137000000Y-117400000D02*
X137000000Y-110400000D01*
D10*
%TO.C,H2*%
X170750000Y-82000000D02*
G75*
G03*
X170750000Y-82000000I-2750000J0D01*
G01*
%TO.C,C24*%
X148300000Y-95850000D02*
X146900000Y-95850000D01*
X148300000Y-95150000D02*
X148300000Y-95850000D01*
X146900000Y-95850000D02*
X146900000Y-95150000D01*
X146900000Y-95150000D02*
X148300000Y-95150000D01*
%TO.C,R19*%
X140950000Y-83345000D02*
X140950000Y-81945000D01*
X141650000Y-83345000D02*
X140950000Y-83345000D01*
X140950000Y-81945000D02*
X141650000Y-81945000D01*
X141650000Y-81945000D02*
X141650000Y-83345000D01*
%TO.C,C18*%
X148300000Y-91750000D02*
X146900000Y-91750000D01*
X148300000Y-91050000D02*
X148300000Y-91750000D01*
X146900000Y-91750000D02*
X146900000Y-91050000D01*
X146900000Y-91050000D02*
X148300000Y-91050000D01*
%TO.C,Y1*%
X143500000Y-101100000D02*
X143500000Y-103900000D01*
X143500000Y-103900000D02*
X146900000Y-103900000D01*
X146900000Y-101100000D02*
X143500000Y-101100000D01*
X146900000Y-103900000D02*
X146900000Y-101100000D01*
%TO.C,C20*%
X163600000Y-101255000D02*
X163600000Y-102655000D01*
X162900000Y-101255000D02*
X163600000Y-101255000D01*
X163600000Y-102655000D02*
X162900000Y-102655000D01*
X162900000Y-102655000D02*
X162900000Y-101255000D01*
%TO.C,U5*%
X165825000Y-104410000D02*
X162325000Y-104410000D01*
X162325000Y-104410000D02*
X162325000Y-108650000D01*
X165825000Y-108650000D02*
X165825000Y-104410000D01*
X162325000Y-108650000D02*
X165825000Y-108650000D01*
%TO.C,H3*%
X134750000Y-118000000D02*
G75*
G03*
X134750000Y-118000000I-2750000J0D01*
G01*
%TO.C,U3*%
X141500000Y-89700000D02*
X141500000Y-94500000D01*
X136700000Y-89700000D02*
X141500000Y-89700000D01*
X141500000Y-94500000D02*
X136700000Y-94500000D01*
X136700000Y-94500000D02*
X136700000Y-89700000D01*
%TO.C,C22*%
X149950000Y-83400000D02*
X149950000Y-82000000D01*
X150650000Y-83400000D02*
X149950000Y-83400000D01*
X149950000Y-82000000D02*
X150650000Y-82000000D01*
X150650000Y-82000000D02*
X150650000Y-83400000D01*
%TO.C,J3*%
X135550000Y-84880000D02*
X129150000Y-84880000D01*
X129150000Y-84880000D02*
X129150000Y-99320000D01*
X135550000Y-99320000D02*
X135550000Y-84880000D01*
X129150000Y-99320000D02*
X135550000Y-99320000D01*
%TO.C,Y2*%
X140997500Y-96750000D02*
X138597500Y-96750000D01*
X138597500Y-96750000D02*
X138597500Y-100750000D01*
X140997500Y-100750000D02*
X140997500Y-96750000D01*
X138597500Y-100750000D02*
X140997500Y-100750000D01*
%TO.C,R20*%
X140950000Y-84970000D02*
X140950000Y-83570000D01*
X141650000Y-84970000D02*
X140950000Y-84970000D01*
X140950000Y-83570000D02*
X141650000Y-83570000D01*
X141650000Y-83570000D02*
X141650000Y-84970000D01*
%TO.C,U2*%
X140700000Y-85040000D02*
X136500000Y-85040000D01*
X140700000Y-81340000D02*
X140700000Y-85040000D01*
X136500000Y-85040000D02*
X136500000Y-81340000D01*
X136500000Y-81340000D02*
X140700000Y-81340000D01*
%TO.C,R13*%
X133900000Y-110950000D02*
X132500000Y-110950000D01*
X133900000Y-110250000D02*
X133900000Y-110950000D01*
X132500000Y-110950000D02*
X132500000Y-110250000D01*
X132500000Y-110250000D02*
X133900000Y-110250000D01*
%TO.C,C27*%
X162350000Y-101255000D02*
X162350000Y-102655000D01*
X161650000Y-101255000D02*
X162350000Y-101255000D01*
X162350000Y-102655000D02*
X161650000Y-102655000D01*
X161650000Y-102655000D02*
X161650000Y-101255000D01*
%TO.C,R16*%
X166050000Y-95580000D02*
X166050000Y-94180000D01*
X166750000Y-95580000D02*
X166050000Y-95580000D01*
X166050000Y-94180000D02*
X166750000Y-94180000D01*
X166750000Y-94180000D02*
X166750000Y-95580000D01*
%TD*%
M02*
