%TF.GenerationSoftware,KiCad,Pcbnew,7.0.6*%
%TF.CreationDate,2023-09-15T14:04:58+02:00*%
%TF.ProjectId,V8,56382e6b-6963-4616-945f-706362585858,rev?*%
%TF.SameCoordinates,Original*%
%TF.FileFunction,Copper,L3,Inr*%
%TF.FilePolarity,Positive*%
%FSLAX46Y46*%
G04 Gerber Fmt 4.6, Leading zero omitted, Abs format (unit mm)*
G04 Created by KiCad (PCBNEW 7.0.6) date 2023-09-15 14:04:58*
%MOMM*%
%LPD*%
G01*
G04 APERTURE LIST*
%TA.AperFunction,ComponentPad*%
%ADD10R,1.000000X1.000000*%
%TD*%
%TA.AperFunction,ComponentPad*%
%ADD11O,1.000000X1.000000*%
%TD*%
%TA.AperFunction,ViaPad*%
%ADD12C,0.500000*%
%TD*%
%TA.AperFunction,Conductor*%
%ADD13C,0.200000*%
%TD*%
G04 APERTURE END LIST*
D10*
%TO.N,DCap*%
%TO.C,J8*%
X169300000Y-102590000D03*
D11*
%TO.N,SWCLK*%
X169300000Y-103860000D03*
%TO.N,OB GND*%
X169300000Y-105130000D03*
%TO.N,SWDIO*%
X169300000Y-106400000D03*
%TO.N,NRST*%
X169300000Y-107670000D03*
%TD*%
D10*
%TO.N,DCap*%
%TO.C,J2*%
X169300000Y-114000000D03*
D11*
%TO.N,OB GND*%
X169300000Y-112730000D03*
%TO.N,USART TX*%
X169300000Y-111460000D03*
%TO.N,USART RX*%
X169300000Y-110190000D03*
%TD*%
D12*
%TO.N,OB VBat*%
X151300000Y-109700000D03*
%TO.N,OPA1*%
X140800000Y-89300000D03*
X146100000Y-96900000D03*
%TO.N,1-*%
X140100000Y-89300000D03*
%TO.N,2-*%
X138100000Y-89300000D03*
%TO.N,OPA2*%
X145500000Y-97414069D03*
X137400000Y-89300000D03*
%TO.N,3-*%
X138100000Y-94900000D03*
%TO.N,OPA3*%
X146100000Y-97900000D03*
X137400000Y-94900000D03*
%TO.N,OPA4*%
X145500000Y-98400000D03*
X140800000Y-94900000D03*
%TO.N,4-*%
X140100000Y-94900000D03*
%TO.N,OPA5*%
X137400000Y-107200000D03*
X152700000Y-98700000D03*
%TO.N,5-*%
X138100000Y-107200000D03*
%TO.N,OPA6*%
X137400000Y-101600000D03*
X151650000Y-98150000D03*
%TO.N,6-*%
X138100000Y-101600000D03*
%TO.N,OB GND*%
X161900000Y-103700000D03*
X139100000Y-107200000D03*
X137400000Y-85400000D03*
X158880000Y-118000000D03*
X149400000Y-82400000D03*
X153050000Y-83200000D03*
X139100000Y-94900000D03*
X158900000Y-108900000D03*
X162550000Y-109180000D03*
X167020000Y-85700000D03*
X150100000Y-102200000D03*
X144500000Y-95500000D03*
X145200000Y-110005566D03*
X146000000Y-104400000D03*
X144000000Y-100700500D03*
X144750000Y-88900000D03*
X151150000Y-90600000D03*
X151150000Y-86425000D03*
X144800000Y-93300000D03*
X138052500Y-98750000D03*
X143300000Y-90650000D03*
%TO.N,Net-(U2-C1)*%
X139700000Y-85400000D03*
%TO.N,OSC_IN*%
X145500000Y-91900000D03*
X143000000Y-103100000D03*
%TO.N,OSC_OUT*%
X147400000Y-101900000D03*
X146100000Y-92349500D03*
%TO.N,OSC32_IN*%
X141452500Y-97450000D03*
X145500000Y-89900000D03*
%TO.N,Net-(U2-CAP)*%
X138437209Y-85408567D03*
%TO.N,OSC32_OUT*%
X146150500Y-90400000D03*
X141452500Y-100050000D03*
%TO.N,NRST*%
X147900000Y-93900000D03*
%TO.N,SPI NSS*%
X151150000Y-95300000D03*
X146100000Y-87400000D03*
%TO.N,SPI MOSI*%
X146100000Y-88400000D03*
%TO.N,SPI SCK*%
X146100000Y-86400000D03*
X151150000Y-91491144D03*
%TO.N,SPI MISO*%
X145500000Y-87900000D03*
%TO.N,OB SDA*%
X163725000Y-109180000D03*
%TO.N,OB SDB*%
X164425000Y-109180000D03*
%TO.N,OB SCK*%
X163700000Y-94400000D03*
X168200000Y-94400000D03*
%TO.N,OB PPS*%
X153600000Y-113600000D03*
X153750000Y-109800000D03*
%TO.N,USART RX*%
X165125000Y-103680000D03*
X167000000Y-96900000D03*
%TO.N,RS 485 RE*%
X164425000Y-103680000D03*
X166500000Y-98400000D03*
%TO.N,RS 485 DE*%
X163700000Y-97900000D03*
X163725000Y-103680000D03*
%TO.N,USART TX*%
X163700000Y-96950000D03*
X163025000Y-103680000D03*
%TO.N,DCap*%
X139100000Y-89300000D03*
X165500000Y-109180000D03*
X131400000Y-110600000D03*
X151150000Y-94350000D03*
X155250000Y-83200000D03*
X150150000Y-84250000D03*
X139100000Y-101600000D03*
X164400000Y-101600000D03*
X139050000Y-86350000D03*
X151150000Y-89000000D03*
X136000000Y-82100000D03*
X131400000Y-113700000D03*
X166400000Y-85000000D03*
X140299383Y-86350000D03*
X151142845Y-93157155D03*
X152200000Y-102250000D03*
X151150000Y-96400000D03*
X166400000Y-96150000D03*
X131400000Y-112100000D03*
X167450000Y-93100000D03*
%TO.N,OB 3v3*%
X154375354Y-109574647D03*
X144900000Y-117900000D03*
%TO.N,A02*%
X153200000Y-114200000D03*
X160200000Y-98200000D03*
%TO.N,A04*%
X160700000Y-98700000D03*
X152400000Y-114200000D03*
%TO.N,A06*%
X151600000Y-114200000D03*
X161200000Y-98200000D03*
%TO.N,A08*%
X150800000Y-114200000D03*
X161700000Y-98700000D03*
%TO.N,B02*%
X152800000Y-113600000D03*
X159700000Y-98700000D03*
%TO.N,B04*%
X152000000Y-113600000D03*
X159200000Y-98200000D03*
%TO.N,B06*%
X151200000Y-113600000D03*
X158700000Y-98700000D03*
%TO.N,B08*%
X150400000Y-113600000D03*
X158200000Y-98200000D03*
%TO.N,C01*%
X150000000Y-114200000D03*
X153200000Y-98200000D03*
%TO.N,C03*%
X153700000Y-98700000D03*
X149200000Y-114200000D03*
%TO.N,C05*%
X148400000Y-114200000D03*
X154200000Y-96800000D03*
%TO.N,C07*%
X147600000Y-114200000D03*
X154700000Y-98700000D03*
%TO.N,C09*%
X155200000Y-98200000D03*
X146800000Y-114200000D03*
%TO.N,D01*%
X157700000Y-98700000D03*
X149600000Y-113600000D03*
%TO.N,D03*%
X157200000Y-98200000D03*
X148800000Y-113600000D03*
%TO.N,D05*%
X148000000Y-113600000D03*
X156700000Y-98700000D03*
%TO.N,D07*%
X147200000Y-113600000D03*
X156200000Y-98200000D03*
%TO.N,D09*%
X155700000Y-98700000D03*
X146400000Y-113600000D03*
%TO.N,SWCLK*%
X163200000Y-86300000D03*
%TO.N,SWDIO*%
X168650000Y-87850000D03*
%TO.N,BOOT*%
X154182155Y-83217845D03*
%TO.N,OB 5v*%
X154400000Y-117800000D03*
X146000000Y-110005566D03*
%TD*%
D13*
%TO.N,OPA1*%
X140800000Y-93400000D02*
X140800000Y-89300000D01*
X142098528Y-93850000D02*
X141250000Y-93850000D01*
X141250000Y-93850000D02*
X140800000Y-93400000D01*
X146100000Y-96900000D02*
X145148528Y-96900000D01*
X145148528Y-96900000D02*
X142098528Y-93850000D01*
%TO.N,OPA2*%
X138050000Y-94150000D02*
X137400000Y-93500000D01*
X141974264Y-94150000D02*
X138050000Y-94150000D01*
X145238333Y-97414069D02*
X141974264Y-94150000D01*
X137400000Y-93500000D02*
X137400000Y-89300000D01*
X145500000Y-97414069D02*
X145238333Y-97414069D01*
%TO.N,OPA3*%
X146100000Y-97900000D02*
X145300000Y-97900000D01*
X141850000Y-94450000D02*
X137850000Y-94450000D01*
X137850000Y-94450000D02*
X137400000Y-94900000D01*
X145300000Y-97900000D02*
X141850000Y-94450000D01*
%TO.N,OPA4*%
X145375736Y-98400000D02*
X141875736Y-94900000D01*
X141875736Y-94900000D02*
X140800000Y-94900000D01*
X145500000Y-98400000D02*
X145375736Y-98400000D01*
%TO.N,OPA5*%
X137850000Y-106750000D02*
X137400000Y-107200000D01*
X143689339Y-101450500D02*
X143288839Y-101050000D01*
X143288839Y-101050000D02*
X141700000Y-101050000D01*
X149373764Y-101450500D02*
X143689339Y-101450500D01*
X141700000Y-101050000D02*
X137850000Y-104900000D01*
X152124264Y-98700000D02*
X149373764Y-101450500D01*
X152700000Y-98700000D02*
X152124264Y-98700000D01*
X137850000Y-104900000D02*
X137850000Y-106750000D01*
%TO.N,OPA6*%
X138250000Y-100750000D02*
X137400000Y-101600000D01*
X143813603Y-101150500D02*
X143413103Y-100750000D01*
X151650000Y-98750000D02*
X149249500Y-101150500D01*
X151650000Y-98150000D02*
X151650000Y-98750000D01*
X149249500Y-101150500D02*
X143813603Y-101150500D01*
X143413103Y-100750000D02*
X138250000Y-100750000D01*
%TO.N,SPI NSS*%
X149600000Y-94250000D02*
X149600000Y-90624264D01*
X148675736Y-87400000D02*
X146100000Y-87400000D01*
X149100000Y-90124264D02*
X149100000Y-87824264D01*
X151150000Y-95300000D02*
X150650000Y-95300000D01*
X149600000Y-90624264D02*
X149100000Y-90124264D01*
X150650000Y-95300000D02*
X149600000Y-94250000D01*
X149100000Y-87824264D02*
X148675736Y-87400000D01*
%TO.N,SPI SCK*%
X149400000Y-87700000D02*
X148100000Y-86400000D01*
X151150000Y-91491144D02*
X149400000Y-89741144D01*
X148100000Y-86400000D02*
X146100000Y-86400000D01*
X149400000Y-89741144D02*
X149400000Y-87700000D01*
%TO.N,SWCLK*%
X168660000Y-103860000D02*
X163200000Y-98400000D01*
X163200000Y-98400000D02*
X163200000Y-86300000D01*
X169300000Y-103860000D02*
X168660000Y-103860000D01*
%TD*%
%TA.AperFunction,Conductor*%
%TO.N,DCap*%
G36*
X134154245Y-79020185D02*
G01*
X134200000Y-79072989D01*
X134209321Y-79102964D01*
X134214370Y-79131603D01*
X134217691Y-79150436D01*
X134216369Y-79162283D01*
X134223433Y-79185570D01*
X134225162Y-79192807D01*
X134237000Y-79259940D01*
X134265216Y-79337461D01*
X134266047Y-79350543D01*
X134274211Y-79365817D01*
X134281374Y-79381858D01*
X134296874Y-79424443D01*
X134296878Y-79424451D01*
X134345630Y-79508892D01*
X134349113Y-79523248D01*
X134358870Y-79535138D01*
X134370402Y-79551798D01*
X134372580Y-79555570D01*
X134384407Y-79576055D01*
X134384410Y-79576059D01*
X134387514Y-79580492D01*
X134387141Y-79580752D01*
X134396493Y-79594588D01*
X134398382Y-79598122D01*
X134416841Y-79614710D01*
X134455962Y-79661331D01*
X134462540Y-79676361D01*
X134473006Y-79684950D01*
X134489330Y-79701097D01*
X134496938Y-79710164D01*
X134506004Y-79717771D01*
X134522152Y-79734096D01*
X134526293Y-79739142D01*
X134545771Y-79751140D01*
X134592391Y-79790258D01*
X134602296Y-79805146D01*
X134612513Y-79810607D01*
X134626345Y-79819958D01*
X134626607Y-79819586D01*
X134631043Y-79822692D01*
X134631047Y-79822694D01*
X134631048Y-79822695D01*
X134655306Y-79836700D01*
X134671967Y-79848231D01*
X134678933Y-79853947D01*
X134698211Y-79861471D01*
X134782660Y-79910227D01*
X134825256Y-79925730D01*
X134841295Y-79932892D01*
X134851531Y-79938363D01*
X134869640Y-79941884D01*
X134947168Y-79970102D01*
X135014298Y-79981938D01*
X135021534Y-79983667D01*
X135039787Y-79989203D01*
X135056660Y-79989407D01*
X135119574Y-80000501D01*
X135207107Y-80000500D01*
X135209142Y-80000500D01*
X135215224Y-80000799D01*
X135251489Y-80004371D01*
X135274334Y-80000500D01*
X164904031Y-80000500D01*
X164925648Y-80006847D01*
X164988291Y-80000788D01*
X164994264Y-80000500D01*
X165087528Y-80000500D01*
X165087532Y-80000500D01*
X165150646Y-79989371D01*
X165162445Y-79990687D01*
X165185617Y-79983658D01*
X165192843Y-79981931D01*
X165259938Y-79970101D01*
X165259943Y-79970099D01*
X165259944Y-79970099D01*
X165298880Y-79955927D01*
X165337589Y-79941837D01*
X165350637Y-79941008D01*
X165365852Y-79932876D01*
X165381893Y-79925712D01*
X165424445Y-79910225D01*
X165508973Y-79861421D01*
X165523309Y-79857943D01*
X165535172Y-79848208D01*
X165551825Y-79836681D01*
X165576055Y-79822692D01*
X165576060Y-79822687D01*
X165580491Y-79819586D01*
X165580755Y-79819964D01*
X165594566Y-79810623D01*
X165598087Y-79808740D01*
X165614657Y-79790300D01*
X165661395Y-79751083D01*
X165676406Y-79744514D01*
X165684975Y-79734073D01*
X165701126Y-79717745D01*
X165710163Y-79710163D01*
X165717745Y-79701126D01*
X165734073Y-79684975D01*
X165739100Y-79680849D01*
X165751081Y-79661398D01*
X165790298Y-79614660D01*
X165805171Y-79604765D01*
X165810623Y-79594566D01*
X165819964Y-79580755D01*
X165819586Y-79580491D01*
X165822687Y-79576061D01*
X165822687Y-79576060D01*
X165822692Y-79576055D01*
X165836681Y-79551825D01*
X165848208Y-79535172D01*
X165853904Y-79528230D01*
X165861422Y-79508973D01*
X165878084Y-79480115D01*
X165910225Y-79424445D01*
X165925712Y-79381893D01*
X165932876Y-79365852D01*
X165938319Y-79355668D01*
X165941838Y-79337589D01*
X165970099Y-79259944D01*
X165970100Y-79259940D01*
X165970101Y-79259938D01*
X165981931Y-79192843D01*
X165983658Y-79185617D01*
X165989166Y-79167459D01*
X165989370Y-79150649D01*
X165997778Y-79102965D01*
X166028805Y-79040364D01*
X166088753Y-79004474D01*
X166119894Y-79000500D01*
X167998378Y-79000500D01*
X168001619Y-79000584D01*
X168133628Y-79007503D01*
X168317027Y-79017803D01*
X168323212Y-79018465D01*
X168475647Y-79042608D01*
X168638194Y-79070226D01*
X168643811Y-79071453D01*
X168796693Y-79112418D01*
X168889122Y-79139046D01*
X168951724Y-79157082D01*
X168956759Y-79158769D01*
X169106183Y-79216127D01*
X169254007Y-79277358D01*
X169258412Y-79279388D01*
X169324180Y-79312899D01*
X169401921Y-79352511D01*
X169456514Y-79382683D01*
X169541480Y-79429641D01*
X169545215Y-79431882D01*
X169619487Y-79480115D01*
X169680872Y-79519980D01*
X169731032Y-79555570D01*
X169810764Y-79612142D01*
X169813886Y-79614510D01*
X169938748Y-79715621D01*
X169941034Y-79717567D01*
X170019413Y-79787610D01*
X170058669Y-79822692D01*
X170058721Y-79822738D01*
X170061248Y-79825128D01*
X170174870Y-79938750D01*
X170177260Y-79941277D01*
X170282431Y-80058964D01*
X170284385Y-80061260D01*
X170385480Y-80186102D01*
X170387862Y-80189243D01*
X170480019Y-80319127D01*
X170533758Y-80401875D01*
X170568106Y-80454767D01*
X170570364Y-80458531D01*
X170647488Y-80598078D01*
X170720604Y-80741575D01*
X170722643Y-80745997D01*
X170783877Y-80893829D01*
X170841221Y-81043217D01*
X170842916Y-81048273D01*
X170887579Y-81203297D01*
X170928541Y-81356171D01*
X170929778Y-81361835D01*
X170957394Y-81524369D01*
X170981530Y-81676758D01*
X170982196Y-81682985D01*
X170992509Y-81866617D01*
X170999415Y-81998377D01*
X170999500Y-82001623D01*
X170999500Y-117998376D01*
X170999415Y-118001622D01*
X170992509Y-118133382D01*
X170982196Y-118317013D01*
X170981530Y-118323240D01*
X170957394Y-118475630D01*
X170929778Y-118638163D01*
X170928541Y-118643827D01*
X170887579Y-118796702D01*
X170842916Y-118951725D01*
X170841221Y-118956781D01*
X170783877Y-119106170D01*
X170722643Y-119254001D01*
X170720604Y-119258423D01*
X170647488Y-119401921D01*
X170570364Y-119541467D01*
X170568097Y-119545246D01*
X170480019Y-119680872D01*
X170387862Y-119810755D01*
X170385480Y-119813896D01*
X170284385Y-119938738D01*
X170282431Y-119941034D01*
X170177260Y-120058721D01*
X170174870Y-120061248D01*
X170061248Y-120174870D01*
X170058721Y-120177260D01*
X169941034Y-120282431D01*
X169938738Y-120284385D01*
X169813896Y-120385480D01*
X169810755Y-120387862D01*
X169680872Y-120480019D01*
X169545246Y-120568097D01*
X169541467Y-120570364D01*
X169401921Y-120647488D01*
X169258423Y-120720604D01*
X169254001Y-120722643D01*
X169106170Y-120783877D01*
X168956781Y-120841221D01*
X168951725Y-120842916D01*
X168796702Y-120887579D01*
X168643827Y-120928541D01*
X168638163Y-120929778D01*
X168475630Y-120957394D01*
X168323240Y-120981530D01*
X168317013Y-120982196D01*
X168133382Y-120992509D01*
X168001622Y-120999415D01*
X167998376Y-120999500D01*
X132001624Y-120999500D01*
X131998378Y-120999415D01*
X131866617Y-120992509D01*
X131682985Y-120982196D01*
X131676758Y-120981530D01*
X131524369Y-120957394D01*
X131361835Y-120929778D01*
X131356171Y-120928541D01*
X131203297Y-120887579D01*
X131048273Y-120842916D01*
X131043217Y-120841221D01*
X130893829Y-120783877D01*
X130745997Y-120722643D01*
X130741575Y-120720604D01*
X130598078Y-120647488D01*
X130458531Y-120570364D01*
X130454767Y-120568106D01*
X130401875Y-120533758D01*
X130319127Y-120480019D01*
X130189243Y-120387862D01*
X130186102Y-120385480D01*
X130061260Y-120284385D01*
X130058964Y-120282431D01*
X129941277Y-120177260D01*
X129938750Y-120174870D01*
X129825128Y-120061248D01*
X129822738Y-120058721D01*
X129717567Y-119941034D01*
X129715613Y-119938738D01*
X129676848Y-119890867D01*
X129614510Y-119813886D01*
X129612136Y-119810755D01*
X129519980Y-119680872D01*
X129487406Y-119630715D01*
X129431882Y-119545215D01*
X129429641Y-119541480D01*
X129364748Y-119424063D01*
X129352511Y-119401921D01*
X129312896Y-119324173D01*
X129279388Y-119258412D01*
X129277358Y-119254007D01*
X129216122Y-119106170D01*
X129158769Y-118956759D01*
X129157082Y-118951724D01*
X129139046Y-118889122D01*
X129112414Y-118796679D01*
X129081272Y-118680456D01*
X129071453Y-118643811D01*
X129070226Y-118638194D01*
X129042601Y-118475606D01*
X129018465Y-118323212D01*
X129017803Y-118317027D01*
X129007490Y-118133382D01*
X129007016Y-118124335D01*
X130499500Y-118124335D01*
X130506796Y-118168056D01*
X130540429Y-118369616D01*
X130621169Y-118604802D01*
X130621172Y-118604811D01*
X130739524Y-118823506D01*
X130739526Y-118823509D01*
X130892262Y-119019744D01*
X130986133Y-119106158D01*
X131075217Y-119188166D01*
X131283393Y-119324173D01*
X131511118Y-119424063D01*
X131752175Y-119485107D01*
X131752179Y-119485108D01*
X131752181Y-119485108D01*
X131752186Y-119485109D01*
X131885376Y-119496145D01*
X131937933Y-119500500D01*
X131937935Y-119500500D01*
X132062065Y-119500500D01*
X132062067Y-119500500D01*
X132123284Y-119495427D01*
X132247813Y-119485109D01*
X132247816Y-119485108D01*
X132247821Y-119485108D01*
X132488881Y-119424063D01*
X132716607Y-119324173D01*
X132924785Y-119188164D01*
X133107738Y-119019744D01*
X133260474Y-118823509D01*
X133378828Y-118604810D01*
X133459571Y-118369614D01*
X133500500Y-118124335D01*
X133500500Y-117900002D01*
X144144751Y-117900002D01*
X144163685Y-118068056D01*
X144219545Y-118227694D01*
X144219547Y-118227697D01*
X144309518Y-118370884D01*
X144309523Y-118370890D01*
X144429109Y-118490476D01*
X144429115Y-118490481D01*
X144572302Y-118580452D01*
X144572305Y-118580454D01*
X144572309Y-118580455D01*
X144572310Y-118580456D01*
X144600946Y-118590476D01*
X144731943Y-118636314D01*
X144899997Y-118655249D01*
X144900000Y-118655249D01*
X144900003Y-118655249D01*
X145068056Y-118636314D01*
X145104302Y-118623631D01*
X145227690Y-118580456D01*
X145227692Y-118580454D01*
X145227694Y-118580454D01*
X145227697Y-118580452D01*
X145370884Y-118490481D01*
X145370885Y-118490480D01*
X145370890Y-118490477D01*
X145490477Y-118370890D01*
X145524322Y-118317027D01*
X145580452Y-118227697D01*
X145580454Y-118227694D01*
X145580454Y-118227692D01*
X145580456Y-118227690D01*
X145636313Y-118068059D01*
X145636313Y-118068058D01*
X145636314Y-118068056D01*
X145655249Y-117900002D01*
X145655249Y-117899997D01*
X145643982Y-117800002D01*
X153644751Y-117800002D01*
X153663685Y-117968056D01*
X153719545Y-118127694D01*
X153719547Y-118127697D01*
X153809518Y-118270884D01*
X153809523Y-118270890D01*
X153929109Y-118390476D01*
X153929115Y-118390481D01*
X154072302Y-118480452D01*
X154072305Y-118480454D01*
X154072309Y-118480455D01*
X154072310Y-118480456D01*
X154100946Y-118490476D01*
X154231943Y-118536314D01*
X154399997Y-118555249D01*
X154400000Y-118555249D01*
X154400003Y-118555249D01*
X154568056Y-118536314D01*
X154568059Y-118536313D01*
X154727690Y-118480456D01*
X154727692Y-118480454D01*
X154727694Y-118480454D01*
X154727697Y-118480452D01*
X154870884Y-118390481D01*
X154870885Y-118390480D01*
X154870890Y-118390477D01*
X154990477Y-118270890D01*
X155017622Y-118227690D01*
X155080452Y-118127697D01*
X155080454Y-118127694D01*
X155080454Y-118127692D01*
X155080456Y-118127690D01*
X155125136Y-118000002D01*
X158124751Y-118000002D01*
X158143685Y-118168056D01*
X158199545Y-118327694D01*
X158199547Y-118327697D01*
X158289518Y-118470884D01*
X158289523Y-118470890D01*
X158409109Y-118590476D01*
X158409115Y-118590481D01*
X158552302Y-118680452D01*
X158552305Y-118680454D01*
X158552309Y-118680455D01*
X158552310Y-118680456D01*
X158624913Y-118705860D01*
X158711943Y-118736314D01*
X158879997Y-118755249D01*
X158880000Y-118755249D01*
X158880003Y-118755249D01*
X159048056Y-118736314D01*
X159048059Y-118736313D01*
X159207690Y-118680456D01*
X159207692Y-118680454D01*
X159207694Y-118680454D01*
X159207697Y-118680452D01*
X159350884Y-118590481D01*
X159350885Y-118590480D01*
X159350890Y-118590477D01*
X159470477Y-118470890D01*
X159521005Y-118390476D01*
X159560452Y-118327697D01*
X159560454Y-118327694D01*
X159560454Y-118327692D01*
X159560456Y-118327690D01*
X159616313Y-118168059D01*
X159616313Y-118168058D01*
X159616314Y-118168056D01*
X159621240Y-118124335D01*
X166499500Y-118124335D01*
X166506796Y-118168056D01*
X166540429Y-118369616D01*
X166621169Y-118604802D01*
X166621172Y-118604811D01*
X166739524Y-118823506D01*
X166739526Y-118823509D01*
X166892262Y-119019744D01*
X166986133Y-119106158D01*
X167075217Y-119188166D01*
X167283393Y-119324173D01*
X167511118Y-119424063D01*
X167752175Y-119485107D01*
X167752179Y-119485108D01*
X167752181Y-119485108D01*
X167752186Y-119485109D01*
X167885376Y-119496145D01*
X167937933Y-119500500D01*
X167937935Y-119500500D01*
X168062065Y-119500500D01*
X168062067Y-119500500D01*
X168123284Y-119495427D01*
X168247813Y-119485109D01*
X168247816Y-119485108D01*
X168247821Y-119485108D01*
X168488881Y-119424063D01*
X168716607Y-119324173D01*
X168924785Y-119188164D01*
X169107738Y-119019744D01*
X169260474Y-118823509D01*
X169378828Y-118604810D01*
X169459571Y-118369614D01*
X169500500Y-118124335D01*
X169500500Y-117875665D01*
X169459571Y-117630386D01*
X169378828Y-117395190D01*
X169260474Y-117176491D01*
X169107738Y-116980256D01*
X168924785Y-116811836D01*
X168924782Y-116811833D01*
X168716606Y-116675826D01*
X168488881Y-116575936D01*
X168247824Y-116514892D01*
X168247813Y-116514890D01*
X168082548Y-116501197D01*
X168062067Y-116499500D01*
X167937933Y-116499500D01*
X167918521Y-116501108D01*
X167752186Y-116514890D01*
X167752175Y-116514892D01*
X167511118Y-116575936D01*
X167283393Y-116675826D01*
X167075217Y-116811833D01*
X166892261Y-116980257D01*
X166739524Y-117176493D01*
X166621172Y-117395188D01*
X166621169Y-117395197D01*
X166540429Y-117630383D01*
X166512126Y-117800000D01*
X166499500Y-117875665D01*
X166499500Y-118124335D01*
X159621240Y-118124335D01*
X159635249Y-118000002D01*
X159635249Y-117999997D01*
X159616314Y-117831943D01*
X159560454Y-117672305D01*
X159560452Y-117672302D01*
X159470481Y-117529115D01*
X159470476Y-117529109D01*
X159350890Y-117409523D01*
X159350884Y-117409518D01*
X159207697Y-117319547D01*
X159207694Y-117319545D01*
X159048056Y-117263685D01*
X158880003Y-117244751D01*
X158879997Y-117244751D01*
X158711943Y-117263685D01*
X158552305Y-117319545D01*
X158552302Y-117319547D01*
X158409115Y-117409518D01*
X158409109Y-117409523D01*
X158289523Y-117529109D01*
X158289518Y-117529115D01*
X158199547Y-117672302D01*
X158199545Y-117672305D01*
X158143685Y-117831943D01*
X158124751Y-117999997D01*
X158124751Y-118000002D01*
X155125136Y-118000002D01*
X155136313Y-117968059D01*
X155136313Y-117968058D01*
X155136314Y-117968056D01*
X155155249Y-117800002D01*
X155155249Y-117799997D01*
X155136314Y-117631943D01*
X155080454Y-117472305D01*
X155080452Y-117472302D01*
X154990481Y-117329115D01*
X154990476Y-117329109D01*
X154870890Y-117209523D01*
X154870884Y-117209518D01*
X154727697Y-117119547D01*
X154727694Y-117119545D01*
X154568056Y-117063685D01*
X154400003Y-117044751D01*
X154399997Y-117044751D01*
X154231943Y-117063685D01*
X154072305Y-117119545D01*
X154072302Y-117119547D01*
X153929115Y-117209518D01*
X153929109Y-117209523D01*
X153809523Y-117329109D01*
X153809518Y-117329115D01*
X153719547Y-117472302D01*
X153719545Y-117472305D01*
X153663685Y-117631943D01*
X153644751Y-117799997D01*
X153644751Y-117800002D01*
X145643982Y-117800002D01*
X145636314Y-117731943D01*
X145600778Y-117630386D01*
X145580456Y-117572310D01*
X145580455Y-117572309D01*
X145580454Y-117572305D01*
X145580452Y-117572302D01*
X145490481Y-117429115D01*
X145490476Y-117429109D01*
X145370890Y-117309523D01*
X145370884Y-117309518D01*
X145227697Y-117219547D01*
X145227694Y-117219545D01*
X145068056Y-117163685D01*
X144900003Y-117144751D01*
X144899997Y-117144751D01*
X144731943Y-117163685D01*
X144572305Y-117219545D01*
X144572302Y-117219547D01*
X144429115Y-117309518D01*
X144429109Y-117309523D01*
X144309523Y-117429109D01*
X144309518Y-117429115D01*
X144219547Y-117572302D01*
X144219545Y-117572305D01*
X144163685Y-117731943D01*
X144144751Y-117899997D01*
X144144751Y-117900002D01*
X133500500Y-117900002D01*
X133500500Y-117875665D01*
X133459571Y-117630386D01*
X133378828Y-117395190D01*
X133260474Y-117176491D01*
X133107738Y-116980256D01*
X132924785Y-116811836D01*
X132924782Y-116811833D01*
X132716606Y-116675826D01*
X132488881Y-116575936D01*
X132247824Y-116514892D01*
X132247813Y-116514890D01*
X132082548Y-116501197D01*
X132062067Y-116499500D01*
X131937933Y-116499500D01*
X131918521Y-116501108D01*
X131752186Y-116514890D01*
X131752175Y-116514892D01*
X131511118Y-116575936D01*
X131283393Y-116675826D01*
X131075217Y-116811833D01*
X130892261Y-116980257D01*
X130739524Y-117176493D01*
X130621172Y-117395188D01*
X130621169Y-117395197D01*
X130540429Y-117630383D01*
X130512126Y-117800000D01*
X130499500Y-117875665D01*
X130499500Y-118124335D01*
X129007016Y-118124335D01*
X129000584Y-118001620D01*
X129000500Y-117998377D01*
X129000500Y-113600002D01*
X145644751Y-113600002D01*
X145663685Y-113768056D01*
X145719545Y-113927694D01*
X145719547Y-113927697D01*
X145809518Y-114070884D01*
X145809523Y-114070890D01*
X145929110Y-114190477D01*
X146001844Y-114236179D01*
X146048135Y-114288514D01*
X146059092Y-114327288D01*
X146063685Y-114368053D01*
X146119544Y-114527692D01*
X146119547Y-114527697D01*
X146209518Y-114670884D01*
X146209523Y-114670890D01*
X146329109Y-114790476D01*
X146329115Y-114790481D01*
X146472302Y-114880452D01*
X146472305Y-114880454D01*
X146472309Y-114880455D01*
X146472310Y-114880456D01*
X146544913Y-114905860D01*
X146631943Y-114936314D01*
X146799997Y-114955249D01*
X146800000Y-114955249D01*
X146800003Y-114955249D01*
X146905605Y-114943350D01*
X146968059Y-114936313D01*
X147127690Y-114880456D01*
X147134024Y-114876475D01*
X147201258Y-114857472D01*
X147265975Y-114876475D01*
X147272304Y-114880452D01*
X147272312Y-114880457D01*
X147346020Y-114906248D01*
X147431941Y-114936313D01*
X147473955Y-114941047D01*
X147599997Y-114955249D01*
X147600000Y-114955249D01*
X147600003Y-114955249D01*
X147705605Y-114943350D01*
X147768059Y-114936313D01*
X147927690Y-114880456D01*
X147934024Y-114876475D01*
X148001258Y-114857472D01*
X148065975Y-114876475D01*
X148072304Y-114880452D01*
X148072312Y-114880457D01*
X148146020Y-114906248D01*
X148231941Y-114936313D01*
X148273955Y-114941047D01*
X148399997Y-114955249D01*
X148400000Y-114955249D01*
X148400003Y-114955249D01*
X148505605Y-114943350D01*
X148568059Y-114936313D01*
X148727690Y-114880456D01*
X148734024Y-114876475D01*
X148801258Y-114857472D01*
X148865975Y-114876475D01*
X148872304Y-114880452D01*
X148872312Y-114880457D01*
X148946020Y-114906248D01*
X149031941Y-114936313D01*
X149073955Y-114941047D01*
X149199997Y-114955249D01*
X149200000Y-114955249D01*
X149200003Y-114955249D01*
X149305605Y-114943350D01*
X149368059Y-114936313D01*
X149527690Y-114880456D01*
X149534024Y-114876475D01*
X149601258Y-114857472D01*
X149665975Y-114876475D01*
X149672304Y-114880452D01*
X149672312Y-114880457D01*
X149746020Y-114906248D01*
X149831941Y-114936313D01*
X149873955Y-114941047D01*
X149999997Y-114955249D01*
X150000000Y-114955249D01*
X150000003Y-114955249D01*
X150105605Y-114943350D01*
X150168059Y-114936313D01*
X150327690Y-114880456D01*
X150334024Y-114876475D01*
X150401258Y-114857472D01*
X150465975Y-114876475D01*
X150472304Y-114880452D01*
X150472312Y-114880457D01*
X150546020Y-114906248D01*
X150631941Y-114936313D01*
X150673955Y-114941047D01*
X150799997Y-114955249D01*
X150800000Y-114955249D01*
X150800003Y-114955249D01*
X150905605Y-114943350D01*
X150968059Y-114936313D01*
X151127690Y-114880456D01*
X151134024Y-114876475D01*
X151201258Y-114857472D01*
X151265975Y-114876475D01*
X151272304Y-114880452D01*
X151272312Y-114880457D01*
X151346020Y-114906248D01*
X151431941Y-114936313D01*
X151473955Y-114941047D01*
X151599997Y-114955249D01*
X151600000Y-114955249D01*
X151600003Y-114955249D01*
X151705605Y-114943350D01*
X151768059Y-114936313D01*
X151927690Y-114880456D01*
X151934024Y-114876475D01*
X152001258Y-114857472D01*
X152065975Y-114876475D01*
X152072304Y-114880452D01*
X152072312Y-114880457D01*
X152146020Y-114906248D01*
X152231941Y-114936313D01*
X152273955Y-114941047D01*
X152399997Y-114955249D01*
X152400000Y-114955249D01*
X152400003Y-114955249D01*
X152505605Y-114943350D01*
X152568059Y-114936313D01*
X152727690Y-114880456D01*
X152734024Y-114876475D01*
X152801258Y-114857472D01*
X152865975Y-114876475D01*
X152872304Y-114880452D01*
X152872312Y-114880457D01*
X152946020Y-114906248D01*
X153031941Y-114936313D01*
X153073955Y-114941047D01*
X153199997Y-114955249D01*
X153200000Y-114955249D01*
X153200003Y-114955249D01*
X153368056Y-114936314D01*
X153368059Y-114936313D01*
X153527690Y-114880456D01*
X153527692Y-114880454D01*
X153527694Y-114880454D01*
X153527697Y-114880452D01*
X153670884Y-114790481D01*
X153670885Y-114790480D01*
X153670890Y-114790477D01*
X153790477Y-114670890D01*
X153830384Y-114607379D01*
X153880452Y-114527697D01*
X153880453Y-114527693D01*
X153880456Y-114527690D01*
X153936313Y-114368059D01*
X153940907Y-114327288D01*
X153967970Y-114262878D01*
X153982529Y-114250000D01*
X168300000Y-114250000D01*
X168300000Y-114547844D01*
X168306401Y-114607372D01*
X168306403Y-114607379D01*
X168356645Y-114742086D01*
X168356649Y-114742093D01*
X168442809Y-114857187D01*
X168442812Y-114857190D01*
X168557906Y-114943350D01*
X168557913Y-114943354D01*
X168692620Y-114993596D01*
X168692627Y-114993598D01*
X168752155Y-114999999D01*
X168752172Y-115000000D01*
X169050000Y-115000000D01*
X169050000Y-114250000D01*
X168300000Y-114250000D01*
X153982529Y-114250000D01*
X153998155Y-114236179D01*
X154070887Y-114190479D01*
X154070887Y-114190478D01*
X154070890Y-114190477D01*
X154190477Y-114070890D01*
X154190481Y-114070884D01*
X154280452Y-113927697D01*
X154280454Y-113927694D01*
X154280454Y-113927692D01*
X154280456Y-113927690D01*
X154336313Y-113768059D01*
X154336313Y-113768058D01*
X154336314Y-113768056D01*
X154355249Y-113600002D01*
X154355249Y-113599997D01*
X154336314Y-113431943D01*
X154280454Y-113272305D01*
X154280452Y-113272302D01*
X154190481Y-113129115D01*
X154190476Y-113129109D01*
X154070890Y-113009523D01*
X154070884Y-113009518D01*
X153927697Y-112919547D01*
X153927694Y-112919545D01*
X153768056Y-112863685D01*
X153600003Y-112844751D01*
X153599997Y-112844751D01*
X153431943Y-112863685D01*
X153302250Y-112909067D01*
X153272310Y-112919544D01*
X153272308Y-112919544D01*
X153272308Y-112919545D01*
X153265967Y-112923529D01*
X153198730Y-112942525D01*
X153134033Y-112923529D01*
X153130284Y-112921173D01*
X153127690Y-112919544D01*
X153062844Y-112896853D01*
X152968056Y-112863685D01*
X152800003Y-112844751D01*
X152799997Y-112844751D01*
X152631943Y-112863685D01*
X152502250Y-112909067D01*
X152472310Y-112919544D01*
X152472308Y-112919544D01*
X152472308Y-112919545D01*
X152465967Y-112923529D01*
X152398730Y-112942525D01*
X152334033Y-112923529D01*
X152330284Y-112921173D01*
X152327690Y-112919544D01*
X152262844Y-112896853D01*
X152168056Y-112863685D01*
X152000003Y-112844751D01*
X151999997Y-112844751D01*
X151831943Y-112863685D01*
X151702250Y-112909067D01*
X151672310Y-112919544D01*
X151672308Y-112919544D01*
X151672308Y-112919545D01*
X151665967Y-112923529D01*
X151598730Y-112942525D01*
X151534033Y-112923529D01*
X151530284Y-112921173D01*
X151527690Y-112919544D01*
X151462844Y-112896853D01*
X151368056Y-112863685D01*
X151200003Y-112844751D01*
X151199997Y-112844751D01*
X151031943Y-112863685D01*
X150902250Y-112909067D01*
X150872310Y-112919544D01*
X150872308Y-112919544D01*
X150872308Y-112919545D01*
X150865967Y-112923529D01*
X150798730Y-112942525D01*
X150734033Y-112923529D01*
X150730284Y-112921173D01*
X150727690Y-112919544D01*
X150662844Y-112896853D01*
X150568056Y-112863685D01*
X150400003Y-112844751D01*
X150399997Y-112844751D01*
X150231943Y-112863685D01*
X150102250Y-112909067D01*
X150072310Y-112919544D01*
X150072308Y-112919544D01*
X150072308Y-112919545D01*
X150065967Y-112923529D01*
X149998730Y-112942525D01*
X149934033Y-112923529D01*
X149930284Y-112921173D01*
X149927690Y-112919544D01*
X149862844Y-112896853D01*
X149768056Y-112863685D01*
X149600003Y-112844751D01*
X149599997Y-112844751D01*
X149431943Y-112863685D01*
X149302250Y-112909067D01*
X149272310Y-112919544D01*
X149272308Y-112919544D01*
X149272308Y-112919545D01*
X149265967Y-112923529D01*
X149198730Y-112942525D01*
X149134033Y-112923529D01*
X149130284Y-112921173D01*
X149127690Y-112919544D01*
X149062844Y-112896853D01*
X148968056Y-112863685D01*
X148800003Y-112844751D01*
X148799997Y-112844751D01*
X148631943Y-112863685D01*
X148502250Y-112909067D01*
X148472310Y-112919544D01*
X148472308Y-112919544D01*
X148472308Y-112919545D01*
X148465967Y-112923529D01*
X148398730Y-112942525D01*
X148334033Y-112923529D01*
X148330284Y-112921173D01*
X148327690Y-112919544D01*
X148262844Y-112896853D01*
X148168056Y-112863685D01*
X148000003Y-112844751D01*
X147999997Y-112844751D01*
X147831943Y-112863685D01*
X147702250Y-112909067D01*
X147672310Y-112919544D01*
X147672308Y-112919544D01*
X147672308Y-112919545D01*
X147665967Y-112923529D01*
X147598730Y-112942525D01*
X147534033Y-112923529D01*
X147530284Y-112921173D01*
X147527690Y-112919544D01*
X147462844Y-112896853D01*
X147368056Y-112863685D01*
X147200003Y-112844751D01*
X147199997Y-112844751D01*
X147031943Y-112863685D01*
X146902250Y-112909067D01*
X146872310Y-112919544D01*
X146872308Y-112919544D01*
X146872308Y-112919545D01*
X146865967Y-112923529D01*
X146798730Y-112942525D01*
X146734033Y-112923529D01*
X146730284Y-112921173D01*
X146727690Y-112919544D01*
X146662844Y-112896853D01*
X146568056Y-112863685D01*
X146400003Y-112844751D01*
X146399997Y-112844751D01*
X146231943Y-112863685D01*
X146072305Y-112919545D01*
X146072302Y-112919547D01*
X145929115Y-113009518D01*
X145929109Y-113009523D01*
X145809523Y-113129109D01*
X145809518Y-113129115D01*
X145719547Y-113272302D01*
X145719545Y-113272305D01*
X145663685Y-113431943D01*
X145644751Y-113599997D01*
X145644751Y-113600002D01*
X129000500Y-113600002D01*
X129000500Y-112730000D01*
X168294659Y-112730000D01*
X168313975Y-112926129D01*
X168313976Y-112926132D01*
X168371186Y-113114727D01*
X168371187Y-113114730D01*
X168371188Y-113114731D01*
X168372583Y-113117341D01*
X168372901Y-113118870D01*
X168373518Y-113120359D01*
X168373235Y-113120475D01*
X168386824Y-113185743D01*
X168362492Y-113250102D01*
X168356648Y-113257907D01*
X168356645Y-113257913D01*
X168306403Y-113392620D01*
X168306401Y-113392627D01*
X168300000Y-113452155D01*
X168300000Y-113750000D01*
X169085517Y-113750000D01*
X169014199Y-113834993D01*
X168975000Y-113942694D01*
X168975000Y-114057306D01*
X169014199Y-114165007D01*
X169087871Y-114252805D01*
X169187129Y-114310112D01*
X169271564Y-114325000D01*
X169328436Y-114325000D01*
X169412871Y-114310112D01*
X169512129Y-114252805D01*
X169514483Y-114250000D01*
X169550000Y-114250000D01*
X169550000Y-115000000D01*
X169847828Y-115000000D01*
X169847844Y-114999999D01*
X169907372Y-114993598D01*
X169907379Y-114993596D01*
X170042086Y-114943354D01*
X170042093Y-114943350D01*
X170157187Y-114857190D01*
X170157190Y-114857187D01*
X170243350Y-114742093D01*
X170243354Y-114742086D01*
X170293596Y-114607379D01*
X170293598Y-114607372D01*
X170299999Y-114547844D01*
X170300000Y-114547827D01*
X170300000Y-114250000D01*
X169550000Y-114250000D01*
X169514483Y-114250000D01*
X169585801Y-114165007D01*
X169625000Y-114057306D01*
X169625000Y-113942694D01*
X169585801Y-113834993D01*
X169514483Y-113750000D01*
X170300000Y-113750000D01*
X170300000Y-113452172D01*
X170299999Y-113452155D01*
X170293598Y-113392627D01*
X170293597Y-113392623D01*
X170243351Y-113257908D01*
X170237510Y-113250106D01*
X170213091Y-113184642D01*
X170226752Y-113120466D01*
X170226483Y-113120355D01*
X170227086Y-113118899D01*
X170227418Y-113117338D01*
X170228814Y-113114727D01*
X170286024Y-112926132D01*
X170305341Y-112730000D01*
X170286024Y-112533868D01*
X170228814Y-112345273D01*
X170228811Y-112345269D01*
X170228811Y-112345266D01*
X170135913Y-112171467D01*
X170132527Y-112166399D01*
X170134164Y-112165305D01*
X170110403Y-112109341D01*
X170122202Y-112040475D01*
X170132889Y-112023851D01*
X170132523Y-112023607D01*
X170135904Y-112018544D01*
X170135910Y-112018538D01*
X170228814Y-111844727D01*
X170286024Y-111656132D01*
X170305341Y-111460000D01*
X170286024Y-111263868D01*
X170228814Y-111075273D01*
X170228811Y-111075269D01*
X170228811Y-111075266D01*
X170135913Y-110901467D01*
X170132527Y-110896399D01*
X170134164Y-110895305D01*
X170110403Y-110839341D01*
X170122202Y-110770475D01*
X170132889Y-110753851D01*
X170132523Y-110753607D01*
X170135904Y-110748544D01*
X170135910Y-110748538D01*
X170228814Y-110574727D01*
X170286024Y-110386132D01*
X170305341Y-110190000D01*
X170286024Y-109993868D01*
X170228814Y-109805273D01*
X170228811Y-109805269D01*
X170228811Y-109805266D01*
X170135913Y-109631467D01*
X170135909Y-109631460D01*
X170010883Y-109479116D01*
X169858539Y-109354090D01*
X169858532Y-109354086D01*
X169684733Y-109261188D01*
X169684727Y-109261186D01*
X169514418Y-109209523D01*
X169496129Y-109203975D01*
X169300000Y-109184659D01*
X169103870Y-109203975D01*
X168915266Y-109261188D01*
X168741467Y-109354086D01*
X168741460Y-109354090D01*
X168589116Y-109479116D01*
X168464090Y-109631460D01*
X168464086Y-109631467D01*
X168371188Y-109805266D01*
X168313975Y-109993870D01*
X168294659Y-110190000D01*
X168313975Y-110386129D01*
X168313976Y-110386132D01*
X168359533Y-110536314D01*
X168371187Y-110574730D01*
X168464089Y-110748536D01*
X168467474Y-110753601D01*
X168465833Y-110754697D01*
X168489595Y-110810638D01*
X168477806Y-110879506D01*
X168467106Y-110896162D01*
X168467469Y-110896405D01*
X168464087Y-110901465D01*
X168371188Y-111075266D01*
X168313975Y-111263870D01*
X168294659Y-111460000D01*
X168313975Y-111656129D01*
X168371187Y-111844730D01*
X168464089Y-112018536D01*
X168467474Y-112023601D01*
X168465833Y-112024697D01*
X168489595Y-112080638D01*
X168477806Y-112149506D01*
X168467106Y-112166162D01*
X168467469Y-112166405D01*
X168464087Y-112171465D01*
X168371188Y-112345266D01*
X168313975Y-112533870D01*
X168294659Y-112730000D01*
X129000500Y-112730000D01*
X129000500Y-110005568D01*
X144444751Y-110005568D01*
X144463685Y-110173622D01*
X144519545Y-110333260D01*
X144519547Y-110333263D01*
X144609518Y-110476450D01*
X144609523Y-110476456D01*
X144729109Y-110596042D01*
X144729115Y-110596047D01*
X144872302Y-110686018D01*
X144872305Y-110686020D01*
X144872309Y-110686021D01*
X144872310Y-110686022D01*
X144944913Y-110711426D01*
X145031943Y-110741880D01*
X145199997Y-110760815D01*
X145200000Y-110760815D01*
X145200003Y-110760815D01*
X145308933Y-110748541D01*
X145368059Y-110741879D01*
X145527690Y-110686022D01*
X145534024Y-110682041D01*
X145601258Y-110663038D01*
X145665975Y-110682041D01*
X145672304Y-110686018D01*
X145672312Y-110686023D01*
X145746020Y-110711814D01*
X145831941Y-110741879D01*
X145873955Y-110746612D01*
X145999997Y-110760815D01*
X146000000Y-110760815D01*
X146000003Y-110760815D01*
X146168056Y-110741880D01*
X146168059Y-110741879D01*
X146327690Y-110686022D01*
X146327692Y-110686020D01*
X146327694Y-110686020D01*
X146327697Y-110686018D01*
X146470884Y-110596047D01*
X146470885Y-110596046D01*
X146470890Y-110596043D01*
X146590477Y-110476456D01*
X146590481Y-110476450D01*
X146680452Y-110333263D01*
X146680454Y-110333260D01*
X146680454Y-110333258D01*
X146680456Y-110333256D01*
X146736313Y-110173625D01*
X146736313Y-110173624D01*
X146736314Y-110173622D01*
X146755249Y-110005568D01*
X146755249Y-110005563D01*
X146736314Y-109837509D01*
X146688198Y-109700002D01*
X150544751Y-109700002D01*
X150563685Y-109868056D01*
X150619545Y-110027694D01*
X150619547Y-110027697D01*
X150709518Y-110170884D01*
X150709523Y-110170890D01*
X150829109Y-110290476D01*
X150829115Y-110290481D01*
X150972302Y-110380452D01*
X150972305Y-110380454D01*
X150972309Y-110380455D01*
X150972310Y-110380456D01*
X151000960Y-110390481D01*
X151131943Y-110436314D01*
X151299997Y-110455249D01*
X151300000Y-110455249D01*
X151300003Y-110455249D01*
X151468056Y-110436314D01*
X151468059Y-110436313D01*
X151627690Y-110380456D01*
X151627692Y-110380454D01*
X151627694Y-110380454D01*
X151627697Y-110380452D01*
X151770884Y-110290481D01*
X151770885Y-110290480D01*
X151770890Y-110290477D01*
X151890477Y-110170890D01*
X151980452Y-110027697D01*
X151980454Y-110027694D01*
X151980454Y-110027692D01*
X151980456Y-110027690D01*
X152036313Y-109868059D01*
X152036313Y-109868058D01*
X152036314Y-109868056D01*
X152043982Y-109800002D01*
X152994751Y-109800002D01*
X153013685Y-109968056D01*
X153069545Y-110127694D01*
X153069547Y-110127697D01*
X153159518Y-110270884D01*
X153159523Y-110270890D01*
X153279109Y-110390476D01*
X153279115Y-110390481D01*
X153422302Y-110480452D01*
X153422305Y-110480454D01*
X153422309Y-110480455D01*
X153422310Y-110480456D01*
X153494913Y-110505860D01*
X153581943Y-110536314D01*
X153749997Y-110555249D01*
X153750000Y-110555249D01*
X153750003Y-110555249D01*
X153918056Y-110536314D01*
X153918059Y-110536313D01*
X154077690Y-110480456D01*
X154220890Y-110390477D01*
X154248752Y-110362614D01*
X154310074Y-110329129D01*
X154350320Y-110327075D01*
X154375353Y-110329896D01*
X154375354Y-110329896D01*
X154375357Y-110329896D01*
X154543409Y-110310961D01*
X154543411Y-110310960D01*
X154543413Y-110310960D01*
X154703044Y-110255103D01*
X154703046Y-110255101D01*
X154703048Y-110255101D01*
X154703051Y-110255099D01*
X154846238Y-110165128D01*
X154846239Y-110165127D01*
X154846244Y-110165124D01*
X154965831Y-110045537D01*
X154977045Y-110027690D01*
X155055806Y-109902344D01*
X155055808Y-109902341D01*
X155055808Y-109902339D01*
X155055810Y-109902337D01*
X155111667Y-109742706D01*
X155111667Y-109742705D01*
X155111668Y-109742703D01*
X155130603Y-109574649D01*
X155130603Y-109574644D01*
X155111668Y-109406590D01*
X155081214Y-109319560D01*
X155055810Y-109246957D01*
X155055809Y-109246956D01*
X155055808Y-109246952D01*
X155055806Y-109246949D01*
X154965835Y-109103762D01*
X154965830Y-109103756D01*
X154846244Y-108984170D01*
X154846238Y-108984165D01*
X154712294Y-108900002D01*
X158144751Y-108900002D01*
X158163685Y-109068056D01*
X158219545Y-109227694D01*
X158219547Y-109227697D01*
X158309518Y-109370884D01*
X158309523Y-109370890D01*
X158429109Y-109490476D01*
X158429115Y-109490481D01*
X158572302Y-109580452D01*
X158572305Y-109580454D01*
X158572309Y-109580455D01*
X158572310Y-109580456D01*
X158644913Y-109605860D01*
X158731943Y-109636314D01*
X158899997Y-109655249D01*
X158900000Y-109655249D01*
X158900003Y-109655249D01*
X159068056Y-109636314D01*
X159080548Y-109631943D01*
X159227690Y-109580456D01*
X159227692Y-109580454D01*
X159227694Y-109580454D01*
X159227697Y-109580452D01*
X159370884Y-109490481D01*
X159370885Y-109490480D01*
X159370890Y-109490477D01*
X159490477Y-109370890D01*
X159516726Y-109329115D01*
X159580452Y-109227697D01*
X159580454Y-109227694D01*
X159580454Y-109227692D01*
X159580456Y-109227690D01*
X159597143Y-109180002D01*
X161794751Y-109180002D01*
X161813685Y-109348056D01*
X161869545Y-109507694D01*
X161869547Y-109507697D01*
X161959518Y-109650884D01*
X161959523Y-109650890D01*
X162079109Y-109770476D01*
X162079115Y-109770481D01*
X162222302Y-109860452D01*
X162222305Y-109860454D01*
X162222309Y-109860455D01*
X162222310Y-109860456D01*
X162294913Y-109885860D01*
X162381943Y-109916314D01*
X162549997Y-109935249D01*
X162550000Y-109935249D01*
X162550003Y-109935249D01*
X162718056Y-109916314D01*
X162757980Y-109902344D01*
X162877690Y-109860456D01*
X162877692Y-109860454D01*
X162877694Y-109860454D01*
X162877697Y-109860452D01*
X163020884Y-109770481D01*
X163020885Y-109770480D01*
X163020890Y-109770477D01*
X163049819Y-109741548D01*
X163111142Y-109708063D01*
X163180834Y-109713047D01*
X163225181Y-109741548D01*
X163254109Y-109770476D01*
X163254115Y-109770481D01*
X163397302Y-109860452D01*
X163397305Y-109860454D01*
X163397309Y-109860455D01*
X163397310Y-109860456D01*
X163469913Y-109885860D01*
X163556943Y-109916314D01*
X163724997Y-109935249D01*
X163725000Y-109935249D01*
X163725003Y-109935249D01*
X163893059Y-109916313D01*
X163893060Y-109916313D01*
X163995361Y-109880515D01*
X164034045Y-109866979D01*
X164103824Y-109863418D01*
X164115952Y-109866979D01*
X164138371Y-109874824D01*
X164256939Y-109916313D01*
X164424997Y-109935249D01*
X164425000Y-109935249D01*
X164425003Y-109935249D01*
X164593056Y-109916314D01*
X164632980Y-109902344D01*
X164752690Y-109860456D01*
X164752692Y-109860454D01*
X164752694Y-109860454D01*
X164752697Y-109860452D01*
X164895884Y-109770481D01*
X164895885Y-109770480D01*
X164895890Y-109770477D01*
X165015477Y-109650890D01*
X165024636Y-109636314D01*
X165105452Y-109507697D01*
X165105454Y-109507694D01*
X165105454Y-109507692D01*
X165105456Y-109507690D01*
X165161313Y-109348059D01*
X165161313Y-109348058D01*
X165161314Y-109348056D01*
X165180249Y-109180002D01*
X165180249Y-109179997D01*
X165161314Y-109011943D01*
X165105454Y-108852305D01*
X165105452Y-108852302D01*
X165015481Y-108709115D01*
X165015476Y-108709109D01*
X164895890Y-108589523D01*
X164895884Y-108589518D01*
X164752697Y-108499547D01*
X164752694Y-108499545D01*
X164593056Y-108443685D01*
X164425003Y-108424751D01*
X164424997Y-108424751D01*
X164256942Y-108443686D01*
X164115953Y-108493020D01*
X164046174Y-108496581D01*
X164034044Y-108493019D01*
X163893060Y-108443686D01*
X163725003Y-108424751D01*
X163724997Y-108424751D01*
X163556943Y-108443685D01*
X163397305Y-108499545D01*
X163397302Y-108499547D01*
X163254115Y-108589518D01*
X163254109Y-108589523D01*
X163225181Y-108618452D01*
X163163858Y-108651937D01*
X163094166Y-108646953D01*
X163049819Y-108618452D01*
X163020890Y-108589523D01*
X163020884Y-108589518D01*
X162877697Y-108499547D01*
X162877694Y-108499545D01*
X162718056Y-108443685D01*
X162550003Y-108424751D01*
X162549997Y-108424751D01*
X162381943Y-108443685D01*
X162222305Y-108499545D01*
X162222302Y-108499547D01*
X162079115Y-108589518D01*
X162079109Y-108589523D01*
X161959523Y-108709109D01*
X161959518Y-108709115D01*
X161869547Y-108852302D01*
X161869545Y-108852305D01*
X161813685Y-109011943D01*
X161794751Y-109179997D01*
X161794751Y-109180002D01*
X159597143Y-109180002D01*
X159636313Y-109068059D01*
X159636313Y-109068058D01*
X159636314Y-109068056D01*
X159655249Y-108900002D01*
X159655249Y-108899997D01*
X159636314Y-108731943D01*
X159580454Y-108572305D01*
X159580452Y-108572302D01*
X159490481Y-108429115D01*
X159490476Y-108429109D01*
X159370890Y-108309523D01*
X159370884Y-108309518D01*
X159227697Y-108219547D01*
X159227694Y-108219545D01*
X159068056Y-108163685D01*
X158900003Y-108144751D01*
X158899997Y-108144751D01*
X158731943Y-108163685D01*
X158572305Y-108219545D01*
X158572302Y-108219547D01*
X158429115Y-108309518D01*
X158429109Y-108309523D01*
X158309523Y-108429109D01*
X158309518Y-108429115D01*
X158219547Y-108572302D01*
X158219545Y-108572305D01*
X158163685Y-108731943D01*
X158144751Y-108899997D01*
X158144751Y-108900002D01*
X154712294Y-108900002D01*
X154703051Y-108894194D01*
X154703048Y-108894192D01*
X154543410Y-108838332D01*
X154375357Y-108819398D01*
X154375351Y-108819398D01*
X154207297Y-108838332D01*
X154047659Y-108894192D01*
X154047656Y-108894194D01*
X153904466Y-108984167D01*
X153904463Y-108984169D01*
X153876597Y-109012035D01*
X153815272Y-109045518D01*
X153775036Y-109047571D01*
X153750005Y-109044751D01*
X153749997Y-109044751D01*
X153581943Y-109063685D01*
X153422305Y-109119545D01*
X153422302Y-109119547D01*
X153279115Y-109209518D01*
X153279109Y-109209523D01*
X153159523Y-109329109D01*
X153159518Y-109329115D01*
X153069547Y-109472302D01*
X153069545Y-109472305D01*
X153013685Y-109631943D01*
X152994751Y-109799997D01*
X152994751Y-109800002D01*
X152043982Y-109800002D01*
X152055249Y-109700002D01*
X152055249Y-109699997D01*
X152036314Y-109531943D01*
X151980454Y-109372305D01*
X151980452Y-109372302D01*
X151890481Y-109229115D01*
X151890476Y-109229109D01*
X151770890Y-109109523D01*
X151770884Y-109109518D01*
X151627697Y-109019547D01*
X151627694Y-109019545D01*
X151468056Y-108963685D01*
X151300003Y-108944751D01*
X151299997Y-108944751D01*
X151131943Y-108963685D01*
X150972305Y-109019545D01*
X150972302Y-109019547D01*
X150829115Y-109109518D01*
X150829109Y-109109523D01*
X150709523Y-109229109D01*
X150709518Y-109229115D01*
X150619547Y-109372302D01*
X150619545Y-109372305D01*
X150563685Y-109531943D01*
X150544751Y-109699997D01*
X150544751Y-109700002D01*
X146688198Y-109700002D01*
X146680454Y-109677871D01*
X146680452Y-109677868D01*
X146590481Y-109534681D01*
X146590476Y-109534675D01*
X146470890Y-109415089D01*
X146470884Y-109415084D01*
X146327697Y-109325113D01*
X146327694Y-109325111D01*
X146168056Y-109269251D01*
X146000003Y-109250317D01*
X145999997Y-109250317D01*
X145831943Y-109269251D01*
X145702250Y-109314633D01*
X145672310Y-109325110D01*
X145672308Y-109325110D01*
X145672308Y-109325111D01*
X145665967Y-109329095D01*
X145598730Y-109348091D01*
X145534033Y-109329095D01*
X145530284Y-109326739D01*
X145527690Y-109325110D01*
X145462844Y-109302419D01*
X145368056Y-109269251D01*
X145200003Y-109250317D01*
X145199997Y-109250317D01*
X145031943Y-109269251D01*
X144872305Y-109325111D01*
X144872302Y-109325113D01*
X144729115Y-109415084D01*
X144729109Y-109415089D01*
X144609523Y-109534675D01*
X144609518Y-109534681D01*
X144519547Y-109677868D01*
X144519545Y-109677871D01*
X144463685Y-109837509D01*
X144444751Y-110005563D01*
X144444751Y-110005568D01*
X129000500Y-110005568D01*
X129000500Y-107200002D01*
X136644751Y-107200002D01*
X136663685Y-107368056D01*
X136719545Y-107527694D01*
X136719547Y-107527697D01*
X136809518Y-107670884D01*
X136809523Y-107670890D01*
X136929109Y-107790476D01*
X136929115Y-107790481D01*
X137072302Y-107880452D01*
X137072305Y-107880454D01*
X137072309Y-107880455D01*
X137072310Y-107880456D01*
X137090955Y-107886980D01*
X137231943Y-107936314D01*
X137399997Y-107955249D01*
X137400000Y-107955249D01*
X137400003Y-107955249D01*
X137568059Y-107936313D01*
X137568060Y-107936313D01*
X137709045Y-107886980D01*
X137778824Y-107883418D01*
X137790955Y-107886980D01*
X137931939Y-107936313D01*
X138099997Y-107955249D01*
X138100000Y-107955249D01*
X138100003Y-107955249D01*
X138268056Y-107936314D01*
X138268059Y-107936313D01*
X138427690Y-107880456D01*
X138534028Y-107813638D01*
X138601263Y-107794638D01*
X138665970Y-107813638D01*
X138726589Y-107851727D01*
X138772306Y-107880454D01*
X138772307Y-107880454D01*
X138772310Y-107880456D01*
X138878730Y-107917694D01*
X138931943Y-107936314D01*
X139099997Y-107955249D01*
X139100000Y-107955249D01*
X139100003Y-107955249D01*
X139268056Y-107936314D01*
X139268059Y-107936313D01*
X139427690Y-107880456D01*
X139427692Y-107880454D01*
X139427694Y-107880454D01*
X139427697Y-107880452D01*
X139570884Y-107790481D01*
X139570885Y-107790480D01*
X139570890Y-107790477D01*
X139690477Y-107670890D01*
X139780452Y-107527697D01*
X139780454Y-107527694D01*
X139780454Y-107527692D01*
X139780456Y-107527690D01*
X139836313Y-107368059D01*
X139836313Y-107368058D01*
X139836314Y-107368056D01*
X139855249Y-107200002D01*
X139855249Y-107199997D01*
X139836314Y-107031943D01*
X139780454Y-106872305D01*
X139780452Y-106872302D01*
X139690481Y-106729115D01*
X139690476Y-106729109D01*
X139570890Y-106609523D01*
X139570884Y-106609518D01*
X139427697Y-106519547D01*
X139427694Y-106519545D01*
X139268056Y-106463685D01*
X139100003Y-106444751D01*
X139099997Y-106444751D01*
X138931943Y-106463685D01*
X138772307Y-106519545D01*
X138665972Y-106586360D01*
X138598735Y-106605360D01*
X138534027Y-106586359D01*
X138508527Y-106570336D01*
X138462236Y-106518001D01*
X138450500Y-106465343D01*
X138450500Y-105200096D01*
X138470185Y-105133057D01*
X138486814Y-105112420D01*
X139199232Y-104400002D01*
X145244751Y-104400002D01*
X145263685Y-104568056D01*
X145319545Y-104727694D01*
X145319547Y-104727697D01*
X145409518Y-104870884D01*
X145409523Y-104870890D01*
X145529109Y-104990476D01*
X145529115Y-104990481D01*
X145672302Y-105080452D01*
X145672305Y-105080454D01*
X145672309Y-105080455D01*
X145672310Y-105080456D01*
X145744913Y-105105860D01*
X145831943Y-105136314D01*
X145999997Y-105155249D01*
X146000000Y-105155249D01*
X146000003Y-105155249D01*
X146168056Y-105136314D01*
X146177364Y-105133057D01*
X146327690Y-105080456D01*
X146327692Y-105080454D01*
X146327694Y-105080454D01*
X146327697Y-105080452D01*
X146470884Y-104990481D01*
X146470885Y-104990480D01*
X146470890Y-104990477D01*
X146590477Y-104870890D01*
X146669408Y-104745273D01*
X146680452Y-104727697D01*
X146680454Y-104727694D01*
X146680454Y-104727692D01*
X146680456Y-104727690D01*
X146736313Y-104568059D01*
X146736313Y-104568058D01*
X146736314Y-104568056D01*
X146755249Y-104400002D01*
X146755249Y-104399997D01*
X146736314Y-104231943D01*
X146680454Y-104072305D01*
X146680452Y-104072302D01*
X146590481Y-103929115D01*
X146590476Y-103929109D01*
X146470890Y-103809523D01*
X146470884Y-103809518D01*
X146327697Y-103719547D01*
X146327694Y-103719545D01*
X146271844Y-103700002D01*
X161144751Y-103700002D01*
X161163685Y-103868056D01*
X161219545Y-104027694D01*
X161219547Y-104027697D01*
X161309518Y-104170884D01*
X161309523Y-104170890D01*
X161429109Y-104290476D01*
X161429115Y-104290481D01*
X161572302Y-104380452D01*
X161572305Y-104380454D01*
X161572309Y-104380455D01*
X161572310Y-104380456D01*
X161628155Y-104399997D01*
X161731943Y-104436314D01*
X161899997Y-104455249D01*
X161900000Y-104455249D01*
X161900003Y-104455249D01*
X162068056Y-104436314D01*
X162074306Y-104434127D01*
X162227690Y-104380456D01*
X162227692Y-104380454D01*
X162227694Y-104380454D01*
X162227697Y-104380452D01*
X162370884Y-104290481D01*
X162370884Y-104290480D01*
X162370890Y-104290477D01*
X162384949Y-104276417D01*
X162446268Y-104242933D01*
X162515959Y-104247916D01*
X162549947Y-104267156D01*
X162554118Y-104270483D01*
X162697302Y-104360452D01*
X162697305Y-104360454D01*
X162697309Y-104360455D01*
X162697310Y-104360456D01*
X162715955Y-104366980D01*
X162856943Y-104416314D01*
X163024997Y-104435249D01*
X163025000Y-104435249D01*
X163025003Y-104435249D01*
X163193059Y-104416313D01*
X163193060Y-104416313D01*
X163334045Y-104366980D01*
X163403824Y-104363418D01*
X163415955Y-104366980D01*
X163556939Y-104416313D01*
X163724997Y-104435249D01*
X163725000Y-104435249D01*
X163725003Y-104435249D01*
X163893059Y-104416313D01*
X163893060Y-104416313D01*
X164034045Y-104366980D01*
X164103824Y-104363418D01*
X164115955Y-104366980D01*
X164256939Y-104416313D01*
X164424997Y-104435249D01*
X164425000Y-104435249D01*
X164425003Y-104435249D01*
X164593059Y-104416313D01*
X164593060Y-104416313D01*
X164734045Y-104366980D01*
X164803824Y-104363418D01*
X164815955Y-104366980D01*
X164956939Y-104416313D01*
X165124997Y-104435249D01*
X165125000Y-104435249D01*
X165125003Y-104435249D01*
X165293056Y-104416314D01*
X165293059Y-104416313D01*
X165452690Y-104360456D01*
X165452692Y-104360454D01*
X165452694Y-104360454D01*
X165452697Y-104360452D01*
X165595884Y-104270481D01*
X165595885Y-104270480D01*
X165595890Y-104270477D01*
X165715477Y-104150890D01*
X165715481Y-104150884D01*
X165805452Y-104007697D01*
X165805454Y-104007694D01*
X165805454Y-104007692D01*
X165805456Y-104007690D01*
X165861313Y-103848059D01*
X165861313Y-103848058D01*
X165861314Y-103848056D01*
X165880249Y-103680002D01*
X165880249Y-103679997D01*
X165861314Y-103511943D01*
X165812454Y-103372310D01*
X165805456Y-103352310D01*
X165805455Y-103352309D01*
X165805454Y-103352305D01*
X165805452Y-103352302D01*
X165715481Y-103209115D01*
X165715476Y-103209109D01*
X165595890Y-103089523D01*
X165595884Y-103089518D01*
X165452697Y-102999547D01*
X165452694Y-102999545D01*
X165293056Y-102943685D01*
X165125003Y-102924751D01*
X165124997Y-102924751D01*
X164956943Y-102943685D01*
X164828977Y-102988463D01*
X164815958Y-102993019D01*
X164815955Y-102993020D01*
X164746176Y-102996581D01*
X164734045Y-102993020D01*
X164734042Y-102993019D01*
X164716813Y-102986990D01*
X164593056Y-102943685D01*
X164425003Y-102924751D01*
X164424997Y-102924751D01*
X164256942Y-102943686D01*
X164115953Y-102993020D01*
X164046174Y-102996581D01*
X164034044Y-102993019D01*
X163893060Y-102943686D01*
X163725003Y-102924751D01*
X163724997Y-102924751D01*
X163556942Y-102943686D01*
X163415953Y-102993020D01*
X163346174Y-102996581D01*
X163334044Y-102993019D01*
X163193060Y-102943686D01*
X163025003Y-102924751D01*
X163024997Y-102924751D01*
X162856943Y-102943685D01*
X162697305Y-102999545D01*
X162697302Y-102999547D01*
X162554115Y-103089518D01*
X162540049Y-103103584D01*
X162478725Y-103137067D01*
X162409033Y-103132081D01*
X162375053Y-103112844D01*
X162370894Y-103109527D01*
X162370890Y-103109523D01*
X162370884Y-103109519D01*
X162370880Y-103109516D01*
X162227697Y-103019547D01*
X162227694Y-103019545D01*
X162068056Y-102963685D01*
X161900003Y-102944751D01*
X161899997Y-102944751D01*
X161731943Y-102963685D01*
X161572305Y-103019545D01*
X161572302Y-103019547D01*
X161429115Y-103109518D01*
X161429109Y-103109523D01*
X161309523Y-103229109D01*
X161309518Y-103229115D01*
X161219547Y-103372302D01*
X161219545Y-103372305D01*
X161163685Y-103531943D01*
X161144751Y-103699997D01*
X161144751Y-103700002D01*
X146271844Y-103700002D01*
X146168056Y-103663685D01*
X146000003Y-103644751D01*
X145999997Y-103644751D01*
X145831943Y-103663685D01*
X145672305Y-103719545D01*
X145672302Y-103719547D01*
X145529115Y-103809518D01*
X145529109Y-103809523D01*
X145409523Y-103929109D01*
X145409518Y-103929115D01*
X145319547Y-104072302D01*
X145319545Y-104072305D01*
X145263685Y-104231943D01*
X145244751Y-104399997D01*
X145244751Y-104400002D01*
X139199232Y-104400002D01*
X140499233Y-103100002D01*
X142244751Y-103100002D01*
X142263685Y-103268056D01*
X142319545Y-103427694D01*
X142319547Y-103427697D01*
X142409518Y-103570884D01*
X142409523Y-103570890D01*
X142529109Y-103690476D01*
X142529115Y-103690481D01*
X142672302Y-103780452D01*
X142672305Y-103780454D01*
X142672309Y-103780455D01*
X142672310Y-103780456D01*
X142744913Y-103805860D01*
X142831943Y-103836314D01*
X142999997Y-103855249D01*
X143000000Y-103855249D01*
X143000003Y-103855249D01*
X143168056Y-103836314D01*
X143168059Y-103836313D01*
X143327690Y-103780456D01*
X143327692Y-103780454D01*
X143327694Y-103780454D01*
X143327697Y-103780452D01*
X143470884Y-103690481D01*
X143470885Y-103690480D01*
X143470890Y-103690477D01*
X143590477Y-103570890D01*
X143614949Y-103531943D01*
X143680452Y-103427697D01*
X143680454Y-103427694D01*
X143680454Y-103427692D01*
X143680456Y-103427690D01*
X143736313Y-103268059D01*
X143736313Y-103268058D01*
X143736314Y-103268056D01*
X143755249Y-103100002D01*
X143755249Y-103099997D01*
X143736314Y-102931943D01*
X143686813Y-102790477D01*
X143680456Y-102772310D01*
X143680455Y-102772309D01*
X143680454Y-102772305D01*
X143680452Y-102772302D01*
X143590481Y-102629115D01*
X143590476Y-102629109D01*
X143470890Y-102509523D01*
X143470884Y-102509518D01*
X143327697Y-102419547D01*
X143327694Y-102419545D01*
X143168056Y-102363685D01*
X143000003Y-102344751D01*
X142999997Y-102344751D01*
X142831943Y-102363685D01*
X142672305Y-102419545D01*
X142672302Y-102419547D01*
X142529115Y-102509518D01*
X142529109Y-102509523D01*
X142409523Y-102629109D01*
X142409518Y-102629115D01*
X142319547Y-102772302D01*
X142319545Y-102772305D01*
X142263685Y-102931943D01*
X142244751Y-103099997D01*
X142244751Y-103100002D01*
X140499233Y-103100002D01*
X141912416Y-101686819D01*
X141973739Y-101653334D01*
X142000097Y-101650500D01*
X142988742Y-101650500D01*
X143055781Y-101670185D01*
X143076423Y-101686819D01*
X143234008Y-101844404D01*
X143239359Y-101850505D01*
X143261057Y-101878782D01*
X143370256Y-101962572D01*
X143379033Y-101971943D01*
X143386498Y-101975035D01*
X143386498Y-101975036D01*
X143532577Y-102035543D01*
X143532577Y-102035544D01*
X143689338Y-102056183D01*
X143689339Y-102056183D01*
X143724673Y-102051530D01*
X143732773Y-102051000D01*
X146569735Y-102051000D01*
X146636774Y-102070685D01*
X146682529Y-102123489D01*
X146686777Y-102134046D01*
X146719544Y-102227691D01*
X146719547Y-102227697D01*
X146809518Y-102370884D01*
X146809523Y-102370890D01*
X146929109Y-102490476D01*
X146929115Y-102490481D01*
X147072302Y-102580452D01*
X147072305Y-102580454D01*
X147072309Y-102580455D01*
X147072310Y-102580456D01*
X147144913Y-102605860D01*
X147231943Y-102636314D01*
X147399997Y-102655249D01*
X147400000Y-102655249D01*
X147400003Y-102655249D01*
X147568056Y-102636314D01*
X147568059Y-102636313D01*
X147727690Y-102580456D01*
X147727692Y-102580454D01*
X147727694Y-102580454D01*
X147727697Y-102580452D01*
X147870884Y-102490481D01*
X147870885Y-102490480D01*
X147870890Y-102490477D01*
X147990477Y-102370890D01*
X148002722Y-102351403D01*
X148080452Y-102227697D01*
X148080455Y-102227691D01*
X148080456Y-102227690D01*
X148113223Y-102134045D01*
X148153945Y-102077270D01*
X148218897Y-102051522D01*
X148230265Y-102051000D01*
X149222783Y-102051000D01*
X149289822Y-102070685D01*
X149335577Y-102123489D01*
X149346003Y-102188880D01*
X149344751Y-102200000D01*
X149344751Y-102200003D01*
X149363685Y-102368056D01*
X149419545Y-102527694D01*
X149419547Y-102527697D01*
X149509518Y-102670884D01*
X149509523Y-102670890D01*
X149629109Y-102790476D01*
X149629115Y-102790481D01*
X149772302Y-102880452D01*
X149772305Y-102880454D01*
X149772309Y-102880455D01*
X149772310Y-102880456D01*
X149828484Y-102900112D01*
X149931943Y-102936314D01*
X150099997Y-102955249D01*
X150100000Y-102955249D01*
X150100003Y-102955249D01*
X150268056Y-102936314D01*
X150280548Y-102931943D01*
X150427690Y-102880456D01*
X150427692Y-102880454D01*
X150427694Y-102880454D01*
X150427697Y-102880452D01*
X150570884Y-102790481D01*
X150570885Y-102790480D01*
X150570890Y-102790477D01*
X150690477Y-102670890D01*
X150712203Y-102636314D01*
X150780452Y-102527697D01*
X150780454Y-102527694D01*
X150780454Y-102527692D01*
X150780456Y-102527690D01*
X150836313Y-102368059D01*
X150836313Y-102368058D01*
X150836314Y-102368056D01*
X150855249Y-102200002D01*
X150855249Y-102199997D01*
X150836314Y-102031943D01*
X150799834Y-101927690D01*
X150780456Y-101872310D01*
X150780455Y-101872309D01*
X150780454Y-101872305D01*
X150780452Y-101872302D01*
X150690481Y-101729115D01*
X150690476Y-101729109D01*
X150570890Y-101609523D01*
X150570884Y-101609518D01*
X150427697Y-101519547D01*
X150427691Y-101519544D01*
X150411180Y-101513767D01*
X150354404Y-101473045D01*
X150328656Y-101408093D01*
X150342112Y-101339531D01*
X150364450Y-101309047D01*
X152258496Y-99415001D01*
X152319817Y-99381518D01*
X152387129Y-99385642D01*
X152471040Y-99415003D01*
X152531941Y-99436313D01*
X152573955Y-99441047D01*
X152699997Y-99455249D01*
X152700000Y-99455249D01*
X152700003Y-99455249D01*
X152868056Y-99436314D01*
X152884803Y-99430454D01*
X153027690Y-99380456D01*
X153134028Y-99313638D01*
X153201263Y-99294638D01*
X153265970Y-99313638D01*
X153323630Y-99349868D01*
X153372306Y-99380454D01*
X153372307Y-99380454D01*
X153372310Y-99380456D01*
X153471040Y-99415003D01*
X153531943Y-99436314D01*
X153699997Y-99455249D01*
X153700000Y-99455249D01*
X153700003Y-99455249D01*
X153868056Y-99436314D01*
X153884803Y-99430454D01*
X154027690Y-99380456D01*
X154134028Y-99313638D01*
X154201263Y-99294638D01*
X154265970Y-99313638D01*
X154323630Y-99349868D01*
X154372306Y-99380454D01*
X154372307Y-99380454D01*
X154372310Y-99380456D01*
X154471040Y-99415003D01*
X154531943Y-99436314D01*
X154699997Y-99455249D01*
X154700000Y-99455249D01*
X154700003Y-99455249D01*
X154868056Y-99436314D01*
X154884803Y-99430454D01*
X155027690Y-99380456D01*
X155134028Y-99313638D01*
X155201263Y-99294638D01*
X155265970Y-99313638D01*
X155323630Y-99349868D01*
X155372306Y-99380454D01*
X155372307Y-99380454D01*
X155372310Y-99380456D01*
X155471040Y-99415003D01*
X155531943Y-99436314D01*
X155699997Y-99455249D01*
X155700000Y-99455249D01*
X155700003Y-99455249D01*
X155868056Y-99436314D01*
X155884803Y-99430454D01*
X156027690Y-99380456D01*
X156134030Y-99313637D01*
X156201262Y-99294638D01*
X156265971Y-99313638D01*
X156354945Y-99369545D01*
X156372307Y-99380454D01*
X156372305Y-99380454D01*
X156372309Y-99380455D01*
X156372310Y-99380456D01*
X156387131Y-99385642D01*
X156531943Y-99436314D01*
X156699997Y-99455249D01*
X156700000Y-99455249D01*
X156700003Y-99455249D01*
X156868056Y-99436314D01*
X156884803Y-99430454D01*
X157027690Y-99380456D01*
X157134028Y-99313638D01*
X157201263Y-99294638D01*
X157265970Y-99313638D01*
X157323630Y-99349868D01*
X157372306Y-99380454D01*
X157372307Y-99380454D01*
X157372310Y-99380456D01*
X157471040Y-99415003D01*
X157531943Y-99436314D01*
X157699997Y-99455249D01*
X157700000Y-99455249D01*
X157700003Y-99455249D01*
X157868056Y-99436314D01*
X157884803Y-99430454D01*
X158027690Y-99380456D01*
X158134028Y-99313638D01*
X158201263Y-99294638D01*
X158265970Y-99313638D01*
X158323630Y-99349868D01*
X158372306Y-99380454D01*
X158372307Y-99380454D01*
X158372310Y-99380456D01*
X158471040Y-99415003D01*
X158531943Y-99436314D01*
X158699997Y-99455249D01*
X158700000Y-99455249D01*
X158700003Y-99455249D01*
X158868056Y-99436314D01*
X158884803Y-99430454D01*
X159027690Y-99380456D01*
X159134028Y-99313638D01*
X159201263Y-99294638D01*
X159265970Y-99313638D01*
X159323630Y-99349868D01*
X159372306Y-99380454D01*
X159372307Y-99380454D01*
X159372310Y-99380456D01*
X159471040Y-99415003D01*
X159531943Y-99436314D01*
X159699997Y-99455249D01*
X159700000Y-99455249D01*
X159700003Y-99455249D01*
X159868056Y-99436314D01*
X159884803Y-99430454D01*
X160027690Y-99380456D01*
X160134028Y-99313638D01*
X160201263Y-99294638D01*
X160265970Y-99313638D01*
X160323630Y-99349868D01*
X160372306Y-99380454D01*
X160372307Y-99380454D01*
X160372310Y-99380456D01*
X160471040Y-99415003D01*
X160531943Y-99436314D01*
X160699997Y-99455249D01*
X160700000Y-99455249D01*
X160700003Y-99455249D01*
X160868056Y-99436314D01*
X160884803Y-99430454D01*
X161027690Y-99380456D01*
X161134028Y-99313638D01*
X161201263Y-99294638D01*
X161265970Y-99313638D01*
X161323630Y-99349868D01*
X161372306Y-99380454D01*
X161372307Y-99380454D01*
X161372310Y-99380456D01*
X161471040Y-99415003D01*
X161531943Y-99436314D01*
X161699997Y-99455249D01*
X161700000Y-99455249D01*
X161700003Y-99455249D01*
X161868056Y-99436314D01*
X161884809Y-99430452D01*
X162027690Y-99380456D01*
X162027692Y-99380454D01*
X162027694Y-99380454D01*
X162027697Y-99380452D01*
X162170884Y-99290481D01*
X162170885Y-99290480D01*
X162170890Y-99290477D01*
X162290477Y-99170890D01*
X162312203Y-99136314D01*
X162380452Y-99027697D01*
X162380454Y-99027694D01*
X162380454Y-99027692D01*
X162380456Y-99027690D01*
X162436313Y-98868059D01*
X162436313Y-98868057D01*
X162436314Y-98868055D01*
X162448748Y-98757698D01*
X162475814Y-98693284D01*
X162533409Y-98653729D01*
X162603246Y-98651591D01*
X162663152Y-98687549D01*
X162669965Y-98696814D01*
X162670516Y-98696392D01*
X162675463Y-98702839D01*
X162675464Y-98702841D01*
X162771718Y-98828282D01*
X162799995Y-98849980D01*
X162806085Y-98855320D01*
X165506468Y-101555703D01*
X168204669Y-104253904D01*
X168210022Y-104260007D01*
X168231718Y-104288283D01*
X168271811Y-104319045D01*
X168271811Y-104319046D01*
X168357159Y-104384536D01*
X168400110Y-104402326D01*
X168454512Y-104446166D01*
X168476578Y-104512459D01*
X168462016Y-104575339D01*
X168371188Y-104745268D01*
X168313975Y-104933870D01*
X168294659Y-105130000D01*
X168313975Y-105326129D01*
X168371188Y-105514733D01*
X168464086Y-105688532D01*
X168467473Y-105693601D01*
X168465832Y-105694697D01*
X168489594Y-105750638D01*
X168477805Y-105819506D01*
X168467109Y-105836156D01*
X168467473Y-105836399D01*
X168464086Y-105841467D01*
X168371188Y-106015266D01*
X168313975Y-106203870D01*
X168294659Y-106400000D01*
X168313975Y-106596129D01*
X168371188Y-106784733D01*
X168464086Y-106958532D01*
X168467473Y-106963601D01*
X168465836Y-106964694D01*
X168489596Y-107020663D01*
X168477795Y-107089529D01*
X168467109Y-107106156D01*
X168467473Y-107106399D01*
X168464086Y-107111467D01*
X168371188Y-107285266D01*
X168313975Y-107473870D01*
X168294659Y-107670000D01*
X168313975Y-107866129D01*
X168371188Y-108054733D01*
X168464086Y-108228532D01*
X168464090Y-108228539D01*
X168589116Y-108380883D01*
X168741460Y-108505909D01*
X168741467Y-108505913D01*
X168915266Y-108598811D01*
X168915269Y-108598811D01*
X168915273Y-108598814D01*
X169103868Y-108656024D01*
X169300000Y-108675341D01*
X169496132Y-108656024D01*
X169684727Y-108598814D01*
X169702110Y-108589523D01*
X169858532Y-108505913D01*
X169858538Y-108505910D01*
X170010883Y-108380883D01*
X170135910Y-108228538D01*
X170228814Y-108054727D01*
X170286024Y-107866132D01*
X170305341Y-107670000D01*
X170286024Y-107473868D01*
X170228814Y-107285273D01*
X170135910Y-107111462D01*
X170135907Y-107111458D01*
X170132523Y-107106393D01*
X170134164Y-107105296D01*
X170110405Y-107049361D01*
X170122194Y-106980493D01*
X170132888Y-106963851D01*
X170132523Y-106963607D01*
X170135904Y-106958544D01*
X170135910Y-106958538D01*
X170228814Y-106784727D01*
X170286024Y-106596132D01*
X170305341Y-106400000D01*
X170286024Y-106203868D01*
X170228814Y-106015273D01*
X170135910Y-105841462D01*
X170135907Y-105841458D01*
X170132523Y-105836393D01*
X170134160Y-105835298D01*
X170110403Y-105779336D01*
X170122204Y-105710470D01*
X170132888Y-105693851D01*
X170132523Y-105693607D01*
X170135904Y-105688544D01*
X170135910Y-105688538D01*
X170228814Y-105514727D01*
X170286024Y-105326132D01*
X170305341Y-105130000D01*
X170286024Y-104933868D01*
X170228814Y-104745273D01*
X170135910Y-104571462D01*
X170135907Y-104571458D01*
X170132523Y-104566393D01*
X170134164Y-104565296D01*
X170110405Y-104509361D01*
X170122194Y-104440493D01*
X170132888Y-104423851D01*
X170132523Y-104423607D01*
X170135904Y-104418544D01*
X170135910Y-104418538D01*
X170228814Y-104244727D01*
X170286024Y-104056132D01*
X170305341Y-103860000D01*
X170286024Y-103663868D01*
X170228814Y-103475273D01*
X170227419Y-103472663D01*
X170227100Y-103471135D01*
X170226482Y-103469641D01*
X170226765Y-103469523D01*
X170213174Y-103404261D01*
X170237512Y-103339890D01*
X170243351Y-103332089D01*
X170293597Y-103197376D01*
X170293598Y-103197372D01*
X170299999Y-103137844D01*
X170300000Y-103137827D01*
X170300000Y-102840000D01*
X169514483Y-102840000D01*
X169585801Y-102755007D01*
X169625000Y-102647306D01*
X169625000Y-102532694D01*
X169585801Y-102424993D01*
X169512129Y-102337195D01*
X169412871Y-102279888D01*
X169328436Y-102265000D01*
X169271564Y-102265000D01*
X169187129Y-102279888D01*
X169087871Y-102337195D01*
X169050000Y-102382327D01*
X169050000Y-101590000D01*
X169550000Y-101590000D01*
X169550000Y-102340000D01*
X170300000Y-102340000D01*
X170300000Y-102042172D01*
X170299999Y-102042155D01*
X170293598Y-101982627D01*
X170293596Y-101982620D01*
X170243354Y-101847913D01*
X170243350Y-101847906D01*
X170157190Y-101732812D01*
X170157187Y-101732809D01*
X170042093Y-101646649D01*
X170042086Y-101646645D01*
X169907379Y-101596403D01*
X169907372Y-101596401D01*
X169847844Y-101590000D01*
X169550000Y-101590000D01*
X169050000Y-101590000D01*
X168752155Y-101590000D01*
X168692627Y-101596401D01*
X168692620Y-101596403D01*
X168557913Y-101646645D01*
X168557906Y-101646649D01*
X168442812Y-101732809D01*
X168442809Y-101732812D01*
X168356649Y-101847906D01*
X168356645Y-101847913D01*
X168306403Y-101982620D01*
X168306401Y-101982627D01*
X168300000Y-102042155D01*
X168300000Y-102351403D01*
X168280315Y-102418442D01*
X168227511Y-102464197D01*
X168158353Y-102474141D01*
X168094797Y-102445116D01*
X168088319Y-102439084D01*
X164242982Y-98593747D01*
X164209497Y-98532424D01*
X164214481Y-98462732D01*
X164242982Y-98418385D01*
X164261365Y-98400002D01*
X165744751Y-98400002D01*
X165763685Y-98568056D01*
X165819545Y-98727694D01*
X165819547Y-98727697D01*
X165909518Y-98870884D01*
X165909523Y-98870890D01*
X166029109Y-98990476D01*
X166029115Y-98990481D01*
X166172302Y-99080452D01*
X166172305Y-99080454D01*
X166172309Y-99080455D01*
X166172310Y-99080456D01*
X166244913Y-99105860D01*
X166331943Y-99136314D01*
X166499997Y-99155249D01*
X166500000Y-99155249D01*
X166500003Y-99155249D01*
X166668056Y-99136314D01*
X166668059Y-99136313D01*
X166827690Y-99080456D01*
X166827692Y-99080454D01*
X166827694Y-99080454D01*
X166827697Y-99080452D01*
X166970884Y-98990481D01*
X166970885Y-98990480D01*
X166970890Y-98990477D01*
X167090477Y-98870890D01*
X167092256Y-98868059D01*
X167180452Y-98727697D01*
X167180454Y-98727694D01*
X167180455Y-98727691D01*
X167180456Y-98727690D01*
X167236313Y-98568059D01*
X167236313Y-98568058D01*
X167236314Y-98568056D01*
X167255249Y-98400002D01*
X167255249Y-98399997D01*
X167236314Y-98231943D01*
X167193477Y-98109523D01*
X167180456Y-98072310D01*
X167180455Y-98072309D01*
X167180454Y-98072305D01*
X167180452Y-98072302D01*
X167090481Y-97929115D01*
X167090476Y-97929109D01*
X167017257Y-97855890D01*
X166983772Y-97794567D01*
X166988756Y-97724875D01*
X167030628Y-97668942D01*
X167091054Y-97644989D01*
X167117727Y-97641984D01*
X167168055Y-97636314D01*
X167168057Y-97636313D01*
X167168059Y-97636313D01*
X167327690Y-97580456D01*
X167327692Y-97580454D01*
X167327694Y-97580454D01*
X167327697Y-97580452D01*
X167470884Y-97490481D01*
X167470885Y-97490480D01*
X167470890Y-97490477D01*
X167590477Y-97370890D01*
X167590481Y-97370884D01*
X167680452Y-97227697D01*
X167680454Y-97227694D01*
X167680454Y-97227692D01*
X167680456Y-97227690D01*
X167736313Y-97068059D01*
X167736313Y-97068058D01*
X167736314Y-97068056D01*
X167755249Y-96900002D01*
X167755249Y-96899997D01*
X167736314Y-96731943D01*
X167680454Y-96572305D01*
X167680452Y-96572302D01*
X167590481Y-96429115D01*
X167590476Y-96429109D01*
X167470890Y-96309523D01*
X167470884Y-96309518D01*
X167327697Y-96219547D01*
X167327694Y-96219545D01*
X167168056Y-96163685D01*
X167000003Y-96144751D01*
X166999997Y-96144751D01*
X166831943Y-96163685D01*
X166672305Y-96219545D01*
X166672302Y-96219547D01*
X166529115Y-96309518D01*
X166529109Y-96309523D01*
X166409523Y-96429109D01*
X166409518Y-96429115D01*
X166319547Y-96572302D01*
X166319545Y-96572305D01*
X166263685Y-96731943D01*
X166244751Y-96899997D01*
X166244751Y-96900002D01*
X166263685Y-97068056D01*
X166319545Y-97227694D01*
X166319547Y-97227697D01*
X166409518Y-97370884D01*
X166409523Y-97370890D01*
X166482742Y-97444109D01*
X166516227Y-97505432D01*
X166511243Y-97575124D01*
X166469371Y-97631057D01*
X166408945Y-97655010D01*
X166331943Y-97663685D01*
X166172305Y-97719545D01*
X166172302Y-97719547D01*
X166029115Y-97809518D01*
X166029109Y-97809523D01*
X165909523Y-97929109D01*
X165909518Y-97929115D01*
X165819547Y-98072302D01*
X165819545Y-98072305D01*
X165763685Y-98231943D01*
X165744751Y-98399997D01*
X165744751Y-98400002D01*
X164261365Y-98400002D01*
X164261370Y-98399997D01*
X164290477Y-98370890D01*
X164323675Y-98318056D01*
X164380452Y-98227697D01*
X164380454Y-98227694D01*
X164380454Y-98227692D01*
X164380456Y-98227690D01*
X164436313Y-98068059D01*
X164436313Y-98068058D01*
X164436314Y-98068056D01*
X164455249Y-97900002D01*
X164455249Y-97899997D01*
X164436314Y-97731943D01*
X164393477Y-97609523D01*
X164380456Y-97572310D01*
X164380454Y-97572307D01*
X164380454Y-97572306D01*
X164329348Y-97490972D01*
X164310347Y-97423735D01*
X164329346Y-97359029D01*
X164380456Y-97277690D01*
X164436313Y-97118059D01*
X164436313Y-97118058D01*
X164436314Y-97118056D01*
X164455249Y-96950002D01*
X164455249Y-96949997D01*
X164436314Y-96781943D01*
X164405804Y-96694751D01*
X164380456Y-96622310D01*
X164380455Y-96622309D01*
X164380454Y-96622305D01*
X164380452Y-96622302D01*
X164290481Y-96479115D01*
X164290476Y-96479109D01*
X164170890Y-96359523D01*
X164170884Y-96359518D01*
X164027697Y-96269547D01*
X164027691Y-96269544D01*
X163883546Y-96219106D01*
X163826769Y-96178384D01*
X163801022Y-96113431D01*
X163800500Y-96102064D01*
X163800500Y-95247936D01*
X163820185Y-95180897D01*
X163872989Y-95135142D01*
X163883546Y-95130894D01*
X163903804Y-95123805D01*
X164027690Y-95080456D01*
X164027693Y-95080453D01*
X164027697Y-95080452D01*
X164170884Y-94990481D01*
X164170885Y-94990480D01*
X164170890Y-94990477D01*
X164290477Y-94870890D01*
X164293969Y-94865333D01*
X164380452Y-94727697D01*
X164380454Y-94727694D01*
X164380454Y-94727692D01*
X164380456Y-94727690D01*
X164436313Y-94568059D01*
X164436313Y-94568058D01*
X164436314Y-94568056D01*
X164455249Y-94400002D01*
X167444751Y-94400002D01*
X167463685Y-94568056D01*
X167519545Y-94727694D01*
X167519547Y-94727697D01*
X167609518Y-94870884D01*
X167609523Y-94870890D01*
X167729109Y-94990476D01*
X167729115Y-94990481D01*
X167872302Y-95080452D01*
X167872305Y-95080454D01*
X167872309Y-95080455D01*
X167872310Y-95080456D01*
X167944913Y-95105860D01*
X168031943Y-95136314D01*
X168199997Y-95155249D01*
X168200000Y-95155249D01*
X168200003Y-95155249D01*
X168368056Y-95136314D01*
X168368059Y-95136313D01*
X168527690Y-95080456D01*
X168527692Y-95080454D01*
X168527694Y-95080454D01*
X168527697Y-95080452D01*
X168670884Y-94990481D01*
X168670885Y-94990480D01*
X168670890Y-94990477D01*
X168790477Y-94870890D01*
X168793969Y-94865333D01*
X168880452Y-94727697D01*
X168880454Y-94727694D01*
X168880454Y-94727692D01*
X168880456Y-94727690D01*
X168936313Y-94568059D01*
X168936313Y-94568058D01*
X168936314Y-94568056D01*
X168955249Y-94400002D01*
X168955249Y-94399997D01*
X168936314Y-94231943D01*
X168880454Y-94072305D01*
X168880452Y-94072302D01*
X168790481Y-93929115D01*
X168790476Y-93929109D01*
X168670890Y-93809523D01*
X168670884Y-93809518D01*
X168527697Y-93719547D01*
X168527694Y-93719545D01*
X168368056Y-93663685D01*
X168200003Y-93644751D01*
X168199997Y-93644751D01*
X168031943Y-93663685D01*
X167872305Y-93719545D01*
X167872302Y-93719547D01*
X167729115Y-93809518D01*
X167729109Y-93809523D01*
X167609523Y-93929109D01*
X167609518Y-93929115D01*
X167519547Y-94072302D01*
X167519545Y-94072305D01*
X167463685Y-94231943D01*
X167444751Y-94399997D01*
X167444751Y-94400002D01*
X164455249Y-94400002D01*
X164455249Y-94399997D01*
X164436314Y-94231943D01*
X164380454Y-94072305D01*
X164380452Y-94072302D01*
X164290481Y-93929115D01*
X164290476Y-93929109D01*
X164170890Y-93809523D01*
X164170884Y-93809518D01*
X164027697Y-93719547D01*
X164027691Y-93719544D01*
X163883546Y-93669106D01*
X163826769Y-93628384D01*
X163801022Y-93563431D01*
X163800500Y-93552064D01*
X163800500Y-87850002D01*
X167894751Y-87850002D01*
X167913685Y-88018056D01*
X167969545Y-88177694D01*
X167969547Y-88177697D01*
X168059518Y-88320884D01*
X168059523Y-88320890D01*
X168179109Y-88440476D01*
X168179115Y-88440481D01*
X168322302Y-88530452D01*
X168322305Y-88530454D01*
X168322309Y-88530455D01*
X168322310Y-88530456D01*
X168363163Y-88544751D01*
X168481943Y-88586314D01*
X168649997Y-88605249D01*
X168650000Y-88605249D01*
X168650003Y-88605249D01*
X168818056Y-88586314D01*
X168858077Y-88572310D01*
X168977690Y-88530456D01*
X168977692Y-88530454D01*
X168977694Y-88530454D01*
X168977697Y-88530452D01*
X169120884Y-88440481D01*
X169120885Y-88440480D01*
X169120890Y-88440477D01*
X169240477Y-88320890D01*
X169240481Y-88320884D01*
X169330452Y-88177697D01*
X169330454Y-88177694D01*
X169330454Y-88177692D01*
X169330456Y-88177690D01*
X169386313Y-88018059D01*
X169386313Y-88018058D01*
X169386314Y-88018056D01*
X169405249Y-87850002D01*
X169405249Y-87849997D01*
X169386314Y-87681943D01*
X169337779Y-87543238D01*
X169330456Y-87522310D01*
X169330455Y-87522309D01*
X169330454Y-87522305D01*
X169330452Y-87522302D01*
X169240481Y-87379115D01*
X169240476Y-87379109D01*
X169120890Y-87259523D01*
X169120884Y-87259518D01*
X168977697Y-87169547D01*
X168977694Y-87169545D01*
X168818056Y-87113685D01*
X168650003Y-87094751D01*
X168649997Y-87094751D01*
X168481943Y-87113685D01*
X168322305Y-87169545D01*
X168322302Y-87169547D01*
X168179115Y-87259518D01*
X168179109Y-87259523D01*
X168059523Y-87379109D01*
X168059518Y-87379115D01*
X167969547Y-87522302D01*
X167969545Y-87522305D01*
X167913685Y-87681943D01*
X167894751Y-87849997D01*
X167894751Y-87850002D01*
X163800500Y-87850002D01*
X163800500Y-86790662D01*
X163819507Y-86724689D01*
X163825427Y-86715265D01*
X163880456Y-86627690D01*
X163936313Y-86468059D01*
X163955249Y-86300000D01*
X163955249Y-86299997D01*
X163936314Y-86131943D01*
X163891270Y-86003216D01*
X163880456Y-85972310D01*
X163880455Y-85972309D01*
X163880454Y-85972305D01*
X163880452Y-85972302D01*
X163790481Y-85829115D01*
X163790476Y-85829109D01*
X163670890Y-85709523D01*
X163670884Y-85709518D01*
X163655739Y-85700002D01*
X166264751Y-85700002D01*
X166283685Y-85868056D01*
X166339545Y-86027694D01*
X166339547Y-86027697D01*
X166429518Y-86170884D01*
X166429523Y-86170890D01*
X166549109Y-86290476D01*
X166549115Y-86290481D01*
X166692302Y-86380452D01*
X166692305Y-86380454D01*
X166692309Y-86380455D01*
X166692310Y-86380456D01*
X166748155Y-86399997D01*
X166851943Y-86436314D01*
X167019997Y-86455249D01*
X167020000Y-86455249D01*
X167020003Y-86455249D01*
X167188056Y-86436314D01*
X167220384Y-86425002D01*
X167347690Y-86380456D01*
X167347692Y-86380454D01*
X167347694Y-86380454D01*
X167347697Y-86380452D01*
X167490884Y-86290481D01*
X167490885Y-86290480D01*
X167490890Y-86290477D01*
X167610477Y-86170890D01*
X167626820Y-86144881D01*
X167700452Y-86027697D01*
X167700454Y-86027694D01*
X167700454Y-86027692D01*
X167700456Y-86027690D01*
X167756313Y-85868059D01*
X167756313Y-85868058D01*
X167756314Y-85868056D01*
X167775249Y-85700002D01*
X167775249Y-85699997D01*
X167756314Y-85531943D01*
X167700454Y-85372305D01*
X167700452Y-85372302D01*
X167610481Y-85229115D01*
X167610476Y-85229109D01*
X167490890Y-85109523D01*
X167490884Y-85109518D01*
X167347697Y-85019547D01*
X167347694Y-85019545D01*
X167188056Y-84963685D01*
X167020003Y-84944751D01*
X167019997Y-84944751D01*
X166851943Y-84963685D01*
X166692305Y-85019545D01*
X166692302Y-85019547D01*
X166549115Y-85109518D01*
X166549109Y-85109523D01*
X166429523Y-85229109D01*
X166429518Y-85229115D01*
X166339547Y-85372302D01*
X166339545Y-85372305D01*
X166283685Y-85531943D01*
X166264751Y-85699997D01*
X166264751Y-85700002D01*
X163655739Y-85700002D01*
X163527697Y-85619547D01*
X163527694Y-85619545D01*
X163368056Y-85563685D01*
X163200003Y-85544751D01*
X163199997Y-85544751D01*
X163031943Y-85563685D01*
X162872305Y-85619545D01*
X162872302Y-85619547D01*
X162729115Y-85709518D01*
X162729109Y-85709523D01*
X162609523Y-85829109D01*
X162609518Y-85829115D01*
X162519547Y-85972302D01*
X162519545Y-85972305D01*
X162463685Y-86131943D01*
X162444751Y-86299997D01*
X162444751Y-86300002D01*
X162463686Y-86468057D01*
X162519544Y-86627690D01*
X162580493Y-86724689D01*
X162599500Y-86790662D01*
X162599500Y-98290502D01*
X162579815Y-98357541D01*
X162527011Y-98403296D01*
X162457853Y-98413240D01*
X162394297Y-98384215D01*
X162370507Y-98356475D01*
X162290478Y-98229111D01*
X162170890Y-98109523D01*
X162170884Y-98109518D01*
X162027697Y-98019547D01*
X162027691Y-98019544D01*
X161974985Y-98001102D01*
X161918209Y-97960380D01*
X161898897Y-97925013D01*
X161880456Y-97872310D01*
X161880452Y-97872302D01*
X161790481Y-97729115D01*
X161790476Y-97729109D01*
X161670890Y-97609523D01*
X161670884Y-97609518D01*
X161527697Y-97519547D01*
X161527694Y-97519545D01*
X161368056Y-97463685D01*
X161200003Y-97444751D01*
X161199997Y-97444751D01*
X161031943Y-97463685D01*
X160872307Y-97519545D01*
X160765972Y-97586361D01*
X160698736Y-97605361D01*
X160634028Y-97586361D01*
X160527692Y-97519545D01*
X160527691Y-97519544D01*
X160527690Y-97519544D01*
X160487360Y-97505432D01*
X160368056Y-97463685D01*
X160200003Y-97444751D01*
X160199997Y-97444751D01*
X160031943Y-97463685D01*
X159872307Y-97519545D01*
X159765972Y-97586361D01*
X159698736Y-97605361D01*
X159634028Y-97586361D01*
X159527692Y-97519545D01*
X159527691Y-97519544D01*
X159527690Y-97519544D01*
X159487360Y-97505432D01*
X159368056Y-97463685D01*
X159200003Y-97444751D01*
X159199997Y-97444751D01*
X159031943Y-97463685D01*
X158872307Y-97519545D01*
X158765972Y-97586361D01*
X158698736Y-97605361D01*
X158634028Y-97586361D01*
X158527692Y-97519545D01*
X158527691Y-97519544D01*
X158527690Y-97519544D01*
X158487360Y-97505432D01*
X158368056Y-97463685D01*
X158200003Y-97444751D01*
X158199997Y-97444751D01*
X158031943Y-97463685D01*
X157872307Y-97519545D01*
X157765972Y-97586361D01*
X157698736Y-97605361D01*
X157634028Y-97586361D01*
X157527692Y-97519545D01*
X157527691Y-97519544D01*
X157527690Y-97519544D01*
X157487360Y-97505432D01*
X157368056Y-97463685D01*
X157200003Y-97444751D01*
X157199997Y-97444751D01*
X157031943Y-97463685D01*
X156872307Y-97519545D01*
X156765972Y-97586361D01*
X156698736Y-97605361D01*
X156634028Y-97586361D01*
X156527692Y-97519545D01*
X156527691Y-97519544D01*
X156527690Y-97519544D01*
X156487360Y-97505432D01*
X156368056Y-97463685D01*
X156200003Y-97444751D01*
X156199997Y-97444751D01*
X156031943Y-97463685D01*
X155872307Y-97519545D01*
X155765972Y-97586361D01*
X155698736Y-97605361D01*
X155634028Y-97586361D01*
X155527692Y-97519545D01*
X155527691Y-97519544D01*
X155527690Y-97519544D01*
X155487360Y-97505432D01*
X155368056Y-97463685D01*
X155200003Y-97444751D01*
X155199997Y-97444751D01*
X155031942Y-97463686D01*
X154876726Y-97517998D01*
X154806947Y-97521559D01*
X154746320Y-97486830D01*
X154714093Y-97424837D01*
X154720499Y-97355261D01*
X154748090Y-97313276D01*
X154790477Y-97270890D01*
X154880452Y-97127697D01*
X154880454Y-97127694D01*
X154880454Y-97127692D01*
X154880456Y-97127690D01*
X154936313Y-96968059D01*
X154936313Y-96968058D01*
X154936314Y-96968056D01*
X154955249Y-96800002D01*
X154955249Y-96799997D01*
X154936314Y-96631943D01*
X154880454Y-96472305D01*
X154880452Y-96472302D01*
X154790481Y-96329115D01*
X154790476Y-96329109D01*
X154670890Y-96209523D01*
X154670884Y-96209518D01*
X154527697Y-96119547D01*
X154527694Y-96119545D01*
X154368056Y-96063685D01*
X154200003Y-96044751D01*
X154199997Y-96044751D01*
X154031943Y-96063685D01*
X153872305Y-96119545D01*
X153872302Y-96119547D01*
X153729115Y-96209518D01*
X153729109Y-96209523D01*
X153609523Y-96329109D01*
X153609518Y-96329115D01*
X153519547Y-96472302D01*
X153519545Y-96472305D01*
X153463685Y-96631943D01*
X153444751Y-96799997D01*
X153444751Y-96800002D01*
X153463685Y-96968056D01*
X153519545Y-97127694D01*
X153519547Y-97127697D01*
X153609518Y-97270884D01*
X153609523Y-97270890D01*
X153651908Y-97313275D01*
X153685393Y-97374598D01*
X153680409Y-97444290D01*
X153638537Y-97500223D01*
X153573073Y-97524640D01*
X153523273Y-97517998D01*
X153368057Y-97463686D01*
X153200003Y-97444751D01*
X153199997Y-97444751D01*
X153031943Y-97463685D01*
X152872305Y-97519545D01*
X152872302Y-97519547D01*
X152729115Y-97609518D01*
X152729109Y-97609523D01*
X152609523Y-97729109D01*
X152609521Y-97729112D01*
X152545496Y-97831006D01*
X152493161Y-97877297D01*
X152424108Y-97887944D01*
X152360259Y-97859569D01*
X152335415Y-97827418D01*
X152334162Y-97828206D01*
X152240481Y-97679115D01*
X152240476Y-97679109D01*
X152120890Y-97559523D01*
X152120884Y-97559518D01*
X151977697Y-97469547D01*
X151977694Y-97469545D01*
X151818056Y-97413685D01*
X151650003Y-97394751D01*
X151649997Y-97394751D01*
X151481943Y-97413685D01*
X151322305Y-97469545D01*
X151322302Y-97469547D01*
X151179115Y-97559518D01*
X151179109Y-97559523D01*
X151059523Y-97679109D01*
X151059518Y-97679115D01*
X150969547Y-97822302D01*
X150969545Y-97822305D01*
X150913685Y-97981943D01*
X150894751Y-98149997D01*
X150894751Y-98150002D01*
X150913685Y-98318056D01*
X150970647Y-98480841D01*
X150974208Y-98550620D01*
X150941286Y-98609477D01*
X149037084Y-100513681D01*
X148975761Y-100547166D01*
X148949403Y-100550000D01*
X144830440Y-100550000D01*
X144763401Y-100530315D01*
X144717646Y-100477511D01*
X144713398Y-100466954D01*
X144680455Y-100372808D01*
X144680452Y-100372802D01*
X144590481Y-100229615D01*
X144590476Y-100229609D01*
X144470890Y-100110023D01*
X144470884Y-100110018D01*
X144327697Y-100020047D01*
X144327694Y-100020045D01*
X144168056Y-99964185D01*
X144000003Y-99945251D01*
X143999997Y-99945251D01*
X143831943Y-99964185D01*
X143672305Y-100020045D01*
X143672302Y-100020047D01*
X143529116Y-100110018D01*
X143529104Y-100110028D01*
X143528540Y-100110592D01*
X143528086Y-100110839D01*
X143523667Y-100114364D01*
X143523049Y-100113589D01*
X143467214Y-100144072D01*
X143424683Y-100145842D01*
X143413106Y-100144318D01*
X143413103Y-100144318D01*
X143377773Y-100148969D01*
X143369675Y-100149500D01*
X142329773Y-100149500D01*
X142262734Y-100129815D01*
X142216979Y-100077011D01*
X142206553Y-100039383D01*
X142188814Y-99881944D01*
X142132954Y-99722305D01*
X142132952Y-99722302D01*
X142042981Y-99579115D01*
X142042976Y-99579109D01*
X141923390Y-99459523D01*
X141923384Y-99459518D01*
X141780197Y-99369547D01*
X141780194Y-99369545D01*
X141620556Y-99313685D01*
X141452503Y-99294751D01*
X141452497Y-99294751D01*
X141284443Y-99313685D01*
X141124805Y-99369545D01*
X141124802Y-99369547D01*
X140981615Y-99459518D01*
X140981609Y-99459523D01*
X140862023Y-99579109D01*
X140862018Y-99579115D01*
X140772047Y-99722302D01*
X140772045Y-99722305D01*
X140716185Y-99881944D01*
X140698447Y-100039383D01*
X140671381Y-100103797D01*
X140613786Y-100143353D01*
X140575227Y-100149500D01*
X138293434Y-100149500D01*
X138285334Y-100148969D01*
X138250000Y-100144317D01*
X138249999Y-100144317D01*
X138079431Y-100166772D01*
X138066525Y-100176020D01*
X137947156Y-100225465D01*
X137821719Y-100321716D01*
X137800019Y-100349994D01*
X137794668Y-100356096D01*
X137324759Y-100826004D01*
X137263436Y-100859489D01*
X137250966Y-100861543D01*
X137242673Y-100862477D01*
X137231941Y-100863687D01*
X137231940Y-100863687D01*
X137072307Y-100919544D01*
X137072302Y-100919547D01*
X136929115Y-101009518D01*
X136929109Y-101009523D01*
X136809523Y-101129109D01*
X136809518Y-101129115D01*
X136719547Y-101272302D01*
X136719545Y-101272305D01*
X136663685Y-101431943D01*
X136644751Y-101599997D01*
X136644751Y-101600002D01*
X136663685Y-101768056D01*
X136719545Y-101927694D01*
X136719547Y-101927697D01*
X136809518Y-102070884D01*
X136809523Y-102070890D01*
X136929109Y-102190476D01*
X136929115Y-102190481D01*
X137072302Y-102280452D01*
X137072305Y-102280454D01*
X137072309Y-102280455D01*
X137072310Y-102280456D01*
X137090955Y-102286980D01*
X137231943Y-102336314D01*
X137399997Y-102355249D01*
X137400000Y-102355249D01*
X137400003Y-102355249D01*
X137568059Y-102336313D01*
X137568060Y-102336313D01*
X137709045Y-102286980D01*
X137778824Y-102283418D01*
X137790955Y-102286980D01*
X137931939Y-102336313D01*
X138099997Y-102355249D01*
X138100000Y-102355249D01*
X138100003Y-102355249D01*
X138268056Y-102336314D01*
X138268059Y-102336313D01*
X138427690Y-102280456D01*
X138427692Y-102280454D01*
X138427694Y-102280454D01*
X138427697Y-102280452D01*
X138570884Y-102190481D01*
X138570885Y-102190480D01*
X138570890Y-102190477D01*
X138690477Y-102070890D01*
X138708522Y-102042172D01*
X138780452Y-101927697D01*
X138780454Y-101927694D01*
X138780454Y-101927692D01*
X138780456Y-101927690D01*
X138836313Y-101768059D01*
X138836313Y-101768058D01*
X138836314Y-101768056D01*
X138855249Y-101600002D01*
X138855249Y-101599997D01*
X138842673Y-101488384D01*
X138854727Y-101419562D01*
X138902076Y-101368182D01*
X138965893Y-101350500D01*
X140250903Y-101350500D01*
X140317942Y-101370185D01*
X140363697Y-101422989D01*
X140373641Y-101492147D01*
X140344616Y-101555703D01*
X140338584Y-101562180D01*
X138887202Y-103013562D01*
X137456096Y-104444668D01*
X137449994Y-104450019D01*
X137421716Y-104471719D01*
X137329092Y-104592431D01*
X137325464Y-104597157D01*
X137325461Y-104597163D01*
X137264957Y-104743234D01*
X137264955Y-104743239D01*
X137244318Y-104899998D01*
X137244318Y-104900000D01*
X137248969Y-104935326D01*
X137249500Y-104943427D01*
X137249500Y-106369560D01*
X137229815Y-106436599D01*
X137177011Y-106482354D01*
X137166458Y-106486600D01*
X137143027Y-106494798D01*
X137072308Y-106519544D01*
X137072302Y-106519547D01*
X136929115Y-106609518D01*
X136929109Y-106609523D01*
X136809523Y-106729109D01*
X136809518Y-106729115D01*
X136719547Y-106872302D01*
X136719545Y-106872305D01*
X136663685Y-107031943D01*
X136644751Y-107199997D01*
X136644751Y-107200002D01*
X129000500Y-107200002D01*
X129000500Y-98750002D01*
X137297251Y-98750002D01*
X137316185Y-98918056D01*
X137372045Y-99077694D01*
X137372047Y-99077697D01*
X137462018Y-99220884D01*
X137462023Y-99220890D01*
X137581609Y-99340476D01*
X137581615Y-99340481D01*
X137724802Y-99430452D01*
X137724805Y-99430454D01*
X137724809Y-99430455D01*
X137724810Y-99430456D01*
X137795665Y-99455249D01*
X137884443Y-99486314D01*
X138052497Y-99505249D01*
X138052500Y-99505249D01*
X138052503Y-99505249D01*
X138220556Y-99486314D01*
X138220559Y-99486313D01*
X138380190Y-99430456D01*
X138380192Y-99430454D01*
X138380194Y-99430454D01*
X138380197Y-99430452D01*
X138523384Y-99340481D01*
X138523385Y-99340480D01*
X138523390Y-99340477D01*
X138642977Y-99220890D01*
X138642981Y-99220884D01*
X138732952Y-99077697D01*
X138732954Y-99077694D01*
X138732954Y-99077692D01*
X138732956Y-99077690D01*
X138788813Y-98918059D01*
X138788813Y-98918058D01*
X138788814Y-98918056D01*
X138807749Y-98750002D01*
X138807749Y-98749997D01*
X138788814Y-98581943D01*
X138732954Y-98422305D01*
X138732952Y-98422302D01*
X138642981Y-98279115D01*
X138642976Y-98279109D01*
X138523390Y-98159523D01*
X138523384Y-98159518D01*
X138380197Y-98069547D01*
X138380194Y-98069545D01*
X138220556Y-98013685D01*
X138052503Y-97994751D01*
X138052497Y-97994751D01*
X137884443Y-98013685D01*
X137724805Y-98069545D01*
X137724802Y-98069547D01*
X137581615Y-98159518D01*
X137581609Y-98159523D01*
X137462023Y-98279109D01*
X137462018Y-98279115D01*
X137372047Y-98422302D01*
X137372045Y-98422305D01*
X137316185Y-98581943D01*
X137297251Y-98749997D01*
X137297251Y-98750002D01*
X129000500Y-98750002D01*
X129000500Y-97450002D01*
X140697251Y-97450002D01*
X140716185Y-97618056D01*
X140772045Y-97777694D01*
X140772047Y-97777697D01*
X140862018Y-97920884D01*
X140862023Y-97920890D01*
X140981609Y-98040476D01*
X140981615Y-98040481D01*
X141124802Y-98130452D01*
X141124805Y-98130454D01*
X141124809Y-98130455D01*
X141124810Y-98130456D01*
X141148179Y-98138633D01*
X141284443Y-98186314D01*
X141452497Y-98205249D01*
X141452500Y-98205249D01*
X141452503Y-98205249D01*
X141620556Y-98186314D01*
X141620559Y-98186313D01*
X141780190Y-98130456D01*
X141780192Y-98130454D01*
X141780194Y-98130454D01*
X141780197Y-98130452D01*
X141923384Y-98040481D01*
X141923385Y-98040480D01*
X141923390Y-98040477D01*
X142042977Y-97920890D01*
X142056105Y-97899997D01*
X142132952Y-97777697D01*
X142132954Y-97777694D01*
X142132954Y-97777692D01*
X142132956Y-97777690D01*
X142188813Y-97618059D01*
X142188813Y-97618058D01*
X142188814Y-97618056D01*
X142207749Y-97450002D01*
X142207749Y-97449997D01*
X142188814Y-97281943D01*
X142134840Y-97127694D01*
X142132956Y-97122310D01*
X142132955Y-97122309D01*
X142132954Y-97122305D01*
X142132952Y-97122302D01*
X142042981Y-96979115D01*
X142042976Y-96979109D01*
X141923390Y-96859523D01*
X141923384Y-96859518D01*
X141780197Y-96769547D01*
X141780194Y-96769545D01*
X141620556Y-96713685D01*
X141452503Y-96694751D01*
X141452497Y-96694751D01*
X141284443Y-96713685D01*
X141124805Y-96769545D01*
X141124802Y-96769547D01*
X140981615Y-96859518D01*
X140981609Y-96859523D01*
X140862023Y-96979109D01*
X140862018Y-96979115D01*
X140772047Y-97122302D01*
X140772045Y-97122305D01*
X140716185Y-97281943D01*
X140697251Y-97449997D01*
X140697251Y-97450002D01*
X129000500Y-97450002D01*
X129000500Y-94900002D01*
X136644751Y-94900002D01*
X136663685Y-95068056D01*
X136719545Y-95227694D01*
X136719547Y-95227697D01*
X136809518Y-95370884D01*
X136809523Y-95370890D01*
X136929109Y-95490476D01*
X136929115Y-95490481D01*
X137072302Y-95580452D01*
X137072305Y-95580454D01*
X137072309Y-95580455D01*
X137072310Y-95580456D01*
X137090955Y-95586980D01*
X137231943Y-95636314D01*
X137399997Y-95655249D01*
X137400000Y-95655249D01*
X137400003Y-95655249D01*
X137568059Y-95636313D01*
X137568060Y-95636313D01*
X137709045Y-95586980D01*
X137778824Y-95583418D01*
X137790955Y-95586980D01*
X137931939Y-95636313D01*
X138099997Y-95655249D01*
X138100000Y-95655249D01*
X138100003Y-95655249D01*
X138268056Y-95636314D01*
X138292682Y-95627697D01*
X138427690Y-95580456D01*
X138534028Y-95513638D01*
X138601263Y-95494638D01*
X138665970Y-95513638D01*
X138726589Y-95551727D01*
X138772306Y-95580454D01*
X138772307Y-95580454D01*
X138772310Y-95580456D01*
X138878730Y-95617694D01*
X138931943Y-95636314D01*
X139099997Y-95655249D01*
X139100000Y-95655249D01*
X139100003Y-95655249D01*
X139268056Y-95636314D01*
X139292682Y-95627697D01*
X139427690Y-95580456D01*
X139534028Y-95513638D01*
X139601263Y-95494638D01*
X139665970Y-95513638D01*
X139726589Y-95551727D01*
X139772306Y-95580454D01*
X139772307Y-95580454D01*
X139772310Y-95580456D01*
X139878730Y-95617694D01*
X139931943Y-95636314D01*
X140099997Y-95655249D01*
X140100000Y-95655249D01*
X140100003Y-95655249D01*
X140268059Y-95636313D01*
X140268060Y-95636313D01*
X140409045Y-95586980D01*
X140478824Y-95583418D01*
X140490955Y-95586980D01*
X140631939Y-95636313D01*
X140799997Y-95655249D01*
X140800000Y-95655249D01*
X140800003Y-95655249D01*
X140968056Y-95636314D01*
X140992682Y-95627697D01*
X141127690Y-95580456D01*
X141224691Y-95519505D01*
X141290663Y-95500500D01*
X141575639Y-95500500D01*
X141642678Y-95520185D01*
X141663320Y-95536819D01*
X144780882Y-98654382D01*
X144810242Y-98701107D01*
X144819544Y-98727691D01*
X144819548Y-98727699D01*
X144909518Y-98870884D01*
X144909523Y-98870890D01*
X145029109Y-98990476D01*
X145029115Y-98990481D01*
X145172302Y-99080452D01*
X145172305Y-99080454D01*
X145172309Y-99080455D01*
X145172310Y-99080456D01*
X145244913Y-99105860D01*
X145331943Y-99136314D01*
X145499997Y-99155249D01*
X145500000Y-99155249D01*
X145500003Y-99155249D01*
X145668056Y-99136314D01*
X145668059Y-99136313D01*
X145827690Y-99080456D01*
X145827692Y-99080454D01*
X145827694Y-99080454D01*
X145827697Y-99080452D01*
X145970884Y-98990481D01*
X145970885Y-98990480D01*
X145970890Y-98990477D01*
X146090477Y-98870890D01*
X146092256Y-98868059D01*
X146180452Y-98727697D01*
X146180454Y-98727693D01*
X146180455Y-98727691D01*
X146180456Y-98727690D01*
X146184966Y-98714800D01*
X146225685Y-98658025D01*
X146262213Y-98640691D01*
X146261486Y-98638613D01*
X146268059Y-98636313D01*
X146427690Y-98580456D01*
X146427693Y-98580453D01*
X146427697Y-98580452D01*
X146570884Y-98490481D01*
X146570885Y-98490480D01*
X146570890Y-98490477D01*
X146690477Y-98370890D01*
X146723675Y-98318056D01*
X146780452Y-98227697D01*
X146780454Y-98227694D01*
X146780454Y-98227692D01*
X146780456Y-98227690D01*
X146836313Y-98068059D01*
X146836313Y-98068058D01*
X146836314Y-98068056D01*
X146855249Y-97900002D01*
X146855249Y-97899997D01*
X146836314Y-97731943D01*
X146793477Y-97609523D01*
X146780456Y-97572310D01*
X146780454Y-97572307D01*
X146780454Y-97572306D01*
X146743294Y-97513168D01*
X146713638Y-97465971D01*
X146694638Y-97398737D01*
X146713638Y-97334029D01*
X146780456Y-97227690D01*
X146836313Y-97068059D01*
X146836313Y-97068058D01*
X146836314Y-97068056D01*
X146855249Y-96900002D01*
X146855249Y-96899997D01*
X146836314Y-96731943D01*
X146780454Y-96572305D01*
X146780452Y-96572302D01*
X146690481Y-96429115D01*
X146690476Y-96429109D01*
X146570890Y-96309523D01*
X146570884Y-96309518D01*
X146427697Y-96219547D01*
X146427694Y-96219545D01*
X146268056Y-96163685D01*
X146100003Y-96144751D01*
X146099997Y-96144751D01*
X145931943Y-96163685D01*
X145772307Y-96219545D01*
X145702862Y-96263181D01*
X145676390Y-96279815D01*
X145675309Y-96280494D01*
X145609337Y-96299500D01*
X145448625Y-96299500D01*
X145381586Y-96279815D01*
X145360944Y-96263181D01*
X145151979Y-96054216D01*
X145118494Y-95992893D01*
X145123478Y-95923201D01*
X145134667Y-95900562D01*
X145141002Y-95890481D01*
X145180456Y-95827690D01*
X145236313Y-95668059D01*
X145236313Y-95668058D01*
X145236314Y-95668056D01*
X145255249Y-95500002D01*
X145255249Y-95499997D01*
X145236314Y-95331943D01*
X145199834Y-95227690D01*
X145180456Y-95172310D01*
X145180455Y-95172309D01*
X145180454Y-95172305D01*
X145180452Y-95172302D01*
X145090481Y-95029115D01*
X145090476Y-95029109D01*
X144970890Y-94909523D01*
X144970884Y-94909518D01*
X144827697Y-94819547D01*
X144827694Y-94819545D01*
X144668056Y-94763685D01*
X144500003Y-94744751D01*
X144499997Y-94744751D01*
X144331943Y-94763685D01*
X144172307Y-94819545D01*
X144099437Y-94865333D01*
X144032200Y-94884333D01*
X143965365Y-94863965D01*
X143945784Y-94848020D01*
X142553856Y-93456093D01*
X142548502Y-93449988D01*
X142526814Y-93421722D01*
X142526811Y-93421720D01*
X142526810Y-93421718D01*
X142401369Y-93325464D01*
X142339898Y-93300002D01*
X142255290Y-93264956D01*
X142255288Y-93264955D01*
X142137889Y-93249500D01*
X142098528Y-93244318D01*
X142063198Y-93248969D01*
X142055100Y-93249500D01*
X141550097Y-93249500D01*
X141483058Y-93229815D01*
X141462416Y-93213181D01*
X141436819Y-93187584D01*
X141403334Y-93126261D01*
X141400500Y-93099903D01*
X141400500Y-90650002D01*
X142544751Y-90650002D01*
X142563685Y-90818056D01*
X142619545Y-90977694D01*
X142619547Y-90977697D01*
X142709518Y-91120884D01*
X142709523Y-91120890D01*
X142829109Y-91240476D01*
X142829115Y-91240481D01*
X142972302Y-91330452D01*
X142972305Y-91330454D01*
X142972309Y-91330455D01*
X142972310Y-91330456D01*
X143044913Y-91355860D01*
X143131943Y-91386314D01*
X143299997Y-91405249D01*
X143300000Y-91405249D01*
X143300003Y-91405249D01*
X143468056Y-91386314D01*
X143468059Y-91386313D01*
X143627690Y-91330456D01*
X143627692Y-91330454D01*
X143627694Y-91330454D01*
X143627697Y-91330452D01*
X143770884Y-91240481D01*
X143770885Y-91240480D01*
X143770890Y-91240477D01*
X143890477Y-91120890D01*
X143937803Y-91045572D01*
X143980452Y-90977697D01*
X143980454Y-90977694D01*
X143980454Y-90977692D01*
X143980456Y-90977690D01*
X144036313Y-90818059D01*
X144036313Y-90818058D01*
X144036314Y-90818056D01*
X144055249Y-90650002D01*
X144055249Y-90649997D01*
X144036314Y-90481943D01*
X143980454Y-90322305D01*
X143980452Y-90322302D01*
X143890481Y-90179115D01*
X143890476Y-90179109D01*
X143770890Y-90059523D01*
X143770884Y-90059518D01*
X143627697Y-89969547D01*
X143627694Y-89969545D01*
X143468056Y-89913685D01*
X143300003Y-89894751D01*
X143299997Y-89894751D01*
X143131943Y-89913685D01*
X142972305Y-89969545D01*
X142972302Y-89969547D01*
X142829115Y-90059518D01*
X142829109Y-90059523D01*
X142709523Y-90179109D01*
X142709518Y-90179115D01*
X142619547Y-90322302D01*
X142619545Y-90322305D01*
X142563685Y-90481943D01*
X142544751Y-90649997D01*
X142544751Y-90650002D01*
X141400500Y-90650002D01*
X141400500Y-89790662D01*
X141419507Y-89724689D01*
X141425427Y-89715265D01*
X141480456Y-89627690D01*
X141536313Y-89468059D01*
X141545781Y-89384029D01*
X141555249Y-89300002D01*
X141555249Y-89299997D01*
X141536314Y-89131943D01*
X141486813Y-88990477D01*
X141480456Y-88972310D01*
X141480455Y-88972309D01*
X141480454Y-88972305D01*
X141480452Y-88972302D01*
X141435023Y-88900002D01*
X143994751Y-88900002D01*
X144013685Y-89068056D01*
X144069545Y-89227694D01*
X144069547Y-89227697D01*
X144159518Y-89370884D01*
X144159523Y-89370890D01*
X144279109Y-89490476D01*
X144279115Y-89490481D01*
X144422302Y-89580452D01*
X144422305Y-89580454D01*
X144422309Y-89580455D01*
X144422310Y-89580456D01*
X144557298Y-89627690D01*
X144581944Y-89636314D01*
X144637449Y-89642567D01*
X144648825Y-89643849D01*
X144713239Y-89670915D01*
X144752795Y-89728509D01*
X144758163Y-89780952D01*
X144744751Y-89899995D01*
X144744751Y-89900002D01*
X144763685Y-90068056D01*
X144819545Y-90227694D01*
X144819547Y-90227697D01*
X144909518Y-90370884D01*
X144909523Y-90370890D01*
X145029109Y-90490476D01*
X145029115Y-90490481D01*
X145172302Y-90580452D01*
X145172308Y-90580455D01*
X145172310Y-90580456D01*
X145331941Y-90636313D01*
X145365000Y-90640037D01*
X145429413Y-90667103D01*
X145468157Y-90722300D01*
X145470041Y-90727685D01*
X145470047Y-90727697D01*
X145560018Y-90870884D01*
X145560023Y-90870890D01*
X145625702Y-90936569D01*
X145659187Y-90997892D01*
X145654203Y-91067584D01*
X145612331Y-91123517D01*
X145546867Y-91147934D01*
X145524139Y-91147470D01*
X145500005Y-91144751D01*
X145499997Y-91144751D01*
X145331943Y-91163685D01*
X145172305Y-91219545D01*
X145172302Y-91219547D01*
X145029115Y-91309518D01*
X145029109Y-91309523D01*
X144909523Y-91429109D01*
X144909518Y-91429115D01*
X144819547Y-91572302D01*
X144819545Y-91572305D01*
X144763685Y-91731943D01*
X144744751Y-91899997D01*
X144744751Y-91900002D01*
X144763685Y-92068056D01*
X144819545Y-92227693D01*
X144899399Y-92354778D01*
X144918400Y-92422015D01*
X144898033Y-92488850D01*
X144844765Y-92534065D01*
X144806713Y-92542139D01*
X144806920Y-92543971D01*
X144631943Y-92563685D01*
X144472305Y-92619545D01*
X144472302Y-92619547D01*
X144329115Y-92709518D01*
X144329109Y-92709523D01*
X144209523Y-92829109D01*
X144209518Y-92829115D01*
X144119547Y-92972302D01*
X144119545Y-92972305D01*
X144063685Y-93131943D01*
X144044751Y-93299997D01*
X144044751Y-93300002D01*
X144063685Y-93468056D01*
X144119545Y-93627694D01*
X144119547Y-93627697D01*
X144209518Y-93770884D01*
X144209523Y-93770890D01*
X144329109Y-93890476D01*
X144329115Y-93890481D01*
X144472302Y-93980452D01*
X144472305Y-93980454D01*
X144472309Y-93980455D01*
X144472310Y-93980456D01*
X144531779Y-94001265D01*
X144631943Y-94036314D01*
X144799997Y-94055249D01*
X144800000Y-94055249D01*
X144800003Y-94055249D01*
X144968056Y-94036314D01*
X144976981Y-94033191D01*
X145127690Y-93980456D01*
X145127692Y-93980454D01*
X145127694Y-93980454D01*
X145127697Y-93980452D01*
X145255732Y-93900002D01*
X147144751Y-93900002D01*
X147163685Y-94068056D01*
X147219545Y-94227694D01*
X147219547Y-94227697D01*
X147309518Y-94370884D01*
X147309523Y-94370890D01*
X147429109Y-94490476D01*
X147429115Y-94490481D01*
X147572302Y-94580452D01*
X147572305Y-94580454D01*
X147572309Y-94580455D01*
X147572310Y-94580456D01*
X147644913Y-94605860D01*
X147731943Y-94636314D01*
X147899997Y-94655249D01*
X147900000Y-94655249D01*
X147900003Y-94655249D01*
X148068056Y-94636314D01*
X148068059Y-94636313D01*
X148227690Y-94580456D01*
X148227692Y-94580454D01*
X148227694Y-94580454D01*
X148227697Y-94580452D01*
X148370884Y-94490481D01*
X148370885Y-94490480D01*
X148370890Y-94490477D01*
X148490477Y-94370890D01*
X148529038Y-94309521D01*
X148580452Y-94227697D01*
X148580454Y-94227694D01*
X148580454Y-94227692D01*
X148580456Y-94227690D01*
X148636313Y-94068059D01*
X148636313Y-94068058D01*
X148636314Y-94068056D01*
X148655249Y-93900002D01*
X148655249Y-93899997D01*
X148636314Y-93731943D01*
X148580454Y-93572305D01*
X148580452Y-93572302D01*
X148490481Y-93429115D01*
X148490476Y-93429109D01*
X148370890Y-93309523D01*
X148370884Y-93309518D01*
X148227697Y-93219547D01*
X148227694Y-93219545D01*
X148068056Y-93163685D01*
X147900003Y-93144751D01*
X147899997Y-93144751D01*
X147731943Y-93163685D01*
X147572305Y-93219545D01*
X147572302Y-93219547D01*
X147429115Y-93309518D01*
X147429109Y-93309523D01*
X147309523Y-93429109D01*
X147309518Y-93429115D01*
X147219547Y-93572302D01*
X147219545Y-93572305D01*
X147163685Y-93731943D01*
X147144751Y-93899997D01*
X147144751Y-93900002D01*
X145255732Y-93900002D01*
X145270884Y-93890481D01*
X145270885Y-93890480D01*
X145270890Y-93890477D01*
X145390477Y-93770890D01*
X145414949Y-93731943D01*
X145480452Y-93627697D01*
X145480454Y-93627694D01*
X145480454Y-93627692D01*
X145480456Y-93627690D01*
X145536313Y-93468059D01*
X145536313Y-93468058D01*
X145536314Y-93468056D01*
X145555249Y-93300002D01*
X145555249Y-93299997D01*
X145536314Y-93131945D01*
X145536241Y-93131625D01*
X145536254Y-93131411D01*
X145535534Y-93125021D01*
X145536653Y-93124894D01*
X145540514Y-93061886D01*
X145581812Y-93005528D01*
X145647023Y-92980444D01*
X145715444Y-92994598D01*
X145723087Y-92999027D01*
X145772310Y-93029956D01*
X145863561Y-93061886D01*
X145931943Y-93085814D01*
X146099997Y-93104749D01*
X146100000Y-93104749D01*
X146100003Y-93104749D01*
X146268056Y-93085814D01*
X146268059Y-93085813D01*
X146427690Y-93029956D01*
X146427692Y-93029954D01*
X146427694Y-93029954D01*
X146427697Y-93029952D01*
X146570884Y-92939981D01*
X146570885Y-92939980D01*
X146570890Y-92939977D01*
X146690477Y-92820390D01*
X146780452Y-92677197D01*
X146780454Y-92677194D01*
X146780454Y-92677192D01*
X146780456Y-92677190D01*
X146836313Y-92517559D01*
X146836313Y-92517558D01*
X146836314Y-92517556D01*
X146855249Y-92349502D01*
X146855249Y-92349497D01*
X146836314Y-92181443D01*
X146780454Y-92021805D01*
X146780452Y-92021802D01*
X146690481Y-91878615D01*
X146690476Y-91878609D01*
X146570890Y-91759023D01*
X146570884Y-91759018D01*
X146427697Y-91669047D01*
X146427694Y-91669045D01*
X146268057Y-91613186D01*
X146260760Y-91612364D01*
X146196347Y-91585296D01*
X146169652Y-91555116D01*
X146129457Y-91491146D01*
X146090477Y-91429110D01*
X146024797Y-91363429D01*
X145991312Y-91302107D01*
X145996296Y-91232415D01*
X146038168Y-91176482D01*
X146103632Y-91152065D01*
X146126358Y-91152528D01*
X146150500Y-91155249D01*
X146150500Y-91155248D01*
X146150501Y-91155249D01*
X146150503Y-91155249D01*
X146318556Y-91136314D01*
X146355128Y-91123517D01*
X146478190Y-91080456D01*
X146478192Y-91080454D01*
X146478194Y-91080454D01*
X146478197Y-91080452D01*
X146621384Y-90990481D01*
X146621385Y-90990480D01*
X146621390Y-90990477D01*
X146740977Y-90870890D01*
X146774175Y-90818056D01*
X146830952Y-90727697D01*
X146830954Y-90727694D01*
X146830954Y-90727692D01*
X146830956Y-90727690D01*
X146886813Y-90568059D01*
X146886813Y-90568058D01*
X146886814Y-90568056D01*
X146905749Y-90400002D01*
X146905749Y-90399997D01*
X146886814Y-90231943D01*
X146830954Y-90072305D01*
X146830952Y-90072302D01*
X146740981Y-89929115D01*
X146740976Y-89929109D01*
X146621390Y-89809523D01*
X146621384Y-89809518D01*
X146478197Y-89719547D01*
X146478194Y-89719545D01*
X146318555Y-89663685D01*
X146285498Y-89659961D01*
X146221084Y-89632894D01*
X146182340Y-89577693D01*
X146180457Y-89572312D01*
X146180452Y-89572302D01*
X146090481Y-89429115D01*
X146090476Y-89429109D01*
X146027384Y-89366017D01*
X145993899Y-89304694D01*
X145998883Y-89235002D01*
X146040755Y-89179069D01*
X146101182Y-89155116D01*
X146268055Y-89136314D01*
X146268057Y-89136313D01*
X146268059Y-89136313D01*
X146427690Y-89080456D01*
X146427692Y-89080454D01*
X146427694Y-89080454D01*
X146427697Y-89080452D01*
X146570884Y-88990481D01*
X146570885Y-88990480D01*
X146570890Y-88990477D01*
X146690477Y-88870890D01*
X146716726Y-88829115D01*
X146780452Y-88727697D01*
X146780454Y-88727694D01*
X146780454Y-88727692D01*
X146780456Y-88727690D01*
X146836313Y-88568059D01*
X146836313Y-88568058D01*
X146836314Y-88568056D01*
X146855249Y-88400002D01*
X146855249Y-88399997D01*
X146836313Y-88231942D01*
X146813049Y-88165454D01*
X146809488Y-88095675D01*
X146844217Y-88035048D01*
X146906211Y-88002821D01*
X146930091Y-88000500D01*
X148375500Y-88000500D01*
X148442539Y-88020185D01*
X148488294Y-88072989D01*
X148499500Y-88124500D01*
X148499500Y-90080835D01*
X148498969Y-90088933D01*
X148494318Y-90124264D01*
X148499500Y-90163625D01*
X148501539Y-90179110D01*
X148514955Y-90281024D01*
X148514956Y-90281026D01*
X148564237Y-90400002D01*
X148575464Y-90427105D01*
X148671718Y-90552546D01*
X148699995Y-90574244D01*
X148706085Y-90579584D01*
X148848801Y-90722300D01*
X148963181Y-90836680D01*
X148996666Y-90898003D01*
X148999500Y-90924361D01*
X148999500Y-94206571D01*
X148998969Y-94214669D01*
X148996695Y-94231943D01*
X148994318Y-94249999D01*
X148994318Y-94250000D01*
X148999500Y-94289360D01*
X149014955Y-94406760D01*
X149014956Y-94406762D01*
X149049631Y-94490476D01*
X149075464Y-94552841D01*
X149171718Y-94678282D01*
X149199995Y-94699980D01*
X149206085Y-94705320D01*
X149728455Y-95227690D01*
X150194669Y-95693904D01*
X150200020Y-95700005D01*
X150221718Y-95728282D01*
X150343937Y-95822063D01*
X150345466Y-95823405D01*
X150347158Y-95824535D01*
X150347159Y-95824536D01*
X150493238Y-95885044D01*
X150571618Y-95895363D01*
X150649999Y-95905682D01*
X150658127Y-95905682D01*
X150658127Y-95907019D01*
X150718785Y-95916474D01*
X150731914Y-95923656D01*
X150822310Y-95980456D01*
X150943621Y-96022904D01*
X150981943Y-96036314D01*
X151149997Y-96055249D01*
X151150000Y-96055249D01*
X151150003Y-96055249D01*
X151318056Y-96036314D01*
X151318059Y-96036313D01*
X151477690Y-95980456D01*
X151477692Y-95980454D01*
X151477694Y-95980454D01*
X151477697Y-95980452D01*
X151620884Y-95890481D01*
X151620885Y-95890480D01*
X151620890Y-95890477D01*
X151740477Y-95770890D01*
X151788851Y-95693904D01*
X151830452Y-95627697D01*
X151830454Y-95627694D01*
X151830454Y-95627692D01*
X151830456Y-95627690D01*
X151886313Y-95468059D01*
X151886313Y-95468058D01*
X151886314Y-95468056D01*
X151905249Y-95300002D01*
X151905249Y-95299997D01*
X151886314Y-95131943D01*
X151836813Y-94990477D01*
X151830456Y-94972310D01*
X151830455Y-94972309D01*
X151830454Y-94972305D01*
X151830452Y-94972302D01*
X151740481Y-94829115D01*
X151740476Y-94829109D01*
X151620890Y-94709523D01*
X151620884Y-94709518D01*
X151477697Y-94619547D01*
X151477694Y-94619545D01*
X151318056Y-94563685D01*
X151150003Y-94544751D01*
X151149997Y-94544751D01*
X150981942Y-94563686D01*
X150893235Y-94594726D01*
X150823457Y-94598287D01*
X150764600Y-94565365D01*
X150236819Y-94037583D01*
X150203334Y-93976260D01*
X150200500Y-93949902D01*
X150200500Y-91779761D01*
X150220185Y-91712722D01*
X150272989Y-91666967D01*
X150342147Y-91657023D01*
X150405703Y-91686048D01*
X150441540Y-91738805D01*
X150453301Y-91772414D01*
X150469544Y-91818836D01*
X150469547Y-91818841D01*
X150559518Y-91962028D01*
X150559523Y-91962034D01*
X150679109Y-92081620D01*
X150679115Y-92081625D01*
X150822302Y-92171596D01*
X150822305Y-92171598D01*
X150822309Y-92171599D01*
X150822310Y-92171600D01*
X150850440Y-92181443D01*
X150981943Y-92227458D01*
X151149997Y-92246393D01*
X151150000Y-92246393D01*
X151150003Y-92246393D01*
X151318056Y-92227458D01*
X151318059Y-92227457D01*
X151477690Y-92171600D01*
X151477692Y-92171598D01*
X151477694Y-92171598D01*
X151477697Y-92171596D01*
X151620884Y-92081625D01*
X151620885Y-92081624D01*
X151620890Y-92081621D01*
X151740477Y-91962034D01*
X151740481Y-91962028D01*
X151830452Y-91818841D01*
X151830454Y-91818838D01*
X151830454Y-91818836D01*
X151830456Y-91818834D01*
X151886313Y-91659203D01*
X151886313Y-91659202D01*
X151886314Y-91659200D01*
X151905249Y-91491146D01*
X151905249Y-91491141D01*
X151890859Y-91363430D01*
X151886313Y-91323085D01*
X151830456Y-91163454D01*
X151830456Y-91163453D01*
X151797839Y-91111545D01*
X151778838Y-91044309D01*
X151797839Y-90979599D01*
X151830456Y-90927690D01*
X151850333Y-90870884D01*
X151886313Y-90768059D01*
X151900738Y-90640037D01*
X151905249Y-90600002D01*
X151905249Y-90599997D01*
X151886314Y-90431943D01*
X151830454Y-90272305D01*
X151830452Y-90272302D01*
X151740481Y-90129115D01*
X151740476Y-90129109D01*
X151620890Y-90009523D01*
X151620884Y-90009518D01*
X151477697Y-89919547D01*
X151477694Y-89919545D01*
X151318056Y-89863685D01*
X151150003Y-89844751D01*
X151149997Y-89844751D01*
X150981943Y-89863685D01*
X150822305Y-89919545D01*
X150822302Y-89919547D01*
X150679112Y-90009520D01*
X150675898Y-90012084D01*
X150673428Y-90013091D01*
X150673214Y-90013227D01*
X150673190Y-90013189D01*
X150611211Y-90038491D01*
X150542516Y-90025733D01*
X150510907Y-90002816D01*
X150036819Y-89528728D01*
X150003334Y-89467405D01*
X150000500Y-89441047D01*
X150000500Y-87743428D01*
X150001031Y-87735326D01*
X150001477Y-87731943D01*
X150005682Y-87700000D01*
X149985044Y-87543238D01*
X149924536Y-87397159D01*
X149924533Y-87397155D01*
X149923630Y-87395977D01*
X149888975Y-87350815D01*
X149828282Y-87271718D01*
X149800005Y-87250020D01*
X149793904Y-87244669D01*
X149176925Y-86627690D01*
X148974237Y-86425002D01*
X150394751Y-86425002D01*
X150413685Y-86593056D01*
X150469545Y-86752694D01*
X150469547Y-86752697D01*
X150559518Y-86895884D01*
X150559523Y-86895890D01*
X150679109Y-87015476D01*
X150679115Y-87015481D01*
X150822302Y-87105452D01*
X150822305Y-87105454D01*
X150822309Y-87105455D01*
X150822310Y-87105456D01*
X150845833Y-87113687D01*
X150981943Y-87161314D01*
X151149997Y-87180249D01*
X151150000Y-87180249D01*
X151150003Y-87180249D01*
X151318056Y-87161314D01*
X151329925Y-87157161D01*
X151477690Y-87105456D01*
X151477692Y-87105454D01*
X151477694Y-87105454D01*
X151477697Y-87105452D01*
X151620884Y-87015481D01*
X151620885Y-87015480D01*
X151620890Y-87015477D01*
X151740477Y-86895890D01*
X151779348Y-86834028D01*
X151830452Y-86752697D01*
X151830454Y-86752694D01*
X151830454Y-86752692D01*
X151830456Y-86752690D01*
X151886313Y-86593059D01*
X151886313Y-86593058D01*
X151886314Y-86593056D01*
X151905249Y-86425002D01*
X151905249Y-86424997D01*
X151886314Y-86256943D01*
X151844104Y-86136313D01*
X151830456Y-86097310D01*
X151830455Y-86097309D01*
X151830454Y-86097305D01*
X151830452Y-86097302D01*
X151740481Y-85954115D01*
X151740476Y-85954109D01*
X151620890Y-85834523D01*
X151620884Y-85834518D01*
X151477697Y-85744547D01*
X151477694Y-85744545D01*
X151318056Y-85688685D01*
X151150003Y-85669751D01*
X151149997Y-85669751D01*
X150981943Y-85688685D01*
X150822305Y-85744545D01*
X150822302Y-85744547D01*
X150679115Y-85834518D01*
X150679109Y-85834523D01*
X150559523Y-85954109D01*
X150559518Y-85954115D01*
X150469547Y-86097302D01*
X150469545Y-86097305D01*
X150413685Y-86256943D01*
X150394751Y-86424997D01*
X150394751Y-86425002D01*
X148974237Y-86425002D01*
X148555320Y-86006085D01*
X148549980Y-85999995D01*
X148528282Y-85971718D01*
X148402841Y-85875464D01*
X148391798Y-85870890D01*
X148256762Y-85814956D01*
X148256760Y-85814955D01*
X148139361Y-85799500D01*
X148100000Y-85794318D01*
X148064670Y-85798969D01*
X148056572Y-85799500D01*
X146590663Y-85799500D01*
X146524691Y-85780494D01*
X146427692Y-85719545D01*
X146427691Y-85719544D01*
X146427690Y-85719544D01*
X146371842Y-85700002D01*
X146268056Y-85663685D01*
X146100003Y-85644751D01*
X146099997Y-85644751D01*
X145931943Y-85663685D01*
X145772305Y-85719545D01*
X145772302Y-85719547D01*
X145629115Y-85809518D01*
X145629109Y-85809523D01*
X145509523Y-85929109D01*
X145509518Y-85929115D01*
X145419547Y-86072302D01*
X145419545Y-86072305D01*
X145363685Y-86231943D01*
X145344751Y-86399997D01*
X145344751Y-86400002D01*
X145363685Y-86568056D01*
X145419545Y-86727692D01*
X145486361Y-86834028D01*
X145505361Y-86901264D01*
X145486361Y-86965972D01*
X145419545Y-87072307D01*
X145419544Y-87072310D01*
X145415031Y-87085206D01*
X145374307Y-87141981D01*
X145337800Y-87159351D01*
X145338513Y-87161388D01*
X145331943Y-87163686D01*
X145331941Y-87163687D01*
X145276188Y-87183195D01*
X145172307Y-87219544D01*
X145172302Y-87219547D01*
X145029115Y-87309518D01*
X145029109Y-87309523D01*
X144909523Y-87429109D01*
X144909518Y-87429115D01*
X144819547Y-87572302D01*
X144819545Y-87572305D01*
X144763685Y-87731943D01*
X144744751Y-87899997D01*
X144744751Y-87900004D01*
X144758163Y-88019046D01*
X144746108Y-88087868D01*
X144698759Y-88139247D01*
X144648828Y-88156149D01*
X144581943Y-88163685D01*
X144422305Y-88219545D01*
X144422302Y-88219547D01*
X144279115Y-88309518D01*
X144279109Y-88309523D01*
X144159523Y-88429109D01*
X144159518Y-88429115D01*
X144069547Y-88572302D01*
X144069545Y-88572305D01*
X144013685Y-88731943D01*
X143994751Y-88899997D01*
X143994751Y-88900002D01*
X141435023Y-88900002D01*
X141390481Y-88829115D01*
X141390476Y-88829109D01*
X141270890Y-88709523D01*
X141270884Y-88709518D01*
X141127697Y-88619547D01*
X141127694Y-88619545D01*
X140968056Y-88563685D01*
X140800003Y-88544751D01*
X140799997Y-88544751D01*
X140631943Y-88563685D01*
X140490955Y-88613020D01*
X140421176Y-88616581D01*
X140409045Y-88613020D01*
X140268056Y-88563685D01*
X140100003Y-88544751D01*
X140099997Y-88544751D01*
X139931943Y-88563685D01*
X139772305Y-88619545D01*
X139772302Y-88619547D01*
X139629115Y-88709518D01*
X139629109Y-88709523D01*
X139509523Y-88829109D01*
X139509518Y-88829115D01*
X139419547Y-88972302D01*
X139419545Y-88972305D01*
X139363685Y-89131943D01*
X139344751Y-89299997D01*
X139344751Y-89300002D01*
X139363685Y-89468056D01*
X139419545Y-89627694D01*
X139419547Y-89627697D01*
X139509518Y-89770884D01*
X139509523Y-89770890D01*
X139629109Y-89890476D01*
X139629115Y-89890481D01*
X139772302Y-89980452D01*
X139772305Y-89980454D01*
X139772309Y-89980455D01*
X139772310Y-89980456D01*
X139865576Y-90013091D01*
X139931944Y-90036314D01*
X140089383Y-90054053D01*
X140153797Y-90081119D01*
X140193353Y-90138714D01*
X140199500Y-90177273D01*
X140199500Y-93356571D01*
X140198969Y-93364673D01*
X140194318Y-93399999D01*
X140194318Y-93400002D01*
X140195544Y-93409315D01*
X140184778Y-93478350D01*
X140138398Y-93530606D01*
X140072605Y-93549500D01*
X138350097Y-93549500D01*
X138283058Y-93529815D01*
X138262416Y-93513181D01*
X138036819Y-93287584D01*
X138003334Y-93226261D01*
X138000500Y-93199903D01*
X138000500Y-90177273D01*
X138020185Y-90110234D01*
X138072989Y-90064479D01*
X138110617Y-90054053D01*
X138268055Y-90036314D01*
X138268057Y-90036313D01*
X138268059Y-90036313D01*
X138427690Y-89980456D01*
X138427692Y-89980454D01*
X138427694Y-89980454D01*
X138427697Y-89980452D01*
X138570884Y-89890481D01*
X138570885Y-89890480D01*
X138570890Y-89890477D01*
X138690477Y-89770890D01*
X138690481Y-89770884D01*
X138780452Y-89627697D01*
X138780454Y-89627694D01*
X138780454Y-89627692D01*
X138780456Y-89627690D01*
X138836313Y-89468059D01*
X138836313Y-89468058D01*
X138836314Y-89468056D01*
X138855249Y-89300002D01*
X138855249Y-89299997D01*
X138836314Y-89131943D01*
X138786813Y-88990477D01*
X138780456Y-88972310D01*
X138780455Y-88972309D01*
X138780454Y-88972305D01*
X138780452Y-88972302D01*
X138690481Y-88829115D01*
X138690476Y-88829109D01*
X138570890Y-88709523D01*
X138570884Y-88709518D01*
X138427697Y-88619547D01*
X138427694Y-88619545D01*
X138268056Y-88563685D01*
X138100003Y-88544751D01*
X138099997Y-88544751D01*
X137931943Y-88563685D01*
X137790955Y-88613020D01*
X137721176Y-88616581D01*
X137709045Y-88613020D01*
X137568056Y-88563685D01*
X137400003Y-88544751D01*
X137399997Y-88544751D01*
X137231943Y-88563685D01*
X137072305Y-88619545D01*
X137072302Y-88619547D01*
X136929115Y-88709518D01*
X136929109Y-88709523D01*
X136809523Y-88829109D01*
X136809518Y-88829115D01*
X136719547Y-88972302D01*
X136719545Y-88972305D01*
X136663685Y-89131943D01*
X136644751Y-89299997D01*
X136644751Y-89300002D01*
X136663686Y-89468057D01*
X136719544Y-89627690D01*
X136780493Y-89724689D01*
X136799500Y-89790662D01*
X136799500Y-93456571D01*
X136798969Y-93464669D01*
X136798523Y-93468059D01*
X136794318Y-93499999D01*
X136794318Y-93500000D01*
X136799500Y-93539360D01*
X136814955Y-93656760D01*
X136814956Y-93656762D01*
X136875464Y-93802841D01*
X136971718Y-93928282D01*
X136999995Y-93949980D01*
X137006085Y-93955320D01*
X137052030Y-94001265D01*
X137083956Y-94033191D01*
X137117441Y-94094514D01*
X137112457Y-94164206D01*
X137070585Y-94220139D01*
X137062248Y-94225865D01*
X136929112Y-94309521D01*
X136929109Y-94309523D01*
X136809523Y-94429109D01*
X136809518Y-94429115D01*
X136719547Y-94572302D01*
X136719545Y-94572305D01*
X136663685Y-94731943D01*
X136644751Y-94899997D01*
X136644751Y-94900002D01*
X129000500Y-94900002D01*
X129000500Y-85400002D01*
X136644751Y-85400002D01*
X136663685Y-85568056D01*
X136719545Y-85727694D01*
X136719547Y-85727697D01*
X136809518Y-85870884D01*
X136809523Y-85870890D01*
X136929109Y-85990476D01*
X136929115Y-85990481D01*
X137072302Y-86080452D01*
X137072305Y-86080454D01*
X137072309Y-86080455D01*
X137072310Y-86080456D01*
X137120462Y-86097305D01*
X137231943Y-86136314D01*
X137399997Y-86155249D01*
X137400000Y-86155249D01*
X137400003Y-86155249D01*
X137568056Y-86136314D01*
X137568059Y-86136313D01*
X137727690Y-86080456D01*
X137845815Y-86006232D01*
X137913051Y-85987232D01*
X137977760Y-86006233D01*
X138095878Y-86080452D01*
X138109516Y-86089021D01*
X138109514Y-86089021D01*
X138109518Y-86089022D01*
X138109519Y-86089023D01*
X138133188Y-86097305D01*
X138269152Y-86144881D01*
X138437206Y-86163816D01*
X138437209Y-86163816D01*
X138437212Y-86163816D01*
X138605265Y-86144881D01*
X138642240Y-86131943D01*
X138764899Y-86089023D01*
X138764901Y-86089021D01*
X138764903Y-86089021D01*
X138764906Y-86089019D01*
X138908093Y-85999048D01*
X138908094Y-85999047D01*
X138908099Y-85999044D01*
X138985207Y-85921935D01*
X139046530Y-85888451D01*
X139116222Y-85893435D01*
X139160569Y-85921936D01*
X139229109Y-85990476D01*
X139229115Y-85990481D01*
X139372302Y-86080452D01*
X139372305Y-86080454D01*
X139372309Y-86080455D01*
X139372310Y-86080456D01*
X139420462Y-86097305D01*
X139531943Y-86136314D01*
X139699997Y-86155249D01*
X139700000Y-86155249D01*
X139700003Y-86155249D01*
X139868056Y-86136314D01*
X139880548Y-86131943D01*
X140027690Y-86080456D01*
X140027692Y-86080454D01*
X140027694Y-86080454D01*
X140027697Y-86080452D01*
X140170884Y-85990481D01*
X140170885Y-85990480D01*
X140170890Y-85990477D01*
X140290477Y-85870890D01*
X140316726Y-85829115D01*
X140380452Y-85727697D01*
X140380454Y-85727694D01*
X140380454Y-85727692D01*
X140380456Y-85727690D01*
X140436313Y-85568059D01*
X140436313Y-85568058D01*
X140436314Y-85568056D01*
X140455249Y-85400002D01*
X140455249Y-85399997D01*
X140436314Y-85231943D01*
X140393477Y-85109523D01*
X140380456Y-85072310D01*
X140380455Y-85072309D01*
X140380454Y-85072305D01*
X140380452Y-85072302D01*
X140290481Y-84929115D01*
X140290476Y-84929109D01*
X140170890Y-84809523D01*
X140170884Y-84809518D01*
X140027697Y-84719547D01*
X140027694Y-84719545D01*
X139868056Y-84663685D01*
X139700003Y-84644751D01*
X139699997Y-84644751D01*
X139531943Y-84663685D01*
X139372305Y-84719545D01*
X139372302Y-84719547D01*
X139229115Y-84809518D01*
X139229108Y-84809524D01*
X139152000Y-84886631D01*
X139090677Y-84920116D01*
X139020985Y-84915130D01*
X138976639Y-84886630D01*
X138908099Y-84818090D01*
X138908093Y-84818085D01*
X138764906Y-84728114D01*
X138764903Y-84728112D01*
X138605265Y-84672252D01*
X138437212Y-84653318D01*
X138437206Y-84653318D01*
X138269152Y-84672252D01*
X138109516Y-84728112D01*
X137991393Y-84802334D01*
X137924156Y-84821334D01*
X137859449Y-84802334D01*
X137727692Y-84719545D01*
X137727691Y-84719544D01*
X137727690Y-84719544D01*
X137689370Y-84706135D01*
X137568056Y-84663685D01*
X137400003Y-84644751D01*
X137399997Y-84644751D01*
X137231943Y-84663685D01*
X137072305Y-84719545D01*
X137072302Y-84719547D01*
X136929115Y-84809518D01*
X136929109Y-84809523D01*
X136809523Y-84929109D01*
X136809518Y-84929115D01*
X136719547Y-85072302D01*
X136719545Y-85072305D01*
X136663685Y-85231943D01*
X136644751Y-85399997D01*
X136644751Y-85400002D01*
X129000500Y-85400002D01*
X129000500Y-82124334D01*
X130499500Y-82124334D01*
X130540429Y-82369616D01*
X130621169Y-82604802D01*
X130621172Y-82604811D01*
X130739524Y-82823506D01*
X130739526Y-82823509D01*
X130892262Y-83019744D01*
X131018890Y-83136313D01*
X131075217Y-83188166D01*
X131283393Y-83324173D01*
X131511118Y-83424063D01*
X131752175Y-83485107D01*
X131752179Y-83485108D01*
X131752181Y-83485108D01*
X131752186Y-83485109D01*
X131885376Y-83496145D01*
X131937933Y-83500500D01*
X131937935Y-83500500D01*
X132062065Y-83500500D01*
X132062067Y-83500500D01*
X132123284Y-83495427D01*
X132247813Y-83485109D01*
X132247816Y-83485108D01*
X132247821Y-83485108D01*
X132488881Y-83424063D01*
X132716607Y-83324173D01*
X132906666Y-83200002D01*
X152294751Y-83200002D01*
X152313685Y-83368056D01*
X152369545Y-83527694D01*
X152369547Y-83527697D01*
X152459518Y-83670884D01*
X152459523Y-83670890D01*
X152579109Y-83790476D01*
X152579115Y-83790481D01*
X152722302Y-83880452D01*
X152722305Y-83880454D01*
X152722309Y-83880455D01*
X152722310Y-83880456D01*
X152794913Y-83905860D01*
X152881943Y-83936314D01*
X153049997Y-83955249D01*
X153050000Y-83955249D01*
X153050003Y-83955249D01*
X153218056Y-83936314D01*
X153218059Y-83936313D01*
X153377690Y-83880456D01*
X153377692Y-83880454D01*
X153377694Y-83880454D01*
X153377697Y-83880452D01*
X153520884Y-83790481D01*
X153520885Y-83790479D01*
X153520890Y-83790477D01*
X153520893Y-83790473D01*
X153526333Y-83786136D01*
X153527450Y-83787537D01*
X153580797Y-83758408D01*
X153650489Y-83763392D01*
X153694836Y-83791893D01*
X153711264Y-83808321D01*
X153711270Y-83808326D01*
X153854457Y-83898297D01*
X153854460Y-83898299D01*
X153854464Y-83898300D01*
X153854465Y-83898301D01*
X153927068Y-83923705D01*
X154014098Y-83954159D01*
X154182152Y-83973094D01*
X154182155Y-83973094D01*
X154182158Y-83973094D01*
X154350211Y-83954159D01*
X154401212Y-83936313D01*
X154509845Y-83898301D01*
X154509847Y-83898299D01*
X154509849Y-83898299D01*
X154509852Y-83898297D01*
X154653039Y-83808326D01*
X154653040Y-83808325D01*
X154653045Y-83808322D01*
X154772632Y-83688735D01*
X154862607Y-83545542D01*
X154862609Y-83545539D01*
X154862609Y-83545537D01*
X154862611Y-83545535D01*
X154918468Y-83385904D01*
X154918468Y-83385903D01*
X154918469Y-83385901D01*
X154937404Y-83217847D01*
X154937404Y-83217842D01*
X154918469Y-83049788D01*
X154862609Y-82890150D01*
X154862607Y-82890147D01*
X154772636Y-82746960D01*
X154772631Y-82746954D01*
X154653045Y-82627368D01*
X154653039Y-82627363D01*
X154509852Y-82537392D01*
X154509849Y-82537390D01*
X154350211Y-82481530D01*
X154182158Y-82462596D01*
X154182152Y-82462596D01*
X154014098Y-82481530D01*
X153854460Y-82537390D01*
X153854457Y-82537392D01*
X153711267Y-82627365D01*
X153705817Y-82631712D01*
X153704701Y-82630312D01*
X153651340Y-82659440D01*
X153581649Y-82654446D01*
X153537316Y-82625949D01*
X153520890Y-82609523D01*
X153520891Y-82609523D01*
X153377692Y-82519545D01*
X153377691Y-82519544D01*
X153377690Y-82519544D01*
X153339370Y-82506135D01*
X153218056Y-82463685D01*
X153050003Y-82444751D01*
X153049997Y-82444751D01*
X152881943Y-82463685D01*
X152722305Y-82519545D01*
X152722302Y-82519547D01*
X152579115Y-82609518D01*
X152579109Y-82609523D01*
X152459523Y-82729109D01*
X152459518Y-82729115D01*
X152369547Y-82872302D01*
X152369545Y-82872305D01*
X152313685Y-83031943D01*
X152294751Y-83199997D01*
X152294751Y-83200002D01*
X132906666Y-83200002D01*
X132924785Y-83188164D01*
X133107738Y-83019744D01*
X133260474Y-82823509D01*
X133378828Y-82604810D01*
X133449139Y-82400002D01*
X148644751Y-82400002D01*
X148663685Y-82568056D01*
X148719545Y-82727694D01*
X148719547Y-82727697D01*
X148809518Y-82870884D01*
X148809523Y-82870890D01*
X148929109Y-82990476D01*
X148929115Y-82990481D01*
X149072302Y-83080452D01*
X149072305Y-83080454D01*
X149072309Y-83080455D01*
X149072310Y-83080456D01*
X149144913Y-83105860D01*
X149231943Y-83136314D01*
X149399997Y-83155249D01*
X149400000Y-83155249D01*
X149400003Y-83155249D01*
X149568056Y-83136314D01*
X149568059Y-83136313D01*
X149727690Y-83080456D01*
X149727692Y-83080454D01*
X149727694Y-83080454D01*
X149727697Y-83080452D01*
X149870884Y-82990481D01*
X149870885Y-82990480D01*
X149870890Y-82990477D01*
X149990477Y-82870890D01*
X150020249Y-82823509D01*
X150080452Y-82727697D01*
X150080454Y-82727694D01*
X150080454Y-82727692D01*
X150080456Y-82727690D01*
X150136313Y-82568059D01*
X150136313Y-82568058D01*
X150136314Y-82568056D01*
X150155249Y-82400002D01*
X150155249Y-82399997D01*
X150136314Y-82231943D01*
X150098660Y-82124334D01*
X166499500Y-82124334D01*
X166540429Y-82369616D01*
X166621169Y-82604802D01*
X166621172Y-82604811D01*
X166739524Y-82823506D01*
X166739526Y-82823509D01*
X166892262Y-83019744D01*
X167018890Y-83136313D01*
X167075217Y-83188166D01*
X167283393Y-83324173D01*
X167511118Y-83424063D01*
X167752175Y-83485107D01*
X167752179Y-83485108D01*
X167752181Y-83485108D01*
X167752186Y-83485109D01*
X167885376Y-83496145D01*
X167937933Y-83500500D01*
X167937935Y-83500500D01*
X168062065Y-83500500D01*
X168062067Y-83500500D01*
X168123284Y-83495427D01*
X168247813Y-83485109D01*
X168247816Y-83485108D01*
X168247821Y-83485108D01*
X168488881Y-83424063D01*
X168716607Y-83324173D01*
X168924785Y-83188164D01*
X169107738Y-83019744D01*
X169260474Y-82823509D01*
X169378828Y-82604810D01*
X169459571Y-82369614D01*
X169500500Y-82124335D01*
X169500500Y-81875665D01*
X169459571Y-81630386D01*
X169378828Y-81395190D01*
X169260474Y-81176491D01*
X169107738Y-80980256D01*
X168924785Y-80811836D01*
X168924782Y-80811833D01*
X168716606Y-80675826D01*
X168488881Y-80575936D01*
X168247824Y-80514892D01*
X168247813Y-80514890D01*
X168082548Y-80501197D01*
X168062067Y-80499500D01*
X167937933Y-80499500D01*
X167918521Y-80501108D01*
X167752186Y-80514890D01*
X167752175Y-80514892D01*
X167511118Y-80575936D01*
X167283393Y-80675826D01*
X167075217Y-80811833D01*
X166892261Y-80980257D01*
X166739524Y-81176493D01*
X166621172Y-81395188D01*
X166621169Y-81395197D01*
X166540429Y-81630383D01*
X166499500Y-81875665D01*
X166499500Y-82124334D01*
X150098660Y-82124334D01*
X150080454Y-82072305D01*
X150080452Y-82072302D01*
X149990481Y-81929115D01*
X149990476Y-81929109D01*
X149870890Y-81809523D01*
X149870884Y-81809518D01*
X149727697Y-81719547D01*
X149727694Y-81719545D01*
X149568056Y-81663685D01*
X149400003Y-81644751D01*
X149399997Y-81644751D01*
X149231943Y-81663685D01*
X149072305Y-81719545D01*
X149072302Y-81719547D01*
X148929115Y-81809518D01*
X148929109Y-81809523D01*
X148809523Y-81929109D01*
X148809518Y-81929115D01*
X148719547Y-82072302D01*
X148719545Y-82072305D01*
X148663685Y-82231943D01*
X148644751Y-82399997D01*
X148644751Y-82400002D01*
X133449139Y-82400002D01*
X133459571Y-82369614D01*
X133500500Y-82124335D01*
X133500500Y-81875665D01*
X133459571Y-81630386D01*
X133378828Y-81395190D01*
X133260474Y-81176491D01*
X133107738Y-80980256D01*
X132924785Y-80811836D01*
X132924782Y-80811833D01*
X132716606Y-80675826D01*
X132488881Y-80575936D01*
X132247824Y-80514892D01*
X132247813Y-80514890D01*
X132082548Y-80501197D01*
X132062067Y-80499500D01*
X131937933Y-80499500D01*
X131918521Y-80501108D01*
X131752186Y-80514890D01*
X131752175Y-80514892D01*
X131511118Y-80575936D01*
X131283393Y-80675826D01*
X131075217Y-80811833D01*
X130892261Y-80980257D01*
X130739524Y-81176493D01*
X130621172Y-81395188D01*
X130621169Y-81395197D01*
X130540429Y-81630383D01*
X130499500Y-81875665D01*
X130499500Y-82124334D01*
X129000500Y-82124334D01*
X129000500Y-82001622D01*
X129000585Y-81998376D01*
X129007490Y-81866617D01*
X129017803Y-81682968D01*
X129018464Y-81676791D01*
X129042611Y-81524331D01*
X129070227Y-81361796D01*
X129071451Y-81356196D01*
X129112425Y-81203279D01*
X129157083Y-81048268D01*
X129158764Y-81043254D01*
X129216127Y-80893815D01*
X129277366Y-80745972D01*
X129279379Y-80741606D01*
X129352511Y-80598078D01*
X129364748Y-80575936D01*
X129429655Y-80458494D01*
X129431867Y-80454808D01*
X129519980Y-80319127D01*
X129534130Y-80299182D01*
X129612154Y-80189220D01*
X129614486Y-80186143D01*
X129715655Y-80061209D01*
X129717537Y-80058998D01*
X129822773Y-79941239D01*
X129825092Y-79938787D01*
X129938787Y-79825092D01*
X129941239Y-79822773D01*
X130058998Y-79717537D01*
X130061209Y-79715655D01*
X130186143Y-79614486D01*
X130189220Y-79612154D01*
X130299182Y-79534130D01*
X130319127Y-79519980D01*
X130336076Y-79508973D01*
X130454808Y-79431867D01*
X130458494Y-79429655D01*
X130598078Y-79352511D01*
X130619003Y-79341849D01*
X130741606Y-79279379D01*
X130745972Y-79277366D01*
X130893815Y-79216127D01*
X131043254Y-79158764D01*
X131048268Y-79157083D01*
X131203279Y-79112425D01*
X131356196Y-79071451D01*
X131361796Y-79070227D01*
X131524284Y-79042618D01*
X131676791Y-79018464D01*
X131682968Y-79017803D01*
X131866566Y-79007493D01*
X131998380Y-79000584D01*
X132001622Y-79000500D01*
X134087206Y-79000500D01*
X134154245Y-79020185D01*
G37*
%TD.AperFunction*%
%TD*%
M02*
