%TF.GenerationSoftware,KiCad,Pcbnew,7.0.6*%
%TF.CreationDate,2023-09-15T14:04:58+02:00*%
%TF.ProjectId,V8,56382e6b-6963-4616-945f-706362585858,rev?*%
%TF.SameCoordinates,Original*%
%TF.FileFunction,Copper,L2,Inr*%
%TF.FilePolarity,Positive*%
%FSLAX46Y46*%
G04 Gerber Fmt 4.6, Leading zero omitted, Abs format (unit mm)*
G04 Created by KiCad (PCBNEW 7.0.6) date 2023-09-15 14:04:58*
%MOMM*%
%LPD*%
G01*
G04 APERTURE LIST*
%TA.AperFunction,ComponentPad*%
%ADD10R,1.000000X1.000000*%
%TD*%
%TA.AperFunction,ComponentPad*%
%ADD11O,1.000000X1.000000*%
%TD*%
%TA.AperFunction,ViaPad*%
%ADD12C,0.500000*%
%TD*%
%TA.AperFunction,Conductor*%
%ADD13C,0.200000*%
%TD*%
G04 APERTURE END LIST*
D10*
%TO.N,DCap*%
%TO.C,J8*%
X169300000Y-102590000D03*
D11*
%TO.N,SWCLK*%
X169300000Y-103860000D03*
%TO.N,OB GND*%
X169300000Y-105130000D03*
%TO.N,SWDIO*%
X169300000Y-106400000D03*
%TO.N,NRST*%
X169300000Y-107670000D03*
%TD*%
D10*
%TO.N,DCap*%
%TO.C,J2*%
X169300000Y-114000000D03*
D11*
%TO.N,OB GND*%
X169300000Y-112730000D03*
%TO.N,USART TX*%
X169300000Y-111460000D03*
%TO.N,USART RX*%
X169300000Y-110190000D03*
%TD*%
D12*
%TO.N,OB VBat*%
X151300000Y-109700000D03*
%TO.N,OPA1*%
X140800000Y-89300000D03*
X146100000Y-96900000D03*
%TO.N,1-*%
X140100000Y-89300000D03*
%TO.N,2-*%
X138100000Y-89300000D03*
%TO.N,OPA2*%
X145500000Y-97414069D03*
X137400000Y-89300000D03*
%TO.N,3-*%
X138100000Y-94900000D03*
%TO.N,OPA3*%
X146100000Y-97900000D03*
X137400000Y-94900000D03*
%TO.N,OPA4*%
X145500000Y-98400000D03*
X140800000Y-94900000D03*
%TO.N,4-*%
X140100000Y-94900000D03*
%TO.N,OPA5*%
X137400000Y-107200000D03*
X152700000Y-98700000D03*
%TO.N,5-*%
X138100000Y-107200000D03*
%TO.N,OPA6*%
X137400000Y-101600000D03*
X151650000Y-98150000D03*
%TO.N,6-*%
X138100000Y-101600000D03*
%TO.N,OB GND*%
X161900000Y-103700000D03*
X139100000Y-107200000D03*
X137400000Y-85400000D03*
X158880000Y-118000000D03*
X149400000Y-82400000D03*
X153050000Y-83200000D03*
X139100000Y-94900000D03*
X158900000Y-108900000D03*
X162550000Y-109180000D03*
X167020000Y-85700000D03*
X150100000Y-102200000D03*
X144500000Y-95500000D03*
X145200000Y-110005566D03*
X146000000Y-104400000D03*
X144000000Y-100700500D03*
X144750000Y-88900000D03*
X151150000Y-90600000D03*
X151150000Y-86425000D03*
X144800000Y-93300000D03*
X138052500Y-98750000D03*
X143300000Y-90650000D03*
%TO.N,Net-(U2-C1)*%
X139700000Y-85400000D03*
%TO.N,OSC_IN*%
X145500000Y-91900000D03*
X143000000Y-103100000D03*
%TO.N,OSC_OUT*%
X147400000Y-101900000D03*
X146100000Y-92349500D03*
%TO.N,OSC32_IN*%
X141452500Y-97450000D03*
X145500000Y-89900000D03*
%TO.N,Net-(U2-CAP)*%
X138437209Y-85408567D03*
%TO.N,OSC32_OUT*%
X146150500Y-90400000D03*
X141452500Y-100050000D03*
%TO.N,NRST*%
X147900000Y-93900000D03*
%TO.N,SPI NSS*%
X151150000Y-95300000D03*
X146100000Y-87400000D03*
%TO.N,SPI MOSI*%
X146100000Y-88400000D03*
%TO.N,SPI SCK*%
X146100000Y-86400000D03*
X151150000Y-91491144D03*
%TO.N,SPI MISO*%
X145500000Y-87900000D03*
%TO.N,OB SDA*%
X163725000Y-109180000D03*
%TO.N,OB SDB*%
X164425000Y-109180000D03*
%TO.N,OB SCK*%
X163700000Y-94400000D03*
X168200000Y-94400000D03*
%TO.N,OB PPS*%
X153600000Y-113600000D03*
X153750000Y-109800000D03*
%TO.N,USART RX*%
X165125000Y-103680000D03*
X167000000Y-96900000D03*
%TO.N,RS 485 RE*%
X164425000Y-103680000D03*
X166500000Y-98400000D03*
%TO.N,RS 485 DE*%
X163700000Y-97900000D03*
X163725000Y-103680000D03*
%TO.N,USART TX*%
X163700000Y-96950000D03*
X163025000Y-103680000D03*
%TO.N,DCap*%
X139100000Y-89300000D03*
X165500000Y-109180000D03*
X131400000Y-110600000D03*
X151150000Y-94350000D03*
X155250000Y-83200000D03*
X150150000Y-84250000D03*
X139100000Y-101600000D03*
X164400000Y-101600000D03*
X139050000Y-86350000D03*
X151150000Y-89000000D03*
X136000000Y-82100000D03*
X131400000Y-113700000D03*
X166400000Y-85000000D03*
X140299383Y-86350000D03*
X151142845Y-93157155D03*
X152200000Y-102250000D03*
X151150000Y-96400000D03*
X166400000Y-96150000D03*
X131400000Y-112100000D03*
X167450000Y-93100000D03*
%TO.N,OB 3v3*%
X154375354Y-109574647D03*
X144900000Y-117900000D03*
%TO.N,A02*%
X153200000Y-114200000D03*
X160200000Y-98200000D03*
%TO.N,A04*%
X160700000Y-98700000D03*
X152400000Y-114200000D03*
%TO.N,A06*%
X151600000Y-114200000D03*
X161200000Y-98200000D03*
%TO.N,A08*%
X150800000Y-114200000D03*
X161700000Y-98700000D03*
%TO.N,B02*%
X152800000Y-113600000D03*
X159700000Y-98700000D03*
%TO.N,B04*%
X152000000Y-113600000D03*
X159200000Y-98200000D03*
%TO.N,B06*%
X151200000Y-113600000D03*
X158700000Y-98700000D03*
%TO.N,B08*%
X150400000Y-113600000D03*
X158200000Y-98200000D03*
%TO.N,C01*%
X150000000Y-114200000D03*
X153200000Y-98200000D03*
%TO.N,C03*%
X153700000Y-98700000D03*
X149200000Y-114200000D03*
%TO.N,C05*%
X148400000Y-114200000D03*
X154200000Y-96800000D03*
%TO.N,C07*%
X147600000Y-114200000D03*
X154700000Y-98700000D03*
%TO.N,C09*%
X155200000Y-98200000D03*
X146800000Y-114200000D03*
%TO.N,D01*%
X157700000Y-98700000D03*
X149600000Y-113600000D03*
%TO.N,D03*%
X157200000Y-98200000D03*
X148800000Y-113600000D03*
%TO.N,D05*%
X148000000Y-113600000D03*
X156700000Y-98700000D03*
%TO.N,D07*%
X147200000Y-113600000D03*
X156200000Y-98200000D03*
%TO.N,D09*%
X155700000Y-98700000D03*
X146400000Y-113600000D03*
%TO.N,SWCLK*%
X163200000Y-86300000D03*
%TO.N,SWDIO*%
X168650000Y-87850000D03*
%TO.N,BOOT*%
X154182155Y-83217845D03*
%TO.N,OB 5v*%
X154400000Y-117800000D03*
X146000000Y-110005566D03*
%TD*%
D13*
%TO.N,B04*%
X152450000Y-113150000D02*
X152000000Y-113600000D01*
X152450000Y-108577565D02*
X152450000Y-113150000D01*
X159200000Y-101827565D02*
X152450000Y-108577565D01*
X159200000Y-98200000D02*
X159200000Y-101827565D01*
%TO.N,B06*%
X153366904Y-106000000D02*
X150700000Y-108666904D01*
X150700000Y-113100000D02*
X151200000Y-113600000D01*
X153753301Y-106000000D02*
X153366904Y-106000000D01*
X150700000Y-108666904D02*
X150700000Y-113100000D01*
X158700000Y-101053301D02*
X153753301Y-106000000D01*
X158700000Y-98700000D02*
X158700000Y-101053301D01*
%TO.N,B08*%
X153629037Y-105700000D02*
X153242640Y-105700000D01*
X150400000Y-108542640D02*
X150400000Y-113600000D01*
X158200000Y-101129037D02*
X153629037Y-105700000D01*
X158200000Y-98200000D02*
X158200000Y-101129037D01*
X153242640Y-105700000D02*
X150400000Y-108542640D01*
%TO.N,D01*%
X153118376Y-105400000D02*
X149600000Y-108918376D01*
X153504773Y-105400000D02*
X153118376Y-105400000D01*
X157700000Y-101204773D02*
X153504773Y-105400000D01*
X149600000Y-108918376D02*
X149600000Y-113600000D01*
X157700000Y-98700000D02*
X157700000Y-101204773D01*
%TO.N,D03*%
X148800000Y-109294112D02*
X148800000Y-113600000D01*
X152994112Y-105100000D02*
X148800000Y-109294112D01*
X153380509Y-105100000D02*
X152994112Y-105100000D01*
X157200000Y-101280509D02*
X153380509Y-105100000D01*
X157200000Y-98200000D02*
X157200000Y-101280509D01*
%TO.N,D05*%
X153256245Y-104800000D02*
X152869848Y-104800000D01*
X148000000Y-109669848D02*
X148000000Y-113600000D01*
X156700000Y-101356245D02*
X153256245Y-104800000D01*
X152869848Y-104800000D02*
X148000000Y-109669848D01*
X156700000Y-98700000D02*
X156700000Y-101356245D01*
%TO.N,D07*%
X147200000Y-110045584D02*
X147200000Y-113600000D01*
X152745584Y-104500000D02*
X147200000Y-110045584D01*
X156200000Y-101431981D02*
X153131981Y-104500000D01*
X156200000Y-98200000D02*
X156200000Y-101431981D01*
X153131981Y-104500000D02*
X152745584Y-104500000D01*
%TO.N,D09*%
X153007717Y-104200000D02*
X152621320Y-104200000D01*
X152621320Y-104200000D02*
X146400000Y-110421320D01*
X155700000Y-101507717D02*
X153007717Y-104200000D01*
X146400000Y-110421320D02*
X146400000Y-113600000D01*
X155700000Y-98700000D02*
X155700000Y-101507717D01*
%TO.N,C09*%
X146350000Y-114650000D02*
X146800000Y-114200000D01*
X145013603Y-114650000D02*
X146350000Y-114650000D01*
X144400000Y-114036397D02*
X145013603Y-114650000D01*
X146841490Y-109555566D02*
X145013603Y-109555566D01*
X145013603Y-109555566D02*
X144400000Y-110169169D01*
X152497056Y-103900000D02*
X146841490Y-109555566D01*
X152883453Y-103900000D02*
X152497056Y-103900000D01*
X155200000Y-101583453D02*
X152883453Y-103900000D01*
X144400000Y-110169169D02*
X144400000Y-114036397D01*
X155200000Y-98200000D02*
X155200000Y-101583453D01*
%TO.N,C07*%
X146850000Y-114950000D02*
X147600000Y-114200000D01*
X144889339Y-114950000D02*
X146850000Y-114950000D01*
X144100000Y-114160661D02*
X144889339Y-114950000D01*
X144889339Y-109255566D02*
X144100000Y-110044905D01*
X144100000Y-110044905D02*
X144100000Y-114160661D01*
X146717226Y-109255566D02*
X144889339Y-109255566D01*
X152759189Y-103600000D02*
X152372792Y-103600000D01*
X152372792Y-103600000D02*
X146717226Y-109255566D01*
X154700000Y-101659189D02*
X152759189Y-103600000D01*
X154700000Y-98700000D02*
X154700000Y-101659189D01*
%TO.N,C05*%
X144765075Y-115250000D02*
X147350000Y-115250000D01*
X143800000Y-114284925D02*
X144765075Y-115250000D01*
X144765075Y-108955566D02*
X143800000Y-109920641D01*
X152634925Y-103300000D02*
X152248528Y-103300000D01*
X143800000Y-109920641D02*
X143800000Y-114284925D01*
X154200000Y-101734925D02*
X152634925Y-103300000D01*
X154200000Y-96800000D02*
X154200000Y-101734925D01*
X147350000Y-115250000D02*
X148400000Y-114200000D01*
X152248528Y-103300000D02*
X146592962Y-108955566D01*
X146592962Y-108955566D02*
X144765075Y-108955566D01*
%TO.N,C03*%
X147850000Y-115550000D02*
X149200000Y-114200000D01*
X144640811Y-115550000D02*
X147850000Y-115550000D01*
X143500000Y-114409189D02*
X144640811Y-115550000D01*
X143500000Y-109796377D02*
X143500000Y-114409189D01*
X146468698Y-108655566D02*
X144640811Y-108655566D01*
X144640811Y-108655566D02*
X143500000Y-109796377D01*
X152510661Y-103000000D02*
X152124264Y-103000000D01*
X153700000Y-98700000D02*
X153700000Y-101810661D01*
X153700000Y-101810661D02*
X152510661Y-103000000D01*
X152124264Y-103000000D02*
X146468698Y-108655566D01*
%TO.N,C01*%
X144516547Y-115850000D02*
X148350000Y-115850000D01*
X143200000Y-109672113D02*
X143200000Y-114533453D01*
X152000000Y-102700000D02*
X146344434Y-108355566D01*
X148350000Y-115850000D02*
X150000000Y-114200000D01*
X146344434Y-108355566D02*
X144516547Y-108355566D01*
X153200000Y-101886397D02*
X152386397Y-102700000D01*
X144516547Y-108355566D02*
X143200000Y-109672113D01*
X143200000Y-114533453D02*
X144516547Y-115850000D01*
X153200000Y-98200000D02*
X153200000Y-101886397D01*
X152386397Y-102700000D02*
X152000000Y-102700000D01*
%TO.N,OSC_IN*%
X143200000Y-98726764D02*
X143200000Y-93048528D01*
X143200000Y-93048528D02*
X144348528Y-91900000D01*
X144348528Y-91900000D02*
X145500000Y-91900000D01*
X143000000Y-103100000D02*
X143000000Y-98926764D01*
X143000000Y-98926764D02*
X143200000Y-98726764D01*
%TO.N,OSC_OUT*%
X143500000Y-98800000D02*
X145200000Y-100500000D01*
X146100000Y-92349500D02*
X144323292Y-92349500D01*
X144323292Y-92349500D02*
X143500000Y-93172792D01*
X145200000Y-100500000D02*
X146700000Y-100500000D01*
X146700000Y-100500000D02*
X147400000Y-101200000D01*
X147400000Y-101200000D02*
X147400000Y-101900000D01*
X143500000Y-93172792D02*
X143500000Y-98800000D01*
%TO.N,OSC32_IN*%
X142600000Y-96302500D02*
X141452500Y-97450000D01*
X145500000Y-89900000D02*
X142600000Y-92800000D01*
X142600000Y-92800000D02*
X142600000Y-96302500D01*
%TO.N,OSC32_OUT*%
X142900000Y-92924264D02*
X142900000Y-98602500D01*
X144950500Y-91600000D02*
X144224264Y-91600000D01*
X142900000Y-98602500D02*
X141452500Y-100050000D01*
X144224264Y-91600000D02*
X142900000Y-92924264D01*
X146150500Y-90400000D02*
X144950500Y-91600000D01*
%TO.N,OB SCK*%
X168200000Y-94400000D02*
X163700000Y-94400000D01*
%TO.N,OB PPS*%
X153750000Y-109800000D02*
X153750000Y-113450000D01*
X153750000Y-113450000D02*
X153600000Y-113600000D01*
%TO.N,USART RX*%
X167000000Y-101700000D02*
X165125000Y-103575000D01*
X165125000Y-103575000D02*
X165125000Y-103680000D01*
X165125000Y-106015000D02*
X169300000Y-110190000D01*
X167000000Y-96900000D02*
X167000000Y-101700000D01*
X165125000Y-103680000D02*
X165125000Y-106015000D01*
%TO.N,RS 485 RE*%
X166500000Y-98400000D02*
X166500000Y-101605000D01*
X166500000Y-101605000D02*
X164425000Y-103680000D01*
%TO.N,RS 485 DE*%
X163725000Y-97925000D02*
X163700000Y-97900000D01*
X163725000Y-103680000D02*
X163725000Y-97925000D01*
%TO.N,USART TX*%
X163025000Y-105185000D02*
X169300000Y-111460000D01*
X163100000Y-97550000D02*
X163100000Y-103605000D01*
X163100000Y-103605000D02*
X163025000Y-103680000D01*
X163700000Y-96950000D02*
X163100000Y-97550000D01*
X163025000Y-103680000D02*
X163025000Y-105185000D01*
%TO.N,A02*%
X154000000Y-108563603D02*
X154000000Y-107876093D01*
X154000000Y-107876093D02*
X160200000Y-101676093D01*
X155250000Y-114386397D02*
X155250000Y-109813603D01*
X155250000Y-109813603D02*
X154000000Y-108563603D01*
X154986397Y-114650000D02*
X155250000Y-114386397D01*
X153650000Y-114650000D02*
X154986397Y-114650000D01*
X160200000Y-101676093D02*
X160200000Y-98200000D01*
X153200000Y-114200000D02*
X153650000Y-114650000D01*
%TO.N,A04*%
X155110661Y-114950000D02*
X153150000Y-114950000D01*
X160700000Y-98700000D02*
X160700000Y-101600357D01*
X153150000Y-114950000D02*
X152400000Y-114200000D01*
X155550000Y-109689339D02*
X155550000Y-114510661D01*
X155550000Y-114510661D02*
X155110661Y-114950000D01*
X160700000Y-101600357D02*
X154300000Y-108000357D01*
X154300000Y-108439339D02*
X155550000Y-109689339D01*
X154300000Y-108000357D02*
X154300000Y-108439339D01*
%TO.N,A06*%
X152650000Y-115250000D02*
X151600000Y-114200000D01*
X154600000Y-108315075D02*
X155850000Y-109565075D01*
X161200000Y-101524621D02*
X154600000Y-108124621D01*
X161200000Y-98200000D02*
X161200000Y-101524621D01*
X154600000Y-108124621D02*
X154600000Y-108315075D01*
X155234925Y-115250000D02*
X152650000Y-115250000D01*
X155850000Y-114634925D02*
X155234925Y-115250000D01*
X155850000Y-109565075D02*
X155850000Y-114634925D01*
%TO.N,A08*%
X152150000Y-115550000D02*
X150800000Y-114200000D01*
X161700000Y-101448885D02*
X154929037Y-108219848D01*
X155359189Y-115550000D02*
X152150000Y-115550000D01*
X154929037Y-108219848D02*
X156150000Y-109440811D01*
X156150000Y-109440811D02*
X156150000Y-114759189D01*
X156150000Y-114759189D02*
X155359189Y-115550000D01*
X161700000Y-98700000D02*
X161700000Y-101448885D01*
%TO.N,B02*%
X159700000Y-98700000D02*
X159700000Y-101751829D01*
X159700000Y-101751829D02*
X152750000Y-108701829D01*
X152750000Y-113550000D02*
X152800000Y-113600000D01*
X152750000Y-108701829D02*
X152750000Y-113550000D01*
%TO.N,SWDIO*%
X168650000Y-95886397D02*
X167300000Y-97236397D01*
X168100000Y-107600000D02*
X169300000Y-106400000D01*
X165425000Y-104075000D02*
X165425000Y-105890736D01*
X167134264Y-107600000D02*
X168100000Y-107600000D01*
X165425000Y-105890736D02*
X167134264Y-107600000D01*
X167300000Y-97236397D02*
X167300000Y-102200000D01*
X168650000Y-87850000D02*
X168650000Y-95886397D01*
X167300000Y-102200000D02*
X165425000Y-104075000D01*
%TD*%
%TA.AperFunction,Conductor*%
%TO.N,OB GND*%
G36*
X134154245Y-79020185D02*
G01*
X134200000Y-79072989D01*
X134209321Y-79102964D01*
X134214370Y-79131603D01*
X134217691Y-79150436D01*
X134216369Y-79162283D01*
X134223433Y-79185570D01*
X134225162Y-79192807D01*
X134237000Y-79259940D01*
X134265216Y-79337461D01*
X134266047Y-79350543D01*
X134274211Y-79365817D01*
X134281374Y-79381858D01*
X134296874Y-79424443D01*
X134296878Y-79424451D01*
X134345630Y-79508892D01*
X134349113Y-79523248D01*
X134358870Y-79535138D01*
X134370402Y-79551798D01*
X134372580Y-79555570D01*
X134384407Y-79576055D01*
X134384410Y-79576059D01*
X134387514Y-79580492D01*
X134387141Y-79580752D01*
X134396493Y-79594588D01*
X134398382Y-79598122D01*
X134416841Y-79614710D01*
X134455962Y-79661331D01*
X134462540Y-79676361D01*
X134473006Y-79684950D01*
X134489330Y-79701097D01*
X134496938Y-79710164D01*
X134506004Y-79717771D01*
X134522152Y-79734096D01*
X134526293Y-79739142D01*
X134545771Y-79751140D01*
X134592391Y-79790258D01*
X134602296Y-79805146D01*
X134612513Y-79810607D01*
X134626345Y-79819958D01*
X134626607Y-79819586D01*
X134631043Y-79822692D01*
X134631047Y-79822694D01*
X134631048Y-79822695D01*
X134655306Y-79836700D01*
X134671967Y-79848231D01*
X134678933Y-79853947D01*
X134698211Y-79861471D01*
X134782660Y-79910227D01*
X134825256Y-79925730D01*
X134841295Y-79932892D01*
X134851531Y-79938363D01*
X134869640Y-79941884D01*
X134947168Y-79970102D01*
X135014298Y-79981938D01*
X135021534Y-79983667D01*
X135039787Y-79989203D01*
X135056660Y-79989407D01*
X135119574Y-80000501D01*
X135207107Y-80000500D01*
X135209142Y-80000500D01*
X135215224Y-80000799D01*
X135251489Y-80004371D01*
X135274334Y-80000500D01*
X164904031Y-80000500D01*
X164925648Y-80006847D01*
X164988291Y-80000788D01*
X164994264Y-80000500D01*
X165087528Y-80000500D01*
X165087532Y-80000500D01*
X165150646Y-79989371D01*
X165162445Y-79990687D01*
X165185617Y-79983658D01*
X165192843Y-79981931D01*
X165259938Y-79970101D01*
X165259943Y-79970099D01*
X165259944Y-79970099D01*
X165298880Y-79955927D01*
X165337589Y-79941837D01*
X165350637Y-79941008D01*
X165365852Y-79932876D01*
X165381893Y-79925712D01*
X165424445Y-79910225D01*
X165508973Y-79861421D01*
X165523309Y-79857943D01*
X165535172Y-79848208D01*
X165551825Y-79836681D01*
X165576055Y-79822692D01*
X165576060Y-79822687D01*
X165580491Y-79819586D01*
X165580755Y-79819964D01*
X165594566Y-79810623D01*
X165598087Y-79808740D01*
X165614657Y-79790300D01*
X165661395Y-79751083D01*
X165676406Y-79744514D01*
X165684975Y-79734073D01*
X165701126Y-79717745D01*
X165710163Y-79710163D01*
X165717745Y-79701126D01*
X165734073Y-79684975D01*
X165739100Y-79680849D01*
X165751081Y-79661398D01*
X165790298Y-79614660D01*
X165805171Y-79604765D01*
X165810623Y-79594566D01*
X165819964Y-79580755D01*
X165819586Y-79580491D01*
X165822687Y-79576061D01*
X165822687Y-79576060D01*
X165822692Y-79576055D01*
X165836681Y-79551825D01*
X165848208Y-79535172D01*
X165853904Y-79528230D01*
X165861422Y-79508973D01*
X165878084Y-79480115D01*
X165910225Y-79424445D01*
X165925712Y-79381893D01*
X165932876Y-79365852D01*
X165938319Y-79355668D01*
X165941838Y-79337589D01*
X165970099Y-79259944D01*
X165970100Y-79259940D01*
X165970101Y-79259938D01*
X165981931Y-79192843D01*
X165983658Y-79185617D01*
X165989166Y-79167459D01*
X165989370Y-79150649D01*
X165997778Y-79102965D01*
X166028805Y-79040364D01*
X166088753Y-79004474D01*
X166119894Y-79000500D01*
X167998378Y-79000500D01*
X168001619Y-79000584D01*
X168133628Y-79007503D01*
X168317027Y-79017803D01*
X168323212Y-79018465D01*
X168475647Y-79042608D01*
X168638194Y-79070226D01*
X168643811Y-79071453D01*
X168796693Y-79112418D01*
X168889122Y-79139046D01*
X168951724Y-79157082D01*
X168956759Y-79158769D01*
X169106183Y-79216127D01*
X169254007Y-79277358D01*
X169258412Y-79279388D01*
X169324180Y-79312899D01*
X169401921Y-79352511D01*
X169456514Y-79382683D01*
X169541480Y-79429641D01*
X169545215Y-79431882D01*
X169619487Y-79480115D01*
X169680872Y-79519980D01*
X169731032Y-79555570D01*
X169810764Y-79612142D01*
X169813886Y-79614510D01*
X169938748Y-79715621D01*
X169941034Y-79717567D01*
X170019413Y-79787610D01*
X170058669Y-79822692D01*
X170058721Y-79822738D01*
X170061248Y-79825128D01*
X170174870Y-79938750D01*
X170177260Y-79941277D01*
X170282431Y-80058964D01*
X170284385Y-80061260D01*
X170385480Y-80186102D01*
X170387862Y-80189243D01*
X170480019Y-80319127D01*
X170533758Y-80401875D01*
X170568106Y-80454767D01*
X170570364Y-80458531D01*
X170647488Y-80598078D01*
X170720604Y-80741575D01*
X170722643Y-80745997D01*
X170783877Y-80893829D01*
X170841221Y-81043217D01*
X170842916Y-81048273D01*
X170887579Y-81203297D01*
X170928541Y-81356171D01*
X170929778Y-81361835D01*
X170957394Y-81524369D01*
X170981530Y-81676758D01*
X170982196Y-81682985D01*
X170992509Y-81866617D01*
X170999415Y-81998377D01*
X170999500Y-82001623D01*
X170999500Y-117998376D01*
X170999415Y-118001622D01*
X170992509Y-118133382D01*
X170982196Y-118317013D01*
X170981530Y-118323240D01*
X170957394Y-118475630D01*
X170929778Y-118638163D01*
X170928541Y-118643827D01*
X170887579Y-118796702D01*
X170842916Y-118951725D01*
X170841221Y-118956781D01*
X170783877Y-119106170D01*
X170722643Y-119254001D01*
X170720604Y-119258423D01*
X170647488Y-119401921D01*
X170570364Y-119541467D01*
X170568097Y-119545246D01*
X170480019Y-119680872D01*
X170387862Y-119810755D01*
X170385480Y-119813896D01*
X170284385Y-119938738D01*
X170282431Y-119941034D01*
X170177260Y-120058721D01*
X170174870Y-120061248D01*
X170061248Y-120174870D01*
X170058721Y-120177260D01*
X169941034Y-120282431D01*
X169938738Y-120284385D01*
X169813896Y-120385480D01*
X169810755Y-120387862D01*
X169680872Y-120480019D01*
X169545246Y-120568097D01*
X169541467Y-120570364D01*
X169401921Y-120647488D01*
X169258423Y-120720604D01*
X169254001Y-120722643D01*
X169106170Y-120783877D01*
X168956781Y-120841221D01*
X168951725Y-120842916D01*
X168796702Y-120887579D01*
X168643827Y-120928541D01*
X168638163Y-120929778D01*
X168475630Y-120957394D01*
X168323240Y-120981530D01*
X168317013Y-120982196D01*
X168133382Y-120992509D01*
X168001622Y-120999415D01*
X167998376Y-120999500D01*
X132001624Y-120999500D01*
X131998378Y-120999415D01*
X131866617Y-120992509D01*
X131682985Y-120982196D01*
X131676758Y-120981530D01*
X131524369Y-120957394D01*
X131361835Y-120929778D01*
X131356171Y-120928541D01*
X131203297Y-120887579D01*
X131048273Y-120842916D01*
X131043217Y-120841221D01*
X130893829Y-120783877D01*
X130745997Y-120722643D01*
X130741575Y-120720604D01*
X130598078Y-120647488D01*
X130458531Y-120570364D01*
X130454767Y-120568106D01*
X130401875Y-120533758D01*
X130319127Y-120480019D01*
X130189243Y-120387862D01*
X130186102Y-120385480D01*
X130061260Y-120284385D01*
X130058964Y-120282431D01*
X129941277Y-120177260D01*
X129938750Y-120174870D01*
X129825128Y-120061248D01*
X129822738Y-120058721D01*
X129717567Y-119941034D01*
X129715613Y-119938738D01*
X129676848Y-119890867D01*
X129614510Y-119813886D01*
X129612136Y-119810755D01*
X129519980Y-119680872D01*
X129487406Y-119630715D01*
X129431882Y-119545215D01*
X129429641Y-119541480D01*
X129364748Y-119424063D01*
X129352511Y-119401921D01*
X129312896Y-119324173D01*
X129279388Y-119258412D01*
X129277358Y-119254007D01*
X129216122Y-119106170D01*
X129158769Y-118956759D01*
X129157082Y-118951724D01*
X129139046Y-118889122D01*
X129112414Y-118796679D01*
X129107316Y-118777652D01*
X129071453Y-118643811D01*
X129070226Y-118638194D01*
X129042601Y-118475606D01*
X129018465Y-118323212D01*
X129017803Y-118317027D01*
X129007490Y-118133382D01*
X129007016Y-118124335D01*
X130499500Y-118124335D01*
X130513142Y-118206094D01*
X130540429Y-118369616D01*
X130621169Y-118604802D01*
X130621172Y-118604811D01*
X130739524Y-118823506D01*
X130739526Y-118823509D01*
X130892262Y-119019744D01*
X130986133Y-119106158D01*
X131075217Y-119188166D01*
X131283393Y-119324173D01*
X131511118Y-119424063D01*
X131752175Y-119485107D01*
X131752179Y-119485108D01*
X131752181Y-119485108D01*
X131752186Y-119485109D01*
X131885376Y-119496145D01*
X131937933Y-119500500D01*
X131937935Y-119500500D01*
X132062065Y-119500500D01*
X132062067Y-119500500D01*
X132123284Y-119495427D01*
X132247813Y-119485109D01*
X132247816Y-119485108D01*
X132247821Y-119485108D01*
X132488881Y-119424063D01*
X132716607Y-119324173D01*
X132924785Y-119188164D01*
X133107738Y-119019744D01*
X133260474Y-118823509D01*
X133378828Y-118604810D01*
X133459571Y-118369614D01*
X133500500Y-118124335D01*
X133500500Y-117900002D01*
X144144751Y-117900002D01*
X144163685Y-118068056D01*
X144219545Y-118227694D01*
X144219547Y-118227697D01*
X144309518Y-118370884D01*
X144309523Y-118370890D01*
X144429109Y-118490476D01*
X144429115Y-118490481D01*
X144572302Y-118580452D01*
X144572305Y-118580454D01*
X144572309Y-118580455D01*
X144572310Y-118580456D01*
X144641887Y-118604802D01*
X144731943Y-118636314D01*
X144899997Y-118655249D01*
X144900000Y-118655249D01*
X144900003Y-118655249D01*
X145068056Y-118636314D01*
X145104302Y-118623631D01*
X145227690Y-118580456D01*
X145227692Y-118580454D01*
X145227694Y-118580454D01*
X145227697Y-118580452D01*
X145370884Y-118490481D01*
X145370885Y-118490480D01*
X145370890Y-118490477D01*
X145490477Y-118370890D01*
X145524322Y-118317027D01*
X145580452Y-118227697D01*
X145580454Y-118227694D01*
X145580454Y-118227692D01*
X145580456Y-118227690D01*
X145636313Y-118068059D01*
X145636313Y-118068058D01*
X145636314Y-118068056D01*
X145655249Y-117900002D01*
X145655249Y-117899997D01*
X145643982Y-117800002D01*
X153644751Y-117800002D01*
X153663685Y-117968056D01*
X153719545Y-118127694D01*
X153719547Y-118127697D01*
X153809518Y-118270884D01*
X153809523Y-118270890D01*
X153929109Y-118390476D01*
X153929115Y-118390481D01*
X154072302Y-118480452D01*
X154072305Y-118480454D01*
X154072309Y-118480455D01*
X154072310Y-118480456D01*
X154100946Y-118490476D01*
X154231943Y-118536314D01*
X154399997Y-118555249D01*
X154400000Y-118555249D01*
X154400003Y-118555249D01*
X154568056Y-118536314D01*
X154568059Y-118536313D01*
X154727690Y-118480456D01*
X154727692Y-118480454D01*
X154727694Y-118480454D01*
X154727697Y-118480452D01*
X154870884Y-118390481D01*
X154870885Y-118390480D01*
X154870890Y-118390477D01*
X154990477Y-118270890D01*
X155061882Y-118157250D01*
X155080452Y-118127697D01*
X155080454Y-118127694D01*
X155080454Y-118127692D01*
X155080456Y-118127690D01*
X155081630Y-118124335D01*
X166499500Y-118124335D01*
X166513142Y-118206094D01*
X166540429Y-118369616D01*
X166621169Y-118604802D01*
X166621172Y-118604811D01*
X166739524Y-118823506D01*
X166739526Y-118823509D01*
X166892262Y-119019744D01*
X166986133Y-119106158D01*
X167075217Y-119188166D01*
X167283393Y-119324173D01*
X167511118Y-119424063D01*
X167752175Y-119485107D01*
X167752179Y-119485108D01*
X167752181Y-119485108D01*
X167752186Y-119485109D01*
X167885376Y-119496145D01*
X167937933Y-119500500D01*
X167937935Y-119500500D01*
X168062065Y-119500500D01*
X168062067Y-119500500D01*
X168123284Y-119495427D01*
X168247813Y-119485109D01*
X168247816Y-119485108D01*
X168247821Y-119485108D01*
X168488881Y-119424063D01*
X168716607Y-119324173D01*
X168924785Y-119188164D01*
X169107738Y-119019744D01*
X169260474Y-118823509D01*
X169378828Y-118604810D01*
X169459571Y-118369614D01*
X169500500Y-118124335D01*
X169500500Y-117875665D01*
X169459571Y-117630386D01*
X169378828Y-117395190D01*
X169260474Y-117176491D01*
X169107738Y-116980256D01*
X168924785Y-116811836D01*
X168924782Y-116811833D01*
X168716606Y-116675826D01*
X168488881Y-116575936D01*
X168247824Y-116514892D01*
X168247813Y-116514890D01*
X168082548Y-116501197D01*
X168062067Y-116499500D01*
X167937933Y-116499500D01*
X167918521Y-116501108D01*
X167752186Y-116514890D01*
X167752175Y-116514892D01*
X167511118Y-116575936D01*
X167283393Y-116675826D01*
X167075217Y-116811833D01*
X166892261Y-116980257D01*
X166739524Y-117176493D01*
X166621172Y-117395188D01*
X166621169Y-117395197D01*
X166540429Y-117630383D01*
X166512126Y-117800000D01*
X166499500Y-117875665D01*
X166499500Y-118124335D01*
X155081630Y-118124335D01*
X155136313Y-117968059D01*
X155136313Y-117968058D01*
X155136314Y-117968056D01*
X155155249Y-117800002D01*
X155155249Y-117799997D01*
X155136314Y-117631943D01*
X155080454Y-117472305D01*
X155080452Y-117472302D01*
X154990481Y-117329115D01*
X154990476Y-117329109D01*
X154870890Y-117209523D01*
X154870884Y-117209518D01*
X154727697Y-117119547D01*
X154727694Y-117119545D01*
X154568056Y-117063685D01*
X154400003Y-117044751D01*
X154399997Y-117044751D01*
X154231943Y-117063685D01*
X154072305Y-117119545D01*
X154072302Y-117119547D01*
X153929115Y-117209518D01*
X153929109Y-117209523D01*
X153809523Y-117329109D01*
X153809518Y-117329115D01*
X153719547Y-117472302D01*
X153719545Y-117472305D01*
X153663685Y-117631943D01*
X153644751Y-117799997D01*
X153644751Y-117800002D01*
X145643982Y-117800002D01*
X145636314Y-117731943D01*
X145600778Y-117630386D01*
X145580456Y-117572310D01*
X145580455Y-117572309D01*
X145580454Y-117572305D01*
X145580452Y-117572302D01*
X145490481Y-117429115D01*
X145490476Y-117429109D01*
X145370890Y-117309523D01*
X145370884Y-117309518D01*
X145227697Y-117219547D01*
X145227694Y-117219545D01*
X145068056Y-117163685D01*
X144900003Y-117144751D01*
X144899997Y-117144751D01*
X144731943Y-117163685D01*
X144572305Y-117219545D01*
X144572302Y-117219547D01*
X144429115Y-117309518D01*
X144429109Y-117309523D01*
X144309523Y-117429109D01*
X144309518Y-117429115D01*
X144219547Y-117572302D01*
X144219545Y-117572305D01*
X144163685Y-117731943D01*
X144144751Y-117899997D01*
X144144751Y-117900002D01*
X133500500Y-117900002D01*
X133500500Y-117875665D01*
X133459571Y-117630386D01*
X133378828Y-117395190D01*
X133260474Y-117176491D01*
X133107738Y-116980256D01*
X132924785Y-116811836D01*
X132924782Y-116811833D01*
X132716606Y-116675826D01*
X132488881Y-116575936D01*
X132247824Y-116514892D01*
X132247813Y-116514890D01*
X132082548Y-116501197D01*
X132062067Y-116499500D01*
X131937933Y-116499500D01*
X131918521Y-116501108D01*
X131752186Y-116514890D01*
X131752175Y-116514892D01*
X131511118Y-116575936D01*
X131283393Y-116675826D01*
X131075217Y-116811833D01*
X130892261Y-116980257D01*
X130739524Y-117176493D01*
X130621172Y-117395188D01*
X130621169Y-117395197D01*
X130540429Y-117630383D01*
X130512126Y-117800000D01*
X130499500Y-117875665D01*
X130499500Y-118124335D01*
X129007016Y-118124335D01*
X129000584Y-118001620D01*
X129000500Y-117998377D01*
X129000500Y-114533453D01*
X142594318Y-114533453D01*
X142599500Y-114572813D01*
X142614955Y-114690213D01*
X142614956Y-114690215D01*
X142675464Y-114836294D01*
X142771718Y-114961735D01*
X142799995Y-114983433D01*
X142806085Y-114988773D01*
X143761216Y-115943904D01*
X144061216Y-116243904D01*
X144066567Y-116250005D01*
X144088265Y-116278282D01*
X144213706Y-116374536D01*
X144359785Y-116435044D01*
X144438165Y-116445363D01*
X144516546Y-116455682D01*
X144516547Y-116455682D01*
X144551876Y-116451030D01*
X144559975Y-116450500D01*
X148306572Y-116450500D01*
X148314670Y-116451030D01*
X148350000Y-116455682D01*
X148350001Y-116455682D01*
X148402253Y-116448802D01*
X148506762Y-116435044D01*
X148652841Y-116374536D01*
X148652840Y-116374536D01*
X148690362Y-116358994D01*
X148714013Y-116327596D01*
X148778282Y-116278282D01*
X148799983Y-116249999D01*
X148805311Y-116243922D01*
X150075240Y-114973993D01*
X150136561Y-114940510D01*
X150149024Y-114938457D01*
X150168059Y-114936313D01*
X150327690Y-114880456D01*
X150334024Y-114876475D01*
X150401258Y-114857472D01*
X150465975Y-114876475D01*
X150472310Y-114880456D01*
X150472312Y-114880457D01*
X150522736Y-114898100D01*
X150631941Y-114936313D01*
X150650961Y-114938455D01*
X150715373Y-114965520D01*
X150724760Y-114973995D01*
X151694669Y-115943904D01*
X151700020Y-115950005D01*
X151721718Y-115978282D01*
X151758834Y-116006762D01*
X151847159Y-116074536D01*
X151993238Y-116135044D01*
X152071618Y-116145362D01*
X152149999Y-116155682D01*
X152150000Y-116155682D01*
X152185329Y-116151030D01*
X152193428Y-116150500D01*
X155315761Y-116150500D01*
X155323859Y-116151030D01*
X155359189Y-116155682D01*
X155359190Y-116155682D01*
X155411442Y-116148802D01*
X155515951Y-116135044D01*
X155662030Y-116074536D01*
X155750355Y-116006762D01*
X155787471Y-115978282D01*
X155809172Y-115949999D01*
X155814500Y-115943922D01*
X156543922Y-115214500D01*
X156549999Y-115209172D01*
X156578282Y-115187471D01*
X156674536Y-115062030D01*
X156735044Y-114915951D01*
X156750500Y-114798550D01*
X156755682Y-114759189D01*
X156751030Y-114723858D01*
X156750500Y-114715760D01*
X156750500Y-109484239D01*
X156751031Y-109476137D01*
X156753368Y-109458391D01*
X156755682Y-109440811D01*
X156744264Y-109354086D01*
X156735044Y-109284050D01*
X156735044Y-109284049D01*
X156674536Y-109137970D01*
X156652708Y-109109523D01*
X156578282Y-109012529D01*
X156550005Y-108990831D01*
X156543904Y-108985480D01*
X155865952Y-108307528D01*
X155832467Y-108246205D01*
X155837451Y-108176513D01*
X155865948Y-108132171D01*
X162093923Y-101904195D01*
X162099998Y-101898869D01*
X162128282Y-101877167D01*
X162224536Y-101751726D01*
X162260939Y-101663840D01*
X162304780Y-101609437D01*
X162371074Y-101587372D01*
X162438773Y-101604651D01*
X162486384Y-101655788D01*
X162499500Y-101711293D01*
X162499500Y-103092771D01*
X162479815Y-103159810D01*
X162463181Y-103180452D01*
X162434523Y-103209109D01*
X162434518Y-103209115D01*
X162344547Y-103352302D01*
X162344545Y-103352305D01*
X162288685Y-103511943D01*
X162269751Y-103679997D01*
X162269751Y-103680002D01*
X162288686Y-103848057D01*
X162344544Y-104007690D01*
X162405493Y-104104689D01*
X162424500Y-104170662D01*
X162424500Y-105141571D01*
X162423969Y-105149673D01*
X162419318Y-105184999D01*
X162419318Y-105185000D01*
X162424500Y-105224360D01*
X162439955Y-105341760D01*
X162439956Y-105341762D01*
X162500464Y-105487841D01*
X162596718Y-105613282D01*
X162624995Y-105634980D01*
X162631085Y-105640320D01*
X163953946Y-106963181D01*
X165268335Y-108277570D01*
X165301820Y-108338893D01*
X165296836Y-108408585D01*
X165254964Y-108464518D01*
X165221610Y-108482292D01*
X165172311Y-108499543D01*
X165172309Y-108499543D01*
X165028472Y-108589924D01*
X164961236Y-108608924D01*
X164896528Y-108589924D01*
X164752692Y-108499545D01*
X164752691Y-108499544D01*
X164752690Y-108499544D01*
X164714370Y-108486135D01*
X164593056Y-108443685D01*
X164425003Y-108424751D01*
X164424997Y-108424751D01*
X164256942Y-108443686D01*
X164115953Y-108493020D01*
X164046174Y-108496581D01*
X164034044Y-108493019D01*
X163893060Y-108443686D01*
X163725003Y-108424751D01*
X163724997Y-108424751D01*
X163556943Y-108443685D01*
X163397305Y-108499545D01*
X163397302Y-108499547D01*
X163254115Y-108589518D01*
X163254109Y-108589523D01*
X163134523Y-108709109D01*
X163134518Y-108709115D01*
X163044547Y-108852302D01*
X163044545Y-108852305D01*
X162988685Y-109011943D01*
X162969751Y-109179997D01*
X162969751Y-109180002D01*
X162988685Y-109348056D01*
X163044545Y-109507694D01*
X163044547Y-109507697D01*
X163134518Y-109650884D01*
X163134523Y-109650890D01*
X163254109Y-109770476D01*
X163254115Y-109770481D01*
X163397302Y-109860452D01*
X163397305Y-109860454D01*
X163397309Y-109860455D01*
X163397310Y-109860456D01*
X163406544Y-109863687D01*
X163556943Y-109916314D01*
X163724997Y-109935249D01*
X163725000Y-109935249D01*
X163725003Y-109935249D01*
X163893059Y-109916313D01*
X163893060Y-109916313D01*
X164034045Y-109866980D01*
X164103824Y-109863418D01*
X164115955Y-109866980D01*
X164256939Y-109916313D01*
X164424997Y-109935249D01*
X164425000Y-109935249D01*
X164425003Y-109935249D01*
X164593056Y-109916314D01*
X164593059Y-109916313D01*
X164752690Y-109860456D01*
X164895890Y-109770477D01*
X164895890Y-109770476D01*
X164896528Y-109770076D01*
X164963764Y-109751076D01*
X165028472Y-109770076D01*
X165029109Y-109770476D01*
X165029110Y-109770477D01*
X165172310Y-109860456D01*
X165293621Y-109902904D01*
X165331943Y-109916314D01*
X165499997Y-109935249D01*
X165500000Y-109935249D01*
X165500003Y-109935249D01*
X165668056Y-109916314D01*
X165668059Y-109916313D01*
X165827690Y-109860456D01*
X165827692Y-109860454D01*
X165827694Y-109860454D01*
X165827697Y-109860452D01*
X165970884Y-109770481D01*
X165970885Y-109770480D01*
X165970890Y-109770477D01*
X166090477Y-109650890D01*
X166090481Y-109650884D01*
X166180452Y-109507697D01*
X166180455Y-109507692D01*
X166180456Y-109507690D01*
X166197706Y-109458389D01*
X166238427Y-109401615D01*
X166303380Y-109375867D01*
X166371942Y-109389323D01*
X166402429Y-109411664D01*
X168267184Y-111276419D01*
X168300669Y-111337742D01*
X168302906Y-111376252D01*
X168294659Y-111459998D01*
X168294659Y-111459999D01*
X168313975Y-111656129D01*
X168371188Y-111844733D01*
X168464086Y-112018532D01*
X168467473Y-112023601D01*
X168465955Y-112024615D01*
X168489918Y-112081042D01*
X168478124Y-112149909D01*
X168467515Y-112166420D01*
X168467893Y-112166673D01*
X168464505Y-112171742D01*
X168371652Y-112345458D01*
X168330839Y-112479999D01*
X168330840Y-112480000D01*
X169085517Y-112480000D01*
X169014199Y-112564993D01*
X168975000Y-112672694D01*
X168975000Y-112787306D01*
X169014199Y-112895007D01*
X169085517Y-112980000D01*
X168330840Y-112980000D01*
X168371651Y-113114537D01*
X168372651Y-113116407D01*
X168372878Y-113117501D01*
X168373981Y-113120162D01*
X168373476Y-113120370D01*
X168386896Y-113184809D01*
X168362564Y-113249172D01*
X168356205Y-113257666D01*
X168356202Y-113257671D01*
X168305908Y-113392517D01*
X168299501Y-113452116D01*
X168299501Y-113452123D01*
X168299500Y-113452135D01*
X168299500Y-114547870D01*
X168299501Y-114547876D01*
X168305908Y-114607483D01*
X168356202Y-114742328D01*
X168356206Y-114742335D01*
X168442452Y-114857544D01*
X168442455Y-114857547D01*
X168557664Y-114943793D01*
X168557671Y-114943797D01*
X168692517Y-114994091D01*
X168692516Y-114994091D01*
X168699444Y-114994835D01*
X168752127Y-115000500D01*
X169847872Y-115000499D01*
X169907483Y-114994091D01*
X170042331Y-114943796D01*
X170157546Y-114857546D01*
X170243796Y-114742331D01*
X170294091Y-114607483D01*
X170300500Y-114547873D01*
X170300499Y-113452128D01*
X170294091Y-113392517D01*
X170286554Y-113372310D01*
X170243797Y-113257671D01*
X170243793Y-113257664D01*
X170237439Y-113249176D01*
X170213021Y-113183712D01*
X170226505Y-113120369D01*
X170226018Y-113120167D01*
X170227110Y-113117530D01*
X170227349Y-113116408D01*
X170228347Y-113114539D01*
X170269160Y-112980000D01*
X169514483Y-112980000D01*
X169585801Y-112895007D01*
X169625000Y-112787306D01*
X169625000Y-112672694D01*
X169585801Y-112564993D01*
X169514483Y-112480000D01*
X170269160Y-112480000D01*
X170269160Y-112479999D01*
X170228347Y-112345458D01*
X170135496Y-112171746D01*
X170132110Y-112166678D01*
X170133784Y-112165559D01*
X170110081Y-112109746D01*
X170121874Y-112040879D01*
X170132839Y-112023818D01*
X170132523Y-112023607D01*
X170135904Y-112018544D01*
X170135910Y-112018538D01*
X170228814Y-111844727D01*
X170286024Y-111656132D01*
X170305341Y-111460000D01*
X170286024Y-111263868D01*
X170228814Y-111075273D01*
X170228811Y-111075269D01*
X170228811Y-111075266D01*
X170135913Y-110901467D01*
X170132527Y-110896399D01*
X170134164Y-110895305D01*
X170110403Y-110839341D01*
X170122202Y-110770475D01*
X170132889Y-110753851D01*
X170132523Y-110753607D01*
X170135904Y-110748544D01*
X170135910Y-110748538D01*
X170228814Y-110574727D01*
X170286024Y-110386132D01*
X170305341Y-110190000D01*
X170286024Y-109993868D01*
X170228814Y-109805273D01*
X170228811Y-109805269D01*
X170228811Y-109805266D01*
X170135913Y-109631467D01*
X170135909Y-109631460D01*
X170010883Y-109479116D01*
X169858539Y-109354090D01*
X169858532Y-109354086D01*
X169684733Y-109261188D01*
X169684727Y-109261186D01*
X169496132Y-109203976D01*
X169496129Y-109203975D01*
X169300000Y-109184659D01*
X169299999Y-109184659D01*
X169216252Y-109192906D01*
X169147606Y-109179886D01*
X169116419Y-109157184D01*
X168738954Y-108779719D01*
X168705469Y-108718396D01*
X168710453Y-108648704D01*
X168752325Y-108592771D01*
X168817789Y-108568354D01*
X168885088Y-108582679D01*
X168915273Y-108598814D01*
X169103868Y-108656024D01*
X169300000Y-108675341D01*
X169496132Y-108656024D01*
X169684727Y-108598814D01*
X169702110Y-108589523D01*
X169858532Y-108505913D01*
X169858538Y-108505910D01*
X170010883Y-108380883D01*
X170135910Y-108228538D01*
X170228814Y-108054727D01*
X170286024Y-107866132D01*
X170305341Y-107670000D01*
X170286024Y-107473868D01*
X170228814Y-107285273D01*
X170135910Y-107111462D01*
X170135907Y-107111458D01*
X170132523Y-107106393D01*
X170134164Y-107105296D01*
X170110405Y-107049361D01*
X170122194Y-106980493D01*
X170132888Y-106963851D01*
X170132523Y-106963607D01*
X170135904Y-106958544D01*
X170135910Y-106958538D01*
X170228814Y-106784727D01*
X170286024Y-106596132D01*
X170305341Y-106400000D01*
X170286024Y-106203868D01*
X170228814Y-106015273D01*
X170135910Y-105841462D01*
X170135906Y-105841457D01*
X170132526Y-105836399D01*
X170134044Y-105835384D01*
X170110081Y-105778962D01*
X170121872Y-105710094D01*
X170132492Y-105693574D01*
X170132111Y-105693320D01*
X170135497Y-105688252D01*
X170228347Y-105514541D01*
X170269160Y-105380000D01*
X169514483Y-105380000D01*
X169585801Y-105295007D01*
X169625000Y-105187306D01*
X169625000Y-105072694D01*
X169585801Y-104964993D01*
X169514483Y-104880000D01*
X170269160Y-104880000D01*
X170269160Y-104879999D01*
X170228347Y-104745458D01*
X170135496Y-104571746D01*
X170132110Y-104566678D01*
X170133784Y-104565559D01*
X170110081Y-104509746D01*
X170121874Y-104440879D01*
X170132839Y-104423818D01*
X170132523Y-104423607D01*
X170135904Y-104418544D01*
X170135910Y-104418538D01*
X170228814Y-104244727D01*
X170286024Y-104056132D01*
X170305341Y-103860000D01*
X170286024Y-103663868D01*
X170228814Y-103475273D01*
X170227677Y-103473146D01*
X170227418Y-103471904D01*
X170226483Y-103469645D01*
X170226911Y-103469467D01*
X170213435Y-103404746D01*
X170237771Y-103340379D01*
X170243796Y-103332331D01*
X170294091Y-103197483D01*
X170300500Y-103137873D01*
X170300499Y-102042128D01*
X170294091Y-101982517D01*
X170284917Y-101957921D01*
X170243797Y-101847671D01*
X170243793Y-101847664D01*
X170157547Y-101732455D01*
X170157544Y-101732452D01*
X170042335Y-101646206D01*
X170042328Y-101646202D01*
X169907482Y-101595908D01*
X169907483Y-101595908D01*
X169847883Y-101589501D01*
X169847881Y-101589500D01*
X169847873Y-101589500D01*
X169847864Y-101589500D01*
X168752129Y-101589500D01*
X168752123Y-101589501D01*
X168692516Y-101595908D01*
X168557671Y-101646202D01*
X168557664Y-101646206D01*
X168442455Y-101732452D01*
X168442452Y-101732455D01*
X168356206Y-101847664D01*
X168356202Y-101847671D01*
X168305908Y-101982517D01*
X168299501Y-102042116D01*
X168299501Y-102042123D01*
X168299500Y-102042135D01*
X168299500Y-103137870D01*
X168299501Y-103137876D01*
X168305908Y-103197483D01*
X168356202Y-103332328D01*
X168356204Y-103332331D01*
X168362231Y-103340382D01*
X168386648Y-103405846D01*
X168373105Y-103469470D01*
X168373518Y-103469641D01*
X168372595Y-103471869D01*
X168372324Y-103473143D01*
X168371188Y-103475267D01*
X168313975Y-103663870D01*
X168294659Y-103860000D01*
X168313975Y-104056129D01*
X168313976Y-104056132D01*
X168348718Y-104170662D01*
X168371188Y-104244733D01*
X168464086Y-104418532D01*
X168467473Y-104423601D01*
X168465955Y-104424615D01*
X168489918Y-104481042D01*
X168478124Y-104549909D01*
X168467515Y-104566420D01*
X168467893Y-104566673D01*
X168464505Y-104571742D01*
X168371652Y-104745458D01*
X168330839Y-104879999D01*
X168330840Y-104880000D01*
X169085517Y-104880000D01*
X169014199Y-104964993D01*
X168975000Y-105072694D01*
X168975000Y-105187306D01*
X169014199Y-105295007D01*
X169085517Y-105380000D01*
X168330840Y-105380000D01*
X168371652Y-105514541D01*
X168464503Y-105688253D01*
X168467890Y-105693322D01*
X168466215Y-105694440D01*
X168489918Y-105750259D01*
X168478123Y-105819125D01*
X168467158Y-105836188D01*
X168467473Y-105836399D01*
X168464086Y-105841467D01*
X168371188Y-106015266D01*
X168313975Y-106203870D01*
X168294659Y-106400000D01*
X168294659Y-106400001D01*
X168302906Y-106483746D01*
X168289886Y-106552391D01*
X168267184Y-106583579D01*
X167887584Y-106963181D01*
X167826261Y-106996666D01*
X167799903Y-106999500D01*
X167434361Y-106999500D01*
X167367322Y-106979815D01*
X167346680Y-106963181D01*
X166061819Y-105678320D01*
X166028334Y-105616997D01*
X166025500Y-105590639D01*
X166025500Y-104375096D01*
X166045185Y-104308057D01*
X166061814Y-104287420D01*
X167693923Y-102655310D01*
X167699998Y-102649984D01*
X167728282Y-102628282D01*
X167824536Y-102502841D01*
X167885044Y-102356762D01*
X167900500Y-102239361D01*
X167905682Y-102200000D01*
X167901030Y-102164669D01*
X167900500Y-102156571D01*
X167900500Y-97536493D01*
X167920185Y-97469454D01*
X167936814Y-97448816D01*
X169043923Y-96341707D01*
X169049998Y-96336381D01*
X169078282Y-96314679D01*
X169174536Y-96189238D01*
X169235044Y-96043159D01*
X169250500Y-95925758D01*
X169255682Y-95886397D01*
X169251030Y-95851066D01*
X169250500Y-95842968D01*
X169250500Y-88340662D01*
X169269507Y-88274689D01*
X169296366Y-88231943D01*
X169330456Y-88177690D01*
X169386313Y-88018059D01*
X169405249Y-87850000D01*
X169405249Y-87849997D01*
X169386314Y-87681943D01*
X169330454Y-87522305D01*
X169330452Y-87522302D01*
X169240481Y-87379115D01*
X169240476Y-87379109D01*
X169120890Y-87259523D01*
X169120884Y-87259518D01*
X168977697Y-87169547D01*
X168977694Y-87169545D01*
X168818056Y-87113685D01*
X168650003Y-87094751D01*
X168649997Y-87094751D01*
X168481943Y-87113685D01*
X168322305Y-87169545D01*
X168322302Y-87169547D01*
X168179115Y-87259518D01*
X168179109Y-87259523D01*
X168059523Y-87379109D01*
X168059518Y-87379115D01*
X167969547Y-87522302D01*
X167969545Y-87522305D01*
X167913685Y-87681943D01*
X167894751Y-87849997D01*
X167894751Y-87850002D01*
X167913686Y-88018057D01*
X167969544Y-88177690D01*
X168030493Y-88274689D01*
X168049500Y-88340662D01*
X168049500Y-92365972D01*
X168029815Y-92433011D01*
X167977011Y-92478766D01*
X167907853Y-92488710D01*
X167859528Y-92470966D01*
X167777692Y-92419545D01*
X167777691Y-92419544D01*
X167777690Y-92419544D01*
X167726755Y-92401721D01*
X167618056Y-92363685D01*
X167450003Y-92344751D01*
X167449997Y-92344751D01*
X167281943Y-92363685D01*
X167122305Y-92419545D01*
X167122302Y-92419547D01*
X166979115Y-92509518D01*
X166979109Y-92509523D01*
X166859523Y-92629109D01*
X166859518Y-92629115D01*
X166769547Y-92772302D01*
X166769545Y-92772305D01*
X166713685Y-92931943D01*
X166694751Y-93099997D01*
X166694751Y-93100002D01*
X166713685Y-93268056D01*
X166769545Y-93427694D01*
X166769547Y-93427697D01*
X166859518Y-93570884D01*
X166859523Y-93570890D01*
X166876452Y-93587819D01*
X166909937Y-93649142D01*
X166904953Y-93718834D01*
X166863081Y-93774767D01*
X166797617Y-93799184D01*
X166788771Y-93799500D01*
X164190663Y-93799500D01*
X164124691Y-93780494D01*
X164118105Y-93776356D01*
X164085431Y-93755825D01*
X164027692Y-93719545D01*
X164027691Y-93719544D01*
X164027690Y-93719544D01*
X163989370Y-93706135D01*
X163868056Y-93663685D01*
X163700003Y-93644751D01*
X163699997Y-93644751D01*
X163531943Y-93663685D01*
X163372305Y-93719545D01*
X163372302Y-93719547D01*
X163229115Y-93809518D01*
X163229109Y-93809523D01*
X163109523Y-93929109D01*
X163109518Y-93929115D01*
X163019547Y-94072302D01*
X163019545Y-94072305D01*
X162963685Y-94231943D01*
X162944751Y-94399997D01*
X162944751Y-94400002D01*
X162963685Y-94568056D01*
X163019545Y-94727694D01*
X163019547Y-94727697D01*
X163109518Y-94870884D01*
X163109523Y-94870890D01*
X163229109Y-94990476D01*
X163229115Y-94990481D01*
X163372302Y-95080452D01*
X163372305Y-95080454D01*
X163372309Y-95080455D01*
X163372310Y-95080456D01*
X163444913Y-95105860D01*
X163531943Y-95136314D01*
X163699997Y-95155249D01*
X163700000Y-95155249D01*
X163700003Y-95155249D01*
X163868056Y-95136314D01*
X163868059Y-95136313D01*
X164027690Y-95080456D01*
X164124691Y-95019505D01*
X164190663Y-95000500D01*
X167709337Y-95000500D01*
X167775309Y-95019506D01*
X167872306Y-95080454D01*
X167872310Y-95080456D01*
X167966454Y-95113398D01*
X168023230Y-95154120D01*
X168048978Y-95219072D01*
X168049500Y-95230440D01*
X168049500Y-95586298D01*
X168029815Y-95653337D01*
X168013181Y-95673979D01*
X167483546Y-96203614D01*
X167422223Y-96237099D01*
X167352531Y-96232115D01*
X167329902Y-96220932D01*
X167327699Y-96219548D01*
X167327691Y-96219544D01*
X167229871Y-96185316D01*
X167173095Y-96144594D01*
X167147605Y-96082157D01*
X167136314Y-95981944D01*
X167102881Y-95886397D01*
X167080456Y-95822310D01*
X167080455Y-95822309D01*
X167080454Y-95822305D01*
X167080452Y-95822302D01*
X166990481Y-95679115D01*
X166990476Y-95679109D01*
X166870890Y-95559523D01*
X166870884Y-95559518D01*
X166727697Y-95469547D01*
X166727694Y-95469545D01*
X166568056Y-95413685D01*
X166400003Y-95394751D01*
X166399997Y-95394751D01*
X166231943Y-95413685D01*
X166072305Y-95469545D01*
X166072302Y-95469547D01*
X165929115Y-95559518D01*
X165929109Y-95559523D01*
X165809523Y-95679109D01*
X165809518Y-95679115D01*
X165719547Y-95822302D01*
X165719545Y-95822305D01*
X165663685Y-95981943D01*
X165644751Y-96149997D01*
X165644751Y-96150002D01*
X165663685Y-96318056D01*
X165719545Y-96477694D01*
X165719547Y-96477697D01*
X165809518Y-96620884D01*
X165809523Y-96620890D01*
X165929109Y-96740476D01*
X165929115Y-96740481D01*
X166072302Y-96830452D01*
X166072307Y-96830455D01*
X166072310Y-96830456D01*
X166170130Y-96864684D01*
X166226904Y-96905404D01*
X166252394Y-96967841D01*
X166263686Y-97068057D01*
X166319544Y-97227690D01*
X166380493Y-97324689D01*
X166399500Y-97390662D01*
X166399500Y-97552064D01*
X166379815Y-97619103D01*
X166327011Y-97664858D01*
X166316454Y-97669106D01*
X166172308Y-97719544D01*
X166172302Y-97719547D01*
X166029115Y-97809518D01*
X166029109Y-97809523D01*
X165909523Y-97929109D01*
X165909518Y-97929115D01*
X165819547Y-98072302D01*
X165819545Y-98072305D01*
X165763685Y-98231943D01*
X165744751Y-98399997D01*
X165744751Y-98400002D01*
X165763686Y-98568057D01*
X165819544Y-98727690D01*
X165880493Y-98824689D01*
X165899500Y-98890662D01*
X165899500Y-101304902D01*
X165879815Y-101371941D01*
X165863181Y-101392583D01*
X165331328Y-101924436D01*
X165270005Y-101957921D01*
X165200313Y-101952937D01*
X165144380Y-101911065D01*
X165119963Y-101845601D01*
X165126607Y-101795797D01*
X165136313Y-101768059D01*
X165155249Y-101600002D01*
X165155249Y-101599997D01*
X165136314Y-101431943D01*
X165080454Y-101272305D01*
X165080452Y-101272302D01*
X164990481Y-101129115D01*
X164990476Y-101129109D01*
X164870890Y-101009523D01*
X164870884Y-101009518D01*
X164727697Y-100919547D01*
X164727694Y-100919545D01*
X164568055Y-100863685D01*
X164435616Y-100848763D01*
X164371202Y-100821696D01*
X164331647Y-100764101D01*
X164325500Y-100725543D01*
X164325500Y-98350875D01*
X164344507Y-98284902D01*
X164380456Y-98227690D01*
X164407640Y-98150002D01*
X164436313Y-98068059D01*
X164448446Y-97960380D01*
X164455249Y-97900002D01*
X164455249Y-97899997D01*
X164436314Y-97731943D01*
X164393477Y-97609523D01*
X164380456Y-97572310D01*
X164380454Y-97572307D01*
X164380454Y-97572306D01*
X164329348Y-97490972D01*
X164310347Y-97423735D01*
X164329346Y-97359029D01*
X164380456Y-97277690D01*
X164436313Y-97118059D01*
X164436313Y-97118058D01*
X164436314Y-97118056D01*
X164455249Y-96950002D01*
X164455249Y-96949997D01*
X164436314Y-96781943D01*
X164397776Y-96671808D01*
X164380456Y-96622310D01*
X164380455Y-96622309D01*
X164380454Y-96622305D01*
X164380452Y-96622302D01*
X164290481Y-96479115D01*
X164290476Y-96479109D01*
X164170890Y-96359523D01*
X164170884Y-96359518D01*
X164027697Y-96269547D01*
X164027694Y-96269545D01*
X163868056Y-96213685D01*
X163700003Y-96194751D01*
X163699997Y-96194751D01*
X163531943Y-96213685D01*
X163372305Y-96269545D01*
X163372302Y-96269547D01*
X163229115Y-96359518D01*
X163229109Y-96359523D01*
X163109523Y-96479109D01*
X163109518Y-96479115D01*
X163019547Y-96622302D01*
X163019544Y-96622307D01*
X162963687Y-96781940D01*
X162963687Y-96781943D01*
X162961543Y-96800966D01*
X162934473Y-96865379D01*
X162926004Y-96874759D01*
X162706096Y-97094668D01*
X162699994Y-97100019D01*
X162671716Y-97121719D01*
X162596654Y-97219543D01*
X162575464Y-97247158D01*
X162575461Y-97247163D01*
X162514957Y-97393234D01*
X162514955Y-97393239D01*
X162498327Y-97519545D01*
X162494318Y-97550000D01*
X162498547Y-97582125D01*
X162498969Y-97585326D01*
X162499500Y-97593428D01*
X162499500Y-98138771D01*
X162479815Y-98205810D01*
X162427011Y-98251565D01*
X162357853Y-98261509D01*
X162294297Y-98232484D01*
X162287819Y-98226452D01*
X162170890Y-98109523D01*
X162170884Y-98109518D01*
X162027697Y-98019547D01*
X162027691Y-98019544D01*
X161974985Y-98001102D01*
X161918209Y-97960380D01*
X161898897Y-97925013D01*
X161880456Y-97872310D01*
X161880452Y-97872302D01*
X161790481Y-97729115D01*
X161790476Y-97729109D01*
X161670890Y-97609523D01*
X161670884Y-97609518D01*
X161527697Y-97519547D01*
X161527694Y-97519545D01*
X161368056Y-97463685D01*
X161200003Y-97444751D01*
X161199997Y-97444751D01*
X161031943Y-97463685D01*
X160872307Y-97519545D01*
X160765972Y-97586361D01*
X160698736Y-97605361D01*
X160634028Y-97586361D01*
X160527692Y-97519545D01*
X160527691Y-97519544D01*
X160527690Y-97519544D01*
X160489370Y-97506135D01*
X160368056Y-97463685D01*
X160200003Y-97444751D01*
X160199997Y-97444751D01*
X160031943Y-97463685D01*
X159872307Y-97519545D01*
X159765972Y-97586361D01*
X159698736Y-97605361D01*
X159634028Y-97586361D01*
X159527692Y-97519545D01*
X159527691Y-97519544D01*
X159527690Y-97519544D01*
X159489370Y-97506135D01*
X159368056Y-97463685D01*
X159200003Y-97444751D01*
X159199997Y-97444751D01*
X159031943Y-97463685D01*
X158872307Y-97519545D01*
X158765972Y-97586361D01*
X158698736Y-97605361D01*
X158634028Y-97586361D01*
X158527692Y-97519545D01*
X158527691Y-97519544D01*
X158527690Y-97519544D01*
X158489370Y-97506135D01*
X158368056Y-97463685D01*
X158200003Y-97444751D01*
X158199997Y-97444751D01*
X158031943Y-97463685D01*
X157872307Y-97519545D01*
X157765972Y-97586361D01*
X157698736Y-97605361D01*
X157634028Y-97586361D01*
X157527692Y-97519545D01*
X157527691Y-97519544D01*
X157527690Y-97519544D01*
X157489370Y-97506135D01*
X157368056Y-97463685D01*
X157200003Y-97444751D01*
X157199997Y-97444751D01*
X157031943Y-97463685D01*
X156872307Y-97519545D01*
X156765972Y-97586361D01*
X156698736Y-97605361D01*
X156634028Y-97586361D01*
X156527692Y-97519545D01*
X156527691Y-97519544D01*
X156527690Y-97519544D01*
X156489370Y-97506135D01*
X156368056Y-97463685D01*
X156200003Y-97444751D01*
X156199997Y-97444751D01*
X156031943Y-97463685D01*
X155872307Y-97519545D01*
X155765972Y-97586361D01*
X155698736Y-97605361D01*
X155634028Y-97586361D01*
X155527692Y-97519545D01*
X155527691Y-97519544D01*
X155527690Y-97519544D01*
X155489370Y-97506135D01*
X155368056Y-97463685D01*
X155200003Y-97444751D01*
X155199997Y-97444751D01*
X155031942Y-97463686D01*
X154965454Y-97486951D01*
X154895675Y-97490512D01*
X154835048Y-97455783D01*
X154802821Y-97393789D01*
X154800500Y-97369909D01*
X154800500Y-97290662D01*
X154819507Y-97224689D01*
X154863139Y-97155249D01*
X154880456Y-97127690D01*
X154936313Y-96968059D01*
X154946826Y-96874759D01*
X154955249Y-96800002D01*
X154955249Y-96799997D01*
X154936314Y-96631943D01*
X154882340Y-96477694D01*
X154880456Y-96472310D01*
X154880455Y-96472309D01*
X154880454Y-96472305D01*
X154880452Y-96472302D01*
X154790481Y-96329115D01*
X154790476Y-96329109D01*
X154670890Y-96209523D01*
X154670884Y-96209518D01*
X154527697Y-96119547D01*
X154527694Y-96119545D01*
X154368056Y-96063685D01*
X154200003Y-96044751D01*
X154199997Y-96044751D01*
X154031943Y-96063685D01*
X153872305Y-96119545D01*
X153872302Y-96119547D01*
X153729115Y-96209518D01*
X153729109Y-96209523D01*
X153609523Y-96329109D01*
X153609518Y-96329115D01*
X153519547Y-96472302D01*
X153519545Y-96472305D01*
X153463685Y-96631943D01*
X153444751Y-96799997D01*
X153444751Y-96800002D01*
X153463686Y-96968057D01*
X153519544Y-97127690D01*
X153580493Y-97224689D01*
X153599500Y-97290662D01*
X153599500Y-97369909D01*
X153579815Y-97436948D01*
X153527011Y-97482703D01*
X153457853Y-97492647D01*
X153434546Y-97486951D01*
X153368057Y-97463686D01*
X153200003Y-97444751D01*
X153199997Y-97444751D01*
X153031943Y-97463685D01*
X152872305Y-97519545D01*
X152872302Y-97519547D01*
X152729115Y-97609518D01*
X152729109Y-97609523D01*
X152609523Y-97729109D01*
X152609521Y-97729112D01*
X152545496Y-97831006D01*
X152493161Y-97877297D01*
X152424108Y-97887944D01*
X152360259Y-97859569D01*
X152335415Y-97827418D01*
X152334162Y-97828206D01*
X152240481Y-97679115D01*
X152240476Y-97679109D01*
X152120890Y-97559523D01*
X152120884Y-97559518D01*
X151977697Y-97469547D01*
X151977694Y-97469545D01*
X151818056Y-97413685D01*
X151650003Y-97394751D01*
X151649997Y-97394751D01*
X151481943Y-97413685D01*
X151322305Y-97469545D01*
X151322302Y-97469547D01*
X151179115Y-97559518D01*
X151179109Y-97559523D01*
X151059523Y-97679109D01*
X151059518Y-97679115D01*
X150969547Y-97822302D01*
X150969545Y-97822305D01*
X150913685Y-97981943D01*
X150894751Y-98149997D01*
X150894751Y-98150002D01*
X150913685Y-98318056D01*
X150969545Y-98477694D01*
X150969547Y-98477697D01*
X151059518Y-98620884D01*
X151059523Y-98620890D01*
X151179109Y-98740476D01*
X151179115Y-98740481D01*
X151322302Y-98830452D01*
X151322305Y-98830454D01*
X151322309Y-98830455D01*
X151322310Y-98830456D01*
X151392276Y-98854938D01*
X151481943Y-98886314D01*
X151649997Y-98905249D01*
X151650000Y-98905249D01*
X151650003Y-98905249D01*
X151818053Y-98886314D01*
X151818054Y-98886313D01*
X151818059Y-98886313D01*
X151836449Y-98879877D01*
X151906224Y-98876314D01*
X151966852Y-98911040D01*
X151994446Y-98955963D01*
X152019545Y-99027694D01*
X152019547Y-99027697D01*
X152109518Y-99170884D01*
X152109523Y-99170890D01*
X152229109Y-99290476D01*
X152229115Y-99290481D01*
X152372302Y-99380452D01*
X152372307Y-99380454D01*
X152372310Y-99380456D01*
X152372313Y-99380457D01*
X152516454Y-99430895D01*
X152573230Y-99471616D01*
X152598977Y-99536569D01*
X152599499Y-99547936D01*
X152599499Y-101419909D01*
X152579814Y-101486948D01*
X152527010Y-101532703D01*
X152457852Y-101542647D01*
X152434545Y-101536951D01*
X152368057Y-101513686D01*
X152200003Y-101494751D01*
X152199997Y-101494751D01*
X152031943Y-101513685D01*
X151872305Y-101569545D01*
X151872302Y-101569547D01*
X151729115Y-101659518D01*
X151729109Y-101659523D01*
X151609523Y-101779109D01*
X151609518Y-101779115D01*
X151519547Y-101922302D01*
X151519545Y-101922305D01*
X151463685Y-102081943D01*
X151444751Y-102249997D01*
X151444751Y-102250002D01*
X151453863Y-102330875D01*
X151441808Y-102399696D01*
X151418324Y-102432439D01*
X146132018Y-107718747D01*
X146070695Y-107752232D01*
X146044337Y-107755066D01*
X144559975Y-107755066D01*
X144551876Y-107754535D01*
X144516547Y-107749884D01*
X144477186Y-107755066D01*
X144359786Y-107770521D01*
X144359784Y-107770522D01*
X144213707Y-107831029D01*
X144088261Y-107927287D01*
X144066571Y-107955556D01*
X144061218Y-107961660D01*
X142806096Y-109216781D01*
X142799994Y-109222132D01*
X142771717Y-109243831D01*
X142740859Y-109284048D01*
X142734332Y-109292554D01*
X142691742Y-109348059D01*
X142675462Y-109369275D01*
X142675461Y-109369276D01*
X142614957Y-109515347D01*
X142614955Y-109515352D01*
X142597112Y-109650890D01*
X142594318Y-109672113D01*
X142598498Y-109703866D01*
X142598969Y-109707439D01*
X142599500Y-109715541D01*
X142599500Y-114490024D01*
X142598969Y-114498126D01*
X142594318Y-114533452D01*
X142594318Y-114533453D01*
X129000500Y-114533453D01*
X129000500Y-113700002D01*
X130644751Y-113700002D01*
X130663685Y-113868056D01*
X130719545Y-114027694D01*
X130719547Y-114027697D01*
X130809518Y-114170884D01*
X130809523Y-114170890D01*
X130929109Y-114290476D01*
X130929115Y-114290481D01*
X131072302Y-114380452D01*
X131072305Y-114380454D01*
X131072309Y-114380455D01*
X131072310Y-114380456D01*
X131144913Y-114405860D01*
X131231943Y-114436314D01*
X131399997Y-114455249D01*
X131400000Y-114455249D01*
X131400003Y-114455249D01*
X131568056Y-114436314D01*
X131568059Y-114436313D01*
X131727690Y-114380456D01*
X131727692Y-114380454D01*
X131727694Y-114380454D01*
X131727697Y-114380452D01*
X131870884Y-114290481D01*
X131870885Y-114290480D01*
X131870890Y-114290477D01*
X131990477Y-114170890D01*
X132066752Y-114049500D01*
X132080452Y-114027697D01*
X132080454Y-114027694D01*
X132080454Y-114027692D01*
X132080456Y-114027690D01*
X132136313Y-113868059D01*
X132136313Y-113868058D01*
X132136314Y-113868056D01*
X132155249Y-113700002D01*
X132155249Y-113699997D01*
X132136314Y-113531943D01*
X132080454Y-113372305D01*
X132080452Y-113372302D01*
X131990481Y-113229115D01*
X131990476Y-113229109D01*
X131870890Y-113109523D01*
X131870884Y-113109518D01*
X131727697Y-113019547D01*
X131727689Y-113019543D01*
X131720540Y-113017042D01*
X131663764Y-112976321D01*
X131638015Y-112911369D01*
X131651470Y-112842807D01*
X131699857Y-112792404D01*
X131720540Y-112782958D01*
X131722369Y-112782317D01*
X131727690Y-112780456D01*
X131727693Y-112780453D01*
X131727697Y-112780452D01*
X131870884Y-112690481D01*
X131870885Y-112690480D01*
X131870890Y-112690477D01*
X131990477Y-112570890D01*
X131990481Y-112570884D01*
X132080452Y-112427697D01*
X132080454Y-112427694D01*
X132080454Y-112427692D01*
X132080456Y-112427690D01*
X132136313Y-112268059D01*
X132136313Y-112268058D01*
X132136314Y-112268056D01*
X132155249Y-112100002D01*
X132155249Y-112099997D01*
X132136314Y-111931943D01*
X132080454Y-111772305D01*
X132080452Y-111772302D01*
X131990481Y-111629115D01*
X131990476Y-111629109D01*
X131870890Y-111509523D01*
X131784108Y-111454994D01*
X131737817Y-111402659D01*
X131727169Y-111333605D01*
X131755544Y-111269757D01*
X131784108Y-111245006D01*
X131870890Y-111190477D01*
X131990477Y-111070890D01*
X132080452Y-110927697D01*
X132080454Y-110927694D01*
X132080454Y-110927692D01*
X132080456Y-110927690D01*
X132136313Y-110768059D01*
X132136313Y-110768058D01*
X132136314Y-110768056D01*
X132155249Y-110600002D01*
X132155249Y-110599997D01*
X132136314Y-110431943D01*
X132104649Y-110341451D01*
X132080456Y-110272310D01*
X132080455Y-110272309D01*
X132080454Y-110272305D01*
X132080452Y-110272302D01*
X131990481Y-110129115D01*
X131990476Y-110129109D01*
X131870890Y-110009523D01*
X131870884Y-110009518D01*
X131727697Y-109919547D01*
X131727694Y-109919545D01*
X131568056Y-109863685D01*
X131400003Y-109844751D01*
X131399997Y-109844751D01*
X131231943Y-109863685D01*
X131072305Y-109919545D01*
X131072302Y-109919547D01*
X130929115Y-110009518D01*
X130929109Y-110009523D01*
X130809523Y-110129109D01*
X130809518Y-110129115D01*
X130719547Y-110272302D01*
X130719545Y-110272305D01*
X130663685Y-110431943D01*
X130644751Y-110599997D01*
X130644751Y-110600002D01*
X130663685Y-110768056D01*
X130719545Y-110927694D01*
X130719547Y-110927697D01*
X130809518Y-111070884D01*
X130809523Y-111070890D01*
X130929109Y-111190476D01*
X130929112Y-111190478D01*
X131015892Y-111245007D01*
X131062183Y-111297342D01*
X131072830Y-111366395D01*
X131044455Y-111430244D01*
X131015892Y-111454993D01*
X130929112Y-111509521D01*
X130929109Y-111509523D01*
X130809523Y-111629109D01*
X130809518Y-111629115D01*
X130719547Y-111772302D01*
X130719545Y-111772305D01*
X130663685Y-111931943D01*
X130644751Y-112099997D01*
X130644751Y-112100002D01*
X130663685Y-112268056D01*
X130719545Y-112427694D01*
X130719547Y-112427697D01*
X130809518Y-112570884D01*
X130809523Y-112570890D01*
X130929109Y-112690476D01*
X130929115Y-112690481D01*
X131072302Y-112780452D01*
X131072307Y-112780454D01*
X131072310Y-112780456D01*
X131072313Y-112780457D01*
X131079461Y-112782959D01*
X131136237Y-112823681D01*
X131161984Y-112888634D01*
X131148527Y-112957195D01*
X131100140Y-113007598D01*
X131079461Y-113017041D01*
X131072313Y-113019542D01*
X131072302Y-113019547D01*
X130929115Y-113109518D01*
X130929109Y-113109523D01*
X130809523Y-113229109D01*
X130809518Y-113229115D01*
X130719547Y-113372302D01*
X130719545Y-113372305D01*
X130663685Y-113531943D01*
X130644751Y-113699997D01*
X130644751Y-113700002D01*
X129000500Y-113700002D01*
X129000500Y-107200002D01*
X136644751Y-107200002D01*
X136663685Y-107368056D01*
X136719545Y-107527694D01*
X136719547Y-107527697D01*
X136809518Y-107670884D01*
X136809523Y-107670890D01*
X136929109Y-107790476D01*
X136929115Y-107790481D01*
X137072302Y-107880452D01*
X137072305Y-107880454D01*
X137072309Y-107880455D01*
X137072310Y-107880456D01*
X137090955Y-107886980D01*
X137231943Y-107936314D01*
X137399997Y-107955249D01*
X137400000Y-107955249D01*
X137400003Y-107955249D01*
X137568059Y-107936313D01*
X137568060Y-107936313D01*
X137709045Y-107886980D01*
X137778824Y-107883418D01*
X137790955Y-107886980D01*
X137931939Y-107936313D01*
X138099997Y-107955249D01*
X138100000Y-107955249D01*
X138100003Y-107955249D01*
X138268056Y-107936314D01*
X138293854Y-107927287D01*
X138427690Y-107880456D01*
X138427692Y-107880454D01*
X138427694Y-107880454D01*
X138427697Y-107880452D01*
X138570884Y-107790481D01*
X138570885Y-107790480D01*
X138570890Y-107790477D01*
X138690477Y-107670890D01*
X138780452Y-107527697D01*
X138780454Y-107527694D01*
X138780454Y-107527692D01*
X138780456Y-107527690D01*
X138836313Y-107368059D01*
X138836313Y-107368058D01*
X138836314Y-107368056D01*
X138855249Y-107200002D01*
X138855249Y-107199997D01*
X138836314Y-107031943D01*
X138780454Y-106872305D01*
X138780452Y-106872302D01*
X138690481Y-106729115D01*
X138690476Y-106729109D01*
X138570890Y-106609523D01*
X138570884Y-106609518D01*
X138427697Y-106519547D01*
X138427694Y-106519545D01*
X138268056Y-106463685D01*
X138100003Y-106444751D01*
X138099997Y-106444751D01*
X137931943Y-106463685D01*
X137790955Y-106513020D01*
X137721176Y-106516581D01*
X137709045Y-106513020D01*
X137568056Y-106463685D01*
X137400003Y-106444751D01*
X137399997Y-106444751D01*
X137231943Y-106463685D01*
X137072305Y-106519545D01*
X137072302Y-106519547D01*
X136929115Y-106609518D01*
X136929109Y-106609523D01*
X136809523Y-106729109D01*
X136809518Y-106729115D01*
X136719547Y-106872302D01*
X136719545Y-106872305D01*
X136663685Y-107031943D01*
X136644751Y-107199997D01*
X136644751Y-107200002D01*
X129000500Y-107200002D01*
X129000500Y-101600002D01*
X136644751Y-101600002D01*
X136663685Y-101768056D01*
X136719545Y-101927694D01*
X136719547Y-101927697D01*
X136809518Y-102070884D01*
X136809523Y-102070890D01*
X136929109Y-102190476D01*
X136929115Y-102190481D01*
X137072302Y-102280452D01*
X137072305Y-102280454D01*
X137072309Y-102280455D01*
X137072310Y-102280456D01*
X137090955Y-102286980D01*
X137231943Y-102336314D01*
X137399997Y-102355249D01*
X137400000Y-102355249D01*
X137400003Y-102355249D01*
X137568059Y-102336313D01*
X137568060Y-102336313D01*
X137709045Y-102286980D01*
X137778824Y-102283418D01*
X137790955Y-102286980D01*
X137931939Y-102336313D01*
X138099997Y-102355249D01*
X138100000Y-102355249D01*
X138100003Y-102355249D01*
X138268056Y-102336314D01*
X138295797Y-102326607D01*
X138427690Y-102280456D01*
X138534028Y-102213638D01*
X138601263Y-102194638D01*
X138665970Y-102213638D01*
X138706908Y-102239361D01*
X138772306Y-102280454D01*
X138772307Y-102280454D01*
X138772310Y-102280456D01*
X138878730Y-102317694D01*
X138931943Y-102336314D01*
X139099997Y-102355249D01*
X139100000Y-102355249D01*
X139100003Y-102355249D01*
X139268056Y-102336314D01*
X139295797Y-102326607D01*
X139427690Y-102280456D01*
X139427692Y-102280454D01*
X139427694Y-102280454D01*
X139427697Y-102280452D01*
X139570884Y-102190481D01*
X139570885Y-102190480D01*
X139570890Y-102190477D01*
X139690477Y-102070890D01*
X139708549Y-102042129D01*
X139780452Y-101927697D01*
X139780454Y-101927694D01*
X139780454Y-101927692D01*
X139780456Y-101927690D01*
X139836313Y-101768059D01*
X139836313Y-101768058D01*
X139836314Y-101768056D01*
X139855249Y-101600002D01*
X139855249Y-101599997D01*
X139836314Y-101431943D01*
X139780454Y-101272305D01*
X139780452Y-101272302D01*
X139690481Y-101129115D01*
X139690476Y-101129109D01*
X139570890Y-101009523D01*
X139570884Y-101009518D01*
X139427697Y-100919547D01*
X139427694Y-100919545D01*
X139268056Y-100863685D01*
X139100003Y-100844751D01*
X139099997Y-100844751D01*
X138931943Y-100863685D01*
X138772307Y-100919545D01*
X138665972Y-100986361D01*
X138598736Y-101005361D01*
X138534028Y-100986361D01*
X138427692Y-100919545D01*
X138427691Y-100919544D01*
X138427690Y-100919544D01*
X138389370Y-100906135D01*
X138268056Y-100863685D01*
X138100003Y-100844751D01*
X138099997Y-100844751D01*
X137931943Y-100863685D01*
X137790955Y-100913020D01*
X137721176Y-100916581D01*
X137709045Y-100913020D01*
X137568056Y-100863685D01*
X137400003Y-100844751D01*
X137399997Y-100844751D01*
X137231943Y-100863685D01*
X137072305Y-100919545D01*
X137072302Y-100919547D01*
X136929115Y-101009518D01*
X136929109Y-101009523D01*
X136809523Y-101129109D01*
X136809518Y-101129115D01*
X136719547Y-101272302D01*
X136719545Y-101272305D01*
X136663685Y-101431943D01*
X136644751Y-101599997D01*
X136644751Y-101600002D01*
X129000500Y-101600002D01*
X129000500Y-100050002D01*
X140697251Y-100050002D01*
X140716185Y-100218056D01*
X140772045Y-100377694D01*
X140772047Y-100377697D01*
X140862018Y-100520884D01*
X140862023Y-100520890D01*
X140981609Y-100640476D01*
X140981615Y-100640481D01*
X141124802Y-100730452D01*
X141124805Y-100730454D01*
X141124809Y-100730455D01*
X141124810Y-100730456D01*
X141165443Y-100744674D01*
X141284443Y-100786314D01*
X141452497Y-100805249D01*
X141452500Y-100805249D01*
X141452503Y-100805249D01*
X141620556Y-100786314D01*
X141662272Y-100771717D01*
X141780190Y-100730456D01*
X141780192Y-100730454D01*
X141780194Y-100730454D01*
X141780197Y-100730452D01*
X141923384Y-100640481D01*
X141923385Y-100640480D01*
X141923390Y-100640477D01*
X142042977Y-100520890D01*
X142132954Y-100377694D01*
X142132955Y-100377691D01*
X142132956Y-100377690D01*
X142158458Y-100304808D01*
X142199180Y-100248032D01*
X142264133Y-100222285D01*
X142332694Y-100235741D01*
X142383097Y-100284128D01*
X142399500Y-100345763D01*
X142399500Y-102609336D01*
X142380494Y-102675308D01*
X142319545Y-102772307D01*
X142263685Y-102931943D01*
X142244751Y-103099997D01*
X142244751Y-103100002D01*
X142263685Y-103268056D01*
X142319545Y-103427694D01*
X142319547Y-103427697D01*
X142409518Y-103570884D01*
X142409523Y-103570890D01*
X142529109Y-103690476D01*
X142529115Y-103690481D01*
X142672302Y-103780452D01*
X142672305Y-103780454D01*
X142672309Y-103780455D01*
X142672310Y-103780456D01*
X142744913Y-103805860D01*
X142831943Y-103836314D01*
X142999997Y-103855249D01*
X143000000Y-103855249D01*
X143000003Y-103855249D01*
X143168056Y-103836314D01*
X143168059Y-103836313D01*
X143327690Y-103780456D01*
X143327692Y-103780454D01*
X143327694Y-103780454D01*
X143327697Y-103780452D01*
X143470884Y-103690481D01*
X143470885Y-103690480D01*
X143470890Y-103690477D01*
X143590477Y-103570890D01*
X143627516Y-103511943D01*
X143680452Y-103427697D01*
X143680454Y-103427694D01*
X143680454Y-103427692D01*
X143680456Y-103427690D01*
X143736313Y-103268059D01*
X143736313Y-103268058D01*
X143736314Y-103268056D01*
X143755249Y-103100002D01*
X143755249Y-103099997D01*
X143736314Y-102931943D01*
X143722904Y-102893621D01*
X143680456Y-102772310D01*
X143638297Y-102705214D01*
X143619506Y-102675308D01*
X143600500Y-102609336D01*
X143600500Y-100049097D01*
X143620185Y-99982058D01*
X143672989Y-99936303D01*
X143742147Y-99926359D01*
X143805703Y-99955384D01*
X143812181Y-99961416D01*
X144744669Y-100893904D01*
X144750022Y-100900007D01*
X144762739Y-100916581D01*
X144771718Y-100928282D01*
X144860537Y-100996435D01*
X144897159Y-101024536D01*
X145043238Y-101085044D01*
X145121619Y-101095363D01*
X145199999Y-101105682D01*
X145200000Y-101105682D01*
X145235329Y-101101030D01*
X145243428Y-101100500D01*
X146399903Y-101100500D01*
X146466942Y-101120185D01*
X146487584Y-101136819D01*
X146728158Y-101377393D01*
X146761643Y-101438716D01*
X146756659Y-101508408D01*
X146745472Y-101531044D01*
X146719544Y-101572308D01*
X146663685Y-101731943D01*
X146644751Y-101899997D01*
X146644751Y-101900002D01*
X146663685Y-102068056D01*
X146719545Y-102227694D01*
X146719547Y-102227697D01*
X146809518Y-102370884D01*
X146809523Y-102370890D01*
X146929109Y-102490476D01*
X146929115Y-102490481D01*
X147072302Y-102580452D01*
X147072305Y-102580454D01*
X147072309Y-102580455D01*
X147072310Y-102580456D01*
X147144913Y-102605860D01*
X147231943Y-102636314D01*
X147399997Y-102655249D01*
X147400000Y-102655249D01*
X147400003Y-102655249D01*
X147568056Y-102636314D01*
X147591016Y-102628280D01*
X147727690Y-102580456D01*
X147727692Y-102580454D01*
X147727694Y-102580454D01*
X147727697Y-102580452D01*
X147870884Y-102490481D01*
X147870885Y-102490480D01*
X147870890Y-102490477D01*
X147990477Y-102370890D01*
X147990481Y-102370884D01*
X148080452Y-102227697D01*
X148080454Y-102227694D01*
X148080454Y-102227692D01*
X148080456Y-102227690D01*
X148136313Y-102068059D01*
X148136313Y-102068058D01*
X148136314Y-102068056D01*
X148155249Y-101900002D01*
X148155249Y-101899997D01*
X148136314Y-101731943D01*
X148106312Y-101646204D01*
X148080456Y-101572310D01*
X148069307Y-101554566D01*
X148019506Y-101475308D01*
X148000500Y-101409336D01*
X148000500Y-101243427D01*
X148001031Y-101235326D01*
X148005682Y-101200000D01*
X148005682Y-101199998D01*
X147985044Y-101043239D01*
X147985044Y-101043238D01*
X147924536Y-100897159D01*
X147924535Y-100897158D01*
X147924535Y-100897157D01*
X147851463Y-100801927D01*
X147851448Y-100801909D01*
X147828281Y-100771717D01*
X147800013Y-100750026D01*
X147793917Y-100744681D01*
X147155327Y-100106092D01*
X147149974Y-100099988D01*
X147128286Y-100071722D01*
X147128283Y-100071720D01*
X147128282Y-100071718D01*
X147002841Y-99975464D01*
X146968926Y-99961416D01*
X146856762Y-99914956D01*
X146856760Y-99914955D01*
X146739361Y-99899500D01*
X146700000Y-99894318D01*
X146664670Y-99898969D01*
X146656572Y-99899500D01*
X145500097Y-99899500D01*
X145433058Y-99879815D01*
X145412416Y-99863181D01*
X144136819Y-98587584D01*
X144103334Y-98526261D01*
X144100500Y-98499903D01*
X144100500Y-98400002D01*
X144744751Y-98400002D01*
X144763685Y-98568056D01*
X144819545Y-98727694D01*
X144819547Y-98727697D01*
X144909518Y-98870884D01*
X144909523Y-98870890D01*
X145029109Y-98990476D01*
X145029115Y-98990481D01*
X145172302Y-99080452D01*
X145172305Y-99080454D01*
X145172309Y-99080455D01*
X145172310Y-99080456D01*
X145244913Y-99105860D01*
X145331943Y-99136314D01*
X145499997Y-99155249D01*
X145500000Y-99155249D01*
X145500003Y-99155249D01*
X145668056Y-99136314D01*
X145668059Y-99136313D01*
X145827690Y-99080456D01*
X145827692Y-99080454D01*
X145827694Y-99080454D01*
X145827697Y-99080452D01*
X145970884Y-98990481D01*
X145970885Y-98990480D01*
X145970890Y-98990477D01*
X146090477Y-98870890D01*
X146092256Y-98868059D01*
X146180452Y-98727697D01*
X146180454Y-98727693D01*
X146180453Y-98727693D01*
X146180456Y-98727690D01*
X146184966Y-98714800D01*
X146225685Y-98658025D01*
X146262213Y-98640691D01*
X146261486Y-98638613D01*
X146268059Y-98636313D01*
X146427690Y-98580456D01*
X146427693Y-98580453D01*
X146427697Y-98580452D01*
X146570884Y-98490481D01*
X146570885Y-98490480D01*
X146570890Y-98490477D01*
X146690477Y-98370890D01*
X146690481Y-98370884D01*
X146780452Y-98227697D01*
X146780454Y-98227694D01*
X146780454Y-98227692D01*
X146780456Y-98227690D01*
X146836313Y-98068059D01*
X146836313Y-98068058D01*
X146836314Y-98068056D01*
X146855249Y-97900002D01*
X146855249Y-97899997D01*
X146836314Y-97731943D01*
X146793477Y-97609523D01*
X146780456Y-97572310D01*
X146780454Y-97572307D01*
X146780454Y-97572306D01*
X146730400Y-97492647D01*
X146713638Y-97465971D01*
X146694638Y-97398737D01*
X146713638Y-97334029D01*
X146780456Y-97227690D01*
X146836313Y-97068059D01*
X146836313Y-97068058D01*
X146836314Y-97068056D01*
X146855249Y-96900002D01*
X146855249Y-96899997D01*
X146836314Y-96731943D01*
X146780454Y-96572305D01*
X146780452Y-96572302D01*
X146690481Y-96429115D01*
X146690476Y-96429109D01*
X146570890Y-96309523D01*
X146570884Y-96309518D01*
X146427697Y-96219547D01*
X146427694Y-96219545D01*
X146268056Y-96163685D01*
X146100003Y-96144751D01*
X146099997Y-96144751D01*
X145931943Y-96163685D01*
X145772305Y-96219545D01*
X145772302Y-96219547D01*
X145629115Y-96309518D01*
X145629109Y-96309523D01*
X145509523Y-96429109D01*
X145509518Y-96429115D01*
X145419548Y-96572300D01*
X145419543Y-96572311D01*
X145409442Y-96601177D01*
X145368719Y-96657952D01*
X145333356Y-96677261D01*
X145172308Y-96733613D01*
X145172302Y-96733616D01*
X145029115Y-96823587D01*
X145029109Y-96823592D01*
X144909523Y-96943178D01*
X144909518Y-96943184D01*
X144819547Y-97086371D01*
X144819545Y-97086374D01*
X144763685Y-97246012D01*
X144744751Y-97414066D01*
X144744751Y-97414071D01*
X144763685Y-97582125D01*
X144819545Y-97741761D01*
X144881940Y-97841062D01*
X144900940Y-97908299D01*
X144881940Y-97973006D01*
X144819545Y-98072307D01*
X144763685Y-98231943D01*
X144744751Y-98399997D01*
X144744751Y-98400002D01*
X144100500Y-98400002D01*
X144100500Y-93900002D01*
X147144751Y-93900002D01*
X147163685Y-94068056D01*
X147219545Y-94227694D01*
X147219547Y-94227697D01*
X147309518Y-94370884D01*
X147309523Y-94370890D01*
X147429109Y-94490476D01*
X147429115Y-94490481D01*
X147572302Y-94580452D01*
X147572305Y-94580454D01*
X147572309Y-94580455D01*
X147572310Y-94580456D01*
X147644913Y-94605860D01*
X147731943Y-94636314D01*
X147899997Y-94655249D01*
X147900000Y-94655249D01*
X147900003Y-94655249D01*
X148068056Y-94636314D01*
X148068059Y-94636313D01*
X148227690Y-94580456D01*
X148227692Y-94580454D01*
X148227694Y-94580454D01*
X148227697Y-94580452D01*
X148370884Y-94490481D01*
X148370885Y-94490480D01*
X148370890Y-94490477D01*
X148490477Y-94370890D01*
X148529040Y-94309518D01*
X148580452Y-94227697D01*
X148580454Y-94227694D01*
X148580454Y-94227692D01*
X148580456Y-94227690D01*
X148636313Y-94068059D01*
X148636313Y-94068058D01*
X148636314Y-94068056D01*
X148655249Y-93900002D01*
X148655249Y-93899997D01*
X148636314Y-93731943D01*
X148580454Y-93572305D01*
X148580452Y-93572302D01*
X148490481Y-93429115D01*
X148490476Y-93429109D01*
X148370890Y-93309523D01*
X148370884Y-93309518D01*
X148227697Y-93219547D01*
X148227694Y-93219545D01*
X148068056Y-93163685D01*
X148010115Y-93157157D01*
X150387596Y-93157157D01*
X150406530Y-93325211D01*
X150462390Y-93484849D01*
X150462392Y-93484852D01*
X150552363Y-93628039D01*
X150552368Y-93628045D01*
X150593797Y-93669474D01*
X150627282Y-93730795D01*
X150622298Y-93800486D01*
X150593798Y-93844834D01*
X150559524Y-93879108D01*
X150559518Y-93879115D01*
X150469547Y-94022302D01*
X150469545Y-94022305D01*
X150413685Y-94181943D01*
X150394751Y-94349997D01*
X150394751Y-94350002D01*
X150413685Y-94518056D01*
X150469545Y-94677693D01*
X150520651Y-94759026D01*
X150539652Y-94826263D01*
X150520652Y-94890971D01*
X150469545Y-94972307D01*
X150413685Y-95131943D01*
X150394751Y-95299997D01*
X150394751Y-95300002D01*
X150413685Y-95468056D01*
X150469545Y-95627692D01*
X150559525Y-95770894D01*
X150560958Y-95772691D01*
X150561521Y-95774070D01*
X150563228Y-95776787D01*
X150562752Y-95777086D01*
X150587364Y-95837379D01*
X150574605Y-95906074D01*
X150560964Y-95927302D01*
X150559521Y-95929111D01*
X150469547Y-96072302D01*
X150469545Y-96072305D01*
X150413685Y-96231943D01*
X150394751Y-96399997D01*
X150394751Y-96400002D01*
X150413685Y-96568056D01*
X150469545Y-96727694D01*
X150469547Y-96727697D01*
X150559518Y-96870884D01*
X150559523Y-96870890D01*
X150679109Y-96990476D01*
X150679115Y-96990481D01*
X150822302Y-97080452D01*
X150822305Y-97080454D01*
X150822309Y-97080455D01*
X150822310Y-97080456D01*
X150878218Y-97100019D01*
X150981943Y-97136314D01*
X151149997Y-97155249D01*
X151150000Y-97155249D01*
X151150003Y-97155249D01*
X151318056Y-97136314D01*
X151358077Y-97122310D01*
X151477690Y-97080456D01*
X151477692Y-97080454D01*
X151477694Y-97080454D01*
X151477697Y-97080452D01*
X151620884Y-96990481D01*
X151620885Y-96990480D01*
X151620890Y-96990477D01*
X151740477Y-96870890D01*
X151744377Y-96864683D01*
X151830452Y-96727697D01*
X151830454Y-96727694D01*
X151830454Y-96727692D01*
X151830456Y-96727690D01*
X151886313Y-96568059D01*
X151886313Y-96568058D01*
X151886314Y-96568056D01*
X151905249Y-96400002D01*
X151905249Y-96399997D01*
X151886314Y-96231943D01*
X151836675Y-96090083D01*
X151830456Y-96072310D01*
X151830455Y-96072309D01*
X151830454Y-96072305D01*
X151830452Y-96072302D01*
X151740479Y-95929112D01*
X151739042Y-95927310D01*
X151738476Y-95925925D01*
X151736773Y-95923214D01*
X151737248Y-95922915D01*
X151712635Y-95862623D01*
X151725393Y-95793928D01*
X151739047Y-95772683D01*
X151740470Y-95770896D01*
X151740477Y-95770890D01*
X151830456Y-95627690D01*
X151886313Y-95468059D01*
X151886313Y-95468058D01*
X151886314Y-95468056D01*
X151905249Y-95300002D01*
X151905249Y-95299997D01*
X151886314Y-95131943D01*
X151863959Y-95068056D01*
X151830456Y-94972310D01*
X151830454Y-94972307D01*
X151830454Y-94972306D01*
X151779348Y-94890972D01*
X151760347Y-94823735D01*
X151779346Y-94759029D01*
X151830456Y-94677690D01*
X151886313Y-94518059D01*
X151886313Y-94518058D01*
X151886314Y-94518056D01*
X151905249Y-94350002D01*
X151905249Y-94349997D01*
X151886314Y-94181943D01*
X151830454Y-94022305D01*
X151830452Y-94022302D01*
X151740481Y-93879115D01*
X151740475Y-93879108D01*
X151699047Y-93837679D01*
X151665563Y-93776356D01*
X151670548Y-93706664D01*
X151699047Y-93662319D01*
X151733322Y-93628045D01*
X151823297Y-93484852D01*
X151823299Y-93484849D01*
X151823299Y-93484847D01*
X151823301Y-93484845D01*
X151879158Y-93325214D01*
X151879158Y-93325213D01*
X151879159Y-93325211D01*
X151898094Y-93157157D01*
X151898094Y-93157152D01*
X151879159Y-92989098D01*
X151823299Y-92829460D01*
X151823297Y-92829457D01*
X151733326Y-92686270D01*
X151733321Y-92686264D01*
X151613735Y-92566678D01*
X151613729Y-92566673D01*
X151470542Y-92476702D01*
X151470539Y-92476700D01*
X151372636Y-92442443D01*
X151315860Y-92401721D01*
X151290113Y-92336768D01*
X151303569Y-92268206D01*
X151351956Y-92217804D01*
X151372632Y-92208360D01*
X151477690Y-92171600D01*
X151477692Y-92171599D01*
X151477697Y-92171596D01*
X151620884Y-92081625D01*
X151620885Y-92081624D01*
X151620890Y-92081621D01*
X151740477Y-91962034D01*
X151830452Y-91818841D01*
X151830454Y-91818838D01*
X151830454Y-91818836D01*
X151830456Y-91818834D01*
X151886313Y-91659203D01*
X151886313Y-91659202D01*
X151886314Y-91659200D01*
X151905249Y-91491146D01*
X151905249Y-91491141D01*
X151886314Y-91323087D01*
X151830454Y-91163449D01*
X151830452Y-91163446D01*
X151740481Y-91020259D01*
X151740476Y-91020253D01*
X151620890Y-90900667D01*
X151620884Y-90900662D01*
X151477697Y-90810691D01*
X151477694Y-90810689D01*
X151318056Y-90754829D01*
X151150003Y-90735895D01*
X151149997Y-90735895D01*
X150981943Y-90754829D01*
X150822305Y-90810689D01*
X150822302Y-90810691D01*
X150679115Y-90900662D01*
X150679109Y-90900667D01*
X150559523Y-91020253D01*
X150559518Y-91020259D01*
X150469547Y-91163446D01*
X150469545Y-91163449D01*
X150413685Y-91323087D01*
X150394751Y-91491141D01*
X150394751Y-91491146D01*
X150413685Y-91659200D01*
X150469545Y-91818838D01*
X150469547Y-91818841D01*
X150559518Y-91962028D01*
X150559523Y-91962034D01*
X150679109Y-92081620D01*
X150679115Y-92081625D01*
X150822302Y-92171596D01*
X150822307Y-92171599D01*
X150822310Y-92171600D01*
X150920208Y-92205855D01*
X150976983Y-92246577D01*
X151002731Y-92311529D01*
X150989275Y-92380091D01*
X150940888Y-92430494D01*
X150920208Y-92439938D01*
X150815158Y-92476697D01*
X150815147Y-92476702D01*
X150671960Y-92566673D01*
X150671954Y-92566678D01*
X150552368Y-92686264D01*
X150552363Y-92686270D01*
X150462392Y-92829457D01*
X150462390Y-92829460D01*
X150406530Y-92989098D01*
X150387596Y-93157152D01*
X150387596Y-93157157D01*
X148010115Y-93157157D01*
X147900003Y-93144751D01*
X147899997Y-93144751D01*
X147731943Y-93163685D01*
X147572305Y-93219545D01*
X147572302Y-93219547D01*
X147429115Y-93309518D01*
X147429109Y-93309523D01*
X147309523Y-93429109D01*
X147309518Y-93429115D01*
X147219547Y-93572302D01*
X147219545Y-93572305D01*
X147163685Y-93731943D01*
X147144751Y-93899997D01*
X147144751Y-93900002D01*
X144100500Y-93900002D01*
X144100500Y-93472888D01*
X144120185Y-93405849D01*
X144136819Y-93385207D01*
X144535708Y-92986319D01*
X144597031Y-92952834D01*
X144623389Y-92950000D01*
X145609337Y-92950000D01*
X145675308Y-92969005D01*
X145772310Y-93029956D01*
X145893621Y-93072404D01*
X145931943Y-93085814D01*
X146099997Y-93104749D01*
X146100000Y-93104749D01*
X146100003Y-93104749D01*
X146268056Y-93085814D01*
X146268059Y-93085813D01*
X146427690Y-93029956D01*
X146427692Y-93029954D01*
X146427694Y-93029954D01*
X146427697Y-93029952D01*
X146570884Y-92939981D01*
X146570885Y-92939980D01*
X146570890Y-92939977D01*
X146690477Y-92820390D01*
X146774754Y-92686265D01*
X146780452Y-92677197D01*
X146780454Y-92677194D01*
X146780454Y-92677192D01*
X146780456Y-92677190D01*
X146836313Y-92517559D01*
X146836313Y-92517558D01*
X146836314Y-92517556D01*
X146855249Y-92349502D01*
X146855249Y-92349497D01*
X146836314Y-92181443D01*
X146780454Y-92021805D01*
X146780452Y-92021802D01*
X146690481Y-91878615D01*
X146690476Y-91878609D01*
X146570890Y-91759023D01*
X146570884Y-91759018D01*
X146427697Y-91669047D01*
X146427694Y-91669045D01*
X146268057Y-91613186D01*
X146260760Y-91612364D01*
X146196347Y-91585296D01*
X146169652Y-91555116D01*
X146096839Y-91439235D01*
X146077839Y-91371998D01*
X146098207Y-91305163D01*
X146114143Y-91285590D01*
X146225741Y-91173992D01*
X146287060Y-91140510D01*
X146299524Y-91138457D01*
X146318559Y-91136313D01*
X146478190Y-91080456D01*
X146478193Y-91080453D01*
X146478197Y-91080452D01*
X146621384Y-90990481D01*
X146621385Y-90990480D01*
X146621390Y-90990477D01*
X146740977Y-90870890D01*
X146813902Y-90754831D01*
X146830952Y-90727697D01*
X146830954Y-90727694D01*
X146830954Y-90727692D01*
X146830956Y-90727690D01*
X146886813Y-90568059D01*
X146886813Y-90568058D01*
X146886814Y-90568056D01*
X146905749Y-90400002D01*
X146905749Y-90399997D01*
X146886814Y-90231943D01*
X146830954Y-90072305D01*
X146830952Y-90072302D01*
X146740981Y-89929115D01*
X146740976Y-89929109D01*
X146621390Y-89809523D01*
X146621384Y-89809518D01*
X146478197Y-89719547D01*
X146478194Y-89719545D01*
X146318555Y-89663685D01*
X146285498Y-89659961D01*
X146221084Y-89632894D01*
X146182340Y-89577693D01*
X146180457Y-89572312D01*
X146180452Y-89572302D01*
X146090481Y-89429115D01*
X146090476Y-89429109D01*
X146027384Y-89366017D01*
X145993899Y-89304694D01*
X145998883Y-89235002D01*
X146040755Y-89179069D01*
X146101182Y-89155116D01*
X146268055Y-89136314D01*
X146268057Y-89136313D01*
X146268059Y-89136313D01*
X146427690Y-89080456D01*
X146427692Y-89080454D01*
X146427694Y-89080454D01*
X146427697Y-89080452D01*
X146555732Y-89000002D01*
X150394751Y-89000002D01*
X150413685Y-89168056D01*
X150469545Y-89327694D01*
X150469547Y-89327697D01*
X150559518Y-89470884D01*
X150559523Y-89470890D01*
X150679109Y-89590476D01*
X150679115Y-89590481D01*
X150822302Y-89680452D01*
X150822305Y-89680454D01*
X150822309Y-89680455D01*
X150822310Y-89680456D01*
X150894913Y-89705860D01*
X150981943Y-89736314D01*
X151149997Y-89755249D01*
X151150000Y-89755249D01*
X151150003Y-89755249D01*
X151318056Y-89736314D01*
X151330548Y-89731943D01*
X151477690Y-89680456D01*
X151477692Y-89680454D01*
X151477694Y-89680454D01*
X151477697Y-89680452D01*
X151620884Y-89590481D01*
X151620885Y-89590480D01*
X151620890Y-89590477D01*
X151740477Y-89470890D01*
X151766726Y-89429115D01*
X151830452Y-89327697D01*
X151830454Y-89327694D01*
X151830454Y-89327692D01*
X151830456Y-89327690D01*
X151886313Y-89168059D01*
X151886313Y-89168058D01*
X151886314Y-89168056D01*
X151905249Y-89000002D01*
X151905249Y-88999997D01*
X151886314Y-88831943D01*
X151843477Y-88709523D01*
X151830456Y-88672310D01*
X151830455Y-88672309D01*
X151830454Y-88672305D01*
X151830452Y-88672302D01*
X151740481Y-88529115D01*
X151740476Y-88529109D01*
X151620890Y-88409523D01*
X151620884Y-88409518D01*
X151477697Y-88319547D01*
X151477694Y-88319545D01*
X151318056Y-88263685D01*
X151150003Y-88244751D01*
X151149997Y-88244751D01*
X150981943Y-88263685D01*
X150822305Y-88319545D01*
X150822302Y-88319547D01*
X150679115Y-88409518D01*
X150679109Y-88409523D01*
X150559523Y-88529109D01*
X150559518Y-88529115D01*
X150469547Y-88672302D01*
X150469545Y-88672305D01*
X150413685Y-88831943D01*
X150394751Y-88999997D01*
X150394751Y-89000002D01*
X146555732Y-89000002D01*
X146570884Y-88990481D01*
X146570885Y-88990480D01*
X146570890Y-88990477D01*
X146690477Y-88870890D01*
X146714949Y-88831943D01*
X146780452Y-88727697D01*
X146780454Y-88727694D01*
X146780454Y-88727692D01*
X146780456Y-88727690D01*
X146836313Y-88568059D01*
X146836313Y-88568058D01*
X146836314Y-88568056D01*
X146855249Y-88400002D01*
X146855249Y-88399997D01*
X146836314Y-88231943D01*
X146817330Y-88177690D01*
X146780456Y-88072310D01*
X146780454Y-88072307D01*
X146780454Y-88072306D01*
X146746366Y-88018057D01*
X146713638Y-87965971D01*
X146694638Y-87898737D01*
X146713638Y-87834029D01*
X146780456Y-87727690D01*
X146836313Y-87568059D01*
X146836313Y-87568058D01*
X146836314Y-87568056D01*
X146855249Y-87400002D01*
X146855249Y-87399997D01*
X146836314Y-87231943D01*
X146817694Y-87178730D01*
X146780456Y-87072310D01*
X146780454Y-87072307D01*
X146780454Y-87072306D01*
X146751727Y-87026589D01*
X146713638Y-86965971D01*
X146694638Y-86898737D01*
X146713639Y-86834028D01*
X146780456Y-86727690D01*
X146836313Y-86568059D01*
X146836313Y-86568058D01*
X146836314Y-86568056D01*
X146855249Y-86400002D01*
X146855249Y-86399997D01*
X146843982Y-86300002D01*
X162444751Y-86300002D01*
X162463685Y-86468056D01*
X162519545Y-86627694D01*
X162519547Y-86627697D01*
X162609518Y-86770884D01*
X162609523Y-86770890D01*
X162729109Y-86890476D01*
X162729115Y-86890481D01*
X162872302Y-86980452D01*
X162872305Y-86980454D01*
X162872309Y-86980455D01*
X162872310Y-86980456D01*
X162944913Y-87005860D01*
X163031943Y-87036314D01*
X163199997Y-87055249D01*
X163200000Y-87055249D01*
X163200003Y-87055249D01*
X163368056Y-87036314D01*
X163384809Y-87030452D01*
X163527690Y-86980456D01*
X163527692Y-86980454D01*
X163527694Y-86980454D01*
X163527697Y-86980452D01*
X163670884Y-86890481D01*
X163670885Y-86890480D01*
X163670890Y-86890477D01*
X163790477Y-86770890D01*
X163790481Y-86770884D01*
X163880452Y-86627697D01*
X163880454Y-86627694D01*
X163880454Y-86627692D01*
X163880456Y-86627690D01*
X163936313Y-86468059D01*
X163936313Y-86468058D01*
X163936314Y-86468056D01*
X163955249Y-86300002D01*
X163955249Y-86299997D01*
X163936314Y-86131943D01*
X163889812Y-85999048D01*
X163880456Y-85972310D01*
X163880455Y-85972309D01*
X163880454Y-85972305D01*
X163880452Y-85972302D01*
X163790481Y-85829115D01*
X163790476Y-85829109D01*
X163670890Y-85709523D01*
X163670884Y-85709518D01*
X163527697Y-85619547D01*
X163527694Y-85619545D01*
X163368056Y-85563685D01*
X163200003Y-85544751D01*
X163199997Y-85544751D01*
X163031943Y-85563685D01*
X162872305Y-85619545D01*
X162872302Y-85619547D01*
X162729115Y-85709518D01*
X162729109Y-85709523D01*
X162609523Y-85829109D01*
X162609518Y-85829115D01*
X162519547Y-85972302D01*
X162519545Y-85972305D01*
X162463685Y-86131943D01*
X162444751Y-86299997D01*
X162444751Y-86300002D01*
X146843982Y-86300002D01*
X146836314Y-86231943D01*
X146780454Y-86072305D01*
X146780452Y-86072302D01*
X146690481Y-85929115D01*
X146690476Y-85929109D01*
X146570890Y-85809523D01*
X146570884Y-85809518D01*
X146427697Y-85719547D01*
X146427694Y-85719545D01*
X146268056Y-85663685D01*
X146100003Y-85644751D01*
X146099997Y-85644751D01*
X145931943Y-85663685D01*
X145772305Y-85719545D01*
X145772302Y-85719547D01*
X145629115Y-85809518D01*
X145629109Y-85809523D01*
X145509523Y-85929109D01*
X145509518Y-85929115D01*
X145419547Y-86072302D01*
X145419545Y-86072305D01*
X145363685Y-86231943D01*
X145344751Y-86399997D01*
X145344751Y-86400002D01*
X145363685Y-86568056D01*
X145419545Y-86727692D01*
X145486361Y-86834028D01*
X145505361Y-86901264D01*
X145486361Y-86965972D01*
X145419545Y-87072307D01*
X145419544Y-87072310D01*
X145415031Y-87085206D01*
X145374307Y-87141981D01*
X145337800Y-87159351D01*
X145338513Y-87161388D01*
X145331943Y-87163686D01*
X145331941Y-87163687D01*
X145276188Y-87183195D01*
X145172307Y-87219544D01*
X145172302Y-87219547D01*
X145029115Y-87309518D01*
X145029109Y-87309523D01*
X144909523Y-87429109D01*
X144909518Y-87429115D01*
X144819547Y-87572302D01*
X144819545Y-87572305D01*
X144763685Y-87731943D01*
X144744751Y-87899997D01*
X144744751Y-87900002D01*
X144763685Y-88068056D01*
X144819545Y-88227694D01*
X144819547Y-88227697D01*
X144909518Y-88370884D01*
X144909523Y-88370890D01*
X145029109Y-88490476D01*
X145029115Y-88490481D01*
X145172302Y-88580452D01*
X145172308Y-88580455D01*
X145172310Y-88580456D01*
X145324079Y-88633562D01*
X145338514Y-88638613D01*
X145337489Y-88641541D01*
X145386491Y-88668898D01*
X145415033Y-88714799D01*
X145419544Y-88727693D01*
X145509518Y-88870884D01*
X145509523Y-88870890D01*
X145572615Y-88933982D01*
X145606100Y-88995305D01*
X145601116Y-89064997D01*
X145559244Y-89120930D01*
X145498818Y-89144883D01*
X145331944Y-89163685D01*
X145172305Y-89219545D01*
X145172302Y-89219547D01*
X145029115Y-89309518D01*
X145029109Y-89309523D01*
X144909523Y-89429109D01*
X144909518Y-89429115D01*
X144819547Y-89572302D01*
X144819544Y-89572307D01*
X144763687Y-89731940D01*
X144763687Y-89731943D01*
X144761543Y-89750966D01*
X144734473Y-89815379D01*
X144726004Y-89824759D01*
X142206096Y-92344668D01*
X142199994Y-92350019D01*
X142171720Y-92371715D01*
X142171717Y-92371718D01*
X142171718Y-92371718D01*
X142084760Y-92485044D01*
X142081947Y-92488710D01*
X142075463Y-92497160D01*
X142014956Y-92643237D01*
X142014955Y-92643239D01*
X141997964Y-92772302D01*
X141994318Y-92800000D01*
X141997002Y-92820390D01*
X141998969Y-92835326D01*
X141999500Y-92843428D01*
X141999500Y-96002402D01*
X141979815Y-96069441D01*
X141963181Y-96090083D01*
X141377259Y-96676004D01*
X141315936Y-96709489D01*
X141303466Y-96711543D01*
X141295173Y-96712477D01*
X141284441Y-96713687D01*
X141284440Y-96713687D01*
X141124807Y-96769544D01*
X141124802Y-96769547D01*
X140981615Y-96859518D01*
X140981609Y-96859523D01*
X140862023Y-96979109D01*
X140862018Y-96979115D01*
X140772047Y-97122302D01*
X140772045Y-97122305D01*
X140716185Y-97281943D01*
X140697251Y-97449997D01*
X140697251Y-97450002D01*
X140716185Y-97618056D01*
X140772045Y-97777694D01*
X140772047Y-97777697D01*
X140862018Y-97920884D01*
X140862023Y-97920890D01*
X140981609Y-98040476D01*
X140981615Y-98040481D01*
X141124802Y-98130452D01*
X141124805Y-98130454D01*
X141124809Y-98130455D01*
X141124810Y-98130456D01*
X141180655Y-98149997D01*
X141284443Y-98186314D01*
X141452497Y-98205249D01*
X141452500Y-98205249D01*
X141452503Y-98205249D01*
X141620556Y-98186314D01*
X141620559Y-98186313D01*
X141780190Y-98130456D01*
X141780192Y-98130454D01*
X141780194Y-98130454D01*
X141780197Y-98130452D01*
X141923384Y-98040481D01*
X141923385Y-98040480D01*
X141923390Y-98040477D01*
X142042977Y-97920890D01*
X142070507Y-97877075D01*
X142122840Y-97830786D01*
X142191894Y-97820137D01*
X142255742Y-97848512D01*
X142294114Y-97906902D01*
X142299500Y-97943049D01*
X142299500Y-98302402D01*
X142279815Y-98369441D01*
X142263181Y-98390083D01*
X141377259Y-99276004D01*
X141315936Y-99309489D01*
X141303466Y-99311543D01*
X141295173Y-99312477D01*
X141284441Y-99313687D01*
X141284440Y-99313687D01*
X141124807Y-99369544D01*
X141124802Y-99369547D01*
X140981615Y-99459518D01*
X140981609Y-99459523D01*
X140862023Y-99579109D01*
X140862018Y-99579115D01*
X140772047Y-99722302D01*
X140772045Y-99722305D01*
X140716185Y-99881943D01*
X140697251Y-100049997D01*
X140697251Y-100050002D01*
X129000500Y-100050002D01*
X129000500Y-94900002D01*
X136644751Y-94900002D01*
X136663685Y-95068056D01*
X136719545Y-95227694D01*
X136719547Y-95227697D01*
X136809518Y-95370884D01*
X136809523Y-95370890D01*
X136929109Y-95490476D01*
X136929115Y-95490481D01*
X137072302Y-95580452D01*
X137072305Y-95580454D01*
X137072309Y-95580455D01*
X137072310Y-95580456D01*
X137089006Y-95586298D01*
X137231943Y-95636314D01*
X137399997Y-95655249D01*
X137400000Y-95655249D01*
X137400003Y-95655249D01*
X137568059Y-95636313D01*
X137568060Y-95636313D01*
X137709045Y-95586980D01*
X137778824Y-95583418D01*
X137790955Y-95586980D01*
X137931939Y-95636313D01*
X138099997Y-95655249D01*
X138100000Y-95655249D01*
X138100003Y-95655249D01*
X138268056Y-95636314D01*
X138268059Y-95636313D01*
X138427690Y-95580456D01*
X138427692Y-95580454D01*
X138427694Y-95580454D01*
X138427697Y-95580452D01*
X138570884Y-95490481D01*
X138570885Y-95490480D01*
X138570890Y-95490477D01*
X138690477Y-95370890D01*
X138735019Y-95300002D01*
X138780452Y-95227697D01*
X138780454Y-95227694D01*
X138780454Y-95227692D01*
X138780456Y-95227690D01*
X138836313Y-95068059D01*
X138836313Y-95068058D01*
X138836314Y-95068056D01*
X138855249Y-94900002D01*
X139344751Y-94900002D01*
X139363685Y-95068056D01*
X139419545Y-95227694D01*
X139419547Y-95227697D01*
X139509518Y-95370884D01*
X139509523Y-95370890D01*
X139629109Y-95490476D01*
X139629115Y-95490481D01*
X139772302Y-95580452D01*
X139772305Y-95580454D01*
X139772309Y-95580455D01*
X139772310Y-95580456D01*
X139789006Y-95586298D01*
X139931943Y-95636314D01*
X140099997Y-95655249D01*
X140100000Y-95655249D01*
X140100003Y-95655249D01*
X140268059Y-95636313D01*
X140268060Y-95636313D01*
X140409045Y-95586980D01*
X140478824Y-95583418D01*
X140490955Y-95586980D01*
X140631939Y-95636313D01*
X140799997Y-95655249D01*
X140800000Y-95655249D01*
X140800003Y-95655249D01*
X140968056Y-95636314D01*
X140968059Y-95636313D01*
X141127690Y-95580456D01*
X141127692Y-95580454D01*
X141127694Y-95580454D01*
X141127697Y-95580452D01*
X141270884Y-95490481D01*
X141270885Y-95490480D01*
X141270890Y-95490477D01*
X141390477Y-95370890D01*
X141435019Y-95300002D01*
X141480452Y-95227697D01*
X141480454Y-95227694D01*
X141480454Y-95227692D01*
X141480456Y-95227690D01*
X141536313Y-95068059D01*
X141536313Y-95068058D01*
X141536314Y-95068056D01*
X141555249Y-94900002D01*
X141555249Y-94899997D01*
X141536314Y-94731943D01*
X141483306Y-94580456D01*
X141480456Y-94572310D01*
X141480455Y-94572309D01*
X141480454Y-94572305D01*
X141480452Y-94572302D01*
X141390481Y-94429115D01*
X141390476Y-94429109D01*
X141270890Y-94309523D01*
X141270884Y-94309518D01*
X141127697Y-94219547D01*
X141127694Y-94219545D01*
X140968056Y-94163685D01*
X140800003Y-94144751D01*
X140799997Y-94144751D01*
X140631943Y-94163685D01*
X140490955Y-94213020D01*
X140421176Y-94216581D01*
X140409045Y-94213020D01*
X140268056Y-94163685D01*
X140100003Y-94144751D01*
X140099997Y-94144751D01*
X139931943Y-94163685D01*
X139772305Y-94219545D01*
X139772302Y-94219547D01*
X139629115Y-94309518D01*
X139629109Y-94309523D01*
X139509523Y-94429109D01*
X139509518Y-94429115D01*
X139419547Y-94572302D01*
X139419545Y-94572305D01*
X139363685Y-94731943D01*
X139344751Y-94899997D01*
X139344751Y-94900002D01*
X138855249Y-94900002D01*
X138855249Y-94899997D01*
X138836314Y-94731943D01*
X138783306Y-94580456D01*
X138780456Y-94572310D01*
X138780455Y-94572309D01*
X138780454Y-94572305D01*
X138780452Y-94572302D01*
X138690481Y-94429115D01*
X138690476Y-94429109D01*
X138570890Y-94309523D01*
X138570884Y-94309518D01*
X138427697Y-94219547D01*
X138427694Y-94219545D01*
X138268056Y-94163685D01*
X138100003Y-94144751D01*
X138099997Y-94144751D01*
X137931943Y-94163685D01*
X137790955Y-94213020D01*
X137721176Y-94216581D01*
X137709045Y-94213020D01*
X137568056Y-94163685D01*
X137400003Y-94144751D01*
X137399997Y-94144751D01*
X137231943Y-94163685D01*
X137072305Y-94219545D01*
X137072302Y-94219547D01*
X136929115Y-94309518D01*
X136929109Y-94309523D01*
X136809523Y-94429109D01*
X136809518Y-94429115D01*
X136719547Y-94572302D01*
X136719545Y-94572305D01*
X136663685Y-94731943D01*
X136644751Y-94899997D01*
X136644751Y-94900002D01*
X129000500Y-94900002D01*
X129000500Y-89300002D01*
X136644751Y-89300002D01*
X136663685Y-89468056D01*
X136719545Y-89627694D01*
X136719547Y-89627697D01*
X136809518Y-89770884D01*
X136809523Y-89770890D01*
X136929109Y-89890476D01*
X136929115Y-89890481D01*
X137072302Y-89980452D01*
X137072305Y-89980454D01*
X137072309Y-89980455D01*
X137072310Y-89980456D01*
X137090955Y-89986980D01*
X137231943Y-90036314D01*
X137399997Y-90055249D01*
X137400000Y-90055249D01*
X137400003Y-90055249D01*
X137568059Y-90036313D01*
X137568060Y-90036313D01*
X137709045Y-89986980D01*
X137778824Y-89983418D01*
X137790955Y-89986980D01*
X137931939Y-90036313D01*
X138099997Y-90055249D01*
X138100000Y-90055249D01*
X138100003Y-90055249D01*
X138268056Y-90036314D01*
X138268059Y-90036313D01*
X138427690Y-89980456D01*
X138534028Y-89913638D01*
X138601263Y-89894638D01*
X138665970Y-89913638D01*
X138690594Y-89929110D01*
X138772306Y-89980454D01*
X138772307Y-89980454D01*
X138772310Y-89980456D01*
X138878730Y-90017694D01*
X138931943Y-90036314D01*
X139099997Y-90055249D01*
X139100000Y-90055249D01*
X139100003Y-90055249D01*
X139268056Y-90036314D01*
X139268059Y-90036313D01*
X139427690Y-89980456D01*
X139534028Y-89913638D01*
X139601263Y-89894638D01*
X139665970Y-89913638D01*
X139690594Y-89929110D01*
X139772306Y-89980454D01*
X139772307Y-89980454D01*
X139772310Y-89980456D01*
X139878730Y-90017694D01*
X139931943Y-90036314D01*
X140099997Y-90055249D01*
X140100000Y-90055249D01*
X140100003Y-90055249D01*
X140268059Y-90036313D01*
X140268060Y-90036313D01*
X140327343Y-90015568D01*
X140409045Y-89986979D01*
X140478822Y-89983417D01*
X140490954Y-89986980D01*
X140631939Y-90036313D01*
X140799997Y-90055249D01*
X140800000Y-90055249D01*
X140800003Y-90055249D01*
X140968056Y-90036314D01*
X140968059Y-90036313D01*
X141127690Y-89980456D01*
X141127692Y-89980454D01*
X141127694Y-89980454D01*
X141127697Y-89980452D01*
X141270884Y-89890481D01*
X141270885Y-89890480D01*
X141270890Y-89890477D01*
X141390477Y-89770890D01*
X141412203Y-89736314D01*
X141480452Y-89627697D01*
X141480454Y-89627694D01*
X141480454Y-89627692D01*
X141480456Y-89627690D01*
X141536313Y-89468059D01*
X141536313Y-89468058D01*
X141536314Y-89468056D01*
X141555249Y-89300002D01*
X141555249Y-89299997D01*
X141536314Y-89131943D01*
X141486813Y-88990477D01*
X141480456Y-88972310D01*
X141480455Y-88972309D01*
X141480454Y-88972305D01*
X141480452Y-88972302D01*
X141390481Y-88829115D01*
X141390476Y-88829109D01*
X141270890Y-88709523D01*
X141270884Y-88709518D01*
X141127697Y-88619547D01*
X141127694Y-88619545D01*
X140968056Y-88563685D01*
X140800003Y-88544751D01*
X140799997Y-88544751D01*
X140631943Y-88563685D01*
X140490955Y-88613020D01*
X140421176Y-88616581D01*
X140409045Y-88613020D01*
X140268056Y-88563685D01*
X140100003Y-88544751D01*
X140099997Y-88544751D01*
X139931943Y-88563685D01*
X139772307Y-88619545D01*
X139665972Y-88686361D01*
X139598736Y-88705361D01*
X139534028Y-88686361D01*
X139427692Y-88619545D01*
X139427691Y-88619544D01*
X139427690Y-88619544D01*
X139389370Y-88606135D01*
X139268056Y-88563685D01*
X139100003Y-88544751D01*
X139099997Y-88544751D01*
X138931943Y-88563685D01*
X138772307Y-88619545D01*
X138665972Y-88686361D01*
X138598736Y-88705361D01*
X138534028Y-88686361D01*
X138427692Y-88619545D01*
X138427691Y-88619544D01*
X138427690Y-88619544D01*
X138389370Y-88606135D01*
X138268056Y-88563685D01*
X138100003Y-88544751D01*
X138099997Y-88544751D01*
X137931943Y-88563685D01*
X137790955Y-88613020D01*
X137721176Y-88616581D01*
X137709045Y-88613020D01*
X137568056Y-88563685D01*
X137400003Y-88544751D01*
X137399997Y-88544751D01*
X137231943Y-88563685D01*
X137072305Y-88619545D01*
X137072302Y-88619547D01*
X136929115Y-88709518D01*
X136929109Y-88709523D01*
X136809523Y-88829109D01*
X136809518Y-88829115D01*
X136719547Y-88972302D01*
X136719545Y-88972305D01*
X136663685Y-89131943D01*
X136644751Y-89299997D01*
X136644751Y-89300002D01*
X129000500Y-89300002D01*
X129000500Y-85408569D01*
X137681960Y-85408569D01*
X137700894Y-85576623D01*
X137756754Y-85736261D01*
X137756756Y-85736264D01*
X137846727Y-85879451D01*
X137846732Y-85879457D01*
X137966318Y-85999043D01*
X137966324Y-85999048D01*
X138109511Y-86089019D01*
X138109517Y-86089022D01*
X138109519Y-86089023D01*
X138222676Y-86128618D01*
X138279452Y-86169340D01*
X138305200Y-86234292D01*
X138304942Y-86259543D01*
X138294751Y-86349995D01*
X138294751Y-86350002D01*
X138313685Y-86518056D01*
X138369545Y-86677694D01*
X138369547Y-86677697D01*
X138459518Y-86820884D01*
X138459523Y-86820890D01*
X138579109Y-86940476D01*
X138579115Y-86940481D01*
X138722302Y-87030452D01*
X138722305Y-87030454D01*
X138722309Y-87030455D01*
X138722310Y-87030456D01*
X138793165Y-87055249D01*
X138881943Y-87086314D01*
X139049997Y-87105249D01*
X139050000Y-87105249D01*
X139050003Y-87105249D01*
X139218056Y-87086314D01*
X139218059Y-87086313D01*
X139377690Y-87030456D01*
X139377692Y-87030454D01*
X139377694Y-87030454D01*
X139377697Y-87030452D01*
X139520884Y-86940481D01*
X139520884Y-86940480D01*
X139520890Y-86940477D01*
X139587013Y-86874353D01*
X139648332Y-86840871D01*
X139718024Y-86845855D01*
X139762372Y-86874356D01*
X139828492Y-86940476D01*
X139828498Y-86940481D01*
X139971685Y-87030452D01*
X139971688Y-87030454D01*
X139971692Y-87030455D01*
X139971693Y-87030456D01*
X140042548Y-87055249D01*
X140131326Y-87086314D01*
X140299380Y-87105249D01*
X140299383Y-87105249D01*
X140299386Y-87105249D01*
X140467439Y-87086314D01*
X140467442Y-87086313D01*
X140627073Y-87030456D01*
X140627075Y-87030454D01*
X140627077Y-87030454D01*
X140627080Y-87030452D01*
X140770267Y-86940481D01*
X140770268Y-86940480D01*
X140770273Y-86940477D01*
X140889860Y-86820890D01*
X140889864Y-86820884D01*
X140979835Y-86677697D01*
X140979837Y-86677694D01*
X140979837Y-86677692D01*
X140979839Y-86677690D01*
X141035696Y-86518059D01*
X141035696Y-86518058D01*
X141035697Y-86518056D01*
X141054632Y-86350002D01*
X141054632Y-86349997D01*
X141035697Y-86181943D01*
X140979837Y-86022305D01*
X140979835Y-86022302D01*
X140889864Y-85879115D01*
X140889859Y-85879109D01*
X140770273Y-85759523D01*
X140770267Y-85759518D01*
X140627080Y-85669547D01*
X140627069Y-85669542D01*
X140525885Y-85634136D01*
X140469109Y-85593415D01*
X140443362Y-85528462D01*
X140443620Y-85503211D01*
X140455249Y-85400002D01*
X140455249Y-85399997D01*
X140436314Y-85231943D01*
X140405860Y-85144913D01*
X140380456Y-85072310D01*
X140380455Y-85072309D01*
X140380454Y-85072305D01*
X140380452Y-85072302D01*
X140290481Y-84929115D01*
X140290476Y-84929109D01*
X140170890Y-84809523D01*
X140170884Y-84809518D01*
X140027697Y-84719547D01*
X140027694Y-84719545D01*
X139868056Y-84663685D01*
X139700003Y-84644751D01*
X139699997Y-84644751D01*
X139531943Y-84663685D01*
X139372305Y-84719545D01*
X139372302Y-84719547D01*
X139229115Y-84809518D01*
X139229108Y-84809524D01*
X139152000Y-84886631D01*
X139090677Y-84920116D01*
X139020985Y-84915130D01*
X138976639Y-84886630D01*
X138908099Y-84818090D01*
X138908093Y-84818085D01*
X138764906Y-84728114D01*
X138764903Y-84728112D01*
X138605265Y-84672252D01*
X138437212Y-84653318D01*
X138437206Y-84653318D01*
X138269152Y-84672252D01*
X138109514Y-84728112D01*
X138109511Y-84728114D01*
X137966324Y-84818085D01*
X137966318Y-84818090D01*
X137846732Y-84937676D01*
X137846727Y-84937682D01*
X137756756Y-85080869D01*
X137756754Y-85080872D01*
X137700894Y-85240510D01*
X137681960Y-85408564D01*
X137681960Y-85408569D01*
X129000500Y-85408569D01*
X129000500Y-84250002D01*
X149394751Y-84250002D01*
X149413685Y-84418056D01*
X149469545Y-84577694D01*
X149469547Y-84577697D01*
X149559518Y-84720884D01*
X149559523Y-84720890D01*
X149679109Y-84840476D01*
X149679115Y-84840481D01*
X149822302Y-84930452D01*
X149822305Y-84930454D01*
X149822309Y-84930455D01*
X149822310Y-84930456D01*
X149842944Y-84937676D01*
X149981943Y-84986314D01*
X150149997Y-85005249D01*
X150150000Y-85005249D01*
X150150003Y-85005249D01*
X150196571Y-85000002D01*
X165644751Y-85000002D01*
X165663685Y-85168056D01*
X165719545Y-85327694D01*
X165719547Y-85327697D01*
X165809518Y-85470884D01*
X165809523Y-85470890D01*
X165929109Y-85590476D01*
X165929115Y-85590481D01*
X166072302Y-85680452D01*
X166072305Y-85680454D01*
X166072309Y-85680455D01*
X166072310Y-85680456D01*
X166144913Y-85705860D01*
X166231943Y-85736314D01*
X166399997Y-85755249D01*
X166400000Y-85755249D01*
X166400003Y-85755249D01*
X166568056Y-85736314D01*
X166568199Y-85736264D01*
X166727690Y-85680456D01*
X166727692Y-85680454D01*
X166727694Y-85680454D01*
X166727697Y-85680452D01*
X166870884Y-85590481D01*
X166870885Y-85590480D01*
X166870890Y-85590477D01*
X166990477Y-85470890D01*
X167029636Y-85408569D01*
X167080452Y-85327697D01*
X167080454Y-85327694D01*
X167080454Y-85327692D01*
X167080456Y-85327690D01*
X167136313Y-85168059D01*
X167136313Y-85168058D01*
X167136314Y-85168056D01*
X167155249Y-85000002D01*
X167155249Y-84999997D01*
X167136314Y-84831943D01*
X167099982Y-84728112D01*
X167080456Y-84672310D01*
X167080455Y-84672309D01*
X167080454Y-84672305D01*
X167080452Y-84672302D01*
X166990481Y-84529115D01*
X166990476Y-84529109D01*
X166870890Y-84409523D01*
X166870884Y-84409518D01*
X166727697Y-84319547D01*
X166727694Y-84319545D01*
X166568056Y-84263685D01*
X166400003Y-84244751D01*
X166399997Y-84244751D01*
X166231943Y-84263685D01*
X166072305Y-84319545D01*
X166072302Y-84319547D01*
X165929115Y-84409518D01*
X165929109Y-84409523D01*
X165809523Y-84529109D01*
X165809518Y-84529115D01*
X165719547Y-84672302D01*
X165719545Y-84672305D01*
X165663685Y-84831943D01*
X165644751Y-84999997D01*
X165644751Y-85000002D01*
X150196571Y-85000002D01*
X150318056Y-84986314D01*
X150318059Y-84986313D01*
X150477690Y-84930456D01*
X150477692Y-84930454D01*
X150477694Y-84930454D01*
X150477697Y-84930452D01*
X150620884Y-84840481D01*
X150620885Y-84840480D01*
X150620890Y-84840477D01*
X150740477Y-84720890D01*
X150771037Y-84672254D01*
X150830452Y-84577697D01*
X150830454Y-84577694D01*
X150830454Y-84577692D01*
X150830456Y-84577690D01*
X150886313Y-84418059D01*
X150886313Y-84418058D01*
X150886314Y-84418056D01*
X150905249Y-84250002D01*
X150905249Y-84249997D01*
X150886314Y-84081943D01*
X150830454Y-83922305D01*
X150830452Y-83922302D01*
X150740481Y-83779115D01*
X150740476Y-83779109D01*
X150620890Y-83659523D01*
X150620884Y-83659518D01*
X150477697Y-83569547D01*
X150477694Y-83569545D01*
X150318056Y-83513685D01*
X150150003Y-83494751D01*
X150149997Y-83494751D01*
X149981943Y-83513685D01*
X149822305Y-83569545D01*
X149822302Y-83569547D01*
X149679115Y-83659518D01*
X149679109Y-83659523D01*
X149559523Y-83779109D01*
X149559518Y-83779115D01*
X149469547Y-83922302D01*
X149469545Y-83922305D01*
X149413685Y-84081943D01*
X149394751Y-84249997D01*
X149394751Y-84250002D01*
X129000500Y-84250002D01*
X129000500Y-82124334D01*
X130499500Y-82124334D01*
X130540429Y-82369616D01*
X130621169Y-82604802D01*
X130621172Y-82604811D01*
X130739524Y-82823506D01*
X130739526Y-82823509D01*
X130892262Y-83019744D01*
X130924899Y-83049788D01*
X131075217Y-83188166D01*
X131283393Y-83324173D01*
X131511118Y-83424063D01*
X131752175Y-83485107D01*
X131752179Y-83485108D01*
X131752181Y-83485108D01*
X131752186Y-83485109D01*
X131885376Y-83496145D01*
X131937933Y-83500500D01*
X131937935Y-83500500D01*
X132062065Y-83500500D01*
X132062067Y-83500500D01*
X132131447Y-83494751D01*
X132247813Y-83485109D01*
X132247816Y-83485108D01*
X132247821Y-83485108D01*
X132488881Y-83424063D01*
X132716607Y-83324173D01*
X132879352Y-83217847D01*
X153426906Y-83217847D01*
X153445840Y-83385901D01*
X153501700Y-83545539D01*
X153501702Y-83545542D01*
X153591673Y-83688729D01*
X153591678Y-83688735D01*
X153711264Y-83808321D01*
X153711270Y-83808326D01*
X153854457Y-83898297D01*
X153854460Y-83898299D01*
X153854464Y-83898300D01*
X153854465Y-83898301D01*
X153923056Y-83922302D01*
X154014098Y-83954159D01*
X154182152Y-83973094D01*
X154182155Y-83973094D01*
X154182158Y-83973094D01*
X154350211Y-83954159D01*
X154401212Y-83936313D01*
X154509845Y-83898301D01*
X154509847Y-83898299D01*
X154509849Y-83898299D01*
X154509852Y-83898297D01*
X154658941Y-83804618D01*
X154659729Y-83805872D01*
X154717006Y-83782485D01*
X154785703Y-83795237D01*
X154795610Y-83800845D01*
X154922304Y-83880452D01*
X154922307Y-83880454D01*
X154922305Y-83880454D01*
X154922309Y-83880455D01*
X154922310Y-83880456D01*
X154994913Y-83905860D01*
X155081943Y-83936314D01*
X155249997Y-83955249D01*
X155250000Y-83955249D01*
X155250003Y-83955249D01*
X155418056Y-83936314D01*
X155458077Y-83922310D01*
X155577690Y-83880456D01*
X155577692Y-83880454D01*
X155577694Y-83880454D01*
X155577697Y-83880452D01*
X155720884Y-83790481D01*
X155720885Y-83790480D01*
X155720890Y-83790477D01*
X155840477Y-83670890D01*
X155840481Y-83670884D01*
X155930452Y-83527697D01*
X155930454Y-83527694D01*
X155930454Y-83527692D01*
X155930456Y-83527690D01*
X155986313Y-83368059D01*
X155986313Y-83368058D01*
X155986314Y-83368056D01*
X156005249Y-83200002D01*
X156005249Y-83199997D01*
X155986314Y-83031943D01*
X155930454Y-82872305D01*
X155930452Y-82872302D01*
X155840481Y-82729115D01*
X155840476Y-82729109D01*
X155720890Y-82609523D01*
X155720884Y-82609518D01*
X155577697Y-82519547D01*
X155577694Y-82519545D01*
X155418056Y-82463685D01*
X155250003Y-82444751D01*
X155249997Y-82444751D01*
X155081943Y-82463685D01*
X154922305Y-82519545D01*
X154922302Y-82519547D01*
X154773214Y-82613227D01*
X154772428Y-82611976D01*
X154715119Y-82635362D01*
X154646426Y-82622594D01*
X154636540Y-82616997D01*
X154509847Y-82537390D01*
X154509849Y-82537390D01*
X154350211Y-82481530D01*
X154182158Y-82462596D01*
X154182152Y-82462596D01*
X154014098Y-82481530D01*
X153854460Y-82537390D01*
X153854457Y-82537392D01*
X153711270Y-82627363D01*
X153711264Y-82627368D01*
X153591678Y-82746954D01*
X153591673Y-82746960D01*
X153501702Y-82890147D01*
X153501700Y-82890150D01*
X153445840Y-83049788D01*
X153426906Y-83217842D01*
X153426906Y-83217847D01*
X132879352Y-83217847D01*
X132924785Y-83188164D01*
X133107738Y-83019744D01*
X133260474Y-82823509D01*
X133378828Y-82604810D01*
X133459571Y-82369614D01*
X133500500Y-82124335D01*
X133500500Y-82100002D01*
X135244751Y-82100002D01*
X135263685Y-82268056D01*
X135319545Y-82427694D01*
X135319547Y-82427697D01*
X135409518Y-82570884D01*
X135409523Y-82570890D01*
X135529109Y-82690476D01*
X135529115Y-82690481D01*
X135672302Y-82780452D01*
X135672305Y-82780454D01*
X135672309Y-82780455D01*
X135672310Y-82780456D01*
X135744913Y-82805860D01*
X135831943Y-82836314D01*
X135999997Y-82855249D01*
X136000000Y-82855249D01*
X136000003Y-82855249D01*
X136168056Y-82836314D01*
X136168059Y-82836313D01*
X136327690Y-82780456D01*
X136327692Y-82780454D01*
X136327694Y-82780454D01*
X136327697Y-82780452D01*
X136470884Y-82690481D01*
X136470885Y-82690480D01*
X136470890Y-82690477D01*
X136590477Y-82570890D01*
X136590481Y-82570884D01*
X136680452Y-82427697D01*
X136680454Y-82427694D01*
X136680454Y-82427692D01*
X136680456Y-82427690D01*
X136736313Y-82268059D01*
X136736313Y-82268058D01*
X136736314Y-82268056D01*
X136752507Y-82124334D01*
X166499500Y-82124334D01*
X166540429Y-82369616D01*
X166621169Y-82604802D01*
X166621172Y-82604811D01*
X166739524Y-82823506D01*
X166739526Y-82823509D01*
X166892262Y-83019744D01*
X166924899Y-83049788D01*
X167075217Y-83188166D01*
X167283393Y-83324173D01*
X167511118Y-83424063D01*
X167752175Y-83485107D01*
X167752179Y-83485108D01*
X167752181Y-83485108D01*
X167752186Y-83485109D01*
X167885376Y-83496145D01*
X167937933Y-83500500D01*
X167937935Y-83500500D01*
X168062065Y-83500500D01*
X168062067Y-83500500D01*
X168131447Y-83494751D01*
X168247813Y-83485109D01*
X168247816Y-83485108D01*
X168247821Y-83485108D01*
X168488881Y-83424063D01*
X168716607Y-83324173D01*
X168924785Y-83188164D01*
X169107738Y-83019744D01*
X169260474Y-82823509D01*
X169378828Y-82604810D01*
X169459571Y-82369614D01*
X169500500Y-82124335D01*
X169500500Y-81875665D01*
X169459571Y-81630386D01*
X169378828Y-81395190D01*
X169260474Y-81176491D01*
X169107738Y-80980256D01*
X168924785Y-80811836D01*
X168924782Y-80811833D01*
X168716606Y-80675826D01*
X168488881Y-80575936D01*
X168247824Y-80514892D01*
X168247813Y-80514890D01*
X168082548Y-80501197D01*
X168062067Y-80499500D01*
X167937933Y-80499500D01*
X167918521Y-80501108D01*
X167752186Y-80514890D01*
X167752175Y-80514892D01*
X167511118Y-80575936D01*
X167283393Y-80675826D01*
X167075217Y-80811833D01*
X166892261Y-80980257D01*
X166739524Y-81176493D01*
X166621172Y-81395188D01*
X166621169Y-81395197D01*
X166540429Y-81630383D01*
X166499500Y-81875665D01*
X166499500Y-82124334D01*
X136752507Y-82124334D01*
X136755249Y-82100002D01*
X136755249Y-82099997D01*
X136736314Y-81931943D01*
X136680454Y-81772305D01*
X136680452Y-81772302D01*
X136590481Y-81629115D01*
X136590476Y-81629109D01*
X136470890Y-81509523D01*
X136470884Y-81509518D01*
X136327697Y-81419547D01*
X136327694Y-81419545D01*
X136168056Y-81363685D01*
X136000003Y-81344751D01*
X135999997Y-81344751D01*
X135831943Y-81363685D01*
X135672305Y-81419545D01*
X135672302Y-81419547D01*
X135529115Y-81509518D01*
X135529109Y-81509523D01*
X135409523Y-81629109D01*
X135409518Y-81629115D01*
X135319547Y-81772302D01*
X135319545Y-81772305D01*
X135263685Y-81931943D01*
X135244751Y-82099997D01*
X135244751Y-82100002D01*
X133500500Y-82100002D01*
X133500500Y-81875665D01*
X133459571Y-81630386D01*
X133378828Y-81395190D01*
X133260474Y-81176491D01*
X133107738Y-80980256D01*
X132924785Y-80811836D01*
X132924782Y-80811833D01*
X132716606Y-80675826D01*
X132488881Y-80575936D01*
X132247824Y-80514892D01*
X132247813Y-80514890D01*
X132082548Y-80501197D01*
X132062067Y-80499500D01*
X131937933Y-80499500D01*
X131918521Y-80501108D01*
X131752186Y-80514890D01*
X131752175Y-80514892D01*
X131511118Y-80575936D01*
X131283393Y-80675826D01*
X131075217Y-80811833D01*
X130892261Y-80980257D01*
X130739524Y-81176493D01*
X130621172Y-81395188D01*
X130621169Y-81395197D01*
X130540429Y-81630383D01*
X130499500Y-81875665D01*
X130499500Y-82124334D01*
X129000500Y-82124334D01*
X129000500Y-82001622D01*
X129000585Y-81998376D01*
X129007490Y-81866617D01*
X129017803Y-81682968D01*
X129018464Y-81676791D01*
X129042611Y-81524331D01*
X129070227Y-81361796D01*
X129071451Y-81356196D01*
X129112425Y-81203279D01*
X129157083Y-81048268D01*
X129158764Y-81043254D01*
X129216127Y-80893815D01*
X129277366Y-80745972D01*
X129279379Y-80741606D01*
X129352511Y-80598078D01*
X129364748Y-80575936D01*
X129429655Y-80458494D01*
X129431867Y-80454808D01*
X129519980Y-80319127D01*
X129534130Y-80299182D01*
X129612154Y-80189220D01*
X129614486Y-80186143D01*
X129715655Y-80061209D01*
X129717537Y-80058998D01*
X129822773Y-79941239D01*
X129825092Y-79938787D01*
X129938787Y-79825092D01*
X129941239Y-79822773D01*
X130058998Y-79717537D01*
X130061209Y-79715655D01*
X130186143Y-79614486D01*
X130189220Y-79612154D01*
X130299182Y-79534130D01*
X130319127Y-79519980D01*
X130336076Y-79508973D01*
X130454808Y-79431867D01*
X130458494Y-79429655D01*
X130598078Y-79352511D01*
X130619003Y-79341849D01*
X130741606Y-79279379D01*
X130745972Y-79277366D01*
X130893815Y-79216127D01*
X131043254Y-79158764D01*
X131048268Y-79157083D01*
X131203279Y-79112425D01*
X131356196Y-79071451D01*
X131361796Y-79070227D01*
X131524284Y-79042618D01*
X131676791Y-79018464D01*
X131682968Y-79017803D01*
X131866566Y-79007493D01*
X131998380Y-79000584D01*
X132001622Y-79000500D01*
X134087206Y-79000500D01*
X134154245Y-79020185D01*
G37*
%TD.AperFunction*%
%TD*%
M02*
