%TF.GenerationSoftware,KiCad,Pcbnew,7.0.6*%
%TF.CreationDate,2023-09-14T09:41:23+02:00*%
%TF.ProjectId,V8,56382e6b-6963-4616-945f-706362585858,rev?*%
%TF.SameCoordinates,Original*%
%TF.FileFunction,Drillmap*%
%TF.FilePolarity,Positive*%
%FSLAX45Y45*%
G04 Gerber Fmt 4.5, Leading zero omitted, Abs format (unit mm)*
G04 Created by KiCad (PCBNEW 7.0.6) date 2023-09-14 09:41:23*
%MOMM*%
%LPD*%
G01*
G04 APERTURE LIST*
%ADD10C,0.200000*%
%ADD11C,0.020000*%
G04 APERTURE END LIST*
D10*
X13520355Y-8000000D02*
X16499645Y-8000000D01*
X12900000Y-8200000D02*
X12900000Y-11800000D01*
X16800000Y-12100000D02*
G75*
G03*
X17100000Y-11800000I0J300000D01*
G01*
X13199645Y-7900000D02*
X13420355Y-7900000D01*
X16600000Y-7900000D02*
X16800000Y-7900000D01*
X17100000Y-11800000D02*
X17100000Y-8200000D01*
X12900000Y-11800000D02*
G75*
G03*
X13200000Y-12100000I300000J0D01*
G01*
X17100000Y-8200000D02*
G75*
G03*
X16800000Y-7900000I-300000J0D01*
G01*
X13200000Y-7900000D02*
G75*
G03*
X12900000Y-8200000I0J-300000D01*
G01*
X16500000Y-8000000D02*
G75*
G03*
X16600000Y-7900000I0J100000D01*
G01*
X13200000Y-12100000D02*
X16800000Y-12100000D01*
X13420710Y-7900000D02*
G75*
G03*
X13520711Y-8000000I100000J0D01*
G01*
D11*
X15260000Y-8620000D02*
X15280000Y-8640000D01*
X15280000Y-8620000D02*
X15260000Y-8640000D01*
X15310000Y-8670000D02*
X15330000Y-8690000D01*
X15330000Y-8670000D02*
X15310000Y-8690000D01*
X15510000Y-8620000D02*
X15530000Y-8640000D01*
X15530000Y-8620000D02*
X15510000Y-8640000D01*
X15560000Y-8670000D02*
X15580000Y-8690000D01*
X15580000Y-8670000D02*
X15560000Y-8690000D01*
X15610000Y-8620000D02*
X15630000Y-8640000D01*
X15630000Y-8620000D02*
X15610000Y-8640000D01*
X15660000Y-8670000D02*
X15680000Y-8690000D01*
X15680000Y-8670000D02*
X15660000Y-8690000D01*
X15710000Y-8620000D02*
X15730000Y-8640000D01*
X15730000Y-8620000D02*
X15710000Y-8640000D01*
X15760000Y-8670000D02*
X15780000Y-8690000D01*
X15780000Y-8670000D02*
X15760000Y-8690000D01*
X15810000Y-8620000D02*
X15830000Y-8640000D01*
X15830000Y-8620000D02*
X15810000Y-8640000D01*
X15860000Y-8670000D02*
X15880000Y-8690000D01*
X15880000Y-8670000D02*
X15860000Y-8690000D01*
X15910000Y-8620000D02*
X15930000Y-8640000D01*
X15930000Y-8620000D02*
X15910000Y-8640000D01*
X15960000Y-8670000D02*
X15980000Y-8690000D01*
X15980000Y-8670000D02*
X15960000Y-8690000D01*
X16010000Y-8620000D02*
X16030000Y-8640000D01*
X16030000Y-8620000D02*
X16010000Y-8640000D01*
X16060000Y-8670000D02*
X16080000Y-8690000D01*
X16080000Y-8670000D02*
X16060000Y-8690000D01*
X16110000Y-8620000D02*
X16130000Y-8640000D01*
X16130000Y-8620000D02*
X16110000Y-8640000D01*
X16160000Y-8670000D02*
X16180000Y-8690000D01*
X16180000Y-8670000D02*
X16160000Y-8690000D01*
X16210000Y-8620000D02*
X16230000Y-8640000D01*
X16230000Y-8620000D02*
X16210000Y-8640000D01*
X16260000Y-8670000D02*
X16280000Y-8690000D01*
X16280000Y-8670000D02*
X16260000Y-8690000D01*
X16310000Y-8620000D02*
X16330000Y-8640000D01*
X16330000Y-8620000D02*
X16310000Y-8640000D01*
D10*
X13150777Y-12421484D02*
X13150777Y-12221484D01*
X13150777Y-12221484D02*
X13198396Y-12221484D01*
X13198396Y-12221484D02*
X13226967Y-12231008D01*
X13226967Y-12231008D02*
X13246015Y-12250055D01*
X13246015Y-12250055D02*
X13255539Y-12269103D01*
X13255539Y-12269103D02*
X13265062Y-12307198D01*
X13265062Y-12307198D02*
X13265062Y-12335769D01*
X13265062Y-12335769D02*
X13255539Y-12373865D01*
X13255539Y-12373865D02*
X13246015Y-12392912D01*
X13246015Y-12392912D02*
X13226967Y-12411960D01*
X13226967Y-12411960D02*
X13198396Y-12421484D01*
X13198396Y-12421484D02*
X13150777Y-12421484D01*
X13350777Y-12421484D02*
X13350777Y-12288150D01*
X13350777Y-12326246D02*
X13360301Y-12307198D01*
X13360301Y-12307198D02*
X13369824Y-12297674D01*
X13369824Y-12297674D02*
X13388872Y-12288150D01*
X13388872Y-12288150D02*
X13407920Y-12288150D01*
X13474586Y-12421484D02*
X13474586Y-12288150D01*
X13474586Y-12221484D02*
X13465062Y-12231008D01*
X13465062Y-12231008D02*
X13474586Y-12240531D01*
X13474586Y-12240531D02*
X13484110Y-12231008D01*
X13484110Y-12231008D02*
X13474586Y-12221484D01*
X13474586Y-12221484D02*
X13474586Y-12240531D01*
X13598396Y-12421484D02*
X13579348Y-12411960D01*
X13579348Y-12411960D02*
X13569824Y-12392912D01*
X13569824Y-12392912D02*
X13569824Y-12221484D01*
X13703158Y-12421484D02*
X13684110Y-12411960D01*
X13684110Y-12411960D02*
X13674586Y-12392912D01*
X13674586Y-12392912D02*
X13674586Y-12221484D01*
X13931729Y-12421484D02*
X13931729Y-12221484D01*
X13931729Y-12221484D02*
X13998396Y-12364341D01*
X13998396Y-12364341D02*
X14065062Y-12221484D01*
X14065062Y-12221484D02*
X14065062Y-12421484D01*
X14246015Y-12421484D02*
X14246015Y-12316722D01*
X14246015Y-12316722D02*
X14236491Y-12297674D01*
X14236491Y-12297674D02*
X14217443Y-12288150D01*
X14217443Y-12288150D02*
X14179348Y-12288150D01*
X14179348Y-12288150D02*
X14160301Y-12297674D01*
X14246015Y-12411960D02*
X14226967Y-12421484D01*
X14226967Y-12421484D02*
X14179348Y-12421484D01*
X14179348Y-12421484D02*
X14160301Y-12411960D01*
X14160301Y-12411960D02*
X14150777Y-12392912D01*
X14150777Y-12392912D02*
X14150777Y-12373865D01*
X14150777Y-12373865D02*
X14160301Y-12354817D01*
X14160301Y-12354817D02*
X14179348Y-12345293D01*
X14179348Y-12345293D02*
X14226967Y-12345293D01*
X14226967Y-12345293D02*
X14246015Y-12335769D01*
X14341253Y-12288150D02*
X14341253Y-12488150D01*
X14341253Y-12297674D02*
X14360301Y-12288150D01*
X14360301Y-12288150D02*
X14398396Y-12288150D01*
X14398396Y-12288150D02*
X14417443Y-12297674D01*
X14417443Y-12297674D02*
X14426967Y-12307198D01*
X14426967Y-12307198D02*
X14436491Y-12326246D01*
X14436491Y-12326246D02*
X14436491Y-12383388D01*
X14436491Y-12383388D02*
X14426967Y-12402436D01*
X14426967Y-12402436D02*
X14417443Y-12411960D01*
X14417443Y-12411960D02*
X14398396Y-12421484D01*
X14398396Y-12421484D02*
X14360301Y-12421484D01*
X14360301Y-12421484D02*
X14341253Y-12411960D01*
X14522205Y-12402436D02*
X14531729Y-12411960D01*
X14531729Y-12411960D02*
X14522205Y-12421484D01*
X14522205Y-12421484D02*
X14512682Y-12411960D01*
X14512682Y-12411960D02*
X14522205Y-12402436D01*
X14522205Y-12402436D02*
X14522205Y-12421484D01*
X14522205Y-12297674D02*
X14531729Y-12307198D01*
X14531729Y-12307198D02*
X14522205Y-12316722D01*
X14522205Y-12316722D02*
X14512682Y-12307198D01*
X14512682Y-12307198D02*
X14522205Y-12297674D01*
X14522205Y-12297674D02*
X14522205Y-12316722D01*
D11*
X12870000Y-12740000D02*
X12890000Y-12760000D01*
X12890000Y-12740000D02*
X12870000Y-12760000D01*
D10*
X13188872Y-12641484D02*
X13207920Y-12641484D01*
X13207920Y-12641484D02*
X13226967Y-12651008D01*
X13226967Y-12651008D02*
X13236491Y-12660531D01*
X13236491Y-12660531D02*
X13246015Y-12679579D01*
X13246015Y-12679579D02*
X13255539Y-12717674D01*
X13255539Y-12717674D02*
X13255539Y-12765293D01*
X13255539Y-12765293D02*
X13246015Y-12803388D01*
X13246015Y-12803388D02*
X13236491Y-12822436D01*
X13236491Y-12822436D02*
X13226967Y-12831960D01*
X13226967Y-12831960D02*
X13207920Y-12841484D01*
X13207920Y-12841484D02*
X13188872Y-12841484D01*
X13188872Y-12841484D02*
X13169824Y-12831960D01*
X13169824Y-12831960D02*
X13160301Y-12822436D01*
X13160301Y-12822436D02*
X13150777Y-12803388D01*
X13150777Y-12803388D02*
X13141253Y-12765293D01*
X13141253Y-12765293D02*
X13141253Y-12717674D01*
X13141253Y-12717674D02*
X13150777Y-12679579D01*
X13150777Y-12679579D02*
X13160301Y-12660531D01*
X13160301Y-12660531D02*
X13169824Y-12651008D01*
X13169824Y-12651008D02*
X13188872Y-12641484D01*
X13341253Y-12822436D02*
X13350777Y-12831960D01*
X13350777Y-12831960D02*
X13341253Y-12841484D01*
X13341253Y-12841484D02*
X13331729Y-12831960D01*
X13331729Y-12831960D02*
X13341253Y-12822436D01*
X13341253Y-12822436D02*
X13341253Y-12841484D01*
X13426967Y-12660531D02*
X13436491Y-12651008D01*
X13436491Y-12651008D02*
X13455539Y-12641484D01*
X13455539Y-12641484D02*
X13503158Y-12641484D01*
X13503158Y-12641484D02*
X13522205Y-12651008D01*
X13522205Y-12651008D02*
X13531729Y-12660531D01*
X13531729Y-12660531D02*
X13541253Y-12679579D01*
X13541253Y-12679579D02*
X13541253Y-12698627D01*
X13541253Y-12698627D02*
X13531729Y-12727198D01*
X13531729Y-12727198D02*
X13417443Y-12841484D01*
X13417443Y-12841484D02*
X13541253Y-12841484D01*
X13665062Y-12641484D02*
X13684110Y-12641484D01*
X13684110Y-12641484D02*
X13703158Y-12651008D01*
X13703158Y-12651008D02*
X13712682Y-12660531D01*
X13712682Y-12660531D02*
X13722205Y-12679579D01*
X13722205Y-12679579D02*
X13731729Y-12717674D01*
X13731729Y-12717674D02*
X13731729Y-12765293D01*
X13731729Y-12765293D02*
X13722205Y-12803388D01*
X13722205Y-12803388D02*
X13712682Y-12822436D01*
X13712682Y-12822436D02*
X13703158Y-12831960D01*
X13703158Y-12831960D02*
X13684110Y-12841484D01*
X13684110Y-12841484D02*
X13665062Y-12841484D01*
X13665062Y-12841484D02*
X13646015Y-12831960D01*
X13646015Y-12831960D02*
X13636491Y-12822436D01*
X13636491Y-12822436D02*
X13626967Y-12803388D01*
X13626967Y-12803388D02*
X13617443Y-12765293D01*
X13617443Y-12765293D02*
X13617443Y-12717674D01*
X13617443Y-12717674D02*
X13626967Y-12679579D01*
X13626967Y-12679579D02*
X13636491Y-12660531D01*
X13636491Y-12660531D02*
X13646015Y-12651008D01*
X13646015Y-12651008D02*
X13665062Y-12641484D01*
X13855539Y-12641484D02*
X13874586Y-12641484D01*
X13874586Y-12641484D02*
X13893634Y-12651008D01*
X13893634Y-12651008D02*
X13903158Y-12660531D01*
X13903158Y-12660531D02*
X13912682Y-12679579D01*
X13912682Y-12679579D02*
X13922205Y-12717674D01*
X13922205Y-12717674D02*
X13922205Y-12765293D01*
X13922205Y-12765293D02*
X13912682Y-12803388D01*
X13912682Y-12803388D02*
X13903158Y-12822436D01*
X13903158Y-12822436D02*
X13893634Y-12831960D01*
X13893634Y-12831960D02*
X13874586Y-12841484D01*
X13874586Y-12841484D02*
X13855539Y-12841484D01*
X13855539Y-12841484D02*
X13836491Y-12831960D01*
X13836491Y-12831960D02*
X13826967Y-12822436D01*
X13826967Y-12822436D02*
X13817443Y-12803388D01*
X13817443Y-12803388D02*
X13807920Y-12765293D01*
X13807920Y-12765293D02*
X13807920Y-12717674D01*
X13807920Y-12717674D02*
X13817443Y-12679579D01*
X13817443Y-12679579D02*
X13826967Y-12660531D01*
X13826967Y-12660531D02*
X13836491Y-12651008D01*
X13836491Y-12651008D02*
X13855539Y-12641484D01*
X14007920Y-12841484D02*
X14007920Y-12708150D01*
X14007920Y-12727198D02*
X14017443Y-12717674D01*
X14017443Y-12717674D02*
X14036491Y-12708150D01*
X14036491Y-12708150D02*
X14065063Y-12708150D01*
X14065063Y-12708150D02*
X14084110Y-12717674D01*
X14084110Y-12717674D02*
X14093634Y-12736722D01*
X14093634Y-12736722D02*
X14093634Y-12841484D01*
X14093634Y-12736722D02*
X14103158Y-12717674D01*
X14103158Y-12717674D02*
X14122205Y-12708150D01*
X14122205Y-12708150D02*
X14150777Y-12708150D01*
X14150777Y-12708150D02*
X14169824Y-12717674D01*
X14169824Y-12717674D02*
X14179348Y-12736722D01*
X14179348Y-12736722D02*
X14179348Y-12841484D01*
X14274586Y-12841484D02*
X14274586Y-12708150D01*
X14274586Y-12727198D02*
X14284110Y-12717674D01*
X14284110Y-12717674D02*
X14303158Y-12708150D01*
X14303158Y-12708150D02*
X14331729Y-12708150D01*
X14331729Y-12708150D02*
X14350777Y-12717674D01*
X14350777Y-12717674D02*
X14360301Y-12736722D01*
X14360301Y-12736722D02*
X14360301Y-12841484D01*
X14360301Y-12736722D02*
X14369824Y-12717674D01*
X14369824Y-12717674D02*
X14388872Y-12708150D01*
X14388872Y-12708150D02*
X14417443Y-12708150D01*
X14417443Y-12708150D02*
X14436491Y-12717674D01*
X14436491Y-12717674D02*
X14446015Y-12736722D01*
X14446015Y-12736722D02*
X14446015Y-12841484D01*
X14836491Y-12631960D02*
X14665063Y-12889103D01*
X15093634Y-12641484D02*
X15112682Y-12641484D01*
X15112682Y-12641484D02*
X15131729Y-12651008D01*
X15131729Y-12651008D02*
X15141253Y-12660531D01*
X15141253Y-12660531D02*
X15150777Y-12679579D01*
X15150777Y-12679579D02*
X15160301Y-12717674D01*
X15160301Y-12717674D02*
X15160301Y-12765293D01*
X15160301Y-12765293D02*
X15150777Y-12803388D01*
X15150777Y-12803388D02*
X15141253Y-12822436D01*
X15141253Y-12822436D02*
X15131729Y-12831960D01*
X15131729Y-12831960D02*
X15112682Y-12841484D01*
X15112682Y-12841484D02*
X15093634Y-12841484D01*
X15093634Y-12841484D02*
X15074586Y-12831960D01*
X15074586Y-12831960D02*
X15065063Y-12822436D01*
X15065063Y-12822436D02*
X15055539Y-12803388D01*
X15055539Y-12803388D02*
X15046015Y-12765293D01*
X15046015Y-12765293D02*
X15046015Y-12717674D01*
X15046015Y-12717674D02*
X15055539Y-12679579D01*
X15055539Y-12679579D02*
X15065063Y-12660531D01*
X15065063Y-12660531D02*
X15074586Y-12651008D01*
X15074586Y-12651008D02*
X15093634Y-12641484D01*
X15246015Y-12822436D02*
X15255539Y-12831960D01*
X15255539Y-12831960D02*
X15246015Y-12841484D01*
X15246015Y-12841484D02*
X15236491Y-12831960D01*
X15236491Y-12831960D02*
X15246015Y-12822436D01*
X15246015Y-12822436D02*
X15246015Y-12841484D01*
X15379348Y-12641484D02*
X15398396Y-12641484D01*
X15398396Y-12641484D02*
X15417444Y-12651008D01*
X15417444Y-12651008D02*
X15426967Y-12660531D01*
X15426967Y-12660531D02*
X15436491Y-12679579D01*
X15436491Y-12679579D02*
X15446015Y-12717674D01*
X15446015Y-12717674D02*
X15446015Y-12765293D01*
X15446015Y-12765293D02*
X15436491Y-12803388D01*
X15436491Y-12803388D02*
X15426967Y-12822436D01*
X15426967Y-12822436D02*
X15417444Y-12831960D01*
X15417444Y-12831960D02*
X15398396Y-12841484D01*
X15398396Y-12841484D02*
X15379348Y-12841484D01*
X15379348Y-12841484D02*
X15360301Y-12831960D01*
X15360301Y-12831960D02*
X15350777Y-12822436D01*
X15350777Y-12822436D02*
X15341253Y-12803388D01*
X15341253Y-12803388D02*
X15331729Y-12765293D01*
X15331729Y-12765293D02*
X15331729Y-12717674D01*
X15331729Y-12717674D02*
X15341253Y-12679579D01*
X15341253Y-12679579D02*
X15350777Y-12660531D01*
X15350777Y-12660531D02*
X15360301Y-12651008D01*
X15360301Y-12651008D02*
X15379348Y-12641484D01*
X15569825Y-12641484D02*
X15588872Y-12641484D01*
X15588872Y-12641484D02*
X15607920Y-12651008D01*
X15607920Y-12651008D02*
X15617444Y-12660531D01*
X15617444Y-12660531D02*
X15626967Y-12679579D01*
X15626967Y-12679579D02*
X15636491Y-12717674D01*
X15636491Y-12717674D02*
X15636491Y-12765293D01*
X15636491Y-12765293D02*
X15626967Y-12803388D01*
X15626967Y-12803388D02*
X15617444Y-12822436D01*
X15617444Y-12822436D02*
X15607920Y-12831960D01*
X15607920Y-12831960D02*
X15588872Y-12841484D01*
X15588872Y-12841484D02*
X15569825Y-12841484D01*
X15569825Y-12841484D02*
X15550777Y-12831960D01*
X15550777Y-12831960D02*
X15541253Y-12822436D01*
X15541253Y-12822436D02*
X15531729Y-12803388D01*
X15531729Y-12803388D02*
X15522206Y-12765293D01*
X15522206Y-12765293D02*
X15522206Y-12717674D01*
X15522206Y-12717674D02*
X15531729Y-12679579D01*
X15531729Y-12679579D02*
X15541253Y-12660531D01*
X15541253Y-12660531D02*
X15550777Y-12651008D01*
X15550777Y-12651008D02*
X15569825Y-12641484D01*
X15703158Y-12641484D02*
X15836491Y-12641484D01*
X15836491Y-12641484D02*
X15750777Y-12841484D01*
X15922206Y-12841484D02*
X15960301Y-12841484D01*
X15960301Y-12841484D02*
X15979348Y-12831960D01*
X15979348Y-12831960D02*
X15988872Y-12822436D01*
X15988872Y-12822436D02*
X16007920Y-12793865D01*
X16007920Y-12793865D02*
X16017444Y-12755769D01*
X16017444Y-12755769D02*
X16017444Y-12679579D01*
X16017444Y-12679579D02*
X16007920Y-12660531D01*
X16007920Y-12660531D02*
X15998396Y-12651008D01*
X15998396Y-12651008D02*
X15979348Y-12641484D01*
X15979348Y-12641484D02*
X15941253Y-12641484D01*
X15941253Y-12641484D02*
X15922206Y-12651008D01*
X15922206Y-12651008D02*
X15912682Y-12660531D01*
X15912682Y-12660531D02*
X15903158Y-12679579D01*
X15903158Y-12679579D02*
X15903158Y-12727198D01*
X15903158Y-12727198D02*
X15912682Y-12746246D01*
X15912682Y-12746246D02*
X15922206Y-12755769D01*
X15922206Y-12755769D02*
X15941253Y-12765293D01*
X15941253Y-12765293D02*
X15979348Y-12765293D01*
X15979348Y-12765293D02*
X15998396Y-12755769D01*
X15998396Y-12755769D02*
X16007920Y-12746246D01*
X16007920Y-12746246D02*
X16017444Y-12727198D01*
X16093634Y-12641484D02*
X16093634Y-12679579D01*
X16169825Y-12641484D02*
X16169825Y-12679579D01*
X16465063Y-12917674D02*
X16455539Y-12908150D01*
X16455539Y-12908150D02*
X16436491Y-12879579D01*
X16436491Y-12879579D02*
X16426968Y-12860531D01*
X16426968Y-12860531D02*
X16417444Y-12831960D01*
X16417444Y-12831960D02*
X16407920Y-12784341D01*
X16407920Y-12784341D02*
X16407920Y-12746246D01*
X16407920Y-12746246D02*
X16417444Y-12698627D01*
X16417444Y-12698627D02*
X16426968Y-12670055D01*
X16426968Y-12670055D02*
X16436491Y-12651008D01*
X16436491Y-12651008D02*
X16455539Y-12622436D01*
X16455539Y-12622436D02*
X16465063Y-12612912D01*
X16646015Y-12841484D02*
X16531729Y-12841484D01*
X16588872Y-12841484D02*
X16588872Y-12641484D01*
X16588872Y-12641484D02*
X16569825Y-12670055D01*
X16569825Y-12670055D02*
X16550777Y-12689103D01*
X16550777Y-12689103D02*
X16531729Y-12698627D01*
X16741253Y-12841484D02*
X16779349Y-12841484D01*
X16779349Y-12841484D02*
X16798396Y-12831960D01*
X16798396Y-12831960D02*
X16807920Y-12822436D01*
X16807920Y-12822436D02*
X16826968Y-12793865D01*
X16826968Y-12793865D02*
X16836491Y-12755769D01*
X16836491Y-12755769D02*
X16836491Y-12679579D01*
X16836491Y-12679579D02*
X16826968Y-12660531D01*
X16826968Y-12660531D02*
X16817444Y-12651008D01*
X16817444Y-12651008D02*
X16798396Y-12641484D01*
X16798396Y-12641484D02*
X16760301Y-12641484D01*
X16760301Y-12641484D02*
X16741253Y-12651008D01*
X16741253Y-12651008D02*
X16731729Y-12660531D01*
X16731729Y-12660531D02*
X16722206Y-12679579D01*
X16722206Y-12679579D02*
X16722206Y-12727198D01*
X16722206Y-12727198D02*
X16731729Y-12746246D01*
X16731729Y-12746246D02*
X16741253Y-12755769D01*
X16741253Y-12755769D02*
X16760301Y-12765293D01*
X16760301Y-12765293D02*
X16798396Y-12765293D01*
X16798396Y-12765293D02*
X16817444Y-12755769D01*
X16817444Y-12755769D02*
X16826968Y-12746246D01*
X16826968Y-12746246D02*
X16836491Y-12727198D01*
X17074587Y-12841484D02*
X17074587Y-12641484D01*
X17160301Y-12841484D02*
X17160301Y-12736722D01*
X17160301Y-12736722D02*
X17150777Y-12717674D01*
X17150777Y-12717674D02*
X17131730Y-12708150D01*
X17131730Y-12708150D02*
X17103158Y-12708150D01*
X17103158Y-12708150D02*
X17084111Y-12717674D01*
X17084111Y-12717674D02*
X17074587Y-12727198D01*
X17284111Y-12841484D02*
X17265063Y-12831960D01*
X17265063Y-12831960D02*
X17255539Y-12822436D01*
X17255539Y-12822436D02*
X17246015Y-12803388D01*
X17246015Y-12803388D02*
X17246015Y-12746246D01*
X17246015Y-12746246D02*
X17255539Y-12727198D01*
X17255539Y-12727198D02*
X17265063Y-12717674D01*
X17265063Y-12717674D02*
X17284111Y-12708150D01*
X17284111Y-12708150D02*
X17312682Y-12708150D01*
X17312682Y-12708150D02*
X17331730Y-12717674D01*
X17331730Y-12717674D02*
X17341253Y-12727198D01*
X17341253Y-12727198D02*
X17350777Y-12746246D01*
X17350777Y-12746246D02*
X17350777Y-12803388D01*
X17350777Y-12803388D02*
X17341253Y-12822436D01*
X17341253Y-12822436D02*
X17331730Y-12831960D01*
X17331730Y-12831960D02*
X17312682Y-12841484D01*
X17312682Y-12841484D02*
X17284111Y-12841484D01*
X17465063Y-12841484D02*
X17446015Y-12831960D01*
X17446015Y-12831960D02*
X17436492Y-12812912D01*
X17436492Y-12812912D02*
X17436492Y-12641484D01*
X17617444Y-12831960D02*
X17598396Y-12841484D01*
X17598396Y-12841484D02*
X17560301Y-12841484D01*
X17560301Y-12841484D02*
X17541253Y-12831960D01*
X17541253Y-12831960D02*
X17531730Y-12812912D01*
X17531730Y-12812912D02*
X17531730Y-12736722D01*
X17531730Y-12736722D02*
X17541253Y-12717674D01*
X17541253Y-12717674D02*
X17560301Y-12708150D01*
X17560301Y-12708150D02*
X17598396Y-12708150D01*
X17598396Y-12708150D02*
X17617444Y-12717674D01*
X17617444Y-12717674D02*
X17626968Y-12736722D01*
X17626968Y-12736722D02*
X17626968Y-12755769D01*
X17626968Y-12755769D02*
X17531730Y-12774817D01*
X17703158Y-12831960D02*
X17722206Y-12841484D01*
X17722206Y-12841484D02*
X17760301Y-12841484D01*
X17760301Y-12841484D02*
X17779349Y-12831960D01*
X17779349Y-12831960D02*
X17788873Y-12812912D01*
X17788873Y-12812912D02*
X17788873Y-12803388D01*
X17788873Y-12803388D02*
X17779349Y-12784341D01*
X17779349Y-12784341D02*
X17760301Y-12774817D01*
X17760301Y-12774817D02*
X17731730Y-12774817D01*
X17731730Y-12774817D02*
X17712682Y-12765293D01*
X17712682Y-12765293D02*
X17703158Y-12746246D01*
X17703158Y-12746246D02*
X17703158Y-12736722D01*
X17703158Y-12736722D02*
X17712682Y-12717674D01*
X17712682Y-12717674D02*
X17731730Y-12708150D01*
X17731730Y-12708150D02*
X17760301Y-12708150D01*
X17760301Y-12708150D02*
X17779349Y-12717674D01*
X17855539Y-12917674D02*
X17865063Y-12908150D01*
X17865063Y-12908150D02*
X17884111Y-12879579D01*
X17884111Y-12879579D02*
X17893634Y-12860531D01*
X17893634Y-12860531D02*
X17903158Y-12831960D01*
X17903158Y-12831960D02*
X17912682Y-12784341D01*
X17912682Y-12784341D02*
X17912682Y-12746246D01*
X17912682Y-12746246D02*
X17903158Y-12698627D01*
X17903158Y-12698627D02*
X17893634Y-12670055D01*
X17893634Y-12670055D02*
X17884111Y-12651008D01*
X17884111Y-12651008D02*
X17865063Y-12622436D01*
X17865063Y-12622436D02*
X17855539Y-12612912D01*
M02*
