%TF.GenerationSoftware,KiCad,Pcbnew,7.0.6*%
%TF.CreationDate,2023-09-15T14:05:19+02:00*%
%TF.ProjectId,V8,56382e6b-6963-4616-945f-706362585858,rev?*%
%TF.SameCoordinates,Original*%
%TF.FileFunction,Drillmap*%
%TF.FilePolarity,Positive*%
%FSLAX45Y45*%
G04 Gerber Fmt 4.5, Leading zero omitted, Abs format (unit mm)*
G04 Created by KiCad (PCBNEW 7.0.6) date 2023-09-15 14:05:19*
%MOMM*%
%LPD*%
G01*
G04 APERTURE LIST*
%ADD10C,0.200000*%
%ADD11C,0.250000*%
G04 APERTURE END LIST*
D10*
X13520355Y-8000000D02*
X16499645Y-8000000D01*
X12900000Y-8200000D02*
X12900000Y-11800000D01*
X16800000Y-12100000D02*
G75*
G03*
X17100000Y-11800000I0J300000D01*
G01*
X13199645Y-7900000D02*
X13420355Y-7900000D01*
X16600000Y-7900000D02*
X16800000Y-7900000D01*
X17100000Y-11800000D02*
X17100000Y-8200000D01*
X12900000Y-11800000D02*
G75*
G03*
X13200000Y-12100000I300000J0D01*
G01*
X17100000Y-8200000D02*
G75*
G03*
X16800000Y-7900000I-300000J0D01*
G01*
X13200000Y-7900000D02*
G75*
G03*
X12900000Y-8200000I0J-300000D01*
G01*
X16500000Y-8000000D02*
G75*
G03*
X16600000Y-7900000I0J100000D01*
G01*
X13200000Y-12100000D02*
X16800000Y-12100000D01*
X13420710Y-7900000D02*
G75*
G03*
X13520711Y-8000000I100000J0D01*
G01*
D11*
X13075000Y-8075000D02*
X13325000Y-8325000D01*
X13325000Y-8075000D02*
X13075000Y-8325000D01*
X13075000Y-11675000D02*
X13325000Y-11925000D01*
X13325000Y-11675000D02*
X13075000Y-11925000D01*
X16675000Y-8075000D02*
X16925000Y-8325000D01*
X16925000Y-8075000D02*
X16675000Y-8325000D01*
X16675000Y-11675000D02*
X16925000Y-11925000D01*
X16925000Y-11675000D02*
X16675000Y-11925000D01*
D10*
X13150777Y-12421484D02*
X13150777Y-12221484D01*
X13150777Y-12221484D02*
X13198396Y-12221484D01*
X13198396Y-12221484D02*
X13226967Y-12231008D01*
X13226967Y-12231008D02*
X13246015Y-12250055D01*
X13246015Y-12250055D02*
X13255539Y-12269103D01*
X13255539Y-12269103D02*
X13265062Y-12307198D01*
X13265062Y-12307198D02*
X13265062Y-12335769D01*
X13265062Y-12335769D02*
X13255539Y-12373865D01*
X13255539Y-12373865D02*
X13246015Y-12392912D01*
X13246015Y-12392912D02*
X13226967Y-12411960D01*
X13226967Y-12411960D02*
X13198396Y-12421484D01*
X13198396Y-12421484D02*
X13150777Y-12421484D01*
X13350777Y-12421484D02*
X13350777Y-12288150D01*
X13350777Y-12326246D02*
X13360301Y-12307198D01*
X13360301Y-12307198D02*
X13369824Y-12297674D01*
X13369824Y-12297674D02*
X13388872Y-12288150D01*
X13388872Y-12288150D02*
X13407920Y-12288150D01*
X13474586Y-12421484D02*
X13474586Y-12288150D01*
X13474586Y-12221484D02*
X13465062Y-12231008D01*
X13465062Y-12231008D02*
X13474586Y-12240531D01*
X13474586Y-12240531D02*
X13484110Y-12231008D01*
X13484110Y-12231008D02*
X13474586Y-12221484D01*
X13474586Y-12221484D02*
X13474586Y-12240531D01*
X13598396Y-12421484D02*
X13579348Y-12411960D01*
X13579348Y-12411960D02*
X13569824Y-12392912D01*
X13569824Y-12392912D02*
X13569824Y-12221484D01*
X13703158Y-12421484D02*
X13684110Y-12411960D01*
X13684110Y-12411960D02*
X13674586Y-12392912D01*
X13674586Y-12392912D02*
X13674586Y-12221484D01*
X13931729Y-12421484D02*
X13931729Y-12221484D01*
X13931729Y-12221484D02*
X13998396Y-12364341D01*
X13998396Y-12364341D02*
X14065062Y-12221484D01*
X14065062Y-12221484D02*
X14065062Y-12421484D01*
X14246015Y-12421484D02*
X14246015Y-12316722D01*
X14246015Y-12316722D02*
X14236491Y-12297674D01*
X14236491Y-12297674D02*
X14217443Y-12288150D01*
X14217443Y-12288150D02*
X14179348Y-12288150D01*
X14179348Y-12288150D02*
X14160301Y-12297674D01*
X14246015Y-12411960D02*
X14226967Y-12421484D01*
X14226967Y-12421484D02*
X14179348Y-12421484D01*
X14179348Y-12421484D02*
X14160301Y-12411960D01*
X14160301Y-12411960D02*
X14150777Y-12392912D01*
X14150777Y-12392912D02*
X14150777Y-12373865D01*
X14150777Y-12373865D02*
X14160301Y-12354817D01*
X14160301Y-12354817D02*
X14179348Y-12345293D01*
X14179348Y-12345293D02*
X14226967Y-12345293D01*
X14226967Y-12345293D02*
X14246015Y-12335769D01*
X14341253Y-12288150D02*
X14341253Y-12488150D01*
X14341253Y-12297674D02*
X14360301Y-12288150D01*
X14360301Y-12288150D02*
X14398396Y-12288150D01*
X14398396Y-12288150D02*
X14417443Y-12297674D01*
X14417443Y-12297674D02*
X14426967Y-12307198D01*
X14426967Y-12307198D02*
X14436491Y-12326246D01*
X14436491Y-12326246D02*
X14436491Y-12383388D01*
X14436491Y-12383388D02*
X14426967Y-12402436D01*
X14426967Y-12402436D02*
X14417443Y-12411960D01*
X14417443Y-12411960D02*
X14398396Y-12421484D01*
X14398396Y-12421484D02*
X14360301Y-12421484D01*
X14360301Y-12421484D02*
X14341253Y-12411960D01*
X14522205Y-12402436D02*
X14531729Y-12411960D01*
X14531729Y-12411960D02*
X14522205Y-12421484D01*
X14522205Y-12421484D02*
X14512682Y-12411960D01*
X14512682Y-12411960D02*
X14522205Y-12402436D01*
X14522205Y-12402436D02*
X14522205Y-12421484D01*
X14522205Y-12297674D02*
X14531729Y-12307198D01*
X14531729Y-12307198D02*
X14522205Y-12316722D01*
X14522205Y-12316722D02*
X14512682Y-12307198D01*
X14512682Y-12307198D02*
X14522205Y-12297674D01*
X14522205Y-12297674D02*
X14522205Y-12316722D01*
X12690000Y-12650000D02*
X12890000Y-12850000D01*
X12890000Y-12650000D02*
X12690000Y-12850000D01*
X13141253Y-12660531D02*
X13150777Y-12651008D01*
X13150777Y-12651008D02*
X13169824Y-12641484D01*
X13169824Y-12641484D02*
X13217443Y-12641484D01*
X13217443Y-12641484D02*
X13236491Y-12651008D01*
X13236491Y-12651008D02*
X13246015Y-12660531D01*
X13246015Y-12660531D02*
X13255539Y-12679579D01*
X13255539Y-12679579D02*
X13255539Y-12698627D01*
X13255539Y-12698627D02*
X13246015Y-12727198D01*
X13246015Y-12727198D02*
X13131729Y-12841484D01*
X13131729Y-12841484D02*
X13255539Y-12841484D01*
X13341253Y-12822436D02*
X13350777Y-12831960D01*
X13350777Y-12831960D02*
X13341253Y-12841484D01*
X13341253Y-12841484D02*
X13331729Y-12831960D01*
X13331729Y-12831960D02*
X13341253Y-12822436D01*
X13341253Y-12822436D02*
X13341253Y-12841484D01*
X13531729Y-12641484D02*
X13436491Y-12641484D01*
X13436491Y-12641484D02*
X13426967Y-12736722D01*
X13426967Y-12736722D02*
X13436491Y-12727198D01*
X13436491Y-12727198D02*
X13455539Y-12717674D01*
X13455539Y-12717674D02*
X13503158Y-12717674D01*
X13503158Y-12717674D02*
X13522205Y-12727198D01*
X13522205Y-12727198D02*
X13531729Y-12736722D01*
X13531729Y-12736722D02*
X13541253Y-12755769D01*
X13541253Y-12755769D02*
X13541253Y-12803388D01*
X13541253Y-12803388D02*
X13531729Y-12822436D01*
X13531729Y-12822436D02*
X13522205Y-12831960D01*
X13522205Y-12831960D02*
X13503158Y-12841484D01*
X13503158Y-12841484D02*
X13455539Y-12841484D01*
X13455539Y-12841484D02*
X13436491Y-12831960D01*
X13436491Y-12831960D02*
X13426967Y-12822436D01*
X13665062Y-12641484D02*
X13684110Y-12641484D01*
X13684110Y-12641484D02*
X13703158Y-12651008D01*
X13703158Y-12651008D02*
X13712682Y-12660531D01*
X13712682Y-12660531D02*
X13722205Y-12679579D01*
X13722205Y-12679579D02*
X13731729Y-12717674D01*
X13731729Y-12717674D02*
X13731729Y-12765293D01*
X13731729Y-12765293D02*
X13722205Y-12803388D01*
X13722205Y-12803388D02*
X13712682Y-12822436D01*
X13712682Y-12822436D02*
X13703158Y-12831960D01*
X13703158Y-12831960D02*
X13684110Y-12841484D01*
X13684110Y-12841484D02*
X13665062Y-12841484D01*
X13665062Y-12841484D02*
X13646015Y-12831960D01*
X13646015Y-12831960D02*
X13636491Y-12822436D01*
X13636491Y-12822436D02*
X13626967Y-12803388D01*
X13626967Y-12803388D02*
X13617443Y-12765293D01*
X13617443Y-12765293D02*
X13617443Y-12717674D01*
X13617443Y-12717674D02*
X13626967Y-12679579D01*
X13626967Y-12679579D02*
X13636491Y-12660531D01*
X13636491Y-12660531D02*
X13646015Y-12651008D01*
X13646015Y-12651008D02*
X13665062Y-12641484D01*
X13855539Y-12641484D02*
X13874586Y-12641484D01*
X13874586Y-12641484D02*
X13893634Y-12651008D01*
X13893634Y-12651008D02*
X13903158Y-12660531D01*
X13903158Y-12660531D02*
X13912682Y-12679579D01*
X13912682Y-12679579D02*
X13922205Y-12717674D01*
X13922205Y-12717674D02*
X13922205Y-12765293D01*
X13922205Y-12765293D02*
X13912682Y-12803388D01*
X13912682Y-12803388D02*
X13903158Y-12822436D01*
X13903158Y-12822436D02*
X13893634Y-12831960D01*
X13893634Y-12831960D02*
X13874586Y-12841484D01*
X13874586Y-12841484D02*
X13855539Y-12841484D01*
X13855539Y-12841484D02*
X13836491Y-12831960D01*
X13836491Y-12831960D02*
X13826967Y-12822436D01*
X13826967Y-12822436D02*
X13817443Y-12803388D01*
X13817443Y-12803388D02*
X13807920Y-12765293D01*
X13807920Y-12765293D02*
X13807920Y-12717674D01*
X13807920Y-12717674D02*
X13817443Y-12679579D01*
X13817443Y-12679579D02*
X13826967Y-12660531D01*
X13826967Y-12660531D02*
X13836491Y-12651008D01*
X13836491Y-12651008D02*
X13855539Y-12641484D01*
X14007920Y-12841484D02*
X14007920Y-12708150D01*
X14007920Y-12727198D02*
X14017443Y-12717674D01*
X14017443Y-12717674D02*
X14036491Y-12708150D01*
X14036491Y-12708150D02*
X14065063Y-12708150D01*
X14065063Y-12708150D02*
X14084110Y-12717674D01*
X14084110Y-12717674D02*
X14093634Y-12736722D01*
X14093634Y-12736722D02*
X14093634Y-12841484D01*
X14093634Y-12736722D02*
X14103158Y-12717674D01*
X14103158Y-12717674D02*
X14122205Y-12708150D01*
X14122205Y-12708150D02*
X14150777Y-12708150D01*
X14150777Y-12708150D02*
X14169824Y-12717674D01*
X14169824Y-12717674D02*
X14179348Y-12736722D01*
X14179348Y-12736722D02*
X14179348Y-12841484D01*
X14274586Y-12841484D02*
X14274586Y-12708150D01*
X14274586Y-12727198D02*
X14284110Y-12717674D01*
X14284110Y-12717674D02*
X14303158Y-12708150D01*
X14303158Y-12708150D02*
X14331729Y-12708150D01*
X14331729Y-12708150D02*
X14350777Y-12717674D01*
X14350777Y-12717674D02*
X14360301Y-12736722D01*
X14360301Y-12736722D02*
X14360301Y-12841484D01*
X14360301Y-12736722D02*
X14369824Y-12717674D01*
X14369824Y-12717674D02*
X14388872Y-12708150D01*
X14388872Y-12708150D02*
X14417443Y-12708150D01*
X14417443Y-12708150D02*
X14436491Y-12717674D01*
X14436491Y-12717674D02*
X14446015Y-12736722D01*
X14446015Y-12736722D02*
X14446015Y-12841484D01*
X14836491Y-12631960D02*
X14665063Y-12889103D01*
X15093634Y-12641484D02*
X15112682Y-12641484D01*
X15112682Y-12641484D02*
X15131729Y-12651008D01*
X15131729Y-12651008D02*
X15141253Y-12660531D01*
X15141253Y-12660531D02*
X15150777Y-12679579D01*
X15150777Y-12679579D02*
X15160301Y-12717674D01*
X15160301Y-12717674D02*
X15160301Y-12765293D01*
X15160301Y-12765293D02*
X15150777Y-12803388D01*
X15150777Y-12803388D02*
X15141253Y-12822436D01*
X15141253Y-12822436D02*
X15131729Y-12831960D01*
X15131729Y-12831960D02*
X15112682Y-12841484D01*
X15112682Y-12841484D02*
X15093634Y-12841484D01*
X15093634Y-12841484D02*
X15074586Y-12831960D01*
X15074586Y-12831960D02*
X15065063Y-12822436D01*
X15065063Y-12822436D02*
X15055539Y-12803388D01*
X15055539Y-12803388D02*
X15046015Y-12765293D01*
X15046015Y-12765293D02*
X15046015Y-12717674D01*
X15046015Y-12717674D02*
X15055539Y-12679579D01*
X15055539Y-12679579D02*
X15065063Y-12660531D01*
X15065063Y-12660531D02*
X15074586Y-12651008D01*
X15074586Y-12651008D02*
X15093634Y-12641484D01*
X15246015Y-12822436D02*
X15255539Y-12831960D01*
X15255539Y-12831960D02*
X15246015Y-12841484D01*
X15246015Y-12841484D02*
X15236491Y-12831960D01*
X15236491Y-12831960D02*
X15246015Y-12822436D01*
X15246015Y-12822436D02*
X15246015Y-12841484D01*
X15379348Y-12641484D02*
X15398396Y-12641484D01*
X15398396Y-12641484D02*
X15417444Y-12651008D01*
X15417444Y-12651008D02*
X15426967Y-12660531D01*
X15426967Y-12660531D02*
X15436491Y-12679579D01*
X15436491Y-12679579D02*
X15446015Y-12717674D01*
X15446015Y-12717674D02*
X15446015Y-12765293D01*
X15446015Y-12765293D02*
X15436491Y-12803388D01*
X15436491Y-12803388D02*
X15426967Y-12822436D01*
X15426967Y-12822436D02*
X15417444Y-12831960D01*
X15417444Y-12831960D02*
X15398396Y-12841484D01*
X15398396Y-12841484D02*
X15379348Y-12841484D01*
X15379348Y-12841484D02*
X15360301Y-12831960D01*
X15360301Y-12831960D02*
X15350777Y-12822436D01*
X15350777Y-12822436D02*
X15341253Y-12803388D01*
X15341253Y-12803388D02*
X15331729Y-12765293D01*
X15331729Y-12765293D02*
X15331729Y-12717674D01*
X15331729Y-12717674D02*
X15341253Y-12679579D01*
X15341253Y-12679579D02*
X15350777Y-12660531D01*
X15350777Y-12660531D02*
X15360301Y-12651008D01*
X15360301Y-12651008D02*
X15379348Y-12641484D01*
X15541253Y-12841484D02*
X15579348Y-12841484D01*
X15579348Y-12841484D02*
X15598396Y-12831960D01*
X15598396Y-12831960D02*
X15607920Y-12822436D01*
X15607920Y-12822436D02*
X15626967Y-12793865D01*
X15626967Y-12793865D02*
X15636491Y-12755769D01*
X15636491Y-12755769D02*
X15636491Y-12679579D01*
X15636491Y-12679579D02*
X15626967Y-12660531D01*
X15626967Y-12660531D02*
X15617444Y-12651008D01*
X15617444Y-12651008D02*
X15598396Y-12641484D01*
X15598396Y-12641484D02*
X15560301Y-12641484D01*
X15560301Y-12641484D02*
X15541253Y-12651008D01*
X15541253Y-12651008D02*
X15531729Y-12660531D01*
X15531729Y-12660531D02*
X15522206Y-12679579D01*
X15522206Y-12679579D02*
X15522206Y-12727198D01*
X15522206Y-12727198D02*
X15531729Y-12746246D01*
X15531729Y-12746246D02*
X15541253Y-12755769D01*
X15541253Y-12755769D02*
X15560301Y-12765293D01*
X15560301Y-12765293D02*
X15598396Y-12765293D01*
X15598396Y-12765293D02*
X15617444Y-12755769D01*
X15617444Y-12755769D02*
X15626967Y-12746246D01*
X15626967Y-12746246D02*
X15636491Y-12727198D01*
X15750777Y-12727198D02*
X15731729Y-12717674D01*
X15731729Y-12717674D02*
X15722206Y-12708150D01*
X15722206Y-12708150D02*
X15712682Y-12689103D01*
X15712682Y-12689103D02*
X15712682Y-12679579D01*
X15712682Y-12679579D02*
X15722206Y-12660531D01*
X15722206Y-12660531D02*
X15731729Y-12651008D01*
X15731729Y-12651008D02*
X15750777Y-12641484D01*
X15750777Y-12641484D02*
X15788872Y-12641484D01*
X15788872Y-12641484D02*
X15807920Y-12651008D01*
X15807920Y-12651008D02*
X15817444Y-12660531D01*
X15817444Y-12660531D02*
X15826967Y-12679579D01*
X15826967Y-12679579D02*
X15826967Y-12689103D01*
X15826967Y-12689103D02*
X15817444Y-12708150D01*
X15817444Y-12708150D02*
X15807920Y-12717674D01*
X15807920Y-12717674D02*
X15788872Y-12727198D01*
X15788872Y-12727198D02*
X15750777Y-12727198D01*
X15750777Y-12727198D02*
X15731729Y-12736722D01*
X15731729Y-12736722D02*
X15722206Y-12746246D01*
X15722206Y-12746246D02*
X15712682Y-12765293D01*
X15712682Y-12765293D02*
X15712682Y-12803388D01*
X15712682Y-12803388D02*
X15722206Y-12822436D01*
X15722206Y-12822436D02*
X15731729Y-12831960D01*
X15731729Y-12831960D02*
X15750777Y-12841484D01*
X15750777Y-12841484D02*
X15788872Y-12841484D01*
X15788872Y-12841484D02*
X15807920Y-12831960D01*
X15807920Y-12831960D02*
X15817444Y-12822436D01*
X15817444Y-12822436D02*
X15826967Y-12803388D01*
X15826967Y-12803388D02*
X15826967Y-12765293D01*
X15826967Y-12765293D02*
X15817444Y-12746246D01*
X15817444Y-12746246D02*
X15807920Y-12736722D01*
X15807920Y-12736722D02*
X15788872Y-12727198D01*
X15998396Y-12708150D02*
X15998396Y-12841484D01*
X15950777Y-12631960D02*
X15903158Y-12774817D01*
X15903158Y-12774817D02*
X16026967Y-12774817D01*
X16093634Y-12641484D02*
X16093634Y-12679579D01*
X16169825Y-12641484D02*
X16169825Y-12679579D01*
X16465063Y-12917674D02*
X16455539Y-12908150D01*
X16455539Y-12908150D02*
X16436491Y-12879579D01*
X16436491Y-12879579D02*
X16426968Y-12860531D01*
X16426968Y-12860531D02*
X16417444Y-12831960D01*
X16417444Y-12831960D02*
X16407920Y-12784341D01*
X16407920Y-12784341D02*
X16407920Y-12746246D01*
X16407920Y-12746246D02*
X16417444Y-12698627D01*
X16417444Y-12698627D02*
X16426968Y-12670055D01*
X16426968Y-12670055D02*
X16436491Y-12651008D01*
X16436491Y-12651008D02*
X16455539Y-12622436D01*
X16455539Y-12622436D02*
X16465063Y-12612912D01*
X16626968Y-12708150D02*
X16626968Y-12841484D01*
X16579348Y-12631960D02*
X16531729Y-12774817D01*
X16531729Y-12774817D02*
X16655539Y-12774817D01*
X16884111Y-12841484D02*
X16884111Y-12641484D01*
X16969825Y-12841484D02*
X16969825Y-12736722D01*
X16969825Y-12736722D02*
X16960301Y-12717674D01*
X16960301Y-12717674D02*
X16941253Y-12708150D01*
X16941253Y-12708150D02*
X16912682Y-12708150D01*
X16912682Y-12708150D02*
X16893634Y-12717674D01*
X16893634Y-12717674D02*
X16884111Y-12727198D01*
X17093634Y-12841484D02*
X17074587Y-12831960D01*
X17074587Y-12831960D02*
X17065063Y-12822436D01*
X17065063Y-12822436D02*
X17055539Y-12803388D01*
X17055539Y-12803388D02*
X17055539Y-12746246D01*
X17055539Y-12746246D02*
X17065063Y-12727198D01*
X17065063Y-12727198D02*
X17074587Y-12717674D01*
X17074587Y-12717674D02*
X17093634Y-12708150D01*
X17093634Y-12708150D02*
X17122206Y-12708150D01*
X17122206Y-12708150D02*
X17141253Y-12717674D01*
X17141253Y-12717674D02*
X17150777Y-12727198D01*
X17150777Y-12727198D02*
X17160301Y-12746246D01*
X17160301Y-12746246D02*
X17160301Y-12803388D01*
X17160301Y-12803388D02*
X17150777Y-12822436D01*
X17150777Y-12822436D02*
X17141253Y-12831960D01*
X17141253Y-12831960D02*
X17122206Y-12841484D01*
X17122206Y-12841484D02*
X17093634Y-12841484D01*
X17274587Y-12841484D02*
X17255539Y-12831960D01*
X17255539Y-12831960D02*
X17246015Y-12812912D01*
X17246015Y-12812912D02*
X17246015Y-12641484D01*
X17426968Y-12831960D02*
X17407920Y-12841484D01*
X17407920Y-12841484D02*
X17369825Y-12841484D01*
X17369825Y-12841484D02*
X17350777Y-12831960D01*
X17350777Y-12831960D02*
X17341253Y-12812912D01*
X17341253Y-12812912D02*
X17341253Y-12736722D01*
X17341253Y-12736722D02*
X17350777Y-12717674D01*
X17350777Y-12717674D02*
X17369825Y-12708150D01*
X17369825Y-12708150D02*
X17407920Y-12708150D01*
X17407920Y-12708150D02*
X17426968Y-12717674D01*
X17426968Y-12717674D02*
X17436492Y-12736722D01*
X17436492Y-12736722D02*
X17436492Y-12755769D01*
X17436492Y-12755769D02*
X17341253Y-12774817D01*
X17512682Y-12831960D02*
X17531730Y-12841484D01*
X17531730Y-12841484D02*
X17569825Y-12841484D01*
X17569825Y-12841484D02*
X17588873Y-12831960D01*
X17588873Y-12831960D02*
X17598396Y-12812912D01*
X17598396Y-12812912D02*
X17598396Y-12803388D01*
X17598396Y-12803388D02*
X17588873Y-12784341D01*
X17588873Y-12784341D02*
X17569825Y-12774817D01*
X17569825Y-12774817D02*
X17541253Y-12774817D01*
X17541253Y-12774817D02*
X17522206Y-12765293D01*
X17522206Y-12765293D02*
X17512682Y-12746246D01*
X17512682Y-12746246D02*
X17512682Y-12736722D01*
X17512682Y-12736722D02*
X17522206Y-12717674D01*
X17522206Y-12717674D02*
X17541253Y-12708150D01*
X17541253Y-12708150D02*
X17569825Y-12708150D01*
X17569825Y-12708150D02*
X17588873Y-12717674D01*
X17665063Y-12917674D02*
X17674587Y-12908150D01*
X17674587Y-12908150D02*
X17693634Y-12879579D01*
X17693634Y-12879579D02*
X17703158Y-12860531D01*
X17703158Y-12860531D02*
X17712682Y-12831960D01*
X17712682Y-12831960D02*
X17722206Y-12784341D01*
X17722206Y-12784341D02*
X17722206Y-12746246D01*
X17722206Y-12746246D02*
X17712682Y-12698627D01*
X17712682Y-12698627D02*
X17703158Y-12670055D01*
X17703158Y-12670055D02*
X17693634Y-12651008D01*
X17693634Y-12651008D02*
X17674587Y-12622436D01*
X17674587Y-12622436D02*
X17665063Y-12612912D01*
X18026968Y-12917674D02*
X18017444Y-12908150D01*
X18017444Y-12908150D02*
X17998396Y-12879579D01*
X17998396Y-12879579D02*
X17988873Y-12860531D01*
X17988873Y-12860531D02*
X17979349Y-12831960D01*
X17979349Y-12831960D02*
X17969825Y-12784341D01*
X17969825Y-12784341D02*
X17969825Y-12746246D01*
X17969825Y-12746246D02*
X17979349Y-12698627D01*
X17979349Y-12698627D02*
X17988873Y-12670055D01*
X17988873Y-12670055D02*
X17998396Y-12651008D01*
X17998396Y-12651008D02*
X18017444Y-12622436D01*
X18017444Y-12622436D02*
X18026968Y-12612912D01*
X18103158Y-12708150D02*
X18103158Y-12841484D01*
X18103158Y-12727198D02*
X18112682Y-12717674D01*
X18112682Y-12717674D02*
X18131730Y-12708150D01*
X18131730Y-12708150D02*
X18160301Y-12708150D01*
X18160301Y-12708150D02*
X18179349Y-12717674D01*
X18179349Y-12717674D02*
X18188873Y-12736722D01*
X18188873Y-12736722D02*
X18188873Y-12841484D01*
X18312682Y-12841484D02*
X18293634Y-12831960D01*
X18293634Y-12831960D02*
X18284111Y-12822436D01*
X18284111Y-12822436D02*
X18274587Y-12803388D01*
X18274587Y-12803388D02*
X18274587Y-12746246D01*
X18274587Y-12746246D02*
X18284111Y-12727198D01*
X18284111Y-12727198D02*
X18293634Y-12717674D01*
X18293634Y-12717674D02*
X18312682Y-12708150D01*
X18312682Y-12708150D02*
X18341254Y-12708150D01*
X18341254Y-12708150D02*
X18360301Y-12717674D01*
X18360301Y-12717674D02*
X18369825Y-12727198D01*
X18369825Y-12727198D02*
X18379349Y-12746246D01*
X18379349Y-12746246D02*
X18379349Y-12803388D01*
X18379349Y-12803388D02*
X18369825Y-12822436D01*
X18369825Y-12822436D02*
X18360301Y-12831960D01*
X18360301Y-12831960D02*
X18341254Y-12841484D01*
X18341254Y-12841484D02*
X18312682Y-12841484D01*
X18436492Y-12708150D02*
X18512682Y-12708150D01*
X18465063Y-12641484D02*
X18465063Y-12812912D01*
X18465063Y-12812912D02*
X18474587Y-12831960D01*
X18474587Y-12831960D02*
X18493634Y-12841484D01*
X18493634Y-12841484D02*
X18512682Y-12841484D01*
X18731730Y-12708150D02*
X18731730Y-12908150D01*
X18731730Y-12717674D02*
X18750777Y-12708150D01*
X18750777Y-12708150D02*
X18788873Y-12708150D01*
X18788873Y-12708150D02*
X18807920Y-12717674D01*
X18807920Y-12717674D02*
X18817444Y-12727198D01*
X18817444Y-12727198D02*
X18826968Y-12746246D01*
X18826968Y-12746246D02*
X18826968Y-12803388D01*
X18826968Y-12803388D02*
X18817444Y-12822436D01*
X18817444Y-12822436D02*
X18807920Y-12831960D01*
X18807920Y-12831960D02*
X18788873Y-12841484D01*
X18788873Y-12841484D02*
X18750777Y-12841484D01*
X18750777Y-12841484D02*
X18731730Y-12831960D01*
X18941254Y-12841484D02*
X18922206Y-12831960D01*
X18922206Y-12831960D02*
X18912682Y-12812912D01*
X18912682Y-12812912D02*
X18912682Y-12641484D01*
X19103158Y-12841484D02*
X19103158Y-12736722D01*
X19103158Y-12736722D02*
X19093635Y-12717674D01*
X19093635Y-12717674D02*
X19074587Y-12708150D01*
X19074587Y-12708150D02*
X19036492Y-12708150D01*
X19036492Y-12708150D02*
X19017444Y-12717674D01*
X19103158Y-12831960D02*
X19084111Y-12841484D01*
X19084111Y-12841484D02*
X19036492Y-12841484D01*
X19036492Y-12841484D02*
X19017444Y-12831960D01*
X19017444Y-12831960D02*
X19007920Y-12812912D01*
X19007920Y-12812912D02*
X19007920Y-12793865D01*
X19007920Y-12793865D02*
X19017444Y-12774817D01*
X19017444Y-12774817D02*
X19036492Y-12765293D01*
X19036492Y-12765293D02*
X19084111Y-12765293D01*
X19084111Y-12765293D02*
X19103158Y-12755769D01*
X19169825Y-12708150D02*
X19246015Y-12708150D01*
X19198396Y-12641484D02*
X19198396Y-12812912D01*
X19198396Y-12812912D02*
X19207920Y-12831960D01*
X19207920Y-12831960D02*
X19226968Y-12841484D01*
X19226968Y-12841484D02*
X19246015Y-12841484D01*
X19388873Y-12831960D02*
X19369825Y-12841484D01*
X19369825Y-12841484D02*
X19331730Y-12841484D01*
X19331730Y-12841484D02*
X19312682Y-12831960D01*
X19312682Y-12831960D02*
X19303158Y-12812912D01*
X19303158Y-12812912D02*
X19303158Y-12736722D01*
X19303158Y-12736722D02*
X19312682Y-12717674D01*
X19312682Y-12717674D02*
X19331730Y-12708150D01*
X19331730Y-12708150D02*
X19369825Y-12708150D01*
X19369825Y-12708150D02*
X19388873Y-12717674D01*
X19388873Y-12717674D02*
X19398396Y-12736722D01*
X19398396Y-12736722D02*
X19398396Y-12755769D01*
X19398396Y-12755769D02*
X19303158Y-12774817D01*
X19569825Y-12841484D02*
X19569825Y-12641484D01*
X19569825Y-12831960D02*
X19550777Y-12841484D01*
X19550777Y-12841484D02*
X19512682Y-12841484D01*
X19512682Y-12841484D02*
X19493635Y-12831960D01*
X19493635Y-12831960D02*
X19484111Y-12822436D01*
X19484111Y-12822436D02*
X19474587Y-12803388D01*
X19474587Y-12803388D02*
X19474587Y-12746246D01*
X19474587Y-12746246D02*
X19484111Y-12727198D01*
X19484111Y-12727198D02*
X19493635Y-12717674D01*
X19493635Y-12717674D02*
X19512682Y-12708150D01*
X19512682Y-12708150D02*
X19550777Y-12708150D01*
X19550777Y-12708150D02*
X19569825Y-12717674D01*
X19646016Y-12917674D02*
X19655539Y-12908150D01*
X19655539Y-12908150D02*
X19674587Y-12879579D01*
X19674587Y-12879579D02*
X19684111Y-12860531D01*
X19684111Y-12860531D02*
X19693635Y-12831960D01*
X19693635Y-12831960D02*
X19703158Y-12784341D01*
X19703158Y-12784341D02*
X19703158Y-12746246D01*
X19703158Y-12746246D02*
X19693635Y-12698627D01*
X19693635Y-12698627D02*
X19684111Y-12670055D01*
X19684111Y-12670055D02*
X19674587Y-12651008D01*
X19674587Y-12651008D02*
X19655539Y-12622436D01*
X19655539Y-12622436D02*
X19646016Y-12612912D01*
M02*
