M48
; DRILL file {KiCad 7.0.6} date Fri Sep 15 14:05:17 2023
; FORMAT={-:-/ absolute / metric / decimal}
; #@! TF.CreationDate,2023-09-15T14:05:17+02:00
; #@! TF.GenerationSoftware,Kicad,Pcbnew,7.0.6
; #@! TF.FileFunction,Plated,1,4,PTH
FMAT,2
METRIC
; #@! TA.AperFunction,Plated,PTH,ViaDrill
T1C0.200
; #@! TA.AperFunction,Plated,PTH,ComponentDrill
T2C0.650
%
G90
G05
T1
X131.4Y-110.6
X131.4Y-112.1
X131.4Y-113.7
X136.0Y-82.1
X137.4Y-85.4
X137.4Y-89.3
X137.4Y-94.9
X137.4Y-101.6
X137.4Y-107.2
X138.052Y-98.75
X138.1Y-89.3
X138.1Y-94.9
X138.1Y-101.6
X138.1Y-107.2
X138.437Y-85.409
X139.05Y-86.35
X139.1Y-89.3
X139.1Y-94.9
X139.1Y-101.6
X139.1Y-107.2
X139.7Y-85.4
X140.1Y-89.3
X140.1Y-94.9
X140.299Y-86.35
X140.8Y-89.3
X140.8Y-94.9
X141.452Y-97.45
X141.452Y-100.05
X143.0Y-103.1
X143.3Y-90.65
X144.0Y-100.7
X144.5Y-95.5
X144.75Y-88.9
X144.8Y-93.3
X144.9Y-117.9
X145.2Y-110.006
X145.5Y-87.9
X145.5Y-89.9
X145.5Y-91.9
X145.5Y-97.414
X145.5Y-98.4
X146.0Y-104.4
X146.0Y-110.006
X146.1Y-86.4
X146.1Y-87.4
X146.1Y-88.4
X146.1Y-92.349
X146.1Y-96.9
X146.1Y-97.9
X146.15Y-90.4
X146.4Y-113.6
X146.8Y-114.2
X147.2Y-113.6
X147.4Y-101.9
X147.6Y-114.2
X147.9Y-93.9
X148.0Y-113.6
X148.4Y-114.2
X148.8Y-113.6
X149.2Y-114.2
X149.4Y-82.4
X149.6Y-113.6
X150.0Y-114.2
X150.1Y-102.2
X150.15Y-84.25
X150.4Y-113.6
X150.8Y-114.2
X151.143Y-93.157
X151.15Y-86.425
X151.15Y-89.0
X151.15Y-90.6
X151.15Y-91.491
X151.15Y-94.35
X151.15Y-95.3
X151.15Y-96.4
X151.2Y-113.6
X151.3Y-109.7
X151.6Y-114.2
X151.65Y-98.15
X152.0Y-113.6
X152.2Y-102.25
X152.4Y-114.2
X152.7Y-98.7
X152.8Y-113.6
X153.05Y-83.2
X153.2Y-98.2
X153.2Y-114.2
X153.6Y-113.6
X153.7Y-98.7
X153.75Y-109.8
X154.182Y-83.218
X154.2Y-96.8
X154.375Y-109.575
X154.4Y-117.8
X154.7Y-98.7
X155.2Y-98.2
X155.25Y-83.2
X155.7Y-98.7
X156.2Y-98.2
X156.7Y-98.7
X157.2Y-98.2
X157.7Y-98.7
X158.2Y-98.2
X158.7Y-98.7
X158.88Y-118.0
X158.9Y-108.9
X159.2Y-98.2
X159.7Y-98.7
X160.2Y-98.2
X160.7Y-98.7
X161.2Y-98.2
X161.7Y-98.7
X161.9Y-103.7
X162.55Y-109.18
X163.025Y-103.68
X163.2Y-86.3
X163.7Y-94.4
X163.7Y-96.95
X163.7Y-97.9
X163.725Y-103.68
X163.725Y-109.18
X164.4Y-101.6
X164.425Y-103.68
X164.425Y-109.18
X165.125Y-103.68
X165.5Y-109.18
X166.4Y-85.0
X166.4Y-96.15
X166.5Y-98.4
X167.0Y-96.9
X167.02Y-85.7
X167.45Y-93.1
X168.2Y-94.4
X168.65Y-87.85
T2
X169.3Y-102.59
X169.3Y-103.86
X169.3Y-105.13
X169.3Y-106.4
X169.3Y-107.67
X169.3Y-110.19
X169.3Y-111.46
X169.3Y-112.73
X169.3Y-114.0
T0
M30
